<svg width="360" height="359" viewBox="0 0 360 359" fill="none" xmlns="http://www.w3.org/2000/svg">
<path d="M180 303.843C256.776 303.843 319.016 300.209 319.016 295.727C319.016 291.244 256.776 287.61 180 287.61C103.224 287.61 40.9842 291.244 40.9842 295.727C40.9842 300.209 103.224 303.843 180 303.843Z" fill="#F5F5F5"/>
<path d="M171.679 257.777H33.2373C30.9788 257.773 29.1505 255.941 29.1505 253.683V59.0722C29.1698 56.828 30.9931 55.0176 33.2373 55.014H171.679C173.94 55.014 175.773 56.8466 175.773 59.108V253.683C175.773 255.944 173.94 257.777 171.679 257.777ZM33.2373 55.1574C31.0777 55.1617 29.3297 56.9126 29.3297 59.0722V253.683C29.3297 255.842 31.0777 257.593 33.2373 257.597H171.679C173.84 257.594 175.59 255.843 175.594 253.683V59.0722C175.59 56.9119 173.84 55.161 171.679 55.1574H33.2373Z" fill="#F0F0F0"/>
<path d="M326.77 257.777H188.321C186.061 257.773 184.23 255.942 184.227 253.683V59.0722C184.25 56.8266 186.075 55.0176 188.321 55.014H326.77C329.011 55.0219 330.83 56.8309 330.85 59.0722V253.683C330.85 255.938 329.026 257.769 326.77 257.777ZM188.321 55.1574C186.16 55.1617 184.409 56.9119 184.406 59.0722V253.683C184.409 255.843 186.16 257.593 188.321 257.597H326.77C328.93 257.594 330.68 255.843 330.685 253.683V59.0722C330.68 56.9119 328.93 55.161 326.77 55.1574H188.321Z" fill="#F0F0F0"/>
<path d="M68.8678 294.113H39.3209V294.293H68.8678V294.113Z" fill="#E0E0E0"/>
<path d="M167.654 292.679H160.484V292.859H167.654V292.679Z" fill="#E0E0E0"/>
<path d="M95.9912 298.802H62.8308V298.982H95.9912V298.802Z" fill="#E0E0E0"/>
<path d="M237.093 294.02H217.068V294.199H237.093V294.02Z" fill="#E0E0E0"/>
<path d="M315.805 294.02H295.78V294.199H315.805V294.02Z" fill="#E0E0E0"/>
<path d="M128.412 274.279H98.7794V274.459H128.412V274.279Z" fill="#E0E0E0"/>
<path d="M95.3093 280.402H62.1489V280.582H95.3093V280.402Z" fill="#E0E0E0"/>
<path d="M210.005 275.62H194.518V275.799H210.005V275.62Z" fill="#E0E0E0"/>
<path d="M236.412 275.62H216.386V275.799H236.412V275.62Z" fill="#E0E0E0"/>
<path d="M332.99 278.653H288.221V278.832H332.99V278.653Z" fill="#E0E0E0"/>
<path d="M57.472 173.259H35.0233V197.156H57.472V173.259Z" fill="#E6E6E6"/>
<path d="M35.0232 173.259H29.273V197.156H35.0232V173.259Z" fill="#F0F0F0"/>
<path d="M63.3584 169.573H46.4949V197.156H63.3584V169.573Z" fill="#E6E6E6"/>
<path d="M46.5021 169.573H41.6266V197.156H46.5021V169.573Z" fill="#F0F0F0"/>
<path d="M65.6815 173.259H51.4637V197.156H65.6815V173.259Z" fill="#F0F0F0"/>
<path d="M51.4636 173.259H48.2156V197.156H51.4636V173.259Z" fill="#F5F5F5"/>
<path d="M81.7491 177.303H63.1004V197.156H81.7491V177.303Z" fill="#E6E6E6"/>
<path d="M63.1002 177.303H58.3251V197.156H63.1002V177.303Z" fill="#F5F5F5"/>
<path d="M86.639 174.241H72.6291V197.156H86.639V174.241Z" fill="#E6E6E6"/>
<path d="M72.6362 174.241H68.5852V197.156H72.6362V174.241Z" fill="#F0F0F0"/>
<path d="M90.3671 177.303H76.7588V197.156H90.3671V177.303Z" fill="#F0F0F0"/>
<path d="M76.7516 177.303H74.0558V197.156H76.7516V177.303Z" fill="#F5F5F5"/>
<path d="M142.658 173.386H120.209V197.283H142.658V173.386Z" fill="#E6E6E6"/>
<path d="M120.209 173.386H114.459V197.283H120.209V173.386Z" fill="#F0F0F0"/>
<path d="M148.545 169.701H131.681V197.283H148.545V169.701Z" fill="#E6E6E6"/>
<path d="M131.688 169.701H126.813V197.283H131.688V169.701Z" fill="#F0F0F0"/>
<path d="M150.868 173.386H136.65V197.283H150.868V173.386Z" fill="#F0F0F0"/>
<path d="M136.65 173.386H133.402V197.283H136.65V173.386Z" fill="#F5F5F5"/>
<path d="M175.594 197.271H29.3297V204.187H175.594V197.271Z" fill="#E0E0E0"/>
<path d="M166.935 177.43H148.287V197.284H166.935V177.43Z" fill="#E6E6E6"/>
<path d="M148.286 177.43H143.511V197.284H148.286V177.43Z" fill="#F5F5F5"/>
<path d="M171.825 174.369H157.815V197.284H171.825V174.369Z" fill="#E6E6E6"/>
<path d="M157.822 174.369H153.771V197.284H157.822V174.369Z" fill="#F0F0F0"/>
<path d="M175.553 177.43H161.945V197.284H175.553V177.43Z" fill="#F0F0F0"/>
<path d="M161.938 177.43H159.242V197.284H161.938V177.43Z" fill="#F5F5F5"/>
<path d="M147.019 73.0461H29.5541V144.623H147.019V73.0461Z" fill="#EBEBEB"/>
<path d="M147.892 73.0173H147.032V144.594H147.892V73.0173Z" fill="#E0E0E0"/>
<path d="M33.8208 76.1549H33.111V140.561H33.8208V76.1549Z" fill="#E0E0E0"/>
<path d="M143.192 76.155H33.0399V140.562H143.192V76.155Z" fill="white"/>
<path d="M107.607 97.6185H98.5301V110.657H107.607V97.6185Z" fill="#F5F5F5"/>
<path d="M47.4229 118.276H38.3459V131.314H47.4229V118.276Z" fill="#F5F5F5"/>
<path d="M46.5379 91.0853H37.4609V100.162H46.5379V91.0853Z" fill="#F5F5F5"/>
<path d="M91.6913 122.432H82.6143V131.509H91.6913V122.432Z" fill="#F5F5F5"/>
<path d="M136.271 98.7415H113.027V131.407H136.271V98.7415Z" fill="#F5F5F5"/>
<path d="M132.906 103.471H116.209V103.829H132.906V103.471Z" fill="#E0E0E0"/>
<path d="M124.737 103.82H124.379V128.014H124.737V103.82Z" fill="#E0E0E0"/>
<path d="M132.404 103.821H132.045V128.014H132.404V103.821Z" fill="#E0E0E0"/>
<path d="M117.922 103.821H117.564V128.014H117.922V103.821Z" fill="#E0E0E0"/>
<path d="M116.73 103.821H116.371V128.014H116.73V103.821Z" fill="#E0E0E0"/>
<path d="M132.055 105.096H116.551V105.454H132.055V105.096Z" fill="#E0E0E0"/>
<path d="M75.207 88.8848V91.9513H82.3625V88.8848H75.207Z" fill="#F5F5F5"/>
<path d="M76.606 111.977V114.362H83.7615V111.977H76.606Z" fill="#F5F5F5"/>
<path d="M77.767 87.8784H54.5225V120.544H77.767V87.8784Z" fill="#F0F0F0"/>
<path d="M75.0012 117.259V119.644H82.1566V117.259H75.0012Z" fill="#F5F5F5"/>
<path d="M76.1936 95.422V97.8074H83.3491V95.422H76.1936Z" fill="#F5F5F5"/>
<path d="M74.6252 101.35V103.736H81.7807V101.35H74.6252Z" fill="#F5F5F5"/>
<path d="M73.1057 91.8942H57.2611V94.7055H73.1057V91.8942Z" fill="#E6E6E6"/>
<path d="M73.361 103.906H57.5164L57.2611 102.628H73.1057L73.361 103.906Z" fill="#E6E6E6"/>
<path d="M62.8837 97.5168H57.2611V100.328H62.8837V97.5168Z" fill="#E6E6E6"/>
<path d="M196.63 217.4C198.797 218.229 200.742 219.549 202.58 220.967C203.589 221.745 204.6 222.591 205.177 223.728C205.754 224.865 205.79 226.37 204.939 227.314C203.929 228.435 202.068 228.343 200.775 227.562C199.482 226.78 198.6 225.486 197.679 224.287C196.287 222.477 190.771 218.685 190.62 216.772C192.528 216.205 194.801 216.699 196.63 217.4Z" fill="#E6E6E6"/>
<path d="M196.392 227.29C196.606 228.745 197.161 230.247 198.349 231.114C199.538 231.982 201.468 231.914 202.264 230.678C203.058 229.446 202.431 227.815 201.688 226.552C200.41 224.377 198.763 222.077 196.748 220.547C196.402 222.891 196.034 224.866 196.392 227.29Z" fill="#E0E0E0"/>
<path d="M191.413 219.048C191.591 220.884 191.071 222.706 190.575 224.481C190.079 226.257 189.599 228.099 189.856 229.924C190.091 231.585 191.394 233.378 193.042 233.098C194.18 232.905 194.932 231.812 195.401 230.754C196.782 227.635 197.866 223.488 196.599 220.322C195.403 217.335 191.662 214.609 188.483 213.779C189.193 215.774 191.181 216.651 191.413 219.048Z" fill="#E6E6E6"/>
<path d="M181.553 216.29C179.264 218.829 178.202 222.435 178.748 225.815C176.304 225.136 173.522 225.872 171.729 227.673C169.937 229.473 169.205 232.266 169.883 234.718C171.049 235.329 172.463 234.305 173.028 233.113C173.593 231.921 173.697 230.535 174.359 229.393C175.022 228.253 176.664 227.475 177.643 228.357C178.155 233.973 177.386 241.872 177.897 247.489C177.971 247.125 182.31 247.154 182.291 247.055C181.758 244.248 181.021 233.547 182.404 233.875C183.502 234.136 183.731 235.603 183.59 236.726C183.451 237.841 183.255 239.172 184.085 239.915C184.96 240.699 186.243 240.38 186.881 239.393C187.813 237.95 187.274 236.284 186.655 234.828C186.098 233.518 185.376 232.142 184.086 231.546C182.797 230.951 180.875 231.696 180.862 233.121C180.131 229.586 179.405 225.876 180.437 222.417C181.469 218.958 184.897 215.93 188.416 216.673C190.148 217.038 192.707 218.515 193.964 216.479C194.858 215.032 194.012 214.048 192.756 213.327C189.183 211.278 184.007 213.568 181.553 216.29Z" fill="#F0F0F0"/>
<path d="M187.567 216.724C187.258 218.411 187.352 220.264 188.142 221.702C188.857 223.002 190.384 223.855 191.533 223.065C192.434 222.444 192.753 221.088 192.771 219.868C192.841 215.265 188.945 209.209 187.567 216.724Z" fill="#F0F0F0"/>
<path d="M193.866 212.301C196.586 213.14 198.888 215.248 199.969 217.889C200.296 218.687 200.497 219.661 200.004 220.368C199.389 221.251 198.058 221.213 197.054 220.83C194.945 220.025 193.407 218.226 191.758 216.68C190.659 215.649 186.926 214.441 187.741 212.815C188.555 211.189 192.562 211.899 193.866 212.301Z" fill="#F0F0F0"/>
<path d="M187.874 268.932H173.01L165.223 240.311H195.661L187.874 268.932Z" fill="#E6E6E6"/>
<path d="M188.874 264.676H171.913V265.314H188.874V264.676Z" fill="white"/>
<path d="M106.397 259.134L106.863 268.059H134.887L124.703 259.134H106.397Z" fill="#EBEBEB"/>
<path d="M113.59 263.039L114.272 272.659L142.468 272.574L134.255 263.039H113.59Z" fill="#E6E6E6"/>
<path d="M114.542 253.934L108.123 259.023C108.123 259.023 128.893 262.796 128.445 262.744C127.997 262.692 127.718 255.855 127.718 255.855L114.542 253.934Z" fill="#EBEBEB"/>
<path d="M122.99 259.218L121.392 264.475C121.392 264.475 141.339 264.475 141.013 264.475C140.686 264.475 137.099 259.332 137.099 259.332L122.99 259.218Z" fill="#F0F0F0"/>
<path d="M122.326 252.442L119.605 257.214C119.605 257.214 139.059 261.625 138.74 261.552C138.421 261.48 136.06 255.672 136.06 255.672L122.326 252.442Z" fill="#F5F5F5"/>
<path d="M120.576 255.451L110.609 260.051C110.609 260.051 121.44 265.878 126.028 265.46C128.839 265.205 132.63 258.39 132.63 258.39L120.576 255.451Z" fill="#FAFAFA"/>
<path d="M163.097 127.194C159.793 124.915 157.112 121.378 156.862 117.372C150.206 116.906 143.648 115.06 137.727 111.983L137.488 112.267C137.925 115.927 138.369 119.621 139.586 123.101C140.803 126.58 142.873 129.876 145.954 131.9C149.708 134.366 154.445 134.669 158.936 134.725C164.156 134.79 169.639 134.552 174.133 131.895C170.301 130.7 166.403 129.473 163.097 127.194Z" fill="#EF8A66"/>
<path opacity="0.7" d="M163.097 127.194C159.793 124.915 157.112 121.378 156.862 117.372C150.206 116.906 143.648 115.06 137.727 111.983L137.488 112.267C137.925 115.927 138.369 119.621 139.586 123.101C140.803 126.58 142.873 129.876 145.954 131.9C149.708 134.366 154.445 134.669 158.936 134.725C164.156 134.79 169.639 134.552 174.133 131.895C170.301 130.7 166.403 129.473 163.097 127.194Z" fill="white"/>
<path d="M206.406 140.179C206.433 136.199 205.411 132.073 202.801 129.067C200.692 126.637 197.744 125.131 195.167 123.204C191.544 120.495 188.605 116.878 186.694 112.778L187.057 114.471C191.727 123.371 193.035 133.985 190.665 143.752C195.424 146.172 200.023 148.904 204.425 151.926C205.399 148.066 206.379 144.16 206.406 140.179Z" fill="#EF8A66"/>
<path opacity="0.7" d="M206.406 140.179C206.433 136.199 205.411 132.073 202.801 129.067C200.692 126.637 197.744 125.131 195.167 123.204C191.544 120.495 188.605 116.878 186.694 112.778L187.057 114.471C191.727 123.371 193.035 133.985 190.665 143.752C195.424 146.172 200.023 148.904 204.425 151.926C205.399 148.066 206.379 144.16 206.406 140.179Z" fill="white"/>
<path d="M137.026 276.38C140.625 277.582 144.224 278.784 147.823 279.985C148.792 280.309 149.773 280.635 150.793 280.698C152.833 280.824 154.784 279.89 156.53 278.829C160.877 276.189 164.646 272.6 167.495 268.387C164.214 267.851 160.933 267.315 157.653 266.779C156.528 266.596 154.141 265.712 153.078 266.054C152.15 266.353 151.272 267.901 150.572 268.599C148.707 270.458 146.593 272.07 144.31 273.382C142.888 274.199 138.705 276.861 137.026 276.38Z" fill="#EF8A66"/>
<path opacity="0.6" d="M137.026 276.38C140.625 277.582 144.224 278.784 147.823 279.985C148.792 280.309 149.773 280.635 150.793 280.698C152.833 280.824 154.784 279.89 156.53 278.829C160.877 276.189 164.646 272.6 167.495 268.387C164.214 267.851 160.933 267.315 157.653 266.779C156.528 266.596 154.141 265.712 153.078 266.054C152.15 266.353 151.272 267.901 150.572 268.599C148.707 270.458 146.593 272.07 144.31 273.382C142.888 274.199 138.705 276.861 137.026 276.38Z" fill="white"/>
<path d="M170.4 272.539C172.551 275.665 174.702 278.791 176.853 281.917C177.432 282.758 178.02 283.609 178.796 284.273C180.349 285.601 182.469 286.029 184.502 286.234C189.563 286.742 194.732 286.144 199.544 284.494C197.247 282.092 194.949 279.688 192.652 277.286C191.865 276.462 190.49 274.32 189.435 273.954C188.514 273.634 186.882 274.342 185.902 274.478C183.294 274.841 180.636 274.854 178.023 274.529C176.395 274.326 171.452 273.934 170.4 272.539Z" fill="#EF8A66"/>
<path opacity="0.6" d="M170.4 272.539C172.551 275.665 174.702 278.791 176.853 281.917C177.432 282.758 178.02 283.609 178.796 284.273C180.349 285.601 182.469 286.029 184.502 286.234C189.563 286.742 194.732 286.144 199.544 284.494C197.247 282.092 194.949 279.688 192.652 277.286C191.865 276.462 190.49 274.32 189.435 273.954C188.514 273.634 186.882 274.342 185.902 274.478C183.294 274.841 180.636 274.854 178.023 274.529C176.395 274.326 171.452 273.934 170.4 272.539Z" fill="white"/>
<path d="M181.637 279.815C178.375 277.877 175.113 275.939 171.85 274C170.973 273.479 170.082 272.952 169.1 272.673C167.133 272.117 165.029 272.616 163.097 273.282C158.288 274.94 153.844 277.646 150.165 281.159C153.257 282.379 156.35 283.6 159.442 284.82C160.503 285.238 162.647 286.607 163.759 286.499C164.729 286.404 165.916 285.078 166.748 284.545C168.964 283.124 171.373 281.998 173.882 281.199C175.444 280.702 180.098 278.989 181.637 279.815Z" fill="#EF8A66"/>
<path opacity="0.7" d="M181.637 279.815C178.375 277.877 175.113 275.939 171.85 274C170.973 273.479 170.082 272.952 169.1 272.673C167.133 272.117 165.029 272.616 163.097 273.282C158.288 274.94 153.844 277.646 150.165 281.159C153.257 282.379 156.35 283.6 159.442 284.82C160.503 285.238 162.647 286.607 163.759 286.499C164.729 286.404 165.916 285.078 166.748 284.545C168.964 283.124 171.373 281.998 173.882 281.199C175.444 280.702 180.098 278.989 181.637 279.815Z" fill="white"/>
<path d="M94.1379 143.67C103.152 144.911 112.344 144.858 121.344 143.513C121.867 143.434 122.457 143.309 122.73 142.857C123.141 142.179 122.566 141.357 122.09 140.723C120.364 138.417 119.673 135.365 120.238 132.54C113.579 138.63 104.964 142.548 95.997 143.563L94.1379 143.67Z" fill="#EF8A66"/>
<path opacity="0.4" d="M94.1379 143.67C103.152 144.911 112.344 144.858 121.344 143.513C121.867 143.434 122.457 143.309 122.73 142.857C123.141 142.179 122.566 141.357 122.09 140.723C120.364 138.417 119.673 135.365 120.238 132.54C113.579 138.63 104.964 142.548 95.997 143.563L94.1379 143.67Z" fill="white"/>
<path d="M40.2522 217.459V181.69C46.4692 181.69 51.5095 186.729 51.5095 192.947V206.201C51.5095 212.418 46.4692 217.459 40.2522 217.459Z" fill="#E56441"/>
<path d="M74.5039 258.673H47.4938C41.4754 258.673 38.1608 254.34 38.1608 246.472L38.0389 192.926L40.1899 192.922L40.3118 246.47C40.3118 253.141 42.728 256.522 47.4938 256.522H74.5039V258.673Z" fill="#263238"/>
<path d="M91.7386 256.881H53.1664C47.4456 256.881 42.8081 253.609 42.8081 249.572C42.8081 245.536 47.4456 242.264 53.1664 242.264H72.3535H91.7393C97.4601 242.264 102.098 245.536 102.098 249.572C102.097 253.609 97.4594 256.881 91.7386 256.881Z" fill="#E56441"/>
<path d="M40.2522 217.459V181.69C46.4692 181.69 51.5095 186.729 51.5095 192.947V206.201C51.5095 212.418 46.4692 217.459 40.2522 217.459Z" fill="#E56441"/>
<path d="M91.7386 256.881H53.1664C47.4456 256.881 42.8081 253.609 42.8081 249.572C42.8081 245.536 47.4456 242.264 53.1664 242.264H72.3535H91.7393C97.4601 242.264 102.098 245.536 102.098 249.572C102.097 253.609 97.4594 256.881 91.7386 256.881Z" fill="#E56441"/>
<path d="M74.6222 257.598H68.4525V279.644H74.6222V257.598Z" fill="#263238"/>
<path d="M46.1701 286.629L68.4525 279.645H74.6221L98.4739 286.629V288.674H46.1701V286.629Z" fill="#263238"/>
<path d="M51.1109 288.675H46.1701V293.615H51.1109V288.675Z" fill="#263238"/>
<path d="M48.7562 301.672C50.8434 301.672 52.5354 299.98 52.5354 297.893C52.5354 295.805 50.8434 294.113 48.7562 294.113C46.669 294.113 44.977 295.805 44.977 297.893C44.977 299.98 46.669 301.672 48.7562 301.672Z" fill="#263238"/>
<path d="M98.3042 288.675H93.3634V293.615H98.3042V288.675Z" fill="#263238"/>
<path d="M95.9495 301.672C98.0367 301.672 99.7287 299.98 99.7287 297.893C99.7287 295.805 98.0367 294.113 95.9495 294.113C93.8623 294.113 92.1703 295.805 92.1703 297.893C92.1703 299.98 93.8623 301.672 95.9495 301.672Z" fill="#263238"/>
<path d="M77.8122 213.881H69.0119L53.5108 304.178H57.4241L77.8122 213.881Z" fill="#263238"/>
<path opacity="0.1" d="M77.8122 213.881H69.0119L53.5108 304.178H57.4241L77.8122 213.881Z" fill="white"/>
<path d="M131.323 213.881H140.123L155.625 304.178H151.711L131.323 213.881Z" fill="#263238"/>
<path opacity="0.1" d="M131.323 213.881H140.123L155.625 304.178H151.711L131.323 213.881Z" fill="white"/>
<path d="M144.939 206.895H64.6937V220.695H144.939V206.895Z" fill="#263238"/>
<path opacity="0.2" d="M144.939 206.895H64.6937V220.695H144.939V206.895Z" fill="white"/>
<path d="M147.203 206.895H60.9955C58.8316 206.895 57.0771 205.141 57.0771 202.977C57.0771 200.813 58.8316 199.059 60.9955 199.059H147.204C149.368 199.059 151.122 200.813 151.122 202.977C151.122 205.141 149.368 206.895 147.203 206.895Z" fill="#E56441"/>
<path opacity="0.3" d="M147.203 206.895H60.9955C58.8316 206.895 57.0771 205.141 57.0771 202.977C57.0771 200.813 58.8316 199.059 60.9955 199.059H147.204C149.368 199.059 151.122 200.813 151.122 202.977C151.122 205.141 149.368 206.895 147.203 206.895Z" fill="black"/>
<path d="M194.41 77.2604C195.911 69.3039 190.678 61.637 182.722 60.1359C174.765 58.6348 167.098 63.8679 165.597 71.8244C164.096 79.7809 169.329 87.4478 177.286 88.9489C185.242 90.4501 192.909 85.2169 194.41 77.2604Z" fill="#F7AD2B"/>
<path opacity="0.8" d="M179.822 86.3139C186.32 86.3139 191.587 81.0465 191.587 74.5489C191.587 68.0513 186.32 62.7839 179.822 62.7839C173.325 62.7839 168.057 68.0513 168.057 74.5489C168.057 81.0465 173.325 86.3139 179.822 86.3139Z" fill="white"/>
<path d="M180.985 75.5247C180.985 76.1836 180.451 76.7178 179.792 76.7178C179.133 76.7178 178.599 76.1836 178.599 75.5247C178.599 74.8658 179.133 74.3317 179.792 74.3317C180.451 74.3317 180.985 74.8658 180.985 75.5247Z" fill="#F7AD2B"/>
<path d="M179.655 75.9642L174.593 71.1998L175.084 70.6772L179.671 74.9934L187.891 67.7311L188.366 68.2681L179.655 75.9642Z" fill="#F7AD2B"/>
<path d="M73.7301 198.633H113.129V188.837H73.7301V198.633Z" fill="#FEBD9D"/>
<path opacity="0.6" d="M73.8579 198.675H113.257V188.879H73.8579V198.675Z" fill="white"/>
<path opacity="0.6" d="M73.7305 198.675H103.971V188.879H73.7305V198.675Z" fill="white"/>
<path d="M73.9216 197.387L113.13 198.603L113.086 197.61L73.9008 197.099L73.9216 197.387Z" fill="#FEBD9D"/>
<path d="M113.13 192.855L73.9824 190.654V190.984L113.13 193.601V192.855Z" fill="#FEBD9D"/>
<path d="M113.13 189.897L73.9824 190.793V191.116L113.13 190.643V189.897Z" fill="#FEBD9D"/>
<path d="M113.24 194.78L74.0856 196.687V196.4L113.24 194.127V194.78Z" fill="#FEBD9D"/>
<path d="M73.8269 188.964L112.974 188.996V189.319H73.8269V188.964Z" fill="#FEBD9D"/>
<path d="M76.5553 169.456H115.954V159.66H76.5553V169.456Z" fill="#FEBD9D"/>
<path opacity="0.6" d="M76.6839 169.499H116.082V159.703H76.6839V169.499Z" fill="white"/>
<path opacity="0.6" d="M76.5557 169.499H106.797V159.703H76.5557V169.499Z" fill="white"/>
<path d="M76.7472 168.211L115.955 169.427L115.912 168.434L76.7257 167.923L76.7472 168.211Z" fill="#FEBD9D"/>
<path d="M115.956 163.679L76.8083 161.478V161.808L115.956 164.425V163.679Z" fill="#FEBD9D"/>
<path d="M115.956 160.721L76.8083 161.617V161.94L115.956 161.467V160.721Z" fill="#FEBD9D"/>
<path d="M116.066 165.604L76.9116 167.511V167.224L116.066 164.951V165.604Z" fill="#FEBD9D"/>
<path d="M76.0652 188.701H115.464V178.905H76.0652V188.701Z" fill="#FEBD9D"/>
<path opacity="0.6" d="M76.193 188.744H115.592V178.948H76.193V188.744Z" fill="white"/>
<path opacity="0.6" d="M106.393 178.947H76.1519V188.744H106.393V178.947Z" fill="white"/>
<path d="M115.295 187.168L76.1099 187.679L76.0661 188.673L115.274 187.456L115.295 187.168Z" fill="#FEBD9D"/>
<path d="M76.3186 179.033L115.466 179.065V179.388H76.3186V179.033Z" fill="#FEBD9D"/>
<path d="M76.0661 183.67L115.213 181.053V180.723L76.0661 182.924V183.67Z" fill="#FEBD9D"/>
<path d="M115.466 179.966L76.3186 180.862V181.184L115.466 180.711V179.966Z" fill="#FEBD9D"/>
<path d="M115.576 184.849L76.4215 186.756V186.469L115.576 184.196V184.849Z" fill="#FEBD9D"/>
<path d="M114.101 169.67L74.7189 169.868L74.6615 179.466H114.101V169.67Z" fill="#FEBD9D"/>
<path opacity="0.6" d="M74.7023 179.465H114.101V169.669H74.7023V179.465Z" fill="white"/>
<path opacity="0.6" d="M104.902 169.67H74.6615V179.466H104.902V169.67Z" fill="white"/>
<path d="M106.087 169.868H74.719V170.864H105.413L106.087 169.868Z" fill="#FEBD9D"/>
<path d="M113.873 173.88L74.719 174.246V174.533H113.873V173.88Z" fill="#FEBD9D"/>
<path d="M74.719 178.413L113.873 176.506V176.793L74.719 179.066V178.413Z" fill="#FEBD9D"/>
<path d="M74.719 174.73L113.873 175.512V175.791L74.719 175.383V174.73Z" fill="#FEBD9D"/>
<path d="M124.159 148.359H85.0116V153.292H124.159V148.359Z" fill="#FEBD9D"/>
<path opacity="0.6" d="M124.159 148.359H85.0116V153.292H124.159V148.359Z" fill="white"/>
<path opacity="0.6" d="M116.207 148.359H85.0116V153.292H116.207V148.359Z" fill="white"/>
<path d="M124.181 151.858L85.0333 152.052V152.195H124.181V151.858Z" fill="#FEBD9D"/>
<path d="M85.0333 150.014L124.181 149.018V149.168L85.0333 150.351V150.014Z" fill="#FEBD9D"/>
<path d="M84.9055 149.744L124.053 150.145V150.296L84.9055 150.081V149.744Z" fill="#FEBD9D"/>
<path d="M118.68 146.188H79.5328V148.565H118.68V146.188Z" fill="#FEBD9D"/>
<path opacity="0.6" d="M118.68 146.208H79.5328V148.564H118.68V146.208Z" fill="white"/>
<path opacity="0.6" d="M110.729 146.059H79.5327V148.564H110.729V146.059Z" fill="white"/>
<path d="M79.5541 147.998L118.701 147.001V147.152L79.5541 148.335V147.998Z" fill="#FEBD9D"/>
<path d="M79.5541 146.805L118.701 147.207V147.357L79.5541 147.142V146.805Z" fill="#FEBD9D"/>
<path d="M122.328 143.76H83.1807V146.138H122.328V143.76Z" fill="#FEBD9D"/>
<path opacity="0.6" d="M122.328 143.78H83.1807V146.137H122.328V143.78Z" fill="white"/>
<path opacity="0.6" d="M114.377 143.632H83.1807V146.137H114.377V143.632Z" fill="white"/>
<path d="M83.203 144.834L122.36 145.311L122.355 145.461L83.1908 145.17L83.203 144.834Z" fill="#FEBD9D"/>
<path d="M83.2013 144.377L122.349 144.779V144.93L83.2013 144.714V144.377Z" fill="#FEBD9D"/>
<path d="M121.511 153.292H82.3635V159.645H121.511V153.292Z" fill="#FEBD9D"/>
<path opacity="0.6" d="M121.511 153.292H82.3635V159.645H121.511V153.292Z" fill="white"/>
<path opacity="0.6" d="M112.57 153.292H82.3635V159.645H112.57V153.292Z" fill="white"/>
<path d="M121.262 155.267L82.1146 155.045V154.872H121.262V155.267Z" fill="#FEBD9D"/>
<path d="M82.3849 156.189L121.532 157.336V157.164L82.3849 155.802V156.189Z" fill="#FEBD9D"/>
<path d="M121.532 153.299H84.6076L85.425 154.081H121.532V153.299Z" fill="#FEBD9D"/>
<path d="M82.5197 158.663L121.667 158.19V158.025L82.5197 158.269V158.663Z" fill="#FEBD9D"/>
<path d="M113.345 196.853L124.364 150.614C125.135 150.797 126.166 151.571 125.983 152.341L115.296 197.185L113.345 196.853Z" fill="#263238"/>
<path d="M113.974 199.027H71.2245C69.9031 199.027 68.832 197.956 68.832 196.635H116.366C116.366 197.956 115.295 199.027 113.974 199.027Z" fill="#263238"/>
<path d="M121.826 187.904V190.741C121.826 191.219 122.012 191.668 122.349 192.007L124.625 194.282C124.833 194.491 125.086 194.633 125.361 194.718C126.29 196.713 128.306 198.1 130.652 198.1H131.504C134.729 198.1 137.343 195.486 137.343 192.262V185.571H124.814V186.114H123.617C122.629 186.114 121.826 186.917 121.826 187.904ZM123.26 187.904C123.26 187.707 123.419 187.547 123.616 187.547H124.813V192.261C124.813 192.326 124.82 192.388 124.823 192.452L123.364 190.993C123.298 190.926 123.26 190.834 123.26 190.74V187.904Z" fill="#F8AB5D"/>
<path d="M140.317 199.059H122.293C121.121 199.059 120.171 197.998 120.171 197.998H142.44C142.44 197.998 141.49 199.059 140.317 199.059Z" fill="#F8AB5D"/>
<path d="M327.985 76.4619H234.827V275.602H327.985V76.4619Z" fill="#407BFF"/>
<path opacity="0.5" d="M327.985 76.4619H234.827V275.602H327.985V76.4619Z" fill="black"/>
<path opacity="0.3" d="M282.412 82.1821V268.225L234.827 275.602V76.462L282.412 82.1821Z" fill="black"/>
<path opacity="0.4" d="M282.412 82.1821L234.827 76.462L282.412 207.246V82.1821Z" fill="black"/>
<path opacity="0.4" d="M234.956 77.5047L234.719 275.125L237.816 275.129L238.053 77.5084L234.956 77.5047Z" fill="black"/>
<path d="M231.602 73.1129V275.601H234.827V76.4619H327.604V275.602H330.829V73.1129H231.602Z" fill="#407BFF"/>
<path d="M299.985 59.531H264.054V72.3965H299.985V59.531Z" fill="#FF0000"/>
<path opacity="0.8" d="M299.985 59.531H264.054V72.3965H299.985V59.531Z" fill="white"/>
<path d="M273.495 69.0512V62.8759H278.041V63.4222V63.9728H274.785V65.2835H277.805V65.8126V66.3461H274.785V67.955H278.183V68.5013V69.0512H273.495Z" fill="#FF0000"/>
<path d="M280.7 65.9259L278.834 62.8759H279.596H280.361L281.446 64.8676L282.571 62.8759H283.316H284.061L282.178 65.8291L284.195 69.0512H283.427H282.655L281.443 66.9247L280.228 69.0512H279.466H278.701L280.7 65.9259Z" fill="#FF0000"/>
<path d="M284.868 62.8759H285.511H286.157V69.0512H285.514H284.868V62.8759Z" fill="#FF0000"/>
<path d="M288.695 63.9721H286.83V63.4258V62.8751H291.85V63.4215V63.9721H289.984V69.0512H289.342H288.695V63.9721Z" fill="#FF0000"/>
<path d="M261.281 123.194C258.668 125.752 256.573 128.934 260.22 132.804C260.22 132.804 262.311 138.743 254.442 133.559C247.305 128.856 248.277 124.934 248.277 124.934C252.568 124.086 256.208 116.385 257.858 111.96L261.281 123.194Z" fill="#FF8B7B"/>
<path d="M274.76 115.423C275.054 115.577 275.124 116.082 274.906 116.536C274.688 116.989 274.277 117.233 273.98 117.085C273.682 116.938 273.62 116.445 273.836 115.983C274.062 115.504 274.466 115.27 274.76 115.423Z" fill="#263238"/>
<path d="M271.439 120.61C271.439 120.61 272.635 121.656 273.792 121.307C273.463 119.648 273.358 117.952 273.48 116.265L271.439 120.61Z" fill="#A02724"/>
<path d="M261.957 103.004C265.459 100.1 270.652 100.586 273.556 104.088C277.938 109.12 274.765 117.886 271.198 122.346C270.192 123.651 268.813 124.62 267.245 125.124C262.967 126.5 258.383 124.148 257.007 119.87C255.557 115.538 257.201 112.26 259.507 106.437C260.012 105.1 260.856 103.917 261.957 103.004Z" fill="#FF8B7B"/>
<path d="M261.823 118.054C259.654 117.894 257.659 116.809 256.347 115.074C255.238 113.65 256.456 105.514 259.715 102.293C262.862 99.1925 265.479 98.9265 269.916 100.818C274.352 102.709 277.122 107.275 276.295 109.277C275.468 111.279 270.928 115.453 269.598 115.294C268.061 112.807 263.614 118.114 261.823 118.054Z" fill="#263238"/>
<path opacity="0.2" d="M261.823 118.054C259.654 117.894 257.659 116.809 256.347 115.074C255.238 113.65 256.456 105.514 259.715 102.293C262.862 99.1925 265.479 98.9265 269.916 100.818C274.352 102.709 277.122 107.275 276.295 109.277C275.468 111.279 270.928 115.453 269.598 115.294C268.061 112.807 263.614 118.114 261.823 118.054Z" fill="white"/>
<path d="M261.524 104.22C257.518 103.193 259.223 97.7549 262.926 96.858C265.924 96.1252 271.444 98.6827 273.923 100.791C276.402 102.901 276.633 100.788 276.633 100.788C278.711 101.742 280.038 103.823 280.026 106.11C279.991 110.028 276.118 111.893 274.259 110.507C274.259 110.507 265.531 105.247 261.524 104.22Z" fill="#263238"/>
<path d="M271.269 112.551C272.288 114.294 270.784 116.785 269.422 117.959C267.911 119.261 265.881 119.075 265.635 117.003C265.458 115.42 265.891 113.829 266.849 112.556C268.037 111.01 270.249 110.807 271.269 112.551Z" fill="#FF8B7B"/>
<path d="M273.832 113.136C274.535 112.812 275.349 112.836 276.032 113.199C276.171 113.287 276.356 113.247 276.446 113.11C276.529 112.971 276.487 112.791 276.352 112.702C275.504 112.231 274.483 112.188 273.598 112.588L273.597 112.589C273.447 112.655 273.379 112.829 273.445 112.979C273.47 113.043 273.518 113.098 273.579 113.131C273.659 113.168 273.751 113.17 273.832 113.136Z" fill="#263238"/>
<path d="M265.885 103.081L265.567 102.916C266.371 101.363 266.372 99.4341 265.569 97.8811C264.766 96.3281 263.192 95.2132 261.46 94.9709L261.509 94.616C263.354 94.8734 265.032 96.0621 265.888 97.7162C266.742 99.371 266.742 101.427 265.885 103.081Z" fill="#263238"/>
<path d="M267.766 104.174L267.62 103.846C269.218 103.137 270.424 101.631 270.768 99.9159C271.11 98.2009 270.578 96.3467 269.377 95.077L269.638 94.8303C270.917 96.184 271.484 98.1593 271.118 99.9869C270.753 101.813 269.468 103.418 267.766 104.174Z" fill="#263238"/>
<path d="M261.118 100.102C260.041 99.3767 258.535 99.2777 257.37 99.8577L257.21 99.5373C258.506 98.8913 260.119 98.9967 261.317 99.8054L261.118 100.102Z" fill="#263238"/>
<path d="M278.173 105.921L277.99 105.612C279.403 104.774 281.017 104.297 282.658 104.231L282.673 104.59C281.09 104.653 279.534 105.113 278.173 105.921Z" fill="#263238"/>
<path d="M275.879 103.208C275.582 103.208 275.29 103.109 275.057 102.924C274.769 102.695 274.571 102.39 274.379 102.096L274.338 102.032C273.993 101.502 270.871 96.845 267.486 96.5102C266.322 96.3969 265.254 96.8264 264.311 97.7922L264.055 97.5412C265.077 96.4937 266.246 96.0291 267.521 96.1532C271.072 96.5038 274.283 101.29 274.638 101.835L274.68 101.9C274.864 102.183 275.038 102.45 275.28 102.643C275.518 102.832 275.84 102.896 276.144 102.813C276.44 102.731 276.646 102.586 276.755 102.379C276.942 102.029 276.83 101.562 276.745 101.315C276.597 100.877 276.223 100.53 275.893 100.223L276.136 99.9603C276.48 100.279 276.907 100.675 277.085 101.2C277.188 101.502 277.321 102.078 277.072 102.547C276.914 102.844 276.634 103.05 276.239 103.159C276.119 103.192 275.999 103.208 275.879 103.208Z" fill="#263238"/>
<path d="M274.284 110.556C274.224 110.485 274.229 110.379 274.297 110.315C274.367 110.257 274.469 110.261 274.533 110.325C275.312 111.046 276.429 111.271 277.427 110.911C279.15 110.4 280.432 108.952 280.732 107.18C280.75 107.088 280.84 107.028 280.932 107.047C281.025 107.066 281.084 107.155 281.066 107.248C280.732 109.141 279.359 110.684 277.518 111.237C276.585 111.54 275.567 111.427 274.724 110.927C274.563 110.821 274.415 110.697 274.284 110.556Z" fill="#263238"/>
<path d="M258.276 174.664C261.213 177.002 265.155 178.243 267.393 181.257C268.533 182.793 273.232 185.244 275.056 186.125C275.502 186.341 276.015 186.349 276.469 186.149C277.538 185.677 279.572 184.783 280.432 184.428C280.633 184.346 280.699 184.097 280.571 183.922L279.155 181.997L275.463 182.253C275.81 180.472 276.402 178.28 274.38 178.145C272.987 178.052 271.671 178.104 270.133 177.141C261.005 171.418 254.253 157.631 252.206 147.054C251.708 144.478 251.337 141.783 249.902 139.586C248.468 137.389 245.573 135.871 243.177 136.938C236.296 140.002 251.701 169.43 258.276 174.664Z" fill="#FF8B7B"/>
<path d="M225.071 223.408C218.647 228.614 188.55 244.744 188.55 244.744L192.772 252.68C192.772 252.68 218.224 245.641 231.164 236.497L225.071 223.408Z" fill="#407BFF"/>
<path d="M230.944 236.535C232.582 233.952 233.925 231.125 235.032 228.236C236.295 224.935 237.24 221.556 237.955 218.39C238.064 217.92 238.165 217.433 238.267 216.94C238.306 216.75 238.342 216.567 238.383 216.371C239.874 208.922 240.054 203.113 240.054 203.113L240.991 195.309L243.006 178.451C234.531 174.912 227.566 171.393 227.566 171.393C227.566 171.393 222.518 176.722 222.218 184.176C221.802 194.485 223.556 220.823 220.328 226.75L230.944 236.535Z" fill="#407BFF"/>
<path d="M189.385 244.139L177.229 249.381C177.229 249.381 177.088 254.882 179.291 254.465C182.289 253.897 192.006 251.998 192.006 251.998C192.006 251.998 193.5 253.607 189.385 244.139Z" fill="#FF8B7B"/>
<path d="M176.128 258.044C175.984 257.421 175.896 256.785 175.867 256.146C175.859 256.084 175.897 256.025 175.956 256.005C176.012 255.982 176.076 255.997 176.115 256.042C176.324 256.278 178.137 258.352 177.914 259.16C177.873 259.315 177.753 259.437 177.599 259.48C177.351 259.571 177.075 259.535 176.858 259.385C176.47 259.032 176.213 258.56 176.128 258.044ZM176.183 256.557C176.3 257.909 176.605 258.86 176.999 259.151C177.144 259.252 177.329 259.274 177.494 259.21C177.554 259.197 177.601 259.151 177.617 259.091C177.757 258.638 176.897 257.419 176.183 256.557Z" fill="#407BFF"/>
<path d="M175.868 256.172C175.863 256.143 175.865 256.112 175.874 256.083C175.895 256.037 175.937 256.003 175.987 255.994C176.09 255.961 178.558 255.635 178.903 256.949L178.94 257.065C179 257.449 178.835 257.608 178.689 257.675C178.051 257.95 176.417 256.853 175.91 256.22L175.868 256.172ZM178.626 257.03C178.412 256.178 176.936 256.219 176.308 256.249C176.933 256.871 178.175 257.58 178.559 257.413C178.559 257.413 178.687 257.373 178.645 257.111L178.626 257.03Z" fill="#407BFF"/>
<path opacity="0.2" d="M184.339 246.353L186.679 253.066L191.79 251.913L187.748 244.884L184.339 246.353Z" fill="black"/>
<path d="M178.807 248.919C177.823 247.983 178.155 248.604 176.437 247.257C175.606 246.606 173.094 246.006 172.206 246.513C170.827 247.3 170.405 248.924 169.014 251.313C167.198 254.429 165.767 259.413 165.251 262.086C165.053 263.111 165.676 264.203 166.713 264.453C166.956 264.511 167.167 264.552 167.337 264.58C167.614 264.625 167.889 264.514 168.056 264.297C170.05 261.717 170.46 261.452 172.393 259.1C174.328 256.747 178.972 255.181 178.972 255.181L178.807 248.919Z" fill="#263238"/>
<path d="M193.481 253.683C193.507 253.719 189.924 254.55 189.924 254.55L185.976 244.235L188.86 242.77L193.481 253.683Z" fill="#407BFF"/>
<g opacity="0.7">
<path d="M193.481 253.683C193.507 253.719 189.924 254.55 189.924 254.55L185.976 244.235L188.86 242.77L193.481 253.683Z" fill="white"/>
</g>
<path d="M293.639 249.473L301.862 262.747C301.862 262.747 307.605 260.982 306.752 258.695C306.225 257.283 304.254 252.473 302.833 248.65C302.292 247.196 301.172 246.206 300.21 246.182C298.609 246.144 296.849 247.37 293.639 249.473Z" fill="#FF8B7B"/>
<path d="M311.931 259.461C311.354 259.737 310.753 259.96 310.136 260.128C310.077 260.149 310.011 260.125 309.978 260.072C309.943 260.022 309.944 259.957 309.979 259.908C310.164 259.653 311.794 257.432 312.631 257.473C312.791 257.48 312.936 257.57 313.012 257.711C313.154 257.934 313.18 258.211 313.08 258.455C312.821 258.911 312.416 259.265 311.931 259.461ZM310.467 259.73C311.762 259.322 312.623 258.817 312.823 258.369C312.889 258.205 312.871 258.02 312.773 257.873C312.746 257.817 312.691 257.781 312.629 257.778C312.157 257.741 311.154 258.846 310.467 259.73Z" fill="#407BFF"/>
<path d="M310.149 260.308C310.121 260.32 310.09 260.325 310.06 260.322C310.01 260.312 309.969 260.278 309.949 260.231C309.894 260.137 309.039 257.8 310.245 257.176L310.351 257.115C310.712 256.972 310.904 257.098 311 257.227C311.408 257.791 310.692 259.624 310.186 260.257L310.149 260.308ZM310.385 257.429C309.6 257.823 309.962 259.256 310.128 259.862C310.599 259.117 311.021 257.749 310.774 257.412C310.774 257.412 310.706 257.296 310.46 257.393L310.385 257.429Z" fill="#407BFF"/>
<path d="M300.994 262.44C301.051 263.53 301.993 264.991 302.252 266.725C302.377 267.564 303.055 268.891 303.853 269.086C305.092 269.389 306.29 269.171 308.421 268.546C311.202 267.731 318.232 263.754 320.011 262.48C320.692 261.991 320.932 261.01 320.465 260.292C320.355 260.124 320.255 259.984 320.171 259.873C320.034 259.693 319.813 259.607 319.595 259.641C317.007 260.045 316.621 259.974 314.194 260.278C311.764 260.582 307.146 258.512 307.146 258.512L300.994 262.44Z" fill="#263238"/>
<path opacity="0.2" d="M296.758 254.563L298.653 257.621L304.701 253.486L303.413 250.013L296.758 254.563Z" fill="black"/>
<path d="M244.086 174.585L224.51 184.455C224.51 184.455 225.837 189.546 227.715 192.663C234.586 204.066 242.301 198.657 248.224 202.865C261.357 212.197 271.014 216.955 273.769 220.147C275.933 222.654 297.757 256.121 297.757 256.121L304.219 251.812C304.219 251.812 294.246 221.91 286.391 211.589C278.538 201.267 244.086 174.585 244.086 174.585Z" fill="#407BFF"/>
<path opacity="0.2" d="M237.955 218.45C239.033 213.592 239.742 208.652 240.074 203.687C240.255 200.963 240.297 198.103 239.09 195.655C238.132 193.712 236.467 192.208 234.704 190.948C232.775 189.571 224.74 184.718 226.437 188.965C227.857 192.513 237.682 219.678 237.955 218.45Z" fill="black"/>
<path d="M244.086 174.585L224.51 184.455C224.51 184.455 225.837 189.546 227.715 192.663C234.586 204.066 242.301 198.657 248.224 202.865C261.357 212.197 271.014 216.955 273.769 220.147C275.933 222.654 297.757 256.121 297.757 256.121L304.219 251.812C304.219 251.812 294.246 221.91 286.391 211.589C278.538 201.267 244.086 174.585 244.086 174.585Z" fill="#407BFF"/>
<path d="M304.086 247.706C304.116 247.673 305.527 250.918 305.527 250.918L296.5 257.089L294.442 254.594L304.086 247.706Z" fill="#407BFF"/>
<path opacity="0.7" d="M304.086 247.706C304.116 247.673 305.527 250.918 305.527 250.918L296.5 257.089L294.442 254.594L304.086 247.706Z" fill="white"/>
<path d="M273.091 181.412C272.937 183.449 274.464 185.224 276.501 185.377C278.537 185.531 280.312 184.004 280.465 181.967C280.619 179.931 279.092 178.156 277.055 178.002C275.019 177.849 273.244 179.376 273.091 181.412Z" fill="#407BFF"/>
<path opacity="0.7" d="M277.057 178.005C275.021 177.847 273.243 179.375 273.093 181.411C272.935 183.447 274.462 185.225 276.498 185.376C278.534 185.534 280.313 184.006 280.463 181.97C280.621 179.934 279.094 178.156 277.057 178.005ZM276.893 183.132C276.183 183.132 275.616 182.558 275.616 181.848C275.616 181.146 276.183 180.572 276.893 180.572C277.595 180.572 278.169 181.146 278.169 181.848C278.169 182.558 277.595 183.132 276.893 183.132Z" fill="white"/>
<path d="M255.676 160.991C254.458 165.965 254.079 171.971 253.966 175.84L255.096 180.609L253.601 180.799L253.373 179.729L252.867 177.397L252.364 179.562L252.055 180.911C252.055 180.911 248.159 181.121 243.564 180.69C236.223 180.009 219.946 176.866 219.946 176.866C219.946 176.866 222.302 167.781 224.249 165.987C225.322 161.275 226.753 154.84 228.374 147.245C230.162 138.869 232.79 133.056 234.931 129.375C236.863 126.055 240.399 124.009 244.239 123.958C246.644 123.927 249.508 124.027 252.188 124.469C258.699 125.538 265.316 129.23 266.078 130.91C267.586 134.211 257.644 152.928 255.676 160.991Z" fill="#407BFF"/>
<path d="M253.373 179.729L252.365 179.562L252.866 177.397L253.373 179.729Z" fill="#407BFF"/>
<path opacity="0.8" d="M255.663 161.002C254.445 165.976 254.066 171.982 253.953 175.851L255.083 180.62L253.588 180.81L253.36 179.74L252.854 177.408L252.351 179.573L252.042 180.922C252.042 180.922 248.146 181.132 243.551 180.701C236.21 180.019 219.933 176.877 219.933 176.877C219.933 176.877 222.289 167.792 224.236 165.997C225.309 161.285 226.74 154.851 228.361 147.255C230.022 139.474 232.407 133.905 234.454 130.203C236.595 126.332 240.693 123.958 245.116 123.964C247.32 123.967 249.818 124.091 252.175 124.479C258.686 125.548 265.303 129.24 266.065 130.92C267.573 134.222 257.631 152.939 255.663 161.002Z" fill="white"/>
<path d="M245.816 123.96L248.648 122.152C249.315 121.726 250.111 121.557 250.895 121.671C252.721 121.938 256.376 122.279 259.359 123.762C262.071 125.11 261.254 127.439 261.254 127.439C261.254 127.439 256.079 124.744 245.816 123.96Z" fill="#407BFF"/>
<path d="M258.845 147.997L255.978 148.063L255.954 147.021C255.943 146.567 255.776 146.15 255.484 145.846C255.224 145.575 254.893 145.431 254.552 145.438L249.209 145.563C248.872 145.575 248.544 145.731 248.296 146.013C248.019 146.33 247.872 146.756 247.883 147.209L247.907 148.252L245.04 148.319L245.015 147.276C244.988 146.102 245.387 144.982 246.139 144.124C246.921 143.231 247.987 142.727 249.142 142.697L254.484 142.572C255.638 142.545 256.727 143.001 257.55 143.858C258.342 144.681 258.793 145.78 258.82 146.954L258.845 147.997Z" fill="#263238"/>
<g opacity="0.2">
<path d="M258.845 147.997L255.978 148.063L255.954 147.021C255.943 146.567 255.776 146.15 255.484 145.846C255.224 145.575 254.893 145.431 254.552 145.438L249.209 145.563C248.872 145.575 248.544 145.731 248.296 146.013C248.019 146.33 247.872 146.756 247.883 147.209L247.907 148.252L245.04 148.319L245.015 147.276C244.988 146.102 245.387 144.982 246.139 144.124C246.921 143.231 247.987 142.727 249.142 142.697L254.484 142.572C255.638 142.545 256.727 143.001 257.55 143.858C258.342 144.681 258.793 145.78 258.82 146.954L258.845 147.997Z" fill="white"/>
</g>
<path d="M233.27 148.594L232.234 173.775L237.592 173.65L234.95 148.554L233.27 148.594Z" fill="#263238"/>
<path d="M271.63 172.855L269.426 172.906L266.273 172.981L233.855 173.734L233.268 148.592L267.308 147.8L268.838 147.764L268.989 147.758L271.63 172.855Z" fill="#263238"/>
<path opacity="0.2" d="M271.63 172.855L269.426 172.906L266.273 172.981L233.855 173.734L233.268 148.592L267.308 147.8L268.838 147.764L268.989 147.758L271.63 172.855Z" fill="white"/>
<path opacity="0.2" d="M233.27 148.594L232.234 173.775L237.592 173.65L234.95 148.554L233.27 148.594Z" fill="white"/>
<path d="M234.858 148.564L234.141 148.575L234.558 173.723L235.275 173.711L234.858 148.564Z" fill="#263238"/>
<path d="M256.796 131.26C255.351 134.055 251.025 145.696 247.075 156.376C246.375 158.269 247.468 160.352 249.425 160.851L253.807 161.577C258.447 151.278 262.146 142.593 266.243 133.806C262.88 131.912 259.057 126.886 256.796 131.26Z" fill="#FF8B7B"/>
<path d="M253.678 161.342C255.457 171.884 256.132 181.466 257.54 190.532L252.895 190.726C252.715 187.309 250.212 181.314 248.862 175.34C248.373 173.182 247.301 171.11 246.523 167.859C245.944 165.441 247.671 162.166 250.014 161.334L253.678 161.342Z" fill="#FF8B7B"/>
<path d="M255.92 189.625C251.482 189.272 251.125 195.395 251.125 195.395L256.555 198.708L257.521 190.55L255.92 189.625Z" fill="#FF8B7B"/>
<path d="M256.556 198.708L251.126 195.395L248.454 199.628L251.79 202.565L256.556 198.708Z" fill="#FF8B7B"/>
<path d="M255.084 158.723L248.44 152.525C248.44 152.525 243.329 163.258 247.545 169.583C251.149 174.99 253.305 164.697 253.305 164.697L254.147 161.406L255.084 158.723Z" fill="#FF8B7B"/>
<path opacity="0.5" d="M254.156 136.452C254.128 135.883 254.062 135.259 253.651 134.866C253.294 134.525 252.599 134.561 252.366 134.944L252.552 134.44C250.795 137.685 249.039 140.929 247.283 144.174C246.902 144.878 246.518 145.735 246.898 146.439C247.134 146.875 246.839 147.92 247.19 148.271C248.243 149.319 244.722 151.63 245.481 161.024C251.207 152.375 254.477 143.226 254.156 136.452Z" fill="#263238"/>
<path d="M260.569 128.839C258.326 129.19 256.342 130.485 254.592 131.931C253.863 132.533 253.148 133.182 252.684 134.006C252.083 135.075 251.959 136.339 251.846 137.56C251.651 139.695 250.222 145.127 250.027 147.262C253.18 149.155 256.677 150.472 260.294 151.131C260.745 151.213 261.249 151.275 261.63 151.019C262.325 150.553 265.181 141.071 266.264 138.915C268.571 134.322 266.575 127.898 260.569 128.839Z" fill="#407BFF"/>
<path opacity="0.8" d="M260.569 128.839C258.326 129.19 256.342 130.485 254.592 131.931C253.863 132.533 253.148 133.182 252.684 134.006C252.083 135.075 251.959 136.339 251.846 137.56C251.651 139.695 250.222 145.127 250.027 147.262C253.18 149.155 256.677 150.472 260.294 151.131C260.745 151.213 261.249 151.275 261.63 151.019C262.325 150.553 265.181 141.071 266.264 138.915C268.571 134.322 266.575 127.898 260.569 128.839Z" fill="white"/>
</svg>
