<svg width="1777" height="1777" viewBox="0 0 1777 1777" fill="none" xmlns="http://www.w3.org/2000/svg">
<path d="M888.5 1506.11C1269.07 1506.11 1577.58 1488.1 1577.58 1465.88C1577.58 1443.66 1269.07 1425.65 888.5 1425.65C507.928 1425.65 199.415 1443.66 199.415 1465.88C199.415 1488.1 507.928 1506.11 888.5 1506.11Z" fill="#F5F5F5"/>
<path d="M847.256 1277.77H161.014C149.819 1277.75 140.756 1268.67 140.756 1257.48V292.814C140.852 281.69 149.89 272.716 161.014 272.698H847.256C858.461 272.698 867.549 281.782 867.549 292.992V1257.48C867.549 1268.69 858.461 1277.77 847.256 1277.77ZM161.014 273.409C150.309 273.43 141.644 282.109 141.644 292.814V1257.48C141.644 1268.18 150.309 1276.86 161.014 1276.88H847.256C857.964 1276.86 866.639 1268.18 866.66 1257.48V292.814C866.639 282.106 857.964 273.427 847.256 273.409H161.014Z" fill="#F0F0F0"/>
<path d="M1616.02 1277.77H929.745C918.546 1277.75 909.469 1268.67 909.451 1257.48V292.814C909.568 281.683 918.613 272.716 929.745 272.698H1616.02C1627.13 272.737 1636.15 281.704 1636.24 292.814V1257.48C1636.24 1268.66 1627.2 1277.73 1616.02 1277.77ZM929.745 273.409C919.036 273.43 910.357 282.106 910.34 292.814V1257.48C910.357 1268.18 919.036 1276.86 929.745 1276.88H1616.02C1626.73 1276.86 1635.41 1268.18 1635.43 1257.48V292.814C1635.41 282.106 1626.73 273.427 1616.02 273.409H929.745Z" fill="#F0F0F0"/>
<path d="M337.63 1457.89H191.17V1458.77H337.63V1457.89Z" fill="#E0E0E0"/>
<path d="M827.301 1450.78H791.761V1451.67H827.301V1450.78Z" fill="#E0E0E0"/>
<path d="M472.078 1481.13H307.706V1482.02H472.078V1481.13Z" fill="#E0E0E0"/>
<path d="M1171.51 1457.42H1072.24V1458.31H1171.51V1457.42Z" fill="#E0E0E0"/>
<path d="M1561.67 1457.42H1462.41V1458.31H1561.67V1457.42Z" fill="#E0E0E0"/>
<path d="M632.785 1359.57H485.898V1360.46H632.785V1359.57Z" fill="#E0E0E0"/>
<path d="M468.698 1389.92H304.325V1390.81H468.698V1389.92Z" fill="#E0E0E0"/>
<path d="M1037.23 1366.22H960.465V1367.11H1037.23V1366.22Z" fill="#E0E0E0"/>
<path d="M1168.13 1366.22H1068.86V1367.11H1168.13V1366.22Z" fill="#E0E0E0"/>
<path d="M1646.85 1381.25H1424.94V1382.14H1646.85V1381.25Z" fill="#E0E0E0"/>
<path d="M281.142 858.824H169.867V977.279H281.142V858.824Z" fill="#E6E6E6"/>
<path d="M169.866 858.824H141.363V977.279H169.866V858.824Z" fill="#F0F0F0"/>
<path d="M310.321 840.557H226.73V977.279H310.321V840.557Z" fill="#E6E6E6"/>
<path d="M226.766 840.557H202.599V977.279H226.766V840.557Z" fill="#F0F0F0"/>
<path d="M321.836 858.824H251.36V977.279H321.836V858.824Z" fill="#F0F0F0"/>
<path d="M251.359 858.824H235.26V977.279H251.359V858.824Z" fill="#F5F5F5"/>
<path d="M401.482 878.869H309.042V977.279H401.482V878.869Z" fill="#E6E6E6"/>
<path d="M309.041 878.869H285.372V977.279H309.041V878.869Z" fill="#F5F5F5"/>
<path d="M425.72 863.693H356.274V977.279H425.72V863.693Z" fill="#E6E6E6"/>
<path d="M356.31 863.693H336.229V977.279H356.31V863.693Z" fill="#F0F0F0"/>
<path d="M444.2 878.869H376.745V977.279H444.2V878.869Z" fill="#F0F0F0"/>
<path d="M376.709 878.869H363.346V977.279H376.709V878.869Z" fill="#F5F5F5"/>
<path d="M703.4 859.457H592.125V977.912H703.4V859.457Z" fill="#E6E6E6"/>
<path d="M592.125 859.457H563.622V977.912H592.125V859.457Z" fill="#F0F0F0"/>
<path d="M732.578 841.189H648.988V977.912H732.578V841.189Z" fill="#E6E6E6"/>
<path d="M649.024 841.189H624.857V977.912H649.024V841.189Z" fill="#F0F0F0"/>
<path d="M744.094 859.457H673.618V977.912H744.094V859.457Z" fill="#F0F0F0"/>
<path d="M673.617 859.457H657.518V977.912H673.617V859.457Z" fill="#F5F5F5"/>
<path d="M866.661 977.848H141.645V1012.13H866.661V977.848Z" fill="#E0E0E0"/>
<path d="M823.739 879.501H731.3V977.912H823.739V879.501Z" fill="#E6E6E6"/>
<path d="M731.299 879.501H707.629V977.912H731.299V879.501Z" fill="#F5F5F5"/>
<path d="M847.978 864.326H778.533V977.912H847.978V864.326Z" fill="#E6E6E6"/>
<path d="M778.567 864.326H758.487V977.912H778.567V864.326Z" fill="#F0F0F0"/>
<path d="M866.458 879.501H799.003V977.912H866.458V879.501Z" fill="#F0F0F0"/>
<path d="M798.967 879.501H785.604V977.912H798.967V879.501Z" fill="#F5F5F5"/>
<path d="M725.016 362.082H142.757V716.877H725.016V362.082Z" fill="#EBEBEB"/>
<path d="M729.345 361.939H725.08V716.735H729.345V361.939Z" fill="#E0E0E0"/>
<path d="M163.907 377.491H160.388V696.747H163.907V377.491Z" fill="#E0E0E0"/>
<path d="M706.047 377.491H160.036V696.747H706.047V377.491Z" fill="white"/>
<path d="M529.657 483.884H484.663V548.514H529.657V483.884Z" fill="#F5F5F5"/>
<path d="M231.331 586.279H186.337V650.908H231.331V586.279Z" fill="#F5F5F5"/>
<path d="M226.943 451.5H181.95V496.494H226.943V451.5Z" fill="#F5F5F5"/>
<path d="M450.764 606.881H405.771V651.875H450.764V606.881Z" fill="#F5F5F5"/>
<path d="M671.741 489.45H556.521V651.37H671.741V489.45Z" fill="#F5F5F5"/>
<path d="M655.059 512.892H572.297V514.669H655.059V512.892Z" fill="#E0E0E0"/>
<path d="M614.568 514.626H612.791V634.549H614.568V514.626Z" fill="#E0E0E0"/>
<path d="M652.57 514.626H650.793V634.549H652.57V514.626Z" fill="#E0E0E0"/>
<path d="M580.787 514.626H579.01V634.549H580.787V514.626Z" fill="#E0E0E0"/>
<path d="M574.877 514.626H573.1V634.549H574.877V514.626Z" fill="#E0E0E0"/>
<path d="M650.84 520.949H573.988V522.726H650.84V520.949Z" fill="#E0E0E0"/>
<path d="M369.054 440.591V455.792H404.523V440.591H369.054Z" fill="#F5F5F5"/>
<path d="M375.988 555.056V566.88H411.457V555.056H375.988Z" fill="#F5F5F5"/>
<path d="M381.743 435.603H266.522V597.523H381.743V435.603Z" fill="#F0F0F0"/>
<path d="M368.033 581.237V593.061H403.502V581.237H368.033Z" fill="#F5F5F5"/>
<path d="M373.944 472.996V484.82H409.413V472.996H373.944Z" fill="#F5F5F5"/>
<path d="M366.169 502.381V514.205H401.638V502.381H366.169Z" fill="#F5F5F5"/>
<path d="M358.638 455.509H280.098V469.444H358.638V455.509Z" fill="#E6E6E6"/>
<path d="M359.903 515.049H281.363L280.098 508.716H358.638L359.903 515.049Z" fill="#E6E6E6"/>
<path d="M307.968 483.379H280.098V497.315H307.968V483.379Z" fill="#E6E6E6"/>
<path d="M970.933 1077.63C981.673 1081.73 991.316 1088.28 1000.43 1095.31C1005.43 1099.17 1010.44 1103.36 1013.3 1108.99C1016.16 1114.63 1016.34 1122.09 1012.12 1126.77C1007.11 1132.33 997.887 1131.87 991.479 1128C985.071 1124.12 980.7 1117.71 976.133 1111.77C969.235 1102.79 941.89 1083.99 941.14 1074.51C950.597 1071.7 961.867 1074.15 970.933 1077.63Z" fill="#E6E6E6"/>
<path d="M969.753 1126.65C970.816 1133.86 973.563 1141.31 979.456 1145.61C985.345 1149.91 994.912 1149.57 998.86 1143.44C1002.79 1137.34 999.685 1129.26 996.007 1122.99C989.67 1112.21 981.506 1100.81 971.516 1093.23C969.803 1104.85 967.98 1114.64 969.753 1126.65Z" fill="#E0E0E0"/>
<path d="M945.075 1085.8C945.956 1094.9 943.376 1103.93 940.92 1112.73C938.461 1121.53 936.079 1130.66 937.355 1139.71C938.517 1147.94 944.979 1156.83 953.149 1155.44C958.789 1154.49 962.514 1149.07 964.838 1143.82C971.687 1128.36 977.061 1107.8 970.777 1092.11C964.849 1077.3 946.304 1063.79 930.549 1059.68C934.068 1069.57 943.923 1073.91 945.075 1085.8Z" fill="#E6E6E6"/>
<path d="M896.199 1072.12C884.851 1084.71 879.588 1102.59 882.292 1119.34C870.18 1115.97 856.387 1119.62 847.502 1128.55C838.617 1137.47 834.989 1151.32 838.351 1163.47C844.13 1166.5 851.142 1161.42 853.942 1155.52C856.743 1149.61 857.254 1142.74 860.538 1137.08C863.822 1131.42 871.964 1127.57 876.816 1131.94C879.353 1159.78 875.54 1198.93 878.077 1226.77C878.443 1224.97 899.949 1225.11 899.856 1224.62C897.212 1210.71 893.559 1157.67 900.418 1159.29C905.859 1160.58 906.993 1167.86 906.296 1173.42C905.607 1178.95 904.633 1185.55 908.748 1189.23C913.088 1193.12 919.446 1191.54 922.605 1186.64C927.226 1179.49 924.557 1171.23 921.49 1164.02C918.728 1157.52 915.149 1150.7 908.756 1147.75C902.362 1144.8 892.837 1148.49 892.773 1155.55C889.148 1138.03 885.548 1119.64 890.666 1102.49C895.783 1085.35 912.772 1070.34 930.218 1074.02C938.801 1075.83 951.489 1083.16 957.719 1073.06C962.147 1065.89 957.954 1061.01 951.727 1057.44C934.017 1047.28 908.361 1058.63 896.199 1072.12Z" fill="#F0F0F0"/>
<path d="M926.01 1074.28C924.478 1082.64 924.944 1091.82 928.86 1098.95C932.4 1105.39 939.974 1109.63 945.667 1105.71C950.131 1102.63 951.712 1095.91 951.805 1089.86C952.15 1067.04 932.837 1037.03 926.01 1074.28Z" fill="#F0F0F0"/>
<path d="M957.232 1052.35C970.712 1056.51 982.124 1066.96 987.483 1080.05C989.104 1084.01 990.099 1088.84 987.657 1092.34C984.608 1096.72 978.012 1096.53 973.036 1094.63C962.58 1090.64 954.957 1081.72 946.783 1074.06C941.335 1068.95 922.829 1062.96 926.87 1054.9C930.907 1046.84 950.767 1050.36 957.232 1052.35Z" fill="#F0F0F0"/>
<path d="M927.53 1333.07H853.852L815.252 1191.19H966.13L927.53 1333.07Z" fill="#E6E6E6"/>
<path d="M932.488 1311.97H848.415V1315.13H932.488V1311.97Z" fill="white"/>
<path d="M523.66 1284.5L525.97 1328.74H664.878L614.397 1284.5H523.66Z" fill="#EBEBEB"/>
<path d="M559.314 1303.86L562.694 1351.54L702.459 1351.12L661.748 1303.86H559.314Z" fill="#E6E6E6"/>
<path d="M564.034 1258.72L532.215 1283.95C532.215 1283.95 635.171 1302.65 632.949 1302.39C630.728 1302.14 629.346 1268.24 629.346 1268.24L564.034 1258.72Z" fill="#EBEBEB"/>
<path d="M605.91 1284.92L597.988 1310.97C597.988 1310.97 696.864 1310.97 695.244 1310.97C693.623 1310.97 675.846 1285.48 675.846 1285.48L605.91 1284.92Z" fill="#F0F0F0"/>
<path d="M602.618 1251.32L589.131 1274.98C589.131 1274.98 685.562 1296.84 683.98 1296.48C682.398 1296.13 670.695 1267.34 670.695 1267.34L602.618 1251.32Z" fill="#F5F5F5"/>
<path d="M593.94 1266.24L544.536 1289.05C544.536 1289.05 598.223 1317.93 620.965 1315.86C634.9 1314.59 653.69 1280.81 653.69 1280.81L593.94 1266.24Z" fill="#FAFAFA"/>
<path d="M804.715 630.487C788.334 619.189 775.046 601.657 773.809 581.797C740.814 579.49 708.309 570.339 678.956 555.089L677.773 556.492C679.937 574.636 682.141 592.949 688.172 610.197C694.203 627.444 704.467 643.782 719.739 653.815C738.347 666.037 761.825 667.541 784.087 667.818C809.96 668.138 837.141 666.958 859.418 653.79C840.422 647.866 821.099 641.785 804.715 630.487Z" fill="#407BFF"/>
<path opacity="0.7" d="M804.715 630.487C788.334 619.189 775.046 601.657 773.809 581.797C740.814 579.49 708.309 570.339 678.956 555.089L677.773 556.492C679.937 574.636 682.141 592.949 688.172 610.197C694.203 627.444 704.467 643.782 719.739 653.815C738.347 666.037 761.825 667.541 784.087 667.818C809.96 668.138 837.141 666.958 859.418 653.79C840.422 647.866 821.099 641.785 804.715 630.487Z" fill="white"/>
<path d="M1019.39 694.853C1019.52 675.122 1014.46 654.668 1001.52 639.77C991.068 627.725 976.454 620.259 963.681 610.709C945.722 597.278 931.155 579.352 921.68 559.027L923.482 567.418C946.629 611.533 953.111 664.147 941.365 712.563C964.953 724.558 987.752 738.102 1009.57 753.079C1014.4 733.944 1019.26 714.585 1019.39 694.853Z" fill="#407BFF"/>
<path opacity="0.7" d="M1019.39 694.853C1019.52 675.122 1014.46 654.668 1001.52 639.77C991.068 627.725 976.454 620.259 963.681 610.709C945.722 597.278 931.155 579.352 921.68 559.027L923.482 567.418C946.629 611.533 953.111 664.147 941.365 712.563C964.953 724.558 987.752 738.102 1009.57 753.079C1014.4 733.944 1019.26 714.585 1019.39 694.853Z" fill="white"/>
<path d="M675.48 1369.99C693.322 1375.94 711.163 1381.9 729.004 1387.85C733.805 1389.46 738.671 1391.07 743.724 1391.39C753.836 1392.01 763.506 1387.38 772.164 1382.13C793.711 1369.04 812.391 1351.25 826.515 1330.37C810.252 1327.71 793.989 1325.05 777.729 1322.39C772.153 1321.48 760.322 1317.11 755.051 1318.8C750.452 1320.28 746.098 1327.96 742.63 1331.41C733.386 1340.63 722.905 1348.62 711.589 1355.12C704.538 1359.17 683.804 1372.37 675.48 1369.99Z" fill="#407BFF"/>
<path opacity="0.6" d="M675.48 1369.99C693.322 1375.94 711.163 1381.9 729.004 1387.85C733.805 1389.46 738.671 1391.07 743.724 1391.39C753.836 1392.01 763.506 1387.38 772.164 1382.13C793.711 1369.04 812.391 1351.25 826.515 1330.37C810.252 1327.71 793.989 1325.05 777.729 1322.39C772.153 1321.48 760.322 1317.11 755.051 1318.8C750.452 1320.28 746.098 1327.96 742.63 1331.41C733.386 1340.63 722.905 1348.62 711.589 1355.12C704.538 1359.17 683.804 1372.37 675.48 1369.99Z" fill="white"/>
<path d="M840.913 1350.94C851.575 1366.44 862.241 1381.93 872.903 1397.43C875.771 1401.6 878.685 1405.82 882.53 1409.11C890.228 1415.69 900.738 1417.81 910.817 1418.83C935.904 1421.35 961.525 1418.38 985.376 1410.21C973.989 1398.3 962.602 1386.38 951.215 1374.47C947.313 1370.39 940.496 1359.77 935.268 1357.96C930.705 1356.37 922.612 1359.88 917.758 1360.56C904.828 1362.35 891.65 1362.42 878.699 1360.81C870.628 1359.8 846.127 1357.86 840.913 1350.94Z" fill="#407BFF"/>
<path opacity="0.6" d="M840.913 1350.94C851.575 1366.44 862.241 1381.93 872.903 1397.43C875.771 1401.6 878.685 1405.82 882.53 1409.11C890.228 1415.69 900.738 1417.81 910.817 1418.83C935.904 1421.35 961.525 1418.38 985.376 1410.21C973.989 1398.3 962.602 1386.38 951.215 1374.47C947.313 1370.39 940.496 1359.77 935.268 1357.96C930.705 1356.37 922.612 1359.88 917.758 1360.56C904.828 1362.35 891.65 1362.42 878.699 1360.81C870.628 1359.8 846.127 1357.86 840.913 1350.94Z" fill="white"/>
<path d="M896.615 1387.01C880.444 1377.4 864.273 1367.8 848.103 1358.19C843.752 1355.6 839.338 1352.99 834.469 1351.61C824.721 1348.85 814.29 1351.33 804.712 1354.63C780.875 1362.85 758.847 1376.26 740.612 1393.67C755.94 1399.72 771.269 1405.77 786.597 1411.82C791.853 1413.89 802.483 1420.68 807.996 1420.14C812.804 1419.67 818.686 1413.1 822.809 1410.46C833.798 1403.41 845.736 1397.83 858.175 1393.87C865.919 1391.41 888.984 1382.92 896.615 1387.01Z" fill="#407BFF"/>
<path opacity="0.7" d="M896.615 1387.01C880.444 1377.4 864.273 1367.8 848.103 1358.19C843.752 1355.6 839.338 1352.99 834.469 1351.61C824.721 1348.85 814.29 1351.33 804.712 1354.63C780.875 1362.85 758.847 1376.26 740.612 1393.67C755.94 1399.72 771.269 1405.77 786.597 1411.82C791.853 1413.89 802.483 1420.68 807.996 1420.14C812.804 1419.67 818.686 1413.1 822.809 1410.46C833.798 1403.41 845.736 1397.83 858.175 1393.87C865.919 1391.41 888.984 1382.92 896.615 1387.01Z" fill="white"/>
<path d="M462.891 712.158C507.576 718.31 553.138 718.043 597.748 711.376C600.342 710.989 603.263 710.367 604.621 708.124C606.654 704.765 603.804 700.689 601.447 697.547C592.889 686.118 589.467 670.988 592.267 656.985C559.258 687.173 516.553 706.592 472.107 711.625L462.891 712.158Z" fill="#407BFF"/>
<path opacity="0.4" d="M462.891 712.158C507.576 718.31 553.138 718.043 597.748 711.376C600.342 710.989 603.263 710.367 604.621 708.124C606.654 704.765 603.804 700.689 601.447 697.547C592.889 686.118 589.467 670.988 592.267 656.985C559.258 687.173 516.553 706.592 472.107 711.625L462.891 712.158Z" fill="white"/>
<path d="M195.786 1077.92V900.615C226.602 900.615 251.587 925.597 251.587 956.417V1022.12C251.587 1052.93 226.602 1077.92 195.786 1077.92Z" fill="#407BFF"/>
<path d="M365.568 1282.21H231.682C201.849 1282.21 185.419 1260.74 185.419 1221.73L184.815 956.314L195.477 956.292L196.081 1221.72C196.081 1254.79 208.058 1271.55 231.682 1271.55H365.568V1282.21Z" fill="#263238"/>
<path d="M450.998 1273.33H259.8C231.443 1273.33 208.456 1257.11 208.456 1237.1C208.456 1217.1 231.443 1200.88 259.8 1200.88H354.909H451.002C479.359 1200.88 502.346 1217.09 502.346 1237.1C502.343 1257.11 479.356 1273.33 450.998 1273.33Z" fill="#407BFF"/>
<path d="M195.786 1077.92V900.615C226.602 900.615 251.587 925.597 251.587 956.417V1022.12C251.587 1052.93 226.602 1077.92 195.786 1077.92Z" fill="#407BFF"/>
<path d="M450.998 1273.33H259.8C231.443 1273.33 208.456 1257.11 208.456 1237.1C208.456 1217.1 231.443 1200.88 259.8 1200.88H354.909H451.002C479.359 1200.88 502.346 1217.09 502.346 1237.1C502.343 1257.11 479.356 1273.33 450.998 1273.33Z" fill="#407BFF"/>
<path d="M366.154 1276.88H335.572V1386.16H366.154V1276.88Z" fill="#263238"/>
<path d="M225.12 1420.79L335.571 1386.17H366.154L484.384 1420.79V1430.93H225.12V1420.79Z" fill="#263238"/>
<path d="M249.611 1430.93H225.12V1455.42H249.611V1430.93Z" fill="#263238"/>
<path d="M237.939 1495.35C248.285 1495.35 256.672 1486.97 256.672 1476.62C256.672 1466.27 248.285 1457.89 237.939 1457.89C227.593 1457.89 219.206 1466.27 219.206 1476.62C219.206 1486.97 227.593 1495.35 237.939 1495.35Z" fill="#263238"/>
<path d="M483.543 1430.93H459.053V1455.42H483.543V1430.93Z" fill="#263238"/>
<path d="M471.872 1495.35C482.218 1495.35 490.605 1486.97 490.605 1476.62C490.605 1466.27 482.218 1457.89 471.872 1457.89C461.526 1457.89 453.139 1466.27 453.139 1476.62C453.139 1486.97 461.526 1495.35 471.872 1495.35Z" fill="#263238"/>
<path d="M381.966 1060.18H338.344L261.507 1507.77H280.905L381.966 1060.18Z" fill="#263238"/>
<path opacity="0.1" d="M381.966 1060.18H338.344L261.507 1507.77H280.905L381.966 1060.18Z" fill="white"/>
<path d="M647.214 1060.18H690.833L767.674 1507.77H748.276L647.214 1060.18Z" fill="#263238"/>
<path opacity="0.1" d="M647.214 1060.18H690.833L767.674 1507.77H748.276L647.214 1060.18Z" fill="white"/>
<path d="M714.707 1025.56H316.939V1093.96H714.707V1025.56Z" fill="#263238"/>
<path opacity="0.2" d="M714.707 1025.56H316.939V1093.96H714.707V1025.56Z" fill="white"/>
<path d="M725.93 1025.56H298.608C287.882 1025.56 279.185 1016.86 279.185 1006.13C279.185 995.408 287.882 986.711 298.608 986.711H725.934C736.659 986.711 745.356 995.408 745.356 1006.13C745.356 1016.86 736.66 1025.56 725.93 1025.56Z" fill="#407BFF"/>
<path opacity="0.3" d="M725.93 1025.56H298.608C287.882 1025.56 279.185 1016.86 279.185 1006.13C279.185 995.408 287.882 986.711 298.608 986.711H725.934C736.659 986.711 745.356 995.408 745.356 1006.13C745.356 1016.86 736.66 1025.56 725.93 1025.56Z" fill="black"/>
<path d="M959.929 382.971C967.37 343.532 941.43 305.528 901.99 298.087C862.551 290.646 824.547 316.586 817.106 356.026C809.665 395.465 835.605 433.469 875.045 440.91C914.484 448.351 952.488 422.411 959.929 382.971Z" fill="#407BFF"/>
<path opacity="0.8" d="M887.618 427.848C919.826 427.848 945.936 401.738 945.936 369.53C945.936 337.322 919.826 311.213 887.618 311.213C855.41 311.213 829.301 337.322 829.301 369.53C829.301 401.738 855.41 427.848 887.618 427.848Z" fill="white"/>
<path d="M893.383 374.367C893.383 377.633 890.735 380.281 887.469 380.281C884.203 380.281 881.555 377.633 881.555 374.367C881.555 371.101 884.203 368.453 887.469 368.453C890.735 368.453 893.383 371.101 893.383 374.367Z" fill="#407BFF"/>
<path d="M886.79 376.546L861.699 352.93L864.133 350.339L886.868 371.734L927.615 335.735L929.968 338.397L886.79 376.546Z" fill="#407BFF"/>
<path d="M361.732 984.599H557.028V936.041H361.732V984.599Z" fill="#407BFF"/>
<path opacity="0.6" d="M362.366 984.808H557.662V936.25H362.366V984.808Z" fill="white"/>
<path opacity="0.6" d="M361.734 984.808H511.635V936.25H361.734V984.808Z" fill="white"/>
<path d="M362.682 978.423L557.032 984.454L556.815 979.532L362.579 976.998L362.682 978.423Z" fill="#407BFF"/>
<path d="M557.031 955.962L362.983 945.051V946.686L557.031 959.658V955.962Z" fill="#407BFF"/>
<path d="M557.031 941.298L362.983 945.74V947.34L557.031 944.994V941.298Z" fill="#407BFF"/>
<path d="M557.579 965.501L363.495 974.955V973.533L557.579 962.267V965.501Z" fill="#407BFF"/>
<path d="M362.212 936.675L556.261 936.831V938.43H362.212V936.675Z" fill="#407BFF"/>
<path d="M375.737 839.976H571.033V791.418H375.737V839.976Z" fill="#407BFF"/>
<path opacity="0.6" d="M376.374 840.185H571.666V791.627H376.374V840.185Z" fill="white"/>
<path opacity="0.6" d="M375.739 840.185H525.639V791.627H375.739V840.185Z" fill="white"/>
<path d="M376.688 833.8L571.039 839.831L570.822 834.909L376.582 832.375L376.688 833.8Z" fill="#407BFF"/>
<path d="M571.039 811.339L376.991 800.428V802.063L571.039 815.035V811.339Z" fill="#407BFF"/>
<path d="M571.039 796.675L376.991 801.117V802.717L571.039 800.371V796.675Z" fill="#407BFF"/>
<path d="M571.587 820.878L377.503 830.331V828.91L571.587 817.644V820.878Z" fill="#407BFF"/>
<path d="M373.307 935.37H568.603V886.811H373.307V935.37Z" fill="#407BFF"/>
<path opacity="0.6" d="M373.94 935.582H569.236V887.024H373.94V935.582Z" fill="white"/>
<path opacity="0.6" d="M523.637 887.021H373.737V935.58H523.637V887.021Z" fill="white"/>
<path d="M567.765 927.768L373.528 930.302L373.312 935.228L567.662 929.197L567.765 927.768Z" fill="#407BFF"/>
<path d="M374.563 887.444L568.611 887.604V889.204H374.563V887.444Z" fill="#407BFF"/>
<path d="M373.312 910.432L567.36 897.46V895.825L373.312 906.736V910.432Z" fill="#407BFF"/>
<path d="M568.611 892.072L374.563 896.514V898.11L568.611 895.764V892.072Z" fill="#407BFF"/>
<path d="M569.157 916.275L375.073 925.728V924.307L569.157 913.04V916.275Z" fill="#407BFF"/>
<path d="M561.848 841.033L366.634 842.014L366.35 889.591H561.848V841.033Z" fill="#407BFF"/>
<path opacity="0.6" d="M366.551 889.589H561.847V841.031H366.551V889.589Z" fill="white"/>
<path opacity="0.6" d="M516.25 841.033H366.35V889.591H516.25V841.033Z" fill="white"/>
<path d="M522.122 842.014H366.634V846.954H518.781L522.122 842.014Z" fill="#407BFF"/>
<path d="M560.718 861.906L366.634 863.718V865.14H560.718V861.906Z" fill="#407BFF"/>
<path d="M366.634 884.374L560.718 874.92V876.342L366.634 887.608V884.374Z" fill="#407BFF"/>
<path d="M366.634 866.117L560.718 869.991V871.377L366.634 869.351V866.117Z" fill="#407BFF"/>
<path d="M611.702 735.401H417.653V759.852H611.702V735.401Z" fill="#407BFF"/>
<path opacity="0.6" d="M611.702 735.401H417.653V759.852H611.702V735.401Z" fill="white"/>
<path opacity="0.6" d="M572.288 735.401H417.653V759.852H572.288V735.401Z" fill="white"/>
<path d="M611.81 752.744L417.761 753.704V754.414H611.81V752.744Z" fill="#407BFF"/>
<path d="M417.761 743.603L611.81 738.663V739.409L417.761 745.273V743.603Z" fill="#407BFF"/>
<path d="M417.128 742.263L611.176 744.254V745L417.128 743.934V742.263Z" fill="#407BFF"/>
<path d="M584.544 724.635H390.496V736.42H584.544V724.635Z" fill="#407BFF"/>
<path opacity="0.6" d="M584.544 724.735H390.496V736.417H584.544V724.735Z" fill="white"/>
<path opacity="0.6" d="M545.13 723.999H390.496V736.417H545.13V723.999Z" fill="white"/>
<path d="M390.602 733.609L584.65 728.669V729.416L390.602 735.28V733.609Z" fill="#407BFF"/>
<path d="M390.602 727.696L584.65 729.686V730.432L390.602 729.366V727.696Z" fill="#407BFF"/>
<path d="M602.626 712.601H408.578V724.386H602.626V712.601Z" fill="#407BFF"/>
<path opacity="0.6" d="M602.626 712.701H408.578V724.383H602.626V712.701Z" fill="white"/>
<path opacity="0.6" d="M563.212 711.966H408.578V724.383H563.212V711.966Z" fill="white"/>
<path d="M408.688 717.926L602.787 720.289L602.758 721.035L408.628 719.592L408.688 717.926Z" fill="#407BFF"/>
<path d="M408.68 715.662L602.729 717.652V718.398L408.68 717.332V715.662Z" fill="#407BFF"/>
<path d="M598.576 759.852H404.527V791.341H598.576V759.852Z" fill="#407BFF"/>
<path opacity="0.6" d="M598.576 759.852H404.527V791.341H598.576V759.852Z" fill="white"/>
<path opacity="0.6" d="M554.257 759.852H404.527V791.341H554.257V759.852Z" fill="white"/>
<path d="M597.342 769.64L403.293 768.538V767.685H597.342V769.64Z" fill="#407BFF"/>
<path d="M404.633 774.21L598.682 779.897V779.044L404.633 772.291V774.21Z" fill="#407BFF"/>
<path d="M598.682 759.888H415.651L419.702 763.762H598.682V759.888Z" fill="#407BFF"/>
<path d="M405.301 786.475L599.35 784.129V783.312L405.301 784.52V786.475Z" fill="#407BFF"/>
<path d="M558.1 975.776L612.721 746.575C616.542 747.485 621.652 751.319 620.742 755.136L567.77 977.421L558.1 975.776Z" fill="#263238"/>
<path d="M561.217 986.555H349.313C342.763 986.555 337.453 981.245 337.453 974.695H573.073C573.073 981.245 567.767 986.555 561.217 986.555Z" fill="#263238"/>
<path d="M600.137 931.418V945.481C600.137 947.852 601.061 950.077 602.731 951.758L614.012 963.035C615.042 964.069 616.3 964.776 617.661 965.195C622.264 975.086 632.261 981.96 643.89 981.96H648.112C664.098 981.96 677.056 969.002 677.056 953.019V919.854H614.95V922.544H609.015C604.117 922.544 600.137 926.524 600.137 931.418ZM607.245 931.418C607.245 930.444 608.037 929.648 609.011 929.648H614.946V953.016C614.946 953.336 614.982 953.645 614.992 953.961L607.76 946.729C607.433 946.398 607.245 945.944 607.245 945.478V931.418Z" fill="#407BFF"/>
<path d="M691.797 986.711H602.453C596.643 986.711 591.934 981.452 591.934 981.452H702.317C702.317 981.452 697.608 986.711 691.797 986.711Z" fill="#407BFF"/>
<path d="M1622.04 379.013H1160.27V1366.13H1622.04V379.013Z" fill="#407BFF"/>
<path opacity="0.5" d="M1622.04 379.013H1160.27V1366.13H1622.04V379.013Z" fill="black"/>
<path opacity="0.3" d="M1396.15 407.367V1329.56L1160.27 1366.13V379.013L1396.15 407.367Z" fill="black"/>
<path opacity="0.4" d="M1396.15 407.367L1160.27 379.013L1396.15 1027.29V407.367Z" fill="black"/>
<path opacity="0.4" d="M1160.91 384.181L1159.74 1363.76L1175.09 1363.78L1176.26 384.2L1160.91 384.181Z" fill="black"/>
<path d="M1144.29 362.412V1366.12H1160.27V379.013H1620.16V1366.13H1636.14V362.412H1144.29Z" fill="#407BFF"/>
<path d="M1483.25 295.089H1305.15V358.862H1483.25V295.089Z" fill="#407BFF"/>
<path opacity="0.8" d="M1483.25 295.089H1305.15V358.862H1483.25V295.089Z" fill="white"/>
<path d="M1351.94 342.279V311.668H1374.48V314.376V317.106H1358.34V323.602H1373.31V326.225V328.869H1358.34V336.845H1375.18V339.553V342.279H1351.94Z" fill="#407BFF"/>
<path d="M1387.66 326.787L1378.41 311.668H1382.19H1385.98L1391.36 321.541L1396.93 311.668H1400.62H1404.32L1394.99 326.307L1404.98 342.279H1401.17H1397.35L1391.34 331.738L1385.32 342.279H1381.54H1377.75L1387.66 326.787Z" fill="#407BFF"/>
<path d="M1408.32 311.668H1411.5H1414.71V342.279H1411.52H1408.32V311.668Z" fill="#407BFF"/>
<path d="M1427.29 317.102H1418.04V314.394V311.665H1442.93V314.373V317.102H1433.68V342.279H1430.49H1427.29V317.102Z" fill="#407BFF"/>
<path d="M1291.4 610.659C1278.45 623.34 1268.06 639.109 1286.14 658.293C1286.14 658.293 1296.5 687.735 1257.5 662.036C1222.12 638.725 1226.94 619.285 1226.94 619.285C1248.21 615.08 1266.25 576.907 1274.43 554.972L1291.4 610.659Z" fill="#FF8B7B"/>
<path d="M1358.21 572.141C1359.67 572.901 1360.02 575.407 1358.94 577.653C1357.86 579.899 1355.82 581.111 1354.35 580.379C1352.87 579.647 1352.56 577.205 1353.63 574.913C1354.76 572.539 1356.76 571.38 1358.21 572.141Z" fill="#263238"/>
<path d="M1341.75 597.85C1341.75 597.85 1347.68 603.036 1353.42 601.305C1351.79 593.081 1351.27 584.676 1351.87 576.313L1341.75 597.85Z" fill="#A02724"/>
<path d="M1294.75 510.579C1312.11 496.185 1337.85 498.591 1352.25 515.952C1373.97 540.894 1358.24 584.345 1340.56 606.455C1335.57 612.923 1328.74 617.728 1320.96 620.227C1299.76 627.047 1277.04 615.39 1270.22 594.183C1263.03 572.71 1271.18 556.461 1282.61 527.595C1285.11 520.967 1289.29 515.103 1294.75 510.579Z" fill="#FF8B7B"/>
<path d="M1294.09 585.181C1283.34 584.388 1273.45 579.008 1266.94 570.41C1261.45 563.352 1267.48 523.021 1283.64 507.057C1299.24 491.686 1312.21 490.367 1334.2 499.743C1356.19 509.118 1369.92 531.75 1365.82 541.673C1361.72 551.596 1339.22 572.287 1332.62 571.498C1325.01 559.173 1302.96 585.476 1294.09 585.181Z" fill="#263238"/>
<path opacity="0.2" d="M1294.09 585.181C1283.34 584.388 1273.45 579.008 1266.94 570.41C1261.45 563.352 1267.48 523.021 1283.64 507.057C1299.24 491.686 1312.21 490.367 1334.2 499.743C1356.19 509.118 1369.92 531.75 1365.82 541.673C1361.72 551.596 1339.22 572.287 1332.62 571.498C1325.01 559.173 1302.96 585.476 1294.09 585.181Z" fill="white"/>
<path d="M1292.61 516.606C1272.75 511.513 1281.2 484.56 1299.55 480.114C1314.41 476.481 1341.78 489.158 1354.06 499.611C1366.35 510.067 1367.5 499.593 1367.5 499.593C1377.8 504.323 1384.38 514.641 1384.32 525.974C1384.14 545.397 1364.95 554.641 1355.73 547.771C1355.73 547.771 1312.47 521.699 1292.61 516.606Z" fill="#263238"/>
<path d="M1340.91 557.9C1345.96 566.543 1338.51 578.89 1331.75 584.708C1324.27 591.162 1314.2 590.241 1312.98 579.97C1312.1 572.123 1314.25 564.237 1319 557.925C1324.89 550.262 1335.86 549.256 1340.91 557.9Z" fill="#FF8B7B"/>
<path d="M1353.62 560.804C1357.1 559.197 1361.13 559.314 1364.52 561.116C1365.21 561.55 1366.12 561.351 1366.57 560.672C1366.98 559.983 1366.78 559.091 1366.11 558.65C1361.9 556.315 1356.84 556.105 1352.45 558.085L1352.45 558.088C1351.7 558.415 1351.37 559.282 1351.7 560.022C1351.82 560.342 1352.06 560.612 1352.36 560.779C1352.76 560.96 1353.21 560.971 1353.62 560.804Z" fill="#263238"/>
<path d="M1314.22 510.959L1312.65 510.145C1316.63 502.447 1316.63 492.883 1312.66 485.185C1308.68 477.487 1300.87 471.961 1292.29 470.759L1292.53 469C1301.68 470.276 1310 476.169 1314.24 484.368C1318.47 492.57 1318.47 502.76 1314.22 510.959Z" fill="#263238"/>
<path d="M1323.54 516.378L1322.82 514.754C1330.74 511.236 1336.72 503.772 1338.43 495.271C1340.12 486.77 1337.49 477.579 1331.53 471.285L1332.82 470.062C1339.16 476.772 1341.98 486.564 1340.16 495.623C1338.35 504.675 1331.98 512.629 1323.54 516.378Z" fill="#263238"/>
<path d="M1290.59 496.195C1285.25 492.599 1277.79 492.108 1272.02 494.983L1271.22 493.395C1277.65 490.193 1285.64 490.715 1291.58 494.724L1290.59 496.195Z" fill="#263238"/>
<path d="M1375.13 525.036L1374.23 523.508C1381.23 519.353 1389.23 516.986 1397.37 516.663L1397.44 518.44C1389.59 518.752 1381.88 521.034 1375.13 525.036Z" fill="#263238"/>
<path d="M1363.76 511.588C1362.29 511.588 1360.84 511.101 1359.69 510.184C1358.26 509.047 1357.28 507.536 1356.33 506.076L1356.12 505.759C1354.41 503.133 1338.94 480.05 1322.16 478.39C1316.39 477.828 1311.1 479.957 1306.42 484.744L1305.15 483.501C1310.22 478.308 1316.01 476.005 1322.33 476.62C1339.94 478.358 1355.85 502.084 1357.61 504.785L1357.82 505.105C1358.73 506.509 1359.59 507.835 1360.79 508.791C1361.97 509.726 1363.57 510.045 1365.07 509.633C1366.54 509.228 1367.56 508.507 1368.1 507.483C1369.03 505.745 1368.47 503.431 1368.06 502.209C1367.32 500.034 1365.46 498.317 1363.83 496.796L1365.04 495.492C1366.74 497.07 1368.86 499.035 1369.74 501.637C1370.25 503.133 1370.91 505.99 1369.68 508.315C1368.89 509.786 1367.5 510.806 1365.55 511.346C1364.95 511.51 1364.36 511.588 1363.76 511.588Z" fill="#263238"/>
<path d="M1355.85 548.013C1355.56 547.661 1355.58 547.135 1355.92 546.819C1356.27 546.531 1356.77 546.552 1357.09 546.868C1360.95 550.44 1366.49 551.56 1371.43 549.772C1379.98 547.238 1386.33 540.062 1387.82 531.281C1387.91 530.822 1388.35 530.527 1388.81 530.619C1389.27 530.712 1389.56 531.156 1389.47 531.615C1387.82 541.001 1381.01 548.649 1371.89 551.389C1367.26 552.892 1362.22 552.331 1358.04 549.854C1357.24 549.328 1356.5 548.713 1355.85 548.013Z" fill="#263238"/>
<path d="M1276.51 865.79C1291.06 877.379 1310.6 883.531 1321.7 898.472C1327.35 906.082 1350.64 918.233 1359.68 922.601C1361.89 923.67 1364.44 923.709 1366.68 922.718C1371.98 920.379 1382.07 915.947 1386.33 914.188C1387.33 913.779 1387.65 912.55 1387.02 911.683L1380 902.14L1361.7 903.409C1363.42 894.577 1366.35 883.713 1356.33 883.044C1349.43 882.582 1342.9 882.842 1335.28 878.065C1290.03 849.697 1256.56 781.357 1246.42 728.929C1243.95 716.163 1242.11 702.8 1235 691.91C1227.89 681.021 1213.54 673.497 1201.66 678.785C1167.55 693.975 1243.91 839.846 1276.51 865.79Z" fill="#FF8B7B"/>
<path d="M1111.91 1107.41C1080.07 1133.21 930.884 1213.17 930.884 1213.17L951.81 1252.5C951.81 1252.5 1077.97 1217.61 1142.12 1172.29L1111.91 1107.41Z" fill="#407BFF"/>
<path d="M1141.02 1172.48C1149.14 1159.67 1155.8 1145.66 1161.29 1131.34C1167.55 1114.98 1172.23 1098.23 1175.78 1082.53C1176.32 1080.2 1176.82 1077.79 1177.32 1075.35C1177.52 1074.41 1177.7 1073.5 1177.9 1072.53C1185.29 1035.6 1186.18 1006.81 1186.18 1006.81L1190.83 968.124L1200.81 884.562C1158.8 867.02 1124.28 849.577 1124.28 849.577C1124.28 849.577 1099.26 875.99 1097.77 912.941C1095.71 964.041 1104.4 1094.59 1088.4 1123.97L1141.02 1172.48Z" fill="#407BFF"/>
<path d="M935.023 1210.17L874.765 1236.15C874.765 1236.15 874.065 1263.42 884.987 1261.35C899.849 1258.54 948.013 1249.12 948.013 1249.12C948.013 1249.12 955.416 1257.1 935.023 1210.17Z" fill="#FF8B7B"/>
<path d="M869.306 1279.09C868.592 1276 868.158 1272.86 868.013 1269.69C867.977 1269.38 868.162 1269.08 868.457 1268.99C868.734 1268.87 869.05 1268.95 869.246 1269.17C870.28 1270.34 879.265 1280.62 878.163 1284.63C877.96 1285.39 877.363 1286 876.599 1286.21C875.369 1286.66 874.001 1286.49 872.924 1285.74C871.005 1283.99 869.729 1281.65 869.306 1279.09ZM869.58 1271.72C870.159 1278.42 871.673 1283.14 873.624 1284.58C874.342 1285.08 875.263 1285.19 876.077 1284.88C876.375 1284.81 876.61 1284.58 876.688 1284.29C877.385 1282.04 873.12 1276 869.58 1271.72Z" fill="#407BFF"/>
<path d="M868.02 1269.82C867.996 1269.67 868.003 1269.52 868.049 1269.38C868.152 1269.14 868.362 1268.98 868.607 1268.94C869.122 1268.77 881.351 1267.15 883.065 1273.67L883.246 1274.24C883.544 1276.15 882.727 1276.94 882.002 1277.27C878.839 1278.63 870.743 1273.19 868.227 1270.05L868.02 1269.82ZM881.693 1274.07C880.63 1269.84 873.312 1270.05 870.199 1270.2C873.298 1273.28 879.457 1276.8 881.359 1275.97C881.359 1275.97 881.995 1275.77 881.785 1274.47L881.693 1274.07Z" fill="#407BFF"/>
<path opacity="0.2" d="M910.01 1221.14L921.61 1254.42L946.943 1248.71L926.906 1213.86L910.01 1221.14Z" fill="black"/>
<path d="M882.588 1233.86C877.712 1229.22 879.354 1232.3 870.842 1225.63C866.723 1222.4 854.27 1219.42 849.866 1221.94C843.032 1225.84 840.939 1233.89 834.044 1245.73C825.045 1261.18 817.951 1285.88 815.392 1299.13C814.412 1304.21 817.5 1309.62 822.639 1310.86C823.844 1311.15 824.889 1311.35 825.731 1311.49C827.106 1311.72 828.468 1311.17 829.296 1310.09C839.179 1297.3 841.212 1295.99 850.794 1284.33C860.386 1272.66 883.405 1264.9 883.405 1264.9L882.588 1233.86Z" fill="#263238"/>
<path d="M955.324 1257.48C955.452 1257.66 937.693 1261.77 937.693 1261.77L918.125 1210.65L932.419 1203.38L955.324 1257.48Z" fill="#407BFF"/>
<g opacity="0.7">
<path d="M955.324 1257.48C955.452 1257.66 937.693 1261.77 937.693 1261.77L918.125 1210.65L932.419 1203.38L955.324 1257.48Z" fill="white"/>
</g>
<path d="M1451.79 1236.61L1492.55 1302.41C1492.55 1302.41 1521.02 1293.66 1516.79 1282.32C1514.18 1275.32 1504.41 1251.48 1497.37 1232.53C1494.69 1225.32 1489.14 1220.41 1484.37 1220.3C1476.43 1220.11 1467.71 1226.19 1451.79 1236.61Z" fill="#FF8B7B"/>
<path d="M1542.47 1286.12C1539.61 1287.49 1536.63 1288.59 1533.57 1289.43C1533.28 1289.53 1532.95 1289.41 1532.79 1289.15C1532.61 1288.9 1532.62 1288.58 1532.79 1288.33C1533.71 1287.07 1541.79 1276.06 1545.94 1276.27C1546.73 1276.3 1547.45 1276.75 1547.83 1277.45C1548.53 1278.55 1548.66 1279.92 1548.16 1281.13C1546.88 1283.39 1544.87 1285.15 1542.47 1286.12ZM1535.21 1287.45C1541.63 1285.43 1545.9 1282.93 1546.89 1280.7C1547.22 1279.89 1547.13 1278.97 1546.64 1278.25C1546.51 1277.97 1546.23 1277.79 1545.93 1277.78C1543.59 1277.59 1538.61 1283.07 1535.21 1287.45Z" fill="#407BFF"/>
<path d="M1533.63 1290.32C1533.49 1290.38 1533.34 1290.4 1533.19 1290.39C1532.95 1290.34 1532.74 1290.17 1532.64 1289.93C1532.37 1289.47 1528.13 1277.88 1534.11 1274.79L1534.63 1274.49C1536.43 1273.78 1537.37 1274.41 1537.85 1275.05C1539.87 1277.84 1536.33 1286.92 1533.82 1290.06L1533.63 1290.32ZM1534.8 1276.05C1530.91 1278 1532.71 1285.1 1533.53 1288.11C1535.86 1284.41 1537.96 1277.63 1536.73 1275.96C1536.73 1275.96 1536.4 1275.38 1535.17 1275.87L1534.8 1276.05Z" fill="#407BFF"/>
<path d="M1488.25 1300.88C1488.53 1306.29 1493.21 1313.53 1494.49 1322.13C1495.11 1326.29 1498.47 1332.86 1502.43 1333.83C1508.57 1335.33 1514.51 1334.25 1525.07 1331.15C1538.85 1327.11 1573.7 1307.4 1582.52 1301.08C1585.9 1298.66 1587.08 1293.79 1584.77 1290.24C1584.23 1289.4 1583.73 1288.71 1583.31 1288.16C1582.63 1287.27 1581.54 1286.84 1580.46 1287.01C1567.63 1289.01 1565.72 1288.66 1553.69 1290.17C1541.64 1291.68 1518.75 1281.42 1518.75 1281.42L1488.25 1300.88Z" fill="#263238"/>
<path opacity="0.2" d="M1467.25 1261.84L1476.65 1277L1506.63 1256.5L1500.24 1239.28L1467.25 1261.84Z" fill="black"/>
<path d="M1206.17 865.395L1109.13 914.323C1109.13 914.323 1115.71 939.557 1125.02 955.009C1159.08 1011.53 1197.32 984.717 1226.68 1005.58C1291.78 1051.84 1339.65 1075.42 1353.3 1091.24C1364.03 1103.67 1472.21 1269.56 1472.21 1269.56L1504.24 1248.2C1504.24 1248.2 1454.8 1099.98 1415.87 1048.82C1376.94 997.657 1206.17 865.395 1206.17 865.395Z" fill="#407BFF"/>
<path opacity="0.2" d="M1175.78 1082.83C1181.12 1058.75 1184.64 1034.26 1186.28 1009.65C1187.18 996.151 1187.39 981.974 1181.4 969.837C1176.65 960.205 1168.4 952.753 1159.66 946.508C1150.1 939.681 1110.27 915.628 1118.68 936.678C1125.72 954.263 1174.43 1088.92 1175.78 1082.83Z" fill="black"/>
<path d="M1206.17 865.395L1109.13 914.323C1109.13 914.323 1115.71 939.557 1125.02 955.009C1159.08 1011.53 1197.32 984.717 1226.68 1005.58C1291.78 1051.84 1339.65 1075.42 1353.3 1091.24C1364.03 1103.67 1472.21 1269.56 1472.21 1269.56L1504.24 1248.2C1504.24 1248.2 1454.8 1099.98 1415.87 1048.82C1376.94 997.657 1206.17 865.395 1206.17 865.395Z" fill="#407BFF"/>
<path d="M1503.58 1227.85C1503.73 1227.69 1510.72 1243.77 1510.72 1243.77L1465.98 1274.36L1455.78 1261.99L1503.58 1227.85Z" fill="#407BFF"/>
<path opacity="0.7" d="M1503.58 1227.85C1503.73 1227.69 1510.72 1243.77 1510.72 1243.77L1465.98 1274.36L1455.78 1261.99L1503.58 1227.85Z" fill="white"/>
<path d="M1349.94 899.24C1349.18 909.333 1356.75 918.133 1366.84 918.894C1376.94 919.654 1385.74 912.088 1386.5 901.991C1387.26 891.897 1379.69 883.098 1369.59 882.337C1359.5 881.577 1350.7 889.147 1349.94 899.24Z" fill="#407BFF"/>
<path opacity="0.7" d="M1369.6 882.351C1359.51 881.569 1350.7 889.139 1349.95 899.233C1349.17 909.326 1356.74 918.14 1366.83 918.886C1376.92 919.668 1385.74 912.098 1386.48 902.005C1387.27 891.912 1379.7 883.098 1369.6 882.351ZM1368.79 907.762C1365.27 907.762 1362.46 904.919 1362.46 901.401C1362.46 897.918 1365.27 895.075 1368.79 895.075C1372.27 895.075 1375.11 897.918 1375.11 901.401C1375.11 904.919 1372.27 907.762 1368.79 907.762Z" fill="white"/>
<path d="M1263.62 798.015C1257.58 822.669 1255.7 852.441 1255.14 871.619L1260.74 895.256L1253.34 896.198L1252.2 890.896L1249.69 879.334L1247.2 890.068L1245.67 896.756C1245.67 896.756 1226.36 897.797 1203.58 895.662C1167.19 892.282 1086.51 876.704 1086.51 876.704C1086.51 876.704 1098.19 831.672 1107.84 822.78C1113.16 799.423 1120.25 767.526 1128.28 729.875C1137.15 688.357 1150.17 659.544 1160.79 641.295C1170.36 624.84 1187.89 614.697 1206.93 614.448C1218.85 614.291 1233.04 614.785 1246.33 616.978C1278.6 622.277 1311.4 640.577 1315.18 648.904C1322.66 665.27 1273.37 758.047 1263.62 798.015Z" fill="#407BFF"/>
<path d="M1252.2 890.895L1247.2 890.067L1249.69 879.334L1252.2 890.895Z" fill="#407BFF"/>
<path opacity="0.8" d="M1263.55 798.069C1257.52 822.723 1255.64 852.495 1255.08 871.672L1260.68 895.31L1253.27 896.251L1252.14 890.949L1249.63 879.388L1247.14 890.121L1245.6 896.809C1245.6 896.809 1226.29 897.851 1203.52 895.715C1167.13 892.335 1086.44 876.758 1086.44 876.758C1086.44 876.758 1098.12 831.725 1107.77 822.829C1113.09 799.473 1120.18 767.575 1128.22 729.924C1136.45 691.356 1148.28 663.752 1158.42 645.4C1169.03 626.211 1189.35 614.444 1211.27 614.473C1222.2 614.487 1234.58 615.102 1246.26 617.028C1278.54 622.327 1311.34 640.627 1315.12 648.954C1322.59 665.323 1273.31 758.1 1263.55 798.069Z" fill="white"/>
<path d="M1214.74 614.455L1228.78 605.491C1232.09 603.38 1236.03 602.542 1239.92 603.11C1248.97 604.432 1267.09 606.124 1281.87 613.474C1295.32 620.155 1291.27 631.702 1291.27 631.702C1291.27 631.702 1265.62 618.343 1214.74 614.455Z" fill="#407BFF"/>
<path d="M1279.33 733.602L1265.11 733.933L1264.99 728.765C1264.94 726.516 1264.12 724.447 1262.67 722.94C1261.38 721.6 1259.74 720.883 1258.05 720.922L1231.56 721.54C1229.89 721.597 1228.27 722.372 1227.04 723.772C1225.66 725.343 1224.93 727.45 1224.99 729.7L1225.11 734.868L1210.89 735.198L1210.77 730.03C1210.64 724.213 1212.61 718.661 1216.34 714.407C1220.22 709.979 1225.5 707.48 1231.23 707.331L1257.71 706.713C1263.43 706.578 1268.83 708.842 1272.91 713.085C1276.83 717.165 1279.07 722.617 1279.2 728.435L1279.33 733.602Z" fill="#263238"/>
<g opacity="0.2">
<path d="M1279.33 733.602L1265.11 733.933L1264.99 728.765C1264.94 726.516 1264.12 724.447 1262.67 722.94C1261.38 721.6 1259.74 720.883 1258.05 720.922L1231.56 721.54C1229.89 721.597 1228.27 722.372 1227.04 723.772C1225.66 725.343 1224.93 727.45 1224.99 729.7L1225.11 734.868L1210.89 735.198L1210.77 730.03C1210.64 724.213 1212.61 718.661 1216.34 714.407C1220.22 709.979 1225.5 707.48 1231.23 707.331L1257.71 706.713C1263.43 706.578 1268.83 708.842 1272.91 713.085C1276.83 717.165 1279.07 722.617 1279.2 728.435L1279.33 733.602Z" fill="white"/>
</g>
<path d="M1152.56 736.563L1147.42 861.383L1173.98 860.761L1160.88 736.367L1152.56 736.563Z" fill="#263238"/>
<path d="M1342.7 856.823L1331.77 857.076L1316.15 857.445L1155.45 861.181L1152.54 736.552L1321.28 732.629L1328.86 732.448L1329.61 732.419L1342.7 856.823Z" fill="#263238"/>
<path opacity="0.2" d="M1342.7 856.823L1331.77 857.076L1316.15 857.445L1155.45 861.181L1152.54 736.552L1321.28 732.629L1328.86 732.448L1329.61 732.419L1342.7 856.823Z" fill="white"/>
<path opacity="0.2" d="M1152.56 736.563L1147.42 861.383L1173.98 860.761L1160.88 736.367L1152.56 736.563Z" fill="white"/>
<path d="M1160.42 736.412L1156.87 736.471L1158.94 861.126L1162.49 861.067L1160.42 736.412Z" fill="#263238"/>
<path d="M1269.17 650.641C1262.01 664.495 1240.56 722.201 1220.99 775.138C1217.51 784.524 1222.93 794.848 1232.63 797.318L1254.35 800.919C1277.35 749.869 1295.69 706.816 1316 663.262C1299.33 653.872 1280.38 628.958 1269.17 650.641Z" fill="#FF8B7B"/>
<path d="M1253.72 799.756C1262.53 852.011 1265.88 899.507 1272.86 944.447L1249.83 945.41C1248.94 928.468 1236.54 898.753 1229.84 869.141C1227.42 858.444 1222.11 848.173 1218.25 832.059C1215.38 820.075 1223.94 803.84 1235.55 799.717L1253.72 799.756Z" fill="#FF8B7B"/>
<path d="M1264.82 939.948C1242.83 938.199 1241.06 968.55 1241.06 968.55L1267.97 984.974L1272.76 944.533L1264.82 939.948Z" fill="#FF8B7B"/>
<path d="M1267.98 984.974L1241.06 968.551L1227.82 989.534L1244.35 1004.09L1267.98 984.974Z" fill="#FF8B7B"/>
<path d="M1260.68 786.77L1227.75 756.049C1227.75 756.049 1202.41 809.253 1223.31 840.606C1241.18 867.403 1251.86 816.386 1251.86 816.386L1256.04 800.069L1260.68 786.77Z" fill="#FF8B7B"/>
<path opacity="0.5" d="M1256.08 676.376C1255.95 673.558 1255.62 670.462 1253.58 668.515C1251.81 666.827 1248.37 667.004 1247.21 668.902L1248.13 666.404C1239.42 682.489 1230.72 698.571 1222.01 714.656C1220.13 718.143 1218.22 722.393 1220.11 725.88C1221.28 728.044 1219.81 733.222 1221.55 734.96C1226.77 740.16 1209.32 751.614 1213.08 798.175C1241.47 755.307 1257.67 709.954 1256.08 676.376Z" fill="#263238"/>
<path d="M1287.87 638.64C1276.75 640.381 1266.92 646.8 1258.24 653.968C1254.63 656.95 1251.08 660.17 1248.79 664.253C1245.81 669.552 1245.19 675.814 1244.63 681.867C1243.66 692.451 1236.58 719.379 1235.61 729.963C1251.24 739.346 1268.58 745.874 1286.51 749.137C1288.75 749.546 1291.24 749.851 1293.13 748.586C1296.58 746.276 1310.74 699.274 1316.1 688.588C1327.54 665.821 1317.64 633.977 1287.87 638.64Z" fill="#407BFF"/>
<path opacity="0.8" d="M1287.87 638.64C1276.75 640.381 1266.92 646.8 1258.24 653.968C1254.63 656.95 1251.08 660.17 1248.79 664.253C1245.81 669.552 1245.19 675.814 1244.63 681.867C1243.66 692.451 1236.58 719.379 1235.61 729.963C1251.24 739.346 1268.58 745.874 1286.51 749.137C1288.75 749.546 1291.24 749.851 1293.13 748.586C1296.58 746.276 1310.74 699.274 1316.1 688.588C1327.54 665.821 1317.64 633.977 1287.87 638.64Z" fill="white"/>
</svg>
