<svg width="90" height="140" viewBox="0 0 90 140" fill="none" xmlns="http://www.w3.org/2000/svg">
<path d="M2.07715 0.0625H24.2305C24.7517 0.0625 25.1363 0.0634175 25.4229 0.104492C25.7075 0.145332 25.8828 0.224657 25.998 0.373047C26.116 0.525171 26.1806 0.760784 26.2129 1.13574C26.2451 1.50918 26.2451 2.00863 26.2451 2.67969V11.5186C26.2451 11.8661 26.3596 12.289 26.5742 12.7725C26.7892 13.2567 27.1061 13.8067 27.5156 14.4111C28.3349 15.6203 29.5274 17.052 31.0215 18.6172C34.0101 21.748 38.2107 25.4187 43.0596 28.9209C52.7542 35.9231 65.0567 42.2637 75.4619 42.2637H89.9375V98.4688C89.9375 114.531 84.923 124.893 76.8076 131.242C68.6891 137.593 57.4556 139.938 45 139.938H0.0625V119.298H24.2305C45.4311 119.298 58.2624 111.634 64.793 101.074C71.3215 90.518 71.545 77.0811 67.5596 65.5488C63.574 54.0163 57.2036 46.3755 48.0322 40.335C38.8639 34.2966 26.896 29.8571 11.7197 24.7246L11.71 24.7217H3.46191C2.5959 24.7217 1.94906 24.7216 1.46484 24.6904C0.978657 24.6591 0.666415 24.5971 0.463867 24.4795C0.267981 24.3657 0.168003 24.1954 0.116211 23.9248C0.0635649 23.6496 0.0625001 23.2801 0.0625 22.7754V4.01953C0.0625 3.01395 0.0633809 2.26217 0.0957031 1.69922C0.128137 1.13434 0.19232 0.769493 0.31543 0.53125C0.434797 0.300258 0.611769 0.183772 0.889648 0.124023C1.17357 0.0630279 1.55518 0.0625 2.07715 0.0625ZM83.0771 0.0625C86.8676 0.062632 89.9363 3.03568 89.9365 6.69824V24.1152C89.9363 25.5581 88.7269 26.7314 87.2305 26.7314H65.0771C63.5807 26.7314 62.3713 25.5581 62.3711 24.1152V0.0625H83.0771Z" fill="#2842F7" stroke="#060606" stroke-width="0.125941"/>
</svg>
