<svg width="2070" height="2070" viewBox="0 0 2070 2070" fill="none" xmlns="http://www.w3.org/2000/svg">
<g clip-path="url(#clip0_356_7831)">
<path d="M0 0H2070V2070H0V0Z" fill="white"/>
<path d="M993.683 860.553H1730.31C1763.77 860.553 1790.9 833.427 1790.9 799.968V319.306C1790.9 285.846 1763.77 258.717 1730.31 258.717H993.683C960.224 258.717 933.099 285.842 933.099 319.306V799.964C933.099 833.427 960.224 860.553 993.683 860.553Z" fill="#F5F5F5"/>
<path d="M933.099 341.115V302.849C933.099 278.477 952.855 258.721 977.227 258.721H1746.77C1771.15 258.721 1790.9 278.477 1790.9 302.849V341.115H933.099Z" fill="#D6D6D6"/>
<path d="M1738.55 303.42C1738.55 309.804 1743.73 314.979 1750.11 314.979C1756.5 314.979 1761.67 309.804 1761.67 303.42C1761.67 297.036 1756.5 291.861 1750.11 291.861C1743.73 291.857 1738.55 297.036 1738.55 303.42Z" fill="#F5F5F5"/>
<path d="M1696.38 303.42C1696.38 309.804 1701.55 314.979 1707.94 314.979C1714.32 314.979 1719.5 309.804 1719.5 303.42C1719.5 297.036 1714.32 291.861 1707.94 291.861C1701.55 291.857 1696.38 297.036 1696.38 303.42Z" fill="#F5F5F5"/>
<path d="M1652.13 303.42C1652.13 309.804 1657.3 314.979 1663.69 314.979C1670.07 314.979 1675.25 309.804 1675.25 303.42C1675.25 297.036 1670.07 291.861 1663.69 291.861C1657.3 291.857 1652.13 297.036 1652.13 303.42Z" fill="#F5F5F5"/>
<path d="M1103.88 314.979H1567.05C1573.43 314.979 1578.61 309.804 1578.61 303.42C1578.61 297.036 1573.43 291.861 1567.05 291.861H1103.88C1097.5 291.861 1092.32 297.036 1092.32 303.42C1092.32 309.804 1097.5 314.979 1103.88 314.979Z" fill="#F5F5F5"/>
<path d="M1738.55 260.319H970.866C950.008 260.319 933.101 277.226 933.101 298.084V816.428" stroke="#262626" stroke-width="1.71686" stroke-miterlimit="10" stroke-linecap="round" stroke-linejoin="round"/>
<path d="M1598.49 498.008C1603.34 499.859 1605.78 505.291 1603.93 510.138L1515.03 743.134C1513.18 747.982 1507.75 750.416 1502.9 748.565L1333.21 683.824C1328.36 681.973 1325.93 676.542 1327.78 671.694L1402.03 477.081L1468.97 448.589L1598.49 498.008Z" fill="#F5F5F5"/>
<path d="M1445.23 493.558L1402.03 477.077L1468.97 448.585L1453.16 490.006C1451.95 493.177 1448.4 494.767 1445.23 493.558Z" fill="#D6D6D6"/>
<path d="M1468.96 448.585L1453.16 490.006C1451.95 493.177 1448.4 494.767 1445.23 493.558L1402.03 477.077" stroke="#262626" stroke-width="1.13436" stroke-miterlimit="10" stroke-linecap="round" stroke-linejoin="round"/>
<path d="M1471.49 619.832C1473.75 613.895 1475.12 608.944 1475.6 604.978C1476.08 601.012 1475.58 597.017 1474.12 593.001C1473.3 590.612 1472.18 588.401 1470.77 586.364C1469.36 584.328 1468.13 582.274 1467.08 580.2C1466.02 578.13 1465.29 575.973 1464.87 573.742C1464.46 571.51 1464.81 568.935 1465.92 566.016C1467.8 561.09 1470.47 558.159 1473.94 557.231C1477.41 556.308 1481 556.552 1484.72 557.972C1490.05 560.009 1493.16 562.895 1494.04 566.629C1494.92 570.368 1494.65 574.847 1493.24 580.068L1512.7 587.495C1514.58 582.564 1515.49 577.782 1515.41 573.141C1515.34 568.505 1514.36 564.207 1512.46 560.258C1510.57 556.308 1507.83 552.781 1504.22 549.68C1500.63 546.579 1496.31 544.066 1491.28 542.149C1480.41 538.005 1470.99 536.945 1463.01 538.97C1455.04 540.998 1449.15 546.993 1445.35 556.954C1444.12 560.175 1443.37 563.114 1443.11 565.78C1442.84 568.447 1442.99 571.009 1443.54 573.468C1444.1 575.932 1445.01 578.383 1446.27 580.821C1447.53 583.264 1449.03 585.847 1450.75 588.579C1452.31 591.138 1453.49 593.402 1454.29 595.377C1455.09 597.356 1455.54 599.285 1455.63 601.161C1455.72 603.04 1455.53 604.899 1455.06 606.733C1454.59 608.571 1453.93 610.6 1453.08 612.811L1471.49 619.832ZM1460.98 649.189L1468.52 629.42L1448.15 621.646L1440.6 641.414L1460.98 649.189Z" fill="#D6D6D6"/>
<path d="M1598.49 498.008C1603.34 499.859 1605.78 505.291 1603.93 510.138L1515.03 743.134C1513.18 747.981 1507.75 750.416 1502.9 748.565L1333.21 683.824C1328.36 681.973 1325.93 676.542 1327.78 671.694L1402.03 477.081L1468.97 448.589L1598.49 498.008Z" stroke="#262626" stroke-width="1.13436" stroke-miterlimit="10" stroke-linecap="round" stroke-linejoin="round"/>
<path d="M1318.04 434.563C1322.83 432.555 1328.34 434.812 1330.34 439.602L1426.69 669.612C1428.7 674.398 1426.44 679.908 1421.65 681.912L1254.14 752.081C1249.35 754.084 1243.84 751.832 1241.84 747.042L1161.36 554.921L1190.17 488.127L1318.04 434.563Z" fill="#F5F5F5"/>
<path d="M1204 537.061L1161.36 554.921L1190.16 488.126L1207.29 529.017C1208.61 532.147 1207.13 535.749 1204 537.061Z" fill="#D6D6D6"/>
<path d="M1190.17 488.126L1207.29 529.017C1208.61 532.147 1207.13 535.749 1204 537.061L1161.36 554.921" stroke="#262626" stroke-width="1.13436" stroke-miterlimit="10" stroke-linecap="round" stroke-linejoin="round"/>
<path d="M1310.11 610.373C1307.66 604.514 1305.23 599.981 1302.84 596.781C1300.45 593.581 1297.34 591.03 1293.51 589.134C1291.27 587.971 1288.94 587.139 1286.51 586.638C1284.08 586.137 1281.77 585.499 1279.58 584.725C1277.39 583.951 1275.37 582.9 1273.53 581.566C1271.69 580.238 1270.16 578.134 1268.96 575.253C1266.92 570.388 1266.83 566.422 1268.7 563.363C1270.57 560.303 1273.35 558.002 1277.02 556.461C1282.29 554.255 1286.53 554.205 1289.74 556.3C1292.96 558.399 1295.85 561.827 1298.42 566.584L1317.64 558.531C1315.61 553.667 1312.96 549.577 1309.71 546.269C1306.46 542.961 1302.78 540.531 1298.68 538.978C1294.59 537.426 1290.16 536.768 1285.42 537.003C1280.68 537.239 1275.82 538.399 1270.85 540.481C1260.12 544.973 1252.57 550.707 1248.2 557.679C1243.82 564.65 1243.69 573.05 1247.81 582.883C1249.14 586.062 1250.63 588.708 1252.27 590.819C1253.91 592.931 1255.79 594.686 1257.89 596.081C1259.99 597.476 1262.34 598.623 1264.94 599.522C1267.53 600.42 1270.39 601.265 1273.53 602.051C1276.42 602.825 1278.84 603.649 1280.78 604.527C1282.73 605.405 1284.38 606.493 1285.74 607.793C1287.1 609.093 1288.24 610.571 1289.17 612.223C1290.1 613.879 1291.02 615.8 1291.93 617.982L1310.11 610.373ZM1322.75 638.876L1314.58 619.361L1294.47 627.785L1302.64 647.301L1322.75 638.876Z" fill="#D6D6D6"/>
<path d="M1318.04 434.563C1322.83 432.555 1328.34 434.812 1330.34 439.602L1426.69 669.612C1428.7 674.398 1426.44 679.908 1421.65 681.912L1254.14 752.081C1249.35 754.084 1243.84 751.832 1241.84 747.042L1161.36 554.921L1190.17 488.127L1318.04 434.563Z" stroke="#262626" stroke-width="1.13436" stroke-miterlimit="10" stroke-linecap="round" stroke-linejoin="round"/>
<path d="M1232.1 1107.35H1699.6V1637.41H1232.1V1107.35Z" fill="#F5F5F5"/>
<path d="M1223 1107.35H1708.71C1721.26 1107.35 1731.43 1097.17 1731.43 1084.63C1731.43 1072.09 1721.25 1061.91 1708.71 1061.91H1223C1210.45 1061.91 1200.28 1072.09 1200.28 1084.63C1200.28 1097.17 1210.45 1107.35 1223 1107.35Z" fill="#D6D6D6"/>
<path opacity="0.5" d="M1270.38 1157.83H1661.33V1294.13H1270.38V1157.83Z" fill="#D6D6D6"/>
<path opacity="0.5" d="M1270.38 1480.01H1661.33V1616.31H1270.38V1480.01Z" fill="#D6D6D6"/>
<path opacity="0.5" d="M1270.38 1318.92H1661.33V1455.22H1270.38V1318.92Z" fill="#D6D6D6"/>
<path d="M1440.41 1213.99H1491.3V1237.97H1440.41V1213.99Z" fill="#D6D6D6"/>
<path d="M1440.41 1375.08H1491.3V1399.06H1440.41V1375.08Z" fill="#D6D6D6"/>
<path d="M1440.41 1536.17H1491.3V1560.15H1440.41V1536.17Z" fill="#D6D6D6"/>
<path d="M144.556 1637.79H1902.66" stroke="#262626" stroke-width="3.03462" stroke-miterlimit="10" stroke-linecap="round" stroke-linejoin="round"/>
<path d="M1035 1968.43C526.445 1968.43 114.181 1901.62 114.181 1819.2C114.181 1736.78 526.445 1669.97 1035 1669.97C1543.55 1669.97 1955.82 1736.78 1955.82 1819.2C1955.82 1901.62 1543.55 1968.43 1035 1968.43Z" fill="#F5F5F5"/>
<path d="M334.042 1798.57L351.186 1800.79L443.438 1223.09L391.998 1216.43L334.042 1798.57Z" fill="#D6D6D6"/>
<path d="M891.41 1779.27L874.266 1781.49L782.015 1203.78L833.454 1197.12L891.41 1779.27Z" fill="#D6D6D6"/>
<path d="M567.026 1793.38L584.169 1795.6L676.421 1217.89L624.981 1211.23L567.026 1793.38Z" fill="#D6D6D6"/>
<path d="M382.234 1338.77H817.488L801.872 1202.6H325.325L336.615 1297.47C339.004 1320.28 359.426 1338.77 382.234 1338.77Z" fill="#F5F5F5"/>
<path d="M358.668 1297.09H626.828C638.623 1297.09 647.019 1287.52 645.578 1275.73L583.279 765.954C581.838 754.159 571.108 744.596 559.309 744.596H291.148C279.353 744.596 270.957 754.159 272.398 765.954L334.697 1275.73C336.142 1287.52 346.873 1297.09 358.668 1297.09Z" fill="#F5F5F5"/>
<path d="M401.544 1297.09H669.704C681.499 1297.09 689.895 1287.52 688.454 1275.73L626.155 765.954C624.714 754.159 613.983 744.596 602.184 744.596H334.024C322.229 744.596 313.833 754.159 315.274 765.954L377.573 1275.73C379.018 1287.52 389.749 1297.09 401.544 1297.09Z" fill="#D6D6D6"/>
<path d="M765.865 1672.22L794.795 1602.64L666.658 1549.36L587.092 1740.7L874.486 1865.65L888.956 1830.86L765.865 1672.22Z" fill="#F7A99C"/>
<path d="M884.73 1869.91L891.59 1853.42C898.603 1836.55 895.8 1817.2 884.291 1803.02L789.655 1686.43C748.917 1681.2 721.233 1668.05 703.274 1656.74C673.457 1637.95 648.857 1610.63 633.473 1618.53C629.072 1620.79 626.816 1625.22 625.624 1628.41L583.549 1729.59C580.597 1736.69 583.959 1744.83 591.055 1747.78L884.73 1869.91Z" fill="#FFC001"/>
<path d="M889.311 1858.89L582.785 1731.42" stroke="#3897E9" stroke-width="3.03462" stroke-miterlimit="10" stroke-linecap="round" stroke-linejoin="round"/>
<path d="M850.021 1762.89L823.414 1778.44" stroke="#3897E9" stroke-width="3.03462" stroke-miterlimit="10" stroke-linecap="round" stroke-linejoin="round"/>
<path d="M840.395 1750.56L813.787 1766.11" stroke="#3897E9" stroke-width="3.03462" stroke-miterlimit="10" stroke-linecap="round" stroke-linejoin="round"/>
<path d="M829.989 1738.51L803.381 1754.06" stroke="#3897E9" stroke-width="3.03462" stroke-miterlimit="10" stroke-linecap="round" stroke-linejoin="round"/>
<path d="M815.636 1718.43C791.546 1717.71 752.994 1713.62 709.768 1695.36C668.066 1677.76 638.97 1654.13 621.723 1637.79" stroke="#3897E9" stroke-width="3.03462" stroke-miterlimit="10" stroke-linecap="round" stroke-linejoin="round"/>
<path d="M1185.7 1728.57L1144.69 1648.72L1039.53 1647.45L1048.62 1862.2L1362 1863.22L1361.52 1825.55L1185.7 1728.57Z" fill="#F7A99C"/>
<path d="M1373.09 1863.08L1372.86 1845.22C1372.63 1826.96 1362.4 1810.29 1346.22 1801.83L1213.16 1732.2C1173.69 1743.53 1143.06 1742.41 1122.09 1739.12C1087.27 1733.67 1053.87 1718.31 1042.87 1731.66C1039.72 1735.48 1039.4 1740.43 1039.57 1743.84L1040.96 1853.41C1041.06 1861.1 1047.37 1867.25 1055.06 1867.15L1373.09 1863.08Z" fill="#FFC001"/>
<path d="M1372.94 1851.15L1040.99 1855.39" stroke="#3897E9" stroke-width="3.03462" stroke-miterlimit="10" stroke-linecap="round" stroke-linejoin="round"/>
<path d="M1298.86 1778.54L1280.58 1803.35" stroke="#3897E9" stroke-width="3.03462" stroke-miterlimit="10" stroke-linecap="round" stroke-linejoin="round"/>
<path d="M1285.14 1771.02L1266.86 1795.83" stroke="#3897E9" stroke-width="3.03462" stroke-miterlimit="10" stroke-linecap="round" stroke-linejoin="round"/>
<path d="M1270.81 1764.07L1252.53 1788.89" stroke="#3897E9" stroke-width="3.03462" stroke-miterlimit="10" stroke-linecap="round" stroke-linejoin="round"/>
<path d="M1249.69 1751.32C1227.28 1760.19 1190.26 1771.68 1143.34 1772.03C1098.07 1772.36 1062 1762.18 1039.7 1754" stroke="#3897E9" stroke-width="3.03462" stroke-miterlimit="10" stroke-linecap="round" stroke-linejoin="round"/>
<path d="M674.263 1061.33C674.263 1061.33 967.594 1146.9 982.784 1171.58C997.974 1196.26 992.277 1250.37 982.784 1285.5C973.291 1320.62 833.21 1669.96 833.21 1669.96L632.49 1594.97L770.137 1235.19L511.929 1104.18L674.263 1061.33Z" fill="#FF7129"/>
<path d="M874.215 1573.51C874.215 1573.51 793.402 1464.44 781.061 1454.95C768.719 1445.46 705.117 1404.16 705.117 1404.16L688.619 1448.28L860.102 1602.66L874.215 1573.51Z" fill="#E05C22"/>
<path d="M427.448 1137.14C427.448 1137.14 412.258 1193.04 419.855 1211.74C427.448 1230.44 769.196 1444.98 776.793 1458.27C784.386 1471.56 995.133 1712.48 995.133 1712.48L1217.27 1668.66C1217.27 1668.66 998.929 1380.42 945.767 1336.76C892.606 1293.09 651.484 1083.19 651.484 1083.19L427.448 1137.14Z" fill="#FF7129"/>
<path d="M488.309 736.158L375.188 673.359C369.884 670.415 369.102 663.104 373.664 659.104L434.468 605.79L454.456 535.939C433.669 534.449 367.16 532.346 309.051 577.787C293.63 589.846 238.969 632.588 245.167 681.353C249.149 712.701 282.886 738.497 350.364 790.098C369.897 805.035 386.771 816.768 398.881 824.903L488.309 736.158Z" fill="#3897E9"/>
<path d="M451.254 547.134C451.254 547.134 485.144 534.32 490.874 533.281C496.603 532.242 554.816 549.812 554.816 549.812L552.39 562.555C552.39 562.555 508.866 564.509 506.825 565.722C504.784 566.935 478.814 593.796 473.357 596.073C467.901 598.35 435.903 600.771 435.903 600.771L451.254 547.134Z" fill="#F7A99C"/>
<path d="M560.428 730.201L664.847 653.805C669.745 650.224 669.608 642.871 664.586 639.468L597.613 594.139L569.081 527.32C589.52 523.254 655.25 512.884 718.563 550.736C735.368 560.783 794.922 596.383 794.847 645.542C794.797 677.138 764.534 706.942 704.007 766.541C686.487 783.797 671.202 797.538 660.202 807.118L560.428 730.201Z" fill="#3897E9"/>
<path d="M573.656 538.038C573.656 538.038 538.433 529.543 532.621 529.228C526.808 528.914 471.237 553.592 471.237 553.592L475.228 565.933C475.228 565.933 518.656 562.452 520.834 563.404C523.012 564.352 552.124 587.768 557.821 589.353C563.518 590.935 595.569 589.353 595.569 589.353L573.656 538.038Z" fill="#F7A99C"/>
<path d="M560.425 730.201L485.429 735.856C445.255 754.167 423.342 776.974 411.625 791.866C398.427 808.637 365.547 856.827 373.02 1086.78C374.109 1120.25 375.719 1147.38 376.82 1163.99L755.274 1061.34C750.894 1046.27 708.434 901.593 664.141 814.653C652.491 791.779 636.423 764.488 605.282 746.301C587.733 736.051 571.073 732.01 560.425 730.201Z" fill="#3897E9"/>
<path d="M526.371 767.622C505.708 769.564 487.389 754.387 485.447 733.724L477.883 653.218L552.706 646.188L560.269 726.694C562.207 747.357 547.034 765.681 526.371 767.622Z" fill="#F7A99C"/>
<path d="M558.148 704.16L507.148 683.51C508.021 687.687 512.575 707.207 531.189 719.296C543.075 727.013 554.923 727.952 560.363 728.031L558.148 704.16Z" fill="#FF7769"/>
<path d="M473.817 628.431C473.474 627.235 470.1 625.687 469.056 625.144C467.297 624.229 465.421 623.542 463.484 623.107C459.725 622.263 455.688 622.35 452.016 623.546C444.709 625.931 438.656 632.795 438.106 640.586C437.787 645.111 439.232 649.632 441.513 653.557C444.941 659.452 450.281 664.188 456.475 667.049C461.608 669.421 467.301 670.51 472.944 670.341C474.074 670.307 485.55 669.003 485.426 668.573C481.559 655.188 477.688 641.812 473.817 628.431Z" fill="#F7A99C"/>
<path d="M463.627 630.137C465.055 636.065 473.19 667.285 503.777 687.103C509.411 690.755 546.866 715.024 577.672 698.757C617.254 677.855 606.681 610.7 606.06 607.065C603.965 594.781 597.796 558.614 565.873 541.893C539.82 528.247 513.663 536.486 509.962 537.716C506.058 539.011 481.234 547.71 467.937 574.015C455.865 597.886 461.292 620.433 463.627 630.137Z" fill="#F7A99C"/>
<path d="M582.72 609.213C583.859 614.43 588.272 617.895 592.573 616.955C596.879 616.015 599.446 611.026 598.307 605.814C597.169 600.602 592.755 597.133 588.454 598.072C584.148 599.012 581.582 603.997 582.72 609.213Z" fill="#262626"/>
<path d="M535.733 619.464C536.871 624.68 541.284 628.145 545.586 627.206C549.892 626.266 552.458 621.277 551.32 616.061C550.181 610.844 545.768 607.379 541.467 608.319C537.161 609.263 534.594 614.252 535.733 619.464Z" fill="#262626"/>
<path d="M569.084 618.4L577.257 627.587C578.759 629.276 578.486 631.888 576.673 633.234L570.351 637.912" stroke="#262626" stroke-width="3.03462" stroke-miterlimit="10" stroke-linecap="round" stroke-linejoin="round"/>
<path d="M522.024 645.745C523.299 651.595 529.078 655.304 534.928 654.029C540.778 652.754 544.488 646.974 543.212 641.12C541.937 635.271 536.158 631.561 530.308 632.836C524.458 634.111 520.749 639.895 522.024 645.745Z" fill="#FF7769"/>
<path d="M471.236 655.95C471.165 654.761 470.54 646.717 463.568 641.497C458.108 637.411 452.204 637.643 450.598 637.758" stroke="#262626" stroke-width="3.03462" stroke-miterlimit="10" stroke-linecap="round" stroke-linejoin="round"/>
<path d="M464.339 643.025C463.975 643 459.599 642.793 456.874 646.328C454.635 649.239 455.16 652.542 455.256 653.089" stroke="#262626" stroke-width="3.03462" stroke-miterlimit="10" stroke-linecap="round" stroke-linejoin="round"/>
<path d="M462.019 622.842C462.019 622.842 467.384 622.834 471.748 626.452C476.111 630.066 478.148 636.757 478.148 636.757C484.416 636.55 493.503 635.229 501.005 629.089C512.676 619.538 508.312 608.307 517.946 600.739C526.996 593.626 534.605 600.594 567.945 598.838C594.147 597.46 601.582 592.521 602 589.06C602.137 587.93 601.624 585.868 600.464 581.782C600.022 580.217 599.496 577.886 598.519 575.704C596.606 571.423 594.259 567.341 591.547 563.52C586.115 555.874 579.214 549.27 571.331 544.19C566.21 540.891 560.671 538.233 554.866 536.362C536.443 530.417 511.806 532.627 491.624 545.846C491.624 545.846 469.086 560.606 460.88 586.257C458.061 595.075 457.924 603.645 457.961 606.609C458.036 612.48 459.038 616.235 460.189 619.079C460.835 620.693 461.518 621.973 462.019 622.842Z" fill="#262626"/>
<path d="M601.698 621.348C603.722 620.905 605.726 621.095 607.548 621.728C607.862 627.545 607.937 634.629 607.337 642.205C606.997 642.317 606.674 642.457 606.318 642.536C600.468 643.811 594.689 640.106 593.414 634.252C592.139 628.402 595.848 622.623 601.698 621.348Z" fill="#FF7769"/>
<path d="M563.987 583.516C570.549 596.06 588.479 599.633 604.037 591.494C619.595 583.359 626.894 566.592 620.332 554.048C613.77 541.503 595.84 537.931 580.282 546.07C564.72 554.205 557.425 570.972 563.987 583.516Z" fill="#262626"/>
<path d="M578.229 657.697C576.614 656.177 572.892 653.085 567.154 651.685C561.565 650.319 556.954 651.263 554.813 651.843" stroke="#262626" stroke-width="3.03462" stroke-miterlimit="10" stroke-linecap="round" stroke-linejoin="round"/>
<path d="M959.517 1349.66L651.48 1083.19" stroke="#262626" stroke-width="3.03462" stroke-miterlimit="10" stroke-linecap="round" stroke-linejoin="round"/>
<path d="M872.497 1571.52C872.497 1571.52 787.171 1466.98 776.788 1458.27C766.409 1449.57 704.375 1407.09 704.375 1407.09" stroke="#262626" stroke-width="3.03462" stroke-miterlimit="10" stroke-linecap="round" stroke-linejoin="round"/>
<path d="M419.856 1173.2C419.856 1173.2 770.341 1405.11 788.436 1417.77C806.532 1430.43 1026.25 1706.35 1026.25 1706.35" stroke="white" stroke-width="3.03462" stroke-miterlimit="10" stroke-linecap="round" stroke-linejoin="round"/>
<path d="M658.587 1604.72L736.05 1428.35" stroke="white" stroke-width="3.03462" stroke-miterlimit="10" stroke-linecap="round" stroke-linejoin="round"/>
<path d="M430.939 704.313L352.135 661.493" stroke="#262626" stroke-width="3.03462" stroke-miterlimit="10" stroke-linecap="round" stroke-linejoin="round"/>
<path d="M625.079 682.901L688.189 636.753" stroke="#262626" stroke-width="3.03462" stroke-miterlimit="10" stroke-linecap="round" stroke-linejoin="round"/>
<path d="M656.632 796.296L693.636 880.694" stroke="#262626" stroke-width="3.03462" stroke-miterlimit="10" stroke-linecap="round" stroke-linejoin="round"/>
<path d="M401.725 807.126C401.725 807.126 394.108 820.664 389.665 838.49C385.227 856.317 375.751 922.748 375.751 922.748" stroke="#262626" stroke-width="3.03462" stroke-miterlimit="10" stroke-linecap="round" stroke-linejoin="round"/>
<path d="M374.37 940.91L376.817 1163.99L677.638 1082.39C646.695 1085.71 547.795 1092.29 456.876 1028.24C415.928 999.396 389.953 965.63 374.37 940.91Z" fill="#1775AF"/>
<path d="M721.269 571.158C734.207 581.823 748.411 591.535 760.479 603.177C773.301 615.547 782.843 633.329 776.625 651.28C774.166 658.388 770.394 664.039 761.7 674.998C753.549 685.273 745.604 692.829 739.762 697.88" stroke="white" stroke-width="3.03462" stroke-miterlimit="10" stroke-linecap="round" stroke-linejoin="round"/>
<path d="M528.706 790.048C524.497 790.048 521.084 786.636 521.084 782.426C521.084 778.217 524.497 774.805 528.706 774.805C532.915 774.805 536.328 778.217 536.328 782.426C536.328 786.636 532.915 790.048 528.706 790.048Z" fill="white"/>
<path d="M530.594 820.188C526.385 820.188 522.972 816.775 522.972 812.566C522.972 808.356 526.385 804.944 530.594 804.944C534.803 804.944 538.216 808.356 538.216 812.566C538.216 816.775 534.803 820.188 530.594 820.188Z" fill="white"/>
<path d="M533.756 853.867C529.546 853.867 526.134 850.454 526.134 846.245C526.134 842.035 529.546 838.623 533.756 838.623C537.965 838.623 541.377 842.035 541.377 846.245C541.377 850.454 537.965 853.867 533.756 853.867Z" fill="white"/>
<path d="M383.517 1216.43H1711.74C1739.07 1216.43 1761.22 1194.28 1761.22 1166.95C1761.22 1139.63 1739.07 1117.47 1711.74 1117.47H383.521C356.197 1117.47 334.048 1139.62 334.048 1166.95C334.044 1194.27 356.193 1216.43 383.517 1216.43Z" fill="#FFC001"/>
<path d="M361.49 1861.29L381.717 1863.91L490.55 1182.35L429.866 1174.49L361.49 1861.29Z" fill="#FFC001"/>
<path d="M1717.99 1861.29L1697.76 1863.91L1588.93 1182.35L1649.61 1174.49L1717.99 1861.29Z" fill="#FFC001"/>
<path d="M317.293 782.427L357.479 1111.28" stroke="#262626" stroke-width="3.03462" stroke-miterlimit="10" stroke-linecap="round" stroke-linejoin="round"/>
<path d="M275.348 790.048L337.39 1302.15" stroke="#262626" stroke-width="3.03462" stroke-miterlimit="10" stroke-linecap="round" stroke-linejoin="round"/>
<path d="M1060.95 1140.57H438.064" stroke="white" stroke-width="3.03462" stroke-miterlimit="10" stroke-linecap="round" stroke-linejoin="round"/>
<path d="M1086.26 1140.57H1157.14" stroke="white" stroke-width="3.03462" stroke-miterlimit="10" stroke-linecap="round" stroke-linejoin="round"/>
<path d="M1653.79 1216.43L1694.84 1628.79" stroke="#262626" stroke-width="3.03462" stroke-miterlimit="10" stroke-linecap="round" stroke-linejoin="round"/>
<path d="M485.108 1216.43L421.124 1617.13" stroke="#262626" stroke-width="3.03462" stroke-miterlimit="10" stroke-linecap="round" stroke-linejoin="round"/>
<path d="M734.818 1038.05H1095.6C1108.46 1038.05 1120.7 1027.63 1122.94 1014.78L1164.48 776.817C1166.73 763.962 1158.13 753.542 1145.27 753.542H784.49C771.635 753.542 759.397 763.962 757.153 776.817L715.609 1014.78C713.365 1027.63 721.963 1038.05 734.818 1038.05Z" fill="#3849C6"/>
<path d="M757.803 1038.05H1118.59C1131.44 1038.05 1143.68 1027.63 1145.92 1014.78L1187.47 776.817C1189.71 763.962 1181.11 753.542 1168.26 753.542H807.474C794.62 753.542 782.382 763.962 780.138 776.817L738.593 1014.78C736.345 1027.63 744.948 1038.05 757.803 1038.05Z" fill="#4450E4"/>
<path d="M931.821 1117.48H1051.46L1004.88 912.203C1003.52 906.208 997.556 901.352 991.561 901.352H893.625C887.631 901.352 883.876 906.212 885.238 912.203L931.821 1117.48Z" fill="#3849C6"/>
<path d="M946.521 1117.48H1066.16L1019.58 912.203C1018.21 906.208 1012.26 901.352 1006.26 901.352H908.326C902.331 901.352 898.576 906.212 899.938 912.203L946.521 1117.48Z" fill="#4450E4"/>
<path d="M1066.16 1117.48L1019.58 912.203C1018.21 906.208 1012.26 901.352 1006.26 901.352H908.326" stroke="#262626" stroke-width="3.03462" stroke-miterlimit="10" stroke-linecap="round" stroke-linejoin="round"/>
<path d="M578.535 1117.48H918.765V1106C918.765 1102.03 915.544 1098.81 911.573 1098.81H585.727C581.756 1098.81 578.535 1102.03 578.535 1106V1117.48Z" fill="#4450E4"/>
<path d="M485.845 492.933L496.994 487.087L453.913 387.495L425.538 402.37L485.845 492.933Z" fill="#FDB6D6"/>
<path d="M465.351 507.005L471.483 496.013L380.929 436.223L365.321 464.201L465.351 507.005Z" fill="#FDB6D6"/>
<path d="M511.974 477.466L524.191 480.505L558.18 377.452L527.089 369.714L511.974 477.466Z" fill="#FDB6D6"/>
<path d="M1316.76 1064.56C1314.94 1051.98 1310.8 1033.44 1300.42 1013.28C1294.68 1002.14 1285.27 983.85 1267.8 970.259C1234.17 944.115 1190.97 951.086 1180.06 953.173C1192.29 955.81 1217.95 963.175 1240.44 985.308C1246.52 991.294 1258.66 1003.48 1266.21 1022.79C1273.26 1040.8 1276.64 1065.83 1276.66 1065.82L1316.76 1064.56Z" fill="#94E261"/>
<path d="M1279.9 1047.83C1277.49 1035.36 1275.3 1016.49 1278.46 994.039C1280.21 981.627 1283.09 961.262 1295.12 942.678C1318.27 906.929 1361.36 899.299 1372.35 897.68C1361.68 904.188 1339.87 919.589 1325.91 947.886C1322.13 955.541 1314.68 971.045 1313.9 991.762C1313.17 1011.09 1318.21 1035.84 1318.19 1035.84L1279.9 1047.83Z" fill="#94E261"/>
<path d="M1294.84 1061.74C1295.11 1051.06 1296.73 1035.16 1303.39 1017.28C1307.08 1007.4 1313.12 991.199 1326.37 978.108C1351.85 952.929 1388.63 954.46 1397.95 955.119C1388 958.534 1367.3 967.236 1350.71 987.957C1346.22 993.563 1337.3 1004.95 1332.91 1021.83C1328.81 1037.57 1328.48 1058.81 1328.46 1058.81L1294.84 1061.74Z" fill="#94E261"/>
<path d="M1286.21 1065.82C1286.04 1059.21 1285.04 1049.37 1280.92 1038.31C1278.63 1032.2 1274.9 1022.17 1266.69 1014.07C1250.93 998.485 1228.16 999.433 1222.39 999.843C1228.55 1001.96 1241.36 1007.34 1251.63 1020.17C1254.41 1023.64 1259.93 1030.68 1262.65 1041.13C1265.19 1050.87 1265.39 1064.02 1265.4 1064.02L1286.21 1065.82Z" fill="#94E261"/>
<path d="M1397.96 955.123C1357.4 963.312 1340.35 979.42 1332.38 993.136C1319.4 1015.48 1316.76 1055.14 1316.76 1055.14" stroke="#262626" stroke-width="1.13436" stroke-miterlimit="10" stroke-linecap="round" stroke-linejoin="round"/>
<path d="M1371.06 897.879C1356.75 903.782 1327.13 918.595 1309.35 950.399C1297.84 970.971 1295.21 991.662 1293.53 1004.82C1291.05 1024.29 1292.07 1040.76 1293.53 1052.29" stroke="#262626" stroke-width="1.13436" stroke-miterlimit="10" stroke-linecap="round" stroke-linejoin="round"/>
<path d="M1180.06 953.173C1183.92 952.519 1225.8 946.156 1256.82 977.611C1284.9 1006.09 1281.7 1042.85 1281.18 1047.83" stroke="#262626" stroke-width="1.13436" stroke-miterlimit="10" stroke-linecap="round" stroke-linejoin="round"/>
<path d="M1222.39 999.839C1225.24 999.905 1247.92 1000.8 1262.2 1020.01C1273.26 1034.89 1272.1 1051.1 1271.69 1055.14" stroke="#262626" stroke-width="1.13436" stroke-miterlimit="10" stroke-linecap="round" stroke-linejoin="round"/>
<path d="M1286.4 1121.15H1304.91C1322 1121.15 1335.86 1107.28 1335.86 1090.19V1043.3H1255.44V1090.19C1255.44 1107.28 1269.3 1121.15 1286.4 1121.15Z" fill="#FDB6D6"/>
<path d="M1264.33 1061.74V1084.52C1264.33 1098.15 1275.38 1109.2 1289.01 1109.2H1295.65" stroke="white" stroke-width="3.03462" stroke-miterlimit="10" stroke-linecap="round" stroke-linejoin="round"/>
<path d="M1799.58 788.666C1802.69 774.002 1804.08 761.955 1803.74 752.532C1803.4 743.109 1800.79 733.985 1795.91 725.158C1793.13 719.892 1789.73 715.148 1785.68 710.908C1781.65 706.681 1778.03 702.339 1774.81 697.888C1771.6 693.446 1769.1 688.689 1767.32 683.634C1765.53 678.579 1765.4 672.452 1766.93 665.24C1769.51 653.064 1774.68 645.26 1782.41 641.837C1790.15 638.413 1798.63 637.676 1807.82 639.626C1820.99 642.42 1829.29 648.018 1832.7 656.397C1836.12 664.789 1837.13 675.325 1835.74 688.018L1883.83 698.219C1886.41 686.043 1886.77 674.559 1884.91 663.77C1883.04 652.99 1879.18 643.335 1873.32 634.819C1867.47 626.307 1859.77 619.091 1850.25 613.171C1840.73 607.255 1829.75 602.979 1817.32 600.341C1790.47 594.649 1768.13 595.626 1750.27 603.264C1732.42 610.911 1720.87 627.032 1715.66 651.64C1713.97 659.597 1713.3 666.726 1713.65 673.036C1714 679.345 1715.28 685.265 1717.48 690.796C1719.69 696.327 1722.7 701.709 1726.53 706.934C1730.36 712.167 1734.78 717.644 1739.79 723.382C1744.37 728.772 1747.95 733.62 1750.54 737.934C1753.13 742.252 1754.88 746.587 1755.77 750.926C1756.67 755.273 1756.9 759.678 1756.48 764.128C1756.05 768.587 1755.26 773.551 1754.1 779.015L1799.58 788.666ZM1785.81 860.942L1796.17 812.098L1745.84 801.421L1735.48 850.265L1785.81 860.942Z" fill="#FDB6D6"/>
</g>
<defs>
<clipPath id="clip0_356_7831">
<rect width="2070" height="2070" fill="white" transform="matrix(-1 0 0 1 2070 0)"/>
</clipPath>
</defs>
</svg>
