<svg width="845" height="837" viewBox="0 0 845 837" fill="none" xmlns="http://www.w3.org/2000/svg">
<mask id="mask0_75_17171" style="mask-type:luminance" maskUnits="userSpaceOnUse" x="0" y="0" width="845" height="838">
<path d="M844.51 0H0.979492V837.007H844.51V0Z" fill="white"/>
</mask>
<g mask="url(#mask0_75_17171)">
<path d="M437.704 746.623C635.786 746.623 796.359 586.046 796.359 387.963C796.359 189.881 635.786 29.304 437.704 29.304C239.622 29.304 79.0444 189.881 79.0444 387.963C79.0444 586.046 239.622 746.623 437.704 746.623Z" stroke="#D1E8F7" stroke-width="1.91649" stroke-miterlimit="10"/>
<path d="M145.927 190.002C152.904 190.002 158.56 184.346 158.56 177.369C158.56 170.392 152.904 164.737 145.927 164.737C138.951 164.737 133.295 170.392 133.295 177.369C133.295 184.346 138.951 190.002 145.927 190.002Z" fill="#FEBB94"/>
<path d="M796.359 414.255C803.339 414.255 809 408.6 809 401.623C809 394.646 803.339 388.99 796.359 388.99C789.389 388.99 783.729 394.646 783.729 401.623C783.729 408.6 789.389 414.255 796.359 414.255Z" fill="#5661AE"/>
<path d="M452.415 759.255C459.391 759.255 465.047 753.599 465.047 746.623C465.047 739.646 459.391 733.99 452.415 733.99C445.438 733.99 439.782 739.646 439.782 746.623C439.782 753.599 445.438 759.255 452.415 759.255Z" fill="#1C85E8"/>
<path d="M446.013 657.876C593.777 657.876 713.563 538.09 713.563 390.326C713.563 242.561 593.777 122.775 446.013 122.775C298.248 122.775 178.462 242.561 178.462 390.326C178.462 538.09 298.248 657.876 446.013 657.876Z" stroke="#D1E8F7" stroke-width="1.42966" stroke-miterlimit="10"/>
<path d="M708.977 453.643C714.181 453.643 718.4 449.424 718.4 444.22C718.4 439.015 714.181 434.796 708.977 434.796C703.772 434.796 699.553 439.015 699.553 444.22C699.553 449.424 703.772 453.643 708.977 453.643Z" fill="#FEBB94"/>
<path d="M197.864 500.296C203.069 500.296 207.288 496.077 207.288 490.872C207.288 485.668 203.069 481.449 197.864 481.449C192.66 481.449 188.441 485.668 188.441 490.872C188.441 496.077 192.66 500.296 197.864 500.296Z" fill="#5661AE"/>
<path d="M326.169 160.289C331.374 160.289 335.593 156.07 335.593 150.865C335.593 145.661 331.374 141.442 326.169 141.442C320.965 141.442 316.746 145.661 316.746 150.865C316.746 156.07 320.965 160.289 326.169 160.289Z" fill="#1C85E8"/>
<path d="M585.264 686.603H276.285C262.88 686.603 253.058 675.736 254.347 662.331L307.092 113.636C308.38 100.231 320.291 89.364 333.696 89.364H642.675C656.08 89.364 665.902 100.231 664.613 113.636L611.868 662.331C610.58 675.736 598.668 686.603 585.264 686.603Z" fill="#1C85E8"/>
<path d="M563.488 686.603H254.509C241.105 686.603 231.283 675.736 232.571 662.331L285.316 113.636C286.605 100.231 298.516 89.364 311.921 89.364H620.9C634.303 89.364 644.125 100.231 642.837 113.636L590.092 662.331C588.803 675.736 576.893 686.603 563.488 686.603Z" fill="url(#paint0_linear_75_17171)"/>
<path d="M551.778 668.362H269.725C257.302 668.362 248.199 658.292 249.393 645.869L298.973 130.098C300.168 117.675 311.206 107.605 323.629 107.605H605.682C618.105 107.605 627.208 117.675 626.014 130.098L576.434 645.869C575.239 658.292 564.201 668.362 551.778 668.362Z" fill="white"/>
<path d="M574.397 342.237L271.826 341.968C270.59 342.002 269.361 341.771 268.221 341.292C267.082 340.813 266.057 340.096 265.217 339.189C264.376 338.283 263.739 337.207 263.347 336.035C262.955 334.862 262.818 333.619 262.945 332.389L279.257 151.26C279.552 148.646 280.794 146.231 282.748 144.47C284.701 142.708 287.231 141.723 289.861 141.698L592.432 141.967C593.668 141.934 594.897 142.164 596.037 142.643C597.176 143.123 598.201 143.839 599.041 144.746C599.882 145.653 600.519 146.728 600.911 147.901C601.303 149.073 601.44 150.316 601.313 151.546L585.001 332.676C584.706 335.289 583.464 337.704 581.51 339.466C579.557 341.227 577.027 342.213 574.397 342.237Z" fill="url(#paint1_linear_75_17171)"/>
<path d="M564.87 537.406H436.985C436.042 537.425 435.105 537.24 434.239 536.866C433.373 536.492 432.598 535.936 431.965 535.236C431.333 534.536 430.858 533.709 430.573 532.809C430.287 531.91 430.199 530.96 430.312 530.024L445.84 368.488C446.064 366.485 447.008 364.632 448.497 363.274C449.986 361.916 451.917 361.146 453.932 361.106H581.818C582.761 361.087 583.697 361.271 584.563 361.646C585.429 362.02 586.204 362.576 586.837 363.276C587.47 363.976 587.945 364.803 588.23 365.702C588.515 366.602 588.604 367.552 588.49 368.488L572.962 530.024C572.738 532.026 571.794 533.879 570.305 535.237C568.817 536.595 566.885 537.366 564.87 537.406Z" fill="url(#paint2_linear_75_17171)"/>
<path d="M534.382 448.294C548.805 434.549 550.374 412.785 537.888 399.685C525.401 386.584 503.588 387.107 489.166 400.852C474.744 414.598 473.174 436.361 485.661 449.462C498.147 462.563 519.96 462.04 534.382 448.294Z" stroke="#EF6A77" stroke-width="11.6898" stroke-miterlimit="10"/>
<path d="M495.562 456.348C483.598 451.182 476.015 438.901 477.392 424.573C479.217 405.584 496.09 390.191 515.079 390.191" stroke="white" stroke-width="11.6898" stroke-miterlimit="10" stroke-linecap="round"/>
<path d="M492.724 485.904H519.034" stroke="white" stroke-width="5.98374" stroke-miterlimit="10" stroke-linecap="round"/>
<path d="M489.858 515.701H516.169" stroke="white" stroke-width="5.98374" stroke-miterlimit="10" stroke-linecap="round"/>
<path opacity="0.4" d="M477.275 500.634H531.649" stroke="white" stroke-width="5.98374" stroke-miterlimit="10" stroke-linecap="round"/>
<path d="M408.474 537.406H280.589C279.646 537.425 278.709 537.24 277.843 536.866C276.978 536.492 276.202 535.936 275.569 535.236C274.937 534.536 274.462 533.709 274.177 532.809C273.891 531.91 273.803 530.96 273.916 530.024L289.444 368.488C289.668 366.485 290.612 364.632 292.101 363.274C293.59 361.916 295.521 361.146 297.536 361.106H425.422C426.365 361.087 427.301 361.271 428.167 361.646C429.033 362.02 429.808 362.576 430.441 363.276C431.074 363.976 431.549 364.803 431.834 365.702C432.119 366.602 432.208 367.552 432.094 368.488L416.566 530.024C416.342 532.026 415.398 533.879 413.909 535.237C412.421 536.595 410.489 537.366 408.474 537.406Z" fill="#FEBB94"/>
<path d="M377.987 448.294C392.409 434.549 393.978 412.785 381.492 399.685C369.006 386.584 347.191 387.107 332.769 400.852C318.347 414.598 316.778 436.361 329.264 449.462C341.75 462.563 363.565 462.04 377.987 448.294Z" stroke="#EF6A77" stroke-width="11.6898" stroke-miterlimit="10"/>
<path d="M389.76 424.573C387.935 443.562 371.062 458.955 352.073 458.955C333.084 458.955 319.17 443.562 320.996 424.573C322.821 405.584 339.694 390.191 358.683 390.191" stroke="white" stroke-width="11.6898" stroke-miterlimit="10" stroke-linecap="round"/>
<path d="M336.328 485.904H362.638" stroke="white" stroke-width="5.98374" stroke-miterlimit="10" stroke-linecap="round"/>
<path d="M333.462 515.701H359.773" stroke="white" stroke-width="5.98374" stroke-miterlimit="10" stroke-linecap="round"/>
<path opacity="0.4" d="M320.879 500.634H375.253" stroke="white" stroke-width="5.98374" stroke-miterlimit="10" stroke-linecap="round"/>
<path d="M554.151 652.944H269.097C268.203 652.961 267.316 652.787 266.496 652.432C265.675 652.077 264.94 651.55 264.34 650.887C263.741 650.224 263.291 649.44 263.02 648.587C262.75 647.735 262.666 646.835 262.773 645.947L271.28 557.461C271.492 555.563 272.387 553.806 273.798 552.519C275.209 551.232 277.039 550.502 278.949 550.464H564.002C564.896 550.446 565.783 550.621 566.604 550.976C567.424 551.331 568.159 551.857 568.759 552.521C569.358 553.184 569.808 553.968 570.079 554.82C570.349 555.673 570.433 556.573 570.326 557.461L561.82 645.947C561.607 647.845 560.713 649.601 559.302 650.888C557.891 652.176 556.06 652.906 554.151 652.944Z" fill="url(#paint3_linear_75_17171)"/>
<path d="M288.947 632.427L292.968 590.595" stroke="white" stroke-width="11.6898" stroke-miterlimit="10" stroke-linecap="round"/>
<path d="M318.452 603.123L315.635 632.427" stroke="white" stroke-width="11.6898" stroke-miterlimit="10" stroke-linecap="round"/>
<path d="M344.178 613.131L342.323 632.427" stroke="white" stroke-width="11.6898" stroke-miterlimit="10" stroke-linecap="round"/>
<path d="M374.077 579.724L369.011 632.427" stroke="white" stroke-width="11.6898" stroke-miterlimit="10" stroke-linecap="round"/>
<path d="M397.554 613.131L395.699 632.427" stroke="white" stroke-width="11.6898" stroke-miterlimit="10" stroke-linecap="round"/>
<path d="M427.231 582.052L422.388 632.427" stroke="white" stroke-width="11.6898" stroke-miterlimit="10" stroke-linecap="round"/>
<path d="M451.086 611.511L449.075 632.427" stroke="white" stroke-width="11.6898" stroke-miterlimit="10" stroke-linecap="round"/>
<path d="M476.835 621.285L475.764 632.427" stroke="white" stroke-width="11.6898" stroke-miterlimit="10" stroke-linecap="round"/>
<path d="M506.472 590.595L502.451 632.427" stroke="white" stroke-width="11.6898" stroke-miterlimit="10" stroke-linecap="round"/>
<path d="M534.692 574.667L529.14 632.427" stroke="white" stroke-width="11.6898" stroke-miterlimit="10" stroke-linecap="round"/>
<path d="M296.334 314.462L312.354 339.557C313.077 340.69 313.323 342.062 313.039 343.375C312.754 344.689 311.963 345.836 310.836 346.569L308.247 348.251C303.913 351.067 298.704 352.214 293.588 351.479C288.472 350.743 283.797 348.175 280.432 344.251L259.173 319.46L296.334 314.462Z" fill="#FFCCB3"/>
<path d="M284.11 324.119C284.11 324.119 290.042 344.487 301.959 351.021C305.053 349.823 308.026 348.332 310.836 346.569L297.473 324.119" fill="#FCBA9F"/>
<path d="M10.0435 415.715L72.9685 385.56C78.8975 382.719 83.9105 378.271 87.4385 372.723L148.226 277.099C152.01 271.146 157.499 266.469 163.978 263.678L251.531 225.958L232.787 367.707L232.457 372.943C232.457 372.943 209.3 432.919 152.542 454.708L61.7975 510.211L10.0435 415.715Z" fill="#FFCCB3"/>
<path d="M78.5226 382.233C78.5226 382.233 108.289 456.529 152.543 454.708L124.288 471.99C124.288 471.99 28.3846 454.2 64.2836 389.575L78.5226 382.233Z" fill="#FCBA9F"/>
<path d="M237.98 252.191C237.98 252.191 207.024 270.949 208.666 314.462L245.841 300.57L237.98 252.191Z" fill="#FCBA9F"/>
<path d="M315.743 314.462L331.763 339.557C332.486 340.69 332.732 342.062 332.448 343.375C332.164 344.689 331.372 345.836 330.245 346.569L327.656 348.251C323.322 351.067 318.113 352.214 312.997 351.479C307.881 350.743 303.206 348.175 299.841 344.251L278.583 319.46L315.743 314.462Z" fill="#FFCCB3"/>
<path d="M552.576 324.358L250.005 324.089C248.769 324.122 247.54 323.892 246.401 323.412C245.261 322.933 244.237 322.216 243.396 321.31C242.555 320.403 241.918 319.328 241.526 318.155C241.134 316.982 240.997 315.74 241.124 314.51L257.436 133.38C257.732 130.766 258.973 128.351 260.927 126.59C262.88 124.829 265.41 123.843 268.041 123.818L570.611 124.088C571.847 124.054 573.076 124.285 574.216 124.764C575.355 125.243 576.38 125.96 577.22 126.866C578.061 127.773 578.698 128.849 579.09 130.021C579.482 131.194 579.619 132.437 579.493 133.666L563.181 314.796C562.885 317.41 561.643 319.825 559.69 321.586C557.736 323.347 555.206 324.333 552.576 324.358Z" fill="#1C85E8"/>
<path d="M270.038 231.275C270.038 231.275 297.198 225.782 304.508 238.527C311.817 251.271 318.12 275.205 337.568 272.12C357.016 269.034 371.903 206.46 391.022 207.031C410.142 207.602 403.401 248.584 424.212 249.156C445.022 249.728 441.321 226.264 455.191 226.918C472.016 227.711 465.744 276.331 487.682 276.904C509.62 277.477 513.2 212.682 546.364 213.819" stroke="white" stroke-width="7.56507" stroke-miterlimit="10" stroke-linecap="round"/>
<path d="M285.485 154.154L338.718 154.201" stroke="white" stroke-width="11.9991" stroke-miterlimit="10" stroke-linecap="round"/>
<path opacity="0.4" d="M283.288 178.556L393.298 178.654" stroke="white" stroke-width="11.9991" stroke-miterlimit="10" stroke-linecap="round"/>
<path d="M180.287 323.46L219.101 306.363L258.794 279.268C269.233 272.143 291.033 268.933 298.881 278.839C306.864 288.915 297.897 308.847 288.215 317.302L251.532 349.335L232.457 372.943L180.287 323.46Z" fill="#FFCCB3"/>
<path d="M259.173 289.557C259.173 289.557 264.413 309.763 277.999 313.259L292.409 301.085C293.87 299.997 295.094 298.623 296.007 297.047C296.92 295.47 297.502 293.724 297.718 291.916C297.934 290.107 297.78 288.273 297.264 286.526C296.748 284.779 295.882 283.155 294.718 281.754C292.685 279.306 289.849 277.66 286.715 277.11C283.581 276.561 280.353 277.143 277.609 278.753L259.173 289.557Z" stroke="#FF967C" stroke-width="3" stroke-linecap="round"/>
<path d="M75.3595 383.062C75.3595 383.062 67.8375 436.857 133.295 467.66C133.295 467.66 86.2735 510.794 68.1445 518.047C50.0165 525.299 -18.0966 451.182 6.12944 409.114C12.9234 397.317 75.3595 383.062 75.3595 383.062Z" fill="#1C85E8"/>
<path d="M323.38 326.425C323.38 326.425 297.867 326.945 288.986 331.593L282.576 324.118L321.908 324.119L323.38 326.425Z" fill="#FCBA9F"/>
<path d="M793.139 324.358H611.734C598.069 324.358 587.972 313.28 589.182 299.615L613.521 24.742C614.731 11.078 626.789 0 640.454 0H821.859C835.529 0 845.619 11.078 844.409 24.742L820.069 299.615C818.859 313.28 806.799 324.358 793.139 324.358Z" fill="#FEBB94"/>
<path d="M767.169 155.209C795.899 127.728 798.789 84.137 773.639 57.846C748.486 31.555 704.81 32.519 676.085 60C647.361 87.481 644.465 131.072 669.618 157.363C694.771 183.655 738.448 182.69 767.169 155.209Z" fill="white"/>
<path d="M725.473 109.744L771.01 151.276C771.01 151.276 781.37 140.141 784.46 132.183L725.473 109.744Z" fill="url(#paint4_linear_75_17171)"/>
<path d="M728.504 29.963L722.033 103.04C721.889 104.371 722.138 105.715 722.749 106.907C723.36 108.098 724.307 109.084 725.472 109.744L787.259 144.142C787.259 144.142 823.949 41.783 728.504 29.963Z" fill="#1C85E8"/>
<path d="M631.793 227.069H706.945" stroke="white" stroke-width="12" stroke-miterlimit="10" stroke-linecap="round"/>
<path d="M626.292 289.201H701.445" stroke="white" stroke-width="12" stroke-miterlimit="10" stroke-linecap="round"/>
<path opacity="0.4" d="M629.074 257.784H784.379" stroke="white" stroke-width="12" stroke-miterlimit="10" stroke-linecap="round"/>
<path d="M570.044 526.855C570.044 526.855 594.269 520.394 607.162 534.277C607.162 534.277 630.336 530.069 639.758 542.961C639.758 542.961 660.303 544.151 666.253 552.531C671.201 553.214 675.88 555.195 679.813 558.274C683.746 561.352 686.794 565.418 688.645 570.057C694.263 583.298 689.498 659.849 683.914 687.28C682.518 694.141 682.996 701.251 685.299 707.863L699.503 748.682L601.226 789.765L577.894 728.909C577.894 728.909 549.493 683.268 545.435 675.153C541.378 667.039 548.255 599.706 534.404 557.643L570.044 526.855Z" fill="#FFCCB3"/>
<path d="M590.57 761.971L587.735 754.576C587.735 754.576 638.73 751.316 685.299 707.863L689.753 720.663C689.753 720.663 684.001 747.103 657.813 759.564C631.624 772.026 590.57 761.971 590.57 761.971Z" fill="#FCBA9F"/>
<path d="M590.57 761.971C590.57 761.971 652.297 767.593 689.753 720.663C689.753 720.663 703.582 727.913 724.817 780.994C731.339 797.298 622.43 855.345 604.821 831.216C604.821 831.216 589.619 799.059 590.57 761.971Z" fill="#5661AE"/>
<path d="M540.444 583.035C540.444 583.035 538.315 594.331 528.248 594.332C521.68 594.332 493.211 585.731 474.209 579.751C469.039 578.124 463.493 578.124 458.323 579.751C453.153 581.378 448.607 584.554 445.301 588.848L444.146 590.348C443.572 591.091 443.156 591.943 442.921 592.853C442.686 593.762 442.639 594.709 442.781 595.637C442.923 596.565 443.252 597.455 443.748 598.252C444.244 599.05 444.897 599.738 445.667 600.275C461.754 611.506 505.195 641.988 510.751 647.544C517.589 654.381 555.664 692.713 555.664 692.713L540.444 583.035Z" fill="#FFCCB3"/>
<path d="M538.133 571.717C538.133 571.717 558.71 599.569 555.664 605.666C552.618 611.763 520.711 593.122 520.711 593.122C520.711 593.122 546.458 599.745 538.133 571.717Z" fill="#FCBA9F"/>
<path d="M534.404 557.643L499.779 452.495C498.592 448.888 498.14 445.079 498.452 441.294C498.764 437.51 499.833 433.826 501.595 430.463C503.357 427.099 505.777 424.123 508.71 421.712C511.644 419.301 515.032 417.503 518.673 416.426C521.654 415.545 524.853 415.783 527.67 417.097C530.487 418.411 532.726 420.709 533.965 423.559L582.54 535.218L534.404 557.643Z" fill="#FFCCB3"/>
<path d="M519.39 512.045C520.371 513.657 521.675 515.049 523.219 516.133C524.764 517.218 526.515 517.971 528.365 518.347" stroke="#FF967C" stroke-width="3" stroke-linecap="round"/>
<path d="M531.847 458.217C536.06 456.35 540.707 453.741 542.706 450.696L529.813 420.083C529.537 419.423 529.124 418.83 528.601 418.342C528.078 417.854 527.458 417.483 526.781 417.253C526.104 417.023 525.386 416.94 524.674 417.009C523.962 417.078 523.273 417.297 522.653 417.652C518.065 420.3 512.009 425.078 511.774 431.938L520.494 453.638C520.922 454.698 521.559 455.66 522.367 456.468C523.175 457.276 524.138 457.913 525.197 458.34C526.257 458.768 527.392 458.977 528.535 458.956C529.677 458.935 530.804 458.683 531.847 458.217Z" stroke="#FF967C" stroke-width="3" stroke-linecap="round"/>
<path d="M578.633 526.236L590.57 552.531" stroke="#FF967C" stroke-width="3" stroke-linecap="round"/>
<path d="M607.64 534.815C613.706 543.511 616.957 553.86 616.954 564.464" stroke="#FF967C" stroke-width="3" stroke-linecap="round"/>
<path d="M640.329 543.453C640.329 543.453 646.338 557.234 646.834 568.132" stroke="#FF967C" stroke-width="3" stroke-linecap="round"/>
<path d="M667.094 553.349C669.461 559.164 670.379 565.468 669.768 571.717" stroke="#FF967C" stroke-width="3" stroke-linecap="round"/>
<path d="M471.092 613.131C471.092 613.131 478.202 604.101 475.763 599.572C473.324 595.043 462.475 588.638 456.205 589.335C453.213 589.786 450.326 590.769 447.682 592.239C447.201 592.49 446.795 592.863 446.503 593.321C446.211 593.778 446.043 594.303 446.016 594.845C445.99 595.387 446.105 595.927 446.351 596.41C446.598 596.894 446.966 597.305 447.42 597.602L471.092 613.131Z" stroke="#FF967C" stroke-width="3" stroke-linecap="round"/>
<path d="M348.822 723.234H132.207C131.313 723.251 130.426 723.077 129.605 722.722C128.784 722.367 128.049 721.84 127.45 721.177C126.85 720.514 126.4 719.729 126.13 718.877C125.859 718.025 125.775 717.125 125.883 716.237L134.389 627.75C134.601 625.852 135.496 624.096 136.907 622.809C138.318 621.522 140.148 620.792 142.058 620.754H358.674C359.568 620.736 360.455 620.911 361.275 621.266C362.096 621.62 362.831 622.147 363.431 622.81C364.03 623.474 364.48 624.258 364.751 625.11C365.021 625.963 365.105 626.863 364.998 627.75L356.492 716.237C356.279 718.135 355.384 719.891 353.973 721.178C352.563 722.465 350.732 723.196 348.822 723.234Z" fill="#FEBB94"/>
<path d="M152.542 643.83H286.225" stroke="#EF6A77" stroke-width="11.6898" stroke-miterlimit="10" stroke-linecap="round"/>
<path d="M152.542 643.83H245.439" stroke="white" stroke-width="11.6898" stroke-miterlimit="10" stroke-linecap="round"/>
<path d="M150.542 671.994H284.225" stroke="#EF6A77" stroke-width="11.6898" stroke-miterlimit="10" stroke-linecap="round"/>
<path d="M150.542 671.994H206.082" stroke="white" stroke-width="11.6898" stroke-miterlimit="10" stroke-linecap="round"/>
<path d="M146.171 700.158H279.854" stroke="#EF6A77" stroke-width="11.6898" stroke-miterlimit="10" stroke-linecap="round"/>
<path d="M146.171 700.158H180.136" stroke="white" stroke-width="11.6898" stroke-miterlimit="10" stroke-linecap="round"/>
<path d="M333.547 651.817C337.959 651.817 341.535 648.241 341.535 643.83C341.535 639.418 337.959 635.842 333.547 635.842C329.136 635.842 325.56 639.418 325.56 643.83C325.56 648.241 329.136 651.817 333.547 651.817Z" fill="white"/>
<path d="M330.956 678.749C335.368 678.749 338.944 675.173 338.944 670.762C338.944 666.35 335.368 662.774 330.956 662.774C326.544 662.774 322.968 666.35 322.968 670.762C322.968 675.173 326.544 678.749 330.956 678.749Z" fill="white"/>
<path d="M328.066 708.146C332.477 708.146 336.054 704.569 336.054 700.158C336.054 695.746 332.477 692.17 328.066 692.17C323.654 692.17 320.078 695.746 320.078 700.158C320.078 704.569 323.654 708.146 328.066 708.146Z" fill="white"/>
</g>
<defs>
<linearGradient id="paint0_linear_75_17171" x1="390.183" y1="-100.664" x2="674.02" y2="1321.72" gradientUnits="userSpaceOnUse">
<stop stop-color="white"/>
<stop offset="1" stop-color="#94B9FF"/>
</linearGradient>
<linearGradient id="paint1_linear_75_17171" x1="423.703" y1="141.221" x2="451.224" y2="569.637" gradientUnits="userSpaceOnUse">
<stop stop-color="white"/>
<stop offset="1" stop-color="#94B9FF"/>
</linearGradient>
<linearGradient id="paint2_linear_75_17171" x1="505.461" y1="360.685" x2="550.478" y2="733.442" gradientUnits="userSpaceOnUse">
<stop stop-color="white"/>
<stop offset="1" stop-color="#94B9FF"/>
</linearGradient>
<linearGradient id="paint3_linear_75_17171" x1="408.891" y1="550.219" x2="416.82" y2="769.771" gradientUnits="userSpaceOnUse">
<stop stop-color="white"/>
<stop offset="1" stop-color="#94B9FF"/>
</linearGradient>
<linearGradient id="paint4_linear_75_17171" x1="753.496" y1="109.645" x2="760.26" y2="198.221" gradientUnits="userSpaceOnUse">
<stop stop-color="white"/>
<stop offset="1" stop-color="#94B9FF"/>
</linearGradient>
</defs>
</svg>
