<svg width="334" height="258" viewBox="0 0 334 258" fill="none" xmlns="http://www.w3.org/2000/svg">
<path d="M132.535 60.6515C133.203 60.1355 133.875 59.6281 134.56 59.1336" stroke="#DDDDDD" stroke-width="1.025" stroke-linecap="round" stroke-linejoin="round"/>
<path d="M138.61 56.3988C149.758 49.2822 162.61 45.5032 175.726 45.4854C181.217 45.4829 186.689 46.1483 192.029 47.4677" stroke="#DDDDDD" stroke-width="1.025" stroke-linecap="round" stroke-linejoin="round" stroke-dasharray="3.95 3.95"/>
<path d="M194.346 48.0912C195.15 48.3205 195.952 48.5642 196.751 48.8222" stroke="#DDDDDD" stroke-width="1.025" stroke-linecap="round" stroke-linejoin="round"/>
<path d="M138.94 211.754C138.226 211.324 137.516 210.851 136.819 210.382" stroke="#DDDDDD" stroke-width="1.025" stroke-linecap="round" stroke-linejoin="round"/>
<path d="M132.765 207.449C118.081 196.119 106.98 179.147 101.82 159.238" stroke="#DDDDDD" stroke-width="1.025" stroke-linecap="round" stroke-linejoin="round" stroke-dasharray="4.07 4.07"/>
<path d="M101.193 156.752C101.001 155.918 100.819 155.079 100.646 154.237" stroke="#DDDDDD" stroke-width="1.025" stroke-linecap="round" stroke-linejoin="round"/>
<path d="M252.069 146.264C251.967 147.124 251.853 147.976 251.728 148.819" stroke="#DDDDDD" stroke-width="1.025" stroke-linecap="round" stroke-linejoin="round"/>
<path d="M250.821 154.004C249.61 160.024 247.831 165.907 245.511 171.57" stroke="#DDDDDD" stroke-width="1.025" stroke-linecap="round" stroke-linejoin="round" stroke-dasharray="4.19 4.19"/>
<path d="M244.484 173.999C244.136 174.782 243.78 175.558 243.415 176.326" stroke="#DDDDDD" stroke-width="1.025" stroke-linecap="round" stroke-linejoin="round"/>
<path d="M118.829 177.831L95.8914 181.322C95.4815 181.383 95.0645 181.284 94.7212 181.046C94.3779 180.808 94.1328 180.446 94.0335 180.032L91.3782 167.27C91.3348 167.07 91.3324 166.863 91.3712 166.663C91.41 166.462 91.4892 166.272 91.6036 166.105C91.7181 165.938 91.8652 165.797 92.0356 165.692C92.206 165.586 92.3959 165.519 92.5931 165.494L115.531 162.007C115.94 161.946 116.357 162.045 116.701 162.283C117.044 162.522 117.289 162.883 117.388 163.297L120.044 176.029C120.091 176.231 120.097 176.44 120.06 176.644C120.023 176.848 119.944 177.041 119.83 177.211C119.715 177.381 119.566 177.525 119.394 177.632C119.221 177.738 119.029 177.806 118.829 177.831Z" fill="#F9F9F9" stroke="#EDEDED" stroke-width="0.683333" stroke-linecap="round" stroke-linejoin="round"/>
<path d="M94.7725 167.575C95.0188 167.528 108.446 172.052 108.446 172.052L114.708 163.916" stroke="#EDEDED" stroke-width="0.683333" stroke-linecap="round" stroke-linejoin="round"/>
<path d="M98.2378 176.863L105.711 171.136" stroke="#EDEDED" stroke-width="0.683333" stroke-linecap="round" stroke-linejoin="round"/>
<path d="M112.036 171.136L117.722 172.989" stroke="#EDEDED" stroke-width="0.683333" stroke-linecap="round" stroke-linejoin="round"/>
<path d="M128.469 197.645L122.499 198.802C122.418 198.817 122.343 198.854 122.282 198.909L118.524 202.289C118.46 202.346 118.381 202.383 118.298 202.396C118.214 202.41 118.129 202.4 118.05 202.366C117.972 202.333 117.905 202.278 117.855 202.207C117.805 202.137 117.775 202.054 117.768 201.967L117.13 191.78C117.123 191.694 117.141 191.608 117.18 191.532C117.219 191.456 117.278 191.393 117.351 191.35C117.414 191.312 117.486 191.292 117.56 191.292C117.633 191.292 117.705 191.312 117.768 191.35L128.59 196.768C128.677 196.811 128.748 196.881 128.793 196.968C128.838 197.055 128.856 197.155 128.842 197.252C128.829 197.35 128.785 197.441 128.718 197.512C128.651 197.582 128.564 197.629 128.469 197.645Z" fill="white" stroke="#EDEDED" stroke-width="0.683333" stroke-linecap="round" stroke-linejoin="round"/>
<path d="M128.469 197.645L122.498 198.802C122.418 198.817 122.343 198.854 122.281 198.909L117.351 191.35C117.414 191.312 117.486 191.292 117.559 191.292C117.633 191.292 117.705 191.312 117.768 191.35L128.59 196.768C128.676 196.811 128.747 196.881 128.793 196.968C128.838 197.055 128.855 197.155 128.842 197.252C128.828 197.35 128.785 197.441 128.718 197.512C128.651 197.582 128.563 197.629 128.469 197.645Z" fill="#EDEDED" stroke="#EDEDED" stroke-width="0.683333" stroke-linecap="round" stroke-linejoin="round"/>
<mask id="mask0_103_9745" style="mask-type:luminance" maskUnits="userSpaceOnUse" x="58" y="67" width="90" height="72">
<path d="M147.495 74.4717V138.662H58.6255V74.4717C58.6249 73.6215 58.7871 72.7795 59.1026 71.9938C59.4181 71.2082 59.8809 70.4942 60.4644 69.8929C61.0479 69.2915 61.7407 68.8144 62.5034 68.4889C63.266 68.1634 64.0834 67.9959 64.9089 67.9959H141.211C142.037 67.9959 142.854 68.1634 143.617 68.4889C144.379 68.8144 145.072 69.2915 145.656 69.8929C146.239 70.4942 146.702 71.2082 147.017 71.9938C147.333 72.7795 147.495 73.6215 147.495 74.4717Z" fill="white"/>
</mask>
<g mask="url(#mask0_103_9745)">
<path d="M128.908 137.037C130.82 138.026 133.296 136.177 136.047 133.674L133.066 130.922C133.066 130.922 128.39 135.411 128.908 137.037Z" fill="#A7CAF0"/>
<path d="M154.396 125.199L147.495 139.685H132.978L130.561 132.728L138.777 125.199H154.396Z" fill="#FEBD9D"/>
<path d="M143.148 125.199L136.352 136.138" stroke="#EF8A66" stroke-width="0.25625" stroke-linecap="round" stroke-linejoin="round"/>
<path d="M140.56 126.33C135.638 129.224 128.908 137.037 128.908 137.037L127.1 140.735L126.048 142.885H90.3351C89.5001 139.785 88.7819 135.747 88.2476 132.474C87.8301 129.942 87.5629 127.869 87.4543 127.057L87.4084 126.691C86.4982 127.521 86.0557 127.551 86.0557 127.551L84.3857 132.096L84.2312 132.526C78.3027 128.441 67.4561 127.719 67.4561 127.719L68.9131 122.649C68.4754 121.607 68.3531 120.453 68.5624 119.338C68.8004 118.07 72.0653 112.187 75.3552 107.251C76.6523 105.243 78.091 103.335 79.6596 101.545C79.789 101.407 79.9226 101.274 80.0562 101.149C84.0266 97.3865 90.6064 97.9326 94.9317 98.3368C95.5747 98.397 96.1842 98.44 96.752 98.4658C98.0301 98.535 99.3108 98.535 100.589 98.4658C101.637 98.4099 102.213 98.3282 102.213 98.3282C102.347 97.7004 102.472 97.0382 102.597 96.3115C103.378 91.6116 103.816 85.3379 103.119 81.2142L114.108 86.2667C114.295 88.3221 115.03 92.8328 115.535 95.7998C115.819 97.4596 116.024 98.6378 116.024 98.6378C116.909 98.4701 117.744 98.3196 118.529 98.182C129.684 96.2341 132.557 96.9651 135.646 102.568C135.73 102.714 135.809 102.869 135.893 103.032C137.796 106.902 139.095 114.642 139.817 120.112C140.331 123.707 140.56 126.33 140.56 126.33Z" fill="#C3DCF8"/>
<path d="M140.56 126.33C135.734 129.172 129.158 136.749 128.912 137.028C128.999 136.839 130.435 133.777 130.582 132.728C130.728 131.679 130.218 128.574 129.429 125.655L139.867 120.129C140.33 123.707 140.56 126.33 140.56 126.33Z" fill="#C3DCF8"/>
<path d="M103.394 128.002C103.315 132.122 93.9464 132.702 88.2601 132.474C87.8426 129.942 87.5754 127.869 87.4668 127.056L87.4209 126.691C89.4873 124.532 91.1954 122.037 92.4768 119.308C95.8168 121.656 91.5333 124.068 91.3705 125.199C90.9279 128.299 103.507 122.12 103.394 128.002Z" fill="#A7CAF0"/>
<path d="M135.934 103.049C132.678 101.884 129.02 101.923 126.486 106.09C120.779 115.472 110.066 122.791 99.3486 111.714C97.8831 110.159 96.2799 108.748 94.5598 107.5C88.2264 103.037 82.8698 103.94 75.3799 107.246C76.677 105.238 78.1157 103.331 79.6843 101.54C79.8137 101.403 79.9473 101.269 80.0809 101.145C84.0514 97.382 90.6312 97.9281 94.9565 98.3323C95.5994 98.3925 96.209 98.4355 96.7768 98.4613C98.0548 98.5306 99.3355 98.5306 100.614 98.4613C101.662 98.4054 102.238 98.3237 102.238 98.3237C102.371 97.6959 102.497 97.0337 102.622 96.307C103.402 91.6071 103.841 85.3334 103.144 81.2097L114.132 86.2622C114.32 88.3176 115.055 92.8283 115.56 95.7953C115.844 97.4551 116.049 98.6334 116.049 98.6334C116.934 98.4656 117.769 98.3152 118.554 98.1776C129.709 96.2297 132.582 96.9606 135.671 102.564C135.771 102.731 135.851 102.886 135.934 103.049Z" fill="#D0E5F7"/>
<path d="M118.571 98.1991C118.537 101.106 118.232 106.403 117.005 110.149C115.418 115.008 113.548 113.034 111.494 111.116C109.636 109.37 102.864 103.561 96.7812 98.4743C98.0593 98.5435 99.34 98.5435 100.618 98.4743C101.666 98.4184 102.242 98.3367 102.242 98.3367C102.376 97.7089 102.501 97.0467 102.626 96.32C107.039 96.0233 112.333 95.7309 115.569 95.8083C115.853 97.4681 116.057 98.6463 116.057 98.6463C116.934 98.47 117.769 98.3367 118.571 98.1991Z" fill="#83ADDF"/>
<path d="M114.245 109.31C114.245 109.31 104.843 102.723 100.618 98.4701C101.666 98.4142 102.242 98.3325 102.242 98.3325C103.248 93.5724 103.949 85.97 103.148 81.2185L110.291 84.4994L114.136 86.271C114.274 87.7889 114.717 90.6699 115.138 93.2585C115.606 96.1223 116.053 98.6421 116.053 98.6421C116.395 106.993 114.245 109.31 114.245 109.31Z" fill="#FEBD9D"/>
<path d="M128.908 137.037C128.995 136.847 130.432 133.786 130.578 132.737C130.724 131.687 130.214 128.583 129.425 125.663C129.384 125.513 129.342 125.358 129.296 125.207" stroke="#83ADDF" stroke-width="0.25625" stroke-linecap="round" stroke-linejoin="round"/>
<path d="M115.134 93.2713C107.715 93.74 108.55 85.5269 108.613 85.3205L110.283 84.5121L114.128 86.2838C114.27 87.8017 114.712 90.6827 115.134 93.2713Z" fill="#F4A789"/>
<path d="M67.4806 127.71C67.2719 128.342 67.2719 129.03 71.927 130.38L72.6451 127.237C72.6451 127.237 68.4117 126.059 67.4806 127.71Z" fill="#A7CAF0"/>
<path d="M70.0318 126.054C68.9379 129.727 65.122 142.025 65.122 142.025C64.0866 146.535 77.075 149.481 81.6967 141.818L84.2393 129.482C80.0374 126.665 75.0109 125.453 70.0318 126.054Z" fill="#FEBD9D"/>
<path d="M91.3869 121.385C91.3707 121.409 91.3567 121.435 91.3451 121.462C90.794 122.369 90.1803 123.294 89.5123 124.248L89.4664 124.313C88.84 125.155 88.1564 125.949 87.4206 126.691C86.5105 127.521 86.0679 127.551 86.0679 127.551L84.256 132.517C84.0723 132.393 83.8844 132.268 83.6882 132.148C80.3816 130.084 75.8308 128.948 72.4157 128.346C71.2926 128.149 70.2906 128.011 69.4932 127.916C68.2657 127.766 67.5059 127.714 67.5059 127.714L68.9629 122.645C68.5252 121.602 68.4029 120.448 68.6122 119.334C68.8502 118.065 72.1151 112.183 75.405 107.246C76.7021 105.238 78.1408 103.331 79.7094 101.54C79.8388 101.403 79.9724 101.269 80.106 101.145C85.7339 98.4313 93.0485 99.0978 94.4889 106.919C94.5265 107.113 94.5599 107.306 94.5849 107.5C95.3865 112.707 94.1382 116.84 91.3869 121.385Z" fill="#C3DCF8"/>
<path d="M94.5598 107.5C88.2264 103.037 82.8698 103.94 75.3799 107.246C76.677 105.238 78.1157 103.331 79.6843 101.54C79.8137 101.403 79.9473 101.269 80.0809 101.145C85.7088 98.4313 93.0234 99.0978 94.4638 106.919C94.5014 107.126 94.5348 107.319 94.5598 107.5Z" fill="#D0E5F7"/>
<path d="M71.2505 123.72C75.1708 123.72 79.0035 125.371 79.6506 125.685" stroke="#83ADDF" stroke-width="0.25625" stroke-linecap="round" stroke-linejoin="round"/>
<path d="M87.4209 126.691C88.1567 125.949 88.8403 125.155 89.4666 124.313L89.5126 124.248C90.1725 123.355 90.7844 122.425 91.3454 121.462C91.357 121.435 91.371 121.409 91.3871 121.385C91.8297 120.615 92.1971 119.905 92.4768 119.308C92.7064 118.843 92.8734 118.448 92.9903 118.155" stroke="#83ADDF" stroke-width="0.25625" stroke-linecap="round" stroke-linejoin="round"/>
<path d="M121.359 123.1C121.51 125.134 120.349 125.655 120.349 125.655C120.508 130.6 119.096 132.965 116.75 133.592C114.404 134.22 108.342 135.545 108.342 135.545C107.713 135.808 107.107 136.124 106.53 136.491C105.853 136.886 105.014 137.394 104.025 137.996C101.01 139.81 96.2634 141.504 90.6229 144.566C80.628 149.993 73.5054 147.051 73.0295 141.294C72.1694 130.754 85.1662 130.066 89.9132 129.254C93.3534 128.66 98.6807 127.254 101.983 126.467C103.236 126.175 104.175 125.968 104.618 125.925C106.204 125.779 109.494 123.99 115.268 122.12C121.042 120.249 125.705 119.166 125.705 120.477C125.705 121.789 121.359 123.1 121.359 123.1Z" fill="#FEBD9D"/>
<path d="M115.276 122.12C121.046 120.241 125.714 119.166 125.714 120.477C125.714 121.789 121.343 123.113 121.343 123.113C121.493 125.147 120.332 125.667 120.332 125.667C120.491 130.612 119.08 132.977 116.733 133.605" stroke="#EF8A66" stroke-width="0.25625" stroke-linecap="round" stroke-linejoin="round"/>
<path d="M75.4507 134.16C77.9557 131.662 81.9679 130.582 85.358 129.972" stroke="#EF8A66" stroke-width="0.25625" stroke-linecap="round" stroke-linejoin="round"/>
<path d="M106.53 136.491C105.853 136.886 105.014 137.394 104.025 137.996C101.699 135.325 100.493 131.189 101.983 126.454C103.236 126.162 104.175 125.956 104.617 125.913C103.54 128.944 103.34 133.889 106.53 136.491Z" fill="#683F1D"/>
<path d="M121.359 123.1L117.79 124.291" stroke="#EF8A66" stroke-width="0.25625" stroke-linecap="round" stroke-linejoin="round"/>
<path d="M120.349 125.655L118.153 126.476" stroke="#EF8A66" stroke-width="0.25625" stroke-linecap="round" stroke-linejoin="round"/>
<path d="M118.391 128.849L120.261 128.325" stroke="#EF8A66" stroke-width="0.25625" stroke-linecap="round" stroke-linejoin="round"/>
<path d="M105.686 132.01C105.686 132.625 105.509 133.226 105.178 133.737C104.846 134.248 104.375 134.647 103.823 134.882C103.272 135.118 102.665 135.179 102.079 135.059C101.494 134.939 100.956 134.643 100.534 134.208C100.111 133.774 99.8239 133.22 99.7074 132.616C99.5909 132.013 99.6507 131.388 99.8792 130.82C100.108 130.252 100.495 129.767 100.991 129.425C101.487 129.083 102.071 128.901 102.668 128.901C103.469 128.901 104.236 129.229 104.802 129.812C105.368 130.395 105.686 131.185 105.686 132.01Z" fill="white" stroke="#683F1D" stroke-width="0.341667" stroke-linecap="round" stroke-linejoin="round"/>
</g>
<path d="M147.495 74.4717V138.662H58.6255V74.4717C58.6249 73.6215 58.7871 72.7795 59.1026 71.9938C59.4181 71.2082 59.8809 70.4942 60.4644 69.8929C61.0479 69.2915 61.7407 68.8144 62.5034 68.4889C63.266 68.1634 64.0834 67.9959 64.9089 67.9959H141.211C142.037 67.9959 142.854 68.1634 143.617 68.4889C144.379 68.8144 145.072 69.2915 145.656 69.8929C146.239 70.4942 146.702 71.2082 147.017 71.9938C147.333 72.7795 147.495 73.6215 147.495 74.4717Z" stroke="#DDDDDD" stroke-width="0.683333" stroke-linecap="round" stroke-linejoin="round"/>
<path d="M147.495 74.4717V74.7598H58.6255V74.4717C58.6249 73.6215 58.7871 72.7795 59.1026 71.9938C59.4181 71.2082 59.8809 70.4942 60.4644 69.8929C61.0479 69.2915 61.7407 68.8144 62.5034 68.4889C63.266 68.1634 64.0834 67.9959 64.9089 67.9959H141.211C142.037 67.9959 142.854 68.1634 143.617 68.4889C144.379 68.8144 145.072 69.2915 145.656 69.8929C146.239 70.4942 146.702 71.2082 147.017 71.9938C147.333 72.7795 147.495 73.6215 147.495 74.4717Z" stroke="#DDDDDD" stroke-width="0.683333" stroke-linecap="round" stroke-linejoin="round"/>
<path d="M135.467 71.38C135.467 71.613 135.4 71.8408 135.274 72.0346C135.148 72.2283 134.969 72.3793 134.76 72.4685C134.551 72.5577 134.321 72.581 134.099 72.5355C133.878 72.4901 133.674 72.3779 133.514 72.2131C133.354 72.0483 133.245 71.8384 133.201 71.6098C133.157 71.3813 133.179 71.1444 133.266 70.9291C133.352 70.7138 133.499 70.5298 133.687 70.4003C133.875 70.2709 134.096 70.2018 134.323 70.2018C134.473 70.2018 134.622 70.2323 134.76 70.2915C134.899 70.3507 135.025 70.4375 135.132 70.5469C135.238 70.6563 135.322 70.7862 135.38 70.9291C135.437 71.0721 135.467 71.2253 135.467 71.38Z" fill="#DDDDDD"/>
<path d="M138.051 72.5582C138.682 72.5582 139.195 72.0307 139.195 71.38C139.195 70.7293 138.682 70.2018 138.051 70.2018C137.419 70.2018 136.907 70.7293 136.907 71.38C136.907 72.0307 137.419 72.5582 138.051 72.5582Z" fill="#EDEDED"/>
<path d="M142.923 71.38C142.923 71.6132 142.856 71.8412 142.73 72.035C142.604 72.2289 142.425 72.3799 142.216 72.4689C142.007 72.558 141.777 72.581 141.554 72.5352C141.332 72.4894 141.129 72.3768 140.969 72.2116C140.809 72.0464 140.7 71.836 140.657 71.6072C140.613 71.3784 140.636 71.1413 140.724 70.9261C140.811 70.7109 140.958 70.5272 141.147 70.3983C141.335 70.2693 141.557 70.2009 141.783 70.2018C141.933 70.2018 142.082 70.2323 142.221 70.2916C142.359 70.3508 142.485 70.4377 142.591 70.5471C142.697 70.6566 142.781 70.7865 142.838 70.9294C142.895 71.0724 142.924 71.2255 142.923 71.38Z" fill="#DDDDDD"/>
<path d="M125.931 127.667C127.359 126.106 129.742 125.913 129.742 125.913L132.502 128.849C132.502 128.849 133.287 120.176 129.742 108.278C129.07 114.088 126.995 123.436 125.931 127.667Z" fill="#DDDDDD" stroke="#DDDDDD" stroke-width="0.341667" stroke-linecap="round" stroke-linejoin="round"/>
<path d="M153.16 106.515C157.147 119.544 156.955 128.849 156.955 128.849H132.502C132.502 128.849 129.208 115.919 129.742 108.278C129.742 108.278 129.279 106.477 130.811 106.317C132.343 106.158 153.16 106.515 153.16 106.515Z" fill="#F9F9F9" stroke="#DDDDDD" stroke-width="0.341667" stroke-linecap="round" stroke-linejoin="round"/>
<path d="M133.567 106.386C133.565 106.351 133.565 106.315 133.567 106.279C133.602 105.931 133.735 105.601 133.949 105.329C134.163 105.057 134.448 104.855 134.772 104.746C135.095 104.638 135.441 104.629 135.769 104.719C136.098 104.81 136.393 104.996 136.621 105.256C136.848 105.516 136.998 105.838 137.051 106.184C137.104 106.53 137.059 106.884 136.921 107.203C136.783 107.523 136.558 107.795 136.273 107.986C135.988 108.176 135.656 108.278 135.316 108.278" stroke="#EDEDED" stroke-width="0.341667" stroke-linecap="round" stroke-linejoin="round"/>
<path d="M145.991 106.386C146.036 106.042 146.176 105.718 146.395 105.453C146.614 105.189 146.902 104.994 147.225 104.894C147.549 104.794 147.893 104.791 148.217 104.887C148.542 104.983 148.833 105.173 149.055 105.434C149.278 105.695 149.422 106.017 149.472 106.361C149.521 106.705 149.474 107.056 149.335 107.373C149.196 107.69 148.971 107.959 148.688 108.147C148.404 108.336 148.074 108.437 147.736 108.437C147.443 108.437 147.155 108.357 146.901 108.205" stroke="#EDEDED" stroke-width="0.341667" stroke-linecap="round" stroke-linejoin="round"/>
<path d="M138.556 106.309C138.575 105.837 138.765 105.39 139.088 105.055C139.411 104.72 139.844 104.522 140.301 104.499C140.783 104.55 141.229 104.784 141.554 105.154C141.878 105.525 142.057 106.006 142.057 106.505C142.057 107.003 141.878 107.485 141.554 107.855C141.229 108.226 140.783 108.459 140.301 108.51C139.908 108.504 139.53 108.351 139.237 108.08" stroke="#EDEDED" stroke-width="0.341667" stroke-linecap="round" stroke-linejoin="round"/>
<path d="M142.28 106.352C142.324 106.008 142.463 105.684 142.681 105.42C142.899 105.155 143.187 104.961 143.509 104.86C143.831 104.759 144.175 104.757 144.499 104.852C144.823 104.947 145.114 105.136 145.336 105.397C145.558 105.658 145.703 105.979 145.753 106.322C145.802 106.665 145.755 107.016 145.616 107.332C145.477 107.648 145.253 107.917 144.97 108.105C144.687 108.293 144.358 108.394 144.021 108.394" stroke="#EDEDED" stroke-width="0.341667" stroke-linecap="round" stroke-linejoin="round"/>
<path d="M151.849 110.703H134.715V112.72H151.849V110.703Z" stroke="#DDDDDD" stroke-width="0.341667" stroke-linecap="round" stroke-linejoin="round"/>
<path d="M138.961 126.652L138.743 124.954L137.641 116.212L137.458 114.776" stroke="#EDEDED" stroke-width="0.341667" stroke-linecap="round" stroke-linejoin="round"/>
<path d="M144.522 126.652L144.292 124.833L143.215 116.324L143.019 114.776" stroke="#EDEDED" stroke-width="0.341667" stroke-linecap="round" stroke-linejoin="round"/>
<path d="M148.584 114.771L150.083 126.657" stroke="#EDEDED" stroke-width="0.341667" stroke-linecap="round" stroke-linejoin="round"/>
<path d="M152.033 117.149H143.32H137.759H135.32" stroke="#EDEDED" stroke-width="0.341667" stroke-linecap="round" stroke-linejoin="round"/>
<path d="M152.88 122.339H143.975H138.414H136.164" stroke="#EDEDED" stroke-width="0.341667" stroke-linecap="round" stroke-linejoin="round"/>
<path d="M139.345 115.184C136.581 116.638 135.249 122.696 139.938 123.1C146.847 123.694 147.177 114.93 141.123 115.756" fill="#F9F9F9"/>
<path d="M139.345 115.184C136.581 116.638 135.249 122.696 139.938 123.1C146.847 123.694 147.177 114.93 141.123 115.756" stroke="#DDDDDD" stroke-width="0.683333" stroke-linecap="round" stroke-linejoin="round"/>
<path d="M143.975 122.339H138.414L137.758 117.149H143.319L143.975 122.339Z" fill="#EDEDED"/>
<path d="M153.966 121.557C154.082 123.53 157.723 121.359 157.473 119.63C157.222 117.902 153.828 119.269 153.966 121.557Z" fill="#FEBD9D" stroke="#EF8A66" stroke-width="0.25625" stroke-linecap="round" stroke-linejoin="round"/>
<path d="M153.348 118.899C153.481 120.877 157.581 118.706 157.314 116.973C157.047 115.24 153.193 116.616 153.348 118.899Z" fill="#FEBD9D" stroke="#EF8A66" stroke-width="0.25625" stroke-linecap="round" stroke-linejoin="round"/>
<path d="M153.06 116.917C153.202 118.891 157.598 116.719 157.31 114.991C157.022 113.262 152.897 114.629 153.06 116.917Z" fill="#FEBD9D" stroke="#EF8A66" stroke-width="0.25625" stroke-linecap="round" stroke-linejoin="round"/>
<path d="M152.442 114.47C152.588 116.263 157.122 114.294 156.826 112.725C156.529 111.155 152.271 112.398 152.442 114.47Z" fill="#FEBD9D" stroke="#EF8A66" stroke-width="0.25625" stroke-linecap="round" stroke-linejoin="round"/>
<path d="M139.345 115.184C136.581 116.638 135.249 122.696 139.938 123.1C146.847 123.694 147.177 114.93 141.123 115.756" stroke="#DDDDDD" stroke-width="0.683333" stroke-linecap="round" stroke-linejoin="round"/>
<path d="M122.845 69.1698C122.482 72.2787 118.445 74.1019 118.445 74.1019L107.243 84.1725C106.095 86.0602 102.968 87.0105 101.064 85.4324C99.9496 84.5122 99.2565 82.7277 99.6323 79.7564C99.3206 79.7565 99.0157 79.6623 98.7555 79.4855C97.4654 78.6642 96.668 76.0455 98.6052 72.9366C98.4674 73.0742 95.8873 75.6585 93.232 74.8759C92.7754 74.7502 92.3498 74.5262 91.9835 74.2186C91.6171 73.911 91.3184 73.5268 91.1069 73.0914C90.2719 71.3327 90.5642 68.4001 92.9481 64.3796C94.6432 61.5115 97.002 60.9955 99.0227 61.533C101.311 62.135 103.164 64.07 103.164 65.4761C103.669 64.8381 104.255 64.2726 104.905 63.7948C105.799 63.1541 106.905 62.7198 107.895 63.339C107.895 63.339 111.377 61.4083 113.356 62.6166C115.819 64.113 115.276 65.1536 117.672 65.317C119.455 65.4374 122.265 65.9018 122.778 67.983C122.876 68.3702 122.899 68.7735 122.845 69.1698Z" fill="#DD6819"/>
<path d="M103.165 65.4761L98.6138 72.928C98.2887 73.2412 97.9412 73.5287 97.5742 73.788C96.5513 74.519 94.9147 75.3532 93.2447 74.863C92.7881 74.7373 92.3625 74.5133 91.9962 74.2057C91.6298 73.8981 91.3311 73.5139 91.1196 73.0785C96.305 72.9667 98.1295 71.4746 97.0648 68.5377C96.0754 65.8029 95.0483 62.3672 99.0354 61.5201C100.595 61.9201 101.951 62.9123 102.831 64.2979C103.038 64.6546 103.153 65.0603 103.165 65.4761Z" fill="#CC5E0D"/>
<path d="M122.845 69.1698C122.482 72.2787 118.445 74.1019 118.445 74.1019L107.243 84.1725C106.095 86.0602 102.968 87.0105 101.064 85.4324C100.406 83.8063 100.244 82.0123 100.601 80.2892C100.957 78.5661 101.815 76.9958 103.06 75.7875C105.356 73.6375 103.674 72.0336 103.895 69.2042C104.116 66.3748 109.143 62.0189 112.742 65.9276C115.564 68.9935 120.875 65.2869 122.799 67.983C122.89 68.3716 122.906 68.7749 122.845 69.1698Z" fill="#CC5E0D"/>
<path d="M115.978 89.7453C110.943 89.2121 105.832 83.8328 105.832 83.8328C103.912 86.086 100.125 82.7191 102 79.9155C103.227 78.0708 105.148 79.1673 105.615 80.1735C106.394 79.6555 106.966 78.8652 107.224 77.948C107.483 77.0308 107.411 76.0483 107.022 75.1812C106.61 74.1166 106.432 72.9712 106.5 71.8272C108.204 69.1612 112.721 68.5506 112.721 68.5506C113.389 69.2757 114.201 69.8433 115.102 70.2144C116.003 70.5855 116.971 70.7514 117.94 70.7006C117.94 70.7006 119.489 73.8181 120.75 76.9872C120.775 77.056 120.808 77.1334 120.833 77.2022C121.188 78.1052 121.518 79.0082 121.777 79.8338C121.802 79.9155 121.823 79.9886 121.848 80.066C122.055 80.7181 122.209 81.3869 122.307 82.0655C122.712 85.4754 121.008 90.3 115.978 89.7453Z" fill="#FEBD9D"/>
<path d="M118.069 75.5639C118.069 75.6744 118.101 75.7825 118.161 75.8744C118.22 75.9664 118.305 76.038 118.404 76.0803C118.504 76.1226 118.613 76.1337 118.718 76.1121C118.823 76.0906 118.92 76.0373 118.996 75.9592C119.072 75.881 119.123 75.7814 119.144 75.6729C119.165 75.5645 119.155 75.4521 119.114 75.35C119.072 75.2478 119.003 75.1605 118.914 75.0991C118.824 75.0377 118.719 75.0049 118.612 75.0049C118.468 75.006 118.331 75.0653 118.23 75.1699C118.128 75.2744 118.07 75.416 118.069 75.5639Z" fill="#683F1D"/>
<path d="M115.276 76.6862C115.576 76.6862 115.819 76.4359 115.819 76.1272C115.819 75.8184 115.576 75.5682 115.276 75.5682C114.976 75.5682 114.733 75.8184 114.733 76.1272C114.733 76.4359 114.976 76.6862 115.276 76.6862Z" fill="#683F1D"/>
<path d="M114.638 79.9112C115.726 80.473 116.932 80.7465 118.149 80.7067C118.149 80.7067 117.915 82.8008 116.17 82.2418C114.646 81.7559 114.638 79.9112 114.638 79.9112Z" fill="white" stroke="#EF8A66" stroke-width="0.25625" stroke-linecap="round" stroke-linejoin="round"/>
<path d="M112.918 74.4846C113.118 75.1726 115.627 74.4846 115.352 73.3666C115.076 72.2486 112.63 73.53 112.918 74.4846Z" fill="#DD6819"/>
<path d="M117.18 73.1C117.143 73.8482 119.71 73.8998 119.71 73.2548C119.71 72.67 117.247 71.8917 117.18 73.1Z" fill="#DD6819"/>
<path d="M99.6323 79.7564C99.9433 77.6402 100.938 75.6936 102.455 74.2309" stroke="#FF79A0" stroke-width="0.25625" stroke-linecap="round" stroke-linejoin="round"/>
<path d="M107.895 63.3347C107.106 63.984 105.924 66.0953 105.465 67.0456" stroke="#FF79A0" stroke-width="0.25625" stroke-linecap="round" stroke-linejoin="round"/>
<path d="M107.193 69.1741C108.124 66.6199 109.915 65.4675 110.755 66.4479C111.594 67.4283 112.721 68.5463 112.721 68.5463" stroke="#FF79A0" stroke-width="0.25625" stroke-linecap="round" stroke-linejoin="round"/>
<path d="M117.94 70.7221C118.984 70.6791 119.977 69.5826 120.278 68.9462" stroke="#FF79A0" stroke-width="0.25625" stroke-linecap="round" stroke-linejoin="round"/>
<path d="M97.0523 72.4679C93.2029 73.0871 91.3033 67.2176 94.4304 62.5779" stroke="#FF79A0" stroke-width="0.25625" stroke-linecap="round" stroke-linejoin="round"/>
<path d="M100.91 67.0456C101.716 64.8956 99.0273 61.4255 97.5702 63.8077C95.9002 66.5339 98.3384 70.1502 100.91 69.8277" stroke="#FF79A0" stroke-width="0.25625" stroke-linecap="round" stroke-linejoin="round"/>
<path d="M98.6138 72.928C99.5354 70.1074 101.095 67.5531 103.165 65.4761C103.165 65.4761 101.996 67.9185 102.851 69.6557C101.366 70.6423 99.9498 71.7358 98.6138 72.928Z" fill="#FEBB94"/>
<path d="M102.455 81.7559C103.231 80.3412 104.58 80.4186 105.289 81.6097" stroke="#EF8A66" stroke-width="0.25625" stroke-linecap="round" stroke-linejoin="round"/>
<path d="M105.005 81.2313C103.406 80.8013 103.402 83.0115 105.102 82.6976" stroke="#EF8A66" stroke-width="0.25625" stroke-linecap="round" stroke-linejoin="round"/>
<path d="M116.621 75.1597C116.596 76.4497 117.598 77.1893 118.257 77.5462C118.917 77.9031 118.7 78.8362 118.654 78.9738" stroke="#EF8A66" stroke-width="0.25625" stroke-linecap="round" stroke-linejoin="round"/>
<path d="M105.836 83.85C106.092 83.5092 106.305 83.1365 106.47 82.7406" stroke="#EF8A66" stroke-width="0.25625" stroke-linecap="round" stroke-linejoin="round"/>
<path d="M113.068 79.4898C112.65 80.3068 111.368 80.4573 110.145 79.8338C108.922 79.2103 108.283 78.0364 108.684 77.2194C109.085 76.4024 110.383 76.2519 111.606 76.8797C112.83 77.5075 113.468 78.69 113.068 79.4898Z" fill="#F4AF90"/>
<path d="M121.848 80.0832C121.586 80.2079 121.295 80.2535 121.009 80.2147C120.723 80.1759 120.453 80.0542 120.232 79.8639C119.626 79.2404 119.856 77.9762 120.75 77.0044C120.775 77.0732 120.808 77.1506 120.833 77.2194C121.188 78.1224 121.518 79.0254 121.777 79.851C121.802 79.9327 121.823 80.0058 121.848 80.0832Z" fill="#F4AF90"/>
<path d="M270.54 59.5292V123.72H181.688V59.5292C181.688 57.8117 182.35 56.1646 183.529 54.9501C184.708 53.7357 186.307 53.0534 187.975 53.0534H264.277C265.941 53.0591 267.534 53.744 268.708 54.958C269.882 56.1719 270.541 57.8158 270.54 59.5292Z" stroke="#EDEDED" stroke-width="0.683333" stroke-linecap="round" stroke-linejoin="round"/>
<path d="M270.54 59.5292V59.8173H181.688V59.5292C181.688 57.8117 182.35 56.1646 183.529 54.9501C184.708 53.7357 186.307 53.0534 187.975 53.0534H264.277C265.941 53.0591 267.534 53.744 268.708 54.958C269.882 56.1719 270.541 57.8158 270.54 59.5292Z" stroke="#DDDDDD" stroke-width="0.683333" stroke-linecap="round" stroke-linejoin="round"/>
<path d="M258.528 56.4375C258.528 56.6707 258.461 56.8987 258.335 57.0925C258.209 57.2864 258.03 57.4374 257.821 57.5264C257.612 57.6155 257.381 57.6385 257.159 57.5927C256.937 57.5469 256.734 57.4343 256.574 57.2691C256.414 57.1039 256.305 56.8935 256.262 56.6647C256.218 56.4359 256.241 56.1988 256.329 55.9836C256.416 55.7684 256.563 55.5847 256.752 55.4558C256.94 55.3268 257.162 55.2584 257.388 55.2593C257.538 55.2593 257.687 55.2898 257.826 55.3491C257.964 55.4083 258.09 55.4952 258.196 55.6046C258.302 55.7141 258.386 55.844 258.443 55.9869C258.5 56.1299 258.529 56.283 258.528 56.4375Z" fill="#EDEDED"/>
<path d="M262.261 56.4375C262.261 56.6705 262.194 56.8983 262.068 57.0921C261.943 57.2858 261.764 57.4368 261.555 57.526C261.346 57.6152 261.116 57.6385 260.894 57.593C260.672 57.5476 260.468 57.4354 260.308 57.2706C260.148 57.1058 260.039 56.8959 259.995 56.6673C259.951 56.4388 259.974 56.2019 260.06 55.9866C260.147 55.7713 260.293 55.5873 260.482 55.4578C260.67 55.3284 260.891 55.2593 261.117 55.2593C261.42 55.2593 261.711 55.3834 261.926 55.6044C262.141 55.8253 262.261 56.125 262.261 56.4375Z" fill="#DDDDDD"/>
<path d="M265.989 56.4375C265.989 56.6705 265.921 56.8983 265.796 57.0921C265.67 57.2858 265.491 57.4368 265.282 57.526C265.073 57.6152 264.843 57.6385 264.621 57.593C264.4 57.5476 264.196 57.4354 264.036 57.2706C263.876 57.1058 263.767 56.8959 263.723 56.6673C263.679 56.4388 263.701 56.2019 263.788 55.9866C263.874 55.7713 264.021 55.5873 264.209 55.4578C264.397 55.3284 264.618 55.2593 264.845 55.2593C265.148 55.2593 265.439 55.3834 265.654 55.6044C265.868 55.8253 265.989 56.125 265.989 56.4375Z" fill="#EDEDED"/>
<path d="M183.582 87.4362C183.353 84.753 194.855 79.6661 196.755 83.592L192.997 87.4362C192.997 87.4362 185.236 90.6053 183.582 87.4362Z" fill="#93BEE5"/>
<path d="M189.211 68.2453C187.541 62.8961 187.416 62.2253 188.534 61.8254C189.653 61.4255 192.488 67.5014 192.81 68.2453C193.933 70.5867 194.798 73.0502 195.39 75.5897C195.887 77.9633 196.538 83.4286 196.642 84.7444C197.085 90.3 188.192 91.9899 187.804 87.6684C187.416 83.3469 187.386 81.9494 187.386 81.9494C187.386 81.9494 182.794 82.3794 182.151 78.862C181.508 75.3446 181.687 70.52 181.687 70.52C181.687 70.52 174.707 69.3289 174.949 67.4326C175.191 65.5363 188.852 69.3676 188.852 69.3676L189.211 68.2453Z" fill="#B25E47"/>
<path d="M181.687 70.5202C181.687 70.5202 174.707 69.3291 174.949 67.4328C175.191 65.5365 188.852 69.3678 188.852 69.3678L189.211 68.2584C187.541 62.9092 187.416 62.2384 188.534 61.8385C189.653 61.4386 192.488 67.5145 192.81 68.2584" stroke="#934735" stroke-width="0.25625" stroke-linecap="round" stroke-linejoin="round"/>
<path d="M188.851 69.3547C188.252 71.7252 188.348 74.2256 189.126 76.54" stroke="#934735" stroke-width="0.25625" stroke-linecap="round" stroke-linejoin="round"/>
<path d="M185.583 65.2525C186.677 65.8373 187.541 65.962 187.866 64.3538C188.192 62.7456 186.652 62.7069 186.155 62.7929C185.391 62.9219 185.111 64.9988 185.583 65.2525Z" fill="#683F1D"/>
<path d="M185.787 64.8397C185.616 65.4667 185.476 66.1026 185.37 66.7446C185.549 66.8392 186.622 67.2133 186.764 66.8392C186.928 66.1826 187.044 65.5142 187.111 64.8397H185.787Z" fill="#683F1D"/>
<path d="M184.81 67.2778C184.238 69.9137 181.282 84.3617 181.182 84.8347C181.082 85.3077 181.216 87.4921 181.395 87.5738C181.575 87.6555 182.606 86.0946 182.982 85.3034C183.357 84.5122 186.681 68.6581 186.885 67.9185C187.395 66.1168 185.186 65.5535 184.81 67.2778Z" fill="#683F1D"/>
<path d="M182.209 75.4779C180.777 75.8176 180.372 77.2237 181.429 78.1568C182.564 79.163 185.361 78.7158 185.491 77.4301C185.62 76.1444 183.403 75.1984 182.209 75.4779Z" fill="#B25E47" stroke="#934735" stroke-width="0.25625" stroke-linecap="round" stroke-linejoin="round"/>
<path d="M182.08 73.1731C180.61 72.9495 180.251 74.4631 181.299 75.6241C182.347 76.7851 185.808 77.0474 186.004 75.6671C186.2 74.2868 182.981 73.3107 182.08 73.1731Z" fill="#B25E47" stroke="#934735" stroke-width="0.25625" stroke-linecap="round" stroke-linejoin="round"/>
<path d="M180.777 70.5888C182.623 70.1588 186.622 72.9323 186.459 73.7966C186.263 74.8845 184.372 75.0479 181.708 73.8826C179.207 72.7904 179.875 70.8081 180.777 70.5888Z" fill="#B25E47" stroke="#934735" stroke-width="0.25625" stroke-linecap="round" stroke-linejoin="round"/>
<mask id="mask1_103_9745" style="mask-type:luminance" maskUnits="userSpaceOnUse" x="181" y="53" width="90" height="71">
<path d="M270.54 59.5292V123.72H181.688V59.5292C181.688 57.8117 182.35 56.1646 183.529 54.9501C184.708 53.7357 186.307 53.0534 187.975 53.0534H264.277C265.941 53.0591 267.534 53.744 268.708 54.958C269.882 56.1719 270.541 57.8158 270.54 59.5292Z" fill="white"/>
</mask>
<g mask="url(#mask1_103_9745)">
<path d="M269.609 91.5427C263.881 91.2546 259.138 96.5737 257.668 102.688C257.627 102.86 257.589 103.045 257.556 103.247C257.399 104.188 257.289 105.137 257.226 106.09C256.616 114.161 257.192 130.213 257.251 130.6C257.272 130.733 253.197 130.6 247.544 130.324C245.456 130.225 243.168 130.118 240.78 129.993C228.639 129.378 214.219 128.549 214.219 128.549L213.342 118.504C213.342 118.504 211.526 121.668 205.314 127.848C199.101 134.027 189.169 130.582 190.238 122.812C190.906 117.932 193.703 114.363 197.093 108.386C198.141 106.537 199.248 104.46 200.358 102.039C201.844 98.8226 203.281 95.7524 204.667 92.9789C205.272 91.7577 205.869 90.5924 206.449 89.5002C208.629 85.3593 210.583 82.2246 212.157 80.7583C216.887 76.3465 227.024 78.8878 229.725 79.7822C233.749 81.1313 237.925 81.942 242.15 82.1945C248.141 82.6245 257.238 85.2862 262.056 87.0148C264.835 87.9757 267.393 89.5139 269.571 91.5341L269.609 91.5427Z" fill="#A7CAF0"/>
<path d="M273.642 100.697C268.398 95.2794 260.436 92.9144 252.445 100.267C243.152 108.794 236.021 110.278 225.567 97.825C218.006 88.795 215.384 86.5203 206.449 89.5174C208.629 85.3765 210.582 82.2418 212.156 80.7755C216.887 76.3637 227.024 78.905 229.725 79.7994C233.75 81.1426 237.926 81.9476 242.15 82.1945C248.141 82.6245 257.238 85.2862 262.056 87.0148C264.835 87.9757 267.393 89.5139 269.571 91.5341C271.667 93.2369 272.89 96.6425 273.642 100.697Z" fill="#C3DCF8"/>
<path d="M204.516 116.195C201.176 119.927 198.175 111.834 197.093 108.386C198.141 106.537 199.248 104.46 200.358 102.039C201.844 98.8226 203.281 95.7524 204.667 92.9789C207.13 96.8489 203.802 100.409 203.569 102.164C202.959 106.855 209.305 110.837 204.516 116.195Z" fill="#93BEE5"/>
<path d="M183.583 87.4362C188.743 88.5585 196.755 83.592 196.755 83.592C196.755 83.592 201.168 103.892 202.32 108.394C203.473 112.897 210.846 130.531 196.475 131.253C187.253 131.718 186.635 113.662 186.088 107.719C185.541 101.777 183.583 87.4362 183.583 87.4362Z" fill="#A7CAF0"/>
<path d="M187.002 89.7582C190.972 90.0463 195.394 87.2943 195.394 87.2943" stroke="#83ADDF" stroke-width="0.25625" stroke-linecap="round" stroke-linejoin="round"/>
<path d="M196.755 83.592C196.755 83.592 201.168 103.892 202.32 108.394C202.951 110.85 205.431 117.214 205.222 122.61" stroke="#83ADDF" stroke-width="0.25625" stroke-linecap="round" stroke-linejoin="round"/>
<path d="M225.567 83.0717C228.139 87.9866 234.961 92.7123 243.194 86.1892C243.194 86.1892 244.079 83.4802 243.987 83.4802C243.895 83.4802 226.732 81.3302 226.732 81.3302L225.567 83.0717Z" fill="white"/>
<path d="M232.343 77.0001C230.222 76.5056 227.149 77.0603 225.028 80.4143C222.907 83.7683 222.636 86.5332 222.757 86.5031C222.878 86.473 226.097 84.3789 227.537 84.5337C228.978 84.6885 232.205 85.6689 232.205 85.6689L232.343 77.0001Z" fill="#FEBB94"/>
<path d="M241.9 77.9848C241.9 77.9848 246.588 78.0149 247.214 81.399C247.841 84.7831 246.112 88.8423 243.991 90.7171C241.87 92.5919 243.035 88.0081 235.42 85.8581L241.9 77.9848Z" fill="#FEBB94"/>
<path d="M244.188 81.9408C244.188 81.9408 241.583 86.0172 235.779 86.1075C229.976 86.1978 228.861 82.6374 228.861 82.6374C229.492 81.0206 230.247 77.572 230.732 75.1554C231.041 73.6289 231.241 72.5109 231.241 72.5109C231.241 72.5109 232.201 62.9391 242.163 63.5153L242.334 65.0848L244.188 81.9408Z" fill="#B25E47"/>
<path d="M230.731 75.25C231.04 73.7278 231.241 72.6055 231.241 72.6055L236.91 69.8664C236.91 69.8664 237.808 76.54 230.731 75.25Z" fill="#914839"/>
<path d="M213.341 118.504C212.541 109.078 212.541 101.446 212.541 101.446" stroke="#83ADDF" stroke-width="0.25625" stroke-linecap="round" stroke-linejoin="round"/>
</g>
<path d="M251.197 141.427C250.71 141.245 250.246 141.004 249.815 140.709C246.892 138.735 246.663 134.891 247.544 130.307C248.228 126.799 249.573 122.86 250.884 118.998C252.382 114.595 253.848 110.299 254.261 106.859C254.32 106.378 254.353 105.918 254.37 105.479C254.45 102.841 254.918 100.232 255.76 97.7391C258.156 90.7989 263.379 86.4301 269.592 91.5428C271.65 93.237 272.873 96.6426 273.625 100.698C273.892 102.147 274.101 103.682 274.272 105.247C274.84 110.562 274.923 116.276 275.178 120.533C276.435 141.143 271.637 149.374 251.197 141.427Z" fill="#A7CAF0"/>
<path d="M273.642 100.697C269.129 96.0362 262.595 93.6325 255.769 97.7304C258.165 90.7902 263.388 86.4214 269.6 91.5341C271.667 93.2369 272.89 96.6425 273.642 100.697Z" fill="#C3DCF8"/>
<path d="M257.251 130.582C257.271 130.716 253.197 130.582 247.544 130.307C245.456 130.208 243.168 130.101 240.78 129.976C236.697 128.084 234.159 125.345 236.334 121.419C242.254 110.751 253.13 125.53 253.698 114.969C254.082 107.728 255.785 106.154 257.225 106.107C256.616 114.161 257.18 130.213 257.251 130.582Z" fill="#93BEE5"/>
<path d="M258.641 99.5407C257.83 101.631 257.352 103.842 257.226 106.09C256.683 114.165 257.192 130.213 257.251 130.6" stroke="#83ADDF" stroke-width="0.25625" stroke-linecap="round" stroke-linejoin="round"/>
<path d="M251.197 141.427C250.71 141.244 250.247 141.003 249.815 140.709C254.499 141.745 261.505 142.678 264.59 139.965C269.454 135.699 266.365 130.23 269.053 127.22C271.742 124.21 275.621 123.238 274.289 105.26C274.857 110.574 274.94 116.289 275.195 120.546C276.435 141.143 271.638 149.373 251.197 141.427Z" fill="#93BEE5"/>
<path d="M239.482 105.247C240.225 101.807 236.025 101.957 236.025 101.957C236.397 98.7839 232.313 97.9024 231.37 101.003C228.051 99.9707 227.003 101.003 226.519 102.8L239.482 105.247Z" fill="#DDDDDD"/>
<path d="M233.821 102.288C234.367 102.288 234.81 101.832 234.81 101.269C234.81 100.706 234.367 100.25 233.821 100.25C233.274 100.25 232.831 100.706 232.831 101.269C232.831 101.832 233.274 102.288 233.821 102.288Z" fill="#F9F9F9" stroke="#DDDDDD" stroke-width="0.341667" stroke-linecap="round" stroke-linejoin="round"/>
<path d="M220.214 100.246L214.019 134.848L238.618 139.965L245.227 105.316L220.214 100.246Z" fill="#F9F9F9" stroke="#DDDDDD" stroke-width="0.341667" stroke-linecap="round" stroke-linejoin="round"/>
<path d="M227.792 123.173C226.539 126.54 226.464 130.079 227.04 131.262C227.04 131.262 229.387 131.713 231.733 125.156L227.792 123.173Z" fill="#93BEE5"/>
<path d="M230.977 116.663C225.349 114.672 222.661 113.468 221.646 113.185C220.632 112.901 216.966 112.583 216.382 113.185C215.797 113.787 215.755 114.552 215.964 115.335C216.173 116.117 215.547 116.723 215.459 117.532C215.371 118.34 216.315 118.585 216.123 119.389C215.931 120.194 215.288 121.075 215.73 121.969C216.173 122.864 215.313 123.775 216.123 124.859C216.933 125.943 225.233 126.467 227.053 126.067L230.627 127.714C230.627 127.714 236.914 121.062 230.977 116.663Z" fill="#B25E47"/>
<path d="M221.646 113.185C220.632 112.905 216.966 112.583 216.382 113.185C215.797 113.787 215.755 114.552 215.964 115.335C216.173 116.117 215.547 116.723 215.459 117.532C215.371 118.34 216.315 118.585 216.123 119.389C215.931 120.194 215.288 121.075 215.73 121.969C216.173 122.864 215.313 123.775 216.123 124.859" stroke="#934735" stroke-width="0.25625" stroke-linecap="round" stroke-linejoin="round"/>
<path d="M264.595 139.961C263.129 142.687 259.463 143.998 252.487 141.835C250.608 141.251 248.796 140.644 247.06 140.029C244.187 139.015 241.536 137.978 239.16 136.985C235.021 135.29 230.969 133.379 227.02 131.257C228.069 130.066 228.916 128.701 229.525 127.22C229.904 126.343 230.217 125.437 230.46 124.511C231.108 121.95 231.282 119.286 230.973 116.659C231.921 116.951 232.94 117.252 234.013 117.553C236.605 118.284 239.511 119.041 242.454 119.837C251.276 122.232 260.453 124.975 262.687 128.385C262.891 128.699 263.104 129.013 263.271 129.34C263.342 129.469 263.417 129.598 263.484 129.731C263.505 129.764 263.523 129.798 263.538 129.834C263.622 129.989 263.701 130.148 263.776 130.303C263.918 130.582 264.043 130.862 264.164 131.141C265.48 134.246 265.851 137.626 264.595 139.961Z" fill="#A7CAF0"/>
<path d="M230.978 116.663C241.081 119.798 259.401 123.371 262.708 128.389C263.281 129.26 263.776 130.182 264.186 131.146" stroke="#83ADDF" stroke-width="0.25625" stroke-linecap="round" stroke-linejoin="round"/>
<path d="M234.012 117.553C234.639 124.076 231.37 130.337 231.37 130.337" stroke="#83ADDF" stroke-width="0.25625" stroke-linecap="round" stroke-linejoin="round"/>
<path d="M264.59 139.965C263.125 142.691 259.459 144.003 252.483 141.84C250.604 141.255 248.792 140.649 247.055 140.034C251.151 141.143 260.799 143.289 264.59 139.965Z" fill="#93BEE5"/>
<path d="M242.149 63.597L242.321 65.1622C238.793 70.8296 233.971 72.6141 231.228 72.5883C226.693 71.423 225.145 67.2176 224.882 62.6983C224.817 61.6272 224.817 60.553 224.882 59.4819C225.084 56.4208 225.585 53.3884 226.376 50.4304C226.376 50.4304 239.995 43.903 240.939 57.0051C240.939 57.0051 243.861 56.4547 244.4 59.8001C244.859 62.5779 242.149 63.597 242.149 63.597Z" fill="#B25E47"/>
<path d="M227.069 59.4991C227.369 59.4991 227.612 59.2488 227.612 58.9401C227.612 58.6314 227.369 58.3811 227.069 58.3811C226.769 58.3811 226.526 58.6314 226.526 58.9401C226.526 59.2488 226.769 59.4991 227.069 59.4991Z" fill="#683F1D"/>
<path d="M230.86 58.7853C231.16 58.7853 231.403 58.535 231.403 58.2263C231.403 57.9176 231.16 57.6673 230.86 57.6673C230.56 57.6673 230.317 57.9176 230.317 58.2263C230.317 58.535 230.56 58.7853 230.86 58.7853Z" fill="#683F1D"/>
<path d="M230.042 55.212C230.1 55.9774 232.638 56.2741 232.785 55.8398C232.989 55.1862 229.896 53.4189 230.042 55.212Z" fill="#604730"/>
<path d="M225.194 56.3558C225.194 56.7858 227.954 56.9621 227.854 55.4958C227.787 54.4337 225.253 55.2034 225.194 56.3558Z" fill="#604730"/>
<path d="M240.233 61.1589C241.369 59.4389 243.155 59.6195 243.352 59.9463" stroke="#934735" stroke-width="0.25625" stroke-linecap="round" stroke-linejoin="round"/>
<path d="M240.717 60.5698C242.387 59.555 243.305 61.8297 241.184 61.8297" stroke="#934735" stroke-width="0.25625" stroke-linecap="round" stroke-linejoin="round"/>
<path d="M228.535 57.3147C228.994 58.2306 228.952 58.7853 228.652 59.3744C228.351 59.9635 227.428 61.3051 227.908 62.4962" stroke="#934735" stroke-width="0.25625" stroke-linecap="round" stroke-linejoin="round"/>
<path d="M231.507 62.6983C231.09 64.1216 229.445 65.0117 228.681 64.8483C228.681 64.8483 229.47 67.0542 230.86 66.4909C232.459 65.8244 231.507 62.6983 231.507 62.6983Z" fill="white" stroke="#934735" stroke-width="0.25625" stroke-linecap="round" stroke-linejoin="round"/>
<path d="M239.982 63.1842C240.295 63.4112 240.651 63.567 241.027 63.6411C241.403 63.7153 241.79 63.7061 242.162 63.6142" stroke="#934735" stroke-width="0.25625" stroke-linecap="round" stroke-linejoin="round"/>
<path d="M244.934 55.6678C246.496 57.878 244.145 58.8369 244.145 58.8369C243.908 58.475 243.594 58.1735 243.227 57.9554C242.996 57.8152 242.738 57.7292 242.471 57.7038C242.205 57.6783 241.936 57.7139 241.684 57.808C241.432 57.9021 241.204 58.0524 241.015 58.2481C240.826 58.4438 240.682 58.6801 240.592 58.9401C237.39 59.0089 238.772 56.4332 238.772 56.4332C235.899 57.6157 235.808 54.5842 237.043 53.2168C234.801 55.7968 231.954 53.2168 232.417 50.8819C231.624 53.4318 228.798 53.5307 229.173 51.4151C228.931 51.8497 228.636 52.2513 228.297 52.6105C226.355 54.6229 224.61 52.4729 225.345 50.8905C222.423 53.7543 221.17 50.5508 223.946 48.8308C221.746 46.9732 224.364 44.3244 226.122 45.7004C225.704 42.4023 229.011 42.2604 230.459 44.1825C231.027 40.5619 235.419 42.5399 235.595 44.2556C238.83 41.925 241.335 43.6407 241.022 47.429C242.329 45.6273 245.13 46.6851 244.053 51.299C246.742 51.1012 247.197 54.5369 244.934 55.6678Z" fill="#604730"/>
<path d="M243.226 57.9554C242.996 57.8152 242.738 57.7293 242.471 57.7038C242.204 57.6783 241.935 57.7139 241.684 57.808C241.432 57.9021 241.203 58.0524 241.015 58.2481C240.826 58.4438 240.682 58.6802 240.592 58.9401C237.39 59.0089 238.772 56.4332 238.772 56.4332C235.899 57.6157 235.807 54.5842 237.043 53.2168C234.801 55.7968 231.954 53.2168 232.417 50.8819C231.624 53.4318 228.798 53.5307 229.173 51.4151C228.931 51.8498 228.636 52.2514 228.297 52.6105C227.512 50.1638 229.269 46.9345 231.954 48.3965C232.309 46.4271 236.697 45.15 236.672 50.1165C238.296 47.7816 241.974 48.5814 240.233 53.0362C241.602 51.9827 244.75 53.8059 243.226 57.9554Z" fill="#473526"/>
<path d="M237.327 58.8197C237.715 59.6195 236.985 60.802 235.699 61.4685C234.413 62.135 233.052 62.0232 232.664 61.2234C232.275 60.4236 233.002 59.2411 234.292 58.5746C235.582 57.9081 236.939 58.0199 237.327 58.8197Z" fill="#A0503D"/>
<path d="M226.585 61.8598C226.385 62.4231 225.713 62.7198 224.886 62.7198C224.821 61.6487 224.821 60.5745 224.886 59.5034C226.113 60.0409 226.869 61.06 226.585 61.8598Z" fill="#A0503D"/>
<path d="M238.226 151.67V215.86H149.356V151.67C149.354 150.819 149.514 149.976 149.829 149.19C150.144 148.403 150.607 147.689 151.191 147.087C151.775 146.486 152.468 146.009 153.232 145.685C153.996 145.361 154.814 145.195 155.64 145.198H231.942C232.768 145.195 233.586 145.361 234.35 145.685C235.114 146.009 235.807 146.486 236.391 147.087C236.975 147.689 237.438 148.403 237.753 149.19C238.068 149.976 238.228 150.819 238.226 151.67Z" stroke="#EDEDED" stroke-width="0.683333" stroke-linecap="round" stroke-linejoin="round"/>
<path d="M238.226 151.67V151.962H149.356V151.67C149.354 150.819 149.514 149.976 149.829 149.19C150.144 148.403 150.607 147.689 151.191 147.087C151.775 146.486 152.468 146.009 153.232 145.685C153.996 145.361 154.814 145.195 155.64 145.198H231.942C232.768 145.195 233.586 145.361 234.35 145.685C235.114 146.009 235.807 146.486 236.391 147.087C236.975 147.689 237.438 148.403 237.753 149.19C238.068 149.976 238.228 150.819 238.226 151.67Z" stroke="#DDDDDD" stroke-width="0.683333" stroke-linecap="round" stroke-linejoin="round"/>
<path d="M226.197 148.578C226.197 148.811 226.13 149.039 226.004 149.232C225.879 149.426 225.7 149.577 225.491 149.666C225.282 149.756 225.052 149.779 224.83 149.733C224.608 149.688 224.404 149.576 224.244 149.411C224.084 149.246 223.975 149.036 223.931 148.808C223.887 148.579 223.91 148.342 223.996 148.127C224.083 147.912 224.229 147.728 224.418 147.598C224.606 147.469 224.827 147.4 225.053 147.4C225.357 147.4 225.647 147.524 225.862 147.745C226.077 147.966 226.197 148.265 226.197 148.578Z" fill="#EDEDED"/>
<path d="M228.782 149.756C229.413 149.756 229.926 149.229 229.926 148.578C229.926 147.927 229.413 147.4 228.782 147.4C228.15 147.4 227.638 147.927 227.638 148.578C227.638 149.229 228.15 149.756 228.782 149.756Z" fill="#DDDDDD"/>
<path d="M232.514 149.756C233.146 149.756 233.658 149.229 233.658 148.578C233.658 147.927 233.146 147.4 232.514 147.4C231.882 147.4 231.37 147.927 231.37 148.578C231.37 149.229 231.882 149.756 232.514 149.756Z" fill="#EDEDED"/>
<path d="M154.596 182.681C152.057 174.941 151.46 170.762 152.153 170.164C152.571 169.785 153.268 169.506 153.322 168.741C153.377 167.975 152.525 165.404 155.498 164.802C155.498 164.802 156.504 158.734 157.46 155.892C157.46 155.892 162.771 177.663 163.142 179.297C163.514 180.931 156.32 187.962 154.596 182.681Z" fill="#FEBD9D"/>
<path d="M155.497 164.802C155.303 165.776 155.164 166.761 155.08 167.752" stroke="#EF8A66" stroke-width="0.25625" stroke-linecap="round" stroke-linejoin="round"/>
<path d="M151.97 172.451C151.816 171.161 151.891 170.396 152.158 170.164C152.575 169.785 153.273 169.506 153.327 168.741C153.381 167.975 152.53 165.404 155.502 164.802C155.502 164.802 156.508 158.734 157.464 155.892" stroke="#EF8A66" stroke-width="0.25625" stroke-linecap="round" stroke-linejoin="round"/>
<path d="M180.416 142.87L157.15 149.628C155.792 150.023 155.001 151.476 155.384 152.875L159.901 169.367C160.284 170.766 161.695 171.58 163.053 171.186L186.319 164.428C187.677 164.033 188.468 162.58 188.085 161.181L183.568 144.689C183.185 143.29 181.774 142.476 180.416 142.87Z" fill="#F9F9F9" stroke="#DDDDDD" stroke-width="0.341667" stroke-linecap="round" stroke-linejoin="round"/>
<path d="M179.266 145.278L159.36 151.061C158.461 151.322 157.938 152.284 158.191 153.209L162.125 167.574C162.378 168.5 163.313 169.039 164.211 168.778L184.118 162.995C185.017 162.734 185.54 161.772 185.286 160.847L181.353 146.482C181.099 145.556 180.165 145.017 179.266 145.278Z" stroke="#EDEDED" stroke-width="0.341667" stroke-linecap="round" stroke-linejoin="round"/>
<path d="M173.496 159.177C173.503 159.299 173.503 159.421 173.496 159.543C173.431 160.468 173.118 161.356 172.59 162.108C172.063 162.86 171.342 163.445 170.51 163.799C169.677 164.153 168.766 164.26 167.877 164.11C166.988 163.96 166.158 163.558 165.479 162.949C164.799 162.34 164.298 161.548 164.032 160.662C163.765 159.776 163.743 158.831 163.969 157.933C164.195 157.035 164.659 156.22 165.309 155.578C165.959 154.937 166.77 154.494 167.651 154.301C167.98 154.224 168.316 154.187 168.653 154.189C169.29 154.189 169.92 154.317 170.509 154.568C171.097 154.818 171.631 155.185 172.082 155.649C172.532 156.112 172.89 156.662 173.134 157.267C173.378 157.873 173.504 158.522 173.505 159.177H173.496Z" stroke="#EDEDED" stroke-width="0.341667" stroke-linecap="round" stroke-linejoin="round"/>
<path d="M173.479 159.53C173.421 160.358 173.164 161.157 172.73 161.857C172.297 162.556 171.701 163.133 170.996 163.536C170.291 163.938 169.501 164.153 168.695 164.162C167.889 164.171 167.094 163.972 166.382 163.585C167.321 161.628 168.632 158.855 168.632 158.855L173.479 159.53Z" stroke="#EDEDED" stroke-width="0.341667" stroke-linecap="round" stroke-linejoin="round"/>
<path d="M173.496 159.177C173.502 159.299 173.502 159.421 173.496 159.543L168.661 158.881L172.318 155.901C173.084 156.81 173.502 157.974 173.496 159.177Z" stroke="#EDEDED" stroke-width="0.341667" stroke-linecap="round" stroke-linejoin="round"/>
<path d="M172.302 155.901L168.645 158.881C168.645 158.881 168.018 156.116 167.643 154.301C167.971 154.224 168.308 154.187 168.645 154.189C169.338 154.188 170.023 154.341 170.654 154.636C171.285 154.931 171.847 155.363 172.302 155.901Z" fill="#DDDDDD" stroke="#DDDDDD" stroke-width="0.341667" stroke-linecap="round" stroke-linejoin="round"/>
<path d="M179.003 157.346C179.917 157.014 179.074 156.533 179.679 156.266C180.564 155.879 180.852 150.246 176.919 151.403C173.938 152.263 176.109 157.272 177.571 156.812C177.967 156.688 177.955 157.728 179.003 157.346Z" fill="#F9F9F9" stroke="#DDDDDD" stroke-width="0.341667" stroke-linecap="round" stroke-linejoin="round"/>
<path d="M177.93 153.218C177.542 153.936 177.851 154.439 178.486 154.68C179.55 155.088 177.968 156.374 177.621 155.669C177.241 154.895 179.321 155.411 178.874 157.148" stroke="#DDDDDD" stroke-width="0.341667" stroke-linecap="round" stroke-linejoin="round"/>
<path d="M178.536 158.498C178.803 159.156 179.133 159.272 179.638 159.121C180.143 158.971 180.164 158.61 180.03 158.085L178.536 158.498Z" fill="#F9F9F9" stroke="#EDEDED" stroke-width="0.341667" stroke-linecap="round" stroke-linejoin="round"/>
<path d="M178.105 158.081C178.348 157.651 179.775 157.389 179.976 157.436C180.176 157.483 180.356 158.081 180.093 158.236C179.541 158.489 178.953 158.647 178.352 158.704C178.291 158.686 178.236 158.654 178.189 158.611C178.143 158.567 178.106 158.514 178.083 158.454C178.059 158.394 178.049 158.329 178.053 158.265C178.057 158.2 178.075 158.137 178.105 158.081Z" fill="#F9F9F9" stroke="#EDEDED" stroke-width="0.341667" stroke-linecap="round" stroke-linejoin="round"/>
<path d="M177.83 157.281C178.089 156.851 179.625 156.584 179.821 156.636C180.08 156.701 180.239 157.281 179.951 157.432C179.359 157.686 178.732 157.844 178.093 157.9C178.032 157.884 177.975 157.853 177.927 157.811C177.879 157.769 177.841 157.716 177.815 157.656C177.79 157.597 177.778 157.532 177.781 157.467C177.783 157.402 177.8 157.338 177.83 157.281Z" fill="#F9F9F9" stroke="#EDEDED" stroke-width="0.341667" stroke-linecap="round" stroke-linejoin="round"/>
<path d="M172.933 152.839L174.202 152.926" stroke="#EDEDED" stroke-width="0.341667" stroke-linecap="round" stroke-linejoin="round"/>
<path d="M175.429 148.857L175.984 150.117" stroke="#EDEDED" stroke-width="0.341667" stroke-linecap="round" stroke-linejoin="round"/>
<path d="M179.767 149.188L179.32 150.117" stroke="#EDEDED" stroke-width="0.341667" stroke-linecap="round" stroke-linejoin="round"/>
<path d="M158.408 168.177C156.642 171.432 158.04 175.332 160.174 176.395C162.307 177.457 163.188 170.714 163.443 169.011C163.698 167.309 163.702 164.733 163.885 163.443C164.069 162.153 162.892 161.134 162.119 163.103C161.347 165.073 160.98 166.277 160.98 166.277L158.408 168.177Z" fill="#FEBD9D"/>
<path d="M163.443 169.011C163.702 167.291 163.702 164.733 163.885 163.443C164.069 162.153 162.892 161.134 162.119 163.103C161.347 165.073 160.98 166.277 160.98 166.277L158.408 168.177" stroke="#EF8A66" stroke-width="0.25625" stroke-linecap="round" stroke-linejoin="round"/>
<mask id="mask2_103_9745" style="mask-type:luminance" maskUnits="userSpaceOnUse" x="149" y="145" width="90" height="71">
<path d="M238.226 151.67V215.86H149.356V151.67C149.354 150.819 149.514 149.976 149.829 149.19C150.144 148.403 150.607 147.689 151.191 147.087C151.775 146.486 152.468 146.009 153.232 145.685C153.996 145.361 154.814 145.195 155.64 145.198H231.942C232.768 145.195 233.586 145.361 234.35 145.685C235.114 146.009 235.807 146.486 236.391 147.087C236.975 147.689 237.438 148.403 237.753 149.19C238.068 149.976 238.228 150.819 238.226 151.67Z" fill="white"/>
</mask>
<g mask="url(#mask2_103_9745)">
<path d="M215.43 155.514L214.01 174.004L198.462 175.513C199.794 171.157 200.867 166.721 201.673 162.23C202.024 160.291 202.341 158.231 202.583 156.129L208.311 155.858L215.43 155.514Z" fill="#FEBD9D"/>
<path d="M209.584 157.599C208.95 160.136 205.472 161.934 201.698 162.222C202.048 160.282 202.366 158.223 202.608 156.12L208.336 155.849C209.234 156.258 209.76 156.825 209.584 157.599Z" fill="#F4A789"/>
<path d="M239.577 175.504V218.526H236.338C236.338 218.526 234.425 210.721 226.192 194.364C226.192 194.364 226.034 195.091 225.712 196.351C225.27 198.097 224.514 200.857 223.441 204.138C221.632 209.781 219.303 215.232 216.485 220.418C210.545 223.039 204.28 224.796 197.869 225.638C197.694 225.638 197.514 225.685 197.335 225.703C190.947 226.515 183.532 226.52 176.009 224.524C171.337 223.306 166.879 221.343 162.795 218.707C163.02 218.328 173.178 197.847 176.343 191.26C176.589 190.748 176.835 190.249 177.086 189.755C180.059 183.902 183.624 179.353 193.252 175.504C195.485 174.619 197.447 173.832 199.168 173.144C205.509 170.611 208.67 169.36 210.607 168.766C211.976 168.348 213.278 167.957 214.511 167.592C226.376 164.084 232.263 163.262 237.252 171.101C238.128 172.51 238.905 173.981 239.577 175.504Z" fill="#FEBB94"/>
<path d="M237.252 171.101C233.144 170.843 227.975 172.009 225.053 178.635C219.654 190.864 209 195.985 201.188 188.146C195.051 181.993 184.593 182.793 177.086 189.755C180.059 183.902 183.624 179.353 193.252 175.504C195.485 174.619 197.447 173.832 199.168 173.144C205.509 170.611 208.67 169.36 210.607 168.766C211.976 168.348 213.278 167.957 214.511 167.592C226.376 164.084 232.263 163.262 237.252 171.101Z" fill="#E56441"/>
<path d="M239.577 206.899V218.509H236.338C236.338 218.509 234.425 210.704 226.192 194.347C226.664 192.459 227.027 190.64 227.32 189.028C232.639 191.427 233.094 196.506 232.513 199.374C231.975 202.044 234.709 208.589 239.577 206.899Z" fill="#F8AB5D"/>
<path d="M195.285 197.301C194.45 201.799 190.814 209.685 184.322 220.951C183.324 222.585 182.191 224.128 180.936 225.561C179.278 225.304 177.633 224.959 176.009 224.529L178.063 218.53C179.228 213.891 181.403 211.822 186.088 210.894C190.246 210.064 186.764 196.966 195.285 197.301Z" fill="#F8AB5D"/>
<path d="M174.369 232.484C174.369 232.484 177.888 229.164 180.936 225.556C182.191 224.123 183.324 222.581 184.322 220.947C190.814 209.685 194.446 201.799 195.285 197.297C195.547 195.904 195.54 194.836 195.265 194.093" stroke="#F7AD2B" stroke-width="0.25625" stroke-linecap="round" stroke-linejoin="round"/>
<path d="M228.146 183.141C228.146 183.141 227.925 185.614 227.311 189.045C227.027 190.658 226.656 192.485 226.184 194.364" stroke="#F7AD2B" stroke-width="0.25625" stroke-linecap="round" stroke-linejoin="round"/>
<path d="M178.059 208.872C178.214 219.214 166.753 229.641 160.47 216.845C157.844 211.5 151.285 186.555 151.744 183.141C152.162 180.101 160.796 173.333 164.34 174.657C164.34 174.657 165.822 178.674 167.86 183.799C170.452 190.322 173.943 198.656 176.398 202.792C177.47 204.629 178.044 206.729 178.059 208.872Z" fill="#FEBB94"/>
<path d="M173.496 197.108C172.135 199.881 170.573 203.076 169.045 206.138C168.005 204.181 167.818 201.3 170.03 198.613C172.844 195.203 164.035 189.252 167.859 183.791C169.538 188.022 171.592 192.997 173.496 197.108Z" fill="#F8AB5D"/>
<path d="M173.55 197C173.55 197.035 173.512 197.069 173.495 197.108C172.134 199.881 170.573 203.076 169.045 206.138L167.613 209.032" stroke="#F7AD2B" stroke-width="0.25625" stroke-linecap="round" stroke-linejoin="round"/>
</g>
<path d="M198.655 146.664C196.567 154.426 194.709 158.674 207.564 159.543C207.564 159.543 215.722 150.083 214.612 136.349C214.612 136.349 207.343 130.329 201.047 142.055C201.047 142.055 198.738 142.966 198.475 143.289C198.212 143.611 198.388 145.615 198.655 146.664Z" fill="#FEBD9D"/>
<path d="M201.047 142.055C201.047 142.055 198.739 142.966 198.476 143.289C198.213 143.611 198.388 145.615 198.655 146.664" stroke="#EF8A66" stroke-width="0.25625" stroke-linecap="round" stroke-linejoin="round"/>
<path d="M202.805 143.719C203.105 143.719 203.348 143.469 203.348 143.16C203.348 142.851 203.105 142.601 202.805 142.601C202.505 142.601 202.262 142.851 202.262 143.16C202.262 143.469 202.505 143.719 202.805 143.719Z" fill="#5C1A55"/>
<path d="M203.276 138.636C204.354 137.867 206.245 142.347 204.875 142.33C204.324 142.33 201.965 139.574 203.276 138.636Z" fill="#BF8228"/>
<path d="M226.193 176.536C225.559 182.918 222.528 185.459 223.116 187.613C223.705 189.768 225.154 189.299 225.154 189.299C225.154 189.299 224.001 192.739 219.58 191.367C219.58 191.367 215.714 197.447 212.065 193.087C208.767 197.727 201.815 198.677 201.603 192.313C201.603 192.313 204.287 193.005 205.656 191.212C207.026 189.419 207.326 186.431 205.84 184.857C204.354 183.283 202.195 181.709 202.058 179.082C201.92 176.455 203.803 171.845 206.537 168.418C206.537 168.418 195.624 165.249 194.818 174.868L192.639 175.728C192.639 175.728 190.313 174.571 190.368 170.706C190.422 166.84 193.85 164.002 197.582 164.071C201.314 164.14 210.32 162.471 205.932 150.762C205.932 150.762 209.514 152.112 210.449 149.158C211.385 146.204 208.141 144.63 206.274 146.282C206.274 146.282 204.746 143.852 209.276 138.503C208.771 136.809 207.022 136.353 207.773 134.633C208.383 133.248 212.207 133.248 215.079 133.846C215.696 133.972 216.303 134.145 216.896 134.362C218.541 134.964 219.975 136.059 221.012 137.505C221.634 138.361 222.044 139.36 222.206 140.416C222.619 140.242 223.063 140.16 223.509 140.176C224.411 140.21 225.513 140.73 225.905 142.902C226.477 146.045 224.386 147.632 222.983 148.359C222.592 148.558 222.184 148.718 221.764 148.836C222.071 149.82 222.212 150.851 222.181 151.885C222.163 152.559 222.075 153.229 221.918 153.884C221.321 156.339 220.027 160.614 220.599 163.585C220.662 163.945 220.763 164.297 220.899 164.634C222.073 167.584 226.828 170.155 226.193 176.536Z" fill="#BF8228"/>
<path d="M222.966 148.38C222.576 148.58 222.167 148.74 221.747 148.857C221.747 148.857 219.789 149.348 219.012 145.822C218.39 142.996 219.931 141.092 222.206 140.438C222.619 140.263 223.063 140.181 223.509 140.197C219.392 143.891 221.392 146.892 222.966 148.38Z" fill="#B57724"/>
<path d="M226.193 176.536C225.559 182.918 222.528 185.459 223.116 187.613C223.705 189.768 225.154 189.299 225.154 189.299C225.154 189.299 224.001 192.739 219.58 191.367C219.58 191.367 215.714 197.447 212.065 193.087C208.767 197.727 201.815 198.677 201.603 192.313C201.603 192.313 204.287 193.005 205.656 191.212C207.026 189.419 207.326 186.431 205.84 184.857C204.354 183.283 202.195 181.709 202.058 179.082C201.92 176.455 203.803 171.845 206.537 168.418C206.537 168.418 195.624 165.249 194.818 174.868L192.639 175.728C192.639 175.728 190.313 174.571 190.368 170.706C190.422 166.84 193.85 164.002 197.582 164.071C201.314 164.14 210.32 162.471 205.932 150.762C205.932 150.762 209.514 152.112 210.449 149.158C211.385 146.204 208.141 144.63 206.274 146.282C206.274 146.282 204.746 143.852 209.276 138.503C208.771 136.809 207.022 136.353 207.773 134.633C208.383 133.248 212.207 133.248 215.079 133.846C213.159 135.059 211.873 136.964 212.942 139.943C215.568 147.253 214.829 150.771 212.554 153.893C210.278 157.014 207.706 163.353 209.894 168.418C212.082 173.483 208.867 171.153 209.831 181.176C210.796 191.199 223.108 185.093 222.724 176.928C222.377 169.549 218.031 167.068 220.565 163.598C220.628 163.958 220.729 164.309 220.866 164.647C222.073 167.584 226.828 170.155 226.193 176.536Z" fill="#B57724"/>
<path d="M206.212 148.049C207.406 147.284 208.537 147.352 209.193 147.838" stroke="#EF8A66" stroke-width="0.25625" stroke-linecap="round" stroke-linejoin="round"/>
<path d="M206.316 149.249C208.074 150.027 208.403 147.696 206.967 147.666" stroke="#EF8A66" stroke-width="0.25625" stroke-linecap="round" stroke-linejoin="round"/>
<path d="M215.384 137.621C217.309 138.241 220.19 141.358 220.19 141.358" stroke="#9B621F" stroke-width="0.25625" stroke-linecap="round" stroke-linejoin="round"/>
<path d="M222.206 140.438C219.931 141.087 218.39 142.996 219.012 145.822C219.789 149.348 221.747 148.857 221.747 148.857" stroke="#9B621F" stroke-width="0.25625" stroke-linecap="round" stroke-linejoin="round"/>
<path d="M219.701 142.059C221.463 141.332 223.567 141.023 224.369 143.319C225.17 145.615 223.997 147.395 222.206 148.707" stroke="#9B621F" stroke-width="0.25625" stroke-linecap="round" stroke-linejoin="round"/>
<path d="M210.838 143.461C214.428 144.57 218.975 144.278 218.975 144.278" stroke="#9B621F" stroke-width="0.25625" stroke-linecap="round" stroke-linejoin="round"/>
<path d="M211.827 149.876C214.963 150.672 218.925 148.328 219.551 147.4" stroke="#9B621F" stroke-width="0.25625" stroke-linecap="round" stroke-linejoin="round"/>
<path d="M218.908 145.198C219.417 143.753 220.857 142.803 221.926 144.231C222.995 145.658 221.392 147.172 220.093 145.594" stroke="#9B621F" stroke-width="0.25625" stroke-linecap="round" stroke-linejoin="round"/>
<path d="M206.542 168.44C209.581 164.746 212.144 161.796 210.842 156.464" stroke="#9B621F" stroke-width="0.25625" stroke-linecap="round" stroke-linejoin="round"/>
<path d="M212.09 193.109C213.931 190.21 211.088 185.953 210.654 183.146C210.22 180.338 210.124 176.816 213.547 172.993" stroke="#9B621F" stroke-width="0.25625" stroke-linecap="round" stroke-linejoin="round"/>
<path d="M216.712 160.347C219.267 167.042 219.668 168.121 218.282 173.135C216.896 178.149 216.061 180.634 218.282 184.212C220.749 188.177 219.977 189.613 219.576 191.367" stroke="#9B621F" stroke-width="0.25625" stroke-linecap="round" stroke-linejoin="round"/>
<path d="M205.381 146.092C205.544 147.004 204.696 147.929 203.494 148.152C202.291 148.376 201.185 147.821 201.022 146.905C200.859 145.989 201.707 145.069 202.909 144.845C204.111 144.622 205.218 145.177 205.381 146.092Z" fill="#F4AF90"/>
<path d="M238.225 162.454V215.86H149.356" stroke="#EDEDED" stroke-width="0.683333" stroke-linecap="round" stroke-linejoin="round"/>
</svg>
