<svg width="412" height="307" viewBox="0 0 412 307" fill="none" xmlns="http://www.w3.org/2000/svg">
<path d="M308.316 225.442L99.0974 219.503C94.3933 219.374 89.8982 217.55 86.4542 214.373C83.0102 211.196 80.8536 206.884 80.3884 202.244L70.2896 103.394C70.0208 100.748 70.3096 98.0757 71.1377 95.546C71.9659 93.0164 73.3154 90.6847 75.1007 88.6987C76.886 86.7128 79.0682 85.1158 81.509 84.0089C83.9499 82.9021 86.5962 82.3096 89.2802 82.2688L322.157 79.0801C324.926 79.043 327.671 79.5939 330.208 80.6956C332.744 81.7973 335.013 83.4244 336.862 85.4673C338.711 87.5103 340.096 89.9218 340.926 92.5395C341.755 95.1573 342.009 97.9207 341.671 100.644L328.112 208.622C327.507 213.359 325.146 217.705 321.488 220.813C317.829 223.922 313.134 225.572 308.316 225.442Z" fill="#B9D4F4"/>
<mask id="mask0_184_9682" style="mask-type:luminance" maskUnits="userSpaceOnUse" x="70" y="79" width="272" height="147">
<path d="M308.316 225.442L99.0974 219.503C94.3933 219.374 89.8982 217.55 86.4542 214.373C83.0102 211.196 80.8536 206.884 80.3884 202.244L70.2896 103.394C70.0208 100.748 70.3096 98.0757 71.1377 95.546C71.9659 93.0164 73.3154 90.6847 75.1007 88.6987C76.886 86.7128 79.0682 85.1158 81.509 84.0089C83.9499 82.9021 86.5962 82.3096 89.2802 82.2688L322.157 79.0801C324.926 79.043 327.671 79.5939 330.208 80.6956C332.744 81.7973 335.013 83.4244 336.862 85.4673C338.711 87.5103 340.096 89.9218 340.926 92.5395C341.755 95.1573 342.009 97.9207 341.671 100.644L328.112 208.622C327.507 213.359 325.146 217.705 321.488 220.813C317.829 223.922 313.134 225.572 308.316 225.442Z" fill="white"/>
</mask>
<g mask="url(#mask0_184_9682)">
<path d="M249.172 275.785H416.346C417.946 275.785 419.481 275.155 420.613 274.034C421.745 272.912 422.381 271.392 422.381 269.806V175.858C422.381 174.273 421.745 172.752 420.613 171.631C419.481 170.509 417.946 169.879 416.346 169.879H249.172C247.571 169.879 246.036 170.509 244.904 171.631C243.772 172.752 243.137 174.273 243.137 175.858V269.766C243.133 271.356 243.767 272.883 244.898 274.011C246.03 275.14 247.566 275.777 249.172 275.785Z" stroke="#B8D8C7" stroke-width="0.717462" stroke-linecap="round" stroke-linejoin="round"/>
<path d="M46.1492 250.833H214.771C216.372 250.833 217.907 250.203 219.039 249.082C220.171 247.96 220.807 246.44 220.807 244.854V107.619C220.807 106.034 220.171 104.513 219.039 103.392C217.907 102.271 216.372 101.641 214.771 101.641H46.1492C44.5485 101.641 43.0135 102.271 41.8817 103.392C40.7499 104.513 40.114 106.034 40.114 107.619V244.854C40.114 246.44 40.7499 247.96 41.8817 249.082C43.0135 250.203 44.5485 250.833 46.1492 250.833Z" stroke="#B8D8C7" stroke-width="0.717462" stroke-linecap="round" stroke-linejoin="round"/>
<path d="M111.771 143.453H119.939C120.364 143.454 120.775 143.3 121.094 143.021C121.413 142.742 121.618 142.357 121.669 141.938L122.313 136.198C122.339 135.958 122.314 135.714 122.239 135.483C122.164 135.252 122.041 135.04 121.878 134.859C121.715 134.679 121.515 134.535 121.292 134.436C121.069 134.337 120.827 134.285 120.582 134.285H111.127C110.883 134.286 110.641 134.338 110.419 134.437C110.196 134.536 109.996 134.68 109.833 134.861C109.67 135.041 109.547 135.253 109.472 135.484C109.397 135.714 109.371 135.958 109.397 136.198L110.041 141.938C110.106 142.351 110.314 142.728 110.63 143.005C110.946 143.282 111.35 143.44 111.771 143.453Z" stroke="#B8D8C7" stroke-width="0.717462" stroke-linecap="round" stroke-linejoin="round"/>
<path d="M116.841 134.285C116.841 134.285 120.059 133.967 120.703 129.662C120.703 129.662 117.806 130.499 116.881 132.532C116.881 132.532 116.479 127.988 114.306 127.549C114.306 127.549 113.34 130.937 114.869 132.611C114.869 132.611 113.702 130.698 110.725 130.738C111.006 131.578 111.491 132.336 112.136 132.947C112.781 133.559 113.568 134.005 114.427 134.246" fill="#B8D8C7"/>
<path d="M250.459 189.689H286.751C287.198 189.686 287.626 189.509 287.942 189.196C288.258 188.882 288.437 188.458 288.44 188.015V177.094C288.437 176.651 288.258 176.227 287.942 175.914C287.626 175.6 287.198 175.423 286.751 175.42H250.459C250.012 175.423 249.584 175.6 249.268 175.914C248.952 176.227 248.772 176.651 248.769 177.094V188.015C248.764 188.237 248.804 188.457 248.887 188.662C248.97 188.868 249.094 189.055 249.252 189.211C249.41 189.368 249.598 189.491 249.806 189.573C250.014 189.655 250.236 189.695 250.459 189.689Z" stroke="#B8D8C7" stroke-width="0.717462" stroke-linecap="round" stroke-linejoin="round"/>
<path d="M264.42 179.286H272.789C272.948 179.282 273.099 179.217 273.211 179.106C273.324 178.995 273.389 178.845 273.393 178.688C273.389 178.53 273.324 178.381 273.211 178.269C273.099 178.158 272.948 178.094 272.789 178.09H264.42C264.262 178.094 264.11 178.158 263.998 178.269C263.886 178.381 263.821 178.53 263.817 178.688C263.821 178.845 263.886 178.995 263.998 179.106C264.11 179.217 264.262 179.282 264.42 179.286Z" fill="#B8D8C7"/>
<path d="M250.459 207.944H286.751C287.198 207.941 287.626 207.764 287.942 207.451C288.258 207.137 288.437 206.713 288.44 206.27V195.349C288.437 194.906 288.258 194.482 287.942 194.169C287.626 193.855 287.198 193.678 286.751 193.675H250.459C250.012 193.678 249.584 193.855 249.268 194.169C248.952 194.482 248.772 194.906 248.769 195.349V206.27C248.764 206.492 248.804 206.712 248.887 206.917C248.97 207.123 249.094 207.31 249.252 207.466C249.41 207.623 249.598 207.746 249.806 207.828C250.014 207.91 250.236 207.95 250.459 207.944Z" stroke="#B8D8C7" stroke-width="0.717462" stroke-linecap="round" stroke-linejoin="round"/>
<path d="M264.42 197.541H272.789C272.948 197.537 273.099 197.473 273.211 197.362C273.324 197.251 273.389 197.101 273.393 196.944C273.389 196.786 273.324 196.637 273.211 196.525C273.099 196.414 272.948 196.35 272.789 196.346H264.42C264.262 196.35 264.11 196.414 263.998 196.525C263.886 196.637 263.821 196.786 263.817 196.944C263.821 197.101 263.886 197.251 263.998 197.362C264.11 197.473 264.262 197.537 264.42 197.541Z" fill="#B8D8C7"/>
<path d="M81.998 202.245H118.289C118.737 202.242 119.165 202.065 119.481 201.751C119.797 201.438 119.976 201.014 119.979 200.571V189.65C119.976 189.207 119.797 188.783 119.481 188.469C119.165 188.156 118.737 187.979 118.289 187.976H81.998C81.5508 187.979 81.1228 188.156 80.8066 188.469C80.4903 188.783 80.3113 189.207 80.3081 189.65V200.571C80.3026 200.792 80.3425 201.013 80.4255 201.218C80.5085 201.424 80.6327 201.61 80.7908 201.767C80.9488 201.924 81.1373 202.047 81.3448 202.129C81.5523 202.211 81.7745 202.251 81.998 202.245Z" stroke="#B8D8C7" stroke-width="0.717462" stroke-linecap="round" stroke-linejoin="round"/>
<path d="M95.959 191.802H104.328C104.487 191.798 104.638 191.733 104.75 191.622C104.862 191.511 104.927 191.361 104.931 191.204C104.927 191.047 104.862 190.897 104.75 190.786C104.638 190.674 104.487 190.61 104.328 190.606H95.959C95.8002 190.61 95.6491 190.674 95.5367 190.786C95.4244 190.897 95.3595 191.047 95.3555 191.204C95.3538 191.283 95.3683 191.361 95.3981 191.435C95.4278 191.508 95.4722 191.574 95.5286 191.63C95.5849 191.686 95.6521 191.73 95.7261 191.76C95.8001 191.789 95.8793 191.803 95.959 191.802Z" fill="#B8D8C7"/>
<path d="M128.589 202.245H164.88C165.328 202.242 165.756 202.065 166.072 201.751C166.388 201.438 166.567 201.014 166.57 200.571V189.65C166.567 189.207 166.388 188.783 166.072 188.469C165.756 188.156 165.328 187.979 164.88 187.976H128.589C128.142 187.979 127.714 188.156 127.398 188.469C127.081 188.783 126.902 189.207 126.899 189.65V200.571C126.894 200.792 126.934 201.013 127.017 201.218C127.1 201.424 127.224 201.61 127.382 201.767C127.54 201.924 127.728 202.047 127.936 202.129C128.143 202.211 128.366 202.251 128.589 202.245Z" stroke="#B8D8C7" stroke-width="0.717462" stroke-linecap="round" stroke-linejoin="round"/>
<path d="M142.551 191.802H150.919C151.078 191.798 151.229 191.733 151.342 191.622C151.454 191.511 151.519 191.361 151.523 191.204C151.519 191.047 151.454 190.897 151.342 190.786C151.229 190.674 151.078 190.61 150.919 190.606H142.551C142.392 190.61 142.241 190.674 142.128 190.786C142.016 190.897 141.951 191.047 141.947 191.204C141.945 191.283 141.96 191.361 141.99 191.435C142.019 191.508 142.064 191.574 142.12 191.63C142.177 191.686 142.244 191.73 142.318 191.76C142.392 191.789 142.471 191.803 142.551 191.802Z" fill="#B8D8C7"/>
<path d="M296.689 189.689H332.98C333.427 189.686 333.855 189.509 334.171 189.196C334.488 188.882 334.667 188.458 334.67 188.015V177.094C334.667 176.651 334.488 176.227 334.171 175.914C333.855 175.6 333.427 175.423 332.98 175.42H296.689C296.241 175.423 295.813 175.6 295.497 175.914C295.181 176.227 295.002 176.651 294.999 177.094V188.015C295.002 188.458 295.181 188.882 295.497 189.196C295.813 189.509 296.241 189.686 296.689 189.689Z" stroke="#B8D8C7" stroke-width="0.717462" stroke-linecap="round" stroke-linejoin="round"/>
<path d="M310.69 179.286H319.059C319.218 179.282 319.369 179.217 319.481 179.106C319.593 178.995 319.658 178.845 319.662 178.688C319.658 178.53 319.593 178.381 319.481 178.269C319.369 178.158 319.218 178.094 319.059 178.09H310.69C310.531 178.094 310.38 178.158 310.268 178.269C310.156 178.381 310.091 178.53 310.087 178.688C310.085 178.767 310.099 178.845 310.129 178.918C310.159 178.992 310.203 179.058 310.26 179.114C310.316 179.17 310.383 179.214 310.457 179.243C310.531 179.273 310.61 179.287 310.69 179.286Z" fill="#B8D8C7"/>
<path d="M296.689 207.944H332.98C333.427 207.941 333.855 207.764 334.171 207.451C334.488 207.137 334.667 206.713 334.67 206.27V195.349C334.667 194.906 334.488 194.482 334.171 194.169C333.855 193.855 333.427 193.678 332.98 193.675H296.689C296.241 193.678 295.813 193.855 295.497 194.169C295.181 194.482 295.002 194.906 294.999 195.349V206.27C295.002 206.713 295.181 207.137 295.497 207.451C295.813 207.764 296.241 207.941 296.689 207.944Z" stroke="#B8D8C7" stroke-width="0.717462" stroke-linecap="round" stroke-linejoin="round"/>
<path d="M310.69 197.541H319.059C319.218 197.537 319.369 197.473 319.481 197.362C319.593 197.251 319.658 197.101 319.662 196.944C319.658 196.786 319.593 196.637 319.481 196.525C319.369 196.414 319.218 196.35 319.059 196.346H310.69C310.531 196.35 310.38 196.414 310.268 196.525C310.156 196.637 310.091 196.786 310.087 196.944C310.085 197.023 310.099 197.101 310.129 197.174C310.159 197.248 310.203 197.314 310.26 197.37C310.316 197.426 310.383 197.47 310.457 197.499C310.531 197.529 310.61 197.543 310.69 197.541Z" fill="#B8D8C7"/>
<path d="M29.13 143.453H212.196C212.686 143.448 213.153 143.253 213.499 142.91C213.845 142.567 214.042 142.104 214.047 141.619V109.852C214.042 109.367 213.845 108.904 213.499 108.561C213.153 108.218 212.686 108.023 212.196 108.018H29.13C28.6407 108.023 28.173 108.218 27.827 108.561C27.4811 108.904 27.2844 109.367 27.2792 109.852V141.619C27.2844 142.104 27.4811 142.567 27.827 142.91C28.173 143.253 28.6407 143.448 29.13 143.453Z" stroke="#B8D8C7" stroke-width="0.717462" stroke-linecap="round" stroke-linejoin="round"/>
<path d="M29.13 182.873H212.196C212.686 182.868 213.153 182.673 213.499 182.33C213.845 181.988 214.042 181.524 214.047 181.04V149.272C214.042 148.787 213.845 148.324 213.499 147.981C213.153 147.639 212.686 147.444 212.196 147.438H29.13C28.6407 147.444 28.173 147.639 27.827 147.981C27.4811 148.324 27.2844 148.787 27.2792 149.272V181.04C27.2844 181.524 27.4811 181.988 27.827 182.33C28.173 182.673 28.6407 182.868 29.13 182.873Z" stroke="#B8D8C7" stroke-width="0.717462" stroke-linecap="round" stroke-linejoin="round"/>
<path d="M201.727 123.404H197.744V143.453H201.727V123.404Z" stroke="#B8D8C7" stroke-width="0.717462" stroke-linecap="round" stroke-linejoin="round"/>
<path d="M197.768 128.828H193.624V143.417H197.768V128.828Z" stroke="#B8D8C7" stroke-width="0.717462" stroke-linecap="round" stroke-linejoin="round"/>
<path d="M81.6758 162.761H77.6926V182.81H81.6758V162.761Z" stroke="#B8D8C7" stroke-width="0.717462" stroke-linecap="round" stroke-linejoin="round"/>
<path d="M77.7167 168.225H73.5725V182.813H77.7167V168.225Z" stroke="#B8D8C7" stroke-width="0.717462" stroke-linecap="round" stroke-linejoin="round"/>
<path d="M89.7992 162.761H85.816V182.81H89.7992V162.761Z" stroke="#B8D8C7" stroke-width="0.717462" stroke-linecap="round" stroke-linejoin="round"/>
<path d="M93.5305 162.34L89.7321 163.528L95.8244 182.647L99.6229 181.459L93.5305 162.34Z" stroke="#B8D8C7" stroke-width="0.717462" stroke-linecap="round" stroke-linejoin="round"/>
<path d="M85.8362 168.225H81.692V182.813H85.8362V168.225Z" stroke="#B8D8C7" stroke-width="0.717462" stroke-linecap="round" stroke-linejoin="round"/>
<path d="M135.421 123.404H131.438V143.453H135.421V123.404Z" stroke="#B8D8C7" stroke-width="0.717462" stroke-linecap="round" stroke-linejoin="round"/>
<path d="M131.458 128.828H127.313V143.417H131.458V128.828Z" stroke="#B8D8C7" stroke-width="0.717462" stroke-linecap="round" stroke-linejoin="round"/>
<path d="M174.738 123.404H170.755V143.453H174.738V123.404Z" stroke="#B8D8C7" stroke-width="0.717462" stroke-linecap="round" stroke-linejoin="round"/>
<path d="M178.476 122.956L174.678 124.144L180.77 143.263L184.569 142.075L178.476 122.956Z" stroke="#B8D8C7" stroke-width="0.717462" stroke-linecap="round" stroke-linejoin="round"/>
<path d="M170.779 128.828H166.635V143.417H170.779V128.828Z" stroke="#B8D8C7" stroke-width="0.717462" stroke-linecap="round" stroke-linejoin="round"/>
<path d="M77.7733 125.995L77.3308 120.056C77.3221 119.963 77.3336 119.869 77.3644 119.781C77.3951 119.693 77.4445 119.612 77.5092 119.544C77.5739 119.476 77.6524 119.423 77.7396 119.387C77.8268 119.352 77.9206 119.335 78.0147 119.338H81.4749C81.568 119.339 81.6601 119.358 81.7456 119.395C81.831 119.431 81.9081 119.485 81.972 119.552C82.036 119.619 82.0855 119.698 82.1176 119.785C82.1497 119.871 82.1638 119.964 82.1589 120.056L81.7163 125.995C81.7163 125.995 85.3374 128.307 85.2972 130.22C85.2569 131.695 84.3718 138.75 83.9694 141.859C83.9182 142.277 83.7138 142.662 83.3949 142.942C83.0761 143.221 82.6649 143.374 82.2393 143.373H77.2503C76.8247 143.374 76.4136 143.221 76.0947 142.942C75.7758 142.662 75.5714 142.277 75.5202 141.859C75.1179 138.75 74.2327 131.695 74.1925 130.22C74.1522 128.307 77.7733 125.995 77.7733 125.995Z" fill="#B8D8C7"/>
<path d="M343.723 215.478L-41.4009 211.691" stroke="#B8D8C7" stroke-width="0.717462" stroke-linecap="round" stroke-linejoin="round"/>
</g>
<path d="M201.735 157.842L193.889 219.942C193.869 220.101 193.882 220.262 193.93 220.416C193.977 220.569 194.056 220.71 194.163 220.831C194.269 220.952 194.4 221.048 194.547 221.115C194.694 221.182 194.854 221.217 195.016 221.218C195.289 221.22 195.553 221.125 195.76 220.949C195.968 220.773 196.103 220.529 196.142 220.261L205.115 159.396L201.735 157.842Z" fill="#683F1D" fill-opacity="0.96"/>
<path d="M226.117 166.73L233.963 228.83C233.983 228.989 233.97 229.151 233.922 229.304C233.875 229.457 233.796 229.599 233.689 229.719C233.583 229.84 233.452 229.937 233.305 230.003C233.158 230.07 232.998 230.105 232.836 230.106C232.563 230.109 232.299 230.013 232.092 229.837C231.884 229.661 231.749 229.417 231.71 229.149L222.737 168.284L226.117 166.73Z" fill="#683F1D" fill-opacity="0.96"/>
<path d="M188.056 164.299L177.514 226.001C177.488 226.159 177.497 226.321 177.539 226.476C177.581 226.631 177.656 226.776 177.759 226.9C177.861 227.024 177.99 227.126 178.135 227.197C178.28 227.269 178.439 227.309 178.6 227.316C178.874 227.33 179.144 227.245 179.359 227.076C179.573 226.907 179.719 226.666 179.767 226.399L191.395 165.973L188.056 164.299Z" fill="#683F1D" fill-opacity="0.96"/>
<path d="M217.587 158.121L223.381 220.42C223.396 220.578 223.445 220.731 223.524 220.869C223.603 221.008 223.711 221.128 223.84 221.222C223.969 221.316 224.117 221.382 224.274 221.415C224.43 221.449 224.592 221.449 224.749 221.417C225.012 221.361 225.246 221.214 225.408 221.001C225.571 220.789 225.651 220.527 225.634 220.261L221.249 158.878L217.587 158.121Z" fill="#683F1D" fill-opacity="0.96"/>
<path d="M234.365 102.677C229.98 101.959 215.455 152.341 215.455 152.341H229.416C229.416 152.341 222.577 160.432 222.335 161.19C222.094 161.947 219.599 172.191 219.599 172.191C236.296 166.929 232.595 152.301 232.595 152.301C229.014 141.34 234.003 127.309 236.136 115.71C238.268 104.111 234.365 102.677 234.365 102.677Z" fill="#C3DCF8"/>
<path d="M182.624 169.521C182.624 169.521 182.986 174.981 197.349 175.778C211.713 176.576 230.221 175.18 232.635 159.038C232.675 159.038 185.521 164.977 182.624 169.521Z" fill="#C3DCF8"/>
<path d="M229.095 151.225C225.192 137.115 240.28 105.586 234.405 102.637C228.37 99.6472 205.195 100.883 198.959 106.224C193.125 111.246 190.47 148.474 190.148 153.178C190.114 153.335 190.101 153.496 190.107 153.656C190.107 156.446 189.705 161.15 187.653 162.624C183.67 165.494 177.112 169.839 189.665 173.028C189.665 173.028 195.097 174.263 210.587 173.625C231.549 172.749 229.457 159.954 229.416 152.301C229.403 151.921 229.293 151.55 229.095 151.225Z" fill="white"/>
<path d="M173.088 222.812C173.088 222.812 174.859 231.182 175.261 231.86C175.663 232.537 178.681 234.012 182.785 232.816C186.889 231.62 187.009 230.106 187.009 230.106C187.009 230.106 186.205 220.5 186.205 219.424C186.205 218.347 172.404 216.434 173.088 222.812Z" fill="#FEBD9D"/>
<path d="M186.607 225.522C186.406 222.891 186.164 219.982 186.164 219.424C186.164 218.347 172.364 216.434 173.048 222.812C173.048 222.812 173.33 224.087 173.652 225.681C177.901 226.826 182.388 226.771 186.607 225.522Z" fill="#896068"/>
<path d="M174.818 230.425C174.818 230.425 174.335 231.182 174.335 235.128C174.335 239.074 168.3 248.002 168.703 250.434C169.105 252.865 186.084 253.463 187.613 251.67C189.142 249.876 187.532 236.643 187.653 235.248C187.774 233.853 188.297 231.222 186.929 229.548C186.929 229.548 185.521 230.943 184.394 231.182C183.267 231.421 182.221 229.149 180.008 228.751C177.796 228.352 176.347 230.943 176.106 231.182C175.864 231.421 174.899 231.102 174.818 230.425Z" fill="#323A45"/>
<path d="M175.542 239.752C175.542 239.752 178.962 237.4 184.394 240.071" stroke="white" stroke-width="0.717462" stroke-linecap="round" stroke-linejoin="round"/>
<path d="M174.215 243.498C174.215 243.498 178.962 240.19 184.434 244.176" stroke="white" stroke-width="0.717462" stroke-linecap="round" stroke-linejoin="round"/>
<path d="M216.823 227.356C216.823 227.356 219.559 234.929 221.047 236.284C222.536 237.639 226.519 237.759 229.255 236.284C231.991 234.81 231.871 232.577 231.871 232.577C231.871 232.577 229.497 220.181 228.974 219.862C228.451 219.544 216.823 223.729 216.823 227.356Z" fill="#FEBD9D"/>
<path d="M216.823 227.356C216.823 227.356 217.507 229.229 218.352 231.302C223.019 232.099 227.083 230.544 231.026 228.312C230.301 224.685 229.296 220.061 228.974 219.862C228.41 219.503 216.823 223.729 216.823 227.356Z" fill="#896068"/>
<path d="M219.8 234.172C219.8 234.172 219.438 234.291 220.484 237.64C221.007 239.433 215.214 248.641 215.334 250.913C215.455 253.185 220.283 253.583 224.105 253.703C229.939 253.862 233.762 252.706 234.084 248.999C234.405 245.292 233.4 238.078 233.4 236.484C233.4 234.889 232.877 233.056 231.549 230.903C231.549 230.903 231.67 233.893 230.462 234.451C229.255 235.009 227.002 232.856 225.272 233.295C223.542 233.733 222.818 235.049 222.094 235.806C221.37 236.563 220.002 234.61 219.8 234.172Z" fill="#323A45"/>
<path d="M221.571 241.904C221.571 241.904 224.709 238.795 230.221 241.187" stroke="white" stroke-width="0.717462" stroke-linecap="round" stroke-linejoin="round"/>
<path d="M219.84 245.452C219.84 245.452 224.789 241.386 230.181 245.133" stroke="white" stroke-width="0.717462" stroke-linecap="round" stroke-linejoin="round"/>
<path d="M188.578 151.504C188.578 151.504 170.111 161.588 165.243 170.836C160.374 180.083 167.978 209.539 167.858 215.757C167.737 221.975 168.542 222.891 172.042 224.207C175.543 225.522 183.147 225.243 186.325 222.891C190.429 219.862 188.538 214.322 187.613 207.625C186.687 200.929 186.245 181.159 186.245 181.159C186.245 181.159 194.935 174.184 199.2 172.111C200.019 171.719 200.908 171.489 201.816 171.433C202.118 171.414 202.421 171.468 202.699 171.589C202.976 171.711 203.22 171.896 203.41 172.131C203.599 172.366 203.729 172.642 203.787 172.937C203.846 173.232 203.832 173.537 203.747 173.825C202.701 177.492 201.212 186.699 201.816 190.924C202.379 194.87 205.155 204.636 210.587 221.177C211.673 224.446 212.035 227.077 213.363 228.193C218.955 232.856 231.106 227.874 232.394 223.529C232.917 221.735 231.589 215.637 229.859 208.981C227.405 199.454 224.105 188.772 224.347 187.616C224.749 185.663 229.939 167.727 228.571 159.675C225.272 140.184 210.023 148.036 188.578 151.504Z" fill="#323A45"/>
<path d="M171.036 183.032C174.391 183.032 177.111 180.088 177.111 176.456C177.111 172.823 174.391 169.879 171.036 169.879C167.681 169.879 164.961 172.823 164.961 176.456C164.961 180.088 167.681 183.032 171.036 183.032Z" stroke="#63737A" stroke-width="0.717462" stroke-linecap="round" stroke-linejoin="round"/>
<path d="M211.315 197.548C214.749 197.08 217.125 193.766 216.623 190.146C216.12 186.526 212.929 183.97 209.495 184.438C206.061 184.906 203.684 188.22 204.187 191.84C204.689 195.46 207.88 198.016 211.315 197.548Z" stroke="#63737A" stroke-width="0.717462" stroke-linecap="round" stroke-linejoin="round"/>
<path d="M186.245 181.159C186.245 181.159 186.003 178.688 185.239 177.373" stroke="#63737A" stroke-width="0.717462" stroke-linecap="round" stroke-linejoin="round"/>
<path d="M202.339 171.314C202.339 171.314 202.781 168.563 202.057 167.766" stroke="#63737A" stroke-width="0.717462" stroke-linecap="round" stroke-linejoin="round"/>
<path d="M197.35 168.085C197.35 168.085 200.327 167.846 206.764 168.085" stroke="#63737A" stroke-width="0.717462" stroke-linecap="round" stroke-linejoin="round"/>
<path d="M190.952 110.967C190.952 110.967 188.618 111.804 184.997 117.225C183.013 120.223 180.793 123.062 178.359 125.715C178.359 125.715 174.215 121.211 169.869 118.341C165.524 115.471 160.575 110.967 160.575 110.967C160.575 110.967 157.316 109.213 155.264 111.605C153.212 113.996 154.258 117.464 154.258 117.464C154.258 117.464 159.127 124.001 166.288 132.531C170.956 138.111 175.703 142.097 179.686 140.861C184.997 139.227 195.458 129.821 197.269 126.074C199.079 122.327 197.711 109.612 190.952 110.967Z" fill="#1C85E8"/>
<path d="M178.319 125.715C179.251 126.901 179.972 128.235 180.451 129.661" stroke="#323A45" stroke-width="0.717462" stroke-linecap="round" stroke-linejoin="round"/>
<path d="M160.736 111.167C160.736 111.167 157.518 108.536 155.224 108.775C152.247 109.094 152.287 108.417 150.396 108.815C149.511 109.015 147.902 109.652 146.212 111.725C145.368 112.715 144.601 113.768 143.918 114.874C143.918 114.874 142.148 111.127 141.062 111.725C139.975 112.323 142.55 118.063 143.436 118.66C144.321 119.258 146.936 118.222 147.861 118.66C148.787 119.099 151.281 118.302 151.281 118.302L154.701 117.465L155.586 118.421C155.727 118.571 155.908 118.676 156.108 118.726C156.308 118.776 156.518 118.767 156.713 118.7C158.081 118.149 159.178 117.091 159.771 115.751C161.179 112.841 160.736 111.167 160.736 111.167Z" fill="#FEBD9D"/>
<path d="M143.918 114.874C143.918 114.874 142.148 111.127 141.062 111.725C139.975 112.323 142.55 118.062 143.436 118.66C144.321 119.258 146.936 118.222 147.861 118.66" stroke="#89555F" stroke-width="0.717462" stroke-linecap="round" stroke-linejoin="round"/>
<path d="M156.592 113.718C156.592 113.718 155.425 116.747 153.977 118.7C152.529 120.653 150.356 120.733 149.39 120.095C148.425 119.457 149.712 115.073 149.994 113.997C150.275 112.921 151.161 111.924 151.724 113.12C152.166 114.037 151.523 116.229 151.643 117.983" fill="#FEBD9D"/>
<path d="M149.913 119.737C149.913 119.737 148.666 120.494 147.942 120.255C147.217 120.016 146.775 119.497 146.654 118.421C146.533 117.345 146.936 114.117 146.896 113.279C146.855 112.442 148.183 111.765 148.746 113.678C149.31 115.591 149.028 117.265 149.39 117.664" fill="#FEBD9D"/>
<path d="M147.177 119.178C146.584 119.471 145.944 119.66 145.286 119.736C144.32 119.816 143.878 119.178 143.556 117.225C143.194 114.873 142.912 112.482 143.757 112.362C144.602 112.243 145.045 113.518 145.366 114.834C145.688 116.149 145.89 116.986 146.091 117.026" fill="#FEBD9D"/>
<path d="M150.798 108.775C150.798 108.775 148.505 108.935 147.66 108.935C146.815 108.935 144.602 108.377 144.119 109.054C143.637 109.732 145.005 110.968 147.459 111.286C149.913 111.605 152.287 109.692 150.798 108.775Z" fill="#FEBD9D"/>
<path d="M156.592 120.534C156.592 120.534 159.771 121.57 161.983 118.421C163.955 115.631 163.19 113.24 163.19 113.24" stroke="#323A45" stroke-width="0.717462" stroke-linecap="round" stroke-linejoin="round"/>
<path d="M173.249 139.267C173.249 139.267 172.484 138.35 174.456 137.792C176.427 137.234 184.112 136.915 183.187 139.108" stroke="#323A45" stroke-width="0.717462" stroke-linecap="round" stroke-linejoin="round"/>
<path d="M156.592 113.718C156.592 113.718 155.425 116.747 153.977 118.7C152.529 120.653 150.356 120.733 149.39 120.095C148.425 119.457 149.712 115.073 149.994 113.997C150.275 112.921 151.161 111.924 151.724 113.12C152.166 114.037 151.523 116.229 151.643 117.983" stroke="#89555F" stroke-width="0.717462" stroke-linecap="round" stroke-linejoin="round"/>
<path d="M149.149 120.095C148.776 120.282 148.351 120.338 147.942 120.255C147.217 120.016 146.775 119.497 146.654 118.421C146.533 117.345 146.936 114.117 146.896 113.279C146.855 112.442 148.183 111.765 148.746 113.678C149.149 115.113 149.108 116.349 149.229 117.106" stroke="#89555F" stroke-width="0.717462" stroke-linecap="round" stroke-linejoin="round"/>
<path d="M146.855 119.298C146.36 119.521 145.829 119.656 145.286 119.697C144.32 119.776 143.878 119.139 143.556 117.186C143.194 114.834 142.912 112.442 143.757 112.323C144.602 112.203 145.045 113.479 145.366 114.794C145.688 116.109 145.89 116.946 146.091 116.986" stroke="#89555F" stroke-width="0.717462" stroke-linecap="round" stroke-linejoin="round"/>
<path d="M146.735 111.207C147.418 110.53 148.174 109.928 148.988 109.413" stroke="#89555F" stroke-width="0.717462" stroke-linecap="round" stroke-linejoin="round"/>
<path d="M195.378 89.7225C195.338 89.0028 195.379 88.2809 195.499 87.5701C195.821 85.896 196.666 82.3884 198.074 81.2325C200.166 79.5186 201.293 82.0695 201.293 82.0695C201.293 82.0695 202.741 80.1962 204.109 80.3955C205.477 80.5948 206.201 82.1891 206.201 82.1891C206.201 82.1891 208.414 80.3955 209.742 81.2724C210.549 81.7999 211.147 82.5889 211.432 83.5045C211.432 83.5045 212.84 81.9101 214.329 82.5478C215.817 83.1856 216.099 86.9722 216.099 86.9722C216.099 86.9722 217.588 87.8092 217.909 90.7189C218.272 93.8279 216.743 98.4117 213.604 103.673C213.604 103.673 207.127 92.114 203.023 90.4798C198.919 88.8456 198.959 91.8748 197.672 91.9546C196.545 91.9944 195.579 91.8749 195.378 89.7225Z" fill="#323A45"/>
<path d="M196.183 111.286C196.183 111.286 191.154 111.884 197.028 106.623C202.097 102.079 218.996 103.354 221.168 107.261C222.778 110.17 224.83 117.943 217.99 122.606C211.15 127.27 199.241 122.327 196.183 111.286Z" fill="#1C85E8"/>
<path d="M205.839 109.812C205.839 109.812 210.546 109.612 214.489 109.453C218.432 109.293 224.186 109.373 227.364 113.678C231.026 118.581 225.514 135.481 224.709 139.785C223.904 144.09 227.002 149.272 226.841 152.819C226.761 154.852 224.186 160.193 212.759 161.19C199.844 162.346 188.458 159.715 187.211 152.341C186.366 147.399 189.665 143.931 188.538 135.879C187.935 131.654 187.17 117.983 188.619 114.116C190.067 110.25 192.481 108.974 205.839 109.812Z" fill="#C3DCF8"/>
<path d="M201.011 105.905C201.011 105.905 200.448 110.329 200.206 111.485C199.965 112.641 200.608 115.91 205.276 115.87C210.305 115.83 213.443 111.844 213.564 110.25C213.685 108.655 213.282 100.963 213.966 98.4116C214.65 95.8607 208.213 97.3354 205.437 98.9298C202.66 100.524 200.729 104.59 201.011 105.905Z" fill="#FEBD9D"/>
<path d="M209.34 105.547C206.724 106.145 203.506 108.377 200.729 107.938C200.649 108.616 200.528 109.333 200.448 109.971C204.149 110.569 207.65 108.257 209.34 105.547Z" fill="#896068"/>
<path d="M200.608 108.895C200.608 108.895 199.965 113.479 203.867 115.751C203.867 115.751 208.374 115.352 211.673 112.163C212.282 111.563 212.763 110.849 213.088 110.061C213.412 109.274 213.574 108.43 213.564 107.579V107.221C213.564 107.221 219.881 107.3 221.691 109.174C225.151 112.761 210.949 118.461 203.224 119.657C203.224 119.657 196.062 115.711 194.372 111.685C192.682 107.659 200.045 109.054 200.608 108.895Z" fill="#1C85E8"/>
<path d="M201.896 117.146C200.679 120.939 199.896 124.857 199.562 128.824" stroke="#323A45" stroke-width="0.717462" stroke-linecap="round" stroke-linejoin="round"/>
<path d="M200.488 129.303C200.528 128.784 200.247 127.19 199.724 127.15C199.2 127.11 198.597 128.625 198.557 129.143C198.539 129.396 198.621 129.646 198.787 129.84C198.952 130.033 199.187 130.155 199.442 130.179C199.57 130.196 199.7 130.185 199.823 130.149C199.947 130.113 200.061 130.051 200.16 129.969C200.258 129.887 200.338 129.785 200.395 129.67C200.451 129.555 200.483 129.43 200.488 129.303Z" fill="#1C85E8"/>
<path d="M206.603 117.265C206.293 121.228 206.441 125.213 207.046 129.143" stroke="#323A45" stroke-width="0.717462" stroke-linecap="round" stroke-linejoin="round"/>
<path d="M208.092 129.462C208.012 128.944 207.368 127.469 206.845 127.549C206.322 127.628 206.08 129.223 206.161 129.741C206.2 129.999 206.34 130.232 206.551 130.388C206.761 130.545 207.026 130.613 207.287 130.578C207.539 130.527 207.761 130.383 207.911 130.176C208.06 129.969 208.125 129.714 208.092 129.462Z" fill="#1C85E8"/>
<path d="M191.918 147.398C193.216 145.325 194.052 143.001 194.372 140.583C194.41 140.207 194.596 139.862 194.89 139.623C195.185 139.384 195.563 139.27 195.941 139.307C198.919 139.626 205.557 140.224 210.546 139.785C210.737 139.768 210.929 139.789 211.111 139.846C211.293 139.903 211.462 139.996 211.608 140.118C211.754 140.241 211.874 140.39 211.961 140.559C212.049 140.728 212.101 140.912 212.116 141.101C212.277 142.815 213.041 145.724 216.018 148.554C216.263 148.754 216.421 149.04 216.461 149.352C216.849 151.307 217.025 153.298 216.984 155.291C216.823 158.041 198.154 159.914 191.717 154.254C191.563 154.112 191.44 153.939 191.357 153.746C191.274 153.554 191.232 153.347 191.234 153.138C191.274 152.062 191.435 149.83 191.717 147.996C191.747 147.787 191.815 147.584 191.918 147.398Z" fill="#1C85E8"/>
<path d="M195.74 91.5959C195.74 91.5959 195.66 95.5021 195.298 98.8502C194.936 102.198 195.298 106.663 200.729 108.058C206.161 109.453 211.432 105.387 213.403 100.046C215.375 94.7049 215.455 87.4904 208.535 84.6604C201.615 81.8305 196.062 85.3779 195.74 91.5959Z" fill="#FEBD9D"/>
<path d="M215.978 95.0239C215.455 97.535 215.093 98.8902 215.093 98.8902L213.403 97.1364C213.403 97.1364 210.506 96.7378 210.104 91.596C210.074 91.1634 209.933 90.7456 209.693 90.3826C209.454 90.0197 209.124 89.7238 208.736 89.5234C206.362 88.2877 205.115 90.1212 200.488 89.8024C198.919 89.6828 196.505 89.4436 196.585 87.0521C196.786 80.8341 206.483 81.3124 211.07 84.1424C215.656 86.9724 216.501 92.5526 215.978 95.0239Z" fill="#323A45"/>
<path d="M211.472 97.4948C211.472 97.4948 212.518 95.1432 214.248 95.3823C216.099 95.6215 216.26 101.122 211.472 101.441" fill="#FEBD9D"/>
<path d="M198.275 94.4258C198.348 94.9675 198.362 95.5154 198.315 96.06C198.29 96.6175 198.181 97.1682 197.993 97.6942C197.953 97.8138 197.873 97.9732 197.832 98.0928C197.792 98.2124 197.752 98.2921 197.712 98.4117C197.663 98.5837 197.677 98.7672 197.752 98.9298C198.027 99.3386 198.441 99.6358 198.919 99.7669C198.629 99.8468 198.323 99.8468 198.034 99.7669C197.715 99.6872 197.432 99.5049 197.229 99.2487C197.11 99.1117 197.027 98.9473 196.987 98.7704C196.947 98.6 196.947 98.4227 196.987 98.2522C197.028 98.1017 197.082 97.9549 197.148 97.8138C197.194 97.7036 197.248 97.5971 197.309 97.4949C197.712 96.4985 197.913 95.4621 198.275 94.4258Z" fill="#323A45"/>
<path d="M200.528 103.035C200.528 103.035 200.81 102.438 201.494 102.956C202.178 103.474 202.459 103.275 202.821 102.836C203.183 102.398 203.344 103.235 204.149 102.916" stroke="#323A45" stroke-width="0.717462" stroke-linecap="round" stroke-linejoin="round"/>
<path d="M203.988 93.4295C203.921 93.2971 203.882 93.1523 203.874 93.0041C203.866 92.856 203.889 92.7079 203.942 92.5691C203.995 92.4304 204.076 92.3041 204.181 92.1983C204.286 92.0925 204.412 92.0096 204.552 91.9547C205.356 91.596 206.684 92.1938 207.448 92.991C208.213 93.7882 207.811 94.1868 206.885 93.7882C205.96 93.3896 205.557 93.3099 204.753 93.5889C204.626 93.6511 204.481 93.6692 204.343 93.6403C204.204 93.6114 204.079 93.5371 203.988 93.4295Z" fill="#323A45"/>
<path d="M198.275 93.0309C198.399 92.8088 198.438 92.5503 198.387 92.3018C198.335 92.0533 198.196 91.8313 197.993 91.6757C197.43 91.2771 196.505 91.6757 196.022 92.3134C195.579 92.8715 195.78 93.1903 196.384 93.0309C196.987 92.8715 197.229 92.7918 197.752 93.1106C197.834 93.1622 197.932 93.1826 198.029 93.1679C198.125 93.1533 198.212 93.1046 198.275 93.0309Z" fill="#323A45"/>
<path d="M214.369 97.5747C214.233 97.4933 214.083 97.4391 213.926 97.4153C213.884 97.4091 213.841 97.4177 213.804 97.4395C213.767 97.4613 213.739 97.495 213.725 97.5348C213.621 97.7741 213.566 98.0316 213.564 98.2922C213.552 98.6672 213.456 99.0348 213.282 99.3684C213.224 99.4602 213.148 99.5394 213.058 99.6011C212.968 99.6628 212.866 99.7057 212.759 99.7271C212.669 99.7598 212.573 99.7734 212.478 99.767C212.397 99.767 212.276 99.7271 212.196 99.7271C212.518 99.5278 212.759 99.3285 212.759 99.1292C212.759 98.9299 212.799 98.611 212.84 98.2523C212.852 97.8447 213.025 97.4582 213.322 97.1761C213.421 97.0838 213.549 97.0276 213.685 97.0167C213.81 97.015 213.934 97.0423 214.047 97.0964C214.194 97.2253 214.305 97.3902 214.369 97.5747Z" fill="#323A45"/>
<path d="M197.229 96.4985C197.306 96.5097 197.385 96.5049 197.46 96.4844C197.535 96.4639 197.605 96.4282 197.666 96.3795C197.726 96.3308 197.776 96.2701 197.811 96.2015C197.847 96.1328 197.868 96.0575 197.873 95.9804L197.913 95.6216C197.924 95.5452 197.919 95.4673 197.899 95.3928C197.878 95.3184 197.842 95.249 197.793 95.189C197.744 95.1291 197.682 95.0799 197.613 95.0446C197.544 95.0093 197.468 94.9886 197.39 94.9839C197.313 94.9727 197.234 94.9775 197.159 94.998C197.084 95.0185 197.014 95.0543 196.953 95.103C196.893 95.1517 196.843 95.2123 196.807 95.281C196.772 95.3497 196.751 95.425 196.746 95.5021L196.706 95.8608C196.693 95.9374 196.697 96.0158 196.717 96.0908C196.738 96.1658 196.774 96.2357 196.823 96.2959C196.872 96.3561 196.934 96.4053 197.004 96.4403C197.074 96.4752 197.151 96.495 197.229 96.4985Z" fill="#323A45"/>
<path d="M204.431 97.1763C204.508 97.1875 204.586 97.1826 204.662 97.1621C204.737 97.1417 204.807 97.1059 204.867 97.0572C204.928 97.0085 204.978 96.9479 205.013 96.8792C205.049 96.8105 205.07 96.7352 205.074 96.6581L205.115 96.2994C205.126 96.223 205.121 96.145 205.1 96.0706C205.08 95.9961 205.044 95.9267 204.994 95.8667C204.945 95.8068 204.884 95.7576 204.815 95.7223C204.745 95.687 204.669 95.6663 204.592 95.6616C204.514 95.6505 204.436 95.6553 204.361 95.6758C204.285 95.6963 204.215 95.732 204.155 95.7807C204.094 95.8294 204.045 95.89 204.009 95.9587C203.973 96.0274 203.953 96.1027 203.948 96.1798L203.908 96.5385C203.898 96.6905 203.946 96.8405 204.043 96.9587C204.14 97.0769 204.279 97.1545 204.431 97.1763Z" fill="#323A45"/>
<path d="M225.192 112.761C225.654 112.754 226.112 112.839 226.541 113.01C226.969 113.181 227.359 113.435 227.686 113.758C228.491 114.515 230.181 116.109 233.48 119.178C238.791 124.161 239.515 125.117 239.515 125.117C239.515 125.117 244.182 128.745 244.665 133.249C245.148 137.753 242.09 143.811 234.124 138.749C226.157 133.687 222.295 130.299 220.686 126.871C219.237 123.802 220.082 112.881 225.192 112.761Z" fill="#1C85E8"/>
<path d="M237.141 129.462C238.626 126.426 240.657 123.684 243.136 121.371C247.32 117.425 252.269 112.562 253.195 111.605C254.12 110.649 256.373 108.457 259.431 110.808C262.489 113.16 260.719 117.265 260.719 117.265C260.719 117.265 255.367 125.795 250.942 133.05C246.516 140.304 242.01 142.695 236.296 139.945C230.583 137.195 237.141 129.462 237.141 129.462Z" fill="#1C85E8"/>
<path d="M253.195 112.203C253.195 112.203 255.488 109.134 256.413 108.058C257.339 106.982 259.029 105.347 261.242 105.985C263.455 106.623 264.621 105.268 266.311 107.021C268.001 108.775 269.168 112.004 270.254 113.2C271.34 114.395 271.059 114.714 272.789 114.674C274.519 114.635 275.927 115.033 275.203 115.99C274.479 116.946 269.771 117.186 269.128 117.106C268.484 117.026 265.466 117.425 264.702 117.066C263.937 116.707 264.058 117.026 263.414 116.667C262.771 116.309 261.121 115.511 261.121 115.511C260.794 116.143 260.388 116.733 259.914 117.265C259.23 117.983 256.253 117.863 254.321 115.631C252.672 113.718 253.195 112.203 253.195 112.203Z" fill="#FEBD9D"/>
<path d="M270.254 113.24C271.34 114.436 271.059 114.754 272.789 114.715C274.519 114.675 275.927 115.073 275.203 116.03C274.479 116.986 269.771 117.226 269.128 117.146" stroke="#89555F" stroke-width="0.717462" stroke-linecap="round" stroke-linejoin="round"/>
<path d="M263.575 115.83C263.656 113.718 264.34 112.044 264.983 112.283C265.627 112.522 265.989 117.026 264.46 118.063C262.932 119.099 258.828 113.519 258.023 113.16" fill="#FEBD9D"/>
<path d="M264.259 117.704C264.259 117.704 265.104 119.338 266.351 118.541C267.599 117.744 268.846 114.077 269.087 113.279C269.329 112.482 267.8 112.163 266.794 114.116C265.788 116.07 265.064 116.349 265.064 116.349" fill="#FEBD9D"/>
<path d="M266.673 117.863C266.854 118.163 267.129 118.395 267.456 118.524C267.783 118.654 268.144 118.674 268.484 118.581C269.731 118.262 271.341 115.79 272.105 114.993C272.869 114.196 271.904 113.16 270.576 114.116C269.248 115.073 268.283 115.99 267.639 116.189" fill="#FEBD9D"/>
<path d="M265.748 106.583C265.748 106.583 266.714 107.061 267.961 108.735C269.208 110.409 271.622 110.649 271.904 111.526C272.185 112.402 269.651 112.761 267.639 111.805C265.627 110.848 264.863 106.782 265.748 106.583Z" fill="#FEBD9D"/>
<path d="M250.66 114.116C250.525 115.025 250.627 115.954 250.959 116.812C251.29 117.671 251.838 118.431 252.551 119.019C253.371 119.795 254.399 120.32 255.512 120.532C256.625 120.744 257.776 120.634 258.828 120.215" stroke="#323A45" stroke-width="0.717462" stroke-linecap="round" stroke-linejoin="round"/>
<path d="M236.256 139.905C236.256 139.905 235.331 138.55 238.389 137.873C241.446 137.195 246.637 136.836 246.114 138.909" stroke="#323A45" stroke-width="0.717462" stroke-linecap="round" stroke-linejoin="round"/>
<path d="M263.575 115.83C263.656 113.718 264.34 112.044 264.983 112.283C265.627 112.522 265.989 117.026 264.46 118.063C262.932 119.099 258.828 113.519 258.023 113.16" stroke="#89555F" stroke-width="0.717462" stroke-linecap="round" stroke-linejoin="round"/>
<path d="M266.352 118.541C267.599 117.783 268.846 114.077 269.088 113.279C269.329 112.482 267.8 112.163 266.794 114.116C266.46 114.855 265.997 115.53 265.426 116.109" stroke="#89555F" stroke-width="0.717462" stroke-linecap="round" stroke-linejoin="round"/>
<path d="M266.995 118.222C267.194 118.399 267.436 118.521 267.697 118.577C267.958 118.633 268.229 118.621 268.484 118.541C269.731 118.222 271.341 115.75 272.105 114.953C272.869 114.156 271.904 113.12 270.576 114.076C269.53 114.794 268.725 115.551 268.122 115.91" stroke="#89555F" stroke-width="0.717462" stroke-linecap="round" stroke-linejoin="round"/>
<path d="M269.651 112.362C269.651 112.362 268.564 110.529 268.162 110.011" stroke="#89555F" stroke-width="0.717462" stroke-linecap="round" stroke-linejoin="round"/>
<path d="M239.716 125.237C239.716 125.237 237.463 127.828 236.98 130.937" stroke="#323A45" stroke-width="0.717462" stroke-linecap="round" stroke-linejoin="round"/>
<path d="M116.438 136.876H102.517C102.241 136.861 101.976 136.76 101.759 136.589C101.543 136.418 101.386 136.183 101.31 135.919L99.2985 127.669C99.263 127.554 99.2563 127.432 99.2787 127.314C99.3012 127.196 99.3522 127.086 99.4274 126.992C99.5025 126.898 99.5997 126.823 99.7104 126.774C99.8211 126.726 99.942 126.704 100.063 126.712H113.984C114.261 126.727 114.526 126.828 114.742 126.999C114.958 127.171 115.115 127.405 115.191 127.669L117.203 135.919C117.238 136.034 117.245 136.156 117.223 136.274C117.2 136.392 117.149 136.502 117.074 136.596C116.999 136.691 116.902 136.765 116.791 136.814C116.68 136.863 116.559 136.884 116.438 136.876Z" fill="#1C85E8"/>
<path d="M99.4995 126.911L107.385 131.296C107.609 131.452 107.876 131.536 108.15 131.536C108.424 131.536 108.691 131.452 108.914 131.296L114.668 126.911" stroke="#323A45" stroke-width="0.717462" stroke-linecap="round" stroke-linejoin="round"/>
<path d="M307.23 137.633L275.525 135.76C275.346 135.75 275.172 135.7 275.016 135.613C274.859 135.526 274.726 135.405 274.624 135.258C274.523 135.112 274.458 134.944 274.432 134.769C274.407 134.593 274.423 134.414 274.479 134.245L283.33 106.384C283.449 106.031 283.668 105.72 283.96 105.486C284.253 105.253 284.607 105.108 284.98 105.069L318.053 102.677C318.245 102.661 318.438 102.692 318.616 102.768C318.793 102.844 318.948 102.962 319.068 103.113C319.187 103.263 319.267 103.44 319.301 103.628C319.334 103.816 319.32 104.01 319.26 104.192L309.121 136.318C309.008 136.72 308.758 137.072 308.413 137.311C308.068 137.551 307.65 137.665 307.23 137.633Z" fill="#63737A"/>
<path d="M306.063 136.916L274.358 135.042C274.179 135.033 274.005 134.983 273.849 134.896C273.693 134.809 273.559 134.687 273.458 134.541C273.357 134.394 273.291 134.227 273.266 134.051C273.24 133.875 273.256 133.696 273.312 133.528L282.164 105.666C282.283 105.313 282.501 105.002 282.794 104.769C283.086 104.536 283.44 104.39 283.813 104.351L316.886 101.959C317.078 101.943 317.272 101.974 317.449 102.05C317.626 102.126 317.781 102.245 317.901 102.395C318.021 102.545 318.101 102.722 318.134 102.91C318.168 103.099 318.154 103.292 318.093 103.474L307.954 135.6C307.841 136.003 307.591 136.354 307.246 136.594C306.901 136.834 306.483 136.947 306.063 136.916Z" fill="#323A45"/>
<path d="M289.808 109.732L284.216 110.011C284.171 110.013 284.126 110.004 284.085 109.985C284.045 109.967 284.009 109.939 283.981 109.904C283.954 109.868 283.935 109.827 283.927 109.784C283.919 109.74 283.921 109.695 283.934 109.652L284.336 108.377C284.367 108.285 284.427 108.204 284.506 108.147C284.585 108.09 284.681 108.059 284.779 108.058L290.412 107.739C290.457 107.737 290.501 107.746 290.542 107.765C290.583 107.783 290.618 107.811 290.646 107.846C290.673 107.882 290.692 107.923 290.7 107.966C290.709 108.01 290.706 108.055 290.693 108.098L290.251 109.413C290.206 109.496 290.143 109.568 290.067 109.623C289.99 109.678 289.902 109.716 289.808 109.732Z" fill="#C3DCF8"/>
<path d="M278.14 131.375C278.007 131.369 277.877 131.333 277.76 131.27C277.643 131.207 277.542 131.118 277.464 131.011C277.387 130.903 277.335 130.78 277.313 130.65C277.29 130.519 277.298 130.386 277.335 130.259L279.991 121.968C280.044 121.798 280.151 121.648 280.295 121.54C280.44 121.433 280.615 121.374 280.795 121.371C280.931 121.37 281.065 121.402 281.185 121.463C281.306 121.525 281.41 121.614 281.489 121.723C281.567 121.832 281.619 121.958 281.638 122.091C281.657 122.224 281.644 122.36 281.6 122.487L278.945 130.777C278.915 130.961 278.814 131.126 278.664 131.237C278.514 131.349 278.326 131.398 278.14 131.375Z" fill="#C3DCF8"/>
<path d="M282.123 131.535C281.985 131.531 281.85 131.495 281.728 131.43C281.607 131.365 281.503 131.272 281.424 131.159C281.346 131.047 281.295 130.917 281.277 130.782C281.259 130.646 281.273 130.508 281.319 130.379L285.583 116.946C285.645 116.77 285.759 116.615 285.909 116.501C286.059 116.388 286.24 116.321 286.428 116.309C286.57 116.308 286.71 116.341 286.838 116.403C286.965 116.465 287.076 116.556 287.162 116.668C287.247 116.78 287.306 116.91 287.332 117.049C287.359 117.187 287.352 117.329 287.314 117.465L283.049 130.897C282.992 131.092 282.869 131.263 282.7 131.379C282.532 131.495 282.328 131.55 282.123 131.535Z" fill="#63737A"/>
<path d="M286.227 131.734C286.086 131.725 285.948 131.685 285.825 131.617C285.701 131.548 285.595 131.453 285.514 131.338C285.432 131.223 285.378 131.091 285.356 130.953C285.333 130.814 285.342 130.673 285.382 130.538L287.152 124.998C287.209 124.81 287.327 124.647 287.487 124.531C287.647 124.416 287.84 124.356 288.038 124.36C288.182 124.364 288.323 124.401 288.451 124.468C288.579 124.534 288.689 124.629 288.775 124.744C288.86 124.859 288.918 124.992 288.943 125.133C288.969 125.274 288.962 125.418 288.923 125.556L287.152 131.096C287.087 131.286 286.961 131.45 286.795 131.565C286.629 131.68 286.43 131.739 286.227 131.734Z" fill="#C3DCF8"/>
<path d="M290.492 131.893C290.345 131.885 290.202 131.845 290.074 131.774C289.945 131.704 289.834 131.606 289.749 131.487C289.664 131.368 289.607 131.232 289.582 131.088C289.558 130.945 289.566 130.798 289.607 130.658L294.636 114.794C294.698 114.606 294.815 114.441 294.973 114.32C295.131 114.199 295.322 114.128 295.521 114.116C295.673 114.114 295.823 114.148 295.959 114.215C296.095 114.281 296.213 114.379 296.303 114.5C296.393 114.62 296.453 114.76 296.478 114.909C296.503 115.057 296.493 115.209 296.447 115.352L291.417 131.216C291.368 131.418 291.248 131.597 291.079 131.721C290.91 131.845 290.702 131.906 290.492 131.893Z" fill="#1C85E8"/>
<path d="M294.878 132.093C294.727 132.081 294.581 132.037 294.45 131.963C294.318 131.89 294.204 131.789 294.116 131.668C294.028 131.546 293.968 131.407 293.94 131.26C293.911 131.113 293.916 130.962 293.952 130.817L297.252 120.374C297.315 120.18 297.439 120.01 297.605 119.888C297.771 119.767 297.971 119.7 298.177 119.696C298.334 119.694 298.489 119.728 298.63 119.797C298.771 119.865 298.894 119.966 298.988 120.09C299.083 120.215 299.146 120.359 299.172 120.513C299.199 120.666 299.189 120.823 299.143 120.972L295.843 131.415C295.776 131.615 295.646 131.788 295.472 131.91C295.299 132.032 295.09 132.096 294.878 132.093Z" fill="#63737A"/>
<path d="M299.464 132.292C299.308 132.286 299.154 132.244 299.017 132.17C298.879 132.095 298.761 131.99 298.671 131.862C298.581 131.735 298.523 131.589 298.5 131.435C298.477 131.281 298.49 131.124 298.539 130.977L299.223 128.744C299.29 128.534 299.425 128.35 299.606 128.221C299.787 128.091 300.006 128.023 300.229 128.027C300.388 128.029 300.545 128.068 300.686 128.141C300.827 128.214 300.95 128.318 301.044 128.445C301.137 128.573 301.2 128.721 301.226 128.876C301.252 129.032 301.241 129.191 301.194 129.342L300.51 131.574C300.429 131.785 300.286 131.965 300.099 132.093C299.913 132.221 299.691 132.291 299.464 132.292Z" fill="#F4C2C9"/>
<path d="M304.172 132.491C304.012 132.481 303.856 132.436 303.715 132.358C303.575 132.281 303.454 132.173 303.361 132.043C303.269 131.913 303.207 131.764 303.18 131.607C303.153 131.45 303.162 131.289 303.206 131.136L306.626 120.374C306.692 120.159 306.824 119.97 307.005 119.833C307.186 119.697 307.405 119.622 307.632 119.617C307.799 119.615 307.965 119.652 308.115 119.724C308.265 119.797 308.397 119.903 308.498 120.034C308.6 120.166 308.669 120.319 308.7 120.482C308.731 120.645 308.724 120.813 308.678 120.972L305.258 131.734C305.182 131.958 305.036 132.153 304.84 132.289C304.645 132.425 304.411 132.496 304.172 132.491Z" fill="#C3DCF8"/>
<path d="M308.678 107.739C308.758 107.46 308.638 107.221 308.437 107.221C308.235 107.221 307.954 107.46 307.833 107.779C307.712 108.098 307.873 108.297 308.074 108.297C308.215 108.263 308.344 108.194 308.45 108.096C308.555 107.998 308.634 107.875 308.678 107.739Z" fill="#63737A"/>
<path d="M310.77 107.619C310.851 107.34 310.73 107.101 310.489 107.101C310.345 107.128 310.213 107.195 310.106 107.294C309.999 107.393 309.923 107.519 309.885 107.659C309.805 107.938 309.925 108.177 310.167 108.177C310.307 108.143 310.436 108.074 310.542 107.976C310.648 107.879 310.726 107.756 310.77 107.619Z" fill="#63737A"/>
<path d="M312.903 107.5C312.983 107.221 312.862 106.981 312.621 106.981C312.478 107.009 312.345 107.076 312.238 107.174C312.131 107.273 312.055 107.4 312.018 107.539C311.937 107.818 312.058 108.058 312.299 108.058C312.443 108.03 312.575 107.963 312.682 107.865C312.789 107.766 312.865 107.639 312.903 107.5Z" fill="#63737A"/>
<path d="M187.653 77.207C187.653 77.207 184.756 77.3265 184.032 74.6958C183.308 72.0651 186.044 70.8694 186.044 73.3406C186.044 75.8119 182.141 76.8881 180.531 74.8154C178.922 72.7428 180.813 71.1484 181.336 72.3442C181.859 73.5399 180.612 76.051 178.319 75.2937" stroke="#1C85E8" stroke-width="0.717462" stroke-linecap="round" stroke-linejoin="round"/>
<path d="M222.255 81.3123C222.255 81.3123 227.203 81.0333 226.881 77.4859C226.56 73.9384 223.341 80.5151 227.646 80.4354C231.951 80.3557 231.71 76.3299 230.422 76.0509C229.135 75.7719 229.456 78.8809 231.83 78.6816C234.204 78.4823 234.566 77.0474 234.566 77.0474" stroke="#1C85E8" stroke-width="0.717462" stroke-linecap="round" stroke-linejoin="round"/>
<path d="M205.92 74.4167C205.92 74.1487 205.839 73.8867 205.689 73.6638C205.539 73.441 205.325 73.2673 205.075 73.1647C204.825 73.0621 204.55 73.0353 204.285 73.0876C204.019 73.1399 203.776 73.2689 203.584 73.4585C203.393 73.648 203.263 73.8895 203.21 74.1523C203.157 74.4152 203.184 74.6877 203.288 74.9353C203.391 75.183 203.567 75.3946 203.792 75.5435C204.017 75.6925 204.281 75.7719 204.552 75.7719C204.732 75.7735 204.91 75.7396 205.077 75.672C205.244 75.6045 205.395 75.5047 205.522 75.3786C205.65 75.2524 205.751 75.1024 205.819 74.9372C205.887 74.7721 205.921 74.5951 205.92 74.4167Z" fill="#1C85E8"/>
<path d="M212.518 59.7089C212.596 60.7878 212.451 61.8712 212.091 62.8924C211.731 63.9137 211.164 64.8514 210.426 65.6479C208.897 67.2862 208.049 69.4357 208.052 71.6666V73.0617C208.048 73.4304 207.898 73.7828 207.635 74.0436C207.372 74.3043 207.016 74.4526 206.644 74.4567H202.54C202.168 74.4526 201.812 74.3043 201.549 74.0436C201.285 73.7828 201.136 73.4304 201.132 73.0617V71.6666C201.141 69.4463 200.292 67.3066 198.758 65.6878C197.381 64.2287 196.618 62.3041 196.625 60.3068C196.629 58.2703 197.429 56.3143 198.856 54.8486C200.283 53.3829 202.227 52.5212 204.282 52.4439C206.336 52.3666 208.341 53.0798 209.876 54.4341C211.411 55.7883 212.358 57.6786 212.518 59.7089Z" fill="#C3DCF8"/>
<path d="M201.091 71.6663H208.011" stroke="#323A45" stroke-width="0.717462" stroke-linecap="round" stroke-linejoin="round"/>
<path d="M201.091 73.0217H208.011" stroke="#323A45" stroke-width="0.717462" stroke-linecap="round" stroke-linejoin="round"/>
<path d="M203.827 71.6666V60.7453C203.826 60.5185 203.763 60.2964 203.644 60.1025C203.526 59.9086 203.356 59.75 203.154 59.6438C202.952 59.5375 202.724 59.4875 202.496 59.4989C202.267 59.5104 202.046 59.583 201.856 59.7089C201.702 59.8179 201.574 59.9595 201.483 60.1236C201.391 60.2876 201.337 60.4698 201.326 60.657C201.314 60.8441 201.345 61.0315 201.416 61.2054C201.487 61.3792 201.596 61.5352 201.735 61.662L202.218 62.1005" stroke="#323A45" stroke-width="0.717462" stroke-linecap="round" stroke-linejoin="round"/>
<path d="M205.276 71.6666V60.7453C205.277 60.5185 205.341 60.2964 205.459 60.1025C205.578 59.9086 205.747 59.75 205.949 59.6438C206.151 59.5375 206.379 59.4875 206.607 59.4989C206.836 59.5104 207.057 59.583 207.247 59.7089C207.401 59.8179 207.529 59.9595 207.621 60.1236C207.712 60.2876 207.766 60.4698 207.778 60.657C207.789 60.8441 207.758 61.0315 207.687 61.2054C207.617 61.3792 207.508 61.5352 207.368 61.662L206.885 62.1005" stroke="#323A45" stroke-width="0.717462" stroke-linecap="round" stroke-linejoin="round"/>
<path d="M172.284 101.76L168.743 69.6336C168.685 69.1633 168.472 68.725 168.138 68.3864C167.803 68.0478 167.366 67.8277 166.892 67.7603L120.985 61.8213C120.74 61.7932 120.492 61.8203 120.26 61.9005C120.027 61.9808 119.816 62.112 119.642 62.2845C119.468 62.457 119.335 62.6663 119.254 62.8967C119.173 63.1271 119.146 63.3726 119.174 63.6149L123.68 101.919C123.741 102.437 123.992 102.914 124.385 103.26C124.779 103.606 125.287 103.795 125.813 103.793L170.634 103.554C170.867 103.561 171.098 103.519 171.313 103.429C171.527 103.339 171.72 103.204 171.877 103.034C172.033 102.863 172.151 102.661 172.221 102.441C172.292 102.221 172.313 101.989 172.284 101.76Z" fill="#63737A"/>
<path d="M174.336 101.601L170.795 69.2352C170.744 68.7623 170.533 68.3203 170.198 67.9805C169.862 67.6406 169.42 67.4227 168.944 67.3618L122.715 61.3829C122.468 61.3538 122.218 61.3798 121.983 61.459C121.748 61.5382 121.534 61.6687 121.356 61.8408C121.179 62.0129 121.042 62.2222 120.957 62.4534C120.872 62.6845 120.84 62.9317 120.864 63.1766L125.411 101.76C125.471 102.278 125.722 102.755 126.116 103.101C126.509 103.446 127.017 103.636 127.543 103.633L172.726 103.394C172.954 103.391 173.179 103.341 173.386 103.247C173.593 103.153 173.778 103.017 173.93 102.849C174.081 102.68 174.195 102.482 174.265 102.267C174.335 102.052 174.359 101.825 174.336 101.601Z" fill="#323A45"/>
<path d="M168.501 98.4118H131.727L131.607 97.216L139.372 86.3744C139.824 85.7292 140.488 85.2581 141.25 85.0403C142.012 84.8226 142.826 84.8714 143.556 85.1786L147.097 86.6135C147.865 86.9233 148.719 86.9531 149.507 86.6976C150.296 86.4422 150.967 85.9181 151.402 85.2185L152.971 82.6675C153.393 81.9754 154.048 81.4525 154.82 81.1902C155.593 80.9279 156.433 80.9429 157.196 81.2326C157.897 81.507 158.67 81.5465 159.397 81.345C160.123 81.1435 160.763 80.7121 161.219 80.1165L166.047 73.8586L168.501 98.4118Z" fill="#C3DCF8"/>
<path d="M131.606 97.216L128.83 73.3804" stroke="#1C85E8" stroke-width="0.717462" stroke-linecap="round" stroke-linejoin="round"/>
<path d="M131.486 96.1398L137.803 79.7977C137.956 79.3908 138.19 79.0186 138.491 78.703C138.792 78.3873 139.154 78.1347 139.556 77.9601C139.957 77.7854 140.39 77.6923 140.828 77.6861C141.266 77.68 141.702 77.761 142.108 77.9243L145.367 79.1998C146.019 79.4486 146.734 79.4902 147.412 79.3188C148.089 79.1474 148.696 78.7715 149.149 78.2432L151.321 75.6125C151.602 75.2688 151.95 74.9856 152.345 74.7801C152.739 74.5747 153.172 74.4514 153.617 74.4178C154.062 74.3842 154.509 74.441 154.93 74.5848C155.352 74.7285 155.739 74.9562 156.069 75.2537C156.604 75.7355 157.285 76.0281 158.006 76.0858C158.726 76.1435 159.446 75.963 160.052 75.5726L165.926 71.8657" stroke="#1C85E8" stroke-width="0.717462" stroke-linecap="round" stroke-linejoin="round"/>
<path d="M128.549 70.2316L128.307 68.3184C128.298 68.2482 128.305 68.1768 128.328 68.1098C128.351 68.0428 128.39 67.9819 128.44 67.9318C128.491 67.8817 128.552 67.8438 128.62 67.821C128.688 67.7982 128.76 67.7911 128.831 67.8003L137.561 68.717C137.689 68.7309 137.808 68.7849 137.902 68.8709C137.996 68.957 138.06 69.0707 138.084 69.1953L138.366 70.9491C138.376 71.0036 138.373 71.0597 138.356 71.1126C138.339 71.1655 138.31 71.2136 138.27 71.2528C138.231 71.292 138.182 71.3211 138.129 71.3376C138.075 71.3542 138.019 71.3576 137.964 71.3477L129.072 70.71C129.006 70.7137 128.939 70.7042 128.877 70.682C128.814 70.6598 128.757 70.6254 128.708 70.5807C128.659 70.5361 128.62 70.4822 128.593 70.4222C128.565 70.3622 128.55 70.2974 128.549 70.2316Z" fill="#1C85E8"/>
<path d="M270.938 88.726C261.644 97.6544 250.097 99.4082 245.913 93.2699C242.211 87.8491 245.711 78.2032 253.275 71.2279C260.719 64.3721 270.536 61.5421 275.847 65.1693C281.842 69.2349 280.072 79.957 270.938 88.726Z" fill="#F8AB5D"/>
<path d="M269.61 87.371C260.316 96.2994 248.769 98.0532 244.585 91.9149C240.883 86.4941 244.383 76.8482 251.947 69.8729C259.391 63.0171 269.208 60.1871 274.519 63.8143C280.554 67.9198 278.743 78.6419 269.61 87.371Z" fill="#C3DCF8"/>
<path d="M265.708 83.5048C260.115 88.806 253.114 90.1214 250.298 86.5739C247.723 83.3055 249.775 77.1274 254.683 72.5834C259.592 68.0395 265.869 66.3654 269.128 68.9164C272.628 71.6268 271.22 78.2434 265.708 83.5048Z" fill="#1C85E8"/>
<path d="M262.127 79.9571C259.914 82.0298 257.098 82.6277 255.891 81.3123C254.684 79.997 255.488 77.446 257.581 75.4929C259.673 73.5398 262.369 72.9021 263.656 74.058C264.944 75.2139 264.34 77.8845 262.127 79.9571Z" fill="#F4C2C9"/>
<path d="M247.844 66.5647C247.641 66.7514 247.402 66.8964 247.143 66.9914C246.883 67.0865 246.607 67.1297 246.33 67.1186C246.053 67.1075 245.781 67.0423 245.53 66.9267C245.279 66.8111 245.053 66.6474 244.866 66.4451L237.705 57.3971C237.526 57.1695 237.44 56.8842 237.462 56.5968C237.484 56.3094 237.614 56.0406 237.825 55.8426C238.041 55.6502 238.32 55.5437 238.61 55.5437C238.9 55.5437 239.179 55.6502 239.395 55.8426L247.924 63.6151C248.124 63.809 248.281 64.0415 248.386 64.2983C248.491 64.555 248.541 64.8305 248.533 65.1073C248.526 65.3842 248.461 65.6565 248.342 65.9073C248.223 66.158 248.054 66.3819 247.844 66.5647Z" fill="#323A45"/>
<path d="M239.354 59.1109L237.061 59.4298C236.919 59.4454 236.784 59.5016 236.674 59.5918C236.563 59.6819 236.482 59.8019 236.439 59.9373C236.396 60.0726 236.394 60.2173 236.433 60.3537C236.472 60.4901 236.551 60.6123 236.659 60.7053C238.069 61.9329 239.796 62.7471 241.648 63.057L242.814 63.2563C242.845 63.2623 242.877 63.2592 242.905 63.2474C242.934 63.2356 242.958 63.2157 242.976 63.1901C242.993 63.1644 243.002 63.1343 243.002 63.1035C243.002 63.0728 242.993 63.0427 242.975 63.0171L240.079 59.3899C239.989 59.2892 239.877 59.2112 239.751 59.1626C239.625 59.114 239.489 59.0963 239.354 59.1109Z" fill="#1C85E8"/>
<path d="M241.044 57.5964L241.567 55.3643C241.599 55.2266 241.67 55.1008 241.772 55.0018C241.874 54.9027 242.002 54.8345 242.141 54.8052C242.281 54.7759 242.426 54.7867 242.559 54.8363C242.693 54.8859 242.809 54.9723 242.895 55.0853C244.027 56.5663 244.711 58.3358 244.867 60.1872L244.947 61.3431C244.947 61.4627 244.786 61.5424 244.706 61.4627L241.286 58.3537C241.178 58.2628 241.097 58.1435 241.055 58.0095C241.012 57.8755 241.008 57.7323 241.044 57.5964Z" fill="#1C85E8"/>
<path d="M247.522 66.2058L249.815 68.6372" stroke="#323A45" stroke-width="0.717462" stroke-linecap="round" stroke-linejoin="round"/>
<path d="M295.843 87.1716V81.3522C295.841 81.2154 295.786 81.0848 295.688 80.988C295.59 80.8913 295.458 80.836 295.32 80.834H292.665C292.527 80.836 292.395 80.8913 292.297 80.988C292.2 81.0848 292.144 81.2154 292.142 81.3522V87.1716H290.613C290.523 87.1705 290.435 87.1932 290.356 87.2372C290.278 87.2812 290.213 87.3451 290.168 87.4221C290.123 87.4992 290.1 87.5867 290.1 87.6758C290.1 87.7648 290.125 87.8522 290.17 87.9289L293.51 93.1504C293.553 93.2231 293.615 93.2834 293.689 93.3252C293.763 93.3671 293.847 93.3891 293.932 93.3891C294.018 93.3891 294.101 93.3671 294.175 93.3252C294.25 93.2834 294.311 93.2231 294.355 93.1504L297.694 87.9289C297.74 87.8522 297.764 87.7648 297.764 87.6758C297.765 87.5867 297.741 87.4992 297.696 87.4221C297.651 87.3451 297.586 87.2812 297.508 87.2372C297.43 87.1932 297.342 87.1705 297.252 87.1716H295.843Z" fill="#1C85E8"/>
<path d="M307.511 93.4694V87.65C307.509 87.5132 307.453 87.3826 307.356 87.2859C307.258 87.1891 307.126 87.1339 306.988 87.1318H304.333C304.195 87.1339 304.063 87.1891 303.965 87.2859C303.867 87.3826 303.812 87.5132 303.81 87.65V93.4694H302.281C302.191 93.4684 302.102 93.491 302.024 93.5351C301.946 93.5791 301.881 93.6429 301.836 93.72C301.791 93.797 301.767 93.8846 301.768 93.9736C301.768 94.0627 301.792 94.15 301.838 94.2267L305.178 99.4483C305.221 99.521 305.283 99.5812 305.357 99.6231C305.431 99.6649 305.515 99.6869 305.6 99.6869C305.685 99.6869 305.769 99.6649 305.843 99.6231C305.917 99.5812 305.979 99.521 306.022 99.4483L309.362 94.2267C309.408 94.15 309.432 94.0627 309.432 93.9736C309.433 93.8846 309.409 93.797 309.364 93.72C309.319 93.6429 309.254 93.5791 309.176 93.5351C309.098 93.491 309.009 93.4684 308.919 93.4694H307.511Z" fill="#323A45"/>
<path d="M115.312 116.428C115.38 116.164 115.367 115.885 115.275 115.628C115.183 115.371 115.017 115.146 114.796 114.983C114.575 114.82 114.311 114.725 114.036 114.71C113.761 114.696 113.487 114.763 113.251 114.903C113.014 115.042 112.824 115.248 112.706 115.495C112.587 115.741 112.545 116.017 112.585 116.287C112.625 116.557 112.745 116.809 112.929 117.012C113.114 117.214 113.355 117.358 113.622 117.425C113.799 117.471 113.983 117.481 114.165 117.456C114.346 117.431 114.52 117.37 114.677 117.277C114.835 117.184 114.972 117.061 115.081 116.916C115.189 116.77 115.268 116.604 115.312 116.428Z" fill="#323A45"/>
<path d="M117.002 113.16L117.082 112.801C117.228 112.241 117.146 111.646 116.852 111.146C116.558 110.646 116.077 110.281 115.513 110.131C114.947 109.986 114.347 110.068 113.842 110.359C113.338 110.65 112.969 111.126 112.817 111.685L112.737 112.044C112.616 112.442 112.411 112.809 112.133 113.12C111.892 113.359 111.65 113.638 111.409 113.877C111.292 114.007 111.21 114.164 111.17 114.333C111.131 114.503 111.135 114.679 111.184 114.846C111.232 115.014 111.322 115.166 111.446 115.289C111.57 115.413 111.723 115.503 111.892 115.551L113.904 116.07L115.915 116.588C116.084 116.632 116.261 116.632 116.43 116.588C116.599 116.545 116.754 116.459 116.879 116.338C117.005 116.218 117.097 116.068 117.146 115.902C117.196 115.736 117.202 115.56 117.162 115.392C117.082 115.033 117.002 114.674 116.921 114.356C116.869 113.956 116.896 113.549 117.002 113.16Z" fill="#1C85E8"/>
<path d="M78.0143 98.6111C78.0143 98.6111 93.0619 95.2231 92.8205 87.3311L115.835 89.1247C115.835 89.1247 115.553 98.8104 100.546 103.753C100.505 103.753 84.5323 101.64 78.0143 98.6111Z" fill="#C3DCF8"/>
<path d="M97.2863 98.2524L101.35 98.8105" stroke="#323A45" stroke-width="0.717462" stroke-linecap="round" stroke-linejoin="round"/>
<path d="M98.9766 96.6582L103.684 97.2959" stroke="#323A45" stroke-width="0.717462" stroke-linecap="round" stroke-linejoin="round"/>
<path d="M94.9529 92.8315C94.9529 92.8315 105.333 94.2665 107.184 94.5056" stroke="#323A45" stroke-width="0.717462" stroke-linecap="round" stroke-linejoin="round"/>
<path d="M96.8039 95.3029C95.7308 96.8153 94.2541 98.0022 92.539 98.7308C92.4356 98.7656 92.3261 98.7791 92.2172 98.7707C90.648 98.4518 89.0386 98.0931 87.5097 97.6945C87.4615 97.6838 87.4179 97.6582 87.3853 97.6214C87.3527 97.5846 87.3327 97.5385 87.3282 97.4898C87.3238 97.441 87.335 97.3921 87.3604 97.3501C87.3858 97.3081 87.424 97.2751 87.4695 97.256C89.1763 96.5412 90.7636 95.5735 92.1769 94.3862C92.2264 94.3314 92.2901 94.2913 92.3611 94.2702C92.4321 94.2491 92.5076 94.2479 92.5793 94.2666C93.4242 94.426 94.8726 94.6253 96.6429 94.9043C96.8039 94.984 96.9246 95.1833 96.8039 95.3029Z" fill="#323A45"/>
<path d="M103.644 90.759C103.564 91.1254 103.457 91.4852 103.322 91.8352C103.298 91.9074 103.247 91.9679 103.18 92.0048C103.113 92.0418 103.034 92.0523 102.96 92.0345L95.114 91.1975C95.0598 91.1919 95.0077 91.1738 94.9619 91.1446C94.9161 91.1153 94.8779 91.0758 94.8505 91.0292C94.823 90.9826 94.8071 90.9302 94.8039 90.8763C94.8008 90.8224 94.8105 90.7686 94.8323 90.7191C94.955 90.4399 95.0363 90.1445 95.0737 89.8422C95.0982 89.7647 95.146 89.6965 95.2107 89.6466C95.2754 89.5967 95.354 89.5677 95.4358 89.5632L103.322 90.2807C103.523 90.4003 103.684 90.5597 103.644 90.759Z" fill="#1C85E8"/>
<path d="M240.24 102.836C238.67 106.224 234.888 108.456 232.313 107.779C230.06 107.181 229.618 104.51 231.066 101.879C232.434 99.3285 235.291 97.3356 237.705 97.2559C240.401 97.216 241.728 99.6474 240.24 102.836Z" fill="#F8AB5D"/>
<path d="M239.435 102.158C237.866 105.546 234.084 107.778 231.509 107.101C229.256 106.503 228.813 103.832 230.261 101.202C231.629 98.6507 234.486 96.6578 236.9 96.5781C239.636 96.4984 240.924 98.9298 239.435 102.158Z" fill="#C3DCF8"/>
<path d="M238.147 102.039C236.94 104.55 234.164 106.264 232.193 105.826C230.422 105.427 230.02 103.394 231.146 101.282C232.233 99.2887 234.486 97.6943 236.337 97.6943C238.389 97.6943 239.314 99.6076 238.147 102.039Z" fill="#F8AB5D"/>
<path d="M232.796 104.191L232.957 103.912C232.997 103.793 232.997 103.713 232.917 103.673C232.745 103.624 232.592 103.527 232.474 103.394C232.434 103.354 232.434 103.235 232.514 103.115L232.555 103.075C232.635 102.956 232.796 102.916 232.836 102.995C232.95 103.108 233.088 103.191 233.241 103.239C233.394 103.287 233.556 103.298 233.714 103.271C233.872 103.243 234.021 103.179 234.148 103.082C234.276 102.986 234.378 102.86 234.446 102.716C234.491 102.644 234.522 102.563 234.534 102.479C234.547 102.394 234.542 102.308 234.519 102.226C234.496 102.143 234.457 102.066 234.402 102C234.348 101.933 234.281 101.879 234.204 101.84C233.762 101.521 233.561 101.162 233.882 100.604C234.009 100.365 234.186 100.156 234.401 99.991C234.616 99.8259 234.865 99.7087 235.13 99.6473C235.185 99.6397 235.236 99.617 235.279 99.5818C235.322 99.5466 235.354 99.5002 235.371 99.448L235.532 99.169C235.557 99.1145 235.597 99.0674 235.646 99.0325C235.696 98.9975 235.753 98.9759 235.814 98.9697C235.894 98.9697 235.934 99.0494 235.894 99.169L235.773 99.4082C235.733 99.5277 235.733 99.6075 235.854 99.6075C235.997 99.6361 236.133 99.6902 236.256 99.7669C236.337 99.8068 236.296 99.9263 236.216 100.046L236.176 100.086C236.142 100.138 236.093 100.177 236.035 100.199C235.977 100.22 235.913 100.223 235.854 100.205C235.701 100.1 235.518 100.044 235.331 100.046C235.147 100.029 234.962 100.07 234.804 100.163C234.645 100.256 234.519 100.396 234.446 100.564C234.285 100.883 234.405 101.082 234.768 101.361C234.882 101.427 234.981 101.515 235.058 101.621C235.136 101.727 235.189 101.848 235.216 101.976C235.243 102.104 235.241 102.236 235.213 102.364C235.184 102.492 235.128 102.612 235.049 102.716C234.924 102.987 234.734 103.222 234.495 103.403C234.257 103.584 233.977 103.704 233.681 103.753C233.626 103.76 233.574 103.783 233.532 103.818C233.489 103.854 233.457 103.9 233.44 103.952L233.279 104.271C233.25 104.323 233.21 104.368 233.161 104.402C233.112 104.437 233.056 104.46 232.997 104.47C232.756 104.391 232.716 104.311 232.796 104.191Z" fill="#C3DCF8"/>
<path d="M110.765 161.189H106.822L106.621 168.284H110.403L110.765 161.189Z" fill="#1C85E8"/>
<path d="M106.621 168.285L104.247 239.712C104.238 239.889 104.265 240.066 104.328 240.232C104.391 240.398 104.488 240.55 104.612 240.677C104.737 240.804 104.887 240.904 105.053 240.972C105.218 241.039 105.396 241.071 105.575 241.067C105.914 241.069 106.24 240.942 106.487 240.712C106.734 240.482 106.883 240.167 106.903 239.832L110.403 168.285H106.621Z" fill="#683F1D" fill-opacity="0.96"/>
<path d="M306.425 161.189H302.522L302.844 168.284H306.666L306.425 161.189Z" fill="#1C85E8"/>
<path d="M302.844 168.285L306.345 239.832C306.361 240.18 306.516 240.509 306.776 240.744C307.036 240.98 307.381 241.103 307.733 241.087C308.085 241.071 308.416 240.917 308.654 240.66C308.892 240.402 309.016 240.061 309 239.712L306.626 168.285H302.844Z" fill="#683F1D" fill-opacity="0.96"/>
<path d="M121.266 151.504L119.053 218.667C119.046 218.817 119.069 218.968 119.123 219.109C119.176 219.25 119.258 219.378 119.364 219.487C119.469 219.595 119.596 219.681 119.737 219.739C119.877 219.796 120.028 219.825 120.18 219.823C120.473 219.825 120.754 219.713 120.965 219.512C121.176 219.311 121.298 219.036 121.307 218.746L124.606 151.504H121.266Z" fill="#683F1D" fill-opacity="0.96"/>
<path d="M291.981 151.504L294.194 218.667C294.201 218.817 294.178 218.968 294.124 219.109C294.071 219.25 293.989 219.378 293.883 219.487C293.778 219.595 293.651 219.681 293.51 219.739C293.37 219.796 293.219 219.825 293.067 219.823C292.774 219.825 292.493 219.713 292.282 219.512C292.072 219.311 291.949 219.036 291.94 218.746L288.641 151.504H291.981Z" fill="#683F1D" fill-opacity="0.96"/>
<path d="M317.57 159.675H95.6772L118.933 148.714H294.355L317.57 159.675Z" fill="white"/>
<path d="M317.57 159.675H95.6772V162.665H317.57V159.675Z" fill="#683F1D" fill-opacity="0.96"/>
<path d="M277.537 149.073C277.537 149.073 275.646 148.156 275.002 146.323C274.358 144.489 275.485 143.253 275.968 143.373C276.45 143.493 277.175 145.804 277.778 145.804C278.382 145.804 278.261 141.739 279.468 141.3C280.675 140.862 280.554 145.326 280.595 145.685C280.675 146.602 282.244 144.609 282.807 143.811C283.491 142.815 285.704 146.402 281.077 149.073C279.907 149.281 278.708 149.281 277.537 149.073Z" fill="#1C85E8"/>
<path d="M285.342 149.511V149.67C285.288 152.043 284.826 154.388 283.974 156.606C283.897 156.788 283.769 156.945 283.605 157.058C283.441 157.171 283.248 157.235 283.049 157.244H275.807C275.605 157.243 275.409 157.181 275.244 157.067C275.079 156.953 274.952 156.793 274.881 156.606C274.026 154.389 273.563 152.043 273.513 149.67V149.511C273.51 149.411 273.527 149.311 273.565 149.217C273.602 149.124 273.658 149.039 273.73 148.968C273.801 148.897 273.887 148.841 273.981 148.805C274.076 148.768 274.177 148.75 274.278 148.754H284.578C284.68 148.747 284.783 148.761 284.879 148.797C284.975 148.832 285.062 148.888 285.134 148.96C285.207 149.032 285.263 149.118 285.299 149.213C285.335 149.308 285.349 149.41 285.342 149.511Z" fill="#323A45"/>
<path d="M258.144 146.562C255.005 146.88 254.201 155.291 248.246 156.128C248.246 156.128 247.16 156.168 245.389 156.207C240.28 156.367 229.738 156.606 225.473 156.247C226.092 156.243 226.71 156.203 227.324 156.128C229.175 155.889 230.503 154.892 231.589 153.696C234.003 150.906 235.089 146.801 237.222 146.601H258.144V146.562Z" fill="#323A45"/>
<path d="M231.549 153.696C230.492 155.016 228.966 155.885 227.284 156.128C226.67 156.205 226.052 156.245 225.433 156.247C220.927 156.247 219.599 153.776 219.599 153.776C219.599 153.776 226.801 154.095 231.549 153.696Z" fill="#1C85E8"/>
<path d="M201.132 157.085H171.921V154.932H203.304C203.305 155.215 203.25 155.495 203.141 155.757C203.032 156.019 202.872 156.256 202.67 156.456C202.468 156.657 202.228 156.815 201.964 156.923C201.7 157.031 201.417 157.086 201.132 157.085Z" fill="#323A45"/>
<path d="M178.198 157.084H133.176C132.465 157.08 131.776 156.843 131.216 156.411C130.656 155.978 130.255 155.374 130.078 154.693L122.675 125.476C122.611 125.221 122.607 124.956 122.663 124.699C122.718 124.443 122.831 124.202 122.994 123.995C123.156 123.788 123.364 123.62 123.601 123.503C123.839 123.387 124.1 123.326 124.365 123.324H169.387C170.097 123.328 170.786 123.565 171.347 123.997C171.907 124.43 172.307 125.034 172.485 125.715L179.888 154.932C179.955 155.187 179.962 155.454 179.909 155.712C179.855 155.97 179.742 156.213 179.579 156.421C179.416 156.629 179.206 156.797 178.967 156.912C178.727 157.027 178.464 157.086 178.198 157.084Z" fill="#323A45"/>
<path d="M151.601 142.728C152.666 141.516 152.212 139.397 150.586 137.995C148.961 136.592 146.78 136.438 145.714 137.65C144.649 138.862 145.103 140.981 146.729 142.383C148.354 143.786 150.535 143.94 151.601 142.728Z" fill="#63737A"/>
<path d="M203.586 152.779H194.05C193.827 152.778 193.612 152.69 193.454 152.533C193.296 152.376 193.207 152.164 193.206 151.942C193.209 150.791 193.672 149.688 194.494 148.874C195.315 148.06 196.429 147.601 197.591 147.598H200.005C201.167 147.601 202.281 148.06 203.103 148.874C203.924 149.688 204.388 150.791 204.391 151.942C204.396 152.05 204.379 152.158 204.341 152.26C204.303 152.361 204.245 152.454 204.17 152.532C204.094 152.61 204.004 152.673 203.904 152.715C203.803 152.758 203.695 152.779 203.586 152.779Z" fill="#323A45"/>
<path d="M261.684 153.736C260.799 153.577 259.35 153.138 258.868 151.544C258.385 149.95 262.046 146.482 263.173 146.482C264.299 146.482 266.351 147.598 267.438 149.113C268.524 150.627 266.512 151.584 266.754 152.301C266.995 153.019 264.742 154.334 261.684 153.736Z" fill="white" stroke="#683F1D" stroke-opacity="0.96" stroke-width="0.717462" stroke-linecap="round" stroke-linejoin="round"/>
<path d="M258.868 151.544C258.868 151.544 260.759 152.899 261.644 152.5C262.529 152.102 263.213 150.986 264.782 151.145C266.351 151.304 266.029 148.594 264.782 148.156C263.535 147.717 262.65 150.507 261.644 150.547C260.638 150.587 260.397 149.949 261.322 149.232" fill="white"/>
<path d="M258.868 151.544C258.868 151.544 260.759 152.899 261.644 152.5C262.529 152.102 263.213 150.986 264.782 151.145C266.351 151.304 266.029 148.594 264.782 148.156C263.535 147.717 262.65 150.507 261.644 150.547C260.638 150.587 260.397 149.949 261.322 149.232" stroke="#683F1D" stroke-opacity="0.96" stroke-width="0.717462" stroke-linecap="round" stroke-linejoin="round"/>
<path d="M256.977 156.207C256.977 156.207 257.983 155.051 257.54 154.414C257.098 153.776 256.736 153.577 256.534 153.218C256.253 152.66 256.293 151.464 255.649 150.866C255.005 150.268 253.959 151.225 251.545 150.906C249.695 150.667 248.005 153.497 248.648 154.294C248.887 154.66 249.187 154.983 249.534 155.251C249.534 155.251 249.171 155.968 249.373 156.407C249.574 156.845 250.982 157.483 253.114 157.682C255.247 157.881 256.977 156.207 256.977 156.207Z" fill="white" stroke="#683F1D" stroke-opacity="0.96" stroke-width="0.717462" stroke-linecap="round" stroke-linejoin="round"/>
<path d="M249.533 155.29C249.533 155.29 251.465 156.765 252.833 156.446C254.201 156.127 255.528 153.656 255.448 152.979C255.367 152.301 254.804 151.982 253.436 153.218C252.068 154.453 251.022 154.134 251.143 153.058" fill="white"/>
<path d="M249.533 155.29C249.533 155.29 251.465 156.765 252.833 156.446C254.201 156.127 255.528 153.656 255.448 152.979C255.367 152.301 254.804 151.982 253.436 153.218C252.068 154.453 251.022 154.134 251.143 153.058" stroke="#683F1D" stroke-opacity="0.96" stroke-width="0.717462" stroke-linecap="round" stroke-linejoin="round"/>
</svg>
