<svg width="371" height="280" viewBox="0 0 371 280" fill="none" xmlns="http://www.w3.org/2000/svg">
<path d="M8.54248 222.955C96.0846 197.918 243.933 194.726 298.113 204.092C352.293 213.458 362.467 222.955 362.467 222.955" stroke="#DDDDDD" stroke-width="0.8695" stroke-linecap="round" stroke-linejoin="round"/>
<path d="M63.075 233.123L54.5513 238.686L55.1449 239.927L67.1096 234.892L63.075 233.123Z" fill="#EDEDED"/>
<path d="M78.0725 233.123L86.6008 238.686L86.0072 239.927L74.0425 234.892L78.0725 233.123Z" fill="#EDEDED"/>
<path d="M82.1117 209.267C77.5484 205.366 77.72 203.971 80.6555 197.549C84.4675 189.219 79.2225 182.756 70.5736 182.756C61.9246 182.756 56.6843 189.219 60.4917 197.549C63.4318 203.971 63.5988 205.366 59.0401 209.267C53.7534 213.785 51.685 226.497 59.8053 233.067C63.9559 236.437 70.5736 236.138 70.5736 236.138C70.5736 236.138 77.1959 236.437 81.3465 233.067C89.4621 226.497 87.3984 213.785 82.1117 209.267Z" fill="#F9F9F9" stroke="#DDDDDD" stroke-width="0.43475" stroke-linecap="round" stroke-linejoin="round"/>
<path d="M70.5737 202.697C73.3987 202.697 75.6888 200.392 75.6888 197.549C75.6888 194.707 73.3987 192.402 70.5737 192.402C67.7486 192.402 65.4585 194.707 65.4585 197.549C65.4585 200.392 67.7486 202.697 70.5737 202.697Z" fill="#DDDDDD"/>
<path d="M72.8414 145.227H68.3105V218.372H72.8414V145.227Z" fill="#F9F9F9" stroke="#EDEDED" stroke-width="0.43475" stroke-linecap="round" stroke-linejoin="round"/>
<path d="M69.7529 218.367V147.14" stroke="#DDDDDD" stroke-width="0.43475" stroke-linecap="round" stroke-linejoin="round"/>
<path d="M71.3945 218.367V147.14" stroke="#DDDDDD" stroke-width="0.43475" stroke-linecap="round" stroke-linejoin="round"/>
<path d="M73.8802 133.784H67.2671V147.14H73.8802V133.784Z" fill="#F9F9F9" stroke="#DDDDDD" stroke-width="0.43475" stroke-linecap="round" stroke-linejoin="round"/>
<path d="M72.5398 136.047H68.6118V144.881H72.5398V136.047Z" fill="#EDEDED"/>
<path d="M67.2675 142.66C66.0432 141.363 64.8142 142.007 65.1899 143.066C65.5655 144.125 67.2675 144.163 67.2675 144.102V142.66Z" fill="#F9F9F9" stroke="#DDDDDD" stroke-width="0.43475" stroke-linecap="round" stroke-linejoin="round"/>
<path d="M67.2672 144.433V145.833C67.2672 145.833 66.5113 146.216 66.0939 145.833C65.6765 145.451 66.2145 144.382 67.2672 144.433Z" fill="#F9F9F9" stroke="#DDDDDD" stroke-width="0.43475" stroke-linecap="round" stroke-linejoin="round"/>
<path d="M73.8809 142.66C75.1052 141.363 76.3387 142.007 75.9585 143.066C75.5782 144.125 73.8809 144.163 73.8809 144.102V142.66Z" fill="#F9F9F9" stroke="#DDDDDD" stroke-width="0.43475" stroke-linecap="round" stroke-linejoin="round"/>
<path d="M73.8809 144.433V145.833C73.8809 145.833 74.6414 146.216 75.0541 145.833C75.4669 145.451 74.9336 144.382 73.8809 144.433Z" fill="#F9F9F9" stroke="#DDDDDD" stroke-width="0.43475" stroke-linecap="round" stroke-linejoin="round"/>
<path d="M73.8809 139.006C75.4251 137.368 76.9787 138.185 76.5011 139.519C76.0234 140.854 73.8809 140.896 73.8809 140.821V139.006Z" fill="#F9F9F9" stroke="#DDDDDD" stroke-width="0.43475" stroke-linecap="round" stroke-linejoin="round"/>
<path d="M77.1966 217.317H63.9565V219.959H77.1966V217.317Z" fill="#EDEDED"/>
<path d="M93.0889 54.1333C95.1294 51.422 102.967 54.18 105.049 56.8493C107.131 59.5186 100.268 67.5826 97.7356 66.0146C95.2036 64.4466 90.8397 57.12 93.0889 54.1333Z" fill="#F9F9F9" stroke="#EDEDED" stroke-width="0.43475" stroke-linecap="round" stroke-linejoin="round"/>
<path d="M98.4365 58.8467C95.7236 62.0153 94.8239 65.7207 96.4378 67.1207C98.0516 68.5207 101.539 67.0833 104.275 63.9147C107.011 60.746 107.888 57.0407 106.274 55.6453C104.66 54.25 101.154 55.678 98.4365 58.8467Z" fill="#F9F9F9" stroke="#EDEDED" stroke-width="0.43475" stroke-linecap="round" stroke-linejoin="round"/>
<path d="M79.3017 54.1333C81.3375 51.422 89.1749 54.18 91.2571 56.8493C93.3394 59.5186 86.4805 67.5826 83.9438 66.0146C81.4071 64.4466 77.0525 57.12 79.3017 54.1333Z" fill="#F9F9F9" stroke="#EDEDED" stroke-width="0.43475" stroke-linecap="round" stroke-linejoin="round"/>
<path d="M84.649 58.8467C81.9314 62.0153 81.0364 65.7207 82.6502 67.1207C84.2641 68.5207 87.7515 67.0833 90.483 63.9147C93.2145 60.746 94.0956 57.0407 92.4864 55.6453C90.8772 54.25 87.3666 55.678 84.649 58.8467Z" fill="#F9F9F9" stroke="#EDEDED" stroke-width="0.43475" stroke-linecap="round" stroke-linejoin="round"/>
<path d="M85.8174 60.0133C83.4987 62.7153 82.5109 65.6787 83.6053 66.626C84.6998 67.5733 87.4637 66.1593 89.7825 63.4527C92.1012 60.746 93.089 57.7873 91.9946 56.8353C90.9001 55.8833 88.1362 57.3067 85.8174 60.0133Z" fill="#EDEDED"/>
<path d="M103.568 63.4415C105.885 60.7385 106.877 57.7776 105.783 56.8282C104.689 55.8787 101.924 57.3003 99.6073 60.0032C97.2904 62.7062 96.2988 65.6671 97.3927 66.6165C98.4865 67.566 101.251 66.1444 103.568 63.4415Z" fill="#F9F9F9" stroke="#DDDDDD" stroke-width="0.43475" stroke-linecap="round" stroke-linejoin="round"/>
<path d="M68.0972 51.828V41.384" stroke="#DDDDDD" stroke-width="0.8695" stroke-linecap="round" stroke-linejoin="round"/>
<path d="M81.4814 53.0133C81.5092 53.0553 81.4814 40.32 81.4814 40.32" stroke="#DDDDDD" stroke-width="0.8695" stroke-linecap="round" stroke-linejoin="round"/>
<path d="M94.6196 53.186V35.8307" stroke="#DDDDDD" stroke-width="0.8695" stroke-linecap="round" stroke-linejoin="round"/>
<path d="M103.755 73.3506L116.444 90.9347" stroke="#DDDDDD" stroke-width="0.43475" stroke-linecap="round" stroke-linejoin="round"/>
<path d="M87.8027 70.6673L97.5925 87.416" stroke="#DDDDDD" stroke-width="0.43475" stroke-linecap="round" stroke-linejoin="round"/>
<path d="M72.1089 69.3747L82.1444 88.2513" stroke="#DDDDDD" stroke-width="0.43475" stroke-linecap="round" stroke-linejoin="round"/>
<path d="M67.6335 52.066C70.416 50.1433 76.9874 55.2533 78.1282 58.4453C79.269 61.6373 70.2213 67.102 68.3106 64.8153C66.4 62.5287 64.5635 54.1893 67.6335 52.066Z" fill="#F9F9F9" stroke="#EDEDED" stroke-width="0.43475" stroke-linecap="round" stroke-linejoin="round"/>
<path d="M75.1745 64.9101C78.7476 62.7675 80.761 59.5391 79.6715 57.6992C78.582 55.8594 74.8022 56.1047 71.229 58.2473C67.6559 60.3899 65.6425 63.6183 66.732 65.4582C67.8215 67.298 71.6013 67.0527 75.1745 64.9101Z" fill="#F9F9F9" stroke="#EDEDED" stroke-width="0.43475" stroke-linecap="round" stroke-linejoin="round"/>
<path d="M74.648 64.2432C77.6953 62.4159 79.5662 59.9223 78.8268 58.6736C78.0873 57.4249 75.0176 57.8939 71.9703 59.7211C68.923 61.5484 67.0521 64.042 67.7915 65.2907C68.531 66.5394 71.6007 66.0704 74.648 64.2432Z" fill="#DDDDDD" stroke="#DDDDDD" stroke-width="0.43475" stroke-miterlimit="10"/>
<path d="M148.52 243.138L112.496 208.264L146.109 175.723H141.392L110.136 205.977L78.8788 175.723H74.1625L107.775 208.264L71.751 243.138H76.4719L110.136 210.546L143.799 243.138H148.52Z" fill="#F9F9F9" stroke="#EDEDED" stroke-width="0.43475" stroke-linecap="round" stroke-linejoin="round"/>
<path d="M73.8807 168.364H49.0469V177.623H73.8807V168.364Z" fill="#F9F9F9" stroke="#DDDDDD" stroke-width="0.43475" stroke-linecap="round" stroke-linejoin="round"/>
<path d="M171.227 168.364H73.8809V177.623H171.227V168.364Z" fill="#F9F9F9" stroke="#DDDDDD" stroke-width="0.43475" stroke-linecap="round" stroke-linejoin="round"/>
<path d="M317.437 238.434L317.02 236.614L304.119 239.601L304.239 239.139L297.005 237.23L295.984 238.891L303.766 240.94L303.924 240.347L304.188 241.505L317.437 238.434Z" fill="#EDEDED"/>
<path d="M323.364 246.96H320.767L307.852 224.891H310.449L323.364 246.96Z" fill="#F9F9F9" stroke="#DDDDDD" stroke-width="0.43475" stroke-linecap="round" stroke-linejoin="round"/>
<path d="M290.354 246.96H292.952L305.867 224.891H303.27L290.354 246.96Z" fill="#F9F9F9" stroke="#DDDDDD" stroke-width="0.43475" stroke-linecap="round" stroke-linejoin="round"/>
<path d="M300.85 246.96H303.447L308.293 224.891H305.696L300.85 246.96Z" fill="#F9F9F9" stroke="#DDDDDD" stroke-width="0.43475" stroke-linecap="round" stroke-linejoin="round"/>
<path d="M308.293 171.033H305.427V220.346H308.293V171.033Z" fill="#F9F9F9" stroke="#DDDDDD" stroke-width="0.43475" stroke-linecap="round" stroke-linejoin="round"/>
<path d="M320.28 121.091H293.443C290.918 121.091 288.871 123.151 288.871 125.692V168.149C288.871 170.691 290.918 172.751 293.443 172.751H320.28C322.806 172.751 324.853 170.691 324.853 168.149V125.692C324.853 123.151 322.806 121.091 320.28 121.091Z" fill="#F9F9F9" stroke="#DDDDDD" stroke-width="0.8695" stroke-linecap="round" stroke-linejoin="round"/>
<path d="M316.496 132.071H297.223V136.257H316.496V132.071Z" fill="#EDEDED"/>
<path d="M306.859 164.719C312.558 164.719 317.177 160.071 317.177 154.336C317.177 148.601 312.558 143.953 306.859 143.953C301.16 143.953 296.541 148.601 296.541 154.336C296.541 160.071 301.16 164.719 306.859 164.719Z" stroke="#DDDDDD" stroke-width="0.43475" stroke-linecap="round" stroke-linejoin="round"/>
<path d="M309.647 220.346H304.072C303.002 220.346 302.134 221.219 302.134 222.297V224.042C302.134 225.119 303.002 225.993 304.072 225.993H309.647C310.717 225.993 311.585 225.119 311.585 224.042V222.297C311.585 221.219 310.717 220.346 309.647 220.346Z" fill="#EDEDED"/>
<path d="M285.897 54.1333C283.857 51.422 276.019 54.18 273.937 56.8493C271.855 59.5186 278.718 67.5826 281.25 66.0146C283.782 64.4466 288.146 57.12 285.897 54.1333Z" fill="#F9F9F9" stroke="#EDEDED" stroke-width="0.43475" stroke-linecap="round" stroke-linejoin="round"/>
<path d="M280.569 58.8467C283.282 62.0153 284.182 65.7207 282.568 67.1207C280.954 68.5207 277.467 67.0833 274.731 63.9147C271.995 60.746 271.118 57.0407 272.732 55.6453C274.346 54.25 277.833 55.678 280.569 58.8467Z" fill="#F9F9F9" stroke="#EDEDED" stroke-width="0.43475" stroke-linecap="round" stroke-linejoin="round"/>
<path d="M299.685 54.1333C297.645 51.422 289.812 54.18 287.73 56.8493C285.647 59.5186 292.506 67.5826 295.043 66.0146C297.58 64.4466 301.934 57.12 299.685 54.1333Z" fill="#F9F9F9" stroke="#EDEDED" stroke-width="0.43475" stroke-linecap="round" stroke-linejoin="round"/>
<path d="M294.339 58.8467C297.056 62.0153 297.951 65.7207 296.337 67.1207C294.723 68.5207 291.236 67.0833 288.505 63.9147C285.773 60.746 284.892 57.0407 286.501 55.6453C288.11 54.25 291.621 55.678 294.339 58.8467Z" fill="#F9F9F9" stroke="#EDEDED" stroke-width="0.43475" stroke-linecap="round" stroke-linejoin="round"/>
<path d="M295.39 66.6459C296.484 65.6965 295.492 62.7356 293.175 60.0326C290.858 57.3296 288.093 55.9081 287 56.8575C285.906 57.807 286.897 60.7679 289.214 63.4708C291.531 66.1738 294.296 67.5954 295.39 66.6459Z" fill="#EDEDED"/>
<path d="M281.602 66.6405C282.696 65.691 281.704 62.7302 279.387 60.0272C277.07 57.3242 274.305 55.9027 273.211 56.8521C272.118 57.8015 273.109 60.7624 275.426 63.4654C277.743 66.1684 280.508 67.5899 281.602 66.6405Z" fill="#F9F9F9" stroke="#DDDDDD" stroke-width="0.43475" stroke-linecap="round" stroke-linejoin="round"/>
<path d="M310.889 51.828V41.384" stroke="#DDDDDD" stroke-width="0.8695" stroke-linecap="round" stroke-linejoin="round"/>
<path d="M297.505 53.0133C297.478 53.0553 297.505 40.32 297.505 40.32" stroke="#DDDDDD" stroke-width="0.8695" stroke-linecap="round" stroke-linejoin="round"/>
<path d="M284.368 53.186V35.8307" stroke="#DDDDDD" stroke-width="0.8695" stroke-linecap="round" stroke-linejoin="round"/>
<path d="M275.232 73.3506L262.543 90.9347" stroke="#DDDDDD" stroke-width="0.43475" stroke-linecap="round" stroke-linejoin="round"/>
<path d="M291.184 70.6673L281.394 87.416" stroke="#DDDDDD" stroke-width="0.43475" stroke-linecap="round" stroke-linejoin="round"/>
<path d="M306.877 69.3747L296.842 88.2513" stroke="#DDDDDD" stroke-width="0.43475" stroke-linecap="round" stroke-linejoin="round"/>
<path d="M311.352 52.066C308.57 50.1433 301.994 55.2533 300.857 58.4453C299.721 61.6373 308.741 67.102 310.675 64.8153C312.609 62.5287 314.422 54.1893 311.352 52.066Z" fill="#F9F9F9" stroke="#EDEDED" stroke-width="0.43475" stroke-linecap="round" stroke-linejoin="round"/>
<path d="M311.746 65.03C312.831 63.1881 310.812 59.9645 307.234 57.8298C303.657 55.6952 299.878 55.4579 298.792 57.2998C297.707 59.1417 299.726 62.3654 303.304 64.5C306.881 66.6347 310.66 66.872 311.746 65.03Z" fill="#F9F9F9" stroke="#EDEDED" stroke-width="0.434685" stroke-linecap="round" stroke-linejoin="round"/>
<path d="M311.193 65.2893C311.933 64.0405 310.062 61.547 307.015 59.7197C303.967 57.8925 300.898 57.4235 300.158 58.6722C299.419 59.9209 301.29 62.4145 304.337 64.2418C307.384 66.069 310.454 66.538 311.193 65.2893Z" fill="#DDDDDD" stroke="#DDDDDD" stroke-width="0.43475" stroke-miterlimit="10"/>
<path d="M245.941 147.873C249.396 145.609 250.185 144.83 254.21 146.3C258.235 147.77 260.638 152.297 259.594 154.611C258.551 156.926 242.737 168.182 239.903 167.342C237.07 166.502 237.881 158.345 241.002 153.771C244.123 149.198 244.861 148.587 245.941 147.873Z" fill="#C3DCF8"/>
<path d="M246.873 151.522L243.627 156.842L242.75 156.375C241.99 155.979 240.696 155.321 238.804 154.369C238.56 154.247 238.328 154.105 238.108 153.944C234.945 151.662 237.988 147.495 241.248 148.839C243.174 149.62 245.052 150.516 246.873 151.522Z" fill="#B25E47"/>
<path d="M242.736 156.389C241.976 155.993 240.682 155.335 238.79 154.383C238.546 154.261 238.314 154.119 238.094 153.958L238.725 152.843L240.752 151.76L242.783 151.116L243.437 151.522L243.474 152.945C243.474 152.945 244.499 154.653 242.736 156.389Z" fill="#914839"/>
<path d="M241.818 160.179C243.613 156.842 247.578 150.08 249.818 147.873C249.89 147.807 249.948 147.726 249.988 147.636C250.028 147.546 250.048 147.448 250.048 147.35C250.048 147.251 250.028 147.154 249.988 147.064C249.948 146.974 249.89 146.893 249.818 146.827" stroke="#83ADDF" stroke-width="0.328375" stroke-linecap="round" stroke-linejoin="round"/>
<path d="M302.457 242.2C302.457 242.2 309.413 250.339 310.151 251.067C310.379 251.262 310.664 251.378 310.963 251.398C311.262 251.417 311.56 251.338 311.811 251.174L309.585 235.443L301.664 236.577L302.457 242.2Z" fill="#C3DCF8"/>
<path d="M303.293 235.928V244.459C303.293 244.459 279.378 250.101 272.806 250.012C266.235 249.923 263.694 245.252 263.87 240.049C264.046 234.845 266.852 204.349 266.852 204.349L268.614 203.975L285.184 200.471L278.9 231.807L277.778 237.407L303.293 235.928Z" fill="#93BEE5"/>
<path d="M285.165 200.471L278.9 231.807C277.119 230.179 274.624 226.917 276.581 223.935C279.364 219.665 279.243 213.369 276.92 214.382C274.597 215.395 268.6 214.023 267.45 209.389L268.596 203.975L285.165 200.471Z" fill="#83ADDF"/>
<path d="M277.787 237.407C277.193 239.862 276.646 240.595 276.646 240.595" stroke="#C3DCF8" stroke-width="0.328375" stroke-linecap="round" stroke-linejoin="round"/>
<path d="M285.133 187.021L262.098 194.917C262.098 194.917 261.393 191.926 260.967 191.926C260.54 191.926 259.483 192.355 258.569 190.582C258.356 190.171 257.739 189.182 256.886 187.847C255.031 184.903 251.984 180.306 249.66 176.685C248.441 174.781 247.411 173.147 246.846 172.167C246.679 171.878 246.512 171.575 246.349 171.257C245.097 168.845 243.97 165.699 243.915 162.647C243.853 160.997 244.199 159.357 244.921 157.873C246.313 155.308 248.623 153.371 251.381 152.455C255.137 151.153 260.025 151.489 265.294 155.101C267.932 156.972 270.328 159.167 272.426 161.635C279.243 169.456 283.412 178.995 283.946 180.077C284.655 181.501 283.514 182.131 283.129 182.579C282.744 183.027 285.133 187.021 285.133 187.021Z" fill="#F4A789"/>
<path d="M272.412 161.611C268.452 163.945 262.789 165.839 259.316 162.251C258.519 161.414 257.553 160.759 256.482 160.333C252.819 158.877 248.237 160.221 243.915 162.643C243.853 160.992 244.199 159.352 244.921 157.869C246.313 155.303 248.623 153.367 251.381 152.451C255.137 151.149 260.025 151.485 265.294 155.097C267.926 156.962 270.317 159.151 272.412 161.611Z" fill="#EF8A66"/>
<path d="M256.886 187.847C255.031 184.903 251.984 180.306 249.661 176.685C248.441 174.781 247.412 173.147 246.846 172.167C246.679 171.878 246.512 171.575 246.35 171.257C248.882 165.191 254.168 162.955 255.073 167.393C256.752 175.639 252.068 172.755 253.681 178.925C254.001 180.082 259.084 183.834 256.886 187.847Z" fill="#E56441"/>
<path d="M263.165 191.198L281.015 183.195" stroke="#9B621F" stroke-width="0.328375" stroke-linecap="round" stroke-linejoin="round"/>
<path d="M251.02 172.424L249.754 183.983L245.399 176.111" stroke="#683F1D" stroke-width="0.43475" stroke-miterlimit="10"/>
<path d="M251.71 183.582H248.208V189.719H251.71V183.582Z" fill="white" stroke="#683F1D" stroke-width="0.43475" stroke-linecap="round" stroke-linejoin="round"/>
<path d="M260.442 210.159C264.189 210.807 267.644 211.353 269.805 211.559C273.002 211.84 276.218 211.335 279.178 210.089" stroke="#83ADDF" stroke-width="0.328375" stroke-linecap="round" stroke-linejoin="round"/>
<path d="M236.606 242.251C236.606 242.251 226.677 248.626 225.777 249.34C225.526 249.558 225.353 249.852 225.285 250.179C225.217 250.505 225.258 250.845 225.401 251.146H242.843V242.251H236.606Z" fill="#C3DCF8"/>
<path d="M268.656 192.677C268.656 192.677 244.295 192.957 239.802 192.719C235.308 192.481 229.947 194.432 229.451 203.28C228.954 212.128 232.442 243.133 232.442 243.133H243.359L242.236 206.733C242.236 206.733 262.817 210.873 269.806 211.563C276.795 212.254 286.882 208.563 287.392 199.201C287.832 191.198 284.655 187.194 284.655 187.194L268.656 192.677Z" fill="#93BEE5"/>
<path d="M276.86 189.719C277.217 193.139 276.197 196.075 274.606 195.687C273.015 195.3 271.995 194.945 271.893 196.387C271.791 197.829 271.128 198.394 269.644 197.624C268.16 196.854 267.39 197.363 266.518 197.727C265.646 198.091 239.287 199.682 238.16 199.836C237.033 199.99 236.88 200.97 236.982 201.703C237.084 202.435 234.932 202.011 234.932 202.636C234.932 203.261 236.365 203.975 236.161 204.288C235.957 204.601 235.382 205.366 235.748 206.155C236.115 206.943 236.059 206.929 236.263 211.255C236.467 215.581 238.211 243.171 238.211 243.171" stroke="#C3DCF8" stroke-width="0.328375" stroke-linecap="round" stroke-linejoin="round"/>
<path d="M273.613 191.8C273.503 192.747 273.691 193.705 274.151 194.539" stroke="#C3DCF8" stroke-width="0.328375" stroke-linecap="round" stroke-linejoin="round"/>
<path d="M242.236 206.733C240.154 206.117 239.625 205.497 239.625 205.497" stroke="#C3DCF8" stroke-width="0.328375" stroke-linecap="round" stroke-linejoin="round"/>
<path d="M211.294 246.699C206.504 246.699 202.562 249.163 202.451 250.012C202.339 250.861 211.294 250.866 211.294 250.866C211.294 250.866 220.245 250.866 220.138 250.012C220.032 249.158 216.08 246.699 211.294 246.699Z" fill="#DDDDDD"/>
<path d="M210.148 144.177H212.435V247.45C212.435 247.595 212.406 247.738 212.351 247.871C212.296 248.005 212.216 248.126 212.114 248.229C212.013 248.331 211.892 248.412 211.759 248.467C211.626 248.523 211.484 248.551 211.34 248.551H211.243C210.953 248.551 210.674 248.435 210.469 248.229C210.264 248.022 210.148 247.742 210.148 247.45V144.177Z" fill="#F9F9F9" stroke="#DDDDDD" stroke-width="0.43475" stroke-linecap="round" stroke-linejoin="round"/>
<path d="M224.869 115.948C220.31 120.185 222.248 129.015 225.954 134.302C229.659 139.589 229.979 147.775 223.171 154.336C216.363 160.897 205.73 165.433 205.187 179.069C204.645 192.705 218.78 200.858 219.216 211.101C219.679 221.975 214.74 231.863 212.44 235.835" stroke="#EDEDED" stroke-width="0.8695" stroke-linecap="round" stroke-linejoin="round"/>
<path d="M239.027 167.664C236.588 168.131 234.389 168.523 232.391 168.817C226.686 169.666 222.81 169.713 220.621 168.35C220.05 167.983 219.569 167.492 219.212 166.913C218.855 166.334 218.631 165.681 218.557 165.004C218.42 164.299 218.498 163.569 218.78 162.909C219.443 161.383 221.372 159.997 225.351 158.667C226.719 158.2 228.328 157.761 230.211 157.313C239.982 155.003 243.465 154.135 245.612 156.487C247.759 158.839 249.763 165.629 239.027 167.664Z" fill="#F4A789"/>
<path d="M232.391 168.817C226.686 169.666 222.81 169.713 220.621 168.35C220.05 167.983 219.569 167.492 219.212 166.913C218.855 166.334 218.631 165.681 218.557 165.004C218.42 164.299 218.498 163.569 218.78 162.909C220.087 163.375 221.145 164.397 221.298 165.517C221.683 168.317 223.686 168.187 225.346 167.51C225.588 167.416 225.825 167.308 226.056 167.188C227.646 166.367 231.278 166.978 232.391 168.817Z" fill="#E56441"/>
<path d="M256.51 160.333C256.265 161.427 255.944 162.503 255.55 163.553C255.142 164.677 254.682 165.788 254.274 166.819C252.946 170.192 251.414 173.481 249.688 176.666C249.465 177.072 249.224 177.483 248.997 177.884C247.109 181.151 244.907 184.151 242.662 185.626C240.909 186.779 239.128 186.993 237.44 185.626C237.234 185.462 237.048 185.272 236.888 185.061C235.576 183.391 235.465 180.306 236.151 176.661C237.003 172.595 238.381 168.658 240.251 164.953C243.455 158.452 247.81 152.875 251.408 152.399C252.05 152.305 252.706 152.399 253.296 152.67C256.779 154.327 257.177 157.211 256.51 160.333Z" fill="#F4A789"/>
<path d="M255.549 163.553C255.141 164.677 254.682 165.788 254.274 166.819C252.945 170.192 251.414 173.481 249.687 176.666C249.465 177.072 249.224 177.483 248.996 177.884C247.109 181.151 244.906 184.151 242.662 185.626" stroke="#9B621F" stroke-width="0.328375" stroke-linecap="round" stroke-linejoin="round"/>
<path d="M256.51 160.333C252.846 158.877 248.265 160.221 243.942 162.643C242.663 163.36 241.425 164.148 240.232 165.004C243.437 158.503 247.792 152.927 251.39 152.451C252.032 152.356 252.688 152.45 253.278 152.721C256.779 154.327 257.178 157.211 256.51 160.333Z" fill="#EF8A66"/>
<path d="M248.997 177.903C247.109 181.169 244.906 184.17 242.662 185.645C240.909 186.797 239.128 187.012 237.44 185.645C237.233 185.48 237.048 185.291 236.888 185.08C239.694 186.368 241.428 184.534 242.731 181.459L242.871 181.113C245.087 175.607 249.006 177.889 248.997 177.903Z" fill="#E56441"/>
<path d="M217.657 168.868C216.356 167.764 215.128 166.576 213.979 165.312C212.866 164.192 211.842 163.767 210.543 165.499C210.543 165.499 208.688 164.985 207.849 165.312C207.009 165.639 207.241 167.071 207.663 167.384C208.085 167.697 207.278 168.317 207.283 168.868C207.288 169.419 207.747 170.175 207.617 170.501C207.487 170.828 206.777 172.093 207.895 172.886C209.013 173.679 214.188 174.533 214.188 174.533L217.657 168.868Z" fill="#B25E47"/>
<path d="M213.979 165.312C212.866 164.192 211.842 163.767 210.543 165.499C210.543 165.499 208.688 164.985 207.849 165.312C207.009 165.639 207.241 167.071 207.663 167.384C208.085 167.697 207.278 168.317 207.283 168.868C207.288 169.419 207.747 170.175 207.617 170.501C207.487 170.828 206.777 172.093 207.895 172.886" stroke="#934735" stroke-width="0.328375" stroke-linecap="round" stroke-linejoin="round"/>
<path d="M210.543 165.499L212.829 166.287" stroke="#934735" stroke-width="0.328375" stroke-linecap="round" stroke-linejoin="round"/>
<path d="M242.662 185.645C240.951 187.343 236.981 188.104 232.274 186.578C230.066 185.878 227.917 185.003 225.847 183.96C222.755 182.379 219.888 180.387 217.323 178.038C217.038 177.818 216.818 177.524 216.686 177.188C216.555 176.852 216.517 176.486 216.576 176.129L214.188 174.533L217.657 168.887L220.838 170.8C221.105 170.605 221.424 170.493 221.754 170.479C222.084 170.465 222.411 170.549 222.693 170.721C223.806 171.29 232.316 175.065 234.412 175.924C234.848 176.106 235.456 176.391 236.147 176.717L236.559 176.927L236.926 177.119L237.107 177.212L237.881 177.641C238.484 177.987 239.11 178.369 239.708 178.775L240.172 179.088L240.218 179.121C241.173 179.776 242.027 180.57 242.75 181.477C243.054 181.869 243.291 182.309 243.451 182.779C243.61 183.282 243.621 183.821 243.481 184.33C243.341 184.839 243.056 185.296 242.662 185.645Z" fill="#F4A789"/>
<path d="M234.417 175.933C234.853 176.115 235.461 176.4 236.152 176.727C237.563 177.417 238.917 178.221 240.2 179.13" stroke="#9B621F" stroke-width="0.328375" stroke-linecap="round" stroke-linejoin="round"/>
<path d="M217.29 175.117C218.005 173.831 218.852 172.625 219.817 171.519" stroke="#9B621F" stroke-width="0.328375" stroke-linecap="round" stroke-linejoin="round"/>
<path d="M242.662 185.645C240.951 187.343 236.981 188.104 232.274 186.578C230.066 185.878 227.917 185.003 225.847 183.96C227.859 182.84 232.339 181.916 235.409 184.198C235.869 184.547 236.363 184.847 236.884 185.094C239.69 186.382 241.424 184.548 242.727 181.473C243.031 181.864 243.268 182.305 243.427 182.775C243.591 183.276 243.605 183.815 243.469 184.324C243.334 184.834 243.053 185.293 242.662 185.645Z" fill="#E56441"/>
<path d="M247.123 151.928C246.952 152.238 246.721 152.51 246.444 152.729C246.167 152.948 245.849 153.109 245.51 153.204C245.17 153.298 244.815 153.324 244.466 153.28C244.116 153.236 243.779 153.122 243.474 152.945C241.851 155.577 237.213 157.215 235.238 155.143C234.268 154.126 234.222 151.564 234.811 148.834C234.967 148.107 235.162 147.389 235.395 146.683C236.086 144.569 237.111 142.567 238.326 141.311L238.488 141.153C242.76 137.051 250.476 141.997 246.446 149.24C246.446 149.24 248.107 150.267 247.123 151.928Z" fill="#B25E47"/>
<path d="M246.446 149.24C246.064 149.018 245.611 148.953 245.183 149.06C244.755 149.167 244.385 149.438 244.151 149.814C243.687 150.481 242.885 149.763 243.339 148.997C243.794 148.232 245.194 146.412 245.222 145.031C245.25 143.649 244.61 142.73 243.39 142.525C242.17 142.319 239.263 142.884 238.488 141.153C242.759 137.051 250.476 141.997 246.446 149.24Z" fill="#D39933"/>
<path d="M238.943 146.757C238.943 146.85 238.97 146.94 239.021 147.017C239.072 147.093 239.144 147.153 239.229 147.188C239.314 147.224 239.407 147.233 239.497 147.215C239.587 147.197 239.67 147.153 239.735 147.087C239.799 147.022 239.844 146.939 239.861 146.848C239.879 146.758 239.87 146.664 239.835 146.579C239.8 146.493 239.741 146.421 239.664 146.369C239.588 146.318 239.498 146.291 239.407 146.291C239.284 146.291 239.166 146.34 239.079 146.427C238.992 146.515 238.943 146.634 238.943 146.757Z" fill="#683F1D"/>
<path d="M236.48 145.791C236.48 145.919 236.531 146.042 236.621 146.133C236.711 146.223 236.833 146.274 236.96 146.274C237.088 146.274 237.21 146.223 237.3 146.133C237.39 146.042 237.44 145.919 237.44 145.791C237.44 145.663 237.39 145.54 237.3 145.45C237.21 145.359 237.088 145.308 236.96 145.308C236.833 145.308 236.711 145.359 236.621 145.45C236.531 145.54 236.48 145.663 236.48 145.791Z" fill="#683F1D"/>
<path d="M236.072 148.517C236.026 147.457 236.258 147.047 236.963 146.911C237.667 146.776 238.479 146.323 238.131 145.143" stroke="#934735" stroke-width="0.328375" stroke-linecap="round" stroke-linejoin="round"/>
<path d="M244.151 151.447C244.615 150.122 246.173 150.122 246.47 150.827" stroke="#934735" stroke-width="0.328375" stroke-linecap="round" stroke-linejoin="round"/>
<path d="M244.285 151.153C245.5 150.08 246.456 152.194 244.461 152.194" stroke="#934735" stroke-width="0.328375" stroke-linecap="round" stroke-linejoin="round"/>
<path d="M236.174 143.267C236.072 143.626 237.927 144.485 238.285 143.733C238.642 142.982 236.383 142.548 236.174 143.267Z" fill="#D39933"/>
<path d="M239.55 144.429C239.299 145.236 241.66 146.403 242.012 145.829C242.202 145.507 240.018 142.907 239.55 144.429Z" fill="#D39933"/>
<path d="M236.3 150.439C236.448 149.898 238.155 150.85 237.969 151.671C237.784 152.493 236.049 151.317 236.3 150.439Z" fill="white" stroke="#934735" stroke-width="0.328375" stroke-linecap="round" stroke-linejoin="round"/>
<path d="M242.713 149.035C242.824 149.702 242.036 150.388 240.955 150.57C239.875 150.752 238.901 150.355 238.79 149.688C238.678 149.021 239.471 148.335 240.552 148.153C241.633 147.971 242.606 148.367 242.713 149.035Z" fill="#A0503D"/>
<path d="M235.386 148.68C235.218 148.797 235.014 148.852 234.811 148.834C234.966 148.107 235.161 147.389 235.395 146.683C235.845 147.467 235.859 148.325 235.386 148.68Z" fill="#A0503D"/>
<path d="M243.469 152.945C243.147 152.832 242.865 152.626 242.658 152.353" stroke="#934735" stroke-width="0.328375" stroke-linecap="round" stroke-linejoin="round"/>
<path d="M218.95 144.559L214.957 146.099C213.807 145.133 212.402 142.539 212.448 142.45C212.495 142.361 213.909 140.359 215.115 138.656L216.349 136.911L216.747 136.346C216.747 136.346 217.976 137.191 218.139 137.648C218.149 137.664 218.157 137.681 218.162 137.699C218.485 139.319 218.695 140.96 218.792 142.609C218.857 143.197 218.89 143.845 218.95 144.559Z" fill="#B25E47"/>
<path d="M225.346 167.491C224.756 168.129 223.975 168.556 223.122 168.708C222.27 168.859 221.391 168.727 220.62 168.331C219.705 167.791 218.983 166.975 218.556 165.998C218.032 164.906 217.527 163.772 217.054 162.638C214.406 156.221 212.843 149.655 214.99 149.105L214.438 146.305L219.409 144.391L220.522 147.877C220.522 147.877 221.501 147.056 222.006 148.223C222.364 149.035 224.098 154.537 225.35 158.653C225.35 158.718 225.392 158.779 225.41 158.844V158.867C225.466 159.063 225.522 159.25 225.582 159.441C226.023 160.897 226.38 162.111 226.551 162.764C226.793 163.588 226.809 164.463 226.596 165.295C226.384 166.127 225.952 166.886 225.346 167.491Z" fill="#F4A789"/>
<path d="M224.868 162.764C225.216 162.179 225.444 161.53 225.537 160.855C225.63 160.18 225.587 159.493 225.41 158.835" stroke="#9B621F" stroke-width="0.328375" stroke-linecap="round" stroke-linejoin="round"/>
<path d="M216.205 148.825L219.317 148.05" stroke="#9B621F" stroke-width="0.328375" stroke-linecap="round" stroke-linejoin="round"/>
<path d="M225.346 167.491C224.756 168.129 223.975 168.556 223.123 168.708C222.27 168.859 221.391 168.727 220.62 168.331C219.705 167.791 218.983 166.975 218.556 165.998C218.032 164.906 217.527 163.772 217.054 162.638C217.64 162.609 218.227 162.698 218.779 162.899C220.087 163.366 221.144 164.388 221.297 165.508C221.673 168.317 223.685 168.168 225.346 167.491Z" fill="#E56441"/>
<path d="M230.02 119.042L212.718 144.517L210.033 148.47L208.465 150.775L202.149 160.067L200.108 163.077C199.931 163.313 199.669 163.471 199.379 163.518C199.088 163.566 198.79 163.499 198.548 163.331C198.305 163.164 198.135 162.909 198.075 162.619C198.014 162.329 198.066 162.027 198.221 161.775L200.368 158.611L206.763 149.198L208.433 146.739L211.192 142.674L228.105 117.763L230.02 119.042Z" fill="#F9F9F9" stroke="#DDDDDD" stroke-width="0.43475" stroke-linecap="round" stroke-linejoin="round"/>
<path d="M212.695 144.517L210.009 148.47L208.442 150.775C207.763 150.385 207.187 149.836 206.763 149.175L208.433 146.715L211.192 142.651C211.487 143.415 212.013 144.068 212.695 144.517Z" fill="#F9F9F9" stroke="#DDDDDD" stroke-width="0.43475" stroke-linecap="round" stroke-linejoin="round"/>
<path d="M226.709 118.487L229.844 120.204L232.58 117.339L227.428 116.825L226.709 118.487Z" fill="#F9F9F9" stroke="#DDDDDD" stroke-width="0.43475" stroke-linecap="round" stroke-linejoin="round"/>
<path d="M228.713 116.634H225.017L224.623 114.791H228.713V116.634Z" fill="#F9F9F9" stroke="#DDDDDD" stroke-width="0.43475" stroke-linecap="round" stroke-linejoin="round"/>
<path d="M238.581 114.305H233.239V117.115H238.581V114.305Z" fill="#F9F9F9" stroke="#DDDDDD" stroke-width="0.43475" stroke-linecap="round" stroke-linejoin="round"/>
<path d="M237.144 115.733C237.143 116.238 237.291 116.732 237.569 117.153C237.847 117.573 238.243 117.901 238.706 118.095C239.17 118.289 239.68 118.34 240.172 118.242C240.665 118.144 241.117 117.901 241.472 117.545C241.828 117.188 242.07 116.733 242.168 116.238C242.266 115.742 242.216 115.229 242.024 114.762C241.832 114.296 241.507 113.897 241.09 113.616C240.673 113.335 240.182 113.185 239.68 113.185C239.008 113.185 238.364 113.454 237.888 113.931C237.413 114.409 237.145 115.057 237.144 115.733Z" fill="#DDDDDD" stroke="#DDDDDD" stroke-width="0.43475" stroke-miterlimit="10"/>
<path d="M226.64 117.245L235.521 117.819L236.142 113.605L226.607 114.375L226.64 117.245Z" fill="#DDDDDD" stroke="#DDDDDD" stroke-width="0.43475" stroke-miterlimit="10"/>
<path d="M210.01 148.47L202.126 160.043C201.373 159.798 200.738 159.279 200.345 158.587L208.41 146.715C208.534 147.107 208.742 147.467 209.018 147.77C209.294 148.073 209.633 148.312 210.01 148.47Z" fill="#F9F9F9" stroke="#EDEDED" stroke-width="0.43475" stroke-linecap="round" stroke-linejoin="round"/>
<path d="M211.28 137.923C212.013 137.135 214.628 139.846 214.086 140.625C213.381 141.647 210.079 139.249 211.28 137.923Z" fill="#B25E47" stroke="#934735" stroke-width="0.328375" stroke-linecap="round" stroke-linejoin="round"/>
<path d="M212.106 136.421C212.987 135.805 215.449 138.339 214.911 139.118C214.202 140.145 210.886 137.27 212.106 136.421Z" fill="#B25E47" stroke="#934735" stroke-width="0.328375" stroke-linecap="round" stroke-linejoin="round"/>
<path d="M212.816 135.245C213.743 134.731 215.904 137.037 215.621 137.942C215.338 138.847 211.253 136.094 212.816 135.245Z" fill="#B25E47" stroke="#934735" stroke-width="0.328375" stroke-linecap="round" stroke-linejoin="round"/>
<path d="M213.993 134.4C214.665 133.826 217.239 135.926 216.938 136.836C216.636 137.746 212.643 135.567 213.993 134.4Z" fill="#B25E47" stroke="#934735" stroke-width="0.328375" stroke-linecap="round" stroke-linejoin="round"/>
<path d="M218.811 142.609C218.088 143.453 217.077 144.228 216.339 143.169C215.069 141.339 216.339 139.02 216.339 139.02C215.922 138.932 215.513 138.81 215.115 138.656L214.763 138.525C213.506 138.059 212.945 136.859 213.654 136.659C214.035 136.542 215.268 136.659 216.349 136.925C217.221 137.125 217.99 137.391 218.157 137.662C218.168 137.678 218.176 137.695 218.18 137.713C218.503 139.329 218.713 140.964 218.811 142.609Z" fill="#B25E47"/>
<path d="M215.778 141.433C215.769 140.595 215.961 139.767 216.339 139.02C215.922 138.932 215.513 138.81 215.115 138.656L214.763 138.525C213.506 138.059 212.945 136.859 213.654 136.659C214.035 136.542 215.268 136.659 216.349 136.925C217.221 137.125 217.99 137.391 218.157 137.662C218.168 137.678 218.176 137.695 218.18 137.713C218.295 138.214 218.384 138.72 218.445 139.23" stroke="#934735" stroke-width="0.328375" stroke-linecap="round" stroke-linejoin="round"/>
<path d="M211.842 133.154C207.323 130.883 202.939 128.35 198.713 125.566C197.72 124.941 196.858 124.39 196.088 123.942C193.431 122.844 191.028 121.206 189.03 119.131C183.298 112.933 186.136 105.658 194.558 107.333H194.641C194.822 107.422 195.003 107.515 195.188 107.618C196.06 108.085 197.043 108.738 198.147 109.485C199.752 110.595 201.542 111.939 203.364 113.386C209.031 117.875 215.051 123.279 216.952 125.183C221.103 129.337 219.313 136.789 211.842 133.154Z" fill="#A7CAF0"/>
<path d="M198.713 125.566C197.72 124.941 196.858 124.39 196.088 123.942C195.148 123.53 194.233 123.063 193.347 122.542" stroke="#83ADDF" stroke-width="0.328375" stroke-linecap="round" stroke-linejoin="round"/>
<path d="M198.152 109.494C197.827 109.555 197.498 109.62 197.173 109.713C195.712 110.064 194.365 110.785 193.26 111.809C192.155 112.833 191.329 114.124 190.862 115.561C190.411 116.827 189.795 118.028 189.03 119.131C183.298 112.933 186.136 105.658 194.558 107.333H194.641C194.822 107.422 195.003 107.515 195.188 107.618C196.065 108.117 197.067 108.733 198.152 109.494Z" fill="#C3DCF8"/>
<path d="M211.841 133.154C207.322 130.883 202.939 128.35 198.712 125.566C198.907 119.999 199.835 115.299 203.35 113.395C209.017 117.885 215.036 123.289 216.938 125.193C221.102 129.337 219.312 136.789 211.841 133.154Z" fill="#B25E47"/>
<path d="M197.136 125.659C198.17 126.593 200.266 127.713 200.818 127.479C200.818 127.479 199.357 124.679 201.393 119.798C203.429 114.917 205.173 113.974 205.173 113.974C205.173 113.974 204.092 112.308 202.585 111.967C202.585 111.967 196.464 115.015 197.136 125.659Z" fill="#83ADDF"/>
<path d="M213.414 133.788C216.535 136.588 220.963 135.37 226.612 124.642C232.26 113.913 233.016 111.967 233.016 111.967C233.016 111.967 237.654 112.275 238.067 111.659C238.479 111.043 236.935 110.87 235.91 110.45C234.885 110.03 234.616 109.638 235.154 109.396C235.692 109.153 239.486 109.12 240.316 109.148C241.146 109.176 241.707 108.458 241.586 108.038C241.586 108.038 242.917 108.215 243.177 107.104C243.349 106.358 241.661 106.68 241.661 106.68C241.661 106.68 242.055 106.162 241.614 105.966C241.174 105.77 234.505 105.863 232.673 106.036C230.841 106.208 230.062 106.68 228.008 108.92C225.953 111.16 216.168 122.453 214.721 124.455C213.274 126.457 210.079 130.774 213.414 133.788Z" fill="#B25E47"/>
<path d="M218.19 120.204C216.525 122.173 215.19 123.788 214.721 124.437" stroke="#934735" stroke-width="0.328375" stroke-linecap="round" stroke-linejoin="round"/>
<path d="M234.764 112.037C236.132 112.065 237.834 112.037 238.066 111.659C238.456 111.043 236.935 110.871 235.91 110.451C234.885 110.031 234.616 109.639 235.154 109.396C235.692 109.153 239.485 109.121 240.315 109.149C241.145 109.177 241.706 108.458 241.586 108.038C241.586 108.038 242.917 108.215 243.177 107.105C243.348 106.358 241.66 106.68 241.66 106.68C241.66 106.68 242.054 106.162 241.614 105.966C240.607 105.85 239.593 105.813 238.581 105.854" stroke="#934735" stroke-width="0.328375" stroke-linecap="round" stroke-linejoin="round"/>
<path d="M233.016 111.967L233.321 111.015" stroke="#934735" stroke-width="0.328375" stroke-linecap="round" stroke-linejoin="round"/>
<path d="M241.586 108.038L236.383 108.155" stroke="#934735" stroke-width="0.328375" stroke-linecap="round" stroke-linejoin="round"/>
<path d="M241.66 106.661L236.267 107.072" stroke="#934735" stroke-width="0.328375" stroke-linecap="round" stroke-linejoin="round"/>
<path d="M201.267 239.059C201.267 239.059 211.734 245.686 211.285 246.699C210.835 247.711 195.053 246.699 193.936 246.699C192.081 246.699 193.068 237.711 193.068 237.711L201.267 239.059Z" fill="#A7CAF0"/>
<path d="M166.737 238.933C166.737 238.933 157.179 245 157.592 245.933C158.005 246.867 172.432 245.933 173.434 245.933C175.117 245.933 174.227 237.725 174.227 237.725L166.737 238.933Z" fill="#A7CAF0"/>
<path d="M201.268 239.064H192.41L176.921 162.759C176.921 162.759 173.707 185.673 173.638 190.484C173.568 194.885 174.162 231.854 174.264 238.154C174.264 238.742 174.264 239.064 174.264 239.064H166.575C166.491 238.313 162.786 205.464 162.151 196.378C161.608 188.58 160.857 180.577 160.555 174.552C160.5 173.474 160.458 172.466 160.439 171.533C160.296 165.354 161.223 152.581 164.149 143.771L185.143 143.253L189.999 143.136C189.429 146.669 189.999 150.766 190.5 153.869C191.001 156.973 201.268 239.064 201.268 239.064Z" fill="#F4A789"/>
<path d="M171.797 150.127C166.144 147.644 164.377 153.23 165.982 159.437C167.373 164.962 165.124 168.677 160.551 174.538C160.495 173.46 160.454 172.452 160.435 171.519C160.291 165.34 161.219 152.567 164.145 143.757L185.139 143.239C185.281 143.542 185.405 143.854 185.51 144.172C186.674 147.737 177.45 152.6 171.797 150.127Z" fill="#E56441"/>
<path d="M186.614 146.533C187.104 147.678 187.786 148.73 188.631 149.641" stroke="#9B621F" stroke-width="0.328375" stroke-linecap="round" stroke-linejoin="round"/>
<path d="M162.476 150.127C163.612 149.865 165.406 147.107 165.43 146.785" stroke="#9B621F" stroke-width="0.328375" stroke-linecap="round" stroke-linejoin="round"/>
<path d="M175.873 146.715C175.691 148.858 175.63 151.01 175.688 153.16" stroke="#9B621F" stroke-width="0.328375" stroke-linecap="round" stroke-linejoin="round"/>
<path d="M175.873 154.574C177.334 153.907 178.02 154 178.094 153.379C178.169 152.759 178.447 146.715 178.447 146.715" stroke="#9B621F" stroke-width="0.328375" stroke-linecap="round" stroke-linejoin="round"/>
<path d="M172.72 160.067C176.295 159.661 178.447 161.275 178.447 161.275" stroke="#9B621F" stroke-width="0.328375" stroke-linecap="round" stroke-linejoin="round"/>
<path d="M182.602 108.869C183.887 114.385 179.194 117.315 177.617 117.315C176.04 117.315 169.956 113.143 171.44 109.816C172.692 107.016 175.688 102.905 175.836 99.6287C175.984 96.3527 179.05 92.4607 182.157 95.6433C182.827 96.3129 183.246 97.1949 183.344 98.14C183.641 100.679 182.097 103.782 182.37 107.329C182.408 107.847 182.485 108.362 182.602 108.869Z" fill="#B25E47"/>
<path d="M182.371 107.333C177.974 107.1 177.65 103.166 179.217 99.7547C180.121 97.79 181.74 97.5147 183.344 98.1447C183.646 100.679 182.097 103.782 182.371 107.333Z" fill="#914839"/>
<path d="M196.088 123.942C194.739 126.879 193.642 129.926 192.809 133.051C191.214 138.759 190.62 143.659 190.37 144.387C190.12 145.115 189.906 145.259 186.66 145.213C183.414 145.166 163.041 145.213 163.041 145.213C163.041 145.213 164.094 131.535 164.089 125.659C164.107 124.919 164.073 124.178 163.987 123.443C163.612 121.17 161.975 115.561 162.132 112.373C162.188 111.286 162.452 110.483 163.06 110.185C165.601 108.92 168.898 108.416 171.231 108.318C171.5 108.318 171.76 108.318 172.001 108.318C172.051 108.376 172.095 108.441 172.131 108.509C172.302 108.799 172.46 109.219 172.734 109.611C173.341 110.479 175.256 111.636 176.532 111.571C177.807 111.505 177.612 114.525 178.387 114.753C179.161 114.982 179.203 113.82 179.43 112.177C179.657 110.535 182.598 108.733 182.598 108.733C182.598 108.733 182.598 108.677 182.57 108.589C182.542 108.5 182.547 108.472 182.537 108.402C183.001 108.136 183.465 107.884 183.952 107.651C186.813 106.251 189.92 105.443 193.602 106.89L193.946 107.035C194.168 107.133 194.377 107.24 194.576 107.347C195.636 107.903 196.535 108.725 197.187 109.732C200.011 114.133 197.266 121.165 196.088 123.942Z" fill="#A7CAF0"/>
<path d="M197.173 109.713C195.712 110.064 194.365 110.785 193.259 111.809C192.154 112.833 191.329 114.124 190.861 115.561C190.411 116.827 189.795 118.028 189.03 119.131C184.911 125.085 177.204 127.097 173.16 121.287C172.136 119.807 170.99 118.418 169.733 117.133C167.498 114.87 164.956 113.143 162.1 112.378C162.155 111.291 162.42 110.488 163.027 110.189C165.568 108.925 168.866 108.421 171.198 108.323C171.467 108.323 171.727 108.323 171.968 108.323C172.019 108.381 172.062 108.445 172.098 108.514C172.27 108.803 172.427 109.223 172.701 109.615C173.308 110.483 175.224 111.641 176.499 111.575C177.774 111.51 177.58 114.529 178.354 114.758C179.129 114.987 179.17 113.825 179.397 112.182C179.625 110.539 182.565 108.738 182.565 108.738C182.565 108.738 182.565 108.682 182.537 108.593C182.509 108.505 182.514 108.477 182.505 108.407C182.968 108.141 183.432 107.889 183.919 107.655C186.78 106.255 189.888 105.448 193.57 106.895L193.913 107.039C194.135 107.137 194.344 107.245 194.544 107.352C195.607 107.899 196.512 108.712 197.173 109.713Z" fill="#C3DCF8"/>
<path d="M173.161 112.378C173.161 112.378 177.056 123.191 179.226 125.883C179.226 125.883 181.921 115.575 182.134 110.735" stroke="#683F1D" stroke-width="0.43475" stroke-miterlimit="10"/>
<path d="M183.706 113.955C182.166 113.643 182.139 111.575 180.752 112C179.365 112.425 180.451 115.561 178.359 115.561C176.267 115.561 177.163 112.761 176.082 112.672C175.001 112.583 173.879 114.179 172.186 115.005C170.494 115.831 169.251 109.681 171.194 108.304C171.565 108.052 171.778 108.094 171.95 108.304C172.122 108.514 172.34 109.102 172.683 109.597C173.29 110.465 175.205 111.622 176.481 111.557C177.756 111.491 177.561 114.511 178.336 114.739C179.11 114.968 179.152 113.806 179.379 112.163C179.606 110.521 182.547 108.719 182.547 108.719C182.547 108.719 182.519 108.579 182.486 108.388C182.435 108.085 182.366 107.641 182.347 107.338C182.884 107.239 183.438 107.345 183.901 107.637C184.161 107.855 184.328 108.166 184.365 108.505C184.666 110.003 185.246 114.263 183.706 113.955Z" fill="white"/>
<path d="M182.138 125.659H176.833V133.947H182.138V125.659Z" fill="white" stroke="#683F1D" stroke-width="0.43475" stroke-linecap="round" stroke-linejoin="round"/>
<path d="M164.07 125.659C162.808 128.557 161.384 131.38 159.804 134.115C157.791 137.569 155.296 141.115 152.848 142.753C151.113 143.906 149.393 144.107 147.862 142.651C147.637 142.438 147.449 142.188 147.306 141.913C145.641 138.768 148.859 131.871 152.064 126.201C154.355 122.15 156.627 118.734 157.114 117.74L164.07 125.659Z" fill="#B25E47"/>
<path d="M169.793 116.359C169.795 116.618 169.775 116.877 169.732 117.133C169.162 120.946 164.061 125.664 164.061 125.664L157.104 117.731C158.005 115.687 159.175 113.775 160.583 112.047C161.236 111.233 162.076 110.592 163.031 110.18C166.486 108.943 169.691 112.467 169.793 116.359Z" fill="#A7CAF0"/>
<path d="M169.793 116.359C169.795 116.618 169.775 116.877 169.732 117.133C167.497 114.87 164.956 113.143 162.099 112.378C161.595 112.237 161.082 112.131 160.564 112.061C161.217 111.247 162.057 110.606 163.013 110.194C166.486 108.943 169.691 112.467 169.793 116.359Z" fill="#C3DCF8"/>
<path d="M157.601 115.561C157.601 115.561 166.575 125.496 166.542 125.659C166.51 125.823 164.358 127.927 164.358 127.927C164.358 127.927 156.201 118.963 156.201 118.505C156.201 118.048 157.147 115.869 157.601 115.561Z" fill="#83ADDF"/>
<path d="M180.009 146.099H160.402L155.955 119.961H175.557L180.009 146.099Z" fill="#F9F9F9" stroke="#DDDDDD" stroke-width="0.43475" stroke-linecap="round" stroke-linejoin="round"/>
<path d="M169.204 121.287H162.762L163.115 118.762H167.989L169.204 121.287Z" fill="#DDDDDD"/>
<path d="M166.837 119.855C167.394 119.243 167.262 118.208 166.541 117.542C165.821 116.877 164.784 116.832 164.227 117.444C163.669 118.055 163.801 119.09 164.522 119.756C165.243 120.422 166.279 120.466 166.837 119.855Z" fill="#DDDDDD"/>
<path d="M166.26 119.321C166.572 118.98 166.499 118.402 166.097 118.03C165.695 117.659 165.116 117.635 164.805 117.977C164.493 118.319 164.566 118.897 164.968 119.268C165.37 119.639 165.948 119.663 166.26 119.321Z" fill="#F9F9F9" stroke="#DDDDDD" stroke-width="0.43475" stroke-linecap="round" stroke-linejoin="round"/>
<path d="M179.713 136.593C179.555 137.102 179.82 137.163 179.922 137.555C180.02 137.888 180.003 138.246 179.872 138.568C179.741 138.891 179.505 139.159 179.203 139.328C178.697 139.673 174.255 139.617 173.174 139.879C172.455 140.051 167.818 141.405 163.792 142.679C161.729 143.327 159.832 143.957 158.691 144.391C155.334 145.679 148.516 146.062 147.301 141.918C146.643 139.65 148.962 137.415 152.018 135.921C154.227 134.817 156.647 134.205 159.113 134.129C159.317 134.129 159.577 134.129 159.818 134.129C163.305 134.05 171.352 133.373 171.954 133.341C172.557 133.308 174.361 132.165 175.785 131.693C175.967 131.625 176.161 131.594 176.355 131.603C176.549 131.612 176.74 131.66 176.915 131.745C177.09 131.829 177.247 131.948 177.376 132.095C177.504 132.242 177.602 132.413 177.663 132.599C177.663 132.599 179.796 131.479 180.274 132.239C180.844 133.14 179.629 133.831 179.922 134.451C180.362 135.408 179.875 136.08 179.713 136.593Z" fill="#B25E47"/>
<path d="M175.761 131.679C175.943 131.611 176.137 131.58 176.331 131.589C176.526 131.598 176.716 131.646 176.891 131.731C177.067 131.815 177.223 131.934 177.352 132.081C177.48 132.228 177.578 132.399 177.639 132.585C177.639 132.585 179.773 131.465 180.25 132.225C180.821 133.126 179.606 133.817 179.898 134.437C180.362 135.408 179.865 136.08 179.703 136.593C179.541 137.107 179.81 137.163 179.912 137.555C180.01 137.888 179.993 138.246 179.862 138.568C179.731 138.891 179.495 139.159 179.193 139.328" stroke="#934735" stroke-width="0.328375" stroke-linecap="round" stroke-linejoin="round"/>
<path d="M152.003 135.917C154.213 134.812 156.633 134.201 159.099 134.125" stroke="#934735" stroke-width="0.328375" stroke-linecap="round" stroke-linejoin="round"/>
<path d="M177.649 132.585L175.525 133.327" stroke="#934735" stroke-width="0.328375" stroke-linecap="round" stroke-linejoin="round"/>
<path d="M185.815 104.179C187.447 104.179 188.769 102.848 188.769 101.206C188.769 99.5642 187.447 98.2333 185.815 98.2333C184.184 98.2333 182.861 99.5642 182.861 101.206C182.861 102.848 184.184 104.179 185.815 104.179Z" stroke="#F4A789" stroke-width="0.43475" stroke-linecap="round" stroke-linejoin="round"/>
<path d="M183.381 104.3C180.738 104.879 178.192 101.999 177.009 100.189C173.615 94.9807 176.68 89.1893 179.611 88.942C182.542 88.6947 184.378 90.8693 185.779 95.3633C185.862 95.634 185.936 95.9 186.001 96.166C186.195 96.9304 186.316 97.7118 186.363 98.4993C186.525 101.551 185.38 103.861 183.381 104.3Z" fill="#B25E47"/>
<path d="M177.556 89.5533L173.108 91.6533C172.32 92.5867 170.878 92.904 170.669 91.6533C170.669 91.6533 169.157 92.764 168.216 91.3687C167.441 90.23 168.643 89.3433 168.643 89.3433C168.482 89.3476 168.324 89.314 168.179 89.2453C167.428 88.858 167.678 87.5187 168.726 87.7847C168.216 87.647 167.778 87.3161 167.505 86.8611C167.232 86.4062 167.144 85.8625 167.261 85.344C167.296 85.0871 167.382 84.8401 167.515 84.6178C167.648 84.3955 167.824 84.2027 168.033 84.0509C168.242 83.8991 168.479 83.7915 168.731 83.7346C168.982 83.6777 169.242 83.6728 169.496 83.72C168.851 82.8147 169.496 81.564 170.456 82.138C170.238 80.2713 173.479 79.394 174.268 81.4567C174.912 80.584 176.327 80.7567 176.308 82.4227C176.703 81.1207 178.595 81.3587 178.344 83.2113C178.344 83.2113 179.082 82.0727 180.199 83.9207C181.317 85.7687 177.556 89.5533 177.556 89.5533Z" fill="#604730"/>
<path d="M177.557 89.5533L173.109 91.6533C172.321 92.5867 170.879 92.904 170.67 91.6533C170.67 91.6533 169.158 92.764 168.217 91.3687C167.442 90.23 168.643 89.3433 168.643 89.3433C169.353 89.8847 169.39 91.014 170.577 90.4307C171.764 89.8473 169.835 87.528 170.93 87.164C172.024 86.8 171.857 88.7367 172.72 88.6107C173.582 88.4847 169.613 85.2273 171.885 84.1353C174.157 83.0433 175.433 85.358 176.495 85.6147C177.557 85.8713 177.612 82.9827 176.286 82.4133C176.68 81.1113 178.572 81.3493 178.322 83.202C178.322 83.202 179.059 82.0633 180.177 83.9113C181.294 85.7593 177.557 89.5533 177.557 89.5533Z" fill="#473526"/>
<path d="M183.979 94.528C183.979 94.6431 184.025 94.7535 184.106 94.8349C184.187 94.9163 184.296 94.962 184.411 94.962C184.525 94.962 184.635 94.9163 184.716 94.8349C184.797 94.7535 184.842 94.6431 184.842 94.528C184.842 94.4129 184.797 94.3025 184.716 94.2211C184.635 94.1397 184.525 94.094 184.411 94.094C184.296 94.094 184.187 94.1397 184.106 94.2211C184.025 94.3025 183.979 94.4129 183.979 94.528Z" fill="#683F1D"/>
<path d="M182.134 95.6293C182.372 95.6293 182.565 95.435 182.565 95.1953C182.565 94.9556 182.372 94.7613 182.134 94.7613C181.896 94.7613 181.703 94.9556 181.703 95.1953C181.703 95.435 181.896 95.6293 182.134 95.6293Z" fill="#683F1D"/>
<path d="M182.802 91.7793C182.802 92.3113 184.791 92.4466 184.921 92.1386C185.051 91.8306 182.802 90.4866 182.802 91.7793Z" fill="#604730"/>
<path d="M179.226 93.268C179.226 93.6646 181.698 93.0486 181.545 92.1106C181.392 91.1726 179.189 92.5726 179.226 93.268Z" fill="#604730"/>
<path d="M183.057 93.4733C183.006 94.8733 183.739 95.2047 184.518 95.5313C184.719 95.6613 184.864 95.8626 184.924 96.0952C184.984 96.3278 184.955 96.5746 184.843 96.7867" stroke="#934735" stroke-width="0.328375" stroke-linecap="round" stroke-linejoin="round"/>
<path d="M182.031 98.7373C182.857 98.7887 184.842 98.2333 184.842 98.2333C184.842 98.2333 184.842 99.2787 183.979 99.5027C183.116 99.7267 182.161 99.1947 182.031 98.7373Z" fill="white" stroke="#934735" stroke-width="0.328375" stroke-linecap="round" stroke-linejoin="round"/>
<path d="M177.473 99.7313C176.472 100.777 174.431 101.108 173.796 99.1666C173.017 96.7866 176.059 95.466 177.297 97.678L177.473 99.7313Z" fill="#B25E47"/>
<path d="M176.824 100.231C176.486 100.423 176.111 100.538 175.725 100.567" stroke="#934735" stroke-width="0.328375" stroke-linecap="round" stroke-linejoin="round"/>
<path d="M174.565 98.7186C174.764 97.566 176.118 97.4213 176.494 98.448" stroke="#934735" stroke-width="0.328375" stroke-linecap="round" stroke-linejoin="round"/>
<path d="M176.309 98.112C175.094 97.7667 174.876 99.6333 176.407 99.1433" stroke="#934735" stroke-width="0.328375" stroke-linecap="round" stroke-linejoin="round"/>
<path d="M183.242 90.6173C183.113 90.6384 182.981 90.6326 182.855 90.6005C182.729 90.5684 182.61 90.5105 182.507 90.4305C182.403 90.3505 182.317 90.25 182.254 90.1353C182.19 90.0205 182.151 89.894 182.138 89.7633C182.018 91.112 180.506 91.1353 180.056 89.936C180.005 91.252 178.767 91.392 178.271 90.4027C178.883 91.7747 177.552 92.3067 176.74 92.036C177.598 92.54 177.473 93.3987 176.596 93.4827C176.844 93.5348 177.073 93.6541 177.259 93.8276C177.444 94.0011 177.579 94.2223 177.649 94.4673C177.83 95.284 176.967 95.9747 176.967 95.9747C176.967 95.9747 177.213 95.9187 177.686 96.558C178.159 97.1973 177.181 97.79 176.838 97.5613C176.494 97.3327 176.587 96.628 175.868 96.5907C175.598 96.5666 175.326 96.5856 175.061 96.6467C174.757 96.7119 174.476 96.8574 174.246 97.0681C174.016 97.2789 173.846 97.5473 173.754 97.846C172.719 96.3745 172.304 94.5512 172.599 92.7732C172.895 90.9953 173.876 89.4068 175.33 88.354C176.234 87.7507 177.316 87.4788 178.396 87.584C179.205 87.643 180 87.8288 180.752 88.1347C181.002 88.2327 181.141 88.3027 181.141 88.3027C181.141 88.3027 181.062 86.9027 182.454 87.0333C184.002 87.178 183.242 88.6387 183.242 88.6387C184.234 88.774 184.207 90.4727 183.242 90.6173Z" fill="#604730"/>
<path d="M178.266 96.6C177.974 97.1973 178.428 98.0233 179.286 98.4667C180.144 98.91 181.076 98.7607 181.368 98.168C181.66 97.5753 181.206 96.74 180.348 96.3013C179.49 95.8627 178.544 96.012 178.266 96.6Z" fill="#A0503D"/>
<path d="M186.363 98.4993C186.192 98.5239 186.018 98.5052 185.856 98.4449C185.694 98.3846 185.549 98.2846 185.436 98.154C185.032 97.6453 185.287 96.754 186.006 96.166C186.198 96.9306 186.318 97.7119 186.363 98.4993Z" fill="#A0503D"/>
<path d="M175.061 96.6373C174.757 96.7025 174.476 96.848 174.246 97.0588C174.016 97.2695 173.846 97.538 173.753 97.8366C172.687 90.524 176.299 88.2653 178.391 87.57C179.2 87.629 179.995 87.8148 180.747 88.1206C175.701 88.3446 174.866 93.0766 175.061 96.6373Z" fill="#F4A789"/>
<path d="M178.628 87.9107C178.419 86.3893 178.577 83.7107 180.385 82.3107C180.385 82.3107 182.134 86.576 179.166 87.9107H178.628Z" fill="#F4A789"/>
<path d="M172.516 85.3393C174.668 85.1806 177.279 87.038 177.974 88.2093C177.97 88.2 174.784 90.174 172.516 85.3393Z" fill="#F4A789"/>
<path d="M178.929 87.6306C179.391 86.9417 179.698 86.1598 179.829 85.3393" stroke="#9B621F" stroke-width="0.328375" stroke-linecap="round" stroke-linejoin="round"/>
<path d="M175.149 87.0146C175.636 87.1593 177.969 88.2093 177.969 88.2093" stroke="#9B621F" stroke-width="0.328375" stroke-linecap="round" stroke-linejoin="round"/>
<path d="M177.802 87.5653C178.674 86.9867 179.49 87.4533 179.523 88.032C179.555 88.6107 178.108 89.0307 177.77 88.718C177.679 88.651 177.605 88.5628 177.556 88.4609C177.506 88.359 177.482 88.2465 177.485 88.1331C177.488 88.0197 177.519 87.9087 177.574 87.8098C177.629 87.7109 177.708 87.627 177.802 87.5653Z" fill="#F4A789"/>
<path d="M177.802 87.5653C178.674 86.9867 179.49 87.4533 179.523 88.032C179.555 88.6107 178.108 89.0307 177.77 88.718C177.679 88.651 177.605 88.5628 177.556 88.4609C177.506 88.359 177.482 88.2465 177.485 88.1331C177.488 88.0197 177.519 87.9087 177.574 87.8098C177.629 87.7109 177.708 87.627 177.802 87.5653Z" stroke="#9B621F" stroke-width="0.328375" stroke-linecap="round" stroke-linejoin="round"/>
<path d="M174.027 99.8947C173.258 100.144 172.604 100.662 172.183 101.356C171.762 102.049 171.603 102.872 171.734 103.674C171.864 104.476 172.277 105.204 172.896 105.726C173.516 106.247 174.3 106.528 175.108 106.516C175.915 106.505 176.692 106.202 177.297 105.663C177.901 105.124 178.293 104.385 178.401 103.579C178.51 102.774 178.327 101.956 177.887 101.275C177.447 100.594 176.778 100.094 176.003 99.8667" stroke="#F4A789" stroke-width="0.43475" stroke-linecap="round" stroke-linejoin="round"/>
<path d="M134.831 244.351C134.831 244.351 135.415 253.783 135.591 255.131C135.712 256.013 134.775 256.601 134.13 256.723C133.486 256.844 115.989 256.723 114.467 256.723C112.946 256.723 114.699 253.834 117.25 253.129C119.801 252.425 125.213 248.533 125.857 245.238C126.502 241.943 133.231 242.821 134.831 244.351Z" fill="#F4A789"/>
<path d="M179.035 240.417C179.035 240.417 183.01 247.819 183.673 248.841C184.099 249.508 183.561 250.339 183.084 250.675C182.606 251.011 168.401 257.502 167.173 258.067C165.944 258.631 166.287 255.645 168.1 254.105C169.913 252.565 172.826 247.399 172.121 244.491C171.416 241.584 177.176 239.778 179.035 240.417Z" fill="#F4A789"/>
<path d="M119.184 155.078L149.504 145.278C149.504 145.278 160.207 192.463 161.144 193.923C162.081 195.384 181.015 241.715 180.853 242.037C180.691 242.359 170.702 246.703 170.702 246.703C170.702 246.703 151.92 215.259 148.201 209.435C145.186 204.717 136.885 177.627 136.885 177.627L136.421 246.694L124.109 247.161C124.109 247.161 118.98 154.467 119.184 155.078Z" fill="#683F1D"/>
<path d="M133.379 171.355C134.668 171.355 135.141 172.107 135.48 172.993C135.818 173.88 136.871 177.623 136.871 177.623" stroke="#91613D" stroke-width="0.328375" stroke-linecap="round" stroke-linejoin="round"/>
<path d="M128.458 153.421C128.458 153.571 131.589 165.933 132.136 166.082C132.831 166.16 133.533 166.16 134.228 166.082" stroke="#91613D" stroke-width="0.328375" stroke-linecap="round" stroke-linejoin="round"/>
<path d="M131.534 152.231C132.099 155.391 133.95 163.576 133.95 163.576" stroke="#91613D" stroke-width="0.328375" stroke-linecap="round" stroke-linejoin="round"/>
<path d="M109.936 141.4C109.756 142.221 106.76 142.067 106.454 141.951L107.72 138.707C107.72 138.707 110.117 139.445 109.936 141.4Z" fill="#83ADDF"/>
<path d="M109.584 137.76C106.941 145.931 106.853 153.389 97.4155 150.117C87.9782 146.846 98.0555 127.423 98.0555 127.423L109.584 137.76Z" fill="#FEBD9D"/>
<path d="M150.417 143.673C150.506 147.345 145.033 149.739 140.029 151.447C138.638 151.914 137.307 152.339 136.125 152.712C130.662 154.457 120.821 156.795 119.17 156.179C117.876 155.689 113.702 144.387 111.982 139.589C111.518 138.287 111.226 137.466 111.226 137.466L109.937 141.386C108.916 140.378 106.89 139.221 104.613 138.119C99.9011 135.837 94.1367 133.789 94.1367 133.789C94.1367 133.789 95.8016 125.071 97.4154 119.322C97.754 118.109 98.0925 117.026 98.4125 116.186C100.267 111.342 102.466 109.709 104.525 109.709C106.584 109.709 107.395 109.219 111.226 107.422C111.226 107.422 113.623 105.271 118.256 104.865C122.889 104.459 129.581 102.41 134.951 101.43C135.21 101.381 135.472 101.346 135.735 101.327C139.116 101.071 140.679 103.539 141.764 106.311C141.977 106.857 142.167 107.413 142.353 107.968L142.868 109.545C143.211 110.553 143.883 113.05 144.695 116.27C146.949 125.351 150.334 140.215 150.417 143.673Z" fill="#C3DCF8"/>
<path d="M141.731 106.297C137.72 105.331 132.957 105.98 130.031 108.761C129.222 109.518 128.572 110.431 128.12 111.445C124.164 120.241 118.27 124.045 112.519 119.499C107.938 115.869 102.679 114.921 97.415 119.308C97.7536 118.095 98.0921 117.012 98.4121 116.172C100.267 111.328 102.465 109.695 104.524 109.695C106.583 109.695 107.395 109.205 111.226 107.408C111.226 107.408 113.623 105.257 118.256 104.851C122.889 104.445 129.581 102.396 134.951 101.416C135.21 101.367 135.472 101.332 135.735 101.313C139.125 101.057 140.664 103.525 141.731 106.297Z" fill="#D0E5F7"/>
<path d="M108.053 108.873C108.053 108.873 112.839 127.101 118.789 131.026C119.16 130.839 122.499 119.961 121.544 104.375" stroke="#683F1D" stroke-width="0.43475" stroke-miterlimit="10"/>
<path d="M121.124 129.252L115.891 130.125L117.239 138.302L122.472 137.428L121.124 129.252Z" fill="white" stroke="#683F1D" stroke-width="0.43475" stroke-linecap="round" stroke-linejoin="round"/>
<path d="M111.226 137.466L109.937 141.386C108.916 140.378 106.89 139.221 104.613 138.119C107.395 138.203 109.649 136.253 107.701 134.442C105.754 132.631 105.429 128.991 106.825 126.233L111.226 137.466Z" fill="#A7CAF0"/>
<path d="M111.226 137.466L106.825 126.229L105.531 122.929" stroke="#83ADDF" stroke-width="0.328375" stroke-linecap="round" stroke-linejoin="round"/>
<path d="M150.417 143.673C150.505 147.345 145.033 149.739 140.029 151.447C139.473 146.949 144.37 147.28 146.109 142.52C149.239 133.947 142.779 136.304 139.153 126.229L140.247 113.629L142.311 107.945L142.826 109.522C143.169 110.53 143.841 113.027 144.653 116.247C146.948 125.351 150.334 140.215 150.417 143.673Z" fill="#A7CAF0"/>
<path d="M120.626 104.851C120.4 106.212 119.815 107.487 118.931 108.542C118.048 109.597 116.898 110.393 115.603 110.847C111.068 112.495 109.009 110.409 108.851 108.397C108.851 108.257 108.828 108.113 108.819 107.968C108.666 105.728 108.67 103.208 108.276 98.7793C108.223 98.0185 108.273 97.2539 108.425 96.5067C109.278 91.882 113.275 86.6553 116.137 94.066C120.134 104.449 120.626 104.851 120.626 104.851Z" fill="#FEBD9D"/>
<path d="M108.819 107.968C108.666 105.728 108.67 103.208 108.276 98.7793C108.223 98.0185 108.273 97.2539 108.425 96.5067C110.91 96.642 114.096 97.6593 114.351 100.011C114.732 103.53 114.031 107.543 108.819 107.968Z" fill="#F4A789"/>
<path d="M140.248 141.223C140.178 142.59 136.241 142.52 136.241 142.52L137.47 135.674C138.401 136.246 139.155 137.068 139.646 138.049C140.137 139.03 140.346 140.129 140.248 141.223Z" fill="#A7CAF0"/>
<path d="M124.749 133.028C122.815 141.927 119.708 147.616 123.548 152.231C127.388 156.847 133.565 153.799 135.605 148.456C137.646 143.113 139.153 135.114 139.153 135.114L124.749 133.028Z" fill="#FEBD9D"/>
<path d="M144.662 116.256C143.809 125.356 140.242 141.223 140.242 141.223C140.242 141.223 137.599 137.489 123.547 136.047C123.547 136.047 125.912 118.981 130.04 108.761C131.663 104.711 133.56 101.738 135.693 101.323H135.73C141.049 100.296 143.22 102.928 144.175 107.137C144.513 108.731 144.729 110.349 144.82 111.977C144.873 113.405 144.82 114.835 144.662 116.256Z" fill="#C3DCF8"/>
<path d="M144.166 107.128C143.383 106.774 142.568 106.496 141.732 106.297C137.72 105.331 132.958 105.98 130.031 108.761C131.654 104.711 133.551 101.738 135.684 101.323H135.721C141.041 100.287 143.211 102.919 144.166 107.128Z" fill="#D0E5F7"/>
<path d="M144.393 118.655C143.238 127.885 140.242 141.223 140.242 141.223" stroke="#83ADDF" stroke-width="0.328375" stroke-linecap="round" stroke-linejoin="round"/>
<path d="M123.562 136.047C123.562 136.047 128.663 115.514 130.202 114.791" stroke="#83ADDF" stroke-width="0.328375" stroke-linecap="round" stroke-linejoin="round"/>
<path d="M117.37 93.9447C117.23 95.204 117.001 96.4516 116.684 97.678C114.884 104.832 107.794 106.769 105.03 102.863C104.176 101.654 103.94 99.3253 104.232 96.7727C104.332 95.9157 104.486 95.0661 104.696 94.2294C105.138 92.2347 105.936 90.3373 107.052 88.6294C108.044 87.1967 109.268 86.184 110.683 85.9367C113.771 85.3953 116.048 86.3287 116.999 88.9607C117.295 89.8534 117.452 90.787 117.463 91.728C117.481 92.4682 117.45 93.2087 117.37 93.9447Z" fill="#FEBD9D"/>
<path d="M117.467 91.7513C117.467 91.7513 122.68 92.8713 124.799 94.7707C126.918 96.67 125.944 98.0747 123.528 97.916C121.112 97.7573 115.682 96.3433 115.682 96.3433L117.467 91.7513Z" fill="#83ADDF"/>
<path d="M117.371 93.9447C116.667 94.347 115.934 94.6934 115.177 94.9807C114.379 95.2327 113.739 95.0693 113.786 94.472C113.832 93.8747 114.11 91.4433 112.237 90.2113C110.363 88.9793 115.409 88.5687 115.409 88.5687L116.972 88.984C117.268 89.8767 117.424 90.8103 117.436 91.7513C117.462 92.4831 117.441 93.2158 117.371 93.9447Z" fill="#DD6819"/>
<path d="M109.668 93.548C109.906 93.548 110.099 93.3537 110.099 93.114C110.099 92.8743 109.906 92.68 109.668 92.68C109.429 92.68 109.236 92.8743 109.236 93.114C109.236 93.3537 109.429 93.548 109.668 93.548Z" fill="#683F1D"/>
<path d="M106.295 92.918C106.295 93.0331 106.341 93.1435 106.422 93.2249C106.503 93.3063 106.612 93.352 106.727 93.352C106.841 93.352 106.951 93.3063 107.032 93.2249C107.113 93.1435 107.158 93.0331 107.158 92.918C107.158 92.8029 107.113 92.6925 107.032 92.6111C106.951 92.5297 106.841 92.484 106.727 92.484C106.612 92.484 106.503 92.5297 106.422 92.6111C106.341 92.6925 106.295 92.8029 106.295 92.918Z" fill="#683F1D"/>
<path d="M117.468 91.7511C114.685 90.9391 109.639 89.4178 107.042 88.6525C108.035 87.2198 109.259 86.2071 110.674 85.9598C114.671 85.2598 117.328 87.0378 117.468 91.7511Z" fill="#A7CAF0"/>
<path d="M115.177 94.9807C115.404 93.464 117.774 92.204 119.054 93.3893C120.663 94.8827 119.448 97.818 116.443 98.1213C116.309 98.1213 115.177 94.9807 115.177 94.9807Z" fill="#FEBD9D"/>
<path d="M117.607 97.846C116.923 98.1633 116.156 98.25 115.418 98.0933" stroke="#EF8A66" stroke-width="0.328375" stroke-linecap="round" stroke-linejoin="round"/>
<path d="M115.604 96.1333C115.803 95.158 117.222 94.0053 118.256 94.472" stroke="#EF8A66" stroke-width="0.328375" stroke-linecap="round" stroke-linejoin="round"/>
<path d="M115.965 95.3913C117.161 94.248 118.627 96.348 116.892 96.7913" stroke="#EF8A66" stroke-width="0.328375" stroke-linecap="round" stroke-linejoin="round"/>
<path d="M106.412 96.488C106.175 95.1954 106.412 94.5 107.158 94.094C107.905 93.688 108.675 93.086 108.508 91.938" stroke="#EF8A66" stroke-width="0.328375" stroke-linecap="round" stroke-linejoin="round"/>
<path d="M109.134 90.7667C109.014 91.504 111.402 92.0687 111.509 91.518C111.615 90.9673 109.329 89.5347 109.134 90.7667Z" fill="#DD6819"/>
<path d="M105.86 91.1866C105.86 91.4806 108.137 91.5926 108.072 90.6033C108.007 89.614 105.79 90.4586 105.86 91.1866Z" fill="#DD6819"/>
<path d="M107.427 97.734C108.601 97.9767 109.955 97.566 110.27 95.928" stroke="#EF8A66" stroke-width="0.328375" stroke-linecap="round" stroke-linejoin="round"/>
<path d="M114.75 94.612C115.019 95.256 114.412 96.1194 113.401 96.5487C112.39 96.978 111.351 96.8007 111.082 96.1567C110.813 95.5127 111.42 94.6447 112.431 94.22C113.442 93.7953 114.481 93.968 114.75 94.612Z" fill="#F4AF90"/>
<path d="M105.526 96.4927C105.36 96.6605 105.15 96.7766 104.921 96.8271C104.691 96.8776 104.452 96.8603 104.232 96.7773C104.331 95.9203 104.486 95.0707 104.696 94.234C104.711 94.2422 104.726 94.2533 104.737 94.2667C105.595 94.9433 105.952 95.9373 105.526 96.4927Z" fill="#F4AF90"/>
<path d="M106.125 146.099C106.561 155.834 87.5747 147.033 83.2154 144.433C78.8562 141.834 66.1958 132.715 66.1958 132.715L71.2368 124.941C70.2907 125.706 105.735 137.163 106.125 146.099Z" fill="#FEBD9D"/>
<path d="M71.2364 124.941C70.5268 125.515 90.2826 132.104 100.374 139.132" stroke="#EF8A66" stroke-width="0.328375" stroke-linecap="round" stroke-linejoin="round"/>
<path d="M89.2426 78.2235L58.2158 83.2695C55.7157 83.6761 54.0165 86.0452 54.4206 88.561L62.199 136.992C62.603 139.508 64.9573 141.218 67.4574 140.812L98.4843 135.766C100.984 135.359 102.684 132.99 102.279 130.474L94.5011 82.0426C94.097 79.5268 91.7428 77.8169 89.2426 78.2235Z" fill="#F9F9F9" stroke="#DDDDDD" stroke-width="0.871975" stroke-linecap="round" stroke-linejoin="round"/>
<path d="M64.0389 126.429C64.178 128.007 59.7446 127.027 59.777 125.617C59.8095 124.208 63.8812 124.6 64.0389 126.429Z" fill="#FEBD9D" stroke="#EF8A66" stroke-width="0.328375" stroke-linecap="round" stroke-linejoin="round"/>
<path d="M63.3064 124.222C63.1441 126.033 58.2051 124.045 58.5112 122.458C58.8173 120.871 63.4919 122.131 63.3064 124.222Z" fill="#FEBD9D" stroke="#EF8A66" stroke-width="0.328375" stroke-linecap="round" stroke-linejoin="round"/>
<path d="M63.306 121.567C63.1205 123.373 57.472 121.385 57.8384 119.798C58.2047 118.211 63.5332 119.467 63.306 121.567Z" fill="#FEBD9D" stroke="#EF8A66" stroke-width="0.328375" stroke-linecap="round" stroke-linejoin="round"/>
<path d="M62.884 119.616C62.5686 121.483 57.3746 118.995 57.8523 117.376C58.33 115.757 63.255 117.455 62.884 119.616Z" fill="#FEBD9D" stroke="#EF8A66" stroke-width="0.328375" stroke-linecap="round" stroke-linejoin="round"/>
<path d="M86.4541 90.5733L65.0615 94.1448L65.8274 98.7899L87.2199 95.2184L86.4541 90.5733Z" fill="#EDEDED"/>
<path d="M88.7076 125.692C93.1951 121.047 93.0912 113.621 88.4754 109.106C83.8597 104.59 76.4801 104.694 71.9926 109.339C67.505 113.984 67.609 121.41 72.2247 125.926C76.8404 130.442 84.2201 130.337 88.7076 125.692Z" stroke="#DDDDDD" stroke-width="0.436572" stroke-linecap="round" stroke-linejoin="round"/>
<path d="M92.4853 217.135L107.548 210.233L106.778 208.535L106.017 208.885L105.888 207.839L82.9413 210.751L83.1732 212.604L103.541 210.019L92.0725 215.273L83.1778 212.926L82.4497 214.662L92.0261 217.191L92.0864 217.317L92.2441 217.247L92.4389 217.299L92.4853 217.135Z" fill="#EDEDED"/>
<path d="M115.088 216.837L112.204 217.317L93.8345 195.216L96.719 194.735L115.088 216.837Z" fill="#F9F9F9" stroke="#DDDDDD" stroke-width="0.43475" stroke-linecap="round" stroke-linejoin="round"/>
<path d="M78.4478 222.95L81.3323 222.474L91.6275 195.585L88.7476 196.065L78.4478 222.95Z" fill="#F9F9F9" stroke="#DDDDDD" stroke-width="0.43475" stroke-linecap="round" stroke-linejoin="round"/>
<path d="M90.0967 221.009L92.9812 220.528L94.3214 195.132L91.4416 195.613L90.0967 221.009Z" fill="#F9F9F9" stroke="#DDDDDD" stroke-width="0.43475" stroke-linecap="round" stroke-linejoin="round"/>
<path d="M93.4867 190.087L90.3101 190.619L85.6772 162.521L83.9706 152.161L81.6055 137.783L84.7822 137.261L86.9803 150.575L87.2076 151.961L88.8307 161.812L93.4867 190.087Z" fill="#F9F9F9" stroke="#DDDDDD" stroke-width="0.43475" stroke-linecap="round" stroke-linejoin="round"/>
<path d="M133.777 151.55C131.964 156.917 118.794 156.861 113.498 157.481C108.396 158.074 95.2815 159.348 95.2815 159.348C95.2815 159.348 89.4058 162.003 86.1642 162.475C82.9226 162.946 82.918 161.882 82.8577 160.823C82.7974 159.763 82.1713 159.423 82.4496 158.587C82.7278 157.752 81.5221 156.926 81.7447 155.811C81.9673 154.695 80.2792 155.867 80.2236 153.921C80.1679 151.975 85.4593 152.152 87.2077 151.975L86.9804 150.575C86.9804 150.575 88.7798 150.001 89.596 150.108C90.4122 150.215 92.7634 151.242 93.7697 150.887C94.7761 150.533 114.416 142.954 118.26 141.624C123.561 139.818 137.756 139.767 133.777 151.55Z" fill="#FEBD9D"/>
<path d="M118.256 141.643C121.289 140.718 124.492 140.506 127.619 141.022" stroke="#EF8A66" stroke-width="0.328375" stroke-linecap="round" stroke-linejoin="round"/>
<path d="M86.1642 162.461C82.918 162.927 82.918 161.868 82.8577 160.809C82.7974 159.749 82.1713 159.409 82.4496 158.573C82.7278 157.738 81.5221 156.912 81.7447 155.797C81.9673 154.681 80.2792 155.853 80.2236 153.907C80.1679 151.961 85.4593 152.138 87.2077 151.961L86.9804 150.561C86.9804 150.561 88.7798 149.987 89.596 150.094" stroke="#EF8A66" stroke-width="0.328375" stroke-linecap="round" stroke-linejoin="round"/>
<path d="M87.2075 151.961C88.1675 151.993 89.939 151.961 89.939 151.961" stroke="#EF8A66" stroke-width="0.328375" stroke-linecap="round" stroke-linejoin="round"/>
<path d="M96.2695 149.949L108.378 145.325" stroke="#EF8A66" stroke-width="0.328375" stroke-linecap="round" stroke-linejoin="round"/>
<path d="M95.2397 189.785L88.574 190.898C87.5178 191.075 86.8037 192.079 86.9789 193.142L87.3774 195.559C87.5526 196.622 88.5508 197.34 89.607 197.164L96.2727 196.051C97.3289 195.875 98.043 194.87 97.8678 193.808L97.4693 191.391C97.2941 190.328 96.2958 189.609 95.2397 189.785Z" fill="#EDEDED"/>
</svg>
