<svg width="80" height="48" viewBox="0 0 80 48" fill="none" xmlns="http://www.w3.org/2000/svg">
<path d="M3.18644 7.67599L3.18714 7.67418H3.17677H0.939873C0.704467 7.67418 0.529426 7.67416 0.398479 7.6645C0.26676 7.65478 0.184816 7.63549 0.132299 7.6006C0.0820401 7.56721 0.0551037 7.5169 0.0410919 7.43312C0.0268619 7.34804 0.0267733 7.23363 0.0267733 7.07655V1.2488C0.0267733 0.936305 0.0267814 0.70296 0.0355509 0.528181C0.0443603 0.352603 0.0619306 0.24011 0.0948909 0.167119C0.111076 0.131277 0.130694 0.105661 0.154366 0.0867897C0.178126 0.0678475 0.207348 0.0546029 0.244302 0.0455104C0.319697 0.026959 0.421542 0.0267733 0.563923 0.0267733H6.57912C6.72105 0.0267733 6.82417 0.0268586 6.9008 0.0394286C6.97621 0.0517994 7.02085 0.0754836 7.05038 0.119082C7.08138 0.164846 7.09875 0.236645 7.10753 0.353235C7.11625 0.469064 7.11627 0.623957 7.11627 0.832536V3.57911C7.11627 3.79513 7.24027 4.10569 7.46218 4.48045C7.6849 4.85659 8.00894 5.30173 8.41482 5.7883C9.22664 6.76151 10.3675 7.90229 11.6844 8.99081C13.0013 10.0793 14.4951 11.1161 16.0128 11.8809C17.5303 12.6456 19.0737 13.1392 20.4893 13.1392H24.4099V30.5957C24.4099 35.5862 23.0486 38.8037 20.8474 40.7743C18.6456 42.7454 15.5987 43.4732 12.2184 43.4732H0.0267733V37.0746H6.57912C12.3396 37.0746 15.827 34.6913 17.6016 31.4077C19.3751 28.1261 19.4355 23.9497 18.3532 20.3657C17.2707 16.7813 15.5402 14.4058 13.0483 12.5276C10.5576 10.6504 7.30699 9.2707 3.18644 7.67599ZM16.9445 0.0267733H22.557C23.5778 0.0267733 24.4099 0.944003 24.4099 2.08134V7.49282C24.4099 7.94046 24.0828 8.29858 23.6848 8.29858H17.6696C17.2716 8.29858 16.9445 7.94046 16.9445 7.49282V0.0267733Z" fill="#1548FE" stroke="#060606" stroke-width="0.0535466"/>
<path d="M33.9682 42.0725C32.7856 42.0725 31.7037 41.7903 30.7226 41.2259C29.7416 40.648 28.9621 39.8752 28.3842 38.9076C27.8063 37.94 27.5174 36.8715 27.5174 35.7023C27.5174 34.5197 27.8063 33.4512 28.3842 32.497C28.9621 31.5294 29.7416 30.7634 30.7226 30.1989C31.7037 29.621 32.7856 29.3321 33.9682 29.3321C35.1643 29.3321 36.2462 29.621 37.2138 30.1989C38.1949 30.7634 38.9744 31.5294 39.5523 32.497C40.1302 33.4512 40.4191 34.5197 40.4191 35.7023C40.4191 36.8715 40.1302 37.94 39.5523 38.9076C38.9744 39.8752 38.1949 40.648 37.2138 41.2259C36.2462 41.7903 35.1643 42.0725 33.9682 42.0725ZM33.9682 39.472C34.6536 39.472 35.2786 39.304 35.843 38.9681C36.4075 38.6186 36.851 38.1617 37.1735 37.5973C37.5095 37.0328 37.6775 36.4012 37.6775 35.7023C37.6775 35.0035 37.5095 34.3718 37.1735 33.8074C36.851 33.2429 36.4075 32.7927 35.843 32.4567C35.2786 32.1073 34.6536 31.9326 33.9682 31.9326C33.2828 31.9326 32.6579 32.1073 32.0935 32.4567C31.529 32.7927 31.0788 33.2429 30.7428 33.8074C30.4203 34.3718 30.259 35.0035 30.259 35.7023C30.259 36.4012 30.4203 37.0328 30.7428 37.5973C31.0788 38.1617 31.5223 38.6186 32.0733 38.9681C32.6377 39.304 33.2694 39.472 33.9682 39.472ZM49.3133 41.9919C48.5204 41.9919 47.7812 41.8508 47.0958 41.5686C46.4104 41.2729 45.8124 40.8697 45.3017 40.359V41.75H42.7818V22.3974H45.6242V30.7432C46.1215 30.3266 46.6792 30.0041 47.2974 29.7756C47.9291 29.5337 48.601 29.4127 49.3133 29.4127C50.4288 29.4127 51.4434 29.6949 52.3573 30.2594C53.2712 30.8238 53.9969 31.5832 54.5345 32.5374C55.0855 33.4915 55.361 34.5465 55.361 35.7023C55.361 36.8581 55.0855 37.9131 54.5345 38.8673C53.9969 39.8215 53.2712 40.5808 52.3573 41.1452C51.4434 41.7097 50.4288 41.9919 49.3133 41.9919ZM48.9706 39.4519C49.6426 39.4519 50.2541 39.2839 50.8051 38.9479C51.3695 38.6119 51.813 38.1617 52.1356 37.5973C52.4715 37.0328 52.6395 36.4012 52.6395 35.7023C52.6395 35.0169 52.4715 34.392 52.1356 33.8275C51.813 33.2496 51.3762 32.7927 50.8252 32.4567C50.2742 32.1207 49.656 31.9527 48.9706 31.9527C48.2986 31.9527 47.6804 32.1207 47.116 32.4567C46.565 32.7927 46.1215 33.2429 45.7855 33.8074C45.4629 34.3718 45.3017 35.0035 45.3017 35.7023C45.3017 36.3877 45.4629 37.0194 45.7855 37.5973C46.1215 38.1617 46.565 38.6119 47.116 38.9479C47.667 39.2839 48.2852 39.4519 48.9706 39.4519ZM61.2654 42.0725C60.5396 42.0725 59.787 41.9516 59.0076 41.7097C58.2415 41.4543 57.6166 41.0713 57.1328 40.5606L57.8585 37.7182C58.2482 38.2961 58.7657 38.7799 59.4107 39.1697C60.0558 39.5594 60.7278 39.7543 61.4266 39.7543C62.0045 39.7543 62.4279 39.6266 62.6967 39.3712C62.9654 39.1159 63.0998 38.8068 63.0998 38.4439C63.0998 38.0408 62.9587 37.7451 62.6765 37.5569C62.3943 37.3553 62.1255 37.2075 61.8701 37.1134L60.1969 36.4885C59.861 36.3541 59.4645 36.166 59.0076 35.9241C58.5641 35.6687 58.1743 35.3126 57.8383 34.8556C57.5024 34.3987 57.3344 33.8007 57.3344 33.0615C57.3344 32.3895 57.4956 31.7713 57.8182 31.2069C58.1542 30.6424 58.6313 30.1922 59.2495 29.8562C59.8677 29.5068 60.6068 29.3321 61.467 29.3321C62.2061 29.3321 62.9251 29.4598 63.624 29.7151C64.3362 29.9705 64.894 30.3132 65.2972 30.7432L64.5916 33.5453C64.2019 32.954 63.7113 32.4903 63.12 32.1543C62.5421 31.8184 61.9642 31.6504 61.3863 31.6504C60.8891 31.6504 60.5128 31.7713 60.2574 32.0132C60.0021 32.2551 59.8744 32.5374 59.8744 32.8599C59.8744 33.1018 59.9618 33.3303 60.1365 33.5453C60.3112 33.7469 60.5934 33.9216 60.9831 34.0694L62.5757 34.6742C62.952 34.8086 63.3753 35.0035 63.8457 35.2588C64.3295 35.5142 64.7461 35.877 65.0956 36.3474C65.445 36.8178 65.6197 37.4561 65.6197 38.2625C65.6197 39.3914 65.2098 40.312 64.39 41.0243C63.5836 41.7231 62.5421 42.0725 61.2654 42.0725ZM67.629 47.7977L71.6003 39.8349L66.5807 29.6546H69.7457L72.1043 34.4928C72.3193 34.9228 72.5142 35.3395 72.6889 35.7426C72.8636 36.1324 73.0316 36.5624 73.1929 37.0328C73.3541 36.5624 73.5221 36.1324 73.6968 35.7426C73.885 35.3395 74.0866 34.9228 74.3016 34.4928L76.7005 29.6546H79.7244L70.6932 47.7977H67.629Z" fill="#1548FE"/>
</svg>
