<svg width="1049" height="1086" viewBox="0 0 1049 1086" fill="none" xmlns="http://www.w3.org/2000/svg">
<path d="M272.551 193.531C266.577 200.521 259.823 206.911 252.747 212.582C229.716 231.049 202.788 244.11 179.398 262.117C135.599 295.833 88.4741 351.802 31.1218 302.363C17.5919 290.7 10.183 273.438 5.56179 256.185C-26.8873 135.025 100.709 30.1422 216.202 54.6472C257.053 63.3154 296.244 96.7472 295.765 138.506C295.533 158.959 286.029 177.764 272.551 193.531Z" fill="white"/>
<path d="M378.431 1060.36C458.005 1065.85 538.251 1061.65 616.783 1047.66C678.043 1036.76 739.026 1019.64 792.6 987.994C926.144 909.103 987.835 765.246 1017.48 620.839C1037.11 525.193 1051.54 417.044 1036.9 319.779C1025.83 246.203 996.925 174.469 948.476 117.999C865.67 21.4766 725.793 -21.9217 602.894 10.7783C532.229 29.5785 469.267 70.7942 414.535 119.287C359.802 167.777 312.315 223.746 262.961 277.7C205.997 339.973 145.984 400.212 99.49 470.647C79.7201 500.595 63.7567 533.021 51.83 566.859C6.38368 695.792 18.7292 851.536 108.308 959.132C166.307 1028.8 235.048 1043.79 322.463 1054.88C341.061 1057.24 359.727 1059.07 378.431 1060.36Z" fill="white"/>
<path d="M364.423 249.306C357.183 234.809 341.651 229.738 326.272 229.197C324.209 210.449 308.325 194.594 289.848 190.805C271.371 187.017 251.462 194.529 238.635 208.359C233.489 213.909 229.279 220.637 228.193 228.126C222.786 223.769 214.968 222.631 208.542 225.266C199.395 229.019 195.894 238.173 197.655 247.454C188.847 247.635 179.858 254.124 175.594 261.641C166.711 277.302 175.183 296.599 191.601 302.445C205.806 307.504 222.778 303.888 235.483 296.454C240.926 308.66 254.376 316.418 267.57 317.837C278.116 318.97 289.365 316.705 297.539 309.66C302.507 305.378 306.034 299.135 307.198 292.58C307.221 292.59 307.244 292.601 307.268 292.611C313.464 295.339 320.293 296.5 327.035 296.844C334.097 297.206 341.951 296.95 348.62 294.491C365.709 288.189 372.181 266.849 365.129 250.824C364.91 250.307 364.672 249.8 364.423 249.306Z" fill="#A7CAF0" stroke="black" stroke-width="1.293" stroke-miterlimit="10"/>
<path d="M242.432 283.025C241.71 296.927 253.963 310.162 267.878 310.514" stroke="black" stroke-width="1.293" stroke-miterlimit="10"/>
<path d="M204.228 255.97C197.845 256.371 191.365 258.502 186.821 262.999C182.278 267.498 180.069 274.62 182.415 280.568" stroke="black" stroke-width="1.293" stroke-miterlimit="10"/>
<path d="M248.898 211.62C240.264 217.526 234.859 227.889 234.962 238.351" stroke="black" stroke-width="1.293" stroke-miterlimit="10"/>
<path d="M161.474 176.166C158.443 174.307 154.815 173.241 150.726 173.205C150.734 173.05 150.747 172.895 150.75 172.742C150.819 169.093 149.803 165.667 148.122 162.447C144.993 156.455 138.846 152.085 132.293 150.621C125.813 149.173 119.221 150.409 113.547 153.712C110.374 148.387 105.28 144.156 99.3787 142.17C82.5852 136.515 61.411 148.467 61.636 167.192C61.6231 166.215 52.9522 165.98 52.0394 166.008C48.3698 166.127 44.721 166.874 41.3023 168.209C34.7106 170.784 30.0558 175.527 26.6009 181.757C19.9135 193.818 23.927 210.87 37.7414 215.789C47.8837 219.399 59.9991 216.82 69.0734 211.511C72.9601 220.226 82.5619 225.765 91.9827 226.779C99.5132 227.589 107.543 225.97 113.379 220.943C114.238 220.203 115.029 219.378 115.753 218.488C117.354 220.084 119.731 221.354 121.083 221.995C124.996 223.852 129.301 224.697 133.617 224.902C141.693 225.287 150.468 223.888 157.613 219.981C165.102 215.887 170.088 208.419 171.298 200.011C172.754 189.9 168.875 180.704 161.474 176.166Z" fill="#A7CAF0" stroke="black" stroke-width="1.293" stroke-miterlimit="10"/>
<path d="M88.076 147.112C79.8577 147.438 72.1462 153.316 69.6533 161.154L88.076 147.112Z" fill="#9DD1C9"/>
<path d="M88.076 147.112C79.8577 147.438 72.1462 153.316 69.6533 161.154" stroke="black" stroke-width="1.293" stroke-miterlimit="10"/>
<path d="M50.8933 173.72C43.6525 174.281 36.9599 179.38 34.498 186.213L50.8933 173.72Z" fill="#9DD1C9"/>
<path d="M50.8933 173.72C43.6525 174.281 36.9599 179.38 34.498 186.213" stroke="black" stroke-width="1.293" stroke-miterlimit="10"/>
<path d="M137.843 158.271C133.571 156.287 128.515 156.06 124.083 157.65L137.843 158.271Z" fill="#9DD1C9"/>
<path d="M137.843 158.271C133.571 156.287 128.515 156.06 124.083 157.65" stroke="black" stroke-width="1.293" stroke-miterlimit="10"/>
<path d="M766.798 971.523H402.464C390.837 971.523 381.414 962.1 381.414 950.473V141.05C381.414 129.423 390.837 120 402.464 120H766.795C778.422 120 787.845 129.423 787.845 141.05V950.476C787.848 962.1 778.422 971.523 766.798 971.523Z" fill="black"/>
<path d="M743.381 971.523H379.05C367.423 971.523 358 962.1 358 950.473V141.05C358 129.423 367.423 120 379.05 120H743.381C755.008 120 764.431 129.423 764.431 141.05V950.476C764.431 962.1 755.008 971.523 743.381 971.523Z" fill="white" stroke="#222221" stroke-width="1.293" stroke-miterlimit="10"/>
<path d="M764.431 166.22H358V925.301H764.431V166.22Z" fill="#7696EA" stroke="black" stroke-width="1.293" stroke-miterlimit="10"/>
<path d="M782.79 350.57H782.498C776.832 350.57 772.236 345.975 772.236 340.309V281.235C772.236 275.569 776.829 270.973 782.498 270.973H782.79C788.456 270.973 793.051 275.566 793.051 281.235V340.309C793.051 345.978 788.458 350.57 782.79 350.57Z" fill="#7696EA" stroke="black" stroke-width="1.293" stroke-miterlimit="10"/>
<path d="M782.79 435.127H782.498C776.832 435.127 772.236 430.532 772.236 424.866V365.792C772.236 360.126 776.829 355.53 782.498 355.53H782.79C788.456 355.53 793.051 360.126 793.051 365.792V424.866C793.051 430.532 788.458 435.127 782.79 435.127Z" fill="#7696EA" stroke="black" stroke-width="1.293" stroke-miterlimit="10"/>
<path d="M782.79 859.12H782.498C776.832 859.12 772.236 854.528 772.236 848.859V800.19C772.236 794.525 776.829 789.929 782.498 789.929H782.79C788.456 789.929 793.051 794.525 793.051 800.19V848.859C793.051 854.528 788.458 859.12 782.79 859.12Z" fill="#9DD1C9" stroke="black" stroke-width="1.293" stroke-miterlimit="10"/>
<path d="M487.927 269.06H380.026V362.722H487.927V269.06Z" fill="#7696EA" stroke="black" stroke-width="1.293" stroke-miterlimit="10"/>
<path d="M615.446 269.06H507.545V362.722H615.446V269.06Z" fill="#7696EA" stroke="black" stroke-width="1.293" stroke-miterlimit="10"/>
<path d="M742.967 269.06H635.066V362.722H742.967V269.06Z" fill="white" stroke="#222221" stroke-width="1.293" stroke-miterlimit="10"/>
<path d="M485.975 382.233H378.074V475.896H485.975V382.233Z" fill="white" stroke="#222221" stroke-width="1.293" stroke-miterlimit="10"/>
<path d="M613.497 382.233H505.596V475.896H613.497V382.233Z" fill="#7696EA" stroke="black" stroke-width="1.293" stroke-miterlimit="10"/>
<path d="M741.015 382.233H633.114V475.896H741.015V382.233Z" fill="#2842F7" stroke="black" stroke-width="1.293" stroke-miterlimit="10"/>
<path d="M484.026 495.41H376.125V589.072H484.026V495.41Z" fill="#7696EA" stroke="black" stroke-width="1.293" stroke-miterlimit="10"/>
<path d="M589.607 495.41H503.644V589.072H589.607V495.41Z" fill="#7696EA" stroke="black" stroke-width="1.293" stroke-miterlimit="10"/>
<path d="M739.065 495.41H607.083V589.072H739.065V495.41Z" fill="#7696EA" stroke="black" stroke-width="1.293" stroke-miterlimit="10"/>
<path d="M594.078 611.78H376.125V777.625H594.078V611.78Z" fill="white" stroke="#222221" stroke-width="1.293" stroke-miterlimit="10"/>
<mask id="mask0_388_7989" style="mask-type:luminance" maskUnits="userSpaceOnUse" x="376" y="611" width="219" height="167">
<path d="M594.078 611.78H376.125V777.625H594.078V611.78Z" fill="white"/>
</mask>
<g mask="url(#mask0_388_7989)">
<path d="M310.857 763.614C332.068 743.055 353.757 722.153 380.307 709.21C406.858 696.267 439.576 692.38 465.567 706.414C493.851 721.685 508.071 753.927 517.637 784.612C520.996 795.385 509.248 801.266 500.486 808.38C491.725 815.494 481.184 820.043 470.584 823.914C447.041 832.513 422.014 838.241 397.015 836.438C372.016 834.633 346.963 824.664 330.371 805.877" fill="#F7F0E3"/>
<path d="M310.857 763.614C332.068 743.055 353.757 722.153 380.307 709.21C406.858 696.267 439.576 692.38 465.567 706.414C493.851 721.685 508.071 753.927 517.637 784.612C520.996 795.385 509.248 801.266 500.486 808.38C491.725 815.494 481.184 820.043 470.584 823.914C447.041 832.513 422.014 838.241 397.015 836.438C372.016 834.633 346.963 824.664 330.371 805.877" stroke="black" stroke-width="1.293" stroke-miterlimit="10"/>
</g>
<mask id="mask1_388_7989" style="mask-type:luminance" maskUnits="userSpaceOnUse" x="376" y="611" width="219" height="167">
<path d="M594.078 611.78H376.125V777.625H594.078V611.78Z" fill="white"/>
</mask>
<g mask="url(#mask1_388_7989)">
<path d="M628.382 787.377C624.353 778.61 620.324 769.846 616.295 761.08C605.356 737.283 592.17 711.312 567.668 702.065C553.028 696.541 536.429 698.149 521.756 703.583C507.083 709.016 494.024 718.012 481.469 727.348C446.927 753.037 414.848 782.042 385.82 813.829" fill="#FFFBFB"/>
<path d="M628.382 787.377C624.353 778.61 620.324 769.846 616.295 761.08C605.356 737.283 592.17 711.312 567.668 702.065C553.028 696.541 536.429 698.149 521.756 703.583C507.083 709.016 494.024 718.012 481.469 727.348C446.927 753.037 414.848 782.042 385.82 813.829" stroke="#222221" stroke-width="1.293" stroke-miterlimit="10"/>
</g>
<path d="M594.078 611.78H376.125V777.625H594.078V611.78Z" stroke="#222221" stroke-width="1.293" stroke-miterlimit="10"/>
<path d="M733.241 233.937H393.392V198.813H733.241C736.458 198.813 739.065 201.42 739.065 204.637V228.113C739.065 231.33 736.458 233.937 733.241 233.937Z" fill="#7696EA" stroke="black" stroke-width="1.293" stroke-miterlimit="10"/>
<path d="M445.66 233.937H385.142C382.319 233.937 380.027 231.648 380.027 228.824V203.929C380.027 201.105 382.316 198.813 385.142 198.813H445.66V233.937Z" fill="white" stroke="#222221" stroke-width="1.293" stroke-miterlimit="10"/>
<path d="M417.103 214.097C417.103 219.664 412.591 224.18 407.02 224.18C401.453 224.18 396.938 219.667 396.938 214.097C396.938 208.526 401.45 204.014 407.02 204.014C412.588 204.017 417.103 208.529 417.103 214.097Z" fill="white" stroke="#222221" stroke-width="1.293" stroke-miterlimit="10"/>
<path d="M422.955 228.082L414.499 220.926" stroke="#222221" stroke-width="1.293" stroke-miterlimit="10"/>
<path d="M616.768 640.807H726.905" stroke="black" stroke-width="1.293" stroke-miterlimit="10"/>
<path d="M616.768 658.568H726.905" stroke="black" stroke-width="1.293" stroke-miterlimit="10"/>
<path d="M616.768 676.326H726.905" stroke="black" stroke-width="1.293" stroke-miterlimit="10"/>
<path d="M616.768 694.084H711.886" stroke="black" stroke-width="1.293" stroke-miterlimit="10"/>
<path d="M616.768 711.842H726.905" stroke="black" stroke-width="1.293" stroke-miterlimit="10"/>
<path d="M616.768 729.603H706.044" stroke="black" stroke-width="1.293" stroke-miterlimit="10"/>
<path d="M1047.39 410.864C1047.21 409.573 1046.88 408.311 1046.38 407.127C1045.3 404.551 1043.65 402.844 1041.46 401.417C1031.49 394.905 1020.66 396.369 1010.63 401.482C1005.98 403.853 1001.1 405.203 996.488 407.957C991.107 411.174 986.025 415.009 981.314 419.34C967.189 432.325 955.797 450.344 952.418 470.678C952.255 471.655 952.112 472.638 951.988 473.623C952.436 470.062 958.601 464.559 960.884 462.255C964.38 458.723 968.262 455.663 972.415 453.171C981.539 447.696 991.376 445.079 1001.69 444.132C1011.68 443.214 1021.77 443.052 1031.09 438.335C1039.57 434.042 1046.93 425.387 1047.55 415.019C1047.63 413.638 1047.59 412.234 1047.39 410.864Z" fill="#94E261" stroke="black" stroke-width="1.293" stroke-miterlimit="10"/>
<path d="M1003.49 425.182C937.661 453.093 956.081 485.387 935.846 536.36" stroke="black" stroke-width="1.293" stroke-miterlimit="10"/>
<path d="M960.709 326.808C956.075 321.259 949.333 317.755 942.493 316.909C925.549 314.809 908.249 329.006 905.001 347.675C904.246 352.009 904.171 356.451 904.096 360.866C903.219 413.336 901.598 470.988 921.422 519.791C925.097 508.581 927.776 495.263 933.408 485.11C938.397 476.119 944.218 468.032 948.273 458.159C957.034 438.019 962.242 416.173 964.963 394.047C967.138 376.356 971.425 351.38 965.131 334.411C964.081 331.574 962.563 329.027 960.709 326.808ZM933.535 352.942C935.475 366.814 920.093 354.253 921.937 345.153C926.054 338.505 932.922 343.94 933.535 352.942Z" fill="#94E261" stroke="black" stroke-width="1.293" stroke-miterlimit="10"/>
<path d="M935.399 390.742L916.989 556.947" stroke="#1C0C03" stroke-width="1.293" stroke-miterlimit="10"/>
<path d="M899.879 451.345C895.708 434.993 884.906 421.66 869.253 419.322C863.729 418.497 858.107 418.36 852.684 416.93C847.437 415.547 842.273 412.953 836.905 413.496C831.97 413.998 827.406 417.261 824.59 421.807C820.021 429.183 819.679 438.885 823.987 446.359C826.162 450.132 829.705 452.64 833.302 454.647C838.909 457.776 844.929 459.979 851.109 461.161C860.626 462.982 872.247 461.65 881.221 465.958C889.522 469.943 895.651 483.153 898.048 492.235C898.997 495.832 899.998 498.42 899.7 504.073C899.212 500.993 900.905 495.356 901.185 492.072C901.555 487.743 901.88 483.403 902.048 479.059C902.369 470.833 902.193 462.49 900.58 454.425C900.373 453.388 900.137 452.361 899.879 451.345Z" fill="#94E261" stroke="black" stroke-width="1.293" stroke-miterlimit="10"/>
<path d="M898.594 533.463C898.542 523.215 900.896 490.859 899.225 480.779C897.65 471.275 895.276 461.702 890.298 453.788C885.323 445.878 877.335 439.816 868.669 439.767" stroke="#1C0C03" stroke-width="1.293" stroke-miterlimit="10"/>
<path d="M883.745 529.142H952.181L948.199 559.877C946.039 576.546 933.231 588.915 918.131 588.915C903.169 588.915 890.432 576.761 888.118 560.272L883.745 529.142Z" fill="#F4C2C9" stroke="black" stroke-width="1.293" stroke-miterlimit="10"/>
<path d="M865.109 972.408V588.915H1000.73V972.408" stroke="#222221" stroke-width="1.293" stroke-miterlimit="10"/>
<path d="M855.944 651.457H1011.73" stroke="#222221" stroke-width="1.293" stroke-miterlimit="10"/>
<path d="M855.944 713.839H1011.73" stroke="#222221" stroke-width="1.293" stroke-miterlimit="10"/>
<path d="M855.944 776.219H1011.73" stroke="#222221" stroke-width="1.293" stroke-miterlimit="10"/>
<path d="M855.944 838.598H1011.73" stroke="#222221" stroke-width="1.293" stroke-miterlimit="10"/>
<path d="M855.944 900.98H1011.73" stroke="#222221" stroke-width="1.293" stroke-miterlimit="10"/>
<path d="M626.735 1051.92C627.218 1052.19 627.715 1052.44 628.209 1052.68H702.642C711.925 1047.23 707.803 1028.81 707.353 1020.05C706.815 1009.62 706.391 994.707 693.624 992.99C690.141 992.522 686.272 992.876 683.658 995.222C680.612 997.955 680.141 1002.48 679.872 1006.56L679.052 1019.11C678.928 1020.99 678.807 1022.88 678.682 1024.76C668.442 1026.68 658.183 1028.6 648.16 1031.44C638.716 1034.12 628.411 1038.66 625.168 1047.92C624.909 1048.67 624.7 1049.49 624.974 1050.23C625.261 1051.01 626.011 1051.51 626.735 1051.92Z" fill="black"/>
<path d="M974.768 1050.47C974.729 1050.1 974.685 1049.72 974.641 1049.35C974.603 1049.01 974.551 1048.65 974.31 1048.41C974.054 1048.16 973.664 1048.12 973.307 1048.1C967.491 1047.73 961.678 1047.36 955.862 1046.99C952.068 1046.75 947.719 1046.19 945.632 1043.02C944.654 1041.53 944.367 1039.7 944.22 1037.93C943.682 1031.44 944.302 1017.53 952.13 1014.85C953.444 1014.4 954.882 1014.75 956.224 1015.11C971.401 1019.1 986.581 1023.1 1001.76 1027.1C1003.74 1027.62 1005.83 1028.21 1007.23 1029.71C1009.93 1032.62 1008.74 1037.27 1007.38 1041.01C1003.01 1053.06 999.842 1070.92 988.624 1078.79C984.406 1081.74 956.891 1091.41 958.642 1079.47C959.079 1076.48 961.29 1074.07 963.669 1072.22C966.051 1070.37 968.727 1068.85 970.762 1066.63C975.35 1061.61 975.422 1056.58 974.768 1050.47Z" fill="black"/>
<path d="M626.489 789.901C621.076 790.755 615.93 791.078 609.832 790.209C603.786 789.345 597.495 788.474 591.671 790.32C585.847 792.167 580.675 797.61 581.285 803.69C581.49 805.707 582.302 807.626 583.375 809.348C591.629 822.586 614.247 822.283 626.145 814.895C628.131 813.662 629.954 812.169 632.01 811.057C635.902 808.958 640.417 808.334 644.487 806.604C648.558 804.874 652.47 801.381 652.447 796.959C652.426 793.17 649.377 789.891 645.819 788.593C642.261 787.295 638.315 787.626 634.604 788.383C631.749 788.957 629.088 789.49 626.489 789.901Z" fill="white" stroke="#222221" stroke-width="1.293" stroke-miterlimit="10"/>
<path d="M894.516 863.209C890.841 855.568 878.679 851.024 871.206 848.402C844.334 838.973 815.733 835.324 787.481 832.138C775.407 830.778 763.312 829.516 751.171 828.932C740.486 828.417 729.57 827.458 718.908 827.763C714.274 827.895 709.64 828.027 705.006 828.159C701.657 828.254 698.277 828.355 695.034 829.19C690.03 830.481 686.128 830.838 682.35 834.864C673.651 844.132 668.61 856.361 666.143 868.831C665.838 870.375 665.569 871.924 665.334 873.478C665.272 897.489 665.419 921.474 667.387 945.501C669.244 968.191 671.613 990.833 673.995 1013.48C683.726 1013.75 693.454 1014.01 703.18 1014.35C706.397 1014.32 709.614 1014.3 712.831 1014.28C724.321 977.836 726.296 938.816 727.507 900.461C760.964 908.172 796.486 914.34 830.877 917.21C856.194 919.323 887.394 917.722 895.079 887.939C896.054 884.164 896.458 880.259 896.579 876.359C896.722 871.88 896.46 867.249 894.516 863.209Z" fill="#FEBD9D" stroke="black" stroke-width="1.293" stroke-miterlimit="10"/>
<path d="M743.355 626.559C741.912 626.996 740.519 627.57 739.207 628.336C732.952 631.99 729.756 639.419 729.037 646.627C728.416 652.843 729.347 659.207 731.721 664.985C733.097 668.331 735.016 671.558 737.87 673.782C742.078 677.056 747.682 677.734 752.983 678.292C755.533 678.561 757.139 692.419 757.664 694.669C759.161 701.103 760.803 707.418 761.773 713.969C770.41 715.011 779.57 715.975 787.465 712.319C784.62 688.933 779.955 665.771 773.529 643.104C770.733 633.241 763.542 624.351 752.649 625.121C749.523 625.341 746.332 625.657 743.355 626.559Z" fill="white" stroke="#222221" stroke-width="1.293" stroke-miterlimit="10"/>
<path d="M773.118 713.614C767.967 712.143 762.342 712.567 757.853 715.458C751.577 719.498 748.701 726.997 745.169 733.571C740.873 741.566 735.675 749.143 729.487 755.782C699.976 787.447 646.112 786.074 626.295 783.217C627.146 797.173 626.699 811.21 624.961 825.084C624.889 825.666 673.529 834.267 678.69 833.99C699.769 832.855 719.694 824.701 736.552 812.188C752.363 800.452 766.596 784.251 778.388 768.538C783.798 761.329 788.293 753.167 789.658 744.256C791.024 735.344 788.885 725.588 782.567 719.159C779.989 716.537 776.664 714.625 773.118 713.614Z" fill="#F7AD2B" stroke="black" stroke-width="1.293" stroke-miterlimit="10"/>
<path d="M818.934 877.626C817.783 883.184 815.888 888.614 813.928 893.957C803.537 922.286 790.871 950.293 787.548 980.283C782.358 1027.16 831.574 1043.77 869.216 1047.87C890.473 1050.18 910.939 1051.66 932.105 1055.5C941.968 1057.29 953.641 1058.63 964.309 1059.84C968.043 1044.95 971.443 1029.98 974.782 1015C975.245 1012.92 874.611 982.222 864.724 978.679C888.234 945.361 916.033 905.878 916.033 862.945C916.232 854.218 914.65 845.526 912.258 837.132C909.196 826.398 904.448 815.717 898.686 805.942C896.361 801.996 893.819 798.184 891.184 794.442C865.966 812.283 836.286 822.705 807.786 834.505C808.295 835.405 808.825 836.294 809.301 837.215C814.595 847.46 820.69 858.048 819.981 869.972C819.829 872.555 819.459 875.102 818.934 877.626Z" fill="#FEBD9D" stroke="black" stroke-width="1.293" stroke-miterlimit="10"/>
<mask id="mask2_388_7989" style="mask-type:luminance" maskUnits="userSpaceOnUse" x="787" y="794" width="188" height="266">
<path d="M818.934 877.626C817.783 883.184 815.888 888.614 813.928 893.957C803.537 922.286 790.871 950.293 787.548 980.283C782.358 1027.16 831.574 1043.77 869.216 1047.87C890.473 1050.18 910.939 1051.66 932.105 1055.5C941.968 1057.29 953.641 1058.63 964.309 1059.84C968.043 1044.95 971.443 1029.98 974.782 1015C975.245 1012.92 874.611 982.222 864.724 978.679C888.234 945.361 916.033 905.878 916.033 862.945C916.232 854.218 914.65 845.526 912.258 837.132C909.196 826.398 904.448 815.717 898.686 805.942C896.361 801.996 893.819 798.184 891.184 794.442C865.966 812.283 836.286 822.705 807.786 834.505C808.295 835.405 808.825 836.294 809.301 837.215C814.595 847.46 820.69 858.048 819.981 869.972C819.829 872.555 819.459 875.102 818.934 877.626Z" fill="white"/>
</mask>
<g mask="url(#mask2_388_7989)">
<path d="M798.851 983.688C800.504 984.586 801.81 986.013 802.919 987.531C805.994 991.734 807.812 996.968 807.38 1002.16C806.945 1007.35 804.088 1012.41 799.549 1014.96C795.011 1017.51 788.856 1017.19 784.954 1013.74C782.903 1011.93 781.574 1009.46 780.372 1007C774.582 995.199 782.999 975.087 798.851 983.688Z" fill="#FEBD9D"/>
</g>
<path d="M701.687 888.526L563.184 775.329" stroke="black" stroke-width="18.102" stroke-miterlimit="10"/>
<path d="M660.655 825.342C660.839 822.793 660.208 820.188 659.046 817.9C658.39 816.607 657.526 815.358 656.282 814.616C654.88 813.78 653.176 813.68 651.544 813.61C645.333 813.341 639.119 813.175 632.902 813.121C627.347 813.072 623.003 811.999 618.7 808.171C616.463 806.18 615.493 803.449 613.362 801.414C610.833 798.999 608.035 796.868 605.035 795.073C603.223 793.987 601.138 792.994 599.069 793.426C598.221 793.604 597.334 794.14 597.195 794.996C597.104 795.557 597.36 796.115 597.645 796.609C599.08 799.089 601.386 800.923 603.298 803.056C604.422 804.313 607.926 808.973 606.07 810.628C604.267 812.234 599.861 809.229 598.57 808.257C592.421 803.62 585.832 799.56 578.924 796.152C578.143 795.766 577.215 795.389 576.442 795.79C575.586 796.234 575.415 797.388 575.521 798.345C575.837 801.212 577.598 803.687 578.604 806.39C580.409 811.236 580.005 817.031 582.281 821.707C584.311 825.88 590.918 828.311 595.027 829.602C600.083 831.189 605.369 831.88 610.595 832.756C616.049 833.672 621.475 834.787 626.97 835.428C632.429 836.067 637.59 835.309 642.993 835.43C649.525 835.578 658.659 834.962 660.417 827.003C660.533 826.457 660.614 825.901 660.655 825.342Z" fill="white" stroke="#222221" stroke-width="1.293" stroke-miterlimit="10"/>
<path d="M866.633 746.441C854.611 732.327 841.443 719.19 827.279 707.224C807.621 690.617 771.649 676.156 751.525 701.152C744.383 710.025 741.401 721.442 738.6 732.484C736.482 740.842 734.362 749.2 732.244 757.561C728.06 774.065 721.199 783.842 705.869 791.538C700.62 794.176 695.595 796.4 689.784 798.143C671.53 803.618 652.748 806.116 633.774 807.478C633.862 818.151 633.893 828.823 633.567 839.488C665.14 839.94 694.638 845.068 723.992 831.195C744.093 821.694 767.119 805.746 777.833 785.8C786.077 808.402 796.165 830.328 807.965 851.296C844.223 844.559 878.635 830.445 912.742 816.421C900.339 791.311 884.792 767.76 866.633 746.441Z" fill="#F7AD2B" stroke="black" stroke-width="1.293" stroke-miterlimit="10"/>
<path d="M724.01 627.056C722.503 628.416 721.14 629.939 719.966 631.597C718.484 633.689 717.258 636.254 717.856 638.747C718.833 642.828 724.044 644.317 728.179 643.611C733.17 642.758 741.838 637.022 744.864 643.663C745.627 645.334 745.624 647.281 746.418 648.938C749.159 654.653 759.09 653.573 761.665 659.365C762.495 661.235 762.294 663.373 762.42 665.416C762.886 673.04 768.872 671.155 774.401 672.316C778.391 673.154 781.239 674.855 781.327 679.029C781.471 685.916 779.012 692.572 779.007 699.505C779.002 707.372 780.706 715.277 784.435 722.236C789.335 731.38 797.611 738.207 807.445 741.403C817.867 744.791 827.585 751.318 839.095 748.114C843.246 746.958 847.011 744.688 850.396 742.021C855.511 737.99 859.949 732.849 862.074 726.692C862.566 725.264 862.925 723.803 863.16 722.326C864.296 715.163 862.511 707.568 858.948 701.176C857.055 697.778 854.624 694.594 851.394 692.43C846.845 689.381 841.066 688.61 835.625 689.226C833.305 689.487 830.991 689.986 828.658 689.875C826.326 689.764 823.887 688.933 822.493 687.061C819.786 683.423 822.214 678.243 821.513 673.761C820.965 670.265 818.384 667.271 815.182 665.766C811.981 664.26 808.244 664.131 804.794 664.92C800.675 665.864 796.196 668.116 792.42 665.359C788.001 662.132 788.769 657.252 789.617 652.6C791.301 643.366 790.003 633.345 784.704 625.595C776.739 613.945 760.414 607.231 747.406 614.617C745.05 615.954 742.914 617.671 740.486 618.874C737.858 620.172 734.967 620.829 732.247 621.917C729.224 623.122 726.426 624.878 724.01 627.056Z" fill="black"/>
<path d="M756.666 685.678C756.777 686.05 756.849 686.415 756.948 686.787C758.936 683.356 760.79 679.841 762.652 676.329C762.745 675.854 762.826 675.378 762.872 674.907C760.211 676.079 755.554 677.338 752.725 677.798C755.114 679.213 756.063 682 756.542 684.615C756.606 684.967 756.617 685.323 756.666 685.678Z" fill="black"/>
<path opacity="0.57" d="M490.22 806.286C547.164 806.286 593.326 760.124 593.326 703.18C593.326 646.236 547.164 600.073 490.22 600.073C433.276 600.073 387.113 646.236 387.113 703.18C387.113 760.124 433.276 806.286 490.22 806.286Z" fill="#A7CAF0" stroke="black" stroke-width="7.758" stroke-miterlimit="10"/>
<path d="M776.994 787.633C779.88 780.765 781.24 773.263 780.951 765.82" stroke="black" stroke-width="1.293" stroke-miterlimit="10"/>
<path d="M751.419 654.772C750.344 651.615 751.792 648.931 754.442 647.255C755.588 646.531 756.93 646.047 758.28 646.148C764.618 646.616 768.376 654.266 765.247 659.515C764.034 661.55 761.924 663.092 759.571 663.368" fill="white"/>
<path d="M751.419 654.772C750.344 651.615 751.792 648.931 754.442 647.255C755.588 646.531 756.93 646.047 758.28 646.148C764.618 646.616 768.376 654.266 765.247 659.515C764.034 661.55 761.924 663.092 759.571 663.368" stroke="#222221" stroke-width="1.293" stroke-miterlimit="10"/>
<path d="M758.508 649.815C756.969 650.356 755.694 651.599 755.118 653.125C754.541 654.651 754.673 656.427 755.469 657.852" fill="white"/>
<path d="M758.508 649.815C756.969 650.356 755.694 651.599 755.118 653.125C754.541 654.651 754.673 656.427 755.469 657.852" stroke="#222221" stroke-width="1.293" stroke-miterlimit="10"/>
<path d="M490.22 806.286C547.164 806.286 593.326 760.124 593.326 703.18C593.326 646.236 547.164 600.073 490.22 600.073C433.276 600.073 387.113 646.236 387.113 703.18C387.113 760.124 433.276 806.286 490.22 806.286Z" stroke="black" stroke-width="7.758" stroke-miterlimit="10"/>
<path d="M855.327 852.058C856.835 859.056 861.122 865.412 867.044 869.431C872.966 873.45 880.46 875.084 887.518 873.9" stroke="black" stroke-width="1.293" stroke-miterlimit="10"/>
<path d="M727.4 900.704C723.919 896.346 720.92 891.603 718.479 886.589" stroke="black" stroke-width="1.293" stroke-miterlimit="10"/>
<path d="M864.366 979.251C859.75 981.113 854.612 981.656 849.709 980.797" stroke="black" stroke-width="1.293" stroke-miterlimit="10"/>
<path d="M500.774 789.709C548.577 783.872 582.597 740.388 576.76 692.585C570.923 644.782 527.439 610.762 479.637 616.599C431.834 622.436 397.814 665.92 403.651 713.722C409.488 761.525 452.971 795.545 500.774 789.709Z" stroke="black" stroke-width="1.293" stroke-miterlimit="10"/>
<path d="M479.627 108.622C479.627 70.458 536.273 39.5165 593.949 39.5165C651.624 39.5165 705.799 70.4554 705.799 108.622C705.799 144.249 657.634 173.57 605.299 177.314C604.251 184.407 602.4 191.325 599.276 197.857C591.58 213.942 574.254 227.045 555.937 224.966C570.362 218.907 578.777 203.73 580.621 188.724C581.094 184.878 581.202 181.028 581.052 177.182C529.464 172.977 479.627 143.895 479.627 108.622Z" fill="#6FBAFF" stroke="#1C85E8" stroke-width="1.293" stroke-miterlimit="10"/>
<path d="M676.881 126.45C667.303 132.894 653.507 133.194 643.62 127.174C633.734 121.154 628.386 109.199 630.724 98.3454C631.096 96.618 631.823 94.7224 633.535 94.0035C636.811 92.6278 639.715 96.5662 640.584 99.8401C643.439 110.59 640.734 124.105 630.098 128.873C618.981 133.856 605.347 126.215 599.676 115.935C596.708 110.554 594.688 103.51 595.753 97.4119C596.152 95.1258 597.592 92.7157 599.966 92.2864C601.606 91.989 603.312 92.7467 604.45 93.9182C605.588 95.0896 606.234 96.6231 606.692 98.1618C609.56 107.805 605.115 122.028 595.841 127.332C577.99 137.541 561.51 117.72 560.863 102.025C560.791 100.254 560.884 98.4126 561.714 96.83C562.541 95.2448 564.266 93.9802 566.108 94.1251C568.838 94.3397 570.346 97.2541 570.961 99.8142C573.276 109.437 571.502 126.864 559.487 129.98C549.578 132.548 541.349 125.439 537.594 117.236C535.862 113.45 534.388 108.493 535.086 104.314C535.939 99.2117 541.54 96.7447 542.66 103.339C543.715 109.548 542.011 119.077 537.641 123.869C532.983 128.974 525.629 132.32 518.538 130.326" stroke="black" stroke-width="1.293" stroke-miterlimit="10"/>
<path d="M507.579 853.693C506.664 852.307 505.586 851.014 504.339 849.845C493.778 839.943 476.894 842.757 463.105 847.171C432.257 857.044 397.387 874.704 379.368 902.571C359.552 933.22 349.011 969.711 338.874 1004.42C337.475 1009.21 333.193 1019.01 333.43 1025.94C338.365 1025.68 343.327 1025.52 348.264 1025.76C351.359 1021.6 354.131 1016.79 355.936 1014.29C377.051 985.049 403.033 959.008 433.803 939.972C461.091 923.093 492.164 915.635 507.861 884.601C512.733 874.978 513.362 862.439 507.579 853.693Z" fill="#94E261" stroke="black" stroke-width="1.293" stroke-miterlimit="10"/>
<path d="M322.511 1025.72H328.03C328.02 1025.64 328.025 1025.56 328.014 1025.48C327.776 1023.72 327.267 1022.02 326.995 1020.1C326.509 1016.67 326 1013.3 325.183 1009.9C323.401 1002.5 321.05 995.245 318.886 987.95C315.426 976.282 311.482 964.679 305.568 953.998C299.543 943.119 291.244 933.184 280.373 927.14C254.269 912.63 207.127 921.03 194.44 950.551C190.256 960.288 191.13 972.636 198.466 980.285C201.988 983.957 206.692 986.321 211.564 987.787C218.166 989.773 225.229 990.213 232.027 989.059C248.611 986.241 267.753 981.26 284.857 985.78C286.579 986.236 288.265 986.83 289.897 987.544C298.707 991.402 305.565 998.579 311.379 1006.05C316.127 1012.14 320.763 1018.28 322.511 1025.72Z" fill="#94E261" stroke="black" stroke-width="1.293" stroke-miterlimit="10"/>
<path d="M315.886 957.513C318.753 968.532 320.716 979.786 322.441 991.048C323.297 996.631 328.565 1016.52 328.19 1026.2H328.772C330.07 1026.12 332.927 1025.96 333.432 1025.94C338.319 1017.11 337.142 1007.1 339.095 997.12C346.672 958.384 359.775 915.915 350.357 876.615C344.913 853.895 332.674 832.019 313.168 819.159C293.661 806.299 266.327 804.199 247.191 817.603C243.552 820.15 240.198 823.271 238.145 827.207C233.069 836.946 237.09 848.978 242.929 858.28C247.923 866.235 254.212 873.375 261.471 879.333C269.056 885.56 277.672 890.489 284.949 897.073C293.553 904.857 299.863 914.495 304.732 924.924C309.607 935.353 313.038 946.574 315.886 957.513Z" fill="#94E261" stroke="black" stroke-width="1.293" stroke-miterlimit="10"/>
<path d="M341.094 1023.97C364.544 977.161 388.312 925.452 433.45 895.824C445.829 887.696 458.987 880.846 472.113 874.024" stroke="#222221" stroke-width="1.293" stroke-miterlimit="10"/>
<path d="M325.445 1024.92C313.759 997.862 302.509 975.092 277.536 963.339C261.377 955.995 243.748 957.464 228.131 958.961" stroke="#222221" stroke-width="1.293" stroke-miterlimit="10"/>
<path d="M294.052 860.328C342.172 900.168 330.419 967.746 331.329 1024.01" stroke="#222221" stroke-width="1.293" stroke-miterlimit="10"/>
<path d="M293.465 1026H400.81" stroke="#222221" stroke-width="1.293" stroke-miterlimit="10"/>
<path d="M201.51 364.013C197.871 358.968 192.673 355.153 187.072 354.225C177.491 352.637 166.48 355.332 161.106 363.421C158.939 366.682 157.475 370.912 153.834 372.345C152.076 373.036 150.121 372.911 148.233 373.002C139.966 373.4 132.084 378.497 128.329 385.875C126.014 390.421 126.089 394.753 125.104 399.449C124.075 404.36 120.059 408.456 116.221 411.394C111.584 414.942 106.288 417.657 102.107 421.733C95.7631 427.913 92.5203 436.881 92.4117 445.738C92.3212 453.01 93.9762 464.632 99.4922 469.967C104.687 474.994 113.159 478.583 120.033 480.373C127.307 482.266 135.709 482.752 142.658 479.418C149.598 476.09 157.341 472.987 163.074 467.58C178.313 453.207 182.469 429.889 183.757 409.961C183.966 406.713 192.317 400.876 194.618 398.751C198.122 395.516 201.916 392.252 204.354 388.089C208.673 380.703 206.643 371.132 201.51 364.013Z" fill="black"/>
<path d="M262.02 877.06C256.524 930.554 248.65 983.735 240.758 1037.73C227.584 1037.06 222.914 1025.9 220.801 1012.13C212.976 961.138 211.43 899.881 206.03 848.322C202.743 816.935 179.968 640.045 230.664 642.611C249.24 643.549 260.463 663.699 264.551 681.845C268.888 701.098 269.354 720.99 269.421 740.726C269.578 786.837 266.643 832.058 262.02 877.06Z" fill="white" stroke="#222221" stroke-width="1.293" stroke-miterlimit="10"/>
<path d="M139.133 888.606C151.347 852.188 162.805 815.516 173.496 778.619C178.919 759.904 185.787 728.523 190.45 709.598C193.876 695.699 196.154 691.664 195.011 677.356C194.347 669.034 192.009 660.534 186.509 654.255C178.267 644.845 163.938 642.22 152.027 646.04C140.116 649.859 130.568 659.22 124.261 670.022C117.951 680.824 114.545 693.05 111.735 705.238C102.585 744.918 103.4 784.548 97.858 824.494C92.1844 865.405 82.9446 905.702 76.2804 946.445C72.8721 967.285 71.755 993.562 68.6259 1014.45C67.638 1021.04 67.1958 1023.52 75.9469 1025.71C84.0721 1027.74 86.5391 1028.1 89.4613 1022.33C110.26 981.265 124.502 932.243 139.133 888.606Z" fill="white" stroke="#222221" stroke-width="1.293" stroke-miterlimit="10"/>
<path d="M135.989 722.606C157.241 723.922 178.562 724.959 199.848 725.295C218.332 725.587 236.861 725.019 255.237 722.758C263.559 721.734 271.79 720.296 279.926 718.486C278.599 710.423 276.856 702.45 276.489 699.533C272.941 671.338 268.501 643.27 263.176 615.393C260.626 602.044 257.859 588.685 253.352 575.933C249.804 565.894 244.976 555.995 237.197 549.168C230.781 543.538 221.653 539.988 211.935 538.428C198.265 536.235 183.434 537.983 173.354 543.419C161.743 549.683 152.601 560.156 145.012 571.4C116.157 614.144 107.636 667.583 96.2861 719.192C109.488 720.695 122.733 721.786 135.989 722.606Z" fill="#DEA600" stroke="black" stroke-width="1.293" stroke-miterlimit="10"/>
<mask id="mask3_388_7989" style="mask-type:luminance" maskUnits="userSpaceOnUse" x="96" y="537" width="184" height="189">
<path d="M135.989 722.606C157.241 723.922 178.562 724.959 199.848 725.295C218.332 725.587 236.861 725.019 255.237 722.758C263.559 721.734 271.79 720.296 279.926 718.486C278.599 710.423 276.856 702.45 276.489 699.533C272.941 671.338 268.501 643.27 263.176 615.393C260.626 602.044 257.859 588.685 253.352 575.933C249.804 565.894 244.976 555.995 237.197 549.168C230.781 543.538 221.653 539.988 211.935 538.428C198.265 536.235 183.434 537.983 173.354 543.419C161.743 549.683 152.601 560.156 145.012 571.4C116.157 614.144 107.636 667.583 96.2861 719.192C109.488 720.695 122.733 721.786 135.989 722.606Z" fill="white"/>
</mask>
<g mask="url(#mask3_388_7989)">
<path d="M218.428 662.494C220.326 666.415 225.692 666.805 230.031 666.404C237.466 665.716 244.839 664.338 252.02 662.287C261.578 659.559 277.518 653.94 280.107 642.804C282.126 634.121 276.616 630.542 268.946 630.337C257.653 630.035 210.942 647.043 218.428 662.494Z" fill="#050504"/>
<path d="M135.575 635.768C137.856 634.175 140.256 632.755 142.948 632.137C146.519 631.318 150.768 632.285 152.725 635.38C155.707 640.094 152.006 646.097 148.345 650.301C143.154 656.259 137.708 661.998 132.032 667.496C129.65 669.802 127.165 672.107 124.142 673.464C118.145 676.154 106.537 679.391 100.951 675.06C86.7874 664.074 126.995 642.075 133.374 637.361C134.098 636.826 134.83 636.288 135.575 635.768Z" fill="#050504"/>
<path d="M179.537 608.641C178.826 611.033 178.117 613.425 177.406 615.814C175.699 621.555 173.985 627.343 173.47 633.309C173.204 636.383 173.281 639.588 174.546 642.404C175.808 645.22 178.477 647.573 181.559 647.71C186.85 647.945 190.199 642.274 192.317 637.423C197.585 625.357 206.811 605.894 199.449 592.809C193.649 582.504 185.911 587.185 182.997 596.994C181.844 600.878 180.69 604.759 179.537 608.641Z" fill="#050504"/>
<path d="M183.812 678.352C188.821 677.431 194.554 677.03 198.441 680.32C199.325 681.067 200.096 682.042 200.261 683.187C200.38 684.018 200.171 684.863 199.876 685.647C197.75 691.279 191.666 694.183 186.126 696.542C179.679 699.285 138.857 715.425 140.137 699.135C141.063 687.312 174.981 679.976 183.812 678.352Z" fill="#050504"/>
<path d="M237.334 693.195C238.21 691.522 239.353 689.784 241.153 689.215C243.501 688.473 245.981 690.03 247.577 691.905C251.479 696.49 252.325 702.981 251.787 708.978C251.249 714.975 249.511 720.814 248.922 726.806C248.353 732.58 249.361 746.519 241.779 748.908C235.381 750.925 233.424 744.695 232.172 739.371C228.937 725.629 230.799 705.683 237.334 693.195Z" fill="#050504"/>
<path d="M221.469 604.563C221.789 607.684 223.147 611.136 226.116 612.16C228.841 613.099 231.782 611.61 234.127 609.934C243.245 603.417 270.499 566.975 256.755 557.291C243.16 547.709 220.289 593.107 221.469 604.563Z" fill="#050504"/>
<path d="M114.034 588.674C124.342 586.872 134.867 586.3 145.309 586.973C148.539 587.182 151.857 587.537 154.714 589.055C157.572 590.572 159.892 593.523 159.752 596.756C159.617 599.856 157.264 602.512 154.492 603.906C151.72 605.3 148.56 605.667 145.475 606.016C134.272 607.275 122.744 608.512 111.872 605.522C109.816 604.956 107.732 604.203 106.198 602.724C99.3998 596.174 107.9 589.748 114.034 588.674Z" fill="#050504"/>
</g>
<path d="M297.819 494.288C288.346 494.857 278.721 494.534 269.013 493.23C251.449 490.872 230.213 486.672 222.97 467.836C219.533 458.901 222.809 446.943 231.004 441.448C238.85 436.188 249.277 439.147 258.462 441.358C276.903 445.798 296.497 446.729 315.411 446.819C336.57 446.92 358.778 444.262 377.793 434.386C386.255 429.992 394.419 425.027 402.215 419.537C409.161 414.647 415.316 408.562 422.5 404.044C427.804 400.711 433.829 398.528 440.038 397.696C443.853 397.184 448.383 397.484 450.602 400.628C453.227 404.347 450.897 409.612 447.667 412.819C441.73 418.712 433.317 421.295 426.436 426.056C421.212 429.672 416.958 434.479 412.495 438.999C381.533 470.336 341.256 491.681 297.819 494.288Z" fill="white" stroke="#222221" stroke-width="1.293" stroke-miterlimit="10"/>
<path d="M193.162 426.501C193.129 426.804 193.162 427.111 193.237 427.406C193.408 427.323 193.584 427.251 193.762 427.181L193.162 426.501Z" fill="#522E97"/>
<path d="M131.854 565.325C137.638 566.285 143.361 567.138 149.206 567.663C162.001 568.811 174.696 568.814 187.522 568.933C196.452 569.016 205.376 569.46 214.308 569.422C228.497 569.354 244.536 568.579 257.399 561.736C252.635 539.328 247.872 516.918 243.108 494.51C244.109 495.34 259.193 505.806 259.1 506.209C259.1 506.209 267.65 440.178 263.14 438.645C261.016 437.923 258.932 437.036 256.853 436.199C241.888 430.178 225.919 426.685 209.811 425.839C195.097 425.068 177.918 424.104 163.506 427.375C136.159 433.584 135.376 458.588 134.551 482.625C134.253 491.265 133.995 499.905 133.754 508.547C133.415 520.766 133.121 532.985 132.826 545.204C132.795 546.644 133.009 559.398 131.854 565.325Z" fill="#7696EA" stroke="black" stroke-width="1.293" stroke-miterlimit="10"/>
<path d="M195.35 419.19C195.247 418.28 195.166 417.38 195.122 416.488C195.053 415.115 195.04 413.656 195.738 412.475C196.483 411.215 197.877 410.525 199.056 409.656C203.126 406.661 203.967 401.549 204.512 396.84C205.122 391.567 204.626 386.095 203.201 380.987C201.639 375.384 198.562 369.847 193.731 366.431C189.707 363.586 184.639 362.691 180.095 364.851C177.465 366.1 175.306 368.163 173.571 370.47C171.548 373.16 168.678 377.509 168.324 380.92C168.07 383.369 167.858 385.826 167.695 388.283C166.764 402.387 167.059 417.401 171.947 430.843C174.194 437.026 178.132 444.944 184.952 447.099C189.932 448.671 194.044 445.477 195.782 440.921C198.402 434.042 196.167 426.385 195.35 419.19Z" fill="white" stroke="#222221" stroke-width="1.293" stroke-miterlimit="10"/>
<path d="M198.622 350.085C196.892 349.679 195.076 349.575 193.315 349.756C182.221 350.897 168.319 362.443 162.038 371.365C159.488 374.988 156.948 379.718 157.871 384.318C158.298 386.449 159.387 388.192 160.949 389.679C162.537 391.189 167.572 394.404 169.539 393.113C170.564 392.441 170.545 389.772 171.466 388.764C172.943 387.145 175.371 387.077 177.041 385.725C179.503 383.726 179.449 379.865 181.458 377.414C182.552 376.079 184.161 375.288 185.736 374.582C191.616 371.947 202.521 371.251 206.387 365.87C208.932 362.329 208.182 357.057 205.247 353.832C203.504 351.911 201.153 350.677 198.622 350.085Z" fill="black"/>
<path d="M178.125 388.663C177.846 387.256 177.347 385.87 176.47 384.732C175.593 383.597 174.311 382.733 172.888 382.557C171.735 382.415 170.564 382.725 169.516 383.227C165.459 385.169 163.855 389.901 165.857 393.93C166.599 395.428 168.311 396.516 169.927 396.819C171.202 397.057 172.511 396.951 173.804 396.845" fill="white"/>
<path d="M178.125 388.663C177.846 387.256 177.347 385.87 176.47 384.732C175.593 383.597 174.311 382.733 172.888 382.557C171.735 382.415 170.564 382.725 169.516 383.227C165.459 385.169 163.855 389.901 165.857 393.93C166.599 395.428 168.311 396.516 169.927 396.819C171.202 397.057 172.511 396.951 173.804 396.845" stroke="#222221" stroke-width="1.293" stroke-miterlimit="10"/>
<path d="M200.616 392.661L187.885 396.713C189.095 399.563 199.077 404.453 200.616 392.661Z" fill="white" stroke="#222221" stroke-width="1.293" stroke-miterlimit="10"/>
<path d="M197.146 410.165C194.547 410.822 191.92 410.915 189.271 410.796C190.277 412.032 191.066 413.4 192.07 414.605C193.2 415.963 194.565 417.008 195.305 418.635C195.25 417.484 195.188 416.338 195.24 415.185C195.284 414.205 195.395 413.199 195.835 412.322C196.45 411.099 197.632 410.264 198.842 409.625C198.884 409.604 198.925 409.578 198.966 409.558C198.369 409.785 197.769 410.008 197.146 410.165Z" fill="black"/>
<path d="M197.002 386.377L223.762 390.429V378.267L197.002 382.322V386.377Z" fill="black"/>
<path d="M501.077 339.849V339.873C500.916 339.875 500.756 339.88 500.596 339.883L501.077 339.849Z" fill="#467A7C"/>
<path d="M490.531 425.43L501.077 426.661C497.263 426.586 493.772 426.144 490.531 425.43Z" fill="#467A7C"/>
<path d="M490.531 425.43L221.564 394.026C216.919 393.483 213.418 389.55 213.418 384.872C213.418 380.24 216.857 376.327 221.45 375.733L495.675 340.245C471.925 343.079 462.155 364.147 462.155 386.162C462.155 406.39 471.408 421.223 490.531 425.43Z" fill="#2842F7" stroke="black" stroke-width="1.293" stroke-miterlimit="10"/>
<path d="M502.292 424.647C525.152 424.647 543.683 406.115 543.683 383.255C543.683 360.396 525.152 341.864 502.292 341.864C479.432 341.864 460.9 360.396 460.9 383.255C460.9 406.115 479.432 424.647 502.292 424.647Z" fill="#A7CAF0" stroke="black" stroke-width="7.758" stroke-miterlimit="10"/>
<path d="M500.57 406.263C506.091 406.263 511.589 404.404 516.243 400.863C522.421 396.165 526.109 389.226 526.36 381.825C526.538 376.542 524.974 371.184 522.015 366.77C521.24 365.611 519.639 365.365 518.568 366.26L518.436 366.371C517.505 367.15 517.353 368.495 518.028 369.503C520.412 373.072 521.674 377.398 521.529 381.662C521.328 387.605 518.336 393.201 513.316 397.016C508.806 400.445 503.35 401.947 498.066 401.269C496.869 401.117 495.739 401.849 495.457 403.023L495.416 403.193C495.09 404.551 496.021 405.878 497.407 406.056C498.46 406.196 499.515 406.263 500.57 406.263Z" fill="white"/>
<mask id="mask4_388_7989" style="mask-type:luminance" maskUnits="userSpaceOnUse" x="199" y="341" width="283" height="84">
<path d="M199.435 378.267L481.058 341.903V424.608L218.894 392.862L199.435 378.267Z" fill="white"/>
</mask>
<g mask="url(#mask4_388_7989)">
<path d="M441.475 424.608V422.175C420.014 422.175 402.554 404.714 402.554 383.253C402.554 361.792 420.014 344.331 441.475 344.331V341.897C418.672 341.897 400.12 360.449 400.12 383.253C400.123 406.059 418.672 424.608 441.475 424.608Z" fill="black"/>
<path d="M379.445 417.313V414.88C362.008 414.88 347.821 400.693 347.821 383.255C347.821 365.818 362.008 351.631 379.445 351.631V349.198C360.666 349.198 345.388 364.476 345.388 383.253C345.39 402.035 360.666 417.313 379.445 417.313Z" fill="black"/>
<path d="M267.547 402.715V400.282C258.159 400.282 250.518 392.643 250.518 383.253C250.518 373.863 258.157 366.224 267.547 366.224V363.791C256.817 363.791 248.087 372.521 248.087 383.25C248.087 393.985 256.817 402.715 267.547 402.715Z" fill="black"/>
<path d="M319.848 410.013V407.579C306.434 407.579 295.521 396.666 295.521 383.253C295.521 369.839 306.434 358.926 319.848 358.926V356.493C305.092 356.493 293.088 368.497 293.088 383.25C293.088 398.011 305.092 410.013 319.848 410.013Z" fill="black"/>
</g>
<path d="M139.695 472.705C139.03 466.612 140.815 460.401 146.212 454.714C157.626 442.687 167.272 447.349 179.843 452.868C186.134 455.63 192.687 458.446 199.558 458.265C207.51 458.058 214.914 453.776 220.518 448.13C228.607 439.982 234.293 429.022 240.05 419.159C246.011 408.95 251.974 398.738 257.935 388.526C262.649 380.45 266.285 370.661 273.58 364.727C279.851 359.627 292.378 353.165 298.915 361.499C304.11 368.119 297.676 375.877 291.827 379.868C280.454 387.623 278.814 401.652 275.985 414.106C272.248 430.556 267.635 446.946 259.869 462.002C242.721 495.247 207.047 518.878 169.005 504.955C155.708 500.088 141.223 486.716 139.695 472.705Z" fill="white" stroke="#222221" stroke-width="1.293" stroke-miterlimit="10"/>
<path d="M159.994 428.218C130.711 434.225 111.716 456.32 117.592 482.578C121.225 498.819 131.898 512.041 145.735 520.675C146.984 521.454 168.231 487.921 170.121 484.678C171.357 482.56 188.28 451.65 188.28 451.65C188.28 451.65 183.408 449.91 180.969 448.772C174.711 445.849 170.044 441.226 164.582 436.995" fill="#7696EA"/>
<path d="M159.994 428.218C130.711 434.225 111.716 456.32 117.592 482.578C121.225 498.819 131.898 512.041 145.735 520.675C146.984 521.454 168.231 487.921 170.121 484.678C171.357 482.56 188.28 451.65 188.28 451.65C188.28 451.65 183.408 449.91 180.969 448.772C174.711 445.849 170.044 441.226 164.582 436.995" stroke="black" stroke-width="1.293" stroke-miterlimit="10"/>
<path d="M170.688 387.008C171.957 387.207 173.32 387.455 174.223 388.365C175.314 389.467 175.407 391.181 175.433 392.731" fill="white"/>
<path d="M170.688 387.008C171.957 387.207 173.32 387.455 174.223 388.365C175.314 389.467 175.407 391.181 175.433 392.731" stroke="#222221" stroke-width="1.293" stroke-miterlimit="10"/>
<path d="M301.883 1043.92C300.624 1042.84 299.046 1042.27 297.502 1041.71C287.249 1038.01 276.85 1034.76 266.656 1030.89C259.307 1028.1 251.314 1025.79 246.424 1019.16C246.191 1018.84 245.989 1018.57 245.803 1018.33C237.137 1019.49 228.153 1019.56 220.258 1016.38C219.702 1028.03 219.247 1039.74 220.801 1051.29C220.861 1051.73 220.949 1052.21 221.308 1052.46C221.59 1052.66 221.963 1052.66 222.309 1052.65C222.48 1052.65 222.65 1052.64 222.819 1052.64C230.439 1052.46 238.029 1052.87 245.661 1052.71C253.535 1052.54 261.404 1052.13 269.281 1052.13C276.447 1052.13 284.153 1053.16 291.161 1052.71C294.72 1052.48 308.464 1049.55 301.883 1043.92Z" fill="black"/>
<path d="M133.83 1062.04C132.384 1059.56 130.051 1057.75 127.721 1056.08C121.132 1051.34 114.101 1047.2 107.856 1042.01C101.611 1036.83 96.0714 1030.41 93.6328 1022.66C93.338 1021.73 93.0768 1020.75 92.4665 1019.99C92.2544 1019.72 91.97 1019.5 91.6545 1019.3C87.0152 1020.71 82.3242 1019.44 77.9332 1016.96C74.2223 1014.87 70.6148 1011.77 66.6065 1010C65.7324 1012.66 65.66 1015.33 65.2281 1018.06C64.7368 1021.18 63.8291 1024.29 63.0404 1027.34C62.6318 1028.92 57.8011 1045.6 58.2692 1045.78C58.9105 1046.03 59.5493 1046.27 60.1906 1046.52C74.6102 1052 89.3219 1056.95 104.008 1062.05C110.778 1064.4 117.724 1067.91 124.494 1069.77C126.607 1070.35 131.838 1071.68 133.78 1070.44C136.214 1068.9 134.934 1063.94 133.83 1062.04Z" fill="black"/>
</svg>
