<svg width="1293" height="1293" viewBox="0 0 1293 1293" fill="none" xmlns="http://www.w3.org/2000/svg">
<g clip-path="url(#clip0_388_7986)">
<path d="M1293 0H0V1293H1293V0Z" fill="white"/>
<path d="M428.551 330.531C422.577 337.521 415.823 343.911 408.747 349.582C385.716 368.049 358.788 381.11 335.398 399.117C291.599 432.833 244.474 488.802 187.122 439.363C173.592 427.7 166.183 410.438 161.562 393.185C129.113 272.025 256.709 167.142 372.202 191.647C413.053 200.315 452.244 233.747 451.765 275.506C451.533 295.959 442.029 314.764 428.551 330.531Z" fill="white"/>
<path d="M534.431 1197.36C614.005 1202.85 694.251 1198.65 772.783 1184.66C834.043 1173.76 895.026 1156.64 948.6 1124.99C1082.14 1046.1 1143.84 902.246 1173.48 757.839C1193.11 662.193 1207.54 554.044 1192.9 456.779C1181.83 383.203 1152.93 311.469 1104.48 254.999C1021.67 158.477 881.793 115.078 758.894 147.778C688.229 166.579 625.267 207.794 570.535 256.287C515.802 304.777 468.315 360.746 418.961 414.7C361.997 476.973 301.984 537.212 255.49 607.647C235.72 637.595 219.757 670.021 207.83 703.859C162.384 832.792 174.729 988.536 264.308 1096.13C322.307 1165.8 391.048 1180.79 478.463 1191.88C497.061 1194.24 515.727 1196.07 534.431 1197.36Z" fill="white"/>
<path d="M520.423 386.306C513.183 371.809 497.651 366.738 482.272 366.197C480.209 347.449 464.325 331.594 445.848 327.805C427.371 324.017 407.462 331.529 394.635 345.359C389.489 350.909 385.279 357.637 384.193 365.126C378.786 360.769 370.968 359.631 364.542 362.266C355.395 366.019 351.894 375.173 353.655 384.454C344.847 384.635 335.858 391.124 331.594 398.641C322.711 414.302 331.183 433.599 347.601 439.445C361.806 444.504 378.778 440.888 391.483 433.454C396.926 445.66 410.376 453.418 423.57 454.837C434.116 455.97 445.365 453.705 453.539 446.66C458.507 442.378 462.034 436.135 463.198 429.58C463.221 429.59 463.244 429.601 463.268 429.611C469.464 432.339 476.293 433.5 483.035 433.844C490.097 434.206 497.951 433.95 504.62 431.491C521.709 425.189 528.181 403.849 521.129 387.824C520.91 387.307 520.672 386.8 520.423 386.306Z" fill="#A7CAF0" stroke="black" stroke-width="1.293" stroke-miterlimit="10"/>
<path d="M398.432 420.025C397.71 433.927 409.963 447.162 423.878 447.514" stroke="black" stroke-width="1.293" stroke-miterlimit="10"/>
<path d="M360.228 392.97C353.845 393.371 347.365 395.502 342.821 399.999C338.278 404.498 336.069 411.62 338.415 417.568" stroke="black" stroke-width="1.293" stroke-miterlimit="10"/>
<path d="M404.898 348.62C396.264 354.526 390.859 364.889 390.962 375.351" stroke="black" stroke-width="1.293" stroke-miterlimit="10"/>
<path d="M317.474 313.166C314.443 311.307 310.815 310.241 306.726 310.205C306.734 310.05 306.747 309.895 306.75 309.742C306.819 306.093 305.803 302.667 304.122 299.447C300.993 293.455 294.846 289.085 288.293 287.621C281.813 286.173 275.221 287.409 269.547 290.712C266.374 285.387 261.28 281.156 255.379 279.17C238.585 273.515 217.411 285.467 217.636 304.192C217.623 303.215 208.952 302.98 208.039 303.008C204.37 303.127 200.721 303.874 197.302 305.209C190.711 307.784 186.056 312.527 182.601 318.757C175.914 330.818 179.927 347.87 193.741 352.789C203.884 356.399 215.999 353.82 225.073 348.511C228.96 357.226 238.562 362.765 247.983 363.779C255.513 364.589 263.543 362.97 269.379 357.943C270.238 357.203 271.029 356.378 271.753 355.488C273.354 357.084 275.731 358.354 277.083 358.995C280.996 360.852 285.301 361.697 289.617 361.902C297.693 362.287 306.468 360.888 313.613 356.981C321.102 352.887 326.088 345.419 327.298 337.011C328.754 326.9 324.875 317.704 317.474 313.166Z" fill="#A7CAF0" stroke="black" stroke-width="1.293" stroke-miterlimit="10"/>
<path d="M244.076 284.112C235.858 284.438 228.146 290.316 225.653 298.154L244.076 284.112Z" fill="#9DD1C9"/>
<path d="M244.076 284.112C235.858 284.438 228.146 290.316 225.653 298.154" stroke="black" stroke-width="1.293" stroke-miterlimit="10"/>
<path d="M206.893 310.72C199.652 311.281 192.96 316.38 190.498 323.213L206.893 310.72Z" fill="#9DD1C9"/>
<path d="M206.893 310.72C199.652 311.281 192.96 316.38 190.498 323.213" stroke="black" stroke-width="1.293" stroke-miterlimit="10"/>
<path d="M293.843 295.271C289.571 293.287 284.515 293.06 280.083 294.65L293.843 295.271Z" fill="#9DD1C9"/>
<path d="M293.843 295.271C289.571 293.287 284.515 293.06 280.083 294.65" stroke="black" stroke-width="1.293" stroke-miterlimit="10"/>
<path d="M922.798 1108.52H558.464C546.837 1108.52 537.414 1099.1 537.414 1087.47V278.05C537.414 266.423 546.837 257 558.464 257H922.795C934.422 257 943.845 266.423 943.845 278.05V1087.48C943.848 1099.1 934.422 1108.52 922.798 1108.52Z" fill="black"/>
<path d="M899.381 1108.52H535.05C523.423 1108.52 514 1099.1 514 1087.47V278.05C514 266.423 523.423 257 535.05 257H899.381C911.008 257 920.431 266.423 920.431 278.05V1087.48C920.431 1099.1 911.008 1108.52 899.381 1108.52Z" fill="white" stroke="#222221" stroke-width="1.293" stroke-miterlimit="10"/>
<path d="M920.431 303.22H514V1062.3H920.431V303.22Z" fill="#7696EA" stroke="black" stroke-width="1.293" stroke-miterlimit="10"/>
<path d="M938.79 487.57H938.498C932.832 487.57 928.236 482.975 928.236 477.309V418.235C928.236 412.569 932.829 407.973 938.498 407.973H938.79C944.456 407.973 949.051 412.566 949.051 418.235V477.309C949.051 482.978 944.458 487.57 938.79 487.57Z" fill="#7696EA" stroke="black" stroke-width="1.293" stroke-miterlimit="10"/>
<path d="M938.79 572.127H938.498C932.832 572.127 928.236 567.532 928.236 561.866V502.792C928.236 497.126 932.829 492.53 938.498 492.53H938.79C944.456 492.53 949.051 497.126 949.051 502.792V561.866C949.051 567.532 944.458 572.127 938.79 572.127Z" fill="#7696EA" stroke="black" stroke-width="1.293" stroke-miterlimit="10"/>
<path d="M938.79 996.12H938.498C932.832 996.12 928.236 991.528 928.236 985.859V937.19C928.236 931.525 932.829 926.929 938.498 926.929H938.79C944.456 926.929 949.051 931.525 949.051 937.19V985.859C949.051 991.528 944.458 996.12 938.79 996.12Z" fill="#9DD1C9" stroke="black" stroke-width="1.293" stroke-miterlimit="10"/>
<path d="M643.927 406.06H536.026V499.722H643.927V406.06Z" fill="#7696EA" stroke="black" stroke-width="1.293" stroke-miterlimit="10"/>
<path d="M771.446 406.06H663.545V499.722H771.446V406.06Z" fill="#7696EA" stroke="black" stroke-width="1.293" stroke-miterlimit="10"/>
<path d="M898.967 406.06H791.066V499.722H898.967V406.06Z" fill="white" stroke="#222221" stroke-width="1.293" stroke-miterlimit="10"/>
<path d="M641.975 519.233H534.074V612.896H641.975V519.233Z" fill="white" stroke="#222221" stroke-width="1.293" stroke-miterlimit="10"/>
<path d="M769.497 519.233H661.596V612.896H769.497V519.233Z" fill="#7696EA" stroke="black" stroke-width="1.293" stroke-miterlimit="10"/>
<path d="M897.015 519.233H789.114V612.896H897.015V519.233Z" fill="#2842F7" stroke="black" stroke-width="1.293" stroke-miterlimit="10"/>
<path d="M640.026 632.41H532.125V726.072H640.026V632.41Z" fill="#7696EA" stroke="black" stroke-width="1.293" stroke-miterlimit="10"/>
<path d="M745.607 632.41H659.644V726.072H745.607V632.41Z" fill="#7696EA" stroke="black" stroke-width="1.293" stroke-miterlimit="10"/>
<path d="M895.065 632.41H763.083V726.072H895.065V632.41Z" fill="#7696EA" stroke="black" stroke-width="1.293" stroke-miterlimit="10"/>
<path d="M750.078 748.78H532.125V914.625H750.078V748.78Z" fill="white" stroke="#222221" stroke-width="1.293" stroke-miterlimit="10"/>
<mask id="mask0_388_7986" style="mask-type:luminance" maskUnits="userSpaceOnUse" x="532" y="748" width="219" height="167">
<path d="M750.078 748.78H532.125V914.625H750.078V748.78Z" fill="white"/>
</mask>
<g mask="url(#mask0_388_7986)">
<path d="M466.857 900.614C488.068 880.055 509.757 859.153 536.307 846.21C562.858 833.267 595.576 829.38 621.567 843.414C649.851 858.685 664.071 890.927 673.637 921.612C676.996 932.385 665.248 938.266 656.486 945.38C647.725 952.494 637.184 957.043 626.584 960.914C603.041 969.513 578.014 975.241 553.015 973.438C528.016 971.633 502.963 961.664 486.371 942.877" fill="#F7F0E3"/>
<path d="M466.857 900.614C488.068 880.055 509.757 859.153 536.307 846.21C562.858 833.267 595.576 829.38 621.567 843.414C649.851 858.685 664.071 890.927 673.637 921.612C676.996 932.385 665.248 938.266 656.486 945.38C647.725 952.494 637.184 957.043 626.584 960.914C603.041 969.513 578.014 975.241 553.015 973.438C528.016 971.633 502.963 961.664 486.371 942.877" stroke="black" stroke-width="1.293" stroke-miterlimit="10"/>
</g>
<mask id="mask1_388_7986" style="mask-type:luminance" maskUnits="userSpaceOnUse" x="532" y="748" width="219" height="167">
<path d="M750.078 748.78H532.125V914.625H750.078V748.78Z" fill="white"/>
</mask>
<g mask="url(#mask1_388_7986)">
<path d="M784.382 924.377C780.353 915.61 776.324 906.846 772.295 898.08C761.356 874.283 748.17 848.312 723.668 839.065C709.028 833.541 692.429 835.149 677.756 840.583C663.083 846.016 650.024 855.012 637.469 864.348C602.927 890.037 570.848 919.042 541.82 950.829" fill="#FFFBFB"/>
<path d="M784.382 924.377C780.353 915.61 776.324 906.846 772.295 898.08C761.356 874.283 748.17 848.312 723.668 839.065C709.028 833.541 692.429 835.149 677.756 840.583C663.083 846.016 650.024 855.012 637.469 864.348C602.927 890.037 570.848 919.042 541.82 950.829" stroke="#222221" stroke-width="1.293" stroke-miterlimit="10"/>
</g>
<path d="M750.078 748.78H532.125V914.625H750.078V748.78Z" stroke="#222221" stroke-width="1.293" stroke-miterlimit="10"/>
<path d="M889.241 370.937H549.392V335.813H889.241C892.458 335.813 895.065 338.42 895.065 341.637V365.113C895.065 368.33 892.458 370.937 889.241 370.937Z" fill="#7696EA" stroke="black" stroke-width="1.293" stroke-miterlimit="10"/>
<path d="M601.66 370.937H541.142C538.319 370.937 536.027 368.648 536.027 365.824V340.929C536.027 338.105 538.316 335.813 541.142 335.813H601.66V370.937Z" fill="white" stroke="#222221" stroke-width="1.293" stroke-miterlimit="10"/>
<path d="M573.103 351.097C573.103 356.664 568.591 361.18 563.02 361.18C557.453 361.18 552.938 356.667 552.938 351.097C552.938 345.526 557.45 341.014 563.02 341.014C568.588 341.017 573.103 345.529 573.103 351.097Z" fill="white" stroke="#222221" stroke-width="1.293" stroke-miterlimit="10"/>
<path d="M578.955 365.082L570.499 357.926" stroke="#222221" stroke-width="1.293" stroke-miterlimit="10"/>
<path d="M772.768 777.807H882.905" stroke="black" stroke-width="1.293" stroke-miterlimit="10"/>
<path d="M772.768 795.568H882.905" stroke="black" stroke-width="1.293" stroke-miterlimit="10"/>
<path d="M772.768 813.326H882.905" stroke="black" stroke-width="1.293" stroke-miterlimit="10"/>
<path d="M772.768 831.084H867.886" stroke="black" stroke-width="1.293" stroke-miterlimit="10"/>
<path d="M772.768 848.842H882.905" stroke="black" stroke-width="1.293" stroke-miterlimit="10"/>
<path d="M772.768 866.603H862.044" stroke="black" stroke-width="1.293" stroke-miterlimit="10"/>
<path d="M1203.39 547.864C1203.21 546.573 1202.88 545.311 1202.38 544.127C1201.3 541.551 1199.65 539.844 1197.46 538.417C1187.49 531.905 1176.66 533.369 1166.63 538.482C1161.98 540.853 1157.1 542.203 1152.49 544.957C1147.11 548.174 1142.03 552.009 1137.31 556.34C1123.19 569.325 1111.8 587.344 1108.42 607.678C1108.25 608.655 1108.11 609.638 1107.99 610.623C1108.44 607.062 1114.6 601.559 1116.88 599.255C1120.38 595.723 1124.26 592.663 1128.42 590.171C1137.54 584.696 1147.38 582.079 1157.69 581.132C1167.68 580.214 1177.77 580.052 1187.09 575.335C1195.57 571.042 1202.93 562.387 1203.55 552.019C1203.63 550.638 1203.59 549.234 1203.39 547.864Z" fill="#94E261" stroke="black" stroke-width="1.293" stroke-miterlimit="10"/>
<path d="M1159.49 562.182C1093.66 590.093 1112.08 622.387 1091.85 673.36" stroke="black" stroke-width="1.293" stroke-miterlimit="10"/>
<path d="M1116.71 463.808C1112.07 458.259 1105.33 454.755 1098.49 453.909C1081.55 451.809 1064.25 466.006 1061 484.675C1060.25 489.009 1060.17 493.451 1060.1 497.866C1059.22 550.336 1057.6 607.988 1077.42 656.791C1081.1 645.581 1083.78 632.263 1089.41 622.11C1094.4 613.119 1100.22 605.032 1104.27 595.159C1113.03 575.019 1118.24 553.173 1120.96 531.047C1123.14 513.356 1127.43 488.38 1121.13 471.411C1120.08 468.574 1118.56 466.027 1116.71 463.808ZM1089.54 489.942C1091.47 503.814 1076.09 491.253 1077.94 482.153C1082.05 475.505 1088.92 480.94 1089.54 489.942Z" fill="#94E261" stroke="black" stroke-width="1.293" stroke-miterlimit="10"/>
<path d="M1091.4 527.742L1072.99 693.947" stroke="#1C0C03" stroke-width="1.293" stroke-miterlimit="10"/>
<path d="M1055.88 588.345C1051.71 571.993 1040.91 558.66 1025.25 556.322C1019.73 555.497 1014.11 555.36 1008.68 553.93C1003.44 552.547 998.273 549.953 992.905 550.496C987.97 550.998 983.406 554.261 980.59 558.807C976.021 566.183 975.679 575.885 979.987 583.359C982.162 587.132 985.705 589.64 989.302 591.647C994.909 594.776 1000.93 596.979 1007.11 598.161C1016.63 599.982 1028.25 598.65 1037.22 602.958C1045.52 606.943 1051.65 620.153 1054.05 629.235C1055 632.832 1056 635.42 1055.7 641.073C1055.21 637.993 1056.91 632.356 1057.18 629.072C1057.55 624.743 1057.88 620.403 1058.05 616.059C1058.37 607.833 1058.19 599.49 1056.58 591.425C1056.37 590.388 1056.14 589.361 1055.88 588.345Z" fill="#94E261" stroke="black" stroke-width="1.293" stroke-miterlimit="10"/>
<path d="M1054.59 670.463C1054.54 660.215 1056.9 627.859 1055.23 617.779C1053.65 608.275 1051.28 598.702 1046.3 590.788C1041.32 582.878 1033.33 576.816 1024.67 576.767" stroke="#1C0C03" stroke-width="1.293" stroke-miterlimit="10"/>
<path d="M1039.75 666.142H1108.18L1104.2 696.877C1102.04 713.546 1089.23 725.915 1074.13 725.915C1059.17 725.915 1046.43 713.761 1044.12 697.272L1039.75 666.142Z" fill="#F4C2C9" stroke="black" stroke-width="1.293" stroke-miterlimit="10"/>
<path d="M1021.11 1109.41V725.915H1156.73V1109.41" stroke="#222221" stroke-width="1.293" stroke-miterlimit="10"/>
<path d="M1011.94 788.457H1167.73" stroke="#222221" stroke-width="1.293" stroke-miterlimit="10"/>
<path d="M1011.94 850.839H1167.73" stroke="#222221" stroke-width="1.293" stroke-miterlimit="10"/>
<path d="M1011.94 913.219H1167.73" stroke="#222221" stroke-width="1.293" stroke-miterlimit="10"/>
<path d="M1011.94 975.598H1167.73" stroke="#222221" stroke-width="1.293" stroke-miterlimit="10"/>
<path d="M1011.94 1037.98H1167.73" stroke="#222221" stroke-width="1.293" stroke-miterlimit="10"/>
<path d="M782.735 1188.92C783.218 1189.19 783.715 1189.44 784.209 1189.68H858.642C867.925 1184.23 863.803 1165.81 863.353 1157.05C862.815 1146.62 862.391 1131.71 849.624 1129.99C846.141 1129.52 842.272 1129.88 839.658 1132.22C836.612 1134.96 836.141 1139.48 835.872 1143.56L835.052 1156.11C834.928 1157.99 834.807 1159.88 834.682 1161.76C824.442 1163.68 814.183 1165.6 804.16 1168.44C794.716 1171.12 784.411 1175.66 781.168 1184.92C780.909 1185.67 780.7 1186.49 780.974 1187.23C781.261 1188.01 782.011 1188.51 782.735 1188.92Z" fill="black"/>
<path d="M1130.77 1187.47C1130.73 1187.1 1130.69 1186.72 1130.64 1186.35C1130.6 1186.01 1130.55 1185.65 1130.31 1185.41C1130.05 1185.16 1129.66 1185.12 1129.31 1185.1C1123.49 1184.73 1117.68 1184.36 1111.86 1183.99C1108.07 1183.75 1103.72 1183.19 1101.63 1180.02C1100.65 1178.53 1100.37 1176.7 1100.22 1174.93C1099.68 1168.44 1100.3 1154.53 1108.13 1151.85C1109.44 1151.4 1110.88 1151.75 1112.22 1152.11C1127.4 1156.1 1142.58 1160.1 1157.76 1164.1C1159.74 1164.62 1161.83 1165.21 1163.23 1166.71C1165.93 1169.62 1164.74 1174.27 1163.38 1178.01C1159.01 1190.06 1155.84 1207.92 1144.62 1215.79C1140.41 1218.74 1112.89 1228.41 1114.64 1216.47C1115.08 1213.48 1117.29 1211.07 1119.67 1209.22C1122.05 1207.37 1124.73 1205.85 1126.76 1203.63C1131.35 1198.61 1131.42 1193.58 1130.77 1187.47Z" fill="black"/>
<path d="M782.489 926.901C777.076 927.755 771.93 928.078 765.832 927.209C759.786 926.345 753.495 925.474 747.671 927.32C741.847 929.167 736.675 934.61 737.285 940.69C737.49 942.707 738.302 944.626 739.375 946.348C747.629 959.586 770.247 959.283 782.145 951.895C784.131 950.662 785.954 949.169 788.01 948.057C791.902 945.958 796.417 945.334 800.487 943.604C804.558 941.874 808.47 938.381 808.447 933.959C808.426 930.17 805.377 926.891 801.819 925.593C798.261 924.295 794.315 924.626 790.604 925.383C787.749 925.957 785.088 926.49 782.489 926.901Z" fill="white" stroke="#222221" stroke-width="1.293" stroke-miterlimit="10"/>
<path d="M1050.52 1000.21C1046.84 992.568 1034.68 988.024 1027.21 985.402C1000.33 975.973 971.733 972.324 943.481 969.138C931.407 967.778 919.312 966.516 907.171 965.932C896.486 965.417 885.57 964.458 874.908 964.763C870.274 964.895 865.64 965.027 861.006 965.159C857.657 965.254 854.277 965.355 851.034 966.19C846.03 967.481 842.128 967.838 838.35 971.864C829.651 981.132 824.61 993.361 822.143 1005.83C821.838 1007.38 821.569 1008.92 821.334 1010.48C821.272 1034.49 821.419 1058.47 823.387 1082.5C825.244 1105.19 827.613 1127.83 829.995 1150.48C839.726 1150.75 849.454 1151.01 859.18 1151.35C862.397 1151.32 865.614 1151.3 868.831 1151.28C880.321 1114.84 882.296 1075.82 883.507 1037.46C916.964 1045.17 952.486 1051.34 986.877 1054.21C1012.19 1056.32 1043.39 1054.72 1051.08 1024.94C1052.05 1021.16 1052.46 1017.26 1052.58 1013.36C1052.72 1008.88 1052.46 1004.25 1050.52 1000.21Z" fill="#FEBD9D" stroke="black" stroke-width="1.293" stroke-miterlimit="10"/>
<path d="M899.355 763.559C897.912 763.996 896.519 764.57 895.207 765.336C888.952 768.99 885.756 776.419 885.037 783.627C884.416 789.843 885.347 796.207 887.721 801.985C889.097 805.331 891.016 808.558 893.87 810.782C898.078 814.056 903.682 814.734 908.983 815.292C911.533 815.561 913.139 829.419 913.664 831.669C915.161 838.103 916.803 844.418 917.773 850.969C926.41 852.011 935.57 852.975 943.465 849.319C940.62 825.933 935.955 802.771 929.529 780.104C926.733 770.241 919.542 761.351 908.649 762.121C905.523 762.341 902.332 762.657 899.355 763.559Z" fill="white" stroke="#222221" stroke-width="1.293" stroke-miterlimit="10"/>
<path d="M929.118 850.614C923.967 849.143 918.342 849.567 913.853 852.458C907.577 856.498 904.701 863.997 901.169 870.571C896.873 878.566 891.675 886.143 885.487 892.782C855.976 924.447 802.112 923.074 782.295 920.217C783.146 934.173 782.699 948.21 780.961 962.084C780.889 962.666 829.529 971.267 834.69 970.99C855.769 969.855 875.694 961.701 892.552 949.188C908.363 937.452 922.596 921.251 934.388 905.538C939.798 898.329 944.293 890.167 945.658 881.256C947.024 872.344 944.885 862.588 938.567 856.159C935.989 853.537 932.664 851.625 929.118 850.614Z" fill="#F7AD2B" stroke="black" stroke-width="1.293" stroke-miterlimit="10"/>
<path d="M974.934 1014.63C973.783 1020.18 971.888 1025.61 969.928 1030.96C959.537 1059.29 946.871 1087.29 943.548 1117.28C938.358 1164.16 987.574 1180.77 1025.22 1184.87C1046.47 1187.18 1066.94 1188.66 1088.11 1192.5C1097.97 1194.29 1109.64 1195.63 1120.31 1196.84C1124.04 1181.95 1127.44 1166.98 1130.78 1152C1131.24 1149.92 1030.61 1119.22 1020.72 1115.68C1044.23 1082.36 1072.03 1042.88 1072.03 999.945C1072.23 991.218 1070.65 982.526 1068.26 974.132C1065.2 963.398 1060.45 952.717 1054.69 942.942C1052.36 938.996 1049.82 935.184 1047.18 931.442C1021.97 949.283 992.286 959.705 963.786 971.505C964.295 972.405 964.825 973.294 965.301 974.215C970.595 984.46 976.69 995.048 975.981 1006.97C975.829 1009.56 975.459 1012.1 974.934 1014.63Z" fill="#FEBD9D" stroke="black" stroke-width="1.293" stroke-miterlimit="10"/>
<mask id="mask2_388_7986" style="mask-type:luminance" maskUnits="userSpaceOnUse" x="943" y="931" width="188" height="266">
<path d="M974.934 1014.63C973.783 1020.18 971.888 1025.61 969.928 1030.96C959.537 1059.29 946.871 1087.29 943.548 1117.28C938.358 1164.16 987.574 1180.77 1025.22 1184.87C1046.47 1187.18 1066.94 1188.66 1088.11 1192.5C1097.97 1194.29 1109.64 1195.63 1120.31 1196.84C1124.04 1181.95 1127.44 1166.98 1130.78 1152C1131.24 1149.92 1030.61 1119.22 1020.72 1115.68C1044.23 1082.36 1072.03 1042.88 1072.03 999.945C1072.23 991.218 1070.65 982.526 1068.26 974.132C1065.2 963.398 1060.45 952.717 1054.69 942.942C1052.36 938.996 1049.82 935.184 1047.18 931.442C1021.97 949.283 992.286 959.705 963.786 971.505C964.295 972.405 964.825 973.294 965.301 974.215C970.595 984.46 976.69 995.048 975.981 1006.97C975.829 1009.56 975.459 1012.1 974.934 1014.63Z" fill="white"/>
</mask>
<g mask="url(#mask2_388_7986)">
<path d="M954.851 1120.69C956.504 1121.59 957.81 1123.01 958.919 1124.53C961.994 1128.73 963.812 1133.97 963.38 1139.16C962.945 1144.35 960.088 1149.41 955.549 1151.96C951.011 1154.51 944.856 1154.19 940.954 1150.74C938.903 1148.93 937.574 1146.46 936.372 1144C930.582 1132.2 938.999 1112.09 954.851 1120.69Z" fill="#FEBD9D"/>
</g>
<path d="M857.687 1025.53L719.184 912.329" stroke="black" stroke-width="18.102" stroke-miterlimit="10"/>
<path d="M816.655 962.342C816.839 959.793 816.208 957.188 815.046 954.9C814.39 953.607 813.526 952.358 812.282 951.616C810.88 950.78 809.176 950.68 807.544 950.61C801.333 950.341 795.119 950.175 788.902 950.121C783.347 950.072 779.003 948.999 774.7 945.171C772.463 943.18 771.493 940.449 769.362 938.414C766.833 935.999 764.035 933.868 761.035 932.073C759.223 930.987 757.138 929.994 755.069 930.426C754.221 930.604 753.334 931.14 753.195 931.996C753.104 932.557 753.36 933.115 753.645 933.609C755.08 936.089 757.386 937.923 759.298 940.056C760.422 941.313 763.926 945.973 762.07 947.628C760.267 949.234 755.861 946.229 754.57 945.257C748.421 940.62 741.832 936.56 734.924 933.152C734.143 932.766 733.215 932.389 732.442 932.79C731.586 933.234 731.415 934.388 731.521 935.345C731.837 938.212 733.598 940.687 734.604 943.39C736.409 948.236 736.005 954.031 738.281 958.707C740.311 962.88 746.918 965.311 751.027 966.602C756.083 968.189 761.369 968.88 766.595 969.756C772.049 970.672 777.475 971.787 782.97 972.428C788.429 973.067 793.59 972.309 798.993 972.43C805.525 972.578 814.659 971.962 816.417 964.003C816.533 963.457 816.614 962.901 816.655 962.342Z" fill="white" stroke="#222221" stroke-width="1.293" stroke-miterlimit="10"/>
<path d="M1022.63 883.441C1010.61 869.327 997.443 856.19 983.279 844.224C963.621 827.617 927.649 813.156 907.525 838.152C900.383 847.025 897.401 858.442 894.6 869.484C892.482 877.842 890.362 886.2 888.244 894.561C884.06 911.065 877.199 920.842 861.869 928.538C856.62 931.176 851.595 933.4 845.784 935.143C827.53 940.618 808.748 943.116 789.774 944.478C789.862 955.151 789.893 965.823 789.567 976.488C821.14 976.94 850.638 982.068 879.992 968.195C900.093 958.694 923.119 942.746 933.833 922.8C942.077 945.402 952.165 967.328 963.965 988.296C1000.22 981.559 1034.63 967.445 1068.74 953.421C1056.34 928.311 1040.79 904.76 1022.63 883.441Z" fill="#F7AD2B" stroke="black" stroke-width="1.293" stroke-miterlimit="10"/>
<path d="M880.01 764.056C878.503 765.416 877.14 766.939 875.966 768.597C874.484 770.689 873.258 773.254 873.856 775.747C874.833 779.828 880.044 781.317 884.179 780.611C889.17 779.758 897.838 774.022 900.864 780.663C901.627 782.334 901.624 784.281 902.418 785.938C905.159 791.653 915.09 790.573 917.665 796.365C918.495 798.235 918.294 800.373 918.42 802.416C918.886 810.04 924.872 808.155 930.401 809.316C934.391 810.154 937.239 811.855 937.327 816.029C937.471 822.916 935.012 829.572 935.007 836.505C935.002 844.372 936.706 852.277 940.435 859.236C945.335 868.38 953.611 875.207 963.445 878.403C973.867 881.791 983.585 888.318 995.095 885.114C999.246 883.958 1003.01 881.688 1006.4 879.021C1011.51 874.99 1015.95 869.849 1018.07 863.692C1018.57 862.264 1018.93 860.803 1019.16 859.326C1020.3 852.163 1018.51 844.568 1014.95 838.176C1013.05 834.778 1010.62 831.594 1007.39 829.43C1002.85 826.381 997.066 825.61 991.625 826.226C989.305 826.487 986.991 826.986 984.658 826.875C982.326 826.764 979.887 825.933 978.493 824.061C975.786 820.423 978.214 815.243 977.513 810.761C976.965 807.265 974.384 804.271 971.182 802.766C967.981 801.26 964.244 801.131 960.794 801.92C956.675 802.864 952.196 805.116 948.42 802.359C944.001 799.132 944.769 794.252 945.617 789.6C947.301 780.366 946.003 770.345 940.704 762.595C932.739 750.945 916.414 744.231 903.406 751.617C901.05 752.954 898.914 754.671 896.486 755.874C893.858 757.172 890.967 757.829 888.247 758.917C885.224 760.122 882.426 761.878 880.01 764.056Z" fill="black"/>
<path d="M912.666 822.678C912.777 823.05 912.849 823.415 912.948 823.787C914.936 820.356 916.79 816.841 918.652 813.329C918.745 812.854 918.826 812.378 918.872 811.907C916.211 813.079 911.554 814.338 908.725 814.798C911.114 816.213 912.063 819 912.542 821.615C912.606 821.967 912.617 822.323 912.666 822.678Z" fill="black"/>
<path opacity="0.57" d="M646.22 943.286C703.164 943.286 749.326 897.124 749.326 840.18C749.326 783.236 703.164 737.073 646.22 737.073C589.276 737.073 543.113 783.236 543.113 840.18C543.113 897.124 589.276 943.286 646.22 943.286Z" fill="#A7CAF0" stroke="black" stroke-width="7.758" stroke-miterlimit="10"/>
<path d="M932.994 924.633C935.88 917.765 937.24 910.263 936.951 902.82" stroke="black" stroke-width="1.293" stroke-miterlimit="10"/>
<path d="M907.419 791.772C906.344 788.615 907.792 785.931 910.442 784.255C911.588 783.531 912.93 783.047 914.28 783.148C920.618 783.616 924.376 791.266 921.247 796.515C920.034 798.55 917.924 800.092 915.571 800.368" fill="white"/>
<path d="M907.419 791.772C906.344 788.615 907.792 785.931 910.442 784.255C911.588 783.531 912.93 783.047 914.28 783.148C920.618 783.616 924.376 791.266 921.247 796.515C920.034 798.55 917.924 800.092 915.571 800.368" stroke="#222221" stroke-width="1.293" stroke-miterlimit="10"/>
<path d="M914.508 786.815C912.969 787.356 911.694 788.599 911.118 790.125C910.541 791.651 910.673 793.427 911.469 794.852" fill="white"/>
<path d="M914.508 786.815C912.969 787.356 911.694 788.599 911.118 790.125C910.541 791.651 910.673 793.427 911.469 794.852" stroke="#222221" stroke-width="1.293" stroke-miterlimit="10"/>
<path d="M646.22 943.286C703.164 943.286 749.326 897.124 749.326 840.18C749.326 783.236 703.164 737.073 646.22 737.073C589.276 737.073 543.113 783.236 543.113 840.18C543.113 897.124 589.276 943.286 646.22 943.286Z" stroke="black" stroke-width="7.758" stroke-miterlimit="10"/>
<path d="M1011.33 989.058C1012.83 996.056 1017.12 1002.41 1023.04 1006.43C1028.97 1010.45 1036.46 1012.08 1043.52 1010.9" stroke="black" stroke-width="1.293" stroke-miterlimit="10"/>
<path d="M883.4 1037.7C879.919 1033.35 876.92 1028.6 874.479 1023.59" stroke="black" stroke-width="1.293" stroke-miterlimit="10"/>
<path d="M1020.37 1116.25C1015.75 1118.11 1010.61 1118.66 1005.71 1117.8" stroke="black" stroke-width="1.293" stroke-miterlimit="10"/>
<path d="M656.774 926.709C704.577 920.872 738.597 877.388 732.76 829.585C726.923 781.782 683.439 747.762 635.637 753.599C587.834 759.436 553.814 802.92 559.651 850.722C565.488 898.525 608.971 932.545 656.774 926.709Z" stroke="black" stroke-width="1.293" stroke-miterlimit="10"/>
<path d="M635.627 245.622C635.627 207.458 692.273 176.516 749.949 176.516C807.624 176.516 861.799 207.455 861.799 245.622C861.799 281.249 813.634 310.57 761.299 314.314C760.251 321.407 758.4 328.325 755.276 334.857C747.58 350.942 730.254 364.045 711.937 361.966C726.362 355.907 734.777 340.73 736.621 325.724C737.094 321.878 737.202 318.028 737.052 314.182C685.464 309.977 635.627 280.895 635.627 245.622Z" fill="#6FBAFF" stroke="#1C85E8" stroke-width="1.293" stroke-miterlimit="10"/>
<path d="M832.881 263.45C823.303 269.894 809.507 270.194 799.62 264.174C789.734 258.154 784.386 246.199 786.724 235.345C787.096 233.618 787.823 231.722 789.535 231.004C792.811 229.628 795.715 233.566 796.584 236.84C799.439 247.59 796.734 261.105 786.098 265.873C774.981 270.856 761.347 263.215 755.676 252.935C752.708 247.554 750.688 240.51 751.753 234.412C752.152 232.126 753.592 229.716 755.966 229.286C757.606 228.989 759.312 229.747 760.45 230.918C761.588 232.09 762.234 233.623 762.692 235.162C765.56 244.805 761.115 259.028 751.841 264.332C733.99 274.541 717.51 254.72 716.863 239.025C716.791 237.254 716.884 235.413 717.714 233.83C718.541 232.245 720.266 230.98 722.108 231.125C724.838 231.34 726.346 234.254 726.961 236.814C729.276 246.437 727.502 263.864 715.487 266.98C705.578 269.548 697.349 262.439 693.594 254.236C691.862 250.45 690.388 245.493 691.086 241.314C691.939 236.212 697.54 233.745 698.66 240.339C699.715 246.548 698.011 256.077 693.641 260.869C688.983 265.974 681.629 269.32 674.538 267.326" stroke="black" stroke-width="1.293" stroke-miterlimit="10"/>
<path d="M663.579 990.693C662.664 989.307 661.586 988.014 660.339 986.845C649.778 976.943 632.894 979.757 619.105 984.171C588.257 994.044 553.387 1011.7 535.368 1039.57C515.552 1070.22 505.011 1106.71 494.874 1141.42C493.475 1146.21 489.193 1156.01 489.43 1162.94C494.365 1162.68 499.327 1162.52 504.264 1162.76C507.359 1158.6 510.131 1153.79 511.936 1151.29C533.051 1122.05 559.033 1096.01 589.803 1076.97C617.091 1060.09 648.164 1052.64 663.861 1021.6C668.733 1011.98 669.362 999.439 663.579 990.693Z" fill="#94E261" stroke="black" stroke-width="1.293" stroke-miterlimit="10"/>
<path d="M478.511 1162.72H484.03C484.02 1162.64 484.025 1162.56 484.014 1162.48C483.776 1160.72 483.267 1159.02 482.995 1157.1C482.509 1153.67 482 1150.3 481.183 1146.9C479.401 1139.5 477.05 1132.25 474.886 1124.95C471.426 1113.28 467.482 1101.68 461.568 1091C455.543 1080.12 447.244 1070.18 436.373 1064.14C410.269 1049.63 363.127 1058.03 350.44 1087.55C346.256 1097.29 347.13 1109.64 354.466 1117.29C357.988 1120.96 362.692 1123.32 367.564 1124.79C374.166 1126.77 381.229 1127.21 388.027 1126.06C404.611 1123.24 423.753 1118.26 440.857 1122.78C442.579 1123.24 444.265 1123.83 445.897 1124.54C454.707 1128.4 461.565 1135.58 467.379 1143.05C472.127 1149.14 476.763 1155.28 478.511 1162.72Z" fill="#94E261" stroke="black" stroke-width="1.293" stroke-miterlimit="10"/>
<path d="M471.886 1094.51C474.753 1105.53 476.716 1116.79 478.441 1128.05C479.297 1133.63 484.565 1153.52 484.19 1163.2H484.772C486.07 1163.12 488.927 1162.96 489.432 1162.94C494.319 1154.11 493.142 1144.1 495.095 1134.12C502.672 1095.38 515.775 1052.91 506.357 1013.62C500.913 990.895 488.674 969.019 469.168 956.159C449.661 943.299 422.327 941.199 403.191 954.603C399.552 957.15 396.198 960.271 394.145 964.207C389.069 973.946 393.09 985.978 398.929 995.28C403.923 1003.23 410.212 1010.37 417.471 1016.33C425.056 1022.56 433.672 1027.49 440.949 1034.07C449.553 1041.86 455.863 1051.49 460.732 1061.92C465.607 1072.35 469.038 1083.57 471.886 1094.51Z" fill="#94E261" stroke="black" stroke-width="1.293" stroke-miterlimit="10"/>
<path d="M497.094 1160.97C520.544 1114.16 544.312 1062.45 589.45 1032.82C601.829 1024.7 614.987 1017.85 628.113 1011.02" stroke="#222221" stroke-width="1.293" stroke-miterlimit="10"/>
<path d="M481.445 1161.92C469.759 1134.86 458.509 1112.09 433.536 1100.34C417.377 1092.99 399.748 1094.46 384.131 1095.96" stroke="#222221" stroke-width="1.293" stroke-miterlimit="10"/>
<path d="M450.052 997.328C498.172 1037.17 486.419 1104.75 487.329 1161.01" stroke="#222221" stroke-width="1.293" stroke-miterlimit="10"/>
<path d="M449.465 1163H556.81" stroke="#222221" stroke-width="1.293" stroke-miterlimit="10"/>
<path d="M357.51 501.013C353.871 495.968 348.673 492.153 343.072 491.225C333.491 489.637 322.48 492.332 317.106 500.421C314.939 503.682 313.475 507.912 309.834 509.345C308.076 510.036 306.121 509.911 304.233 510.002C295.966 510.4 288.084 515.497 284.329 522.875C282.014 527.421 282.089 531.753 281.104 536.449C280.075 541.36 276.059 545.456 272.221 548.394C267.584 551.942 262.288 554.657 258.107 558.733C251.763 564.913 248.52 573.881 248.412 582.738C248.321 590.01 249.976 601.632 255.492 606.967C260.687 611.994 269.159 615.583 276.033 617.373C283.307 619.266 291.709 619.752 298.658 616.418C305.598 613.09 313.341 609.987 319.074 604.58C334.313 590.207 338.469 566.889 339.757 546.961C339.966 543.713 348.317 537.876 350.618 535.751C354.122 532.516 357.916 529.252 360.354 525.089C364.673 517.703 362.643 508.132 357.51 501.013Z" fill="black"/>
<path d="M418.02 1014.06C412.524 1067.55 404.65 1120.73 396.758 1174.73C383.584 1174.06 378.914 1162.9 376.801 1149.13C368.976 1098.14 367.43 1036.88 362.03 985.322C358.743 953.935 335.968 777.045 386.664 779.611C405.24 780.549 416.463 800.699 420.551 818.845C424.888 838.098 425.354 857.99 425.421 877.726C425.578 923.837 422.643 969.058 418.02 1014.06Z" fill="white" stroke="#222221" stroke-width="1.293" stroke-miterlimit="10"/>
<path d="M295.133 1025.61C307.347 989.188 318.805 952.516 329.496 915.619C334.919 896.904 341.787 865.523 346.45 846.598C349.876 832.699 352.154 828.664 351.011 814.356C350.347 806.034 348.009 797.534 342.509 791.255C334.267 781.845 319.938 779.22 308.027 783.04C296.116 786.859 286.568 796.22 280.261 807.022C273.951 817.824 270.545 830.05 267.735 842.238C258.585 881.918 259.4 921.548 253.858 961.494C248.184 1002.4 238.945 1042.7 232.28 1083.44C228.872 1104.29 227.755 1130.56 224.626 1151.45C223.638 1158.04 223.196 1160.52 231.947 1162.71C240.072 1164.74 242.539 1165.1 245.461 1159.33C266.26 1118.27 280.502 1069.24 295.133 1025.61Z" fill="white" stroke="#222221" stroke-width="1.293" stroke-miterlimit="10"/>
<path d="M291.989 859.606C313.241 860.922 334.562 861.959 355.848 862.295C374.332 862.587 392.861 862.019 411.237 859.758C419.559 858.734 427.79 857.296 435.926 855.486C434.599 847.423 432.856 839.45 432.489 836.533C428.941 808.338 424.501 780.27 419.176 752.393C416.626 739.044 413.859 725.685 409.352 712.933C405.804 702.894 400.976 692.995 393.197 686.168C386.781 680.538 377.653 676.988 367.935 675.428C354.265 673.235 339.434 674.983 329.354 680.419C317.743 686.683 308.601 697.156 301.012 708.4C272.157 751.144 263.636 804.583 252.286 856.192C265.488 857.695 278.733 858.786 291.989 859.606Z" fill="#DEA600" stroke="black" stroke-width="1.293" stroke-miterlimit="10"/>
<mask id="mask3_388_7986" style="mask-type:luminance" maskUnits="userSpaceOnUse" x="252" y="674" width="184" height="189">
<path d="M291.989 859.606C313.241 860.922 334.562 861.959 355.848 862.295C374.332 862.587 392.861 862.019 411.237 859.758C419.559 858.734 427.79 857.296 435.926 855.486C434.599 847.423 432.856 839.45 432.489 836.533C428.941 808.338 424.501 780.27 419.176 752.393C416.626 739.044 413.859 725.685 409.352 712.933C405.804 702.894 400.976 692.995 393.197 686.168C386.781 680.538 377.653 676.988 367.935 675.428C354.265 673.235 339.434 674.983 329.354 680.419C317.743 686.683 308.601 697.156 301.012 708.4C272.157 751.144 263.636 804.583 252.286 856.192C265.488 857.695 278.733 858.786 291.989 859.606Z" fill="white"/>
</mask>
<g mask="url(#mask3_388_7986)">
<path d="M374.428 799.494C376.326 803.415 381.692 803.805 386.031 803.404C393.466 802.716 400.839 801.338 408.02 799.287C417.578 796.559 433.518 790.94 436.107 779.804C438.126 771.121 432.616 767.542 424.946 767.337C413.653 767.035 366.942 784.043 374.428 799.494Z" fill="#050504"/>
<path d="M291.575 772.768C293.856 771.175 296.256 769.755 298.948 769.137C302.519 768.318 306.768 769.285 308.725 772.38C311.707 777.094 308.006 783.097 304.345 787.301C299.154 793.259 293.708 798.998 288.032 804.496C285.65 806.802 283.165 809.107 280.142 810.464C274.145 813.154 262.537 816.391 256.951 812.06C242.787 801.074 282.995 779.075 289.374 774.361C290.098 773.826 290.83 773.288 291.575 772.768Z" fill="#050504"/>
<path d="M335.537 745.641C334.826 748.033 334.117 750.425 333.406 752.814C331.699 758.555 329.985 764.343 329.47 770.309C329.204 773.383 329.281 776.588 330.546 779.404C331.808 782.22 334.477 784.573 337.559 784.71C342.85 784.945 346.199 779.274 348.317 774.423C353.585 762.357 362.811 742.894 355.449 729.809C349.649 719.504 341.911 724.185 338.997 733.994C337.844 737.878 336.69 741.759 335.537 745.641Z" fill="#050504"/>
<path d="M339.812 815.352C344.821 814.431 350.554 814.03 354.441 817.32C355.325 818.067 356.096 819.042 356.261 820.187C356.38 821.018 356.171 821.863 355.876 822.647C353.75 828.279 347.666 831.183 342.126 833.542C335.679 836.285 294.857 852.425 296.137 836.135C297.063 824.312 330.981 816.976 339.812 815.352Z" fill="#050504"/>
<path d="M393.334 830.195C394.21 828.522 395.353 826.784 397.153 826.215C399.501 825.473 401.981 827.03 403.577 828.905C407.479 833.49 408.325 839.981 407.787 845.978C407.249 851.975 405.511 857.814 404.922 863.806C404.353 869.58 405.361 883.519 397.779 885.908C391.381 887.925 389.424 881.695 388.172 876.371C384.937 862.629 386.799 842.683 393.334 830.195Z" fill="#050504"/>
<path d="M377.469 741.563C377.789 744.684 379.147 748.136 382.116 749.16C384.841 750.099 387.782 748.61 390.127 746.934C399.245 740.417 426.499 703.975 412.755 694.291C399.16 684.709 376.289 730.107 377.469 741.563Z" fill="#050504"/>
<path d="M270.034 725.674C280.342 723.872 290.867 723.3 301.309 723.973C304.539 724.182 307.857 724.537 310.714 726.055C313.572 727.572 315.892 730.523 315.752 733.756C315.617 736.856 313.264 739.512 310.492 740.906C307.72 742.3 304.56 742.667 301.475 743.016C290.272 744.275 278.744 745.512 267.872 742.522C265.816 741.956 263.732 741.203 262.198 739.724C255.4 733.174 263.9 726.748 270.034 725.674Z" fill="#050504"/>
</g>
<path d="M453.819 631.288C444.346 631.857 434.721 631.534 425.013 630.23C407.449 627.872 386.213 623.672 378.97 604.836C375.533 595.901 378.809 583.943 387.004 578.448C394.85 573.188 405.277 576.147 414.462 578.358C432.903 582.798 452.497 583.729 471.411 583.819C492.57 583.92 514.778 581.262 533.793 571.386C542.255 566.992 550.419 562.027 558.215 556.537C565.161 551.647 571.316 545.562 578.5 541.044C583.804 537.711 589.829 535.528 596.038 534.696C599.853 534.184 604.383 534.484 606.602 537.628C609.227 541.347 606.897 546.612 603.667 549.819C597.73 555.712 589.317 558.295 582.436 563.056C577.212 566.672 572.958 571.479 568.495 575.999C537.533 607.336 497.256 628.681 453.819 631.288Z" fill="white" stroke="#222221" stroke-width="1.293" stroke-miterlimit="10"/>
<path d="M349.162 563.501C349.129 563.804 349.162 564.111 349.237 564.406C349.408 564.323 349.584 564.251 349.762 564.181L349.162 563.501Z" fill="#522E97"/>
<path d="M287.854 702.325C293.638 703.285 299.361 704.138 305.206 704.663C318.001 705.811 330.696 705.814 343.522 705.933C352.452 706.016 361.376 706.46 370.308 706.422C384.497 706.354 400.536 705.579 413.399 698.736C408.635 676.328 403.872 653.918 399.108 631.51C400.109 632.34 415.193 642.806 415.1 643.209C415.1 643.209 423.65 577.178 419.14 575.645C417.016 574.923 414.932 574.036 412.853 573.199C397.888 567.178 381.919 563.685 365.811 562.839C351.097 562.068 333.918 561.104 319.506 564.375C292.159 570.584 291.376 595.588 290.551 619.625C290.253 628.265 289.995 636.905 289.754 645.547C289.415 657.766 289.121 669.985 288.826 682.204C288.795 683.644 289.009 696.398 287.854 702.325Z" fill="#7696EA" stroke="black" stroke-width="1.293" stroke-miterlimit="10"/>
<path d="M351.35 556.19C351.247 555.28 351.166 554.38 351.122 553.488C351.053 552.115 351.04 550.656 351.738 549.475C352.483 548.215 353.877 547.525 355.056 546.656C359.126 543.661 359.967 538.549 360.512 533.84C361.122 528.567 360.626 523.095 359.201 517.987C357.639 512.384 354.562 506.847 349.731 503.431C345.707 500.586 340.639 499.691 336.095 501.851C333.465 503.1 331.306 505.163 329.571 507.47C327.548 510.16 324.678 514.509 324.324 517.92C324.07 520.369 323.858 522.826 323.695 525.283C322.764 539.387 323.059 554.401 327.947 567.843C330.194 574.026 334.132 581.944 340.952 584.099C345.932 585.671 350.044 582.477 351.782 577.921C354.402 571.042 352.167 563.385 351.35 556.19Z" fill="white" stroke="#222221" stroke-width="1.293" stroke-miterlimit="10"/>
<path d="M354.622 487.085C352.892 486.679 351.076 486.575 349.315 486.756C338.221 487.897 324.319 499.443 318.038 508.365C315.488 511.988 312.948 516.718 313.871 521.318C314.298 523.449 315.387 525.192 316.949 526.679C318.537 528.189 323.572 531.404 325.539 530.113C326.564 529.441 326.545 526.772 327.466 525.764C328.943 524.145 331.371 524.077 333.041 522.725C335.503 520.726 335.449 516.865 337.458 514.414C338.552 513.079 340.161 512.288 341.736 511.582C347.616 508.947 358.521 508.251 362.387 502.87C364.932 499.329 364.182 494.057 361.247 490.832C359.504 488.911 357.153 487.677 354.622 487.085Z" fill="black"/>
<path d="M334.125 525.663C333.846 524.256 333.347 522.87 332.47 521.732C331.593 520.597 330.311 519.733 328.888 519.557C327.735 519.415 326.564 519.725 325.516 520.227C321.459 522.169 319.855 526.901 321.857 530.93C322.599 532.428 324.311 533.516 325.927 533.819C327.202 534.057 328.511 533.951 329.804 533.845" fill="white"/>
<path d="M334.125 525.663C333.846 524.256 333.347 522.87 332.47 521.732C331.593 520.597 330.311 519.733 328.888 519.557C327.735 519.415 326.564 519.725 325.516 520.227C321.459 522.169 319.855 526.901 321.857 530.93C322.599 532.428 324.311 533.516 325.927 533.819C327.202 534.057 328.511 533.951 329.804 533.845" stroke="#222221" stroke-width="1.293" stroke-miterlimit="10"/>
<path d="M356.616 529.661L343.885 533.713C345.095 536.563 355.077 541.453 356.616 529.661Z" fill="white" stroke="#222221" stroke-width="1.293" stroke-miterlimit="10"/>
<path d="M353.146 547.165C350.547 547.822 347.92 547.915 345.271 547.796C346.277 549.032 347.066 550.4 348.07 551.605C349.2 552.963 350.565 554.008 351.305 555.635C351.25 554.484 351.188 553.338 351.24 552.185C351.284 551.205 351.395 550.199 351.835 549.322C352.45 548.099 353.632 547.264 354.842 546.625C354.884 546.604 354.925 546.578 354.966 546.558C354.369 546.785 353.769 547.008 353.146 547.165Z" fill="black"/>
<path d="M353.002 523.377L379.762 527.429V515.267L353.002 519.322V523.377Z" fill="black"/>
<path d="M657.077 476.849V476.873C656.916 476.875 656.756 476.88 656.596 476.883L657.077 476.849Z" fill="#467A7C"/>
<path d="M646.531 562.43L657.077 563.661C653.263 563.586 649.772 563.144 646.531 562.43Z" fill="#467A7C"/>
<path d="M646.531 562.43L377.564 531.026C372.919 530.483 369.418 526.55 369.418 521.872C369.418 517.24 372.857 513.327 377.45 512.733L651.675 477.245C627.925 480.079 618.155 501.147 618.155 523.162C618.155 543.39 627.408 558.223 646.531 562.43Z" fill="#2842F7" stroke="black" stroke-width="1.293" stroke-miterlimit="10"/>
<path d="M658.292 561.647C681.152 561.647 699.683 543.115 699.683 520.255C699.683 497.396 681.152 478.864 658.292 478.864C635.432 478.864 616.9 497.396 616.9 520.255C616.9 543.115 635.432 561.647 658.292 561.647Z" fill="#A7CAF0" stroke="black" stroke-width="7.758" stroke-miterlimit="10"/>
<path d="M656.57 543.263C662.091 543.263 667.589 541.404 672.243 537.863C678.421 533.165 682.109 526.226 682.36 518.825C682.538 513.542 680.974 508.184 678.015 503.77C677.24 502.611 675.639 502.365 674.568 503.26L674.436 503.371C673.505 504.15 673.353 505.495 674.028 506.503C676.412 510.072 677.674 514.398 677.529 518.662C677.328 524.605 674.336 530.201 669.316 534.016C664.806 537.445 659.35 538.947 654.066 538.269C652.869 538.117 651.739 538.849 651.457 540.023L651.416 540.193C651.09 541.551 652.021 542.878 653.407 543.056C654.46 543.196 655.515 543.263 656.57 543.263Z" fill="white"/>
<mask id="mask4_388_7986" style="mask-type:luminance" maskUnits="userSpaceOnUse" x="355" y="478" width="283" height="84">
<path d="M355.435 515.267L637.058 478.903V561.608L374.894 529.862L355.435 515.267Z" fill="white"/>
</mask>
<g mask="url(#mask4_388_7986)">
<path d="M597.475 561.608V559.175C576.014 559.175 558.554 541.714 558.554 520.253C558.554 498.792 576.014 481.331 597.475 481.331V478.897C574.672 478.897 556.12 497.449 556.12 520.253C556.123 543.059 574.672 561.608 597.475 561.608Z" fill="black"/>
<path d="M535.445 554.313V551.88C518.008 551.88 503.821 537.693 503.821 520.255C503.821 502.818 518.008 488.631 535.445 488.631V486.198C516.666 486.198 501.388 501.476 501.388 520.253C501.39 539.035 516.666 554.313 535.445 554.313Z" fill="black"/>
<path d="M423.547 539.715V537.282C414.159 537.282 406.518 529.643 406.518 520.253C406.518 510.863 414.157 503.224 423.547 503.224V500.791C412.817 500.791 404.087 509.521 404.087 520.25C404.087 530.985 412.817 539.715 423.547 539.715Z" fill="black"/>
<path d="M475.848 547.013V544.579C462.434 544.579 451.521 533.666 451.521 520.253C451.521 506.839 462.434 495.926 475.848 495.926V493.493C461.092 493.493 449.088 505.497 449.088 520.25C449.088 535.011 461.092 547.013 475.848 547.013Z" fill="black"/>
</g>
<path d="M295.695 609.705C295.03 603.612 296.815 597.401 302.212 591.714C313.626 579.687 323.272 584.349 335.843 589.868C342.134 592.63 348.687 595.446 355.558 595.265C363.51 595.058 370.914 590.776 376.518 585.13C384.607 576.982 390.293 566.022 396.05 556.159C402.011 545.95 407.974 535.738 413.935 525.526C418.649 517.45 422.285 507.661 429.58 501.727C435.851 496.627 448.378 490.165 454.915 498.499C460.11 505.119 453.676 512.877 447.827 516.868C436.454 524.623 434.814 538.652 431.985 551.106C428.248 567.556 423.635 583.946 415.869 599.002C398.721 632.247 363.047 655.878 325.005 641.955C311.708 637.088 297.223 623.716 295.695 609.705Z" fill="white" stroke="#222221" stroke-width="1.293" stroke-miterlimit="10"/>
<path d="M315.994 565.218C286.711 571.225 267.716 593.32 273.592 619.578C277.225 635.819 287.898 649.041 301.735 657.675C302.984 658.454 324.231 624.921 326.121 621.678C327.357 619.56 344.28 588.65 344.28 588.65C344.28 588.65 339.408 586.91 336.969 585.772C330.711 582.849 326.044 578.226 320.582 573.995" fill="#7696EA"/>
<path d="M315.994 565.218C286.711 571.225 267.716 593.32 273.592 619.578C277.225 635.819 287.898 649.041 301.735 657.675C302.984 658.454 324.231 624.921 326.121 621.678C327.357 619.56 344.28 588.65 344.28 588.65C344.28 588.65 339.408 586.91 336.969 585.772C330.711 582.849 326.044 578.226 320.582 573.995" stroke="black" stroke-width="1.293" stroke-miterlimit="10"/>
<path d="M326.688 524.008C327.957 524.207 329.32 524.455 330.223 525.365C331.314 526.467 331.407 528.181 331.433 529.731" fill="white"/>
<path d="M326.688 524.008C327.957 524.207 329.32 524.455 330.223 525.365C331.314 526.467 331.407 528.181 331.433 529.731" stroke="#222221" stroke-width="1.293" stroke-miterlimit="10"/>
<path d="M457.883 1180.92C456.624 1179.84 455.046 1179.27 453.502 1178.71C443.249 1175.01 432.85 1171.76 422.656 1167.89C415.307 1165.1 407.314 1162.79 402.424 1156.16C402.191 1155.84 401.989 1155.57 401.803 1155.33C393.137 1156.49 384.153 1156.56 376.258 1153.38C375.702 1165.03 375.247 1176.74 376.801 1188.29C376.861 1188.73 376.949 1189.21 377.308 1189.46C377.59 1189.66 377.963 1189.66 378.309 1189.65C378.48 1189.65 378.65 1189.64 378.819 1189.64C386.439 1189.46 394.029 1189.87 401.661 1189.71C409.535 1189.54 417.404 1189.13 425.281 1189.13C432.447 1189.13 440.153 1190.16 447.161 1189.71C450.72 1189.48 464.464 1186.55 457.883 1180.92Z" fill="black"/>
<path d="M289.83 1199.04C288.384 1196.56 286.051 1194.75 283.721 1193.08C277.132 1188.34 270.101 1184.2 263.856 1179.01C257.611 1173.83 252.071 1167.41 249.633 1159.66C249.338 1158.73 249.077 1157.75 248.466 1156.99C248.254 1156.72 247.97 1156.5 247.654 1156.3C243.015 1157.71 238.324 1156.44 233.933 1153.96C230.222 1151.87 226.615 1148.77 222.606 1147C221.732 1149.66 221.66 1152.33 221.228 1155.06C220.737 1158.18 219.829 1161.29 219.04 1164.34C218.632 1165.92 213.801 1182.6 214.269 1182.78C214.911 1183.03 215.549 1183.27 216.191 1183.52C230.61 1189 245.322 1193.95 260.008 1199.05C266.778 1201.4 273.724 1204.91 280.494 1206.77C282.607 1207.35 287.838 1208.68 289.78 1207.44C292.214 1205.9 290.934 1200.94 289.83 1199.04Z" fill="black"/>
</g>
<defs>
<clipPath id="clip0_388_7986">
<rect width="1293" height="1293" fill="white"/>
</clipPath>
</defs>
</svg>
