<svg width="1441" height="1024" viewBox="0 0 1441 1024" fill="none" xmlns="http://www.w3.org/2000/svg">
<g clip-path="url(#clip0_75_17172)">
<path d="M1440.98 0H0.979492V1024H1440.98V0Z" fill="white"/>
<path d="M309.982 166.452H342.665" stroke="white" stroke-width="7.4328" stroke-miterlimit="10" stroke-linecap="round"/>
<path d="M1035.32 166H933.371C926.501 166 920.931 171.569 920.931 178.44V288.814C920.931 295.685 926.501 301.254 933.371 301.254H1035.32C1042.19 301.254 1047.76 295.685 1047.76 288.814V178.44C1047.76 171.569 1042.19 166 1035.32 166Z" fill="#1C85E8"/>
<path d="M936.38 267.665H969.062" stroke="white" stroke-width="7.4328" stroke-miterlimit="10" stroke-linecap="round"/>
<path opacity="0.4" d="M936.38 282.918H1003.92" stroke="white" stroke-width="7.4328" stroke-miterlimit="10" stroke-linecap="round"/>
<path d="M937.103 204.346H954.005C955.247 204.346 956.467 204.671 957.544 205.289C958.621 205.907 959.518 206.797 960.145 207.869L976.507 235.853C977.15 236.952 978.077 237.859 979.191 238.479C980.304 239.098 981.564 239.407 982.838 239.372C984.111 239.338 985.353 238.962 986.432 238.284C987.51 237.606 988.387 236.651 988.971 235.518L999.086 215.872C999.678 214.721 1000.57 213.755 1001.67 213.075C1002.77 212.396 1004.04 212.029 1005.33 212.015L1035.02 211.697" stroke="white" stroke-width="4" stroke-miterlimit="10" stroke-linecap="round"/>
<path opacity="0.4" d="M937.103 234.447H945.415C947.293 234.447 949.095 233.705 950.427 232.381L988.851 194.221C990.184 192.897 991.985 192.155 993.863 192.155H1005.11C1006.72 192.155 1008.28 192.699 1009.54 193.699C1010.8 194.698 1011.68 196.095 1012.04 197.66L1017.95 223.109C1018.31 224.674 1019.19 226.07 1020.45 227.07C1021.71 228.07 1023.27 228.614 1024.87 228.614H1035.02" stroke="white" stroke-width="4" stroke-miterlimit="10" stroke-linecap="round"/>
<path d="M1180.61 839.385C1180.61 839.385 1176.88 876.975 1112.11 876.975H1036.17L1136.91 798.651L1180.61 839.385Z" fill="#5661AE"/>
<path d="M1029.92 403.75L1208.25 443.263C1209.84 443.603 1211.35 444.23 1212.71 445.114C1217.64 448.369 1226.45 457.886 1224.76 483.909C1222.5 518.596 1180.61 839.385 1180.61 839.385L1009.39 691.152L1029.92 403.75Z" fill="#5661AE"/>
<path d="M1010.86 402.731L1190.49 442.533C1190.49 442.533 1205.86 448.13 1205.7 482.89C1205.54 517.65 1161.55 838.366 1161.55 838.366L990.325 690.132L1010.86 402.731Z" fill="#1C85E8"/>
<path d="M1013.78 421.054C1013.78 421.054 1016.94 466.841 1018.33 474.097C1020.77 486.807 1076.61 460.106 1072.51 448.789C1070.39 442.917 1060.72 386.969 1060.72 386.969L1013.78 421.054Z" fill="#BC775C"/>
<path d="M1018.66 472.338L1013.88 425.462H1042.18L1018.66 472.338Z" fill="#93523E" stroke="#93523E"/>
<path d="M1084.76 377.155C1086.92 354.102 1060.77 359.073 1056.3 360.113C1051.83 361.153 1044.83 326.991 1044.83 326.991C1044.83 326.991 993.238 317.804 982.185 326.97C982.185 326.97 975.251 370.027 974.133 397.602C973.015 425.177 980.749 437.526 990.858 438.47C1004.63 440.937 1020.92 438.158 1031.33 432.023C1049.87 421.092 1057.79 401.322 1057.79 401.322C1058.12 401.17 1058.3 401.091 1058.3 401.091C1058.3 401.091 1082.73 398.927 1084.76 377.155Z" fill="#BC775C"/>
<path d="M980.718 396.731C985.164 393.914 996.406 394.16 1000.97 395.053C1009.67 396.757 1012.34 397.887 1013.32 399.907C1014.3 401.926 1014.49 404.16 1010.86 402.731C1007.22 401.302 999.617 398.692 992.848 398.876C989.703 399.199 986.588 399.767 983.531 400.576C980.003 401.634 976.709 399.271 980.718 396.731Z" fill="#493212"/>
<path d="M977.574 368.594C977.574 368.594 980.507 342.798 980.879 335.656C981.417 325.382 988.925 328.688 994.302 335.894C1002.04 346.594 1016.8 345.917 1029.21 342.56C1040.1 339.905 1040.26 340.53 1041.25 352.031C1042.25 363.532 1045.96 384.889 1049.45 379.778C1053.79 373.088 1056.75 366.824 1064.38 362.752C1074.75 357.219 1085.39 367.427 1082.89 375.31C1080.39 383.195 1074.54 392.271 1061.48 399.725L1067.87 429.335C1100.24 384.434 1112.43 322.769 1068.53 308.491C1052.13 303.156 1035.1 268.585 1003.36 276.45C980.879 282.022 980.879 300.045 979.281 315.717C949.073 317.024 977.574 368.594 977.574 368.594Z" fill="#493212"/>
<path d="M1016.39 377.087C1017.01 373.819 1015.77 370.841 1013.63 370.435C1011.49 370.03 1009.25 372.351 1008.64 375.62C1008.02 378.888 1009.25 381.866 1011.39 382.271C1013.53 382.676 1015.77 380.355 1016.39 377.087Z" fill="#080B09"/>
<path d="M986.92 371.315C987.539 368.047 986.304 365.069 984.163 364.664C982.021 364.259 979.784 366.58 979.166 369.848C978.547 373.117 979.782 376.095 981.923 376.5C984.065 376.905 986.302 374.584 986.92 371.315Z" fill="#080B09"/>
<path d="M992.951 379.778C992.951 379.778 996.784 386.68 991.532 386.934C986.51 387.005 983.668 390.034 988.852 394.16" stroke="#93523E" stroke-width="1.51544" stroke-linecap="round"/>
<path d="M989.888 399.916C993.007 400.052 999.245 400.325 1003.4 400.575C1003.65 400.588 1003.89 400.668 1004.09 400.808C1004.3 400.948 1004.46 401.142 1004.57 401.369C1004.67 401.596 1004.71 401.848 1004.68 402.096C1004.66 402.344 1004.56 402.579 1004.41 402.776C1000.81 406.975 992.44 414.615 988.65 401.659C988.556 401.462 988.517 401.244 988.536 401.027C988.554 400.81 988.631 400.602 988.757 400.424C988.883 400.246 989.055 400.105 989.253 400.016C989.452 399.927 989.671 399.892 989.888 399.916Z" fill="white"/>
<path d="M1026.29 366.097L1026.02 366.693C1025.69 367.598 1025.02 368.337 1024.16 368.75C1023.29 369.162 1022.29 369.215 1021.39 368.897L1005.95 363.009C1005.19 362.755 1004.55 362.225 1004.17 361.525C1003.78 360.824 1003.67 360.003 1003.86 359.226C1003.95 358.744 1004.15 358.288 1004.43 357.887C1004.72 357.486 1005.08 357.15 1005.5 356.9C1005.93 356.651 1006.4 356.494 1006.88 356.44C1007.37 356.386 1007.87 356.436 1008.33 356.587L1024.04 361.878C1024.47 362 1024.87 362.208 1025.22 362.488C1025.57 362.769 1025.85 363.116 1026.06 363.51C1026.27 363.904 1026.4 364.335 1026.44 364.78C1026.48 365.224 1026.43 365.672 1026.29 366.097Z" fill="#080B09"/>
<path d="M974.405 353.337L990.909 351.757C991.398 351.716 991.89 351.78 992.352 351.943C992.815 352.107 993.238 352.367 993.593 352.706C993.947 353.045 994.226 353.455 994.411 353.91C994.595 354.365 994.681 354.854 994.662 355.344C994.67 356.144 994.377 356.918 993.841 357.513C993.305 358.107 992.565 358.478 991.768 358.553L975.397 360.776C974.442 360.88 973.484 360.602 972.733 360.003C971.982 359.404 971.498 358.532 971.387 357.577L971.255 356.934C971.218 356.489 971.27 356.041 971.41 355.618C971.549 355.194 971.773 354.802 972.066 354.467C972.36 354.131 972.719 353.858 973.121 353.664C973.523 353.47 973.959 353.358 974.405 353.337Z" fill="#080B09"/>
<path d="M262.339 839.385C262.339 839.385 266.068 876.975 330.844 876.975H406.779L306.042 798.651L262.339 839.385Z" fill="#5661AE"/>
<path d="M413.035 403.75L234.703 443.263C233.116 443.603 231.604 444.23 230.243 445.114C225.31 448.369 216.499 457.886 218.192 483.909C220.448 518.596 262.34 839.386 262.34 839.386L433.565 691.152L413.035 403.75Z" fill="#5661AE"/>
<path d="M432.096 402.731L252.459 442.533C252.459 442.533 237.093 448.13 237.253 482.89C237.414 517.65 281.401 838.366 281.401 838.366L452.626 690.132L432.096 402.731Z" fill="#FEBB94"/>
<path d="M509.843 568.211L527.273 592.604C529.762 596.087 532.961 599.002 536.659 601.157C540.357 603.313 544.47 604.66 548.727 605.109L662.819 617.149L664.553 645.723L525.333 654.175C517.49 654.652 509.649 653.195 502.5 649.934C495.35 646.674 489.11 641.708 484.327 635.473L447.015 586.829L509.843 568.211Z" fill="#FFCCB3"/>
<path d="M520.744 583.467C520.744 583.467 484.877 592.938 474.391 622.519L456.519 596.103L516.89 578.073L520.744 583.467Z" fill="#FF967C"/>
<path d="M433.216 476.195C433.216 476.195 468.116 486.367 477.832 498.113C485.393 507.253 498.247 545.227 508.32 563.516C510.755 567.936 514.209 568.336 511.643 572.68C501.028 590.649 491.931 616.842 474.39 622.519C415.681 613.65 433.216 476.195 433.216 476.195Z" fill="#5661AE"/>
<path d="M470.933 528.231C470.933 528.231 494.225 570.471 497.761 593.171C497.761 593.171 489.468 614.217 483.614 618.498C474.481 625.177 469.466 621.424 469.466 621.424L470.933 528.231Z" fill="#465393"/>
<path d="M349.201 390.871C381.392 390.871 407.487 364.775 407.487 332.585C407.487 300.394 381.392 274.298 349.201 274.298C317.01 274.298 290.915 300.394 290.915 332.585C290.915 364.775 317.01 390.871 349.201 390.871Z" fill="#080B09"/>
<path d="M398.585 301.51C398.585 301.51 323.361 288.228 314.536 379.445C314.536 379.445 322.072 387.549 332.919 388.435C332.919 388.435 341.728 299.927 402.99 306.766L398.585 301.51Z" fill="#FEBB94"/>
<path d="M382.637 304.986C382.637 304.986 373.986 300.496 380.505 295.319C384.622 291.886 387.901 287.558 390.091 282.665C392.153 283.808 393.703 285.69 394.43 287.932C395.157 290.174 395.006 292.608 394.007 294.743C390.666 302.988 388.576 303.451 388.576 303.451L382.637 304.986Z" fill="#FEBB94"/>
<path d="M382.199 300.024C382.199 300.024 379.817 309.475 373.281 304.32C368.993 301.102 364.028 298.905 358.763 297.897C359.401 295.628 360.877 293.687 362.892 292.464C364.907 291.242 367.311 290.83 369.618 291.311C378.41 292.668 379.341 294.597 379.341 294.597L382.199 300.024Z" fill="#FEBB94"/>
<path d="M398.872 435.037L408.081 469.3C408.081 469.3 478.384 549.066 420.034 578.073C409.778 583.172 360.762 543.988 351.559 535.301C342.355 526.614 346.171 475.297 346.171 475.297L367.304 401.999L398.872 435.037Z" fill="#FFCCB3"/>
<path d="M378.155 543.748C378.155 543.748 412.499 565.336 447.014 545.304C447.014 545.304 441.695 575.044 420.773 584.616C399.85 594.187 378.155 543.748 378.155 543.748Z" fill="#1C85E8"/>
<path d="M400.686 441.09L382.222 429.012L409.562 474.992L400.686 441.09Z" fill="#FF967C"/>
<path d="M447.424 350.722C447.424 350.722 457.191 402.11 439.737 432.068C428.354 451.605 412.717 452.156 382.222 429.012C354.261 407.79 348.562 395.104 348.562 395.104L355.397 341.681C355.397 341.681 436.231 304.378 447.424 350.722Z" fill="#FFCCB3"/>
<path d="M408.081 469.301C408.081 469.301 442.65 477.838 448.224 481.768C453.798 485.698 460.952 520.097 470.989 536.026C481.026 551.956 494.736 577.125 477.123 606.234C459.51 635.343 461.098 663.197 461.098 663.197L474.428 736.267H325.959C319.753 736.834 316.452 721.109 316.637 714.88C317.245 694.336 319.192 688.211 317.88 655.636C316.103 611.488 299.615 486.243 299.615 486.243L348.561 468.068C347.056 536.973 387.088 521.934 420.773 584.616C448.346 531.653 408.081 469.301 408.081 469.301Z" fill="#5661AE"/>
<path d="M331.838 521.934C331.838 521.934 339.103 537.076 333.366 552.544C326.915 569.935 319.816 612.313 351.259 614.983C389.799 618.256 373.62 625.243 356.172 630.598C338.723 635.952 345.973 635.517 347.087 653.862C347.88 666.919 312.779 693.428 316.012 683.309C333.359 629.017 274.408 561.931 331.838 521.934Z" fill="#465393"/>
<path d="M415.452 417.317L433.95 420.399C433.881 420.556 433.796 420.74 433.693 420.947C433.359 421.619 432.845 422.511 432.127 423.394C430.693 425.158 428.478 426.853 425.256 426.774C420.211 426.196 417.782 423.673 416.59 421.326C415.987 420.138 415.694 418.983 415.554 418.123C415.502 417.809 415.471 417.536 415.452 417.317Z" fill="#E56441" stroke="#E56441"/>
<path d="M443.661 394.463C445.733 394.362 447.292 391.804 447.142 388.75C446.992 385.697 445.191 383.303 443.119 383.405C441.047 383.506 439.489 386.064 439.638 389.118C439.788 392.172 441.589 394.565 443.661 394.463Z" fill="#080B09"/>
<path d="M413.07 396.4C415.142 396.299 416.7 393.741 416.551 390.687C416.401 387.633 414.6 385.24 412.528 385.342C410.456 385.443 408.897 388.001 409.047 391.055C409.196 394.108 410.997 396.502 413.07 396.4Z" fill="#080B09"/>
<path d="M450.169 375.807L434.61 376.825C434.344 376.82 434.089 376.719 433.892 376.54C433.695 376.362 433.569 376.118 433.538 375.854C433.571 375.377 433.701 374.912 433.919 374.487C434.138 374.062 434.44 373.686 434.807 373.381C435.175 373.076 435.601 372.849 436.059 372.713C436.517 372.577 436.998 372.535 437.472 372.59L450.337 374.007C451.358 373.957 451.445 375.744 450.169 375.807Z" fill="#080B09"/>
<path d="M397.384 377.415L418.125 377.679C418.074 377.049 417.892 376.436 417.59 375.881C417.289 375.326 416.874 374.84 416.373 374.454C415.872 374.069 415.296 373.793 414.682 373.644C414.067 373.495 413.429 373.476 412.807 373.589L397.066 376.151C396.556 376.176 396.619 377.453 397.384 377.415Z" fill="#080B09"/>
<path d="M430.604 388.013L437.258 402.748L432.62 406.989" stroke="#E56441" stroke-width="1.66686" stroke-linecap="round"/>
<path d="M428.332 358.697C417.466 358.772 412.377 356.252 400.979 361.615C397.382 363.307 393.979 365 391.916 369.148C389.706 377.49 391.123 389.078 376.42 388.756C376.42 388.756 381.176 372.926 371.073 370.903C353.917 367.468 356.675 395.227 367.304 401.999C374.527 406.601 362.118 439.799 352.887 452.002C321.313 378.216 332.271 370.784 340.48 351.524C354.429 318.794 366.651 308.83 399.672 303.417C399.672 303.417 443.422 304.598 455.021 343.089C464.936 375.994 450.055 388.609 450.055 388.609C450.055 388.609 450.517 364.124 448.095 361.615C444.909 358.314 442.325 358.6 428.332 358.697Z" fill="#080B09"/>
<path d="M959.201 756.978L835.396 778.972L859.764 876.975H939.068C939.068 876.975 976.765 795.946 959.201 756.978Z" fill="#FFCCB3"/>
<path d="M880.157 765.563C880.157 765.563 899.237 771.439 907.113 802.558C914.99 833.678 906.396 876.975 906.396 876.975H918.664C918.664 876.975 962.412 825.6 930.226 760.125L880.157 765.563Z" fill="#FF967C"/>
<path d="M1138.97 726.095C1138.97 726.095 1148.51 797.338 1134.27 831.297C1122.15 860.178 1103.43 876.552 1080.7 876.975H906.396C906.396 876.975 906.121 783.874 832.604 767.968C832.604 767.968 1074.56 700.58 1138.97 726.095Z" fill="#1F2D49"/>
<path d="M1142.32 747.701L984.168 752.908L985.85 741.861L1016.67 738.298H1142.1L1142.32 747.701Z" fill="#0D1B33"/>
<path d="M1019.58 468.636C1018.22 474.403 1017.87 453.999 1015.12 454.85C1002.53 458.752 966.705 469.931 959.085 473.119C949.803 477.002 949.184 492.533 948.565 503.535C948.131 511.243 959.604 619.449 960.176 692.756C960.298 708.417 944.448 726.749 942.573 735.454C942.052 737.798 941.773 740.19 941.74 742.591C941.731 744.265 942.386 745.875 943.562 747.066C944.738 748.258 946.339 748.934 948.014 748.947L1136.87 750.712C1136.87 750.712 1145.24 751.929 1143.22 742.374C1141.22 731.923 1140.13 721.319 1139.94 710.68C1138.06 634.54 1137.7 507.026 1136.88 500.989C1135.64 491.929 1145.37 484.127 1134.83 479.566L1076.34 456.198C1076.34 456.198 1065.62 464.019 1064.07 464.811C1034.69 479.836 1019.58 468.636 1019.58 468.636Z" fill="#FEBB94"/>
<path d="M1031.75 476.407C1031.75 476.407 1025.07 500.935 1028.16 524.627C1031.24 548.319 1019.07 580.734 1016.55 606.747C1014.03 632.76 1026.37 666.839 1024.44 688.675C1022.52 710.51 1029.52 750.763 1029.52 750.763" stroke="#FF967C" stroke-width="3" stroke-miterlimit="10"/>
<path d="M502.384 738.819L626.191 760.814L601.821 858.817H522.517C522.517 858.817 484.82 777.788 502.384 738.819Z" fill="#FFCCB3"/>
<path d="M581.427 747.404C581.427 747.404 562.347 753.28 554.471 784.4C546.595 815.519 555.189 858.817 555.189 858.817H542.92C542.92 858.817 499.173 807.441 531.359 741.966L581.427 747.404Z" fill="#FF967C"/>
<path d="M318.946 712.545C318.946 712.545 297.006 753.726 299.616 808.03C302.096 859.605 330.312 876.975 374.918 876.975L555.19 858.817C555.19 858.817 555.465 765.715 628.982 749.81C628.982 749.81 547.129 690.229 464.334 705.198C423.697 712.545 398.166 721.485 318.946 712.545Z" fill="#1F2D49"/>
<path d="M315.861 698.779C315.861 698.779 432.616 710.977 475.648 678.823L473.724 705.667C473.724 705.667 400.963 746.092 317.578 723.343C317.578 723.343 305.076 714.563 315.861 698.779Z" fill="#1C85E8"/>
<path d="M672.165 657.565C672.165 657.565 706.849 650.303 721.212 653.63C735.85 656.654 766.658 664.362 761.14 686.948C757.323 703.074 740.487 696.686 740.487 696.686C740.487 696.686 744.869 703.126 738.355 706.064C734.383 707.714 708.757 693.66 708.757 693.66C691.655 699.161 669.339 687.547 669.339 687.547L672.165 657.565Z" fill="#FFCCB3"/>
<path d="M721.511 688.088L740.198 696.7" stroke="#FF967C" stroke-width="2.89316" stroke-linecap="round" stroke-linejoin="round"/>
<path d="M725.689 673.392C730.371 674.313 751.443 684.253 751.443 684.253" stroke="#FF967C" stroke-width="2.89316" stroke-linecap="round" stroke-linejoin="round"/>
<path d="M728.312 662.251C737.697 664.597 746.676 668.341 754.947 673.357" stroke="#FF967C" stroke-width="2.89316" stroke-linecap="round" stroke-linejoin="round"/>
<path d="M517.961 545.304H894.392L1084.89 858.817H362.321L517.961 545.304Z" fill="url(#paint0_linear_75_17172)"/>
<path d="M824.403 678.98L837.023 755.386L907.113 802.558L1024.45 789.88L995.625 755.386L824.403 678.98Z" fill="#96BAFD"/>
<path d="M756.962 603.127L809.501 700.001L887.737 774.223L824.404 678.98L756.962 603.127Z" fill="white"/>
<path d="M756.962 603.127L809.501 700.001L804.434 703.898L752.681 605.743L756.962 603.127Z" fill="#5CA4E6"/>
<path d="M809.501 700.001L887.737 774.223V778.977L804.434 703.898L809.501 700.001Z" fill="#5CA4E6"/>
<path d="M887.736 778.977L995.625 759.256V755.386L887.736 774.223V778.977Z" fill="#5CA4E6"/>
<path d="M995.625 755.386L925.34 665.427L824.403 678.98L887.736 774.223L995.625 755.386Z" fill="#E7EFFF"/>
<path d="M352.426 528.434L336.133 622.118C335.722 624.46 334.429 626.556 332.521 627.975C330.612 629.394 328.233 630.028 325.872 629.747C325.872 629.747 279.958 626.728 264.674 625.455C261.074 625.155 251.29 616.281 254.281 601.665C257.023 581.699 269.866 535.078 277.987 509.19C281.769 496.309 322.212 504.02 322.212 504.02L352.426 528.434Z" fill="#5661AE"/>
<path d="M314.314 560.496C335.605 560.496 352.864 543.237 352.864 521.946C352.864 500.656 335.605 483.396 314.314 483.396C293.024 483.396 275.764 500.656 275.764 521.946C275.764 543.237 293.024 560.496 314.314 560.496Z" fill="#5661AE"/>
<path d="M265.726 630.66L266.356 623.191L323.516 629.701L322.631 636.057L317.768 676.139L262.191 670.144L265.726 630.66Z" fill="#FFCCB3"/>
<path d="M266.635 623.127L323.517 629.701L322.632 636.057C309.707 634.629 280.729 632.197 265.727 630.66L266.635 623.127Z" fill="#FF967C"/>
<path d="M289.761 699.601C305.216 699.601 317.745 687.072 317.745 671.617C317.745 656.161 305.216 643.632 289.761 643.632C274.305 643.632 261.776 656.161 261.776 671.617C261.776 687.072 274.305 699.601 289.761 699.601Z" fill="#FFCCB3"/>
<path d="M303.575 695.709L461.508 621.568C461.508 621.568 470.982 587.888 460.68 593.48C450.12 599.196 281.867 644.677 281.867 644.677L303.575 695.709Z" fill="#FFCCB3"/>
<path d="M551.851 625.287L484.704 637.018C480.379 637.774 477.503 634.77 478.282 630.308L498.929 511.95C499.708 507.489 503.845 503.259 508.171 502.503L575.317 490.772C579.643 490.016 582.518 493.02 581.74 497.482L561.092 615.84C560.314 620.301 556.177 624.531 551.851 625.287Z" fill="#1C85E8"/>
<path d="M554.864 624.76L487.718 636.492C483.392 637.248 480.517 634.243 481.295 629.782L501.943 511.424C502.721 506.962 506.859 502.733 511.184 501.977L578.331 490.245C582.656 489.489 585.532 492.493 584.753 496.955L564.106 615.313C563.327 619.775 559.19 624.004 554.864 624.76Z" fill="#B2CDFF"/>
<path d="M451.152 596.776L458.948 622.19C458.948 622.19 491.246 614.445 498.155 611.053C511.628 604.126 526.116 594.783 527.813 591.231C533.011 582.247 533.623 571.131 533.028 563.367C532.953 562.213 532.594 561.096 531.985 560.113C531.376 559.13 530.534 558.313 529.534 557.732C528.535 557.151 527.407 556.825 526.252 556.783C525.096 556.74 523.948 556.982 522.908 557.488L494.637 571.598C494.637 571.598 490.956 565.379 494.659 560.437C497.045 557.175 493.364 550.957 491.728 549.051C491.083 548.17 487.641 548.144 486.861 549.035C485.545 550.716 487.355 556.554 484.578 560.26C479.85 566.193 484.047 568.77 471.874 578.884C462.244 586.817 451.052 596.532 451.152 596.776Z" fill="#FFCCB3"/>
<path d="M505.828 575.896C513.872 573.185 530.277 563.632 530.277 563.632" stroke="#FF967C" stroke-width="2.09903" stroke-linecap="round" stroke-linejoin="round"/>
<path d="M504.771 586.622C511.245 584.266 528.34 575.003 528.34 575.003" stroke="#FF967C" stroke-width="2.09903" stroke-linecap="round" stroke-linejoin="round"/>
<path d="M508.671 596.182C512.939 594.727 525.631 588.69 525.631 588.69" stroke="#FF967C" stroke-width="2.09903" stroke-linecap="round" stroke-linejoin="round"/>
<path d="M264.774 620.141C263.39 625.706 263.522 631.539 265.156 637.035C265.156 637.035 292.654 650.355 321.709 643.665C323.667 641.99 325.101 639.787 325.839 637.318C326.577 634.85 326.589 632.221 325.872 629.747L264.774 620.141Z" fill="#5661AE"/>
<path d="M1083.91 520.523C1083.91 520.523 1075.44 566.878 1080.7 612.208C1083.99 640.573 1102.08 669.691 1101.85 683.23C1101.48 705.15 1076.42 714.435 1076.35 727.127C1076.3 734.636 1096.59 729.964 1105.56 727.045C1125.71 720.483 1138.95 729.399 1138.95 729.399L1133.58 537.085L1083.91 520.523Z" fill="#FF967C"/>
<path d="M1137.75 509.252C1119.16 485.985 1110.82 497.128 1104.29 497.697C1104.29 497.697 1082.17 501.817 1083.91 520.523C1085.75 540.316 1118.29 672.219 1118.29 672.219L1186.6 667.085L1183.36 648.897L1176.69 611.435L1169.58 571.38L1168.95 566.612L1160.96 513.917C1160.96 513.917 1147.38 521.678 1137.75 509.252Z" fill="#FEBB94"/>
<path d="M1142.34 549.416C1160.5 538.266 1166.19 514.505 1155.04 496.343C1143.89 478.182 1120.13 472.498 1101.97 483.648C1083.8 494.797 1078.12 518.559 1089.27 536.72C1100.42 554.881 1124.18 560.565 1142.34 549.416Z" fill="#FEBB94"/>
<path d="M978.847 677.695L935.779 680.899L925.599 704.911L929.078 734.552C929.078 734.552 936.489 731.532 937.256 721.047C938.023 710.562 972.308 718 981.271 706.484" fill="#BC775C"/>
<path d="M1143.13 638.854L976.035 670.351C975.03 670.582 974.147 671.176 973.555 672.019C972.963 672.863 972.704 673.895 972.828 674.918L976.873 706.714C977.084 708.234 977.852 709.622 979.029 710.607C980.205 711.593 981.706 712.105 983.239 712.046L1155.36 705.313L1143.13 638.854Z" fill="#FEBB94"/>
<path d="M1153.01 705.57C1171.89 705.57 1187.2 690.262 1187.2 671.379C1187.2 652.495 1171.89 637.188 1153.01 637.188C1134.13 637.188 1118.82 652.495 1118.82 671.379C1118.82 690.262 1134.13 705.57 1153.01 705.57Z" fill="#FEBB94"/>
<path d="M980.11 515.916C985.689 488.373 972.569 489.083 968.203 484.703C968.203 484.703 951.822 471.196 939.341 483.787C926.129 497.106 850.396 600.569 850.396 600.569L897.782 644.151L906.69 633.522L929.761 606.004L954.44 576.594L957.506 573.245L990.797 535.538C990.797 535.538 976.955 530.416 980.11 515.916Z" fill="#FEBB94"/>
<path d="M999.929 520.609C1006.32 501.538 996.035 480.9 976.964 474.512C957.893 468.124 937.254 478.406 930.866 497.477C924.479 516.548 934.761 537.187 953.832 543.575C972.903 549.963 993.542 539.681 999.929 520.609Z" fill="#FEBB94"/>
<path d="M954.441 576.593C953.025 561.285 947.948 538.353 947.948 538.353C947.948 538.353 943.563 537.948 930.035 568.176C920.017 590.829 908.395 613.918 906.472 633.449L929.544 605.931L954.441 576.593Z" fill="#FF967C"/>
<path d="M861.908 466.457C859.441 443.165 865.779 442.036 865.866 429.408C865.91 417.067 884.544 394.221 875.657 394.683C866.77 395.144 860.528 403.637 860.528 403.637C859.211 392.567 861.437 374.144 850.109 367.193C838.78 360.242 836.113 363.607 826.888 366.371C802.261 373.934 816.008 406.522 816.26 416.848C816.483 423.348 827.914 447.66 828.433 452.145L832.073 469.435L861.908 466.457Z" fill="#BC775C"/>
<path d="M847.872 399.726L844.504 366.292" stroke="#93523E" stroke-width="1.51544" stroke-linecap="round"/>
<path d="M836.352 400.096L830.873 367.98" stroke="#93523E" stroke-width="1.51544" stroke-linecap="round"/>
<path d="M822.819 400.171L820.049 380.95" stroke="#93523E" stroke-width="1.51544" stroke-linecap="round"/>
<path d="M841.486 425.248C845.51 415.842 855.95 406.789 855.95 406.789L841.486 425.248Z" fill="#93523E"/>
<path d="M841.486 425.248C845.51 415.842 855.95 406.789 855.95 406.789" stroke="#93523E" stroke-width="1.51544" stroke-linecap="round"/>
<path d="M905.055 609.855L868.157 469.427C867.882 468.494 867.27 467.697 866.441 467.188C865.613 466.68 864.625 466.496 863.669 466.672L833.954 472.335C832.534 472.622 831.272 473.427 830.412 474.592C829.553 475.758 829.157 477.201 829.302 478.642L843.166 625.247L905.055 609.855Z" fill="#FEBB94"/>
<path d="M831.741 478.419C831.741 478.419 828.082 464.4 831.741 462.859C835.4 461.319 858.327 456.939 861.404 459.803C864.481 462.667 867.167 474.607 867.167 474.607L831.741 478.419Z" fill="#FEBB94"/>
<path d="M874.995 653.326C892.816 653.326 907.263 638.879 907.263 621.058C907.263 603.237 892.816 588.79 874.995 588.79C857.173 588.79 842.726 603.237 842.726 621.058C842.726 638.879 857.173 653.326 874.995 653.326Z" fill="#FEBB94"/>
<path d="M349.201 464.791C349.201 464.791 372.719 510.341 396.736 517.832C396.736 517.832 410.234 510.665 408.082 469.3" stroke="white" stroke-miterlimit="10"/>
<path d="M395.892 529.572C400.416 529.572 404.083 525.905 404.083 521.382C404.083 516.858 400.416 513.191 395.892 513.191C391.368 513.191 387.701 516.858 387.701 521.382C387.701 525.905 391.368 529.572 395.892 529.572Z" fill="#5661AE"/>
<path d="M384.87 514.083C386.434 514.083 387.701 512.815 387.701 511.252C387.701 509.689 386.434 508.421 384.87 508.421C383.307 508.421 382.04 509.689 382.04 511.252C382.04 512.815 383.307 514.083 384.87 514.083Z" fill="#5661AE"/>
<path d="M404.082 512.331C405.645 512.331 406.913 511.063 406.913 509.5C406.913 507.937 405.645 506.669 404.082 506.669C402.518 506.669 401.251 507.937 401.251 509.5C401.251 511.063 402.518 512.331 404.082 512.331Z" fill="#5661AE"/>
<path d="M631.554 652.758L539.245 653.279V741.966L676.633 733.959L631.554 652.758Z" fill="white"/>
<path d="M622.815 661.399L638.079 692.756" stroke="#1C85E8" stroke-width="3.81627" stroke-miterlimit="10" stroke-linecap="round"/>
<path opacity="0.4" d="M607.938 661.402L613.659 673.152" stroke="#1C85E8" stroke-width="3.81627" stroke-miterlimit="10" stroke-linecap="round"/>
<path opacity="0.4" d="M545.471 661.402L591.126 660.341L594.481 671.509L546.384 673.152L545.471 661.402Z" fill="#1C85E8"/>
<path opacity="0.4" d="M546.751 679.572L573.555 678.849L576.911 690.016L547.664 691.322L546.751 679.572Z" fill="#1C85E8"/>
<path opacity="0.4" d="M546.751 699.355L592.406 698.295L595.761 709.462L547.664 711.105L546.751 699.355Z" fill="#1C85E8"/>
<path opacity="0.4" d="M548.032 717.526L574.836 716.803L578.191 727.97L548.945 729.276L548.032 717.526Z" fill="#1C85E8"/>
<path d="M469.466 802.558L571.256 738.819L643.424 759.344L556.445 835.794L469.466 802.558Z" fill="#1C85E8"/>
<path d="M1031.52 472.758C1031.52 472.758 1065.62 461.326 1072.03 446.215C1072.03 446.215 1087.6 448.454 1093.71 454.307C1099.79 460.161 1114.63 461.902 1101.77 468.41C1088.91 474.918 1038.76 480.431 1035.71 479.58C1032.66 478.729 1031.52 472.758 1031.52 472.758Z" fill="white"/>
<path d="M1017.39 451.95V459.598C1017.39 459.598 1020.44 470.584 1031.52 472.758C1031.52 472.758 1033.25 478.821 1027.15 479.541C1021.06 480.261 1003.34 471.304 1000.73 470.427C998.113 469.563 996.961 465.949 1002.04 463.055C1002.04 463.055 1003.86 453.142 1017.39 451.95Z" fill="white"/>
<path d="M1048.45 559.157C1048.4 559.159 1048.35 559.155 1048.31 559.144C1048.14 559.105 1047.99 559.001 1047.9 558.856C1047.81 558.709 1047.77 558.53 1047.81 558.358C1049.67 550.239 1044.47 540.209 1039.45 530.506C1035.72 523.304 1031.86 515.853 1030.88 509.135C1028.57 493.539 1034.88 476.018 1034.95 475.848C1035.01 475.686 1035.13 475.554 1035.29 475.481C1035.45 475.407 1035.62 475.398 1035.79 475.455C1035.87 475.484 1035.94 475.529 1036.01 475.587C1036.07 475.645 1036.12 475.714 1036.16 475.792C1036.2 475.87 1036.22 475.955 1036.22 476.041C1036.22 476.127 1036.21 476.213 1036.18 476.294C1036.12 476.464 1029.91 493.683 1032.16 508.952C1033.13 515.447 1036.93 522.793 1040.62 529.903C1045.74 539.816 1051.06 550.069 1049.09 558.659C1049.06 558.803 1048.98 558.93 1048.86 559.021C1048.74 559.111 1048.6 559.159 1048.45 559.157Z" fill="white"/>
<path d="M1024.24 551.719C1024.09 551.722 1023.95 551.673 1023.83 551.583C1023.72 551.492 1023.64 551.364 1023.61 551.221C1019.51 534.028 1023.9 504.552 1025.34 495.922C1026.54 489.4 1026.96 482.758 1026.6 476.136C1026.58 475.965 1026.64 475.794 1026.75 475.662C1026.86 475.53 1027.01 475.446 1027.19 475.429C1027.36 475.412 1027.53 475.463 1027.66 475.57C1027.8 475.678 1027.88 475.834 1027.9 476.005C1028.28 482.741 1027.85 489.496 1026.63 496.132C1025.19 504.709 1020.83 533.963 1024.88 550.92C1024.9 551.017 1024.91 551.118 1024.88 551.215C1024.86 551.313 1024.82 551.404 1024.76 551.483C1024.7 551.557 1024.62 551.617 1024.53 551.657C1024.43 551.698 1024.34 551.719 1024.24 551.719Z" fill="white"/>
<g opacity="0.6">
<path opacity="0.6" d="M1047.76 563.855C1050.04 563.855 1051.89 562.01 1051.89 559.733C1051.89 557.457 1050.04 555.611 1047.76 555.611C1045.47 555.611 1043.62 557.457 1043.62 559.733C1043.62 562.01 1045.47 563.855 1047.76 563.855Z" fill="white"/>
</g>
<g opacity="0.6">
<path opacity="0.6" d="M1024.98 555.199C1027.27 555.199 1029.12 553.354 1029.12 551.077C1029.12 548.801 1027.27 546.956 1024.98 546.956C1022.7 546.956 1020.85 548.801 1020.85 551.077C1020.85 553.354 1022.7 555.199 1024.98 555.199Z" fill="white"/>
</g>
<path d="M776.67 197.54H782.67" stroke="#5CA4E6" stroke-miterlimit="10"/>
<path d="M886.497 166.147H540.85C530.751 166.147 522.563 174.335 522.563 184.434V407.178C522.563 417.278 530.751 425.465 540.85 425.465H886.497C896.596 425.465 904.784 417.278 904.784 407.178V184.434C904.784 174.335 896.596 166.147 886.497 166.147Z" fill="url(#paint1_linear_75_17172)"/>
<path d="M874.404 359.794H682.388C679.21 359.794 676.634 362.37 676.634 365.548V391.515C676.634 394.693 679.21 397.269 682.388 397.269H874.404C877.582 397.269 880.158 394.693 880.158 391.515V365.548C880.158 362.37 877.582 359.794 874.404 359.794Z" fill="white"/>
<path d="M814.932 375.961V374.468H818.314V387.471H816.659V375.961H814.932ZM821.089 377.741C821.173 376.638 821.598 375.775 822.366 375.151C823.133 374.528 824.128 374.216 825.351 374.216C826.167 374.216 826.868 374.366 827.455 374.666C828.055 374.954 828.505 375.349 828.804 375.853C829.116 376.356 829.272 376.926 829.272 377.561C829.272 378.305 829.056 378.946 828.624 379.486C828.205 380.025 827.653 380.373 826.97 380.529V380.619C827.749 380.811 828.367 381.188 828.822 381.752C829.278 382.315 829.506 383.053 829.506 383.964C829.506 384.647 829.35 385.265 829.038 385.816C828.726 386.356 828.259 386.782 827.635 387.093C827.012 387.405 826.262 387.561 825.387 387.561C824.116 387.561 823.073 387.231 822.258 386.572C821.443 385.9 820.987 384.953 820.891 383.73H822.474C822.558 384.45 822.851 385.037 823.355 385.493C823.858 385.948 824.53 386.176 825.369 386.176C826.208 386.176 826.844 385.96 827.276 385.529C827.719 385.085 827.941 384.515 827.941 383.82C827.941 382.921 827.641 382.273 827.042 381.878C826.442 381.482 825.537 381.284 824.326 381.284H823.912V379.917H824.344C825.447 379.905 826.28 379.726 826.844 379.378C827.407 379.018 827.689 378.467 827.689 377.723C827.689 377.088 827.479 376.578 827.06 376.195C826.652 375.811 826.065 375.619 825.297 375.619C824.554 375.619 823.954 375.811 823.499 376.195C823.043 376.578 822.773 377.094 822.689 377.741H821.089ZM831.518 386.158C833.04 384.935 834.233 383.934 835.097 383.155C835.96 382.363 836.685 381.542 837.273 380.691C837.872 379.827 838.172 378.982 838.172 378.155C838.172 377.376 837.98 376.764 837.596 376.32C837.225 375.865 836.619 375.637 835.78 375.637C834.965 375.637 834.329 375.895 833.874 376.41C833.43 376.914 833.19 377.591 833.154 378.443H831.572C831.619 377.1 832.027 376.063 832.794 375.331C833.562 374.6 834.551 374.234 835.762 374.234C836.997 374.234 837.974 374.576 838.693 375.259C839.425 375.943 839.791 376.884 839.791 378.083C839.791 379.078 839.491 380.049 838.891 380.996C838.304 381.932 837.632 382.759 836.877 383.478C836.122 384.186 835.156 385.013 833.981 385.96H840.168V387.327H831.518V386.158Z" fill="#1C85E8"/>
<path d="M649.729 193.612H549.102C545.329 193.612 542.271 196.671 542.271 200.445V390.437C542.271 394.21 545.329 397.269 549.102 397.269H649.729C653.502 397.269 656.561 394.21 656.561 390.437V200.445C656.561 196.671 653.502 193.612 649.729 193.612Z" fill="#1C85E8"/>
<path opacity="0.4" d="M599.417 328.864C615.334 328.864 628.238 315.96 628.238 300.043C628.238 284.125 615.334 271.221 599.417 271.221C583.499 271.221 570.595 284.125 570.595 300.043C570.595 315.96 583.499 328.864 599.417 328.864Z" fill="white"/>
<path d="M590.5 292.108V310.4C590.5 310.907 590.632 311.406 590.883 311.847C591.134 312.287 591.496 312.655 591.932 312.913C592.368 313.172 592.863 313.313 593.37 313.322C593.878 313.33 594.378 313.207 594.823 312.964L611.545 303.817C612.005 303.566 612.389 303.195 612.656 302.744C612.923 302.293 613.065 301.778 613.065 301.254C613.065 300.73 612.923 300.215 612.656 299.764C612.389 299.313 612.005 298.942 611.545 298.691L594.823 289.544C594.378 289.301 593.878 289.178 593.37 289.186C592.863 289.195 592.368 289.336 591.932 289.594C591.496 289.853 591.134 290.221 590.883 290.661C590.632 291.102 590.5 291.6 590.5 292.108Z" fill="white"/>
<path d="M681.796 218.073H753.682" stroke="white" stroke-width="16.3488" stroke-miterlimit="10" stroke-linecap="round"/>
<path opacity="0.4" d="M681.796 251.622H830.355" stroke="white" stroke-width="16.3488" stroke-miterlimit="10" stroke-linecap="round"/>
<path d="M682.682 296.089H754.569" stroke="white" stroke-width="16.3488" stroke-miterlimit="10" stroke-linecap="round"/>
<path opacity="0.4" d="M682.682 329.637H831.241" stroke="white" stroke-width="16.3488" stroke-miterlimit="10" stroke-linecap="round"/>
<path d="M708.74 372.123C707.615 371.084 706.139 370.506 704.608 370.506C703.076 370.506 701.601 371.084 700.476 372.123L698.919 373.56L697.362 372.123C696.237 371.084 694.762 370.506 693.23 370.506C691.699 370.506 690.223 371.084 689.099 372.123C688.505 372.661 688.03 373.317 687.705 374.049C687.38 374.781 687.212 375.574 687.212 376.375C687.212 377.176 687.38 377.968 687.705 378.7C688.03 379.433 688.505 380.089 689.099 380.626L698.919 389.728L708.74 380.746C709.36 380.212 709.857 379.55 710.198 378.806C710.539 378.062 710.716 377.253 710.716 376.435C710.716 375.616 710.539 374.807 710.198 374.063C709.857 373.319 709.36 372.657 708.74 372.123Z" fill="#F4608A"/>
<path d="M719.704 377.741C719.788 376.638 720.214 375.775 720.981 375.151C721.749 374.528 722.744 374.216 723.967 374.216C724.782 374.216 725.484 374.366 726.071 374.666C726.671 374.954 727.12 375.349 727.42 375.853C727.732 376.356 727.888 376.926 727.888 377.561C727.888 378.305 727.672 378.946 727.24 379.486C726.82 380.025 726.269 380.373 725.585 380.529V380.619C726.365 380.811 726.982 381.188 727.438 381.752C727.893 382.315 728.121 383.053 728.121 383.964C728.121 384.647 727.965 385.265 727.654 385.816C727.342 386.356 726.874 386.782 726.251 387.093C725.627 387.405 724.878 387.561 724.003 387.561C722.732 387.561 721.689 387.231 720.873 386.572C720.058 385.9 719.603 384.953 719.507 383.73H721.089C721.173 384.45 721.467 385.037 721.971 385.493C722.474 385.948 723.146 386.176 723.985 386.176C724.824 386.176 725.46 385.96 725.891 385.529C726.335 385.085 726.557 384.515 726.557 383.82C726.557 382.921 726.257 382.273 725.657 381.878C725.058 381.482 724.153 381.284 722.942 381.284H722.528V379.917H722.96C724.063 379.905 724.896 379.726 725.46 379.378C726.023 379.018 726.305 378.467 726.305 377.723C726.305 377.088 726.095 376.578 725.675 376.195C725.268 375.811 724.68 375.619 723.913 375.619C723.17 375.619 722.57 375.811 722.114 376.195C721.659 376.578 721.389 377.094 721.305 377.741H719.704ZM732.291 385.205L730.277 390.043H729.18L730.493 385.205H732.291ZM742.187 375.889H735.875V379.989C736.15 379.606 736.558 379.294 737.098 379.054C737.637 378.802 738.219 378.676 738.842 378.676C739.837 378.676 740.647 378.886 741.27 379.306C741.894 379.714 742.337 380.247 742.601 380.907C742.877 381.554 743.015 382.243 743.015 382.975C743.015 383.838 742.853 384.611 742.529 385.295C742.205 385.978 741.708 386.518 741.036 386.913C740.377 387.309 739.556 387.507 738.572 387.507C737.313 387.507 736.294 387.183 735.515 386.536C734.736 385.888 734.262 385.025 734.094 383.946H735.695C735.851 384.629 736.18 385.163 736.684 385.547C737.188 385.93 737.823 386.122 738.59 386.122C739.538 386.122 740.251 385.84 740.731 385.277C741.21 384.701 741.45 383.946 741.45 383.011C741.45 382.076 741.21 381.356 740.731 380.853C740.251 380.337 739.544 380.079 738.608 380.079C737.973 380.079 737.415 380.235 736.936 380.547C736.468 380.847 736.126 381.26 735.911 381.788H734.364V374.45H742.187V375.889ZM744.992 386.158C746.514 384.935 747.707 383.934 748.571 383.155C749.434 382.363 750.159 381.542 750.747 380.691C751.346 379.827 751.646 378.982 751.646 378.155C751.646 377.376 751.454 376.764 751.07 376.32C750.699 375.865 750.093 375.637 749.254 375.637C748.439 375.637 747.803 375.895 747.348 376.41C746.904 376.914 746.664 377.591 746.628 378.443H745.046C745.094 377.1 745.501 376.063 746.269 375.331C747.036 374.6 748.025 374.234 749.236 374.234C750.471 374.234 751.448 374.576 752.168 375.259C752.899 375.943 753.265 376.884 753.265 378.083C753.265 379.078 752.965 380.049 752.365 380.996C751.778 381.932 751.106 382.759 750.351 383.478C749.596 384.186 748.631 385.013 747.456 385.96H753.642V387.327H744.992V386.158ZM763.537 375.745L758.538 387.471H756.883L761.955 375.907H755.013V374.504H763.537V375.745Z" fill="#1C85E8"/>
<path d="M807.596 378.551C807.596 373.034 801.058 368.562 792.995 368.562C784.932 368.562 778.396 373.034 778.396 378.551C778.396 384.068 784.932 388.54 792.995 388.54C793.572 388.54 794.137 388.51 794.696 388.463C794.782 388.455 794.868 388.468 794.948 388.499C795.029 388.53 795.102 388.578 795.161 388.641C796.197 389.726 798.471 391.405 802.779 391.671C802.887 391.678 802.993 391.656 803.089 391.606C803.185 391.555 803.264 391.48 803.32 391.387C803.375 391.294 803.405 391.188 803.404 391.08C803.402 390.972 803.37 390.866 803.313 390.775C802.56 389.651 801.973 388.425 801.568 387.135C801.535 387.006 801.547 386.87 801.602 386.75C801.657 386.629 801.753 386.531 801.872 386.472C805.348 384.647 807.596 381.781 807.596 378.551Z" fill="#1C85E8"/>
<path d="M491.17 166H364.385C354.719 166 346.884 173.835 346.884 183.501V358.353C346.884 368.018 354.719 375.854 364.385 375.854H491.17C500.835 375.854 508.671 368.018 508.671 358.353V183.501C508.671 173.835 500.835 166 491.17 166Z" fill="#1C85E8"/>
<path d="M419.544 295.195L412.902 310.772H410.704L417.441 295.41H408.219V293.546H419.544V295.195ZM425.108 301.789C424.216 301.439 423.531 300.929 423.053 300.26C422.575 299.591 422.337 298.779 422.337 297.823C422.337 296.963 422.552 296.19 422.982 295.506C423.412 294.805 424.049 294.255 424.893 293.857C425.753 293.443 426.788 293.236 427.999 293.236C429.209 293.236 430.237 293.443 431.081 293.857C431.941 294.255 432.586 294.805 433.016 295.506C433.462 296.19 433.685 296.963 433.685 297.823C433.685 298.747 433.438 299.559 432.944 300.26C432.451 300.945 431.774 301.455 430.914 301.789C431.901 302.092 432.682 302.625 433.255 303.39C433.844 304.138 434.139 305.046 434.139 306.113C434.139 307.149 433.884 308.057 433.374 308.837C432.865 309.602 432.14 310.199 431.2 310.629C430.277 311.043 429.209 311.25 427.999 311.25C426.788 311.25 425.721 311.043 424.797 310.629C423.89 310.199 423.181 309.602 422.671 308.837C422.161 308.057 421.907 307.149 421.907 306.113C421.907 305.046 422.193 304.13 422.767 303.366C423.34 302.601 424.12 302.076 425.108 301.789ZM431.583 298.086C431.583 297.114 431.264 296.366 430.627 295.84C429.99 295.314 429.114 295.052 427.999 295.052C426.9 295.052 426.032 295.314 425.395 295.84C424.758 296.366 424.439 297.122 424.439 298.11C424.439 299.002 424.766 299.718 425.419 300.26C426.088 300.801 426.948 301.072 427.999 301.072C429.066 301.072 429.926 300.801 430.579 300.26C431.248 299.702 431.583 298.978 431.583 298.086ZM427.999 302.745C426.82 302.745 425.857 303.023 425.108 303.581C424.359 304.122 423.985 304.943 423.985 306.042C423.985 307.061 424.343 307.881 425.06 308.503C425.793 309.124 426.772 309.434 427.999 309.434C429.225 309.434 430.197 309.124 430.914 308.503C431.63 307.881 431.989 307.061 431.989 306.042C431.989 304.975 431.622 304.162 430.89 303.605C430.157 303.031 429.193 302.745 427.999 302.745ZM436.549 297.393C436.549 296.31 436.875 295.45 437.528 294.813C438.181 294.16 439.017 293.833 440.037 293.833C441.056 293.833 441.892 294.16 442.545 294.813C443.198 295.45 443.525 296.31 443.525 297.393C443.525 298.492 443.198 299.368 442.545 300.021C441.892 300.658 441.056 300.977 440.037 300.977C439.017 300.977 438.181 300.658 437.528 300.021C436.875 299.368 436.549 298.492 436.549 297.393ZM450.501 294.096L440.825 310.772H438.675L448.351 294.096H450.501ZM440.037 295.171C439.495 295.171 439.065 295.362 438.747 295.744C438.444 296.111 438.293 296.66 438.293 297.393C438.293 298.126 438.444 298.683 438.747 299.065C439.065 299.448 439.495 299.639 440.037 299.639C440.578 299.639 441.008 299.448 441.327 299.065C441.646 298.667 441.805 298.11 441.805 297.393C441.805 296.66 441.646 296.111 441.327 295.744C441.008 295.362 440.578 295.171 440.037 295.171ZM445.699 307.475C445.699 306.376 446.026 305.508 446.679 304.871C447.332 304.218 448.168 303.891 449.187 303.891C450.207 303.891 451.035 304.218 451.672 304.871C452.325 305.508 452.652 306.376 452.652 307.475C452.652 308.558 452.325 309.426 451.672 310.079C451.035 310.732 450.207 311.059 449.187 311.059C448.168 311.059 447.332 310.74 446.679 310.103C446.026 309.45 445.699 308.574 445.699 307.475ZM449.163 305.253C448.622 305.253 448.192 305.444 447.873 305.827C447.555 306.193 447.395 306.743 447.395 307.475C447.395 308.192 447.555 308.741 447.873 309.124C448.192 309.49 448.622 309.673 449.163 309.673C449.705 309.673 450.135 309.49 450.454 309.124C450.772 308.741 450.931 308.192 450.931 307.475C450.931 306.743 450.772 306.193 450.454 305.827C450.135 305.444 449.705 305.253 449.163 305.253Z" fill="white"/>
<path d="M427.777 347.6C454.934 347.6 476.948 325.586 476.948 298.43C476.948 271.273 454.934 249.259 427.777 249.259C400.621 249.259 378.606 271.273 378.606 298.43C378.606 325.586 400.621 347.6 427.777 347.6Z" stroke="white" stroke-width="15" stroke-miterlimit="10" stroke-linecap="round"/>
<path d="M476.948 298.429C476.932 311.46 471.744 323.95 462.524 333.158C453.305 342.366 440.807 347.538 427.777 347.538C414.747 347.538 402.25 342.366 393.03 333.158C383.811 323.95 378.623 311.46 378.606 298.429" stroke="#96BAFD" stroke-width="15" stroke-linecap="round" stroke-linejoin="round"/>
<path d="M427.777 249.259C434.235 249.259 440.629 250.53 446.594 253.001C452.56 255.473 457.981 259.094 462.546 263.66C467.112 268.226 470.734 273.647 473.205 279.613C475.676 285.578 476.948 291.972 476.948 298.43" stroke="#FEBB94" stroke-width="15" stroke-linecap="round" stroke-linejoin="round"/>
<path d="M370.307 198.438H402.989" stroke="white" stroke-width="7.4328" stroke-miterlimit="10" stroke-linecap="round"/>
<path opacity="0.4" d="M370.307 213.69H437.848" stroke="white" stroke-width="7.4328" stroke-miterlimit="10" stroke-linecap="round"/>
<path d="M1084.89 858.817H362.321V876.975H1084.89V858.817Z" fill="#1C85E8"/>
<path d="M367.979 400C369.636 400 370.979 398.657 370.979 397C370.979 395.343 369.636 394 367.979 394C366.323 394 364.979 395.343 364.979 397C364.979 398.657 366.323 400 367.979 400Z" fill="#5661AE"/>
</g>
<defs>
<linearGradient id="paint0_linear_75_17172" x1="636.479" y1="154.5" x2="710.932" y2="1218.47" gradientUnits="userSpaceOnUse">
<stop stop-color="white"/>
<stop offset="1" stop-color="#94B9FF"/>
</linearGradient>
<linearGradient id="paint1_linear_75_17172" x1="669.425" y1="83.6383" x2="728.67" y2="720.31" gradientUnits="userSpaceOnUse">
<stop stop-color="white"/>
<stop offset="1" stop-color="#94B9FF"/>
</linearGradient>
<clipPath id="clip0_75_17172">
<rect width="1440" height="1024" fill="white" transform="translate(0.979492)"/>
</clipPath>
</defs>
</svg>
