<svg width="1441" height="1024" viewBox="0 0 1441 1024" fill="none" xmlns="http://www.w3.org/2000/svg">
<g clip-path="url(#clip0_75_16945)">
<path d="M1440.98 0H0.979492V1024H1440.98V0Z" fill="white"/>
<mask id="mask0_75_16945" style="mask-type:luminance" maskUnits="userSpaceOnUse" x="217" y="122" width="1007" height="832">
<path d="M1223.62 122H217.979V953.188H1223.62V122Z" fill="white"/>
</mask>
<g mask="url(#mask0_75_16945)">
<path d="M1002.76 241.975H757.474C751.936 241.975 747.447 246.465 747.447 252.003V425.068C747.447 430.605 751.936 435.095 757.474 435.095H1002.76C1008.29 435.095 1012.78 430.605 1012.78 425.068V252.003C1012.78 246.465 1008.29 241.975 1002.76 241.975Z" fill="#FEBB94"/>
<path d="M782.68 276.773H775.417L774.169 280.317H771.199L777.414 262.946H780.708L786.922 280.317H783.928L782.68 276.773ZM781.881 274.452L779.061 266.39L776.216 274.452H781.881ZM788.676 273.379C788.676 271.998 788.959 270.775 789.525 269.71C790.107 268.645 790.889 267.821 791.871 267.239C792.869 266.64 793.975 266.341 795.19 266.341C796.089 266.341 796.97 266.54 797.836 266.94C798.717 267.322 799.416 267.838 799.932 268.487V261.848H802.802V280.317H799.932V278.245C799.466 278.911 798.817 279.46 797.985 279.893C797.17 280.325 796.23 280.541 795.165 280.541C793.967 280.541 792.869 280.242 791.871 279.643C790.889 279.027 790.107 278.179 789.525 277.097C788.959 275.999 788.676 274.76 788.676 273.379ZM799.932 273.429C799.932 272.48 799.732 271.657 799.333 270.958C798.95 270.259 798.443 269.726 797.811 269.36C797.178 268.994 796.496 268.811 795.764 268.811C795.032 268.811 794.35 268.994 793.718 269.36C793.085 269.71 792.57 270.234 792.17 270.933C791.788 271.615 791.596 272.43 791.596 273.379C791.596 274.327 791.788 275.159 792.17 275.874C792.57 276.59 793.085 277.139 793.718 277.522C794.366 277.888 795.049 278.071 795.764 278.071C796.496 278.071 797.178 277.888 797.811 277.522C798.443 277.156 798.95 276.623 799.333 275.924C799.732 275.209 799.932 274.377 799.932 273.429ZM811.531 280.541C810.449 280.541 809.476 280.35 808.611 279.967C807.762 279.568 807.088 279.036 806.589 278.37C806.09 277.688 805.824 276.931 805.79 276.099H808.735C808.785 276.681 809.06 277.172 809.559 277.571C810.075 277.954 810.715 278.146 811.481 278.146C812.279 278.146 812.895 277.996 813.328 277.696C813.777 277.38 814.001 276.981 814.001 276.498C814.001 275.983 813.752 275.6 813.253 275.35C812.77 275.101 811.997 274.826 810.932 274.527C809.9 274.244 809.06 273.969 808.411 273.703C807.762 273.437 807.196 273.029 806.714 272.48C806.248 271.931 806.015 271.207 806.015 270.309C806.015 269.577 806.231 268.911 806.664 268.312C807.097 267.697 807.712 267.214 808.511 266.865C809.326 266.515 810.258 266.341 811.306 266.341C812.87 266.341 814.126 266.74 815.075 267.539C816.04 268.321 816.555 269.394 816.622 270.758H813.777C813.727 270.142 813.477 269.652 813.028 269.286C812.579 268.92 811.972 268.736 811.206 268.736C810.458 268.736 809.883 268.878 809.484 269.161C809.085 269.444 808.885 269.818 808.885 270.284C808.885 270.65 809.018 270.958 809.284 271.207C809.551 271.457 809.875 271.657 810.258 271.806C810.641 271.939 811.206 272.114 811.955 272.33C812.953 272.597 813.769 272.871 814.401 273.154C815.05 273.42 815.607 273.82 816.073 274.352C816.539 274.884 816.78 275.592 816.797 276.473C816.797 277.255 816.58 277.954 816.148 278.57C815.715 279.185 815.1 279.668 814.301 280.017C813.519 280.367 812.596 280.541 811.531 280.541Z" fill="white"/>
<path d="M930.645 350.122C930.645 360.116 927.681 369.885 922.129 378.195C916.577 386.504 908.685 392.981 899.452 396.805C890.219 400.63 880.059 401.63 870.257 399.681C860.456 397.731 851.452 392.919 844.385 385.852C837.319 378.785 832.506 369.782 830.556 359.98C828.607 350.178 829.607 340.018 833.432 330.785C837.256 321.552 843.733 313.66 852.042 308.108C860.352 302.556 870.121 299.592 880.115 299.592" stroke="white" stroke-width="17.1948" stroke-miterlimit="10"/>
<path d="M889.526 289.93C902.927 289.93 915.78 295.254 925.256 304.73C934.732 314.206 940.056 327.059 940.056 340.46" stroke="#1C85E8" stroke-width="17.1948" stroke-miterlimit="10"/>
<path d="M770.724 398.699H800.3" stroke="white" stroke-width="6.72632" stroke-miterlimit="10" stroke-linecap="round"/>
<path opacity="0.4" d="M770.724 415.257H831.845" stroke="white" stroke-width="6.72632" stroke-miterlimit="10" stroke-linecap="round"/>
<path d="M940.057 398.866H969.633" stroke="white" stroke-width="6.72632" stroke-miterlimit="10" stroke-linecap="round"/>
<path opacity="0.4" d="M940.057 415.424H1001.18" stroke="white" stroke-width="6.72632" stroke-miterlimit="10" stroke-linecap="round"/>
<path d="M311.216 225.879H667.286C676.743 225.879 685.813 229.636 692.5 236.323C699.187 243.01 702.944 252.08 702.944 261.537V282.879H275.558V261.537C275.558 252.08 279.315 243.01 286.002 236.323C292.689 229.636 301.759 225.879 311.216 225.879Z" fill="#1C85E8"/>
<path d="M275.558 282.879H702.944V685.959C702.944 693.472 699.96 700.677 694.648 705.989C689.335 711.301 682.13 714.286 674.617 714.286H303.885C296.372 714.286 289.167 711.301 283.855 705.989C278.542 700.677 275.558 693.472 275.558 685.959V282.879Z" fill="url(#paint0_linear_75_16945)"/>
<path opacity="0.6" d="M493.505 637.444C575.346 637.444 641.692 571.099 641.692 489.257C641.692 407.416 575.346 341.07 493.505 341.07C411.663 341.07 345.318 407.416 345.318 489.257C345.318 571.099 411.663 637.444 493.505 637.444Z" stroke="white" stroke-width="30" stroke-miterlimit="10"/>
<path d="M315.03 264.541C319.861 264.541 323.777 260.625 323.777 255.794C323.777 250.964 319.861 247.048 315.03 247.048C310.199 247.048 306.283 250.964 306.283 255.794C306.283 260.625 310.199 264.541 315.03 264.541Z" fill="white"/>
<path d="M350.357 264.541C355.188 264.541 359.104 260.625 359.104 255.794C359.104 250.964 355.188 247.048 350.357 247.048C345.526 247.048 341.61 250.964 341.61 255.794C341.61 260.625 345.526 264.541 350.357 264.541Z" fill="white"/>
<path d="M383.552 264.541C388.382 264.541 392.298 260.625 392.298 255.794C392.298 250.964 388.382 247.048 383.552 247.048C378.721 247.048 374.805 250.964 374.805 255.794C374.805 260.625 378.721 264.541 383.552 264.541Z" fill="white"/>
<path d="M783.106 464.682H1139.18C1148.63 464.682 1157.7 468.439 1164.39 475.126C1171.08 481.813 1174.83 490.883 1174.83 500.34V521.682H747.447V500.34C747.447 490.883 751.204 481.813 757.891 475.126C764.579 468.439 773.648 464.682 783.106 464.682Z" fill="#1C85E8"/>
<path d="M747.447 521.682H1174.83V924.762C1174.83 932.275 1171.85 939.48 1166.54 944.792C1161.23 950.104 1154.02 953.089 1146.51 953.089H775.774C768.262 953.089 761.056 950.104 755.744 944.792C750.432 939.48 747.447 932.275 747.447 924.762V521.682Z" fill="url(#paint1_linear_75_16945)"/>
<path opacity="0.6" d="M983.344 885.572C1065.19 885.572 1131.53 819.227 1131.53 737.385C1131.53 655.544 1065.19 589.198 983.344 589.198C901.503 589.198 835.157 655.544 835.157 737.385C835.157 819.227 901.503 885.572 983.344 885.572Z" stroke="white" stroke-width="30" stroke-miterlimit="10"/>
<path d="M786.919 503.344C791.75 503.344 795.666 499.428 795.666 494.597C795.666 489.767 791.75 485.851 786.919 485.851C782.089 485.851 778.173 489.767 778.173 494.597C778.173 499.428 782.089 503.344 786.919 503.344Z" fill="white"/>
<path d="M822.248 503.344C827.078 503.344 830.995 499.428 830.995 494.597C830.995 489.767 827.078 485.851 822.248 485.851C817.417 485.851 813.501 489.767 813.501 494.597C813.501 499.428 817.417 503.344 822.248 503.344Z" fill="white"/>
<path d="M855.441 503.344C860.272 503.344 864.188 499.428 864.188 494.597C864.188 489.767 860.272 485.851 855.441 485.851C850.611 485.851 846.695 489.767 846.695 494.597C846.695 499.428 850.611 503.344 855.441 503.344Z" fill="white"/>
<path d="M917.986 774.678L896.911 953.188H981.586L1029.91 775.738L917.986 774.678Z" fill="#1F2D49"/>
<path d="M984.243 943.431L974.284 888.63L994.027 828.798H1024.62L984.243 943.431Z" fill="#0D1B33"/>
<path d="M1074.84 775.738C1074.24 786.452 1074.24 797.191 1074.84 807.904C1077.31 842.534 1070.25 939.882 1070.31 953.188H995.126C994.811 934.754 990.13 776.496 990.13 776.496L1074.84 775.738Z" fill="#1F2D49"/>
<path d="M916.381 787.471L1074.84 807.904V775.738L917.985 774.678L916.381 787.471Z" fill="#0D1B33"/>
<path d="M946.415 593.635C950.838 571.801 940.438 572.363 936.976 568.892C936.976 568.892 923.991 558.184 914.096 568.165C903.623 578.724 843.587 660.741 843.587 660.741L881.152 695.29L888.212 686.864L906.503 665.05L926.066 641.735L928.496 639.081L954.887 609.19C954.887 609.19 943.915 605.129 946.415 593.635Z" fill="#FEBB94"/>
<path d="M962.127 597.355C967.191 582.237 959.04 565.876 943.921 560.812C928.803 555.749 912.442 563.899 907.379 579.018C902.315 594.136 910.466 610.497 925.584 615.561C940.702 620.624 957.063 612.473 962.127 597.355Z" fill="#FEBB94"/>
<path d="M928.151 638.965C928.908 634.402 930.424 625.275 932.053 616.957L940.721 576.697C940.721 576.697 917.443 611.1 906.72 635.063C898.778 653.021 889.565 671.323 888.041 686.806L906.33 664.992L925.893 641.677L928.151 638.965Z" fill="#FF967C"/>
<path d="M852.713 554.427C850.758 535.963 855.782 535.068 855.851 525.057C855.886 515.275 870.658 497.164 863.612 497.53C856.567 497.896 851.62 504.629 851.62 504.629C850.575 495.853 852.34 481.249 843.36 475.738C834.379 470.228 832.265 472.895 824.952 475.087C805.43 481.082 816.327 506.915 816.527 515.101C816.704 520.254 825.766 539.526 826.177 543.082L829.063 556.788L852.713 554.427Z" fill="#FFCCB3"/>
<path d="M841.586 501.527L838.917 475.024" stroke="#E56441" stroke-width="1.20133" stroke-linecap="round"/>
<path d="M832.454 501.821L828.111 476.362" stroke="#E56441" stroke-width="1.20133" stroke-linecap="round"/>
<path d="M821.725 501.88L819.53 486.644" stroke="#E56441" stroke-width="1.20133" stroke-linecap="round"/>
<path d="M836.524 521.76C839.714 514.304 847.99 507.127 847.99 507.127L836.524 521.76Z" fill="#E56441"/>
<path d="M836.524 521.76C839.714 514.304 847.99 507.127 847.99 507.127" stroke="#E56441" stroke-width="1.20133" stroke-linecap="round"/>
<path d="M886.917 668.103L855.68 544.787C855.461 544.047 854.977 543.415 854.32 543.012C853.663 542.609 852.88 542.463 852.122 542.603L828.566 547.093C827.44 547.32 826.44 547.958 825.758 548.882C825.077 549.806 824.763 550.95 824.878 552.092L837.856 680.304L886.917 668.103Z" fill="#FEBB94"/>
<path d="M863.087 702.564C877.214 702.564 888.667 691.111 888.667 676.984C888.667 662.856 877.214 651.404 863.087 651.404C848.959 651.404 837.507 662.856 837.507 676.984C837.507 691.111 848.959 702.564 863.087 702.564Z" fill="#FEBB94"/>
<path d="M966.35 548.002C966.35 548.002 937.108 556.63 929.749 559.708C922.391 562.786 921.9 575.099 921.41 583.82C921.066 589.93 919.91 682.363 920.364 740.476C920.461 752.891 918.146 760.768 916.659 767.668C916.251 769.507 916.03 771.382 916 773.265C915.99 773.926 916.111 774.583 916.356 775.198C916.601 775.813 916.965 776.373 917.427 776.847C917.889 777.321 918.44 777.699 919.049 777.959C919.657 778.22 920.311 778.357 920.972 778.365L1070.68 779.764C1070.68 779.764 1077.32 780.729 1075.72 773.154C1074.13 764.869 1073.26 756.463 1073.12 748.029C1071.62 687.671 1071.34 586.587 1070.69 581.802C1069.71 574.62 1077.42 568.435 1069.06 564.819L1028.69 550.133L966.35 548.002Z" fill="#FEBB94"/>
<path d="M1041.13 614.722C1041.13 614.722 1043.4 698.383 1042.92 726.269C1042.63 743.646 1022.76 751.006 1022.7 761.068C1022.67 767.02 1038.76 763.317 1045.86 761.003C1061.83 755.8 1072.34 762.868 1072.34 762.868L1068.08 610.416L1041.13 614.722Z" fill="#FF967C"/>
<path d="M973.107 518.435L982.033 565.062L985.187 568.399C985.187 568.399 983.938 569.893 987.525 566.296C995.983 557.816 1018.26 547.481 1017.34 544.151C1016.02 539.379 1012.19 509.656 1012.19 509.656L973.107 518.435Z" fill="#FFCCB3"/>
<path d="M972.743 521.533H996.262L970.428 561.661L972.743 521.533Z" fill="#FF967C"/>
<path d="M1040.85 501.232C1047.72 484.211 1026.73 482.052 1023.1 481.828C1019.47 481.603 1021.9 454.066 1021.9 454.066C1021.9 454.066 984.804 435.379 974.328 439.832C974.328 439.832 959.289 470.962 952.181 491.653C945.074 512.343 948.145 523.478 955.609 526.49C965.508 531.488 978.512 533.076 987.809 530.777C1004.37 526.683 1014.88 513.465 1014.88 513.465C1015.16 513.425 1015.32 513.406 1015.32 513.406C1015.32 513.406 1034.37 517.307 1040.85 501.232Z" fill="#FFCCB3"/>
<path d="M1030.88 516.19C1044.27 506.845 1055.53 496.397 1057.66 483.137C1061.96 456.419 1046.97 449.961 1046.97 449.961C1056.94 431.029 1034.2 420.802 1022.47 416.985C983.701 404.369 960.063 418.059 958.412 433.062C957.712 439.345 958.721 445.233 961.906 450.062C961.798 454.693 962.277 459.318 963.333 463.828L969.742 451.968C970.997 453.578 972.644 454.839 974.527 455.629C995.585 465.663 1017.19 454.54 1017.19 454.54C1008.77 464.271 1008.71 485.815 1009.25 490.315C1010.03 496.803 1014.04 492.063 1014.04 492.063C1017.99 485.685 1032.67 481.033 1036.51 494.262C1039.51 504.571 1012.47 514.716 1012.47 514.716L1015.18 530.778C1020.22 531.81 1019.47 526.483 1020.81 528.261C1022.15 530.04 1024.99 531.184 1025.54 525.728C1026.09 520.273 1030.89 516.184 1030.89 516.184L1030.88 516.19Z" fill="#BC775C"/>
<path d="M988.935 485.662C990.147 483.319 989.884 480.777 988.349 479.983C986.815 479.19 984.59 480.445 983.378 482.787C982.167 485.129 982.428 487.671 983.962 488.465C985.497 489.259 987.724 488.004 988.935 485.662Z" fill="#080B09"/>
<path d="M967.861 474.589C969.072 472.247 968.81 469.705 967.276 468.911C965.741 468.117 963.515 469.373 962.303 471.715C961.092 474.057 961.354 476.599 962.888 477.393C964.423 478.186 966.649 476.931 967.861 474.589Z" fill="#080B09"/>
<path d="M970.521 482.386C970.521 482.386 971.866 488.498 967.819 487.499C963.989 486.413 961.142 488.068 964.144 492.379" stroke="#E56441" stroke-width="1.20133" stroke-linecap="round"/>
<path d="M963.429 497.446L963.445 497.453L963.459 497.458C965.799 498.27 970.471 499.892 973.562 501.022L973.567 501.024C973.667 501.06 973.756 501.122 973.823 501.204C973.891 501.287 973.934 501.386 973.949 501.492C973.964 501.597 973.949 501.705 973.907 501.803C973.867 501.897 973.802 501.98 973.719 502.041C972.814 502.622 971.649 503.291 970.414 503.806C969.168 504.327 967.888 504.674 966.752 504.644C965.636 504.615 964.674 504.225 963.976 503.273C963.26 502.295 962.772 500.658 962.787 498.032L962.789 497.992L962.781 497.952C962.769 497.87 962.778 497.785 962.809 497.707C962.84 497.629 962.892 497.561 962.958 497.509C963.024 497.458 963.101 497.425 963.184 497.414C963.267 497.403 963.352 497.414 963.429 497.446Z" fill="#E56441" stroke="#E56441"/>
<path d="M998.952 479.562L998.608 479.952C998.156 480.566 997.479 480.975 996.727 481.092C995.974 481.208 995.206 481.023 994.589 480.575L984.201 472.599C983.682 472.234 983.319 471.687 983.184 471.067C983.049 470.447 983.153 469.799 983.473 469.252C983.653 468.907 983.905 468.605 984.211 468.364C984.517 468.124 984.87 467.951 985.248 467.858C985.625 467.764 986.018 467.752 986.401 467.822C986.784 467.891 987.147 468.041 987.468 468.262L998.201 475.847C998.499 476.037 998.756 476.286 998.956 476.577C999.156 476.869 999.295 477.198 999.365 477.545C999.435 477.892 999.435 478.249 999.364 478.595C999.293 478.942 999.153 479.271 998.952 479.562Z" fill="#080B09"/>
<path d="M962.435 458.093L975.329 460.639C975.71 460.719 976.069 460.879 976.383 461.108C976.697 461.338 976.96 461.631 977.152 461.969C977.345 462.307 977.463 462.682 977.5 463.069C977.537 463.456 977.491 463.847 977.366 464.215C977.19 464.825 976.792 465.346 976.25 465.676C975.708 466.006 975.062 466.12 974.439 465.996L961.5 463.969C960.751 463.831 960.087 463.403 959.652 462.777C959.218 462.151 959.048 461.379 959.181 460.629L959.226 460.11C959.299 459.764 959.44 459.436 959.642 459.146C959.845 458.855 960.103 458.609 960.402 458.42C960.702 458.232 961.036 458.106 961.386 458.05C961.735 457.994 962.092 458.008 962.435 458.093Z" fill="#080B09"/>
<path d="M1025.52 618.766L929.826 627.054C926.853 627.312 924.651 629.931 924.909 632.904L935.323 753.144C935.58 756.117 938.199 758.319 941.172 758.061L1036.86 749.773C1039.84 749.516 1042.04 746.897 1041.78 743.924L1031.37 623.683C1031.11 620.71 1028.49 618.509 1025.52 618.766Z" fill="#1C85E8"/>
<path d="M939.819 641.08L979.279 637.663" stroke="white" stroke-width="5.04786" stroke-miterlimit="10" stroke-linecap="round"/>
<path d="M941.338 655.296L959.325 653.738" stroke="white" stroke-width="5.04786" stroke-miterlimit="10" stroke-linecap="round"/>
<path d="M1071.38 588.352C1056.65 569.908 1050.03 578.741 1044.85 579.192C1044.85 579.192 1027.32 582.459 1028.7 597.287C1030.16 612.978 1055.96 717.54 1055.96 717.54L1110.1 713.471L1107.53 699.052L1102.25 669.355L1096.62 637.603L1096.11 633.823L1089.78 592.05C1089.78 592.05 1079.01 598.202 1071.38 588.352Z" fill="#FEBB94"/>
<path d="M1075.02 620.191C1089.42 611.352 1093.92 592.516 1085.09 578.119C1076.25 563.722 1057.41 559.216 1043.01 568.055C1028.62 576.893 1024.11 595.73 1032.95 610.127C1041.79 624.524 1060.62 629.03 1075.02 620.191Z" fill="#FEBB94"/>
<path d="M945.414 721.881L911.273 724.421L903.203 743.456L905.961 766.954C905.961 766.954 911.836 764.56 912.444 756.248C913.052 747.936 940.23 753.833 947.335 744.703" fill="#FFCCB3"/>
<path d="M1075.64 691.091L943.184 716.06C942.388 716.243 941.688 716.714 941.219 717.382C940.75 718.051 940.544 718.869 940.643 719.68L943.849 744.886C944.016 746.091 944.625 747.191 945.558 747.972C946.49 748.753 947.68 749.16 948.896 749.112L1085.34 743.775L1075.64 691.091Z" fill="#FEBB94"/>
<path d="M1083.48 743.978C1098.45 743.978 1110.58 731.843 1110.58 716.874C1110.58 701.905 1098.45 689.77 1083.48 689.77C1068.51 689.77 1056.37 701.905 1056.37 716.874C1056.37 731.843 1068.51 743.978 1083.48 743.978Z" fill="#FEBB94"/>
<path d="M540.094 491.147L586.173 685.728L589.493 714.286H510.92L458.972 588.628L468.568 494.474L540.094 491.147Z" fill="#1F2D49"/>
<path d="M491.313 666.86L502.676 570.722L506.436 703.44L491.313 666.86Z" fill="#0D1B33"/>
<path d="M415.716 490.54C415.716 490.54 394.23 526.632 393.948 556.857C393.525 602.221 390.291 714.286 390.291 714.286H485.09L502.677 570.722L477.276 490.54H415.716Z" fill="#1F2D49"/>
<path d="M540.093 491.147L414.975 492.433L402.816 517.595L542.207 500.076L540.093 491.147Z" fill="#0D1B33"/>
<path d="M684.4 290.462L691.061 276.499C692.39 273.281 694.474 270.43 697.138 268.187C701.205 264.883 707.273 259.055 708.765 254.242C711.299 246.557 723.157 224.689 706.187 213.494C699.909 209.367 701.462 210.328 691.277 212.751C681.092 215.173 681.874 226.125 678.305 234.199C678.305 234.199 675.383 226.446 668.927 224.039C662.47 221.632 671.17 243.146 668.703 252.577C666.237 262.007 670.456 264.431 663.463 281.588L684.4 290.462Z" fill="#FFCCB3"/>
<path d="M693.103 213.628L688.975 234.311" stroke="#E56441" stroke-width="1.20536" stroke-linecap="round"/>
<path d="M704.677 214.578L697.615 237.192" stroke="#E56441" stroke-width="1.20536" stroke-linecap="round"/>
<path d="M714.394 226.264L707.979 240.252" stroke="#E56441" stroke-width="1.20536" stroke-linecap="round"/>
<path d="M681.39 237.995C681.39 237.995 687.134 247.283 688.285 255.35L681.39 237.995Z" fill="#E56441"/>
<path d="M681.39 237.995C681.39 237.995 687.134 247.283 688.285 255.35" stroke="#E56441" stroke-width="1.20536" stroke-linecap="round"/>
<path d="M505.175 309.766C515.286 307.553 530.5 306.301 537.651 310.918L608.852 360.137L664.43 269.303L689.309 283.067L638.167 397.395C630.648 416.88 611.903 416.588 600.449 409.943L563.297 391.783L505.175 309.766Z" fill="#5661AE"/>
<path d="M550.395 357.027C550.395 357.027 550.255 351.17 564.067 373.739L600.45 409.943L563.299 391.783C529.332 378.134 539.958 362.432 550.395 357.027Z" fill="#465393"/>
<path d="M504.432 296.16C504.432 296.16 529.655 306.14 533.506 309.221C537.357 312.301 541.014 337.444 547.56 349.382C554.107 361.32 563.685 383.354 549.696 403.593C535.707 423.832 537.195 439.905 537.195 439.905L540.172 490.675L419.618 492.897C418.557 492.93 417.5 492.738 416.518 492.332C415.537 491.927 414.652 491.318 413.924 490.545C413.195 489.772 412.639 488.854 412.292 487.85C411.944 486.846 411.814 485.78 411.91 484.722C413.249 469.92 419.368 449.132 419.849 425.562C420.501 393.618 420.989 286.881 420.989 286.881L473.505 285.233C484.083 287.057 504.432 296.16 504.432 296.16Z" fill="#5661AE"/>
<path d="M548.881 404.795C548.881 404.795 532.436 408.331 518.786 409.041C505.135 409.751 512.23 420.381 524.765 421.687C537.299 422.994 539.728 423.888 539.728 423.888C541.999 417.178 545.072 410.767 548.881 404.795Z" fill="#465393"/>
<path d="M417.867 448.084L413.646 472.557C413.646 472.557 416.43 479.857 429.417 484.335C442.404 488.812 454.048 487.468 461.66 478.959C469.273 470.45 495.798 431.153 495.798 431.153L417.867 448.084Z" fill="#465393"/>
<path d="M441.657 330.513C441.657 330.513 459.226 346.532 460.26 358.416C461.293 370.301 463.683 403.439 486.261 406.744C513.936 410.795 521.18 414.74 508.351 417.84C495.522 420.941 466.405 415.917 466.405 429.208C466.405 438.667 455.092 445.744 449.408 440.576C443.724 435.409 398.451 356.866 441.657 330.513Z" fill="#465393"/>
<path d="M558.5 307.505L544.795 337.134L569.603 347.742L584.418 314.103L558.5 307.505Z" fill="#96BAFD"/>
<path d="M554.015 322.229L579.17 326.642L576.002 332.58L554.015 324.914V322.229Z" fill="#96BAFD"/>
<path d="M568.075 275.285C561.483 272.775 554.105 276.084 551.596 282.675L549.353 288.567C546.843 295.158 550.152 302.536 556.744 305.045C563.335 307.555 570.713 304.246 573.223 297.655L575.465 291.763C577.975 285.172 574.666 277.794 568.075 275.285Z" fill="#1C85E8"/>
<path d="M598.596 278.63C633.598 293.118 669.191 280.855 669.191 280.855L634.701 371.143C634.701 371.143 611.769 334.252 581.762 322.846C570.705 318.644 598.596 278.63 598.596 278.63Z" fill="#96BAFD"/>
<path d="M664.138 330.71C673.727 305.526 676.717 283.289 670.816 281.042C664.916 278.796 652.36 297.391 642.772 322.575C633.184 347.759 630.194 369.996 636.094 372.242C641.994 374.489 654.55 355.894 664.138 330.71Z" fill="white"/>
<path d="M664.14 330.707C673.728 305.523 677.408 283.549 672.359 281.627C667.309 279.704 655.443 298.562 645.855 323.746C636.267 348.93 632.587 370.904 637.636 372.827C642.685 374.749 654.551 355.892 664.14 330.707Z" fill="#1C85E8"/>
<path d="M579.49 271.356L603.65 280.554L586.816 324.771L562.656 315.572C561.171 315.007 559.813 314.155 558.658 313.065C557.503 311.975 556.573 310.667 555.923 309.218C555.273 307.769 554.915 306.206 554.869 304.618C554.823 303.03 555.091 301.449 555.656 299.965L563.883 278.356C564.448 276.872 565.3 275.513 566.39 274.358C567.48 273.203 568.788 272.273 570.237 271.623C571.686 270.973 573.249 270.615 574.837 270.569C576.425 270.523 578.006 270.791 579.49 271.356Z" fill="url(#paint2_linear_75_16945)"/>
<path d="M585.753 283.323L573.549 278.676C572.512 278.281 571.35 278.802 570.955 279.84C570.56 280.878 571.081 282.039 572.119 282.434L584.323 287.081C585.36 287.476 586.522 286.955 586.917 285.917C587.312 284.879 586.791 283.718 585.753 283.323Z" fill="white"/>
<path d="M581.695 291.678L569.491 287.031C568.453 286.636 567.292 287.157 566.896 288.195C566.501 289.233 567.022 290.394 568.06 290.789L580.264 295.436C581.302 295.831 582.463 295.31 582.858 294.272C583.253 293.234 582.732 292.073 581.695 291.678Z" fill="white"/>
<path d="M650.508 312.411L652.003 313.032C654.24 313.962 656.031 315.717 657.008 317.934C657.985 320.151 658.071 322.658 657.248 324.936C656.806 326.158 656.118 327.276 655.224 328.219C654.33 329.162 653.25 329.909 652.053 330.415C650.856 330.921 649.567 331.174 648.268 331.158C646.969 331.142 645.687 330.857 644.503 330.322L643.604 329.916C643.604 329.916 646.263 319.689 650.508 312.411Z" fill="url(#paint3_linear_75_16945)"/>
<path d="M526.428 359.033L538.01 345.975C538.01 345.975 536.958 334.392 538.01 329.969C539.063 325.547 539.062 323.651 542.011 321.334C544.959 319.018 554.015 314.384 554.015 314.384V324.914L581.311 332.391C581.311 332.391 585.302 338.731 579.17 342.195C582.587 347.344 578.376 351.632 578.376 351.632C578.376 351.632 580.54 357.52 575.172 358.646C575.172 358.646 576.125 363.061 570.317 364.928C570.317 364.928 568.592 367.824 561.666 368.69C559.759 368.928 554.016 369.446 554.016 369.446L543.066 380.303L526.428 359.033Z" fill="#FFCCB3"/>
<path d="M529.281 355.816L549.51 373.913L551.788 371.655L530.642 354.281L529.281 355.816Z" fill="#FCBA9F"/>
<path d="M578.626 342.206C578.626 342.206 572.584 341.65 569.727 340.622L578.626 342.206Z" fill="#E56441"/>
<path d="M578.626 342.206C578.626 342.206 572.584 341.65 569.727 340.622" stroke="#E56441" stroke-width="1.20536" stroke-linecap="round"/>
<path d="M577.502 351.452C577.502 351.452 571.459 350.896 568.603 349.868L577.502 351.452Z" fill="#E56441"/>
<path d="M577.502 351.452C577.502 351.452 571.459 350.896 568.603 349.868" stroke="#E56441" stroke-width="1.20536" stroke-linecap="round"/>
<path d="M575.127 358.483C575.127 358.483 569.084 357.927 566.228 356.899L575.127 358.483Z" fill="#E56441"/>
<path d="M575.127 358.483C575.127 358.483 569.084 357.927 566.228 356.899" stroke="#E56441" stroke-width="1.20536" stroke-linecap="round"/>
<path d="M569.727 364.885C569.727 364.885 563.685 364.329 560.828 363.301L569.727 364.885Z" fill="#E56441"/>
<path d="M569.727 364.885C569.727 364.885 563.685 364.329 560.828 363.301" stroke="#E56441" stroke-width="1.20536" stroke-linecap="round"/>
<path d="M447.634 311.874C447.634 311.874 442.37 282.27 418.687 286.668C402.809 289.617 396.589 298.476 398.885 322.092C400.489 338.603 412.456 412.238 416.759 442.319C421.175 473.192 448.651 478.638 467.197 463.285L553.249 377.257L526.768 353.569L460.228 408.302L447.634 311.874Z" fill="#5661AE"/>
<path fill-rule="evenodd" clip-rule="evenodd" d="M530.636 307.505L506.614 297.033C502.306 318.316 504.148 313.818 501.18 315.42C501.18 315.42 475.836 316.386 469.305 285.464L441.483 286.387C441.483 286.387 433.678 307.667 466.846 317.998C461.629 330.468 479.975 351.799 503.403 327.766C519.638 351.967 530.549 329.393 522.71 320.631C534.428 313.809 530.636 307.505 530.636 307.505Z" fill="white"/>
<path d="M507.624 269.566L506.206 309.252C506.206 309.252 508.147 317.943 499.228 316.978C490.309 316.014 478.302 308.991 471.552 301.277C464.803 293.564 465.263 292.945 468.155 287.883C471.048 282.821 484.63 244.24 484.63 244.24L507.624 269.566Z" fill="#FFCCB3"/>
<path d="M507.422 272.894L490.977 262.421C490.977 262.421 498.263 294.402 506.207 309.252L507.422 272.894Z" fill="#FCBA9F"/>
<path d="M489.047 164.721C489.499 157.098 487.837 149.499 484.243 142.762C478.296 132.011 465.944 117.142 447.187 123.547C428.43 129.952 414.706 144.363 421.797 164.721C428.888 185.079 448.587 191.594 458.624 189.425C468.661 187.256 489.047 164.721 489.047 164.721Z" fill="#493212"/>
<path d="M495.088 167.552C494.008 165.73 492.391 164.287 490.459 163.42C488.527 162.553 486.374 162.305 484.295 162.709C476.873 164.077 469.061 169.936 462.42 176.968C455.779 183.999 455.995 189.102 459.012 192.215C462.029 195.327 495.088 167.552 495.088 167.552Z" fill="#1C85E8"/>
<path d="M550.322 214.072C550.322 214.072 546.364 252.309 527.76 269.72C515.627 281.075 504.502 278.166 487.913 255.442C472.702 234.607 471.365 224.474 471.365 224.474L487.44 188.305C487.44 188.305 552.214 179.085 550.322 214.072Z" fill="#FFCCB3"/>
<path d="M543.74 206.585C543.74 206.585 534.587 221.156 517.82 221.392C517.82 221.392 507.716 230.86 492.317 225.879C492.317 225.879 499.003 215.736 492.317 212.182C480.963 206.147 477.052 226.271 483.107 233.28C487.222 238.043 487.456 246.678 484.386 251.637C481.316 256.596 476.883 265.787 476.883 265.787C476.883 265.787 467.976 258.506 463.271 253.507C446.906 236.118 444.23 195.125 471.265 175.561C498.299 155.996 526.757 171.648 532.092 175.561C532.092 175.561 560.499 180.522 560.55 210.065C560.593 235.321 542.617 241.33 542.617 241.33L547.982 220.943C547.982 220.943 544.664 221.299 543.74 206.585Z" fill="#493212"/>
<path d="M513.87 254.41L525.933 260.328C525.879 260.389 525.819 260.456 525.753 260.526C525.381 260.923 524.839 261.436 524.157 261.9C522.797 262.824 520.925 263.53 518.728 262.816C515.346 261.364 514.197 259.115 513.86 257.254C513.688 256.307 513.725 255.446 513.806 254.821C513.826 254.668 513.848 254.531 513.87 254.41Z" fill="#E56441" stroke="#E56441"/>
<path d="M542.108 240.785C542.647 238.604 541.883 236.539 540.403 236.173C538.923 235.808 537.286 237.28 536.748 239.462C536.209 241.643 536.972 243.708 538.453 244.073C539.933 244.439 541.569 242.966 542.108 240.785Z" fill="#080B09"/>
<path d="M520.162 235.699C520.701 233.518 519.937 231.453 518.457 231.087C516.977 230.722 515.34 232.194 514.802 234.376C514.263 236.557 515.027 238.622 516.507 238.987C517.987 239.353 519.624 237.88 520.162 235.699Z" fill="#080B09"/>
<path d="M546.967 232.311L535.799 229.747C535.612 229.688 535.454 229.563 535.353 229.395C535.252 229.228 535.215 229.03 535.249 228.837C535.373 228.509 535.562 228.209 535.805 227.956C536.049 227.703 536.341 227.501 536.664 227.364C536.987 227.227 537.335 227.157 537.686 227.158C538.037 227.158 538.384 227.23 538.707 227.369L547.465 231.079C548.194 231.259 547.879 232.536 546.967 232.311Z" fill="#080B09"/>
<path d="M509.466 222.314L524.012 226.872C524.109 226.418 524.11 225.949 524.015 225.494C523.919 225.04 523.73 224.61 523.458 224.233C523.187 223.856 522.839 223.54 522.438 223.306C522.037 223.072 521.592 222.924 521.13 222.872L509.508 221.357C509.144 221.267 508.919 222.179 509.466 222.314Z" fill="#080B09"/>
<path d="M530.62 236.779L532.198 248.556L528.038 250.564" stroke="#E56441" stroke-width="1.22499" stroke-linecap="round"/>
<path d="M688.363 743.984H288.342C281.282 743.984 275.558 749.708 275.558 756.768V881.686C275.558 888.747 281.282 894.471 288.342 894.471H688.363C695.423 894.471 701.147 888.747 701.147 881.686V756.768C701.147 749.708 695.423 743.984 688.363 743.984Z" fill="#1C85E8"/>
<path d="M368.046 509.337H224.739C221.005 509.337 217.979 512.364 217.979 516.097V563.962C217.979 567.695 221.005 570.722 224.739 570.722H368.046C371.779 570.722 374.805 567.695 374.805 563.962V516.097C374.805 512.364 371.779 509.337 368.046 509.337Z" fill="#FEBB94"/>
<path d="M407.85 818.486H417.878C418.754 818.484 419.595 818.135 420.214 817.515C420.834 816.894 421.182 816.053 421.182 815.176C421.182 814.299 420.834 813.458 420.214 812.838C419.595 812.217 418.754 811.868 417.878 811.866H407.85C406.972 811.866 406.131 812.215 405.51 812.836C404.889 813.456 404.542 814.298 404.542 815.176C404.542 816.054 404.889 816.896 405.51 817.516C406.131 818.137 406.972 818.486 407.85 818.486Z" fill="white"/>
<path d="M388.599 782.587C388.599 782.056 388.472 781.533 388.227 781.062C387.982 780.59 387.627 780.185 387.193 779.879C386.758 779.574 386.256 779.378 385.73 779.307C385.204 779.236 384.668 779.293 384.168 779.473L322.041 801.839H307.578C306.7 801.839 305.858 802.188 305.238 802.809C304.617 803.429 304.268 804.271 304.268 805.149V825.203C304.268 826.081 304.617 826.923 305.238 827.544C305.858 828.164 306.7 828.513 307.578 828.513H319.309V855.285C319.309 855.72 319.395 856.151 319.561 856.552C319.727 856.954 319.971 857.319 320.278 857.626C320.586 857.933 320.951 858.177 321.352 858.343C321.754 858.51 322.184 858.595 322.619 858.595H340.166C340.601 858.595 341.032 858.509 341.433 858.343C341.835 858.177 342.2 857.933 342.507 857.626C342.814 857.318 343.058 856.953 343.224 856.552C343.391 856.15 343.476 855.72 343.476 855.285V836.23L384.168 850.879C384.668 851.059 385.204 851.116 385.73 851.045C386.256 850.974 386.758 850.778 387.192 850.473C387.627 850.167 387.982 849.762 388.227 849.29C388.471 848.819 388.599 848.296 388.599 847.765V782.587ZM310.888 821.893V808.458H319.309V821.893H310.888ZM336.857 851.975H325.929V829.913L336.857 833.846V851.975ZM325.929 822.877V807.475L381.98 787.297V843.056L325.929 822.877Z" fill="white"/>
<path d="M407.685 840.411L402.671 835.397C402.364 835.09 401.999 834.846 401.597 834.68C401.196 834.513 400.766 834.428 400.331 834.428C399.896 834.428 399.466 834.513 399.064 834.68C398.663 834.846 398.298 835.09 397.99 835.397C397.683 835.704 397.439 836.069 397.273 836.471C397.107 836.872 397.021 837.303 397.021 837.737C397.021 838.172 397.107 838.603 397.273 839.004C397.439 839.406 397.683 839.77 397.99 840.078L403.004 845.092C403.312 845.399 403.676 845.643 404.078 845.809C404.48 845.975 404.91 846.061 405.345 846.061C405.779 846.061 406.21 845.975 406.611 845.809C407.013 845.643 407.378 845.399 407.685 845.092C407.992 844.784 408.236 844.419 408.402 844.018C408.569 843.616 408.654 843.186 408.654 842.751C408.654 842.317 408.569 841.886 408.402 841.485C408.236 841.083 407.992 840.718 407.685 840.411Z" fill="white"/>
<path d="M397.99 794.955C398.611 795.576 399.453 795.924 400.331 795.924C401.209 795.924 402.051 795.576 402.671 794.955L407.685 789.941C408.306 789.321 408.654 788.479 408.654 787.601C408.654 786.723 408.306 785.881 407.685 785.261C407.064 784.64 406.222 784.291 405.344 784.291C404.467 784.291 403.625 784.64 403.004 785.261L397.99 790.274C397.37 790.895 397.021 791.737 397.021 792.615C397.021 793.492 397.37 794.334 397.99 794.955Z" fill="white"/>
<path d="M462.606 785.244H528.07" stroke="white" stroke-width="14.8881" stroke-miterlimit="10" stroke-linecap="round"/>
<path d="M462.606 858.543H583.918" stroke="white" stroke-width="14.8881" stroke-miterlimit="10" stroke-linecap="round"/>
<path opacity="0.4" d="M462.606 821.893H617.892" stroke="white" stroke-width="14.8881" stroke-miterlimit="10" stroke-linecap="round"/>
<path d="M1216.31 611.421H1142.54C1138.51 611.421 1135.24 614.691 1135.24 618.724V686.033C1135.24 690.066 1138.51 693.336 1142.54 693.336H1216.31C1220.35 693.336 1223.62 690.066 1223.62 686.033V618.724C1223.62 614.691 1220.35 611.421 1216.31 611.421Z" fill="#1C85E8"/>
<path d="M286.011 552.964C284.864 552.964 283.831 552.767 282.913 552.374C281.995 551.964 281.274 551.391 280.749 550.653C280.225 549.915 279.962 549.055 279.962 548.071H282.962C283.028 548.809 283.315 549.415 283.823 549.891C284.347 550.366 285.077 550.604 286.011 550.604C286.978 550.604 287.732 550.374 288.273 549.915C288.814 549.44 289.085 548.833 289.085 548.096C289.085 547.522 288.912 547.055 288.568 546.694C288.24 546.334 287.822 546.055 287.314 545.858C286.823 545.662 286.134 545.448 285.249 545.219C284.134 544.924 283.224 544.629 282.52 544.334C281.831 544.022 281.241 543.547 280.749 542.908C280.258 542.268 280.012 541.416 280.012 540.351C280.012 539.367 280.258 538.506 280.749 537.769C281.241 537.031 281.93 536.466 282.815 536.072C283.7 535.679 284.724 535.482 285.888 535.482C287.544 535.482 288.896 535.9 289.945 536.736C291.011 537.556 291.601 538.687 291.716 540.129H288.617C288.568 539.506 288.273 538.974 287.732 538.531C287.191 538.088 286.478 537.867 285.593 537.867C284.79 537.867 284.134 538.072 283.626 538.482C283.118 538.892 282.864 539.482 282.864 540.252C282.864 540.777 283.02 541.211 283.331 541.555C283.659 541.883 284.069 542.145 284.56 542.342C285.052 542.539 285.724 542.752 286.577 542.981C287.708 543.293 288.626 543.604 289.33 543.916C290.052 544.227 290.658 544.711 291.15 545.366C291.658 546.006 291.912 546.866 291.912 547.948C291.912 548.817 291.675 549.637 291.199 550.407C290.74 551.177 290.06 551.8 289.158 552.276C288.273 552.735 287.224 552.964 286.011 552.964ZM302.227 539.023C303.26 539.023 304.178 539.244 304.981 539.687C305.801 540.129 306.44 540.785 306.899 541.654C307.374 542.522 307.612 543.572 307.612 544.801V552.792H304.834V545.219C304.834 544.006 304.53 543.08 303.924 542.441C303.317 541.785 302.489 541.457 301.44 541.457C300.391 541.457 299.555 541.785 298.932 542.441C298.326 543.08 298.023 544.006 298.023 545.219V552.792H295.22V534.597H298.023V540.818C298.498 540.244 299.096 539.801 299.818 539.49C300.555 539.179 301.358 539.023 302.227 539.023ZM310.253 545.957C310.253 544.596 310.532 543.391 311.089 542.342C311.663 541.293 312.433 540.482 313.4 539.908C314.384 539.318 315.466 539.023 316.646 539.023C317.711 539.023 318.638 539.236 319.424 539.662C320.228 540.072 320.867 540.588 321.342 541.211V539.244H324.17V552.792H321.342V550.776C320.867 551.415 320.219 551.948 319.4 552.374C318.58 552.8 317.646 553.013 316.597 553.013C315.433 553.013 314.367 552.718 313.4 552.128C312.433 551.522 311.663 550.686 311.089 549.62C310.532 548.538 310.253 547.317 310.253 545.957ZM321.342 546.006C321.342 545.071 321.146 544.26 320.752 543.572C320.375 542.883 319.875 542.359 319.252 541.998C318.629 541.637 317.957 541.457 317.236 541.457C316.515 541.457 315.843 541.637 315.22 541.998C314.597 542.342 314.089 542.858 313.695 543.547C313.318 544.219 313.13 545.022 313.13 545.957C313.13 546.891 313.318 547.711 313.695 548.415C314.089 549.12 314.597 549.661 315.22 550.038C315.859 550.399 316.531 550.579 317.236 550.579C317.957 550.579 318.629 550.399 319.252 550.038C319.875 549.678 320.375 549.153 320.752 548.465C321.146 547.76 321.342 546.94 321.342 546.006ZM330.655 541.211C331.064 540.523 331.605 539.99 332.277 539.613C332.966 539.219 333.777 539.023 334.712 539.023V541.924H333.998C332.9 541.924 332.064 542.203 331.491 542.76C330.933 543.317 330.655 544.285 330.655 545.662V552.792H327.851V539.244H330.655V541.211ZM349.705 545.686C349.705 546.194 349.672 546.653 349.607 547.063H339.255C339.337 548.145 339.739 549.014 340.46 549.669C341.181 550.325 342.066 550.653 343.115 550.653C344.623 550.653 345.689 550.022 346.312 548.76H349.336C348.926 550.005 348.181 551.03 347.099 551.833C346.033 552.62 344.705 553.013 343.115 553.013C341.82 553.013 340.657 552.726 339.624 552.153C338.608 551.563 337.804 550.743 337.214 549.694C336.641 548.628 336.354 547.399 336.354 546.006C336.354 544.612 336.632 543.391 337.19 542.342C337.763 541.277 338.558 540.457 339.575 539.883C340.607 539.31 341.788 539.023 343.115 539.023C344.394 539.023 345.533 539.301 346.533 539.859C347.533 540.416 348.312 541.203 348.869 542.219C349.426 543.219 349.705 544.375 349.705 545.686ZM346.779 544.801C346.763 543.768 346.394 542.94 345.673 542.318C344.951 541.695 344.058 541.383 342.992 541.383C342.025 541.383 341.198 541.695 340.509 542.318C339.821 542.924 339.411 543.752 339.28 544.801H346.779Z" fill="white"/>
<path d="M259.382 544.317C258.412 544.317 257.455 544.531 256.578 544.943C255.701 545.356 254.926 545.957 254.308 546.704L246.432 542.233C246.938 540.808 246.938 539.252 246.432 537.828L254.307 533.355C255.36 534.622 256.848 535.448 258.48 535.672C260.112 535.895 261.768 535.5 263.122 534.563C264.477 533.626 265.431 532.216 265.797 530.61C266.163 529.004 265.915 527.32 265.101 525.888C264.286 524.457 262.965 523.382 261.398 522.876C259.831 522.37 258.131 522.47 256.633 523.155C255.136 523.84 253.949 525.062 253.308 526.578C252.666 528.095 252.615 529.797 253.166 531.349L245.291 535.822C244.425 534.777 243.258 534.025 241.949 533.668C240.64 533.311 239.253 533.366 237.976 533.826C236.7 534.286 235.597 535.129 234.817 536.239C234.037 537.349 233.618 538.673 233.618 540.03C233.618 541.386 234.037 542.71 234.817 543.821C235.596 544.931 236.7 545.773 237.976 546.234C239.253 546.694 240.64 546.749 241.949 546.392C243.258 546.035 244.425 545.283 245.29 544.238L253.166 548.71C252.699 550.029 252.664 551.463 253.066 552.804C253.468 554.145 254.286 555.323 255.402 556.168C256.518 557.013 257.875 557.481 259.274 557.504C260.674 557.526 262.044 557.103 263.188 556.295C264.331 555.487 265.187 554.337 265.633 553.01C266.078 551.683 266.09 550.248 265.666 548.914C265.242 547.58 264.405 546.415 263.275 545.589C262.145 544.762 260.782 544.317 259.382 544.317ZM259.382 524.859C260.23 524.859 261.059 525.11 261.764 525.582C262.47 526.053 263.019 526.722 263.344 527.506C263.669 528.29 263.754 529.152 263.588 529.984C263.423 530.816 263.014 531.58 262.415 532.179C261.815 532.779 261.051 533.187 260.219 533.353C259.387 533.518 258.525 533.433 257.741 533.109C256.957 532.784 256.288 532.234 255.817 531.529C255.346 530.823 255.094 529.994 255.095 529.146C255.096 528.01 255.548 526.92 256.352 526.116C257.155 525.312 258.245 524.86 259.382 524.859ZM240.218 544.317C239.37 544.317 238.541 544.066 237.836 543.595C237.131 543.124 236.581 542.454 236.257 541.671C235.932 540.888 235.847 540.026 236.012 539.194C236.178 538.362 236.586 537.598 237.185 536.999C237.785 536.399 238.549 535.991 239.381 535.825C240.212 535.66 241.074 535.745 241.858 536.069C242.641 536.394 243.31 536.943 243.782 537.648C244.253 538.353 244.504 539.182 244.504 540.03C244.503 541.166 244.051 542.256 243.247 543.06C242.444 543.863 241.354 544.315 240.218 544.317ZM259.382 555.2C258.534 555.2 257.705 554.949 256.999 554.478C256.294 554.007 255.744 553.337 255.42 552.554C255.095 551.77 255.01 550.908 255.175 550.076C255.341 549.244 255.749 548.48 256.349 547.881C256.948 547.281 257.712 546.872 258.544 546.707C259.376 546.542 260.238 546.626 261.022 546.951C261.805 547.276 262.475 547.825 262.946 548.531C263.417 549.236 263.668 550.065 263.668 550.913C263.667 552.05 263.215 553.139 262.411 553.943C261.608 554.746 260.518 555.198 259.382 555.2Z" fill="white"/>
<path d="M1151.92 664.824L1164.76 651.982C1165.6 651.142 1166.74 650.671 1167.92 650.671C1169.11 650.671 1170.25 651.142 1171.09 651.982L1181.13 662.026C1181.97 662.865 1183.11 663.337 1184.3 663.337C1185.48 663.337 1186.62 662.865 1187.46 662.026L1203.88 645.609" stroke="white" stroke-width="5.16228" stroke-miterlimit="10" stroke-linecap="round"/>
<path d="M1196.26 642.653H1205.39C1205.8 642.653 1206.2 642.817 1206.49 643.109C1206.78 643.4 1206.94 643.796 1206.94 644.208V652.469" stroke="white" stroke-width="5.16228" stroke-miterlimit="10" stroke-linecap="round"/>
<path d="M994.256 487.396C996.56 482.15 995.192 476.478 991.201 474.726C987.211 472.974 982.109 475.806 979.806 481.052C977.503 486.298 978.871 491.971 982.861 493.723C986.851 495.475 991.953 492.642 994.256 487.396Z" stroke="#080B09" stroke-miterlimit="10"/>
<path d="M971.362 477.614C973.665 472.368 972.297 466.695 968.307 464.943C964.316 463.191 959.214 466.024 956.911 471.27C954.608 476.516 955.976 482.188 959.967 483.94C963.957 485.692 969.059 482.86 971.362 477.614Z" stroke="#080B09" stroke-miterlimit="10"/>
<path d="M971.364 477.619C971.364 477.619 976.875 477.521 979.806 481.052" stroke="#080B09" stroke-miterlimit="10"/>
<path d="M993.588 488.703H1017.34" stroke="#080B09" stroke-miterlimit="10"/>
<path d="M503.403 327.766C503.403 327.766 505.03 349.706 503.403 367.096" stroke="#96BAFD" stroke-miterlimit="10"/>
<path fill-rule="evenodd" clip-rule="evenodd" d="M989.324 553.306C1011.5 539.42 1015.18 530.777 1015.18 530.777L1024.52 548.873L998.612 568.399C997.575 565.657 996.305 563.01 994.816 560.486L987.525 566.296L989.324 553.306ZM962.49 548.757L972.057 541.597C972.057 541.597 971.306 548.231 981.209 552.742L982.033 565.062L977.238 560.412L970.853 568.841L962.49 548.757Z" fill="#1C85E8"/>
<path d="M987.525 566.296L989.324 553.306L994.816 560.486L987.525 566.296Z" fill="#1C85E8"/>
<path d="M981.209 552.742L977.238 560.412L982.033 565.062L981.209 552.742Z" fill="#1C85E8"/>
<path d="M982.034 565.062L985.056 602.394C985.098 602.916 985.316 603.408 985.674 603.79C986.032 604.172 986.509 604.422 987.027 604.498C987.368 604.548 987.715 604.522 988.044 604.421C988.374 604.319 988.676 604.146 988.93 603.913C989.183 603.681 989.382 603.394 989.511 603.075C989.64 602.756 989.696 602.412 989.676 602.068L987.526 566.296L985.188 568.399L982.034 565.062Z" fill="#1C85E8"/>
<path d="M995.323 581.327C996.918 581.327 998.211 580.034 998.211 578.44C998.211 576.845 996.918 575.552 995.323 575.552C993.728 575.552 992.436 576.845 992.436 578.44C992.436 580.034 993.728 581.327 995.323 581.327Z" fill="#1C85E8"/>
<path d="M996.261 598.333C997.856 598.333 999.149 597.041 999.149 595.446C999.149 593.851 997.856 592.558 996.261 592.558C994.666 592.558 993.375 593.851 993.375 595.446C993.375 597.041 994.666 598.333 996.261 598.333Z" fill="#1C85E8"/>
</g>
</g>
<defs>
<linearGradient id="paint0_linear_75_16945" x1="478.611" y1="281.853" x2="578.69" y2="1196.33" gradientUnits="userSpaceOnUse">
<stop stop-color="white"/>
<stop offset="1" stop-color="#94B9FF"/>
</linearGradient>
<linearGradient id="paint1_linear_75_16945" x1="950.501" y1="520.656" x2="1050.58" y2="1435.13" gradientUnits="userSpaceOnUse">
<stop stop-color="white"/>
<stop offset="1" stop-color="#94B9FF"/>
</linearGradient>
<linearGradient id="paint2_linear_75_16945" x1="585.076" y1="273.362" x2="562.203" y2="371.304" gradientUnits="userSpaceOnUse">
<stop stop-color="white"/>
<stop offset="1" stop-color="#94B9FF"/>
</linearGradient>
<linearGradient id="paint3_linear_75_16945" x1="650.353" y1="312.366" x2="655.992" y2="351.776" gradientUnits="userSpaceOnUse">
<stop stop-color="white"/>
<stop offset="1" stop-color="#94B9FF"/>
</linearGradient>
<clipPath id="clip0_75_16945">
<rect width="1440" height="1024" fill="white" transform="translate(0.979492)"/>
</clipPath>
</defs>
</svg>
