<svg width="1441" height="1024" viewBox="0 0 1441 1024" fill="none" xmlns="http://www.w3.org/2000/svg">
<g clip-path="url(#clip0_75_16662)">
<path d="M1440.06 0H0.0595703V1024H1440.06V0Z" fill="white"/>
<mask id="mask0_75_16662" style="mask-type:luminance" maskUnits="userSpaceOnUse" x="252" y="70" width="936" height="885">
<path d="M1187.86 70H252.06V954.423H1187.86V70Z" fill="white"/>
</mask>
<g mask="url(#mask0_75_16662)">
<path d="M727.255 835.554C923.263 835.554 1082.16 830.879 1082.16 825.113C1082.16 819.346 923.263 814.671 727.255 814.671C531.248 814.671 372.354 819.346 372.354 825.113C372.354 830.879 531.248 835.554 727.255 835.554Z" fill="#F5F8FF"/>
<path d="M775.753 820.889H534.786C515.241 820.889 502.083 805.044 505.397 785.499L602.446 213.148C605.76 193.602 624.292 177.757 643.837 177.757H884.804C904.349 177.757 917.507 193.602 914.193 213.148L817.144 785.499C813.83 805.044 795.298 820.889 775.753 820.889Z" fill="#5CA4E6"/>
<path d="M745.655 820.889H504.688C485.143 820.889 471.985 805.044 475.299 785.499L572.348 213.148C575.662 193.602 594.193 177.757 613.739 177.757H854.705C874.251 177.757 887.409 193.602 884.095 213.148L787.046 785.499C783.732 805.044 765.2 820.889 745.655 820.889Z" fill="#D1E8F7"/>
<path d="M747.04 801.754H509.792C499.643 801.754 492.811 793.527 494.532 783.378L590.862 215.268C592.583 205.119 602.205 196.892 612.354 196.892H849.602C859.751 196.892 866.583 205.119 864.862 215.268L768.532 783.378C766.811 793.527 757.189 801.754 747.04 801.754Z" fill="white"/>
<path d="M769.496 388.307H542.647L566.29 257.692C567.839 249.728 575.551 243.272 583.514 243.272H797.704C805.668 243.272 810.868 249.728 809.319 257.692L786.72 373.888C785.171 381.851 777.46 388.307 769.496 388.307Z" fill="url(#paint0_linear_75_16662)"/>
<path d="M751.213 371.5H411.606C403.643 371.5 398.442 365.044 399.991 357.08L422.59 240.884C424.139 232.92 431.85 226.464 439.814 226.464H779.421C787.384 226.464 792.585 232.92 791.036 240.884L768.437 357.08C766.888 365.044 759.176 371.5 751.213 371.5Z" fill="#FEBB94"/>
<path d="M729.545 786.942L518.913 787.942C510.949 787.942 505.749 781.486 507.298 773.523L529.897 657.327C531.446 649.363 539.157 642.907 547.121 642.907L757.753 641.907C765.717 641.907 770.917 648.363 769.368 656.327L746.769 772.523C745.22 780.486 737.509 786.942 729.545 786.942Z" fill="#FEBB94"/>
<path d="M542.08 751.756C548.073 704.879 592.613 666.877 641.563 666.877C690.513 666.877 725.336 704.879 719.343 751.756" stroke="#FF967C" stroke-width="16.5208" stroke-miterlimit="10" stroke-linecap="round"/>
<path d="M542.08 751.756C548.073 704.879 592.613 666.877 641.563 666.877C665.79 666.877 686.557 676.186 700.627 691.273" stroke="white" stroke-width="16.5208" stroke-miterlimit="10" stroke-linecap="round"/>
<path d="M704.358 625.479H553.54C545.49 625.479 540.049 618.953 541.388 610.903L573.24 419.311C574.578 411.261 582.189 404.736 590.239 404.736H741.056C749.106 404.736 754.547 411.261 753.209 419.311L721.356 610.903C720.018 618.953 712.408 625.479 704.358 625.479Z" fill="url(#paint1_linear_75_16662)"/>
<path d="M599.981 506.051H579.418C578.287 506.09 577.202 506.512 576.343 507.248C575.484 507.985 574.901 508.993 574.691 510.105L563.523 577.282C563.414 577.779 563.421 578.295 563.542 578.789C563.664 579.283 563.896 579.743 564.222 580.134C564.548 580.525 564.959 580.837 565.423 581.045C565.888 581.253 566.394 581.352 566.902 581.335H587.465C588.597 581.297 589.681 580.875 590.54 580.138C591.4 579.401 591.982 578.394 592.193 577.282L603.361 510.105C603.469 509.608 603.462 509.092 603.341 508.598C603.22 508.103 602.987 507.643 602.661 507.252C602.336 506.861 601.925 506.55 601.46 506.342C600.996 506.134 600.49 506.034 599.981 506.051Z" fill="white"/>
<path d="M637.499 529.036H616.936C615.804 529.074 614.72 529.496 613.861 530.233C613.001 530.97 612.419 531.977 612.208 533.089L604.861 577.282C604.753 577.779 604.76 578.295 604.881 578.789C605.002 579.283 605.235 579.743 605.561 580.134C605.887 580.525 606.297 580.837 606.762 581.045C607.226 581.253 607.732 581.352 608.241 581.335H628.804C629.935 581.297 631.02 580.875 631.879 580.138C632.738 579.401 633.321 578.394 633.531 577.282L640.878 533.089C640.987 532.592 640.98 532.076 640.859 531.582C640.737 531.088 640.505 530.628 640.179 530.237C639.853 529.846 639.442 529.534 638.978 529.326C638.513 529.118 638.007 529.019 637.499 529.036Z" fill="white"/>
<path d="M687.165 464.367H666.602C665.471 464.405 664.387 464.827 663.527 465.564C662.668 466.301 662.085 467.308 661.875 468.42L643.777 577.282C643.669 577.779 643.675 578.295 643.797 578.789C643.918 579.283 644.15 579.743 644.476 580.134C644.802 580.525 645.213 580.837 645.677 581.045C646.142 581.253 646.648 581.352 647.156 581.335H667.719C668.851 581.297 669.935 580.875 670.794 580.138C671.654 579.401 672.236 578.394 672.447 577.282L690.545 468.42C690.653 467.923 690.646 467.407 690.525 466.913C690.404 466.419 690.172 465.959 689.846 465.568C689.52 465.177 689.109 464.865 688.644 464.657C688.18 464.449 687.674 464.35 687.165 464.367Z" fill="white"/>
<path d="M722.55 492.586H701.987C700.856 492.624 699.771 493.046 698.912 493.783C698.053 494.52 697.47 495.527 697.26 496.639L683.853 577.282C683.745 577.779 683.751 578.295 683.873 578.789C683.994 579.283 684.226 579.743 684.552 580.134C684.878 580.525 685.289 580.837 685.753 581.045C686.218 581.253 686.724 581.352 687.232 581.335H707.795C708.927 581.297 710.011 580.875 710.871 580.138C711.73 579.401 712.313 578.394 712.523 577.282L725.93 496.639C726.038 496.142 726.031 495.626 725.91 495.132C725.789 494.638 725.556 494.178 725.23 493.787C724.904 493.396 724.494 493.084 724.029 492.876C723.565 492.668 723.059 492.569 722.55 492.586Z" fill="white"/>
<path d="M588.291 428.306H643.965" stroke="white" stroke-width="10" stroke-miterlimit="10" stroke-linecap="round"/>
<path d="M585.147 447.21H612.984" stroke="white" stroke-width="10" stroke-miterlimit="10" stroke-linecap="round"/>
<path opacity="0.6" d="M569.524 595.025H580.292" stroke="white" stroke-width="6" stroke-miterlimit="10" stroke-linecap="round"/>
<path opacity="0.6" d="M610.864 595.025H621.631" stroke="white" stroke-width="6" stroke-miterlimit="10" stroke-linecap="round"/>
<path opacity="0.6" d="M649.777 595.025H660.545" stroke="white" stroke-width="6" stroke-miterlimit="10" stroke-linecap="round"/>
<path opacity="0.6" d="M689.854 595.025H700.622" stroke="white" stroke-width="6" stroke-miterlimit="10" stroke-linecap="round"/>
<path d="M902.187 625.479H751.37C743.32 625.479 737.879 618.953 739.217 610.903L771.07 419.311C772.408 411.261 780.018 404.736 788.068 404.736H938.886C946.936 404.736 952.377 411.261 951.038 419.311L919.186 610.903C917.848 618.953 910.237 625.479 902.187 625.479Z" fill="url(#paint2_linear_75_16662)"/>
<path d="M793.906 534.934H773.343C772.212 534.972 771.127 535.394 770.268 536.131C769.409 536.868 768.826 537.875 768.616 538.987L761.354 577.282C761.246 577.779 761.253 578.295 761.374 578.789C761.495 579.283 761.728 579.743 762.054 580.134C762.38 580.525 762.79 580.837 763.255 581.045C763.719 581.253 764.225 581.352 764.734 581.335H785.297C786.428 581.297 787.513 580.875 788.372 580.138C789.231 579.401 789.813 578.394 790.023 577.282L797.286 538.987C797.394 538.49 797.386 537.974 797.265 537.48C797.144 536.986 796.912 536.526 796.586 536.135C796.26 535.744 795.85 535.432 795.385 535.224C794.921 535.016 794.415 534.917 793.906 534.934Z" fill="white"/>
<path d="M843.095 475.635H822.532C821.401 475.673 820.317 476.095 819.457 476.832C818.598 477.569 818.015 478.576 817.805 479.688L802.692 577.282C802.584 577.779 802.591 578.295 802.712 578.789C802.833 579.283 803.065 579.743 803.391 580.134C803.717 580.525 804.128 580.837 804.593 581.045C805.057 581.253 805.563 581.352 806.072 581.335H826.635C827.766 581.297 828.85 580.875 829.71 580.138C830.569 579.401 831.152 578.394 831.362 577.282L846.475 479.688C846.583 479.191 846.576 478.675 846.455 478.181C846.334 477.687 846.102 477.227 845.776 476.836C845.45 476.445 845.039 476.133 844.574 475.925C844.11 475.717 843.604 475.618 843.095 475.635Z" fill="white"/>
<path d="M878.191 503.5H857.628C856.497 503.538 855.413 503.96 854.553 504.697C853.694 505.434 853.111 506.441 852.901 507.553L841.606 577.282C841.498 577.779 841.505 578.295 841.626 578.789C841.747 579.283 841.98 579.743 842.306 580.134C842.632 580.525 843.043 580.837 843.507 581.045C843.972 581.253 844.477 581.352 844.986 581.335H865.549C866.68 581.297 867.765 580.875 868.624 580.138C869.483 579.401 870.066 578.394 870.276 577.282L881.571 507.553C881.679 507.056 881.672 506.54 881.551 506.046C881.43 505.552 881.198 505.092 880.872 504.701C880.546 504.31 880.135 503.998 879.67 503.79C879.206 503.582 878.7 503.483 878.191 503.5Z" fill="white"/>
<path d="M920.381 492.586H899.818C898.686 492.624 897.602 493.046 896.743 493.783C895.883 494.52 895.301 495.527 895.09 496.639L881.684 577.282C881.575 577.779 881.582 578.295 881.703 578.789C881.824 579.283 882.057 579.743 882.383 580.134C882.709 580.525 883.12 580.837 883.584 581.045C884.049 581.253 884.554 581.352 885.063 581.335H905.626C906.757 581.297 907.842 580.875 908.701 580.138C909.56 579.401 910.143 578.394 910.353 577.282L923.76 496.639C923.868 496.142 923.862 495.626 923.741 495.132C923.619 494.638 923.387 494.178 923.061 493.787C922.735 493.396 922.324 493.084 921.86 492.876C921.395 492.668 920.889 492.569 920.381 492.586Z" fill="white"/>
<path d="M786.122 428.306H841.795" stroke="white" stroke-width="10" stroke-miterlimit="10" stroke-linecap="round"/>
<path d="M782.979 447.21H810.815" stroke="white" stroke-width="10" stroke-miterlimit="10" stroke-linecap="round"/>
<path opacity="0.6" d="M767.355 595.025H778.122" stroke="white" stroke-width="6" stroke-miterlimit="10" stroke-linecap="round"/>
<path opacity="0.6" d="M808.694 595.025H819.461" stroke="white" stroke-width="6" stroke-miterlimit="10" stroke-linecap="round"/>
<path opacity="0.6" d="M847.608 595.025H858.376" stroke="white" stroke-width="6" stroke-miterlimit="10" stroke-linecap="round"/>
<path opacity="0.6" d="M887.686 595.025H898.454" stroke="white" stroke-width="6" stroke-miterlimit="10" stroke-linecap="round"/>
<path d="M262.015 840.799L304.841 930.39L299.53 932.929C297.737 933.786 295.678 933.896 293.805 933.234C291.932 932.573 290.398 931.194 289.542 929.402L253.175 853.327C252.319 851.534 252.209 849.475 252.87 847.602C253.532 845.729 254.91 844.195 256.703 843.338L262.015 840.799Z" fill="#71C8EA"/>
<path d="M308.64 820.569L279.084 832.787L295.665 856.235L321.867 848.24L308.64 820.569Z" fill="#FFCCB3"/>
<path d="M289.761 833.723C289.761 833.723 301.3 851.545 303.041 861.504C304.782 871.462 310.743 921.836 309.139 926.377C307.986 929.641 303.798 931.042 301.141 931.338C300.558 931.4 299.97 931.279 299.459 930.992C298.948 930.705 298.538 930.266 298.288 929.736L259.413 848.411C258.763 847.054 258.672 845.497 259.158 844.074C259.645 842.65 260.67 841.475 262.015 840.799C267.393 838.097 275.62 834.048 279.084 832.787C284.438 830.838 287.972 830.85 289.761 833.723Z" fill="#5661AE"/>
<path d="M498.989 876.359L458.826 950.499C457.879 952.246 456.278 953.545 454.374 954.111C452.47 954.677 450.419 954.464 448.672 953.517L443.495 950.713L490.795 863.401L495.971 866.205C497.718 867.151 499.017 868.752 499.583 870.657C500.149 872.561 499.936 874.612 498.989 876.359Z" fill="#71C8EA"/>
<path d="M445.251 840.84L474.152 854.536L456.407 877.116L430.642 867.807L445.251 840.84Z" fill="#FFCCB3"/>
<path d="M463.441 854.931C463.441 854.931 451.016 872.147 448.774 882.005C446.533 891.863 438.034 941.871 439.406 946.488C440.392 949.806 444.504 951.416 447.143 951.846C447.722 951.938 448.315 951.847 448.84 951.586C449.365 951.325 449.796 950.907 450.073 950.391L493.009 871.134C493.726 869.812 493.896 868.261 493.482 866.815C493.068 865.369 492.103 864.143 490.795 863.401C485.56 860.43 477.547 855.97 474.152 854.536C468.903 852.319 465.373 852.153 463.441 854.931Z" fill="#5661AE"/>
<path d="M532.319 735.227C532.319 735.227 543.383 790.17 534.797 800.936L316.012 856.958L297.355 822.011L425.116 764.036L450.703 728.966L532.319 735.227Z" fill="#D1E8F7"/>
<path d="M476.956 774.432L428.684 790.577L406.159 800.022L435.451 826.375L409.263 832.291L337.832 774.432H476.956Z" fill="#5CA4E6"/>
<path d="M311.064 817.428L312.549 822.588L346.469 849.064L378.332 841.289C378.332 841.289 316.865 812.037 311.064 817.428Z" fill="#5CA4E6"/>
<path d="M372.47 732.022C372.47 732.022 310.605 728.666 279.941 731.362C260.196 733.097 253.078 783.624 268.835 792.816L437.941 879.402L457.869 843.393L348.78 769.551L426.825 758.573L372.47 732.022Z" fill="#D1E8F7"/>
<path d="M285.142 797.118C303.412 797.118 318.223 782.307 318.223 764.036C318.223 745.766 303.412 730.954 285.142 730.954C266.871 730.954 252.06 745.766 252.06 764.036C252.06 782.307 266.871 797.118 285.142 797.118Z" fill="#D1E8F7"/>
<path d="M529.302 801.39C547.572 801.39 562.383 786.579 562.383 768.309C562.383 750.038 547.572 735.227 529.302 735.227C511.031 735.227 496.22 750.038 496.22 768.309C496.22 786.579 511.031 801.39 529.302 801.39Z" fill="#D1E8F7"/>
<path d="M438.679 612.202C435.194 594.997 443.39 595.44 446.118 592.705C446.118 592.705 456.35 584.267 464.147 592.132C472.4 600.452 519.709 665.083 519.709 665.083L490.108 692.308L484.544 685.668L470.131 668.478L454.715 650.106L452.8 648.015L432.004 624.46C432.004 624.46 440.65 621.26 438.679 612.202Z" fill="#5661AE"/>
<path d="M455.096 629.48C467.01 625.49 473.432 612.598 469.442 600.684C465.452 588.771 452.56 582.348 440.646 586.338C428.733 590.329 422.31 603.221 426.301 615.134C430.291 627.047 443.183 633.47 455.096 629.48Z" fill="#5661AE"/>
<path d="M453.073 647.923C452.476 644.327 451.282 637.135 449.997 630.58L443.168 598.855C443.168 598.855 461.51 625.965 469.961 644.848C476.219 658.999 483.479 673.422 484.68 685.622L470.268 668.433L454.852 650.061L453.073 647.923Z" fill="#465393"/>
<path d="M549.276 592.32C556.31 579.49 552.93 577.312 555.922 570.013C558.87 562.89 553.636 545.233 558.647 547.641C563.657 550.048 565.208 556.447 565.208 556.447C568.635 550.384 571.791 539.23 579.994 537.953C588.199 536.677 588.925 539.259 593.575 543.075C605.946 553.368 590.171 568.837 587.538 574.727C585.844 578.42 573.397 589.677 572.018 592.137L565.753 601.225L549.276 592.32Z" fill="#FFCCB3"/>
<path d="M573.445 557.242L583.442 538.785" stroke="#E56441" stroke-width="0.94666" stroke-linecap="round"/>
<path d="M579.996 560.231L590.892 543.041" stroke="#E56441" stroke-width="0.94666" stroke-linecap="round"/>
<path d="M587.777 563.535L594.004 553.125" stroke="#E56441" stroke-width="0.94666" stroke-linecap="round"/>
<path d="M570.975 573.49C570.922 567.099 567.087 559.366 567.087 559.366L570.975 573.49Z" fill="#E56441"/>
<path d="M570.975 573.49C570.922 567.099 567.087 559.366 567.087 559.366" stroke="#E56441" stroke-width="0.94666" stroke-linecap="round"/>
<path d="M489.857 664.568L550.05 584.409C550.433 583.938 550.978 583.626 551.578 583.532C552.178 583.439 552.792 583.571 553.3 583.903L569.062 594.327C569.811 594.834 570.344 595.602 570.559 596.481C570.774 597.36 570.654 598.287 570.223 599.083L521.817 688.352L489.857 664.568Z" fill="#5661AE"/>
<path d="M504.483 698.426C515.616 698.426 524.641 689.401 524.641 678.268C524.641 667.136 515.616 658.111 504.483 658.111C493.351 658.111 484.326 667.136 484.326 678.268C484.326 689.401 493.351 698.426 504.483 698.426Z" fill="#5661AE"/>
<path d="M415.096 574.986C415.096 574.986 448.875 583.925 454.673 586.244C460.472 588.564 460.858 597.841 461.245 604.413C461.631 610.985 460.333 758.573 460.333 758.573L385.577 755.698L329.671 722.973C329.671 722.973 332.102 605.867 332.875 600.455C333.648 595.043 327.573 590.383 334.158 587.658L376.488 576.476L415.096 574.986Z" fill="#5661AE"/>
<path d="M358.844 627.562L359.446 736.606L327.308 700.786L342.857 624.169L358.844 627.562Z" fill="#465393"/>
<path d="M370.975 578.143C370.975 578.143 366.193 587.76 370.975 594.394C375.757 601.028 394.901 607.473 407.98 607.283C421.058 607.094 427.988 594.624 422.059 577.166L400.398 571.081L376.488 576.476L370.975 578.143Z" fill="#465393"/>
<path d="M425.118 495.259C425.118 495.259 434.536 515.582 424.491 519.78C414.446 523.978 415.616 496.245 425.118 495.259Z" fill="#93523E"/>
<path d="M414.494 560.291L417.219 591.015C417.219 591.015 419.831 595.134 409.658 597.297C403.114 598.688 385.492 591.745 382.073 589.662C380.619 588.89 379.48 587.636 378.852 586.115C378.224 584.593 378.146 582.901 378.631 581.328C379.67 577.568 383.976 546.246 383.976 546.246L414.494 560.291Z" fill="#FFCCB3"/>
<path d="M415.019 566.214L398.787 558.195L416.883 587.227L415.019 566.214Z" fill="#FF967C"/>
<path d="M419.708 501.14C419.708 501.14 429.234 525.031 432.689 541.79C436.175 558.699 430.613 562.922 423.274 565.408C417.485 567.37 408.242 568.934 401.954 566.965C390.487 563.375 379.268 553.014 376.585 550.886C372.431 547.591 368.331 532.645 374.419 524.19C380.508 515.734 404.496 489.162 419.708 501.14Z" fill="#FFCCB3"/>
<path d="M407.444 534.116C408.711 533.617 409.121 531.646 408.36 529.712C407.599 527.778 405.956 526.615 404.689 527.113C403.422 527.612 403.012 529.583 403.772 531.517C404.533 533.451 406.177 534.614 407.444 534.116Z" fill="#080B09"/>
<path d="M424.857 527.138C426.124 526.64 426.534 524.668 425.773 522.735C425.013 520.801 423.369 519.638 422.102 520.136C420.835 520.635 420.425 522.606 421.186 524.54C421.946 526.473 423.59 527.637 424.857 527.138Z" fill="#080B09"/>
<path d="M418.471 530.437C418.471 530.437 416.924 535.119 420.176 534.663C423.267 534.121 425.365 535.648 422.664 538.785" fill="#E56441"/>
<path d="M418.471 530.437C418.471 530.437 416.924 535.119 420.176 534.663C423.267 534.121 425.365 535.648 422.664 538.785" stroke="#E56441" stroke-width="0.94666" stroke-linecap="round"/>
<path d="M422.815 542.924L422.831 542.921L422.847 542.916C422.892 542.902 422.94 542.901 422.985 542.912C423.031 542.922 423.073 542.945 423.107 542.978C423.141 543.011 423.166 543.052 423.179 543.097C423.191 543.143 423.192 543.191 423.18 543.236L423.17 543.275L423.166 543.315C422.967 545.364 422.457 546.582 421.838 547.266C421.24 547.928 420.49 548.148 419.639 548.083C418.766 548.016 417.807 547.648 416.878 547.143C415.96 546.644 415.107 546.031 414.448 545.505C414.403 545.463 414.37 545.411 414.352 545.352C414.332 545.291 414.33 545.225 414.346 545.162C414.361 545.1 414.394 545.042 414.439 544.997C414.485 544.951 414.542 544.919 414.605 544.904L414.61 544.903C417.124 544.266 420.916 543.372 422.815 542.924Z" fill="#E56441" stroke="#E56441"/>
<path d="M396.414 525.93L396.652 526.264C396.957 526.781 397.454 527.157 398.035 527.309C398.615 527.461 399.233 527.377 399.752 527.076L408.539 521.662C408.975 521.418 409.303 521.018 409.459 520.543C409.614 520.068 409.586 519.552 409.379 519.097C409.265 518.812 409.093 518.555 408.872 518.342C408.652 518.129 408.389 517.965 408.1 517.861C407.812 517.757 407.505 517.716 407.199 517.739C406.893 517.763 406.596 517.851 406.327 517.998L397.302 523.078C397.053 523.204 396.832 523.378 396.651 523.59C396.471 523.803 396.335 524.049 396.253 524.316C396.17 524.582 396.141 524.862 396.169 525.139C396.197 525.416 396.28 525.685 396.414 525.93Z" fill="#080B09"/>
<path d="M426.769 512.047L416.457 513.002C416.152 513.034 415.857 513.131 415.592 513.285C415.327 513.439 415.098 513.648 414.92 513.898C414.742 514.147 414.619 514.431 414.559 514.732C414.499 515.033 414.503 515.343 414.571 515.641C414.66 516.133 414.93 516.574 415.328 516.876C415.727 517.179 416.224 517.32 416.722 517.273L427.028 516.728C427.626 516.68 428.182 516.398 428.573 515.943C428.964 515.487 429.159 514.896 429.115 514.297L429.122 513.887C429.093 513.609 429.008 513.341 428.873 513.097C428.738 512.853 428.555 512.639 428.336 512.467C428.116 512.295 427.864 512.17 427.595 512.097C427.326 512.025 427.045 512.008 426.769 512.047Z" fill="#080B09"/>
<path d="M407.886 505.907C407.886 505.907 402.739 515.701 393.401 518.605C384.063 521.51 389.166 536.248 389.166 536.248C389.166 536.248 382.763 529.878 375.403 533.464C368.042 537.049 373.629 551.121 383.798 551.3L381.032 567.134C381.032 567.134 375.882 560.721 370.466 557.289C365.049 553.857 345.592 540.536 354.187 522.991C354.187 522.991 347.462 498.356 365.906 485.583C384.35 472.811 400.314 477.631 400.314 477.631C400.314 477.631 404.711 470.656 414.903 472.08C425.095 473.505 427.445 491.883 424.07 498.53C420.695 505.177 415.195 508.002 407.886 505.907Z" fill="#93523E"/>
<path d="M331.044 604.1C344.015 592.27 347.845 599.529 351.594 600.464C351.594 600.464 364.09 604.907 361.348 615.638C358.45 626.993 327.308 700.786 327.308 700.786L288.743 689.378L291.581 681.193L298.923 659.997L306.765 637.332L307.575 634.614L317.099 604.671C317.099 604.671 324.286 610.444 331.044 604.1Z" fill="#5661AE"/>
<path d="M356.731 624.574C364.902 615.029 363.788 600.669 354.244 592.498C344.7 584.327 330.339 585.441 322.169 594.985C313.998 604.529 315.111 618.89 324.656 627.061C334.2 635.231 348.56 634.118 356.731 624.574Z" fill="#5661AE"/>
<path d="M323.489 682.661L395.087 752.821C395.504 753.263 395.742 753.844 395.756 754.451C395.77 755.058 395.559 755.649 395.163 756.11L382.768 770.372C382.167 771.049 381.336 771.477 380.436 771.575C379.537 771.673 378.633 771.433 377.901 770.902L295.73 711.236L323.489 682.661Z" fill="#5661AE"/>
<path d="M307.993 715.526C319.126 715.526 328.151 706.502 328.151 695.369C328.151 684.236 319.126 675.212 307.993 675.212C296.861 675.212 287.836 684.236 287.836 695.369C287.836 706.502 296.861 715.526 307.993 715.526Z" fill="#5661AE"/>
<path d="M424.478 669.146L385.621 776.799H307.493C307.493 773.512 308.799 770.359 311.123 768.035C313.448 765.71 316.6 764.405 319.887 764.405H376.41L409.963 669.146H424.478Z" fill="white"/>
<path d="M424.478 669.146H529.302L488.762 776.799H385.621L424.478 669.146Z" fill="url(#paint3_linear_75_16662)"/>
<path d="M570.847 318.068C570.847 318.068 588.313 314.389 593.853 322.883C599.393 331.377 604.933 347.334 617.49 345.265C630.047 343.196 639.649 301.462 652.206 301.832C664.763 302.201 659.223 329.531 672.888 329.9C686.553 330.269 683.229 314.758 694.309 314.758C705.389 314.758 701.695 347.997 716.099 348.366C730.503 348.736 729.025 305.525 750.815 306.263" stroke="white" stroke-width="5" stroke-miterlimit="10" stroke-linecap="round"/>
<path d="M519.86 312.326C528.755 290.477 520.191 266.343 500.732 258.421C481.273 250.499 458.288 261.789 449.393 283.638C440.498 305.487 449.062 329.621 468.521 337.543C487.98 345.465 510.966 334.175 519.86 312.326Z" stroke="#FF967C" stroke-width="16.5208" stroke-miterlimit="10" stroke-linecap="round"/>
<path d="M502.745 333.468C492.478 340.24 479.897 342.174 468.521 337.543C449.062 329.621 440.498 305.487 449.393 283.638C458.288 261.789 481.273 250.499 500.732 258.421" stroke="white" stroke-width="16.5208" stroke-miterlimit="10" stroke-linecap="round"/>
<path d="M583.975 255.889H660.831" stroke="white" stroke-width="10" stroke-miterlimit="10" stroke-linecap="round"/>
<path opacity="0.6" d="M580.333 277.089H611.602" stroke="white" stroke-width="10" stroke-miterlimit="10" stroke-linecap="round"/>
<path d="M1165.84 782.813C1165.62 782.837 1165.52 782.96 1165.64 783.059C1165.54 783.181 1165.54 783.181 1165.57 783.403C1165.1 784.927 1164.77 786.49 1164.58 788.073L1183.54 803.312L1185.64 800.953C1185.64 800.953 1178.64 792.296 1176.02 789.778C1174.89 788.668 1173.88 787.656 1172.87 786.645C1171.99 785.732 1171.2 784.696 1170.44 783.882C1169.38 782.427 1166.31 782.986 1166.28 782.764C1166.16 782.666 1165.84 782.813 1165.84 782.813Z" fill="#233B62"/>
<path d="M1022.47 650.402L1040.78 668.145L1143.15 767.005L1145.02 768.708L1145.83 769.965L1145.95 770.064L1160.45 792.034L1162.07 794.548L1162.61 795.386L1172.42 810.353L1164.34 814.373L1162 815.525L1158.7 817.118L1153.49 819.815L1153.4 819.937L1147.87 822.781L1147.6 822.362L1135 798.279C1132.56 793.627 1129.13 789.562 1124.96 786.365L1013.64 701.15L992.481 684.951L1022.47 650.402Z" fill="#FFCCB3"/>
<path d="M1159.05 770.881C1154.14 768.602 1148.63 766.564 1143.25 766.882C1146.49 769.724 1147.97 774.782 1150.12 778.469C1154.53 786.058 1165.84 800.162 1160.06 812.147C1156.81 818.882 1147.73 822.46 1147.6 822.361C1146.08 829.278 1138.55 857.432 1153.57 841.112C1161.96 831.998 1170.28 822.262 1174.46 812.598C1176.18 808.636 1172.55 804.684 1170.77 801.339C1168.49 796.277 1165.09 789.573 1165.52 783.969L1165.61 783.846C1165.86 783.459 1185.31 800.871 1185.64 800.953C1186.31 799.871 1187.87 797.684 1187.87 797.684C1187.87 797.684 1159.98 771.228 1159.05 770.881Z" fill="#1C85E8"/>
<path d="M949.579 862.977C949.404 862.839 949.247 862.858 949.266 863.014C949.11 863.033 949.11 863.033 948.972 863.209C947.573 863.972 946.244 864.859 945.002 865.858L947.9 890.012L951.049 889.793C951.049 889.793 952.102 878.711 951.983 875.073C951.952 873.489 951.939 872.062 951.926 870.634C951.933 869.363 952.096 868.073 952.121 866.959C952.384 865.181 949.792 863.428 949.93 863.252C949.911 863.096 949.579 862.977 949.579 862.977Z" fill="#233B62"/>
<path d="M939.695 668.071L940.37 693.553L944.415 835.81L944.56 838.333L944.259 839.798L944.278 839.955L939.28 865.8L938.68 868.73L938.479 869.707L935.029 887.269L926.438 884.489L923.959 883.675L920.485 882.504L914.881 880.795L914.725 880.813L908.789 878.985L908.89 878.496L916.723 852.47C918.228 847.434 918.621 842.132 917.875 836.93L897.895 698.173L894.095 671.794L939.695 668.071Z" fill="#FFCCB3"/>
<path d="M953.068 849.697C951.154 844.637 948.642 839.329 944.572 835.791C944.904 840.093 942.424 844.743 941.378 848.877C939.226 857.388 937.449 875.38 924.936 879.906C917.905 882.449 908.908 878.653 908.889 878.496C902.966 882.377 877.891 897.233 900.041 896.071C912.411 895.422 925.168 894.282 934.916 890.3C938.913 888.667 939.084 883.305 940.15 879.669C942.062 874.457 944.314 867.283 948.54 863.578L948.697 863.559C949.145 863.455 950.871 889.503 951.05 889.793C952.284 889.486 954.926 889.01 954.926 889.01C954.926 889.01 953.493 850.599 953.068 849.697Z" fill="#1C85E8"/>
<path d="M912.113 476.878L875.924 629.698L875.858 640.547L905.285 821.501L952.139 816.429L938.547 643.608L975.824 553.437L968.288 479.491L912.113 476.878Z" fill="#1F2D49"/>
<path d="M907.047 666.816C924.523 666.816 938.691 652.649 938.691 635.172C938.691 617.696 924.523 603.528 907.047 603.528C889.57 603.528 875.403 617.696 875.403 635.172C875.403 652.649 889.57 666.816 907.047 666.816Z" fill="#1F2D49"/>
<path d="M950.424 614.879L941.499 539.374L938.547 643.608L950.424 614.879Z" fill="#0D1B33"/>
<path d="M1009.8 476.401C1009.8 476.401 1026.67 504.747 1026.89 528.485C1027.23 564.113 1014.38 627.996 1014.38 627.996L1126.57 741.393L1099.86 781.44C1099.86 781.44 1004.13 702.009 963.625 664.28L954.552 645.911L941.5 539.374L961.45 476.401H1009.8Z" fill="#1F2D49"/>
<path d="M912.114 476.878L1010.38 477.888L1019.93 497.65L910.454 483.891L912.114 476.878Z" fill="#0D1B33"/>
<path d="M985.914 673.463C1003.39 673.463 1017.56 659.296 1017.56 641.819C1017.56 624.343 1003.39 610.175 985.914 610.175C968.437 610.175 954.27 624.343 954.27 641.819C954.27 659.296 968.437 673.463 985.914 673.463Z" fill="#1F2D49"/>
<path d="M900.642 266.878C900.642 266.878 901.961 281.567 898.085 295.687C894.209 309.807 864.862 339.707 890.887 364.071C916.912 388.434 948.75 323.096 948.75 323.096L938.783 292.918L904.317 257.06L900.642 266.878Z" fill="#1F2D49"/>
<path d="M980.043 270.307C980.043 270.307 987.853 280.229 1005.65 288.339C1023.11 296.298 1041.91 309.38 1038.04 337.896C1034.16 366.412 982.541 344.264 967.376 327.929C952.211 311.595 954.298 282.431 954.298 282.431L980.043 270.307Z" fill="#1F2D49"/>
<path d="M940.122 323.74C940.122 323.74 920.312 331.578 917.288 333.997C914.264 336.417 911.392 356.164 906.25 365.539C901.109 374.915 893.587 392.22 904.573 408.116C915.559 424.011 914.391 436.633 914.391 436.633L912.053 476.507L1006.73 478.252C1007.57 478.279 1008.4 478.127 1009.17 477.809C1009.94 477.491 1010.63 477.012 1011.21 476.405C1011.78 475.799 1012.21 475.077 1012.49 474.289C1012.76 473.501 1012.86 472.663 1012.79 471.833C1011.74 460.207 1006.93 443.881 1006.55 425.369C1006.04 400.281 1005.66 316.453 1005.66 316.453L964.412 315.158C956.104 316.591 940.122 323.74 940.122 323.74Z" fill="#FEBB94"/>
<path d="M989.423 350.72C989.423 350.72 975.625 363.301 974.813 372.635C974.002 381.969 972.125 407.994 954.392 410.59C932.657 413.772 926.968 416.87 937.044 419.305C947.119 421.74 969.987 417.795 969.987 428.233C969.987 435.662 978.871 441.219 983.336 437.161C987.8 433.103 1023.36 371.417 989.423 350.72Z" fill="#FF967C"/>
<path d="M823.013 361.265L815.533 351.69C813.967 349.449 811.885 347.617 809.462 346.35C805.781 344.507 800.138 341.069 798.177 337.633C794.927 332.171 782.119 317.418 793.229 305.951C797.342 301.719 796.314 302.72 804.535 302.847C812.756 302.973 814.018 311.504 818.126 317.088C818.126 317.088 819.049 310.647 823.59 307.704C828.132 304.761 825.118 322.736 828.612 329.548C832.105 336.36 829.282 338.935 837.559 350.903L823.013 361.265Z" fill="#FFCCB3"/>
<path d="M803.284 303.83L809.965 318.987" stroke="#E56441" stroke-width="0.94666" stroke-linecap="round"/>
<path d="M794.57 306.525L803.827 322.665" stroke="#E56441" stroke-width="0.94666" stroke-linecap="round"/>
<path d="M789.104 317.137L796.401 326.772" stroke="#E56441" stroke-width="0.94666" stroke-linecap="round"/>
<path d="M816.407 320.523C816.407 320.523 813.58 328.621 814.069 335.002L816.407 320.523Z" fill="#E56441"/>
<path d="M816.407 320.523C816.407 320.523 813.58 328.621 814.069 335.002" stroke="#E56441" stroke-width="0.94666" stroke-linecap="round"/>
<path d="M922.101 331.389C914.421 334.051 903.716 339.45 900.818 345.474L875.221 403.786L832.592 339.012L816.449 356.015L856.26 438.356C863.535 456.463 882.015 463.266 895.401 443.751L916.789 410.158L922.101 331.389Z" fill="#FEBB94"/>
<path d="M911.184 381.586C911.184 381.586 908.876 377.605 908.876 398.386L895.401 443.751L916.788 410.158C933.946 387.09 920.391 380.929 911.184 381.586Z" fill="#FF967C"/>
<path d="M958.113 354.073L887.405 382.237C885.208 383.112 884.137 385.603 885.012 387.799L920.402 476.647C921.277 478.844 923.767 479.916 925.964 479.041L996.672 450.876C998.869 450.001 999.94 447.511 999.065 445.314L963.675 356.466C962.8 354.269 960.31 353.198 958.113 354.073Z" fill="#1C85E8"/>
<path d="M898.193 390.594L927.35 378.98" stroke="white" stroke-width="4" stroke-miterlimit="10" stroke-linecap="round"/>
<path d="M902.597 401.033L915.887 395.739" stroke="white" stroke-width="4" stroke-miterlimit="10" stroke-linecap="round"/>
<path d="M937.615 302.853L938.728 334.022C938.728 334.022 937.204 340.847 944.209 340.09C951.213 339.333 960.644 333.817 965.945 327.759C971.246 321.701 970.884 321.215 968.612 317.239C966.34 313.264 955.674 282.963 955.674 282.963L937.615 302.853Z" fill="#FFCCB3"/>
<path d="M937.773 305.467L950.689 297.242C950.689 297.242 944.966 322.359 938.727 334.022L937.773 305.467Z" fill="#FCBA9F"/>
<path d="M902.948 256.209C902.948 256.209 902.742 287.228 916.125 302.839C924.853 313.019 934.034 311.669 949.349 294.909C963.391 279.542 965.36 271.533 965.36 271.533L955.664 241.101C955.664 241.101 904.524 227.979 902.948 256.209Z" fill="#FFCCB3"/>
<path d="M916.266 249.013C916.266 249.013 921.872 262.626 932.283 266.43C942.693 270.234 945.417 277.308 945.417 277.308C945.417 277.308 947.414 265.669 955.596 266.092C963.778 266.515 962.115 280.96 957.037 285.756C957.037 285.756 963.146 297.087 968.326 305.467L991.013 282.951C991.013 282.951 979.324 269.438 976.754 258.565C974.184 247.692 965.866 218.584 934.155 220.512C896.923 222.775 899.061 253.03 900.643 269.834C900.643 269.834 912.319 265.357 916.266 249.013Z" fill="#1F2D49"/>
<path d="M920.296 293.247L929.346 288.807C929.354 288.858 929.362 288.913 929.369 288.97C929.431 289.445 929.459 290.098 929.329 290.815C929.075 292.218 928.211 293.921 925.639 295.027C923.988 295.562 922.58 295.034 921.547 294.332C921.029 293.979 920.616 293.589 920.333 293.286C920.32 293.273 920.308 293.26 920.296 293.247Z" fill="#E56441" stroke="#E56441"/>
<path d="M910.437 280.65C911.581 280.367 912.171 278.772 911.755 277.086C911.339 275.4 910.074 274.262 908.93 274.545C907.786 274.827 907.196 276.423 907.612 278.109C908.029 279.794 909.293 280.932 910.437 280.65Z" fill="#080B09"/>
<path d="M927.397 276.719C928.541 276.437 929.131 274.841 928.714 273.155C928.298 271.47 927.034 270.332 925.89 270.614C924.746 270.897 924.156 272.492 924.572 274.178C924.988 275.864 926.253 277.002 927.397 276.719Z" fill="#080B09"/>
<path d="M903.857 271.56L912.488 269.579C912.632 269.533 912.754 269.436 912.833 269.307C912.911 269.177 912.939 269.024 912.913 268.875C912.817 268.622 912.671 268.39 912.483 268.194C912.295 267.999 912.069 267.843 911.82 267.737C911.57 267.631 911.301 267.577 911.03 267.577C910.758 267.578 910.49 267.634 910.241 267.741L903.473 270.608C902.909 270.747 903.153 271.734 903.857 271.56Z" fill="#080B09"/>
<path d="M932.836 263.834L921.595 267.357C921.52 267.006 921.519 266.643 921.593 266.292C921.667 265.941 921.813 265.609 922.023 265.317C922.233 265.026 922.501 264.782 922.811 264.601C923.121 264.42 923.465 264.306 923.822 264.266L932.803 263.095C933.085 263.026 933.259 263.73 932.836 263.834Z" fill="#080B09"/>
<path d="M916.49 275.013L915.271 284.114L918.486 285.666" fill="#E56441"/>
<path d="M916.49 275.013L915.271 284.114L918.486 285.666" stroke="#E56441" stroke-width="0.94666" stroke-linecap="round"/>
<path d="M925.047 434.588L897.169 442.587L893.761 459.766L900.103 478.779C900.103 478.779 904.563 475.779 903.633 468.781C902.703 461.782 926.261 461.982 930.578 453.184" fill="#FFCCB3"/>
<path d="M988.729 339.902C988.729 339.902 988.546 316.288 1007.46 316.285C1020.15 316.283 1026.22 322.232 1027.84 340.796C1028.97 353.775 1029.79 424.988 1029.79 424.988C1029.79 424.988 1032.98 457.489 1005.41 458.096L925.806 455.712L924.009 433.471L993.402 426.554L988.729 339.902Z" fill="#FEBB94"/>
<path d="M931.164 336.949C931.164 336.949 938.343 334.906 937.179 327.855C936.045 320.916 936.001 314.892 938.278 315.731C938.278 315.731 940.286 319.176 952.779 315.347C965.19 311.661 964.413 307.403 964.413 307.403C964.413 307.403 966.169 305.847 967.481 309.841C968.791 313.835 972.116 324.895 979.145 324.099L981.045 344.714L943.662 357.019C943.58 357.162 926.301 340.425 931.164 336.949Z" fill="#FEBB94"/>
<path d="M626.258 748.332H649.778" stroke="white" stroke-width="5" stroke-miterlimit="10" stroke-linecap="round"/>
<path opacity="0.5" d="M631.045 758.539H642.806" stroke="white" stroke-width="5" stroke-miterlimit="10" stroke-linecap="round"/>
<path d="M610.591 727.953L628.638 715.368L641.351 723.834L658.271 711.58" stroke="white" stroke-width="6.50414" stroke-linecap="round" stroke-linejoin="round"/>
<path d="M645.263 706.239H663.262V724.049" stroke="white" stroke-width="6.50414" stroke-linecap="round" stroke-linejoin="round"/>
<path d="M858.372 153.238H788.617C787.764 153.271 786.916 153.104 786.139 152.75C785.362 152.397 784.679 151.866 784.144 151.202C783.608 150.537 783.236 149.757 783.056 148.922C782.876 148.088 782.893 147.224 783.107 146.397L793.828 91.2772C794.241 89.3936 795.267 87.7002 796.745 86.4623C798.224 85.2245 800.071 84.5121 801.998 84.4368H871.753C872.606 84.4039 873.454 84.5709 874.231 84.9244C875.008 85.2779 875.691 85.8081 876.226 86.4727C876.762 87.1373 877.134 87.9179 877.314 88.7521C877.494 89.5863 877.477 90.451 877.263 91.2772L866.542 146.397C866.129 148.281 865.103 149.974 863.625 151.212C862.146 152.45 860.299 153.162 858.372 153.238Z" fill="#1C85E8"/>
<path d="M810.526 99.3441L856.973 99.3531C857.307 99.3386 857.637 99.4014 857.942 99.5366C858.247 99.6719 858.516 99.8758 858.729 100.132C858.942 100.389 859.092 100.692 859.169 101.016C859.245 101.341 859.245 101.678 859.169 102.003L858.534 105.48C858.428 105.985 858.205 106.459 857.885 106.864C857.565 107.27 857.156 107.596 856.689 107.816L831.242 120.063C830.848 120.271 830.41 120.379 829.965 120.376C829.52 120.374 829.081 120.261 828.69 120.048L807.757 107.43C807.375 107.191 807.077 106.839 806.903 106.423C806.73 106.006 806.691 105.547 806.791 105.107L807.361 101.993C807.516 101.261 807.912 100.602 808.486 100.122C809.06 99.6415 809.778 99.3677 810.526 99.3441Z" fill="white"/>
<path d="M808.221 112.005L828.247 124.567C828.519 124.72 828.826 124.801 829.138 124.801C829.45 124.801 829.757 124.72 830.029 124.567L854.648 112.014C855.972 111.339 857.306 112.195 857.057 113.56L853.397 133.571C853.118 134.886 852.406 136.07 851.375 136.933C850.344 137.796 849.053 138.288 847.709 138.33L805.535 138.322C804.936 138.348 804.34 138.235 803.792 137.992C803.245 137.749 802.761 137.383 802.379 136.922C801.996 136.46 801.726 135.917 801.589 135.334C801.452 134.751 801.451 134.144 801.588 133.561L805.247 113.55C805.304 113.232 805.434 112.931 805.626 112.67C805.818 112.409 806.067 112.196 806.354 112.047C806.642 111.898 806.959 111.816 807.283 111.809C807.607 111.801 807.928 111.868 808.221 112.005Z" fill="white"/>
<path d="M874.164 98.8736C882.137 98.8736 888.601 92.41 888.601 84.4368C888.601 76.4636 882.137 70 874.164 70C866.19 70 859.728 76.4636 859.728 84.4368C859.728 92.41 866.19 98.8736 874.164 98.8736Z" fill="#FF967C"/>
<path d="M875.175 403.765L887.145 421.55L880.762 391.165L875.175 403.765Z" fill="#FF967C"/>
</g>
</g>
<defs>
<linearGradient id="paint0_linear_75_16662" x1="669.474" y1="242.927" x2="687.737" y2="552.972" gradientUnits="userSpaceOnUse">
<stop stop-color="white"/>
<stop offset="1" stop-color="#94B9FF"/>
</linearGradient>
<linearGradient id="paint1_linear_75_16662" x1="622.729" y1="334.5" x2="699.16" y2="870.254" gradientUnits="userSpaceOnUse">
<stop stop-color="white"/>
<stop offset="1" stop-color="#94B9FF"/>
</linearGradient>
<linearGradient id="paint2_linear_75_16662" x1="820.559" y1="334.5" x2="896.989" y2="870.254" gradientUnits="userSpaceOnUse">
<stop stop-color="white"/>
<stop offset="1" stop-color="#94B9FF"/>
</linearGradient>
<linearGradient id="paint3_linear_75_16662" x1="453.885" y1="668.89" x2="472.521" y2="898.307" gradientUnits="userSpaceOnUse">
<stop stop-color="white"/>
<stop offset="1" stop-color="#94B9FF"/>
</linearGradient>
<clipPath id="clip0_75_16662">
<rect width="1440" height="1024" fill="white" transform="translate(0.0595703)"/>
</clipPath>
</defs>
</svg>
