<svg width="1441" height="1024" viewBox="0 0 1441 1024" fill="none" xmlns="http://www.w3.org/2000/svg">
<g clip-path="url(#clip0_75_17087)">
<path d="M1440.98 0H0.979492V1024H1440.98V0Z" fill="white"/>
<mask id="mask0_75_17087" style="mask-type:luminance" maskUnits="userSpaceOnUse" x="245" y="93" width="845" height="838">
<path d="M1089.51 93H245.979V930.007H1089.51V93Z" fill="white"/>
</mask>
<g mask="url(#mask0_75_17087)">
<path d="M682.704 839.623C880.786 839.623 1041.36 679.046 1041.36 480.963C1041.36 282.881 880.786 122.304 682.704 122.304C484.622 122.304 324.044 282.881 324.044 480.963C324.044 679.046 484.622 839.623 682.704 839.623Z" stroke="#D1E8F7" stroke-width="1.91649" stroke-miterlimit="10"/>
<path d="M390.927 283.002C397.904 283.002 403.56 277.346 403.56 270.369C403.56 263.392 397.904 257.737 390.927 257.737C383.951 257.737 378.295 263.392 378.295 270.369C378.295 277.346 383.951 283.002 390.927 283.002Z" fill="#FEBB94"/>
<path d="M1041.36 507.255C1048.34 507.255 1054 501.6 1054 494.623C1054 487.646 1048.34 481.99 1041.36 481.99C1034.39 481.99 1028.73 487.646 1028.73 494.623C1028.73 501.6 1034.39 507.255 1041.36 507.255Z" fill="#5661AE"/>
<path d="M697.415 852.255C704.391 852.255 710.047 846.599 710.047 839.623C710.047 832.646 704.391 826.99 697.415 826.99C690.438 826.99 684.782 832.646 684.782 839.623C684.782 846.599 690.438 852.255 697.415 852.255Z" fill="#1C85E8"/>
<path d="M691.013 750.876C838.777 750.876 958.563 631.09 958.563 483.326C958.563 335.561 838.777 215.775 691.013 215.775C543.248 215.775 423.462 335.561 423.462 483.326C423.462 631.09 543.248 750.876 691.013 750.876Z" stroke="#D1E8F7" stroke-width="1.42966" stroke-miterlimit="10"/>
<path d="M953.977 546.643C959.181 546.643 963.4 542.424 963.4 537.22C963.4 532.015 959.181 527.796 953.977 527.796C948.772 527.796 944.553 532.015 944.553 537.22C944.553 542.424 948.772 546.643 953.977 546.643Z" fill="#FEBB94"/>
<path d="M442.864 593.296C448.069 593.296 452.288 589.077 452.288 583.872C452.288 578.668 448.069 574.449 442.864 574.449C437.66 574.449 433.441 578.668 433.441 583.872C433.441 589.077 437.66 593.296 442.864 593.296Z" fill="#5661AE"/>
<path d="M571.169 253.289C576.374 253.289 580.593 249.07 580.593 243.865C580.593 238.661 576.374 234.442 571.169 234.442C565.965 234.442 561.746 238.661 561.746 243.865C561.746 249.07 565.965 253.289 571.169 253.289Z" fill="#1C85E8"/>
<path d="M830.264 779.603H521.285C507.88 779.603 498.058 768.736 499.347 755.331L552.092 206.636C553.38 193.231 565.291 182.364 578.696 182.364H887.675C901.08 182.364 910.902 193.231 909.613 206.636L856.868 755.331C855.58 768.736 843.668 779.603 830.264 779.603Z" fill="#1C85E8"/>
<path d="M808.488 779.603H499.509C486.105 779.603 476.283 768.736 477.571 755.331L530.316 206.636C531.605 193.231 543.516 182.364 556.921 182.364H865.9C879.303 182.364 889.125 193.231 887.837 206.636L835.092 755.331C833.803 768.736 821.893 779.603 808.488 779.603Z" fill="url(#paint0_linear_75_17087)"/>
<path d="M796.778 761.362H514.725C502.302 761.362 493.199 751.292 494.393 738.869L543.973 223.098C545.168 210.675 556.206 200.605 568.629 200.605H850.682C863.105 200.605 872.208 210.675 871.014 223.098L821.434 738.869C820.239 751.292 809.201 761.362 796.778 761.362Z" fill="white"/>
<path d="M819.397 435.237L516.826 434.968C515.59 435.002 514.361 434.771 513.221 434.292C512.082 433.813 511.057 433.096 510.217 432.189C509.376 431.283 508.739 430.207 508.347 429.035C507.955 427.862 507.818 426.619 507.945 425.389L524.257 244.26C524.552 241.646 525.794 239.231 527.748 237.47C529.701 235.708 532.231 234.723 534.861 234.698L837.432 234.967C838.668 234.934 839.897 235.164 841.037 235.643C842.176 236.123 843.201 236.839 844.041 237.746C844.882 238.653 845.519 239.728 845.911 240.901C846.303 242.073 846.44 243.316 846.313 244.546L830.001 425.676C829.706 428.289 828.464 430.704 826.51 432.466C824.557 434.227 822.027 435.213 819.397 435.237Z" fill="url(#paint1_linear_75_17087)"/>
<path d="M809.87 630.406H681.985C681.042 630.425 680.105 630.24 679.239 629.866C678.373 629.492 677.598 628.936 676.965 628.236C676.333 627.536 675.858 626.709 675.573 625.809C675.287 624.91 675.199 623.96 675.312 623.024L690.84 461.488C691.064 459.485 692.008 457.632 693.497 456.274C694.986 454.916 696.917 454.146 698.932 454.106H826.818C827.761 454.087 828.697 454.271 829.563 454.646C830.429 455.02 831.204 455.576 831.837 456.276C832.47 456.976 832.945 457.803 833.23 458.702C833.515 459.602 833.604 460.552 833.49 461.488L817.962 623.024C817.738 625.026 816.794 626.879 815.305 628.237C813.817 629.595 811.885 630.366 809.87 630.406Z" fill="url(#paint2_linear_75_17087)"/>
<path d="M779.382 541.294C793.805 527.549 795.374 505.785 782.888 492.685C770.401 479.584 748.588 480.107 734.166 493.852C719.744 507.598 718.174 529.361 730.661 542.462C743.147 555.563 764.96 555.04 779.382 541.294Z" stroke="#EF6A77" stroke-width="11.6898" stroke-miterlimit="10"/>
<path d="M740.562 549.348C728.598 544.182 721.015 531.901 722.392 517.573C724.217 498.584 741.09 483.191 760.079 483.191" stroke="white" stroke-width="11.6898" stroke-miterlimit="10" stroke-linecap="round"/>
<path d="M737.724 578.904H764.034" stroke="white" stroke-width="5.98374" stroke-miterlimit="10" stroke-linecap="round"/>
<path d="M734.858 608.701H761.169" stroke="white" stroke-width="5.98374" stroke-miterlimit="10" stroke-linecap="round"/>
<path opacity="0.4" d="M722.275 593.634H776.649" stroke="white" stroke-width="5.98374" stroke-miterlimit="10" stroke-linecap="round"/>
<path d="M653.474 630.406H525.589C524.646 630.425 523.709 630.24 522.843 629.866C521.978 629.492 521.202 628.936 520.569 628.236C519.937 627.536 519.462 626.709 519.177 625.809C518.891 624.91 518.803 623.96 518.916 623.024L534.444 461.488C534.668 459.485 535.612 457.632 537.101 456.274C538.59 454.916 540.521 454.146 542.536 454.106H670.422C671.365 454.087 672.301 454.271 673.167 454.646C674.033 455.02 674.808 455.576 675.441 456.276C676.074 456.976 676.549 457.803 676.834 458.702C677.119 459.602 677.208 460.552 677.094 461.488L661.566 623.024C661.342 625.026 660.398 626.879 658.909 628.237C657.421 629.595 655.489 630.366 653.474 630.406Z" fill="#FEBB94"/>
<path d="M622.987 541.294C637.409 527.549 638.978 505.785 626.492 492.685C614.006 479.584 592.191 480.107 577.769 493.852C563.347 507.598 561.778 529.361 574.264 542.462C586.75 555.563 608.565 555.04 622.987 541.294Z" stroke="#EF6A77" stroke-width="11.6898" stroke-miterlimit="10"/>
<path d="M634.76 517.573C632.935 536.562 616.062 551.955 597.073 551.955C578.084 551.955 564.17 536.562 565.996 517.573C567.821 498.584 584.694 483.191 603.683 483.191" stroke="white" stroke-width="11.6898" stroke-miterlimit="10" stroke-linecap="round"/>
<path d="M581.328 578.904H607.638" stroke="white" stroke-width="5.98374" stroke-miterlimit="10" stroke-linecap="round"/>
<path d="M578.462 608.701H604.773" stroke="white" stroke-width="5.98374" stroke-miterlimit="10" stroke-linecap="round"/>
<path opacity="0.4" d="M565.879 593.634H620.253" stroke="white" stroke-width="5.98374" stroke-miterlimit="10" stroke-linecap="round"/>
<path d="M799.151 745.944H514.097C513.203 745.961 512.316 745.787 511.496 745.432C510.675 745.077 509.94 744.55 509.34 743.887C508.741 743.224 508.291 742.44 508.02 741.587C507.75 740.735 507.666 739.835 507.773 738.947L516.28 650.461C516.492 648.563 517.387 646.806 518.798 645.519C520.209 644.232 522.039 643.502 523.949 643.464H809.002C809.896 643.446 810.783 643.621 811.604 643.976C812.424 644.331 813.159 644.857 813.759 645.521C814.358 646.184 814.808 646.968 815.079 647.82C815.349 648.673 815.433 649.573 815.326 650.461L806.82 738.947C806.607 740.845 805.713 742.601 804.302 743.888C802.891 745.176 801.06 745.906 799.151 745.944Z" fill="url(#paint3_linear_75_17087)"/>
<path d="M533.947 725.427L537.968 683.595" stroke="white" stroke-width="11.6898" stroke-miterlimit="10" stroke-linecap="round"/>
<path d="M563.452 696.123L560.635 725.427" stroke="white" stroke-width="11.6898" stroke-miterlimit="10" stroke-linecap="round"/>
<path d="M589.178 706.131L587.323 725.427" stroke="white" stroke-width="11.6898" stroke-miterlimit="10" stroke-linecap="round"/>
<path d="M619.077 672.724L614.011 725.427" stroke="white" stroke-width="11.6898" stroke-miterlimit="10" stroke-linecap="round"/>
<path d="M642.554 706.131L640.699 725.427" stroke="white" stroke-width="11.6898" stroke-miterlimit="10" stroke-linecap="round"/>
<path d="M672.231 675.052L667.388 725.427" stroke="white" stroke-width="11.6898" stroke-miterlimit="10" stroke-linecap="round"/>
<path d="M696.086 704.511L694.075 725.427" stroke="white" stroke-width="11.6898" stroke-miterlimit="10" stroke-linecap="round"/>
<path d="M721.835 714.285L720.764 725.427" stroke="white" stroke-width="11.6898" stroke-miterlimit="10" stroke-linecap="round"/>
<path d="M751.472 683.595L747.451 725.427" stroke="white" stroke-width="11.6898" stroke-miterlimit="10" stroke-linecap="round"/>
<path d="M779.692 667.667L774.14 725.427" stroke="white" stroke-width="11.6898" stroke-miterlimit="10" stroke-linecap="round"/>
<path d="M541.334 407.462L557.354 432.557C558.077 433.69 558.323 435.062 558.039 436.375C557.754 437.689 556.963 438.836 555.836 439.569L553.247 441.251C548.913 444.067 543.704 445.214 538.588 444.479C533.472 443.743 528.797 441.175 525.432 437.251L504.173 412.46L541.334 407.462Z" fill="#FFCCB3"/>
<path d="M529.11 417.119C529.11 417.119 535.042 437.487 546.959 444.021C550.053 442.823 553.026 441.332 555.836 439.569L542.473 417.119" fill="#FCBA9F"/>
<path d="M255.043 508.715L317.968 478.56C323.897 475.719 328.91 471.271 332.438 465.723L393.226 370.099C397.01 364.146 402.499 359.469 408.978 356.678L496.531 318.958L477.787 460.707L477.457 465.943C477.457 465.943 454.3 525.919 397.542 547.708L306.797 603.211L255.043 508.715Z" fill="#FFCCB3"/>
<path d="M323.523 475.233C323.523 475.233 353.289 549.529 397.543 547.708L369.288 564.99C369.288 564.99 273.385 547.2 309.284 482.575L323.523 475.233Z" fill="#FCBA9F"/>
<path d="M482.98 345.191C482.98 345.191 452.024 363.949 453.666 407.462L490.841 393.57L482.98 345.191Z" fill="#FCBA9F"/>
<path d="M560.743 407.462L576.763 432.557C577.486 433.69 577.732 435.062 577.448 436.375C577.164 437.689 576.372 438.836 575.245 439.569L572.656 441.251C568.322 444.067 563.113 445.214 557.997 444.479C552.881 443.743 548.206 441.175 544.841 437.251L523.583 412.46L560.743 407.462Z" fill="#FFCCB3"/>
<path d="M797.576 417.358L495.005 417.089C493.769 417.122 492.54 416.892 491.401 416.412C490.261 415.933 489.237 415.216 488.396 414.31C487.555 413.403 486.918 412.328 486.526 411.155C486.134 409.982 485.997 408.74 486.124 407.51L502.436 226.38C502.732 223.766 503.973 221.351 505.927 219.59C507.88 217.829 510.41 216.843 513.041 216.818L815.611 217.088C816.847 217.054 818.076 217.285 819.216 217.764C820.355 218.243 821.38 218.96 822.22 219.866C823.061 220.773 823.698 221.849 824.09 223.021C824.482 224.194 824.619 225.437 824.493 226.666L808.181 407.796C807.885 410.41 806.643 412.825 804.69 414.586C802.736 416.347 800.206 417.333 797.576 417.358Z" fill="#1C85E8"/>
<path d="M515.038 324.275C515.038 324.275 542.198 318.782 549.508 331.527C556.817 344.271 563.12 368.205 582.568 365.12C602.016 362.034 616.903 299.46 636.022 300.031C655.142 300.602 648.401 341.584 669.212 342.156C690.022 342.728 686.321 319.264 700.191 319.918C717.016 320.711 710.744 369.331 732.682 369.904C754.62 370.477 758.2 305.682 791.364 306.819" stroke="white" stroke-width="7.56507" stroke-miterlimit="10" stroke-linecap="round"/>
<path d="M530.485 247.154L583.718 247.201" stroke="white" stroke-width="11.9991" stroke-miterlimit="10" stroke-linecap="round"/>
<path opacity="0.4" d="M528.288 271.556L638.298 271.654" stroke="white" stroke-width="11.9991" stroke-miterlimit="10" stroke-linecap="round"/>
<path d="M425.287 416.46L464.101 399.363L503.794 372.268C514.233 365.143 536.033 361.933 543.881 371.839C551.864 381.915 542.897 401.847 533.215 410.302L496.532 442.335L477.457 465.943L425.287 416.46Z" fill="#FFCCB3"/>
<path d="M504.173 382.557C504.173 382.557 509.413 402.763 522.999 406.259L537.409 394.085C538.87 392.997 540.094 391.623 541.007 390.047C541.92 388.47 542.502 386.724 542.718 384.916C542.934 383.107 542.78 381.273 542.264 379.526C541.748 377.779 540.882 376.155 539.718 374.754C537.685 372.306 534.849 370.66 531.715 370.11C528.581 369.561 525.353 370.143 522.609 371.753L504.173 382.557Z" stroke="#FF967C" stroke-width="3" stroke-linecap="round"/>
<path d="M320.359 476.062C320.359 476.062 312.837 529.857 378.295 560.66C378.295 560.66 331.273 603.794 313.144 611.047C295.016 618.299 226.903 544.182 251.129 502.114C257.923 490.317 320.359 476.062 320.359 476.062Z" fill="#1C85E8"/>
<path d="M568.38 419.425C568.38 419.425 542.867 419.945 533.986 424.593L527.576 417.118L566.908 417.119L568.38 419.425Z" fill="#FCBA9F"/>
<path d="M1038.14 417.358H856.734C843.069 417.358 832.972 406.28 834.182 392.615L858.521 117.742C859.731 104.078 871.789 93 885.454 93H1066.86C1080.53 93 1090.62 104.078 1089.41 117.742L1065.07 392.615C1063.86 406.28 1051.8 417.358 1038.14 417.358Z" fill="#FEBB94"/>
<path d="M1012.17 248.209C1040.9 220.728 1043.79 177.137 1018.64 150.846C993.486 124.555 949.81 125.519 921.085 153C892.361 180.481 889.465 224.072 914.618 250.363C939.771 276.655 983.448 275.69 1012.17 248.209Z" fill="white"/>
<path d="M970.473 202.744L1016.01 244.276C1016.01 244.276 1026.37 233.141 1029.46 225.183L970.473 202.744Z" fill="url(#paint4_linear_75_17087)"/>
<path d="M973.504 122.963L967.033 196.04C966.889 197.371 967.138 198.715 967.749 199.907C968.36 201.098 969.307 202.084 970.472 202.744L1032.26 237.142C1032.26 237.142 1068.95 134.783 973.504 122.963Z" fill="#1C85E8"/>
<path d="M876.793 320.069H951.945" stroke="white" stroke-width="12" stroke-miterlimit="10" stroke-linecap="round"/>
<path d="M871.292 382.201H946.445" stroke="white" stroke-width="12" stroke-miterlimit="10" stroke-linecap="round"/>
<path opacity="0.4" d="M874.074 350.784H1029.38" stroke="white" stroke-width="12" stroke-miterlimit="10" stroke-linecap="round"/>
<path d="M815.044 619.855C815.044 619.855 839.269 613.394 852.162 627.277C852.162 627.277 875.336 623.069 884.758 635.961C884.758 635.961 905.303 637.151 911.253 645.531C916.201 646.214 920.88 648.195 924.813 651.274C928.746 654.352 931.794 658.418 933.645 663.057C939.263 676.298 934.498 752.849 928.914 780.28C927.518 787.141 927.996 794.251 930.299 800.863L944.503 841.682L846.226 882.765L822.894 821.909C822.894 821.909 794.493 776.268 790.435 768.153C786.378 760.039 793.255 692.706 779.404 650.643L815.044 619.855Z" fill="#FFCCB3"/>
<path d="M835.57 854.971L832.735 847.576C832.735 847.576 883.73 844.316 930.299 800.863L934.753 813.663C934.753 813.663 929.001 840.103 902.813 852.564C876.624 865.026 835.57 854.971 835.57 854.971Z" fill="#FCBA9F"/>
<path d="M835.57 854.971C835.57 854.971 897.297 860.593 934.753 813.663C934.753 813.663 948.582 820.913 969.817 873.994C976.339 890.298 867.43 948.345 849.821 924.216C849.821 924.216 834.619 892.059 835.57 854.971Z" fill="#5661AE"/>
<path d="M785.444 676.035C785.444 676.035 783.315 687.331 773.248 687.332C766.68 687.332 738.211 678.731 719.209 672.751C714.039 671.124 708.493 671.124 703.323 672.751C698.153 674.378 693.607 677.554 690.301 681.848L689.146 683.348C688.572 684.091 688.156 684.943 687.921 685.853C687.686 686.762 687.639 687.709 687.781 688.637C687.923 689.565 688.252 690.455 688.748 691.252C689.244 692.05 689.897 692.738 690.667 693.275C706.754 704.506 750.195 734.988 755.751 740.544C762.589 747.381 800.664 785.713 800.664 785.713L785.444 676.035Z" fill="#FFCCB3"/>
<path d="M783.133 664.717C783.133 664.717 803.71 692.569 800.664 698.666C797.618 704.763 765.711 686.122 765.711 686.122C765.711 686.122 791.458 692.745 783.133 664.717Z" fill="#FCBA9F"/>
<path d="M779.404 650.643L744.779 545.495C743.592 541.888 743.14 538.079 743.452 534.294C743.764 530.51 744.833 526.826 746.595 523.463C748.357 520.099 750.777 517.123 753.71 514.712C756.644 512.301 760.032 510.503 763.673 509.426C766.654 508.545 769.853 508.783 772.67 510.097C775.487 511.411 777.726 513.709 778.965 516.559L827.54 628.218L779.404 650.643Z" fill="#FFCCB3"/>
<path d="M764.39 605.045C765.371 606.657 766.675 608.049 768.219 609.133C769.764 610.218 771.515 610.971 773.365 611.347" stroke="#FF967C" stroke-width="3" stroke-linecap="round"/>
<path d="M776.847 551.217C781.06 549.35 785.707 546.741 787.706 543.696L774.813 513.083C774.537 512.423 774.124 511.83 773.601 511.342C773.078 510.854 772.458 510.483 771.781 510.253C771.104 510.023 770.386 509.94 769.674 510.009C768.962 510.078 768.273 510.297 767.653 510.652C763.065 513.3 757.009 518.078 756.774 524.938L765.494 546.638C765.922 547.698 766.559 548.66 767.367 549.468C768.175 550.276 769.138 550.913 770.197 551.34C771.257 551.768 772.392 551.977 773.535 551.956C774.677 551.935 775.804 551.683 776.847 551.217Z" stroke="#FF967C" stroke-width="3" stroke-linecap="round"/>
<path d="M823.633 619.236L835.57 645.531" stroke="#FF967C" stroke-width="3" stroke-linecap="round"/>
<path d="M852.64 627.815C858.706 636.511 861.957 646.86 861.954 657.464" stroke="#FF967C" stroke-width="3" stroke-linecap="round"/>
<path d="M885.329 636.453C885.329 636.453 891.338 650.234 891.834 661.132" stroke="#FF967C" stroke-width="3" stroke-linecap="round"/>
<path d="M912.094 646.349C914.461 652.164 915.379 658.468 914.768 664.717" stroke="#FF967C" stroke-width="3" stroke-linecap="round"/>
<path d="M716.092 706.131C716.092 706.131 723.202 697.101 720.763 692.572C718.324 688.043 707.475 681.638 701.205 682.335C698.213 682.786 695.326 683.769 692.682 685.239C692.201 685.49 691.795 685.863 691.503 686.321C691.211 686.778 691.043 687.303 691.016 687.845C690.99 688.387 691.105 688.927 691.351 689.41C691.598 689.894 691.966 690.305 692.42 690.602L716.092 706.131Z" stroke="#FF967C" stroke-width="3" stroke-linecap="round"/>
<path d="M593.822 816.234H377.207C376.313 816.251 375.426 816.077 374.605 815.722C373.784 815.367 373.049 814.84 372.45 814.177C371.85 813.514 371.4 812.729 371.13 811.877C370.859 811.025 370.775 810.125 370.883 809.237L379.389 720.75C379.601 718.852 380.496 717.096 381.907 715.809C383.318 714.522 385.148 713.792 387.058 713.754H603.674C604.568 713.736 605.455 713.911 606.275 714.266C607.096 714.62 607.831 715.147 608.431 715.81C609.03 716.474 609.48 717.258 609.751 718.11C610.021 718.963 610.105 719.863 609.998 720.75L601.492 809.237C601.279 811.135 600.384 812.891 598.973 814.178C597.563 815.465 595.732 816.196 593.822 816.234Z" fill="#FEBB94"/>
<path d="M397.542 736.83H531.225" stroke="#EF6A77" stroke-width="11.6898" stroke-miterlimit="10" stroke-linecap="round"/>
<path d="M397.542 736.83H490.439" stroke="white" stroke-width="11.6898" stroke-miterlimit="10" stroke-linecap="round"/>
<path d="M395.542 764.994H529.225" stroke="#EF6A77" stroke-width="11.6898" stroke-miterlimit="10" stroke-linecap="round"/>
<path d="M395.542 764.994H451.082" stroke="white" stroke-width="11.6898" stroke-miterlimit="10" stroke-linecap="round"/>
<path d="M391.171 793.158H524.854" stroke="#EF6A77" stroke-width="11.6898" stroke-miterlimit="10" stroke-linecap="round"/>
<path d="M391.171 793.158H425.136" stroke="white" stroke-width="11.6898" stroke-miterlimit="10" stroke-linecap="round"/>
<path d="M578.547 744.817C582.959 744.817 586.535 741.241 586.535 736.83C586.535 732.418 582.959 728.842 578.547 728.842C574.136 728.842 570.56 732.418 570.56 736.83C570.56 741.241 574.136 744.817 578.547 744.817Z" fill="white"/>
<path d="M575.956 771.749C580.368 771.749 583.944 768.173 583.944 763.762C583.944 759.35 580.368 755.774 575.956 755.774C571.544 755.774 567.968 759.35 567.968 763.762C567.968 768.173 571.544 771.749 575.956 771.749Z" fill="white"/>
<path d="M573.066 801.146C577.477 801.146 581.054 797.569 581.054 793.158C581.054 788.746 577.477 785.17 573.066 785.17C568.654 785.17 565.078 788.746 565.078 793.158C565.078 797.569 568.654 801.146 573.066 801.146Z" fill="white"/>
</g>
</g>
<defs>
<linearGradient id="paint0_linear_75_17087" x1="635.183" y1="-7.66352" x2="919.02" y2="1414.72" gradientUnits="userSpaceOnUse">
<stop stop-color="white"/>
<stop offset="1" stop-color="#94B9FF"/>
</linearGradient>
<linearGradient id="paint1_linear_75_17087" x1="668.703" y1="234.221" x2="696.224" y2="662.637" gradientUnits="userSpaceOnUse">
<stop stop-color="white"/>
<stop offset="1" stop-color="#94B9FF"/>
</linearGradient>
<linearGradient id="paint2_linear_75_17087" x1="750.461" y1="453.685" x2="795.478" y2="826.442" gradientUnits="userSpaceOnUse">
<stop stop-color="white"/>
<stop offset="1" stop-color="#94B9FF"/>
</linearGradient>
<linearGradient id="paint3_linear_75_17087" x1="653.891" y1="643.219" x2="661.82" y2="862.771" gradientUnits="userSpaceOnUse">
<stop stop-color="white"/>
<stop offset="1" stop-color="#94B9FF"/>
</linearGradient>
<linearGradient id="paint4_linear_75_17087" x1="998.496" y1="202.645" x2="1005.26" y2="291.221" gradientUnits="userSpaceOnUse">
<stop stop-color="white"/>
<stop offset="1" stop-color="#94B9FF"/>
</linearGradient>
<clipPath id="clip0_75_17087">
<rect width="1440" height="1024" fill="white" transform="translate(0.979492)"/>
</clipPath>
</defs>
</svg>
