<svg width="1747" height="1747" viewBox="0 0 1747 1747" fill="none" xmlns="http://www.w3.org/2000/svg">
<g clip-path="url(#clip0_356_7591)">
<path d="M1747 0H0V1747H1747V0Z" fill="white"/>
<path opacity="0.5" d="M874.874 1621.9C1301.95 1621.9 1648.16 1573.89 1648.16 1514.66C1648.16 1455.44 1301.95 1407.42 874.874 1407.42C447.8 1407.42 101.589 1455.44 101.589 1514.66C101.589 1573.89 447.8 1621.9 874.874 1621.9Z" fill="#F5F5F5"/>
<path d="M735.74 1322.11C735.89 1311.1 735.453 1295.84 732.826 1277.91C730.611 1262.82 723.539 1214.59 698.109 1178.14C659.675 1123.06 616.105 1147.62 571.445 1090.67C545.886 1058.08 553.073 1041 523.843 1014.91C498.022 991.863 470.304 983.376 440.769 978.519C366.033 966.227 244.103 977.757 244.103 977.757C254.396 1095.94 294.123 1144.8 328.406 1167.6C376.518 1199.6 413.527 1180 456.408 1218.3C512.232 1268.16 475.587 1324.66 527.651 1376.53C527.651 1376.53 550.443 1399.24 727.319 1432.86L735.74 1322.11Z" fill="#F5F5F5"/>
<path d="M727.319 1432.86C727.319 1432.86 590.679 1200.3 538.629 1154.73C486.579 1109.15 244.103 977.757 244.103 977.757" stroke="#D6D6D6" stroke-width="1.62716" stroke-miterlimit="10" stroke-linecap="round" stroke-linejoin="round"/>
<path d="M419.568 1076.93L266.939 1085.47" stroke="#D6D6D6" stroke-width="1.62716" stroke-miterlimit="10" stroke-linecap="round" stroke-linejoin="round"/>
<path d="M451.098 1095.82L461.227 982.628" stroke="#D6D6D6" stroke-width="1.62716" stroke-miterlimit="10" stroke-linecap="round" stroke-linejoin="round"/>
<path d="M520.495 1140.66L388.394 1189.47" stroke="#D6D6D6" stroke-width="1.62716" stroke-miterlimit="10" stroke-linecap="round" stroke-linejoin="round"/>
<path d="M576.384 1198.68L593.382 1112.86" stroke="#D6D6D6" stroke-width="1.62716" stroke-miterlimit="10" stroke-linecap="round" stroke-linejoin="round"/>
<path d="M619.015 1259.48L491.044 1282.85" stroke="#D6D6D6" stroke-width="1.62716" stroke-miterlimit="10" stroke-linecap="round" stroke-linejoin="round"/>
<path d="M652.399 1310.74L700.561 1181.78" stroke="#D6D6D6" stroke-width="1.62716" stroke-miterlimit="10" stroke-linecap="round" stroke-linejoin="round"/>
<path d="M682.773 1359.19L534.753 1381.01" stroke="#D6D6D6" stroke-width="1.62716" stroke-miterlimit="10" stroke-linecap="round" stroke-linejoin="round"/>
<path d="M654.497 1340.32C650.426 1330.09 644.189 1316.15 634.909 1300.59C627.093 1287.49 602.125 1245.63 564.694 1221.67C508.122 1185.46 477.25 1224.8 414.214 1189.25C378.139 1168.9 378.254 1150.37 341.27 1137.43C308.601 1126 279.741 1128.75 250.597 1135.55C176.835 1152.76 68.5703 1210.01 68.5703 1210.01C123.251 1315.29 178.638 1345.26 219.032 1353.23C275.723 1364.4 302.431 1332.15 356.696 1351.15C427.338 1375.89 415.067 1442.1 483.004 1470.14C483.004 1470.14 512.745 1482.42 689.042 1445.88L654.497 1340.32Z" fill="#F5F5F5"/>
<path d="M689.042 1445.88C689.042 1445.88 473.892 1283.2 408.376 1260.98C342.856 1238.76 68.5703 1210.01 68.5703 1210.01" stroke="#D6D6D6" stroke-width="1.62716" stroke-miterlimit="10" stroke-linecap="round" stroke-linejoin="round"/>
<path d="M268.621 1234.6L130.842 1300.83" stroke="#D6D6D6" stroke-width="1.62716" stroke-miterlimit="10" stroke-linecap="round" stroke-linejoin="round"/>
<path d="M304.975 1240L271.072 1131.53" stroke="#D6D6D6" stroke-width="1.62716" stroke-miterlimit="10" stroke-linecap="round" stroke-linejoin="round"/>
<path d="M386.246 1254.92L282.827 1350.51" stroke="#D6D6D6" stroke-width="1.62716" stroke-miterlimit="10" stroke-linecap="round" stroke-linejoin="round"/>
<path d="M460.063 1287.16L442.971 1201.37" stroke="#D6D6D6" stroke-width="1.62716" stroke-miterlimit="10" stroke-linecap="round" stroke-linejoin="round"/>
<path d="M522.695 1327.06L413.371 1397.57" stroke="#D6D6D6" stroke-width="1.62716" stroke-miterlimit="10" stroke-linecap="round" stroke-linejoin="round"/>
<path d="M573.132 1361.66L568.349 1224.09" stroke="#D6D6D6" stroke-width="1.62716" stroke-miterlimit="10" stroke-linecap="round" stroke-linejoin="round"/>
<path d="M619.726 1394.83L491.283 1471.57" stroke="#D6D6D6" stroke-width="1.62716" stroke-miterlimit="10" stroke-linecap="round" stroke-linejoin="round"/>
<path d="M1152.32 1447.65H686.441L731.308 1139.58H1107.45L1152.32 1447.65Z" fill="#2842F7"/>
<path d="M1498.63 1193.89H340.133C310.699 1193.89 286.839 1170.03 286.839 1140.6V410.765C286.839 381.332 310.699 357.471 340.133 357.471H1498.63C1528.06 357.471 1551.92 381.332 1551.92 410.765V1140.6C1551.92 1170.03 1528.06 1193.89 1498.63 1193.89Z" fill="#6FBAFF"/>
<path d="M1467.93 1106.14H370.832C341.399 1106.14 317.538 1082.28 317.538 1052.85V435.947C317.538 406.513 341.399 382.653 370.832 382.653H1467.93C1497.37 382.653 1521.23 406.513 1521.23 435.947V1052.85C1521.23 1082.28 1497.37 1106.14 1467.93 1106.14Z" fill="#B4DBFF"/>
<path d="M1251.07 1470.08H587.695V1438.03C587.695 1413.25 607.782 1393.17 632.562 1393.17H1206.2C1230.98 1393.17 1251.07 1413.25 1251.07 1438.03V1470.08Z" fill="#6FBAFF"/>
<path d="M356.784 1106.14H1459.73" stroke="#262626" stroke-width="3.494" stroke-miterlimit="10" stroke-linecap="round" stroke-linejoin="round"/>
<path d="M616.896 1454.06V1437.23C616.896 1427.05 625.145 1418.81 635.323 1418.81H1132.85" stroke="#262626" stroke-width="3.494" stroke-miterlimit="10" stroke-linecap="round" stroke-linejoin="round"/>
<path d="M1079.97 1218.51L1097.6 1353.11" stroke="#262626" stroke-width="3.494" stroke-miterlimit="10" stroke-linecap="round" stroke-linejoin="round"/>
<path d="M908.254 1178.55C922.508 1178.55 934.064 1167 934.064 1152.74C934.064 1138.49 922.508 1126.93 908.254 1126.93C893.999 1126.93 882.443 1138.49 882.443 1152.74C882.443 1167 893.999 1178.55 908.254 1178.55Z" fill="white"/>
<path d="M1275.46 431.761H1412.46C1438.57 431.761 1459.73 452.924 1459.73 479.031V763.691" stroke="white" stroke-width="3.494" stroke-miterlimit="10" stroke-linecap="round" stroke-linejoin="round"/>
<path d="M1380.01 521.934C1387.93 502.899 1395.75 488.171 1403.48 477.763C1411.22 467.354 1421.29 459.052 1433.7 452.861C1440.96 449.067 1448.52 446.345 1456.4 444.699C1464.27 443.057 1471.76 440.964 1478.87 438.431C1485.97 435.901 1492.51 432.463 1498.48 428.131C1504.44 423.798 1509.37 416.957 1513.26 407.596C1519.83 391.789 1520.07 378.921 1513.97 369.009C1507.88 359.096 1498.86 351.654 1486.92 346.692C1469.81 339.582 1456.05 339.449 1445.65 346.284C1435.23 353.121 1425.87 364.271 1417.55 379.735L1355.11 353.782C1361.69 337.975 1370.23 324.684 1380.76 313.922C1391.29 303.164 1403.19 295.243 1416.47 290.163C1429.74 285.09 1444.08 282.909 1459.49 283.636C1474.88 284.359 1490.65 288.077 1506.79 294.786C1541.64 309.272 1566.19 327.807 1580.47 350.389C1594.72 372.974 1595.22 400.234 1581.94 432.18C1577.65 442.512 1572.84 451.104 1567.53 457.98C1562.21 464.849 1556.14 470.558 1549.34 475.111C1542.52 479.657 1534.91 483.402 1526.5 486.341C1518.09 489.279 1508.81 492.039 1498.65 494.628C1489.26 497.165 1481.43 499.869 1475.13 502.731C1468.83 505.603 1463.47 509.149 1459.07 513.37C1454.66 517.594 1450.96 522.402 1447.97 527.772C1444.98 533.153 1442.01 539.397 1439.06 546.49L1380.01 521.934ZM1339.24 614.549L1365.6 551.14L1430.94 578.303L1404.58 641.712L1339.24 614.549Z" fill="#3897E9"/>
<path d="M999.264 617.096V565.315C999.264 548.331 985.494 534.561 968.51 534.561H667.928C650.944 534.561 637.174 548.331 637.174 565.315V617.096V962.066C637.174 979.05 650.944 992.82 667.928 992.82H1148.59C1165.57 992.82 1179.34 979.05 1179.34 962.066V647.851C1179.34 630.866 1165.57 617.096 1148.59 617.096H999.264Z" fill="#F5F5F5"/>
<path d="M968.813 689.422L908.255 749.98L847.701 689.426L811.157 725.966L871.712 786.524L811.157 847.082L847.701 883.622L908.255 823.068L968.813 883.622L1005.36 847.082L944.799 786.524L1005.36 725.966L968.813 689.422Z" fill="#D6D6D6"/>
<path d="M252.114 1467.09V1427.22H178.691V1536.86L344.475 1539.52V1519.59L252.114 1467.09Z" fill="#F7A99C"/>
<path d="M350.347 1539.52V1530.07C350.347 1520.4 345.046 1511.52 336.542 1506.93L266.624 1469.2C245.663 1474.92 229.465 1474.12 218.396 1472.24C200.014 1469.12 182.446 1460.77 176.534 1467.76C174.843 1469.75 174.641 1472.38 174.707 1474.18V1532.15C174.707 1536.22 178.005 1539.52 182.072 1539.52H350.347Z" fill="#FFC001"/>
<path d="M350.347 1533.21H174.703" stroke="#3897E9" stroke-width="2.5611" stroke-miterlimit="10" stroke-linecap="round" stroke-linejoin="round"/>
<path d="M311.647 1494.29L301.808 1507.29" stroke="#3897E9" stroke-width="2.5611" stroke-miterlimit="10" stroke-linecap="round" stroke-linejoin="round"/>
<path d="M304.441 1490.22L294.602 1503.22" stroke="#3897E9" stroke-width="2.5611" stroke-miterlimit="10" stroke-linecap="round" stroke-linejoin="round"/>
<path d="M296.91 1486.45L287.067 1499.45" stroke="#3897E9" stroke-width="2.5611" stroke-miterlimit="10" stroke-linecap="round" stroke-linejoin="round"/>
<path d="M285.819 1479.56C273.904 1484.1 254.24 1489.93 229.415 1489.8C205.464 1489.67 186.453 1484.04 174.706 1479.56" stroke="#3897E9" stroke-width="2.5611" stroke-miterlimit="10" stroke-linecap="round" stroke-linejoin="round"/>
<path d="M461.427 1467.09V1427.22H388.004V1536.86L553.787 1539.52V1519.59L461.427 1467.09Z" fill="#F7A99C"/>
<path d="M559.655 1539.52V1530.07C559.655 1520.4 554.355 1511.52 545.851 1506.93L475.932 1469.2C454.972 1474.92 438.773 1474.12 427.705 1472.24C409.323 1469.12 391.755 1460.77 385.843 1467.76C384.152 1469.75 383.949 1472.38 384.016 1474.18V1532.15C384.016 1536.22 387.314 1539.52 391.381 1539.52H559.655Z" fill="#FFC001"/>
<path d="M559.655 1533.21H384.015" stroke="#3897E9" stroke-width="2.5611" stroke-miterlimit="10" stroke-linecap="round" stroke-linejoin="round"/>
<path d="M520.955 1494.29L511.116 1507.29" stroke="#3897E9" stroke-width="2.5611" stroke-miterlimit="10" stroke-linecap="round" stroke-linejoin="round"/>
<path d="M513.749 1490.22L503.91 1503.22" stroke="#3897E9" stroke-width="2.5611" stroke-miterlimit="10" stroke-linecap="round" stroke-linejoin="round"/>
<path d="M506.218 1486.45L496.379 1499.45" stroke="#3897E9" stroke-width="2.5611" stroke-miterlimit="10" stroke-linecap="round" stroke-linejoin="round"/>
<path d="M495.127 1479.56C483.213 1484.1 463.549 1489.93 438.724 1489.8C414.776 1489.67 395.761 1484.04 384.015 1479.56" stroke="#3897E9" stroke-width="2.5611" stroke-miterlimit="10" stroke-linecap="round" stroke-linejoin="round"/>
<path d="M419.231 899.3C419.231 899.3 479.698 1091.33 488.999 1117.91C498.3 1144.49 506.941 1181.7 504.946 1214.26C502.95 1246.82 471.721 1447.49 471.721 1447.49H380.688C380.688 1447.49 374.259 1235.52 371.16 1218.91C368.061 1202.3 341.482 1108.34 341.482 1108.34C341.482 1108.34 332.845 1218.25 325.536 1247.48C318.226 1276.72 259.754 1450.81 259.754 1450.81H174.703L210.587 899.3H419.231Z" fill="#3897E9"/>
<path d="M558.009 782.237C558.009 782.237 586.88 757.744 594.186 741.721C600.44 728.007 609.182 703.912 611.572 697.253C611.932 696.246 612.987 695.691 614.025 695.935L615.754 696.344C621.11 697.612 624.419 702.993 623.133 708.346L620.251 720.358L650.757 700.324C653.374 698.605 656.899 699.45 658.451 702.172C659.82 704.572 659.167 707.619 656.934 709.244L636.812 723.919L670.24 708.224C672.829 707.008 675.914 707.986 677.332 710.47L677.374 710.544C678.873 713.175 677.958 716.522 675.327 718.021L675.701 717.913C678.604 717.078 681.682 718.486 682.947 721.225C684.415 724.397 682.926 728.15 679.687 729.46L677.56 730.32C680.334 729.453 683.248 731.183 683.814 734.034C684.642 738.195 682.636 742.399 678.873 744.359C669.876 749.041 664.038 750.274 655.488 756.675C648.72 761.738 651.089 764.963 643.87 774.197C635.079 785.445 627.592 785.763 612.449 796.894C606.698 801.122 598.756 807.712 590.363 817.52L558.009 782.237Z" fill="#F7A99C"/>
<path d="M658.938 703.377C658.938 703.377 660.472 706.487 657.558 708.702C654.647 710.917 631.915 727.744 631.915 727.744" stroke="#262626" stroke-width="1.44896" stroke-miterlimit="10" stroke-linecap="round" stroke-linejoin="round"/>
<path d="M675.328 718.021L644.028 732.549" stroke="#262626" stroke-width="1.44896" stroke-miterlimit="10" stroke-linecap="round" stroke-linejoin="round"/>
<path d="M678.549 730.131L647.082 744.614" stroke="#262626" stroke-width="1.44896" stroke-miterlimit="10" stroke-linecap="round" stroke-linejoin="round"/>
<path d="M617.94 697.155C617.94 697.155 623.44 700.635 623.286 704.492C623.132 708.35 617.584 733.129 617.584 733.129" stroke="#262626" stroke-width="1.44896" stroke-miterlimit="10" stroke-linecap="round" stroke-linejoin="round"/>
<path d="M380.692 1447.49C380.692 1447.49 372.453 1230.15 371.811 1224.53C371.168 1218.91 340.193 1103.88 340.193 1103.88L345.679 1053.03C345.679 1053.03 408.169 1206.86 408.169 1217.01C408.169 1227.16 415.112 1447.49 415.112 1447.49H380.692Z" fill="#1775AF"/>
<path d="M329.084 1234.18L351.292 993.991" stroke="#262626" stroke-width="1.44896" stroke-miterlimit="10" stroke-linecap="round" stroke-linejoin="round"/>
<path d="M475.222 1429.05H379.989L380.692 1447.49H471.724L475.222 1429.05Z" fill="#262626"/>
<path d="M265.275 1434.34H175.776L174.703 1450.81H259.758L265.275 1434.34Z" fill="#262626"/>
<path d="M480.763 1136.9C492.814 1174.84 494.725 1215.94 486.241 1254.83" stroke="white" stroke-width="1.44896" stroke-miterlimit="10" stroke-linecap="round" stroke-linejoin="round"/>
<path d="M582.009 756.409C582.009 756.409 566.593 768.278 549.032 771.36C528.456 774.973 510.612 762.786 505.822 759.516C492.775 750.606 487.957 740.05 479.33 727.699C453.775 691.117 437.902 668.392 415.68 655.524C404.195 648.871 384.989 641.362 354.71 643.686C347.918 641.251 337.09 643.179 329.836 643.179C323.806 643.179 317.778 643.179 311.748 643.179C299.861 644.605 212.315 654.776 197.431 641.107C191.565 635.72 191.47 630.412 191.47 630.412C191.393 626.024 194.164 621.457 201.418 615.933C219.143 602.436 251.658 592.359 262.549 589.148L255.903 539.519C255.903 539.519 255.903 539.519 241.284 539.519C226.665 539.519 174.835 548.156 146.929 557.908C107.799 571.58 86.8355 581.559 76.4932 604.225C63.5375 632.627 77.3388 663.154 80.9236 671.086C98.8898 710.823 138.728 726.906 162.792 736.619C184.014 745.187 202.903 748.628 216.033 750.159L204.737 930.896L412.476 942.192H443.674C446.064 914.576 434.115 828.77 435.662 800.741C462.185 837.652 506.119 856.292 547.827 848.277C594 839.406 617.221 801.755 621.002 795.399C604.887 763.607 582.009 756.409 582.009 756.409Z" fill="#4450E4"/>
<path d="M323.903 743.317H321.901V657.057H334.986V732.234C334.986 738.356 330.025 743.317 323.903 743.317Z" fill="white"/>
<path d="M443.991 932.661C436.835 933.988 338.504 950.477 269.022 877.113C210.393 815.21 217.325 736.871 218.548 725.285C214.9 779.623 211.249 833.962 207.601 888.301H207.402L204.739 930.893L237.303 932.664L237.282 932.434C285.849 936.277 335.97 939.146 387.573 940.837C406.476 941.455 425.179 941.902 443.68 942.192C443.781 939.013 443.886 935.837 443.991 932.661Z" fill="#3748C4"/>
<path d="M388.906 577.883C392.466 559.61 391.911 545.326 390.877 536.197C390.091 529.25 388.882 523.992 385.192 518.992C384.413 517.937 378.284 509.88 367.767 507.776C355.189 505.257 352.013 514.394 334.12 516.609C318.691 518.517 315.651 512.392 305.274 516.791C293.939 521.595 288.345 532.814 286.647 536.221C285.906 537.709 282.213 545.319 281.839 555.983C281.542 564.428 283.471 570.78 284.236 573.38C287.451 584.319 291.235 600.958 295.861 627.558C298.275 627.467 300.693 627.379 303.107 627.289C331.709 610.814 360.308 594.347 388.906 577.883Z" fill="#262626"/>
<path d="M327.729 667.756C314.214 667.808 303.219 656.893 303.17 643.382L302.971 590.727L351.908 590.542L352.107 643.197C352.156 656.708 341.244 667.704 327.729 667.756Z" fill="#F7A99C"/>
<path d="M352.05 628.455L320.182 612.082C320.503 614.843 322.316 627.767 333.682 636.694C340.939 642.393 348.57 643.696 352.092 644.066L352.05 628.455Z" fill="#FF7769"/>
<path d="M301.784 574.414C301.63 573.617 299.534 572.415 298.891 572.006C297.804 571.311 296.627 570.756 295.397 570.361C293.011 569.592 290.387 569.414 287.934 569.976C283.056 571.094 278.731 575.193 277.917 580.214C277.445 583.131 278.119 586.147 279.367 588.823C281.246 592.848 284.433 596.23 288.283 598.445C291.473 600.283 295.104 601.325 298.772 601.541C299.506 601.583 307.029 601.412 306.973 601.122C305.24 592.219 303.51 583.316 301.784 574.414Z" fill="#F7A99C"/>
<path d="M295.076 574.924C295.656 578.851 299.109 599.574 317.787 614.214C321.229 616.911 344.101 634.839 365.03 626.09C391.923 614.846 388.988 570.675 388.8 568.282C388.16 560.193 386.27 536.374 366.546 523.667C350.449 513.297 333.004 517.108 330.53 517.692C327.924 518.303 311.317 522.496 301.153 538.778C291.925 553.554 294.13 568.495 295.076 574.924Z" fill="#F7A99C"/>
<path d="M373.532 568.313C373.965 571.762 376.624 574.267 379.472 573.91C382.319 573.554 384.276 570.469 383.843 567.02C383.409 563.572 380.75 561.066 377.903 561.423C375.055 561.779 373.098 564.864 373.532 568.313Z" fill="#262626"/>
<path d="M342.457 572.216C342.891 575.665 345.55 578.17 348.397 577.813C351.245 577.457 353.201 574.372 352.768 570.923C352.335 567.475 349.676 564.969 346.828 565.326C343.984 565.682 342.024 568.767 342.457 572.216Z" fill="#262626"/>
<path d="M364.151 573.474L368.913 579.91C369.79 581.091 369.461 582.771 368.204 583.537L363.829 586.199" stroke="#262626" stroke-width="2.5611" stroke-miterlimit="10" stroke-linecap="round" stroke-linejoin="round"/>
<path d="M332.036 588.46C332.522 592.328 336.054 595.074 339.922 594.585C343.79 594.099 346.536 590.567 346.047 586.699C345.561 582.831 342.029 580.085 338.161 580.574C334.293 581.059 331.551 584.592 332.036 588.46Z" fill="#FF7769"/>
<path d="M298.5 592.107C298.524 591.332 298.587 586.077 294.373 582.286C291.071 579.316 287.228 579.12 286.18 579.103" stroke="#262626" stroke-width="2.5611" stroke-miterlimit="10" stroke-linecap="round" stroke-linejoin="round"/>
<path d="M294.781 583.327C294.547 583.289 291.72 582.897 289.746 585.036C288.121 586.793 288.272 588.966 288.303 589.326" stroke="#262626" stroke-width="2.5611" stroke-miterlimit="10" stroke-linecap="round" stroke-linejoin="round"/>
<path d="M294.459 570.099C294.459 570.099 297.936 570.406 300.556 573.009C303.177 575.609 304.106 580.064 304.106 580.064C310.804 579.249 326.146 576.423 340.063 564.344C347.606 557.796 352.211 550.717 354.926 545.613C357.463 547.894 361.792 551.322 367.917 553.963C375.908 557.408 385.89 559.058 387.214 556.374C387.459 555.878 387.19 554.439 386.645 551.563C386.449 550.522 386.243 548.981 385.736 547.506C384.748 544.62 383.462 541.836 381.928 539.198C378.853 533.922 374.762 529.236 369.947 525.48C366.816 523.041 363.382 520.994 359.727 519.439C348.127 514.506 332.02 514.502 318.155 521.895C318.155 521.895 302.677 530.152 295.853 546.308C293.509 551.86 292.918 557.412 292.772 559.337C292.478 563.149 292.908 565.64 293.488 567.555C293.816 568.638 294.183 569.508 294.459 570.099Z" fill="#262626"/>
<path d="M385.133 577.293C386.471 577.125 387.76 577.363 388.906 577.883C388.77 581.674 388.407 586.272 387.572 591.15C387.345 591.202 387.128 591.276 386.894 591.307C383.026 591.793 379.494 589.05 379.008 585.182C378.522 581.314 381.262 577.778 385.133 577.293Z" fill="#FF7769"/>
<path d="M333.318 518.59C331.019 517.696 327.651 516.476 323.503 515.285C314.412 512.678 309.866 511.375 305.729 511.906C293.619 513.461 286.663 529.421 283.745 536.116C281.537 541.182 277.924 549.781 279.839 560.553C280.691 565.347 282.379 569.096 283.721 571.573" stroke="#262626" stroke-width="0.8735" stroke-miterlimit="10" stroke-linecap="round" stroke-linejoin="round"/>
<path d="M333.318 517.151C337.413 515.362 341.791 513.912 345.736 511.861C349.876 509.708 353.493 506.91 357.927 505.257C362.584 503.52 367.783 502.825 372.539 504.268C376.637 505.512 380.141 508.251 383.034 511.41C386.93 515.666 389.897 520.802 391.441 526.361C394.418 537.073 391.759 548.237 390.005 558.914" stroke="#262626" stroke-width="0.8735" stroke-miterlimit="10" stroke-linecap="round" stroke-linejoin="round"/>
<path d="M369.408 600.94C369.408 604.42 366.019 607.24 361.84 607.24C357.658 607.24 354.269 604.42 354.269 600.94C354.269 597.46 357.658 594.641 361.84 594.641C366.019 594.644 369.408 597.464 369.408 600.94Z" fill="white"/>
<path d="M257.047 548.034L271.026 539.519C271.026 539.519 273.881 527.203 277.763 524.6C281.645 521.997 302.273 513.985 302.273 513.985L305.278 516.791C305.278 516.791 289.136 531.536 285.792 538.083C282.445 544.631 281.816 562.859 281.816 562.859L266.023 583.278L262.159 586.203L257.047 548.034Z" fill="#F7A99C"/>
<path d="M218.551 733.129L211.199 827.582" stroke="#262626" stroke-width="1.44896" stroke-miterlimit="10" stroke-linecap="round" stroke-linejoin="round"/>
<path d="M432.062 740.85L437.697 845.066" stroke="#262626" stroke-width="1.44896" stroke-miterlimit="10" stroke-linecap="round" stroke-linejoin="round"/>
<path d="M109.324 592.108C106.403 594.431 91.295 606.929 88.8492 629.008C86.1868 653.06 100.652 669.524 102.913 672.012" stroke="white" stroke-width="1.44896" stroke-miterlimit="10" stroke-linecap="round" stroke-linejoin="round"/>
<path d="M468.247 807.68C472.132 811.996 487.24 827.743 512.628 831.174C536.705 834.43 554.668 824.535 559.846 821.433" stroke="white" stroke-width="1.44896" stroke-miterlimit="10" stroke-linecap="round" stroke-linejoin="round"/>
<path d="M1128.35 890.428L1160.76 873.105L1208.83 881.917L1232.86 856.278L1289.75 871.501L1321.39 828.239L1377.91 862.878L1358.68 740.717L1284.11 688.506L1112.72 715.48C1106.3 716.49 1101.92 722.51 1102.93 728.929L1128.35 890.428Z" fill="#F5F5F5"/>
<path d="M1301.53 749.711L1358.68 740.717L1284.11 688.506L1292.74 743.31C1293.39 747.506 1297.33 750.371 1301.53 749.711Z" fill="#D6D6D6"/>
<path d="M1284.11 688.503L1292.74 743.306C1293.4 747.503 1297.33 750.368 1301.53 749.708L1358.68 740.714" stroke="#262626" stroke-width="0.957356" stroke-miterlimit="10" stroke-linecap="round" stroke-linejoin="round"/>
<path d="M1151.45 1050.83C1152.46 1057.25 1158.48 1061.63 1164.9 1060.62L1389.42 1025.28C1395.83 1024.27 1400.22 1018.25 1399.21 1011.83L1377.91 876.498L1321.39 841.858L1289.75 885.121L1232.86 869.898L1208.83 895.537L1160.76 886.725L1128.35 904.048L1151.45 1050.83Z" fill="#F5F5F5"/>
<path d="M1128.39 890.428L1160.8 873.105L1208.87 881.917L1232.91 856.278L1289.79 871.501L1321.44 828.239L1377.95 862.878L1358.72 740.717L1284.15 688.506L1112.77 715.48C1106.35 716.49 1101.97 722.51 1102.98 728.929L1128.39 890.428Z" stroke="#262626" stroke-width="0.957356" stroke-miterlimit="10" stroke-linecap="round" stroke-linejoin="round"/>
<path d="M1151.5 1050.83C1152.51 1057.25 1158.53 1061.63 1164.95 1060.62L1389.46 1025.28C1395.88 1024.27 1400.26 1018.25 1399.25 1011.83L1377.95 876.498L1321.44 841.858L1289.79 885.121L1232.91 869.898L1208.87 895.537L1160.8 886.725L1128.39 904.048L1151.5 1050.83Z" stroke="#262626" stroke-width="0.957356" stroke-miterlimit="10" stroke-linecap="round" stroke-linejoin="round"/>
<path d="M259.816 510.463L254.149 515.872L204.017 470.607L218.447 456.844L259.816 510.463Z" fill="#FF7129"/>
<path d="M272.205 501.183L264.501 502.609L247.307 437.292L266.915 433.668L272.205 501.183Z" fill="#FF7129"/>
<path d="M245.489 522.783L244.846 530.592L177.304 530.082L178.942 510.208L245.489 522.783Z" fill="#FF7129"/>
<path d="M1052.42 1513.11C1035.48 1496.46 1035.24 1469.22 1051.9 1452.27L1249.98 1250.71L1311.35 1311.03L1113.26 1512.58C1096.61 1529.53 1069.37 1529.77 1052.42 1513.11Z" fill="#FF7129"/>
<path opacity="0.2" d="M1405.87 1327.85C1501.95 1327.62 1579.66 1249.56 1579.44 1153.48C1579.22 1057.4 1501.15 979.692 1405.07 979.913C1308.99 980.134 1231.28 1058.2 1231.5 1154.28C1231.72 1250.36 1309.79 1328.07 1405.87 1327.85Z" fill="#6FBAFF"/>
<path opacity="0.5" d="M1242.63 1215.23C1248.49 1230.84 1256.67 1245.77 1267.17 1259.48L1579.36 1151.5C1579.12 1134.62 1576.44 1117.78 1571.32 1101.54L1242.63 1215.23Z" fill="white"/>
<path opacity="0.5" d="M1231.87 1165.42C1232.52 1175.29 1234.02 1185.11 1236.34 1194.77L1563.64 1081.56C1559.56 1072.64 1554.7 1063.99 1549.03 1055.72L1231.87 1165.42Z" fill="white"/>
<path d="M1546.16 1010.73C1467.07 933.003 1339.95 934.107 1262.23 1013.19C1184.51 1092.28 1185.61 1219.4 1264.7 1297.12C1343.78 1374.84 1470.9 1373.74 1548.62 1294.65C1626.35 1215.57 1625.24 1088.45 1546.16 1010.73ZM1289.53 1271.85C1224.4 1207.84 1223.5 1103.16 1287.5 1038.03C1351.51 972.898 1456.19 971.989 1521.32 1036C1586.45 1100 1587.36 1204.69 1523.35 1269.82C1459.35 1334.95 1354.66 1335.85 1289.53 1271.85Z" fill="#FF7129"/>
<path d="M1263.89 1329.57L1107.26 1488.94" stroke="white" stroke-width="3.494" stroke-miterlimit="10" stroke-linecap="round" stroke-linejoin="round"/>
<path d="M1419.82 967.577C1370.47 962.598 1319.31 979.631 1282.79 1013.19C1246.27 1046.76 1225 1096.31 1225.81 1145.9" stroke="white" stroke-width="3.494" stroke-miterlimit="10" stroke-linecap="round" stroke-linejoin="round"/>
</g>
<defs>
<clipPath id="clip0_356_7591">
<rect width="1747" height="1747" fill="white"/>
</clipPath>
</defs>
</svg>
