<svg width="801" height="600" viewBox="0 0 801 600" fill="none" xmlns="http://www.w3.org/2000/svg">
<path d="M161.8 465.38H107.24C104.359 465.377 101.597 464.231 99.5603 462.193C97.524 460.154 96.3801 457.391 96.3801 454.51C96.3801 451.63 97.5243 448.867 99.5609 446.831C101.598 444.794 104.36 443.65 107.24 443.65H161.8C164.681 443.65 167.445 444.794 169.483 446.83C171.521 448.867 172.667 451.629 172.67 454.51C172.67 455.937 172.389 457.351 171.843 458.67C171.296 459.989 170.496 461.187 169.486 462.196C168.477 463.206 167.279 464.006 165.96 464.553C164.641 465.099 163.228 465.38 161.8 465.38Z" stroke="#DDDDDD" stroke-miterlimit="10"/>
<path d="M302.38 228.62H272.69C264.864 228.62 258.52 234.964 258.52 242.79V242.8C258.52 250.626 264.864 256.97 272.69 256.97H302.38C310.206 256.97 316.55 250.626 316.55 242.8V242.79C316.55 234.964 310.206 228.62 302.38 228.62Z" stroke="#DDDDDD" stroke-miterlimit="10"/>
<path d="M413.5 113.43H358.94C356.06 113.43 353.298 112.286 351.261 110.249C349.224 108.213 348.08 105.45 348.08 102.57C348.079 101.143 348.359 99.7297 348.904 98.411C349.449 97.0922 350.249 95.8938 351.257 94.8843C352.266 93.8748 353.464 93.074 354.782 92.5276C356.1 91.9812 357.513 91.7 358.94 91.7H413.5C414.928 91.6987 416.343 91.9789 417.663 92.5245C418.983 93.0702 420.182 93.8707 421.193 94.8802C422.203 95.8897 423.005 97.0884 423.552 98.4079C424.099 99.7274 424.38 101.142 424.38 102.57C424.379 103.997 424.096 105.411 423.549 106.729C423.001 108.047 422.2 109.245 421.189 110.253C420.179 111.262 418.98 112.061 417.661 112.606C416.341 113.151 414.928 113.431 413.5 113.43Z" stroke="#DDDDDD" stroke-miterlimit="10"/>
<path d="M582.62 409.41H538.62C537.313 409.41 536.059 408.891 535.134 407.966C534.21 407.041 533.69 405.788 533.69 404.48C533.69 403.173 534.21 401.919 535.134 400.994C536.059 400.069 537.313 399.55 538.62 399.55H582.62C583.928 399.55 585.182 400.069 586.106 400.994C587.031 401.919 587.55 403.173 587.55 404.48C587.55 405.788 587.031 407.041 586.106 407.966C585.182 408.891 583.928 409.41 582.62 409.41Z" stroke="#DDDDDD" stroke-miterlimit="10"/>
<path d="M219.58 153.45H175.58C174.273 153.45 173.019 152.931 172.094 152.006C171.17 151.081 170.65 149.828 170.65 148.52C170.65 147.873 170.778 147.232 171.025 146.633C171.273 146.035 171.636 145.492 172.094 145.034C172.552 144.576 173.095 144.213 173.694 143.965C174.292 143.718 174.933 143.59 175.58 143.59H219.58C220.228 143.59 220.869 143.718 221.467 143.965C222.065 144.213 222.608 144.576 223.066 145.034C223.524 145.492 223.887 146.035 224.135 146.633C224.383 147.232 224.51 147.873 224.51 148.52C224.51 149.828 223.991 151.081 223.066 152.006C222.142 152.931 220.888 153.45 219.58 153.45Z" stroke="#DDDDDD" stroke-miterlimit="10"/>
<path d="M654.22 75.16C667.58 81.55 676.39 74.16 684.13 70.46C687.386 68.8903 691.086 68.5009 694.598 69.3582C698.109 70.2156 701.214 72.2664 703.38 75.16L702.78 103.94C702.78 103.94 691.85 100.06 685.63 103.94C679.41 107.82 671.97 117.38 654.2 104.47L654.22 75.16Z" fill="#EDEDED" stroke="#DDDDDD" stroke-width="2" stroke-linecap="round" stroke-linejoin="round"/>
<path d="M705.65 194.57C704.912 194.57 704.204 194.277 703.681 193.756C703.158 193.235 702.863 192.528 702.86 191.79V70C702.86 69.6341 702.932 69.2718 703.073 68.9338C703.213 68.5959 703.419 68.289 703.678 68.0307C703.937 67.7724 704.245 67.5679 704.583 67.4287C704.922 67.2896 705.284 67.2187 705.65 67.22C706.016 67.2187 706.379 67.2896 706.717 67.4287C707.056 67.5679 707.363 67.7724 707.622 68.0307C707.882 68.289 708.087 68.5959 708.228 68.9338C708.368 69.2718 708.44 69.6341 708.44 70V191.79C708.438 192.528 708.142 193.235 707.619 193.756C707.097 194.277 706.388 194.57 705.65 194.57Z" fill="#F9F9F9" stroke="#EDEDED" stroke-width="2" stroke-linecap="round" stroke-linejoin="round"/>
<path d="M684.62 195.49H726.9" stroke="#DDDDDD" stroke-width="2" stroke-linecap="round" stroke-linejoin="round"/>
<path d="M651.78 242.79H634.79V278.91H591.55V320.59" stroke="#DDDDDD" stroke-width="2" stroke-linecap="round" stroke-linejoin="round"/>
<path d="M313.02 477.54H269.77V513.38H205.48V536.89H73.8601" stroke="#DDDDDD" stroke-width="2" stroke-linecap="round" stroke-linejoin="round"/>
<path d="M483.82 355.63V385.46H429.56V417.6H375.43V449.82H321.44V477.54" stroke="#EDEDED" stroke-width="2" stroke-linecap="round" stroke-linejoin="round"/>
<path d="M579.32 321.22H534.05V355.63H499.85" stroke="#DDDDDD" stroke-width="2" stroke-linecap="round" stroke-linejoin="round"/>
<path d="M161.8 465.38H107.24C104.359 465.377 101.597 464.231 99.5603 462.193C97.524 460.154 96.3801 457.391 96.3801 454.51C96.3801 451.63 97.5243 448.867 99.5609 446.831C101.598 444.794 104.36 443.65 107.24 443.65H161.8C164.681 443.65 167.445 444.794 169.483 446.83C171.521 448.867 172.667 451.629 172.67 454.51C172.67 455.937 172.389 457.351 171.843 458.67C171.296 459.989 170.496 461.187 169.486 462.196C168.477 463.206 167.279 464.006 165.96 464.553C164.641 465.099 163.228 465.38 161.8 465.38Z" stroke="#DDDDDD" stroke-miterlimit="10"/>
<path d="M302.38 228.62H272.69C264.864 228.62 258.52 234.964 258.52 242.79V242.8C258.52 250.626 264.864 256.97 272.69 256.97H302.38C310.206 256.97 316.55 250.626 316.55 242.8V242.79C316.55 234.964 310.206 228.62 302.38 228.62Z" stroke="#DDDDDD" stroke-miterlimit="10"/>
<path d="M413.5 113.43H358.94C356.06 113.43 353.298 112.286 351.261 110.249C349.224 108.213 348.08 105.45 348.08 102.57C348.079 101.143 348.359 99.7297 348.904 98.411C349.449 97.0922 350.249 95.8938 351.257 94.8843C352.266 93.8748 353.464 93.074 354.782 92.5276C356.1 91.9812 357.513 91.7 358.94 91.7H413.5C414.928 91.6987 416.343 91.9789 417.663 92.5245C418.983 93.0702 420.182 93.8707 421.193 94.8802C422.203 95.8897 423.005 97.0884 423.552 98.4079C424.099 99.7274 424.38 101.142 424.38 102.57C424.379 103.997 424.096 105.411 423.549 106.729C423.001 108.047 422.2 109.245 421.189 110.253C420.179 111.262 418.98 112.061 417.661 112.606C416.341 113.151 414.928 113.431 413.5 113.43Z" stroke="#DDDDDD" stroke-miterlimit="10"/>
<path d="M582.62 409.41H538.62C537.313 409.41 536.059 408.891 535.134 407.966C534.21 407.041 533.69 405.788 533.69 404.48C533.69 403.173 534.21 401.919 535.134 400.994C536.059 400.069 537.313 399.55 538.62 399.55H582.62C583.928 399.55 585.182 400.069 586.106 400.994C587.031 401.919 587.55 403.173 587.55 404.48C587.55 405.788 587.031 407.041 586.106 407.966C585.182 408.891 583.928 409.41 582.62 409.41Z" stroke="#DDDDDD" stroke-miterlimit="10"/>
<path d="M219.58 153.45H175.58C174.273 153.45 173.019 152.931 172.094 152.006C171.17 151.081 170.65 149.828 170.65 148.52C170.65 147.873 170.778 147.232 171.025 146.633C171.273 146.035 171.636 145.492 172.094 145.034C172.552 144.576 173.095 144.213 173.694 143.965C174.292 143.718 174.933 143.59 175.58 143.59H219.58C220.228 143.59 220.869 143.718 221.467 143.965C222.065 144.213 222.608 144.576 223.066 145.034C223.524 145.492 223.887 146.035 224.135 146.633C224.383 147.232 224.51 147.873 224.51 148.52C224.51 149.828 223.991 151.081 223.066 152.006C222.142 152.931 220.888 153.45 219.58 153.45Z" stroke="#DDDDDD" stroke-miterlimit="10"/>
<path d="M654.22 75.16C667.58 81.55 676.39 74.16 684.13 70.46C687.386 68.8903 691.086 68.5009 694.598 69.3582C698.109 70.2156 701.214 72.2664 703.38 75.16L702.78 103.94C702.78 103.94 691.85 100.06 685.63 103.94C679.41 107.82 671.97 117.38 654.2 104.47L654.22 75.16Z" fill="#EDEDED" stroke="#DDDDDD" stroke-width="2" stroke-linecap="round" stroke-linejoin="round"/>
<path d="M705.65 194.57C704.912 194.57 704.204 194.277 703.681 193.756C703.158 193.235 702.863 192.528 702.86 191.79V70C702.86 69.6341 702.932 69.2718 703.073 68.9338C703.213 68.5959 703.419 68.289 703.678 68.0307C703.937 67.7724 704.245 67.5679 704.583 67.4287C704.922 67.2896 705.284 67.2187 705.65 67.22C706.016 67.2187 706.379 67.2896 706.717 67.4287C707.056 67.5679 707.363 67.7724 707.622 68.0307C707.882 68.289 708.087 68.5959 708.228 68.9338C708.368 69.2718 708.44 69.6341 708.44 70V191.79C708.438 192.528 708.142 193.235 707.619 193.756C707.097 194.277 706.388 194.57 705.65 194.57Z" fill="#F9F9F9" stroke="#EDEDED" stroke-width="2" stroke-linecap="round" stroke-linejoin="round"/>
<path d="M684.62 195.49H726.9" stroke="#DDDDDD" stroke-width="2" stroke-linecap="round" stroke-linejoin="round"/>
<path d="M651.78 242.79H634.79V278.91H591.55V320.59" stroke="#DDDDDD" stroke-width="2" stroke-linecap="round" stroke-linejoin="round"/>
<path d="M313.02 477.54H269.77V513.38H205.48V536.89H73.8601" stroke="#DDDDDD" stroke-width="2" stroke-linecap="round" stroke-linejoin="round"/>
<path d="M483.82 355.63V385.46H429.56V417.6H375.43V449.82H321.44V477.54" stroke="#EDEDED" stroke-width="2" stroke-linecap="round" stroke-linejoin="round"/>
<path d="M579.32 321.22H534.05V355.63H499.85" stroke="#DDDDDD" stroke-width="2" stroke-linecap="round" stroke-linejoin="round"/>
<path d="M558.01 93.11C558.01 93.11 557.81 93.57 557.45 94.35C557.09 95.13 556.74 95.82 556.22 96.8C555.87 97.48 555.48 98.21 555.04 98.98C554.78 99.45 554.5 99.98 554.2 100.43L553.91 100.9C553.25 101.99 552.52 103.12 551.72 104.23C551.16 105.01 550.57 105.79 549.95 106.54C545.09 112.43 541.01 109.96 541.01 109.96C539.871 110.951 538.925 112.144 538.22 113.48C537.233 115.309 536.518 117.274 536.1 119.31C524.63 127.67 517.35 116.65 520.76 106.85C525.4 102.48 529.539 97.6064 533.1 92.32C529.4 87.4 535.56 83.11 538.39 85.93L544.52 83.09C557.44 79.67 558.01 93.11 558.01 93.11Z" fill="#FEBD9D"/>
<path d="M534.75 87.17C536.37 87.17 537.75 87.83 537.44 90.32" stroke="#EF8A66" stroke-width="0.75" stroke-linecap="round" stroke-linejoin="round"/>
<path d="M536.38 91.5C534.03 90.04 536.09 88.12 537.38 89.33" stroke="#EF8A66" stroke-width="0.75" stroke-linecap="round" stroke-linejoin="round"/>
<path d="M547.88 103.94C546.19 103.41 545.46 101.27 545.88 99.42C541.38 102.56 544.74 106.28 547.88 103.94Z" fill="white" stroke="#EF8A66" stroke-width="0.75" stroke-linecap="round" stroke-linejoin="round"/>
<path d="M549.04 101.33C550.56 101.33 551.89 101.59 552.25 98.72C552.339 97.9028 552.625 97.1193 553.083 96.4367C553.541 95.754 554.158 95.1925 554.88 94.8" stroke="#EF8A66" stroke-width="0.75" stroke-linecap="round" stroke-linejoin="round"/>
<path d="M533.1 92.32C533.652 93.0927 534.427 93.6787 535.32 94" stroke="#EF8A66" stroke-width="0.75" stroke-linecap="round" stroke-linejoin="round"/>
<path d="M548.92 96C548.92 96.1978 548.979 96.3911 549.089 96.5556C549.199 96.72 549.355 96.8482 549.537 96.9239C549.72 96.9996 549.921 97.0194 550.115 96.9808C550.309 96.9422 550.487 96.847 550.627 96.7071C550.767 96.5673 550.862 96.3891 550.901 96.1951C550.94 96.0011 550.92 95.8 550.844 95.6173C550.768 95.4346 550.64 95.2784 550.476 95.1685C550.311 95.0587 550.118 95 549.92 95C549.655 95 549.401 95.1054 549.213 95.2929C549.025 95.4804 548.92 95.7348 548.92 96Z" fill="#683F1D"/>
<path d="M555.04 99C554.78 99.47 554.5 100 554.2 100.45H554.13C553.865 100.45 553.611 100.345 553.423 100.157C553.235 99.9696 553.13 99.7152 553.13 99.45C553.13 99.1848 553.235 98.9304 553.423 98.7429C553.611 98.5554 553.865 98.45 554.13 98.45C554.318 98.4468 554.503 98.4967 554.664 98.594C554.825 98.6913 554.955 98.832 555.04 99Z" fill="#683F1D"/>
<path d="M563.94 92.16C563.86 93.79 562.36 95.42 559.83 95.46C557.48 95.46 555.75 92.81 556.14 90.2C556.14 90.2 552.14 91.13 551.47 85.92C551.47 85.92 548.21 88.58 546.47 84.26C544.501 86.0002 542.699 87.922 541.09 90C539.09 92.8 538.09 92.41 538.03 91.22C537.97 90.03 539.22 88.06 539.37 87.82C539.231 87.1049 538.883 86.4471 538.37 85.93C540.256 83.2703 542.303 80.7288 544.5 78.32C548.33 74.07 552 74.38 551.41 77.6C555.35 75.16 560.83 78.31 558.24 83.2C561.89 82.2 565.87 86.6 562.05 89.27C562.624 89.4983 563.114 89.8985 563.453 90.4158C563.791 90.9331 563.961 91.5423 563.94 92.16Z" fill="#604730"/>
<path d="M548.54 91C548.06 92.45 552.54 94 553.21 92.5C553.88 91 549.15 89.11 548.54 91Z" fill="#604730"/>
<path d="M557.45 94.35C557.15 94.98 556.74 95.82 556.22 96.8C555.33 95.8 554.51 94.48 554.8 93.97C555.26 93.16 556.51 93.73 557.45 94.35Z" fill="#604730"/>
<path d="M541.01 110C539.871 110.991 538.925 112.184 538.22 113.52C532.42 109.15 536.11 104.17 536.11 104.17C537.122 106.561 538.829 108.592 541.01 110Z" fill="#F4A789"/>
<path d="M563.94 92.16C563.86 93.79 562.36 95.42 559.83 95.46C557.48 95.46 555.75 92.81 556.14 90.2C556.14 90.2 552.14 91.13 551.47 85.92C551.47 85.92 548.21 88.58 546.47 84.26C544.501 86.0002 542.699 87.922 541.09 90C539.09 92.8 538.09 92.41 538.03 91.22C537.97 90.03 539.22 88.06 539.37 87.82C540.668 87.026 541.753 85.9276 542.53 84.62C545.07 80.83 547.68 78.49 549.93 81.29C552.18 84.09 554.78 81.29 555.77 84.68C556.71 87.93 558.83 92.94 563.94 92.16Z" fill="#473526"/>
<path d="M549.38 76.59C549.51 79.52 546.92 83.04 546.92 83.04" stroke="#896442" stroke-width="0.75" stroke-linecap="round" stroke-linejoin="round"/>
<path d="M552.28 84.79C552.812 83.8185 553.551 82.9756 554.444 82.3207C555.337 81.6659 556.364 81.215 557.45 81" stroke="#896442" stroke-width="0.75" stroke-linecap="round" stroke-linejoin="round"/>
<path d="M556.64 89.32C558.087 88.4368 559.768 88.0148 561.46 88.11" stroke="#896442" stroke-width="0.75" stroke-linecap="round" stroke-linejoin="round"/>
<path d="M540.83 84C541.369 84.2342 541.841 84.5976 542.206 85.0581C542.571 85.5186 542.816 86.062 542.92 86.64" stroke="#896442" stroke-width="0.75" stroke-linecap="round" stroke-linejoin="round"/>
<path d="M545.08 97.57C543.75 97.94 542.3 96.84 541.83 95.13C541.36 93.42 542.06 91.73 543.39 91.37C544.72 91.01 546.18 92.1 546.64 93.81C547.1 95.52 546.38 97.21 545.08 97.57Z" fill="#F4AF90"/>
<path d="M553.91 100.9C553.25 101.99 552.52 103.12 551.72 104.23C551.632 104.051 551.575 103.858 551.55 103.66C551.551 102.995 551.79 102.351 552.222 101.846C552.655 101.34 553.253 101.005 553.91 100.9Z" fill="#F4AF90"/>
<path d="M572.97 228.55C571.5 242.04 561.48 235.55 547.49 233.69L539.73 233.38L488.12 231.38L483.81 231.21L498.81 188.91C531.98 198.75 574.83 211.37 572.97 228.55Z" fill="#FED81D"/>
<path d="M539.73 233.38L488.12 231.38L489.66 220.1L496.71 202C496.71 202 508.61 201.28 504.99 211.69C501.37 222.1 502.82 229.48 521.62 224.57C532.98 221.58 537.74 227.91 539.73 233.38Z" fill="#FCC71F"/>
<path d="M511.89 173C503.1 184.45 498.34 209.26 497.24 224.15C496.45 234.87 494.84 262.48 490.81 285.57C476.9 315.4 457.73 301.31 458.81 280.29V280.18C460.68 264.78 459.81 251.6 458.1 246.09C455.78 238.77 450.05 214.37 449.1 204.36C446.96 182.36 451.91 163.6 459.1 152.89L511.89 173Z" fill="#FED81D"/>
<path d="M496.71 231.69C496.92 228.69 497.1 226.16 497.24 224.19C497.942 215.577 499.327 207.034 501.38 198.64" stroke="#F7AD2B" stroke-width="0.75" stroke-linecap="round" stroke-linejoin="round"/>
<path d="M464.38 168.81C456.28 223.29 471.86 243.81 469.49 274.33C468.636 282.742 467.094 291.07 464.88 299.23" stroke="#F7AD2B" stroke-width="0.75" stroke-linecap="round" stroke-linejoin="round"/>
<path d="M462.09 194.57C468.02 188.279 471.463 180.049 471.78 171.41" stroke="#F7AD2B" stroke-width="0.75" stroke-linecap="round" stroke-linejoin="round"/>
<path d="M497.49 181.23C497.49 181.23 494.95 192.93 493.93 196.23C493.93 196.23 497.49 196.8 498.76 194.56C500.03 192.32 502.41 182.56 502.41 182.56" stroke="#F7AD2B" stroke-width="0.75" stroke-linecap="round" stroke-linejoin="round"/>
<path d="M556.65 158.27L551.55 179.97C550.15 187.14 549.77 192.97 548.98 197.21C547.89 203.13 545.98 206.13 539.57 205.79L539.31 205.72L538.39 205.47L537.78 205.29L536.98 205.02C536.63 204.89 536.29 204.76 535.98 204.62C535.4 204.387 534.833 204.123 534.28 203.83L533.68 203.5C532.792 203.002 531.952 202.423 531.17 201.77C531.016 201.652 530.87 201.525 530.73 201.39C529.573 200.378 528.578 199.194 527.78 197.88C527.558 197.524 527.354 197.157 527.17 196.78C526.684 195.824 526.302 194.818 526.03 193.78C525.98 193.6 525.94 193.43 525.9 193.26C525.86 193.09 525.81 192.86 525.78 192.67C525.75 192.48 525.72 192.33 525.69 192.16C525.551 191.284 525.514 190.395 525.58 189.51C525.92 185.85 530.45 148.09 530.45 148.09L532.11 143.99L534.33 138.5L556.65 158.27Z" fill="#C3DCF8"/>
<path d="M548.98 197.21C547.89 203.13 545.98 206.13 539.57 205.79L539.29 205.72L538.37 205.47L537.76 205.29L536.96 205.02C536.61 204.89 536.27 204.76 535.96 204.62C535.38 204.387 534.813 204.123 534.26 203.83L533.66 203.5C532.772 203.002 531.932 202.423 531.15 201.77C530.996 201.652 530.85 201.525 530.71 201.39C529.553 200.378 528.558 199.194 527.76 197.88C527.538 197.524 527.334 197.157 527.15 196.78C526.664 195.824 526.282 194.818 526.01 193.78C525.96 193.6 525.92 193.43 525.88 193.26C525.84 193.09 525.79 192.86 525.76 192.67C525.73 192.48 525.7 192.33 525.67 192.16C525.531 191.284 525.494 190.395 525.56 189.51C525.9 185.85 530.43 148.09 530.43 148.09L532.09 143.99C535.68 150.86 539.93 161.99 534.98 169.56C527.36 181.22 528.48 200.14 543.59 197.68C545.372 197.385 547.174 197.228 548.98 197.21Z" fill="#A7CAF0"/>
<path d="M541.84 141.08C540.507 142.12 539.173 143.24 537.84 144.44C525.08 156.03 513.49 174.44 510.22 176.44C505.51 179.26 494.47 177.64 483.88 174.95C475.911 172.969 468.103 170.392 460.52 167.24C454.11 164.24 452.52 162.39 453.59 160.01C454.66 157.63 461.03 142.76 461.03 142.76L459.46 141.21L442.09 124.09C452.38 116.33 465.85 107.66 478.22 102.84C486.61 99.58 494.48 98.1 500.51 99.84L541.84 141.08Z" fill="#C3DCF8"/>
<path d="M541.84 141.08C540.507 142.12 539.173 143.24 537.84 144.44C524.42 144.66 511.62 153.8 500.31 143.98C486.31 131.83 498.98 122.83 490.31 110.98C487.254 107.049 483.032 104.186 478.25 102.8C486.64 99.54 494.51 98.06 500.54 99.8L541.84 141.08Z" fill="#D0E5F7"/>
<path d="M483.89 174.93C475.921 172.949 468.113 170.372 460.53 167.22C454.12 164.22 452.53 162.37 453.6 159.99C454.67 157.61 461.04 142.74 461.04 142.74L459.47 141.19C464.47 135.93 471.4 128.63 471.78 128.19C472.39 127.47 487.02 132.35 487.02 132.35C487.02 132.35 486.53 148.72 473.14 150.28C459.75 151.84 462.14 162.5 474.01 163.95C481.64 164.86 483.52 170.78 483.89 174.93Z" fill="#A7CAF0"/>
<path d="M443.05 123.36C421.84 135.67 439.83 177.72 486.58 135.73C491.51 112.1 464.95 109.13 443.05 123.36Z" fill="#A7CAF0"/>
<path d="M541.84 141.08C537.959 144.166 534.352 147.582 531.06 151.29" stroke="#83ADDF" stroke-width="0.75" stroke-linecap="round" stroke-linejoin="round"/>
<path d="M439.38 364.18C439.38 364.18 430.38 375.93 431.66 385.46H474.52C474.52 385.46 455.46 374.32 454.47 366.16L439.38 364.18Z" fill="#683F1D"/>
<path d="M491.24 283.05C491.1 283.91 490.96 284.76 490.81 285.6C489.25 294.6 487.32 302.86 484.93 309.21C476.38 331.91 461.93 367.42 461.93 367.42L434.38 365.13C436.38 359.76 446.38 336.95 455.97 296.06C457.196 290.843 458.127 285.561 458.76 280.24C458.81 279.86 458.85 279.47 458.89 279.09C460.96 266.7 487.19 254.77 491.24 283.05Z" fill="#FED81D"/>
<path d="M469.74 267.1C469.74 269.46 469.69 271.86 469.5 274.33C467.12 304.87 443 364.66 442.81 365.84" stroke="#F7AD2B" stroke-width="0.75" stroke-linecap="round" stroke-linejoin="round"/>
<path d="M544.18 299.93C544.18 299.93 540.1 311.69 541.33 321.22H579.33C579.33 321.22 560.28 310.08 559.33 301.91L544.18 299.93Z" fill="#683F1D"/>
<path d="M573.29 236.57C570.16 259.99 564.17 303.25 564.17 303.25H539.28L547.49 233.69C547.6 221.58 555.82 208.69 564.22 214.33C575.79 222.15 573.9 232 573.29 236.57Z" fill="#FED81D"/>
<path d="M592.64 207.22C592.64 207.22 582.64 207.58 570.91 207.58C561.24 207.58 550.41 207.34 543.14 206.44C542.58 206.37 542.04 206.29 541.51 206.19C541.27 206.19 541.03 206.11 540.8 206.06C540.57 206.01 540.4 205.99 540.2 205.94C539.85 205.87 539.51 205.78 539.2 205.7L538.2 205.41L537.97 205.34L537.12 205.05L536.97 205L535.97 204.62C535.933 204.611 535.899 204.594 535.87 204.57C524.53 197.35 524.19 189.42 530.38 184.57C534.73 181.11 542.32 179.17 551.59 180.02L590.91 187.89L592.64 207.22Z" fill="#C3DCF8"/>
<path d="M570.91 207.58C561.24 207.58 550.41 207.34 543.14 206.44C542.58 206.37 542.04 206.29 541.51 206.19C541.27 206.19 541.03 206.11 540.8 206.06C540.57 206.01 540.4 205.99 540.2 205.94C539.85 205.87 539.51 205.78 539.2 205.7L538.2 205.41L537.97 205.34L537.12 205.05L536.97 205L535.97 204.62C535.933 204.611 535.899 204.594 535.87 204.57C524.53 197.35 524.19 189.42 530.38 184.57C530.28 192.57 534.27 199.24 543.6 197.72C556.38 195.58 567.43 200.66 570.91 207.58Z" fill="#A7CAF0"/>
<path d="M551.56 180C548.911 179.555 546.241 179.245 543.56 179.07" stroke="#83ADDF" stroke-width="0.75" stroke-linecap="round" stroke-linejoin="round"/>
<path d="M651.78 242.79L640.29 238.28L622.91 231.44C622.91 231.44 534.81 144.23 492.61 102.34C481 90.81 472.86 82.72 470.99 80.82C464.77 74.48 479.5 57.82 487.37 64.76C487.98 65.31 496.15 73.23 508.43 85.18C550.62 126.18 641.43 214.74 641.43 214.74L647.51 231.18L651.78 242.79Z" fill="#F9F9F9" stroke="#DDDDDD" stroke-width="2" stroke-linecap="round" stroke-linejoin="round"/>
<path d="M515.68 103.29L628.94 212.86" stroke="#EDEDED" stroke-linecap="round" stroke-linejoin="round"/>
<path d="M510.85 110.7L623.11 219.31" stroke="#EDEDED" stroke-linecap="round" stroke-linejoin="round"/>
<path d="M647.48 231.18C644.334 232.644 641.793 235.153 640.29 238.28L622.91 231.44C622.91 231.44 623.39 225.65 629.81 226.54C628.43 222.79 631.2 218.54 635.94 221.6C635.94 221.6 634.94 215.49 641.4 214.74L647.48 231.18Z" fill="#F9F9F9" stroke="#EDEDED" stroke-width="2" stroke-linecap="round" stroke-linejoin="round"/>
<path d="M651.78 242.79L640.29 238.28C641.793 235.153 644.334 232.644 647.48 231.18L651.78 242.79Z" fill="#DDDDDD" stroke="#DDDDDD" stroke-width="2" stroke-linecap="round" stroke-linejoin="round"/>
<path d="M508.43 85.18C503.16 90.89 497.38 97.18 492.61 102.34C481 90.81 472.86 82.72 470.99 80.82C464.77 74.48 479.5 57.82 487.37 64.76C487.98 65.31 496.15 73.23 508.43 85.18Z" stroke="#EDEDED" stroke-width="2" stroke-linecap="round" stroke-linejoin="round"/>
<path d="M502.65 79.56L486.46 96.24" stroke="#EDEDED" stroke-width="2" stroke-linecap="round" stroke-linejoin="round"/>
<path d="M583.67 194.57C592.4 187.25 594.38 187.34 595.19 188.3C596 189.26 592.38 193.46 591.19 194.57C591.19 194.57 598.58 189.03 600.72 190.36C602.86 191.69 600.05 194.57 600.05 194.57C600.05 194.57 604.17 194.5 601.52 198.93C601.52 198.93 603.66 198.93 602.41 201.14C601.16 203.35 593.48 208.62 590.68 207.28C587.88 205.94 579.45 198.12 583.67 194.57Z" fill="#FEBD9D"/>
<path d="M587.46 191.53C593.02 187.3 594.46 187.53 595.19 188.3C595.92 189.07 592.38 193.46 591.19 194.57C591.19 194.57 598.58 189.03 600.72 190.36C602.86 191.69 600.05 194.57 600.05 194.57C600.05 194.57 604.17 194.5 601.52 198.93C601.52 198.93 603.66 198.93 602.41 201.14" stroke="#EF8A66" stroke-width="0.75" stroke-linecap="round" stroke-linejoin="round"/>
<path d="M600.06 194.57L592.26 199.61" stroke="#EF8A66" stroke-width="0.75" stroke-linecap="round" stroke-linejoin="round"/>
<path d="M594.33 203.41L601.53 198.93" stroke="#EF8A66" stroke-width="0.75" stroke-linecap="round" stroke-linejoin="round"/>
<path d="M591.2 194.57L588.94 196.42" stroke="#EF8A66" stroke-width="0.75" stroke-linecap="round" stroke-linejoin="round"/>
<path d="M499.7 132.29C500.645 128.233 500.535 124.002 499.38 120L490.57 124.2C490.57 124.2 493.78 133 499.7 132.29Z" fill="#A7CAF0"/>
<path d="M490.45 108.81C492.924 108.562 495.379 108.154 497.8 107.59C498.33 107.29 502.13 104.25 503.8 103.15C505.47 102.05 512.26 97.66 512.9 98.07C513.54 98.48 513.77 100.47 512.55 101.93C512.55 101.93 519.96 98.78 523.16 98.4C525.77 98.09 525.26 100.55 523.51 101.68C526.31 100.44 529.64 101.68 525.85 104.38C528.41 103.94 529.74 105.91 525.73 108.81C527.95 107.59 529.46 109.25 527.42 111.32C524.1 114.7 517.27 117.32 515.11 118.14C512.95 118.96 499.26 122 493.95 125C493.95 125 489.38 116.79 490.45 108.81Z" fill="#FEBD9D"/>
<path d="M503.81 103.15C505.5 102.05 512.27 97.66 512.91 98.07C513.55 98.48 513.78 100.47 512.56 101.93C512.56 101.93 519.97 98.78 523.17 98.4C525.78 98.09 525.27 100.55 523.52 101.68C526.32 100.44 529.65 101.68 525.86 104.38C528.42 103.94 529.75 105.91 525.74 108.81C527.96 107.59 529.47 109.25 527.43 111.32" stroke="#EF8A66" stroke-width="0.75" stroke-linecap="round" stroke-linejoin="round"/>
<path d="M512.56 101.93L508.73 103.81" stroke="#EF8A66" stroke-width="0.75" stroke-linecap="round" stroke-linejoin="round"/>
<path d="M523.52 101.68L515.68 105.32" stroke="#EF8A66" stroke-width="0.75" stroke-linecap="round" stroke-linejoin="round"/>
<path d="M525.86 104.38L517.35 108.81" stroke="#EF8A66" stroke-width="0.75" stroke-linecap="round" stroke-linejoin="round"/>
<path d="M525.74 108.81L519.07 112.6" stroke="#EF8A66" stroke-width="0.75" stroke-linecap="round" stroke-linejoin="round"/>
<path d="M494.38 106.08C480.69 107.47 455.99 111.57 437.47 124.97C430.3 130.15 430.41 151.97 449.98 150.16C469.55 148.35 499.73 132.29 499.73 132.29C499.73 132.29 491.97 130.58 494.38 106.08Z" fill="#C3DCF8"/>
<path d="M462.09 147.76C479.98 142.76 499.7 132.29 499.7 132.29C499.7 132.29 491.97 130.58 494.35 106.08C483.879 107.093 473.538 109.174 463.49 112.29" stroke="#83ADDF" stroke-width="0.75" stroke-linecap="round" stroke-linejoin="round"/>
<path d="M363.06 322.22C363.06 322.22 334.69 386.09 320.62 412.48C297.18 429 293.53 412 297.26 398.32C298.88 394.94 303.64 379.84 308.62 362.79C312.84 348.33 317.21 332.48 319.96 321.22L352.05 321.96L363.06 322.22Z" fill="#93BEE5"/>
<path d="M352.91 326C350.09 346.22 325.39 334.52 323 346.22C321.81 352.07 317.28 357.92 308.62 362.83C312.84 348.37 317.21 332.52 319.96 321.26L352.05 322C352.844 323.171 353.153 324.606 352.91 326Z" fill="#83ADDF"/>
<path d="M332.03 336.28C329.42 337.48 331.03 338.95 331.77 341.13C332.51 343.31 328.64 342.78 328.77 345.73C328.9 348.68 330.33 347.03 328.77 351.47C327.26 355.76 310.14 398.86 304.27 408.28" stroke="#C3DCF8" stroke-width="0.75" stroke-linecap="round" stroke-linejoin="round"/>
<path d="M397.86 322.59C397.86 322.59 362.86 329.79 339.08 332.01C324.55 333.38 314.79 328.61 310.03 321.44C308.523 319.147 307.482 316.579 306.967 313.883C306.452 311.188 306.474 308.417 307.03 305.73C318.85 291.73 332.64 287.59 344.11 287.14C352.241 286.831 360.345 288.246 367.89 291.29C396.71 288.84 412.81 290.06 421.48 293.8C436.38 311.6 418.61 318.15 397.86 322.59Z" fill="#93BEE5"/>
<path d="M323.72 295.05C323.18 305.05 327.26 308.52 348.78 308.21C372.46 307.87 405.49 305.71 407.26 306.02C410.87 306.65 403.85 312.37 406.33 312.46C409.6 312.59 413.13 313.07 411.33 315.31C409.53 317.55 407.59 318.46 408.92 319.85" stroke="#C3DCF8" stroke-width="0.75" stroke-linecap="round" stroke-linejoin="round"/>
<path d="M317.75 328.45C323.02 331.37 330.15 332.85 339.08 332.02C348.61 331.13 359.93 329.44 370.08 327.73" stroke="#83ADDF" stroke-width="0.75" stroke-linecap="round" stroke-linejoin="round"/>
<path d="M405.81 279C405.12 281.76 403.2 284.35 399.4 286.44C398.95 286.58 398.49 286.71 398.03 286.83C397.57 286.95 397.18 287.02 396.75 287.1L395.95 287.21L395.4 287.27H395.13C394.67 287.27 394.21 287.32 393.75 287.32C386.32 287.32 378.3 282.57 372.29 269.65C372.29 269.65 368.51 276.83 367.47 281.44C367.317 282.052 367.226 282.679 367.2 283.31C367.156 285.996 367.404 288.678 367.94 291.31C367.94 291.31 353.13 291.47 343.26 294.37C333.39 297.27 322.32 302.64 307.08 305.75C307.08 305.75 307.83 298.75 310.41 295.13C309.44 294.776 308.617 294.106 308.074 293.229C307.53 292.351 307.296 291.316 307.41 290.29C307.75 287.43 310.59 286.15 314.19 280.6C315.355 278.788 316.39 276.897 317.29 274.94C322.97 262.71 321.68 259.59 320.94 258.41L314.13 265.73C301.9 278.86 277.32 305.21 275.64 306.82C273.38 308.97 269.86 309.82 268.58 308.96C267.8 308.44 262.58 312.6 258.58 315.96C255.97 318.16 253.87 320.02 253.87 320.02L238.95 311.02C238.95 311.02 243.15 307.54 247.49 303.85C252.08 299.96 256.83 295.85 256.98 295.35C257.3 294.35 256.33 291.88 258.47 289.64C260.38 287.64 296.75 246.78 309.33 232.3C310.96 230.42 312.2 228.99 312.9 228.14C319.03 220.75 322.72 217.14 331.54 214.95L374.61 215.88C374.61 215.88 387 213.61 389.61 221.37C389.98 222.51 390.37 224.07 390.77 225.92C393.09 236.78 395.5 257.44 395.5 257.44C395.5 257.44 408.21 269.26 405.81 279Z" fill="#FED81D"/>
<path d="M258.52 316C255.91 318.2 253.81 320.06 253.81 320.06L238.89 311.06C238.89 311.06 243.09 307.58 247.43 303.89C251.965 307.07 255.75 311.203 258.52 316Z" fill="#B25E47"/>
<path d="M331.84 246.54C331.84 251.65 329.2 258.98 326.12 261.72C322.36 265.04 328.02 277.09 321.73 280.56C320.596 281.273 319.284 281.651 317.945 281.651C316.606 281.651 315.294 281.273 314.16 280.56C315.325 278.748 316.36 276.857 317.26 274.9C322.94 262.67 321.65 259.55 320.91 258.37C325.2 253.94 329.21 249.49 331.84 246.54Z" fill="#FCC71F"/>
<path d="M405.81 279C405.12 281.76 403.2 284.35 399.4 286.44C398.95 286.58 398.49 286.71 398.03 286.83C397.57 286.95 397.18 287.02 396.75 287.1L395.95 287.21L395.4 287.27H395.13C394.67 287.27 394.21 287.32 393.75 287.32C386.32 287.32 378.3 282.57 372.29 269.65C378.94 255.15 379.24 247.93 377.69 241.05C379.296 241.43 380.77 242.236 381.957 243.383C383.143 244.531 383.997 245.977 384.43 247.57C387.04 256.34 374.28 266.94 381.04 273.43C387.04 279.14 397.59 270.25 401.39 276.86C401.784 277.657 402.433 278.301 403.233 278.688C404.034 279.076 404.94 279.185 405.81 279Z" fill="#FCC71F"/>
<path d="M390.68 225.89C386.57 225.56 381.34 226.43 378.44 231.89C373.17 241.89 355.66 254.89 343.39 239.5C333.8 227.5 325.13 226.62 309.27 232.23C310.9 230.35 312.14 228.92 312.84 228.07C318.97 220.68 322.66 217.07 331.48 214.88L374.55 215.81C374.55 215.81 386.94 213.54 389.55 221.3C389.89 222.48 390.28 224 390.68 225.89Z" fill="#FFE05C"/>
<path d="M250.74 306.41L259.8 298.84" stroke="#F7AD2B" stroke-width="0.75" stroke-linecap="round" stroke-linejoin="round"/>
<path d="M254.06 309.75L262.81 302.29" stroke="#F7AD2B" stroke-width="0.75" stroke-linecap="round" stroke-linejoin="round"/>
<path d="M256.68 313.05L264.5 307.17" stroke="#F7AD2B" stroke-width="0.75" stroke-linecap="round" stroke-linejoin="round"/>
<path d="M311.87 304.64L314.16 295.66" stroke="#F7AD2B" stroke-width="0.75" stroke-linecap="round" stroke-linejoin="round"/>
<path d="M316.01 303.55L318.1 294.3" stroke="#F7AD2B" stroke-width="0.75" stroke-linecap="round" stroke-linejoin="round"/>
<path d="M319.96 302.37L321.73 294.3" stroke="#F7AD2B" stroke-width="0.75" stroke-linecap="round" stroke-linejoin="round"/>
<path d="M324.66 300.83L326.11 293.69" stroke="#F7AD2B" stroke-width="0.75" stroke-linecap="round" stroke-linejoin="round"/>
<path d="M329.26 299.21L330.2 292.78" stroke="#F7AD2B" stroke-width="0.75" stroke-linecap="round" stroke-linejoin="round"/>
<path d="M333.45 297.68L333.83 293.39" stroke="#F7AD2B" stroke-width="0.75" stroke-linecap="round" stroke-linejoin="round"/>
<path d="M334.89 243C334.89 243 333.73 244.35 331.84 246.5C329.21 249.5 325.2 253.9 320.91 258.35" stroke="#F7AD2B" stroke-width="0.75" stroke-linecap="round" stroke-linejoin="round"/>
<path d="M372.27 269.64C378.92 255.14 379.22 247.92 377.67 241.04C377.03 238.11 376.04 235.26 375.08 231.93" stroke="#F7AD2B" stroke-width="0.75" stroke-linecap="round" stroke-linejoin="round"/>
<path d="M328.27 222.36L334.89 217.92" stroke="#F7AD2B" stroke-width="0.75" stroke-linecap="round" stroke-linejoin="round"/>
<path d="M335.46 226.2L339.03 220.31" stroke="#F7AD2B" stroke-width="0.75" stroke-linecap="round" stroke-linejoin="round"/>
<path d="M341.68 227.68L343.39 221.98" stroke="#F7AD2B" stroke-width="0.75" stroke-linecap="round" stroke-linejoin="round"/>
<path d="M345.83 228.27L347.06 222.86" stroke="#F7AD2B" stroke-width="0.75" stroke-linecap="round" stroke-linejoin="round"/>
<path d="M349.91 229.15L350.65 223.4" stroke="#F7AD2B" stroke-width="0.75" stroke-linecap="round" stroke-linejoin="round"/>
<path d="M356.77 229.15V223.8" stroke="#F7AD2B" stroke-width="0.75" stroke-linecap="round" stroke-linejoin="round"/>
<path d="M361.98 223.8L362.77 229.15" stroke="#F7AD2B" stroke-width="0.75" stroke-linecap="round" stroke-linejoin="round"/>
<path d="M365.68 223.14L367.02 229.15" stroke="#F7AD2B" stroke-width="0.75" stroke-linecap="round" stroke-linejoin="round"/>
<path d="M369.02 222.36L370.87 227.24" stroke="#F7AD2B" stroke-width="0.75" stroke-linecap="round" stroke-linejoin="round"/>
<path d="M371.71 221.02L374.13 226.2" stroke="#F7AD2B" stroke-width="0.75" stroke-linecap="round" stroke-linejoin="round"/>
<path d="M374.72 221.02L377.76 223.4" stroke="#F7AD2B" stroke-width="0.75" stroke-linecap="round" stroke-linejoin="round"/>
<path d="M376.24 218.27L379.98 220.14" stroke="#F7AD2B" stroke-width="0.75" stroke-linecap="round" stroke-linejoin="round"/>
<path d="M366.31 210.85C365.57 210.51 364.76 210.16 363.89 209.85C361.782 209.063 359.539 208.703 357.29 208.79C349.57 208.88 331.48 214.97 331.48 214.97C331.87 215.51 336.6 220.76 346.24 222.75C355.88 224.74 365.76 223.75 369.99 222.07C371.227 221.535 372.3 220.682 373.101 219.599C373.902 218.515 374.402 217.239 374.55 215.9C374.55 215.9 372.54 213.69 366.31 210.85Z" fill="#B25E47"/>
<path d="M412.43 400.81C417.8 396.96 422.79 402.46 410.43 405.66" stroke="#83ADDF" stroke-width="0.75" stroke-linecap="round" stroke-linejoin="round"/>
<path d="M407.38 404C409.91 397.88 413.63 392.74 415.38 394.06C417.52 395.69 409.32 404.5 409.32 404.5" stroke="#83ADDF" stroke-width="0.75" stroke-linecap="round" stroke-linejoin="round"/>
<path d="M419.04 417.6H385.28C385.15 412.99 390.35 402.67 390.92 399.31C390.92 399.24 390.92 399.17 390.92 399.08C391.55 395.35 393.32 381.57 393.32 381.57L411.43 382.71L406.56 399.24C408.288 401.764 410.228 404.136 412.36 406.33C416.22 410.4 423.81 410.98 424.52 413.84C425.23 416.7 421.11 417.6 419.04 417.6Z" fill="#C3DCF8"/>
<path d="M411.46 382.71L406.59 399.24C406.59 399.24 396.77 399.16 390.95 399.08C391.58 395.35 393.35 381.57 393.35 381.57L411.46 382.71Z" fill="#B25E47"/>
<path d="M430.43 311.91C428.37 327.47 414.15 385.46 414.15 385.46H390.83L397.83 322.72C397.843 322.678 397.843 322.632 397.83 322.59C397.7 321.78 393.48 295.32 416.27 292.09C418.047 292.517 419.787 293.089 421.47 293.8C430.38 297.62 431.46 304.06 430.43 311.91Z" fill="#93BEE5"/>
<path d="M399.06 306.26C403.71 306.04 406.76 305.93 407.26 306.02C410.87 306.65 403.85 312.37 406.33 312.46C409.6 312.59 413.13 313.07 411.33 315.31C409.33 317.73 407.46 318.52 409.08 320.01C412.15 322.82 406.91 325.49 406.55 328.72C406.19 331.95 400.31 380.56 400.31 380.56" stroke="#C3DCF8" stroke-width="0.75" stroke-linecap="round" stroke-linejoin="round"/>
<path d="M425.52 222.34C424.04 226.34 422.45 229.87 422.45 229.87L422.29 230.5L419.29 242.69C419.29 242.69 421.65 243.32 421.59 245.39C421.53 247.46 417.17 264.46 412.96 274.05C412.78 274.48 412.56 274.9 412.34 275.33C412.12 275.76 412.01 275.95 411.83 276.25C411.457 276.877 411.057 277.487 410.63 278.08C410.43 278.36 410.23 278.63 410.02 278.89C409.81 279.15 409.56 279.46 409.31 279.73C409.06 280 408.84 280.26 408.6 280.52C408.09 281.05 407.6 281.52 406.99 282.04L406.14 282.74C404.723 283.866 403.175 284.816 401.53 285.57H401.46L400.46 285.99C400.12 286.12 399.78 286.25 399.46 286.36C392.55 284.59 390.28 280.06 390.12 275.1C389.85 266.84 395.48 257.38 395.48 257.38C395.476 257.364 395.476 257.346 395.48 257.33C395.81 256.39 401.24 241.25 402.35 240C403.46 238.75 405.66 239.57 405.66 239.57L409.55 227.2L410.4 224.49C410.4 224.49 410.09 223.84 409.67 222.89C408.761 220.941 408.089 218.89 407.67 216.78C407.44 214.37 409.67 212.86 411.47 212.58C411.47 212.58 411.64 208.44 413.02 206.76C413.235 206.422 413.541 206.151 413.903 205.98C414.264 205.808 414.668 205.742 415.065 205.791C415.463 205.839 415.839 205.999 416.149 206.252C416.46 206.505 416.693 206.84 416.82 207.22C417.25 205.78 420.4 205.58 420.48 208.42C420.601 207.926 420.905 207.497 421.331 207.22C421.757 206.942 422.273 206.837 422.773 206.927C423.274 207.016 423.722 207.292 424.026 207.7C424.33 208.107 424.467 208.615 424.41 209.12C424.41 209.12 426.72 206.88 427.92 211.12C428.47 213.34 427.06 218.14 425.52 222.34Z" fill="#FED81D"/>
<path d="M412.44 229.15C412.44 229.15 409.25 239.73 409.25 239.54" stroke="#F7AD2B" stroke-width="0.75" stroke-linecap="round" stroke-linejoin="round"/>
<path d="M414.93 230.15L412.72 239.33" stroke="#F7AD2B" stroke-width="0.75" stroke-linecap="round" stroke-linejoin="round"/>
<path d="M418.65 230.7L416.68 240.19" stroke="#F7AD2B" stroke-width="0.75" stroke-linecap="round" stroke-linejoin="round"/>
<path d="M395.38 257.41C393.38 263.18 392.04 267.47 392.28 268.93" stroke="#F7AD2B" stroke-width="0.75" stroke-linecap="round" stroke-linejoin="round"/>
<path d="M412.38 275.33C412.22 275.64 412.05 275.95 411.87 276.25C411.497 276.877 411.097 277.487 410.67 278.08C410.47 278.36 410.27 278.63 410.06 278.89C409.85 279.15 409.6 279.46 409.35 279.73C409.1 280 408.88 280.26 408.64 280.52C408.13 281.05 407.64 281.52 407.03 282.04L406.18 282.74C404.766 283.87 403.218 284.821 401.57 285.57H401.5L400.5 285.99C400.16 286.12 399.82 286.25 399.5 286.36C392.59 284.59 390.32 280.06 390.16 275.1C394.73 274.38 399.26 272.96 401.48 276.82C403.93 281.3 409.17 278 412.38 275.33Z" fill="#FCC71F"/>
<path d="M422.45 229.87L422.29 230.5C420.257 230.821 418.185 230.797 416.16 230.43C413.707 229.939 411.416 228.839 409.5 227.23L410.35 224.52C410.35 224.52 407.83 219.22 407.6 216.81C407.37 214.4 409.6 212.89 411.4 212.61C411.4 212.61 411.57 208.47 412.95 206.79C413.165 206.452 413.471 206.181 413.833 206.01C414.194 205.838 414.598 205.772 414.995 205.821C415.393 205.869 415.769 206.029 416.079 206.282C416.39 206.535 416.623 206.87 416.75 207.25C417.18 205.81 420.33 205.6 420.41 208.45C420.531 207.956 420.835 207.527 421.261 207.25C421.687 206.972 422.203 206.867 422.703 206.957C423.204 207.046 423.652 207.322 423.956 207.73C424.26 208.137 424.397 208.645 424.34 209.15C424.34 209.15 426.65 206.91 427.85 211.15C429.05 215.39 422.45 229.87 422.45 229.87Z" fill="#B25E47"/>
<path d="M409.25 222C408.493 220.332 407.939 218.58 407.6 216.78C407.37 214.36 409.6 212.86 411.4 212.58C411.4 212.58 411.57 208.44 412.95 206.76C413.165 206.422 413.471 206.151 413.833 205.98C414.194 205.808 414.598 205.742 414.995 205.791C415.393 205.839 415.769 205.999 416.079 206.252C416.39 206.505 416.623 206.84 416.75 207.22C417.18 205.78 420.33 205.57 420.41 208.42C420.531 207.926 420.835 207.497 421.261 207.22C421.687 206.942 422.203 206.837 422.703 206.927C423.204 207.016 423.652 207.292 423.956 207.7C424.26 208.107 424.397 208.615 424.34 209.12C424.34 209.12 426.65 206.88 427.85 211.12" stroke="#934735" stroke-width="0.75" stroke-linecap="round" stroke-linejoin="round"/>
<path d="M411.38 212.61C414.53 212.04 417.22 212.34 417.31 213.41C417.4 214.48 413.65 216 413.65 216C413.65 216 418.44 216.64 416.82 222.36" stroke="#934735" stroke-width="0.75" stroke-linecap="round" stroke-linejoin="round"/>
<path d="M416.68 207.05C416.68 207.05 416 211.54 415.68 212.42" stroke="#934735" stroke-width="0.75" stroke-linecap="round" stroke-linejoin="round"/>
<path d="M417.49 213.43C418.7 213.76 419.86 212.53 420.49 208.07" stroke="#934735" stroke-width="0.75" stroke-linecap="round" stroke-linejoin="round"/>
<path d="M418.98 212.86C419.088 213.403 419.39 213.889 419.83 214.225C420.27 214.562 420.817 214.727 421.37 214.69" stroke="#934735" stroke-width="0.75" stroke-linecap="round" stroke-linejoin="round"/>
<path d="M424.38 209.15C423.38 209.92 420.78 214.61 422.16 215.77C423.77 217.11 425.06 213.77 425.06 213.77" stroke="#934735" stroke-width="0.75" stroke-linecap="round" stroke-linejoin="round"/>
<path d="M244.71 489.92C249.35 486.97 253.71 486.41 254.71 487.13C256.12 488.23 251.84 491.19 248.35 491.66" stroke="#83ADDF" stroke-width="0.75" stroke-linecap="round" stroke-linejoin="round"/>
<path d="M240.58 492.77C247.52 490.16 254.58 492.77 253.79 495.12C252.9 497.83 241.94 493.92 241.94 493.92" stroke="#83ADDF" stroke-width="0.75" stroke-linecap="round" stroke-linejoin="round"/>
<path d="M243.61 504C245.66 506.05 249.61 510.47 249.06 511.75C248.51 513.03 246.42 513.42 246.42 513.42H231.62C231.62 513.42 229.24 512 229.15 510.64C229.06 509.28 224.39 481.96 225.15 479.58C225.8 477.58 235.09 473.89 239.48 471.44C240.094 471.11 240.68 470.728 241.23 470.3C243.95 468.01 252.29 459.49 252.29 459.49L262.68 472.26C256.68 475.61 249.96 480.17 246.85 484.26C246.015 485.257 245.432 486.44 245.15 487.71C244.38 492.3 241.57 501.92 243.61 504Z" fill="#C3DCF8"/>
<path d="M262.68 472.22C256.68 475.57 249.96 480.13 246.85 484.22L239.48 471.4C240.094 471.07 240.68 470.689 241.23 470.26C243.95 467.97 252.29 459.45 252.29 459.45L262.68 472.22Z" fill="#B25E47"/>
<path d="M320.62 412.48C318.977 415.691 317.157 418.809 315.17 421.82C305.38 435.59 262.07 476.51 262.07 476.51L247.5 457.74L297.27 398.31C305.8 387.33 328.08 389.94 320.62 412.48Z" fill="#93BEE5"/>
<path d="M301.18 412.35C290.12 425.61 253.41 465.35 253.41 465.35" stroke="#C3DCF8" stroke-width="0.75" stroke-linecap="round" stroke-linejoin="round"/>
<path d="M312.13 392.15C309.825 397.668 307.215 403.053 304.31 408.28" stroke="#C3DCF8" stroke-width="0.75" stroke-linecap="round" stroke-linejoin="round"/>
<path d="M379.77 207.69C376.31 206.69 376.24 209.39 377.87 210.49C379.5 211.59 378.67 215.02 374.61 215.49C374.24 215.54 373.28 215.68 372.12 215.8C369.95 216.02 367.12 216.2 366.28 215.73C365.44 215.26 365.39 213.95 365.69 212.57C365.74 212.29 365.83 212.01 365.91 211.71C366.377 210.252 366.976 208.839 367.7 207.49C369.626 207.448 371.507 206.896 373.15 205.89C376.86 203.42 376.96 198.47 375.46 193.31C375.084 192.02 374.63 190.755 374.1 189.52C373.69 188.52 373.23 187.52 372.74 186.59C368.22 177.78 361.81 177.79 361.81 177.79C364.65 182.65 361.95 185.95 360.29 186.79C358.63 187.63 356.82 188.2 356.91 191.54C357 194.88 355.5 195.38 354.5 195.21C351.35 194.63 349.11 197.02 350.5 199.64C351.89 202.26 355.79 201.44 356.95 200.2C356.95 200.2 359.26 201.75 359.39 203.6C359.52 205.45 355.95 207.67 357.64 210.55C357.961 211.056 358.136 211.641 358.146 212.241C358.156 212.84 358.001 213.431 357.697 213.948C357.393 214.465 356.952 214.888 356.424 215.17C355.895 215.453 355.299 215.584 354.7 215.55C353.237 215.375 351.753 215.603 350.41 216.21C350.087 216.368 349.779 216.555 349.49 216.77C349.285 216.923 349.092 217.09 348.91 217.27C347.39 218.81 346.26 220.7 342.64 219.87C339.02 219.04 338.38 214 338.38 214C333.25 214.23 329.82 214.85 329.49 210.67C329.22 207.35 332.94 206.16 334.91 205.8C335.296 205.748 335.659 205.584 335.954 205.329C336.248 205.074 336.462 204.738 336.568 204.363C336.674 203.988 336.668 203.59 336.552 203.218C336.435 202.846 336.212 202.517 335.91 202.27C334 200.81 335.43 198.55 338.22 197.59C341.01 196.63 339.97 190.43 340.22 187.41C340.61 182.01 345.61 177.31 352.32 176.99C352.32 176.99 355.79 169.48 364.19 170.77C372.59 172.06 376.4 180.18 376.01 183.92C375.62 187.66 375.57 191.64 379.62 191.83C383.67 192.02 385.95 194.51 384.49 197C383.03 199.49 381.99 201.36 385.06 203.41C388.13 205.46 383.23 208.66 379.77 207.69Z" fill="#604730"/>
<path d="M361.8 177.74C364.64 182.6 361.94 185.9 360.28 186.74C358.62 187.58 356.81 188.15 356.9 191.49C356.99 194.83 355.49 195.33 354.49 195.16C351.34 194.58 349.1 196.97 350.49 199.59C351.88 202.21 355.78 201.39 356.94 200.15C356.94 200.15 359.25 201.7 359.38 203.55C359.51 205.4 355.94 207.62 357.63 210.5C357.951 211.006 358.126 211.591 358.136 212.191C358.146 212.79 357.991 213.381 357.687 213.898C357.383 214.415 356.942 214.838 356.414 215.12C355.885 215.403 355.289 215.534 354.69 215.5C353.227 215.325 351.743 215.553 350.4 216.16C350.077 216.318 349.769 216.505 349.48 216.72C344.26 214.42 340.29 210.8 342.4 207.98C345.16 204.3 347.07 206.32 345.49 200.45C343.91 194.58 345.44 190.82 349.29 190.45C353.14 190.08 356.78 187.45 354.86 183.58C352.94 179.71 359.06 171.4 366.86 174.88C370.96 176.71 372.46 181.52 372.8 186.5C368.21 177.73 361.8 177.74 361.8 177.74Z" fill="#473526"/>
<path d="M373.15 205.86C372.76 208.8 370.94 211.67 365.69 212.55C365.74 212.27 365.83 211.99 365.91 211.69C366.377 210.232 366.976 208.819 367.7 207.47C369.627 207.425 371.508 206.87 373.15 205.86Z" fill="#473526"/>
<path d="M365.91 211.69C365.4 213.38 365.25 215.07 366.28 215.69C367.08 216.16 369.95 215.98 372.12 215.76C364.03 222.42 357.3 221.4 350.37 216.2C351.713 215.593 353.197 215.365 354.66 215.54C355.259 215.574 355.855 215.443 356.384 215.16C356.912 214.878 357.353 214.455 357.657 213.938C357.961 213.421 358.116 212.83 358.106 212.231C358.096 211.631 357.921 211.046 357.6 210.54C355.91 207.66 359.48 205.45 359.35 203.59C359.22 201.73 356.91 200.19 356.91 200.19C355.75 201.43 351.82 202.25 350.46 199.63C349.1 197.01 351.34 194.63 354.46 195.2C355.46 195.37 356.97 194.87 356.87 191.53C356.77 188.19 358.59 187.68 360.25 186.78C361.91 185.88 364.61 182.6 361.77 177.78C361.77 177.78 368.19 177.78 372.71 186.6C373.2 187.55 373.66 188.53 374.07 189.53C374.6 190.765 375.054 192.03 375.43 193.32C377.43 200.32 376.55 206.93 367.67 207.5C366.946 208.849 366.347 210.262 365.88 211.72L365.91 211.69Z" fill="#B25E47"/>
<path d="M375.46 193.28C375.08 193.419 374.669 193.445 374.275 193.354C373.88 193.263 373.521 193.061 373.24 192.77C372.58 191.92 372.96 190.48 374.1 189.48C374.628 190.719 375.082 191.988 375.46 193.28Z" fill="#A0503D"/>
<path d="M365.46 190.52C365.46 190.656 365.487 190.79 365.541 190.915C365.594 191.039 365.672 191.152 365.77 191.245C365.869 191.339 365.985 191.412 366.112 191.459C366.239 191.506 366.375 191.527 366.51 191.52C366.705 191.51 366.894 191.443 367.051 191.328C367.209 191.212 367.33 191.053 367.398 190.869C367.466 190.686 367.478 190.487 367.434 190.296C367.39 190.105 367.291 189.932 367.15 189.797C367.008 189.662 366.83 189.572 366.638 189.537C366.445 189.502 366.247 189.525 366.067 189.602C365.887 189.679 365.734 189.807 365.626 189.97C365.518 190.133 365.46 190.324 365.46 190.52Z" fill="#683F1D"/>
<path d="M369.93 188.35C369.93 188.615 370.035 188.87 370.223 189.057C370.411 189.245 370.665 189.35 370.93 189.35C371.066 189.35 371.2 189.323 371.325 189.269C371.449 189.216 371.562 189.138 371.656 189.04C371.749 188.941 371.822 188.825 371.869 188.698C371.916 188.571 371.937 188.435 371.93 188.3C371.93 188.035 371.825 187.78 371.637 187.593C371.45 187.405 371.195 187.3 370.93 187.3C370.794 187.3 370.66 187.327 370.536 187.381C370.411 187.434 370.298 187.512 370.205 187.61C370.111 187.709 370.039 187.825 369.991 187.952C369.944 188.079 369.923 188.215 369.93 188.35Z" fill="#683F1D"/>
<path d="M367.7 207.46C366.976 208.809 366.377 210.222 365.91 211.68C364.842 211.316 363.932 210.596 363.332 209.639C362.733 208.683 362.482 207.55 362.62 206.43C364.252 207.026 365.965 207.373 367.7 207.46Z" fill="#914839"/>
<path d="M352.32 198.53C353.01 196.75 355.32 197.08 356.32 198.12" stroke="#934735" stroke-width="0.75" stroke-linecap="round" stroke-linejoin="round"/>
<path d="M354 199.43C353.935 199.207 353.922 198.972 353.964 198.743C354.005 198.514 354.1 198.299 354.24 198.113C354.38 197.927 354.561 197.777 354.77 197.674C354.978 197.571 355.208 197.518 355.44 197.52" stroke="#934735" stroke-width="0.75" stroke-linecap="round" stroke-linejoin="round"/>
<path d="M356.92 200.19C357.267 199.762 357.516 199.264 357.65 198.73" stroke="#934735" stroke-width="0.75" stroke-linecap="round" stroke-linejoin="round"/>
<path d="M366.38 195.58C367.113 196.2 368.014 196.588 368.968 196.697C369.922 196.806 370.886 196.629 371.74 196.19" stroke="#934735" stroke-width="0.75" stroke-linecap="round" stroke-linejoin="round"/>
<path d="M372.73 193.15C373.19 191.67 372.89 190.61 371.18 190.33C370.356 190.142 369.626 189.668 369.119 188.993C368.612 188.317 368.361 187.483 368.41 186.64" stroke="#934735" stroke-width="0.75" stroke-linecap="round" stroke-linejoin="round"/>
<path d="M361.75 187C361.75 188.19 366.19 187.64 366.56 186.32C366.86 185.28 361.72 184.76 361.75 187Z" fill="#604730"/>
<path d="M370.45 181.56C369.37 181.05 367.89 185.34 369.23 185.67C369.89 185.84 372.98 182.77 370.45 181.56Z" fill="#604730"/>
<path d="M352.26 177C353.935 177.121 355.571 177.562 357.08 178.3" stroke="#896442" stroke-width="0.75" stroke-linecap="round" stroke-linejoin="round"/>
<path d="M355.08 184.73C351.76 185.96 347.77 188.04 347.65 192.03C347.53 196.02 349.24 199.64 343.96 202.24C338.68 204.84 343.68 211.5 343.68 211.5" stroke="#896442" stroke-width="0.75" stroke-linecap="round" stroke-linejoin="round"/>
<path d="M349.56 212.59C352.78 209.96 349.28 206.65 352.78 204.18" stroke="#896442" stroke-width="0.75" stroke-linecap="round" stroke-linejoin="round"/>
<path d="M358.56 181.84C353.16 179.71 346.92 182.39 345.56 184.67" stroke="#896442" stroke-width="0.75" stroke-linecap="round" stroke-linejoin="round"/>
<path d="M365.44 194C365.22 195.12 363.74 195.76 362.16 195.43C360.58 195.1 359.47 193.94 359.69 192.83C359.91 191.72 361.39 191.07 362.98 191.4C364.57 191.73 365.67 192.91 365.44 194Z" fill="#A0503D"/>
<path d="M109.47 506.13C102.24 513.89 100.47 520.07 99.3101 524.13L115.55 536.87H139.23C139.23 536.87 138.81 531.15 134.23 530.21C129.65 529.27 126.9 528.85 126.9 528.85L122.38 519.09L109.47 506.13Z" fill="#FED81D"/>
<path d="M178.69 398.87C179.34 443.77 182.18 453.08 172.99 468.62C163.8 484.16 122.38 519.09 122.38 519.09L104.91 506C104.91 506 125.91 482.7 135.72 470.28C145.53 457.86 146.98 452.81 146.72 445.17C146.46 437.53 139.21 379.42 139.21 379.42L178.69 398.87Z" fill="#683F1D"/>
<path d="M293.51 460.76C293.51 460.76 309.04 470.21 312.12 471.82C315.2 473.43 315.63 477.54 315.63 477.54H278.13C278.13 477.54 276.35 468.15 277.3 462.54L293.51 460.76Z" fill="#FED81D"/>
<path d="M293.51 460.76L274.56 464.51L250.38 399.59C244.75 384.53 238.69 371.12 251.1 366.39C265.01 366.87 271.64 371.3 277.32 387.21C283.28 404 293.51 460.76 293.51 460.76Z" fill="#683F1D"/>
<path d="M250.38 399.59C250.38 399.59 194.89 404.64 177.78 405.28C160.67 405.92 144 404 136.38 377.13L180.03 361.94L185.62 366.34C210.57 366.74 233.22 366.26 248.76 366.34C249.57 366.34 250.35 366.34 251.11 366.39C273.79 370.17 265.21 395.05 250.38 399.59Z" fill="#683F1D"/>
<path d="M174.9 405.35C162.38 405.57 150.38 403.72 142.26 391" stroke="#91613D" stroke-width="0.75" stroke-linecap="round" stroke-linejoin="round"/>
<path d="M211.76 333.15L199.15 343.94L188.55 366.49C188.55 366.49 172.62 365.93 163.15 372.75C153.68 379.57 139.94 382.51 134.63 382.42C134.248 371.471 135.009 360.511 136.9 349.72C140.03 332.48 147.71 306.2 147.71 306.2C147.62 305.38 147.58 304.56 147.55 303.76C147.12 290.04 154.36 279.18 166.18 279.89C178.69 280.66 191.48 285.29 191.48 285.29C191.48 285.29 205.32 287.48 212.61 291.55C215.92 293.4 218.18 296.55 218.69 301.98C219.31 308.5 217.38 318.32 211.76 333.15Z" fill="#A7CAF0"/>
<path d="M183.91 346.18L179.71 340.38C182.87 339.01 185.5 337.77 186.54 337.27C185.16 330.91 183.88 325.32 182.63 320.57C184.9 320.99 188.09 323.09 188.97 331.08C189.63 337.17 198.52 327.45 201.78 335.38C205.04 343.31 183.91 346.18 183.91 346.18Z" fill="#93BEE5"/>
<path d="M210.56 309.75C208.83 311.56 206.36 321.38 202.8 333.02" stroke="#83ADDF" stroke-width="0.75" stroke-linecap="round" stroke-linejoin="round"/>
<path d="M259.43 318.76C259.28 322.26 253.07 321.38 253.07 321.38C254.65 324.16 250.07 325.97 247.81 326.1C246.293 326.141 244.782 325.89 243.36 325.36C243.36 325.36 221.13 345.13 212.82 352.57C204.51 360.01 189.11 371.57 178.7 370.15C168.29 368.73 165.4 358.15 160.77 346.15C163.235 345.953 165.673 345.511 168.05 344.83C174.2 343.12 184.26 338.38 186.54 337.29C186.83 338.65 187.14 340.06 187.44 341.5C206.08 330.98 226.82 317.5 228.56 315.83C230.3 314.16 237.67 308.4 239.85 306.04C242.03 303.68 246.15 305.87 244.49 307.18C242.83 308.49 242.03 309.79 248.71 313.91C257.12 319.09 259.6 314.56 259.43 318.76Z" fill="#FEBD9D"/>
<path d="M218.69 302C215.23 299.82 210.99 298.92 206.69 302.4C196.49 310.62 186.69 310.23 172.88 294.32C159.45 278.86 148.2 302.42 147.56 303.78C147.13 290.06 154.37 279.2 166.19 279.91C178.7 280.68 191.49 285.31 191.49 285.31C191.49 285.31 205.33 287.5 212.62 291.57C215.92 293.4 218.18 296.55 218.69 302Z" fill="#C3DCF8"/>
<path d="M188.48 301.54C188.48 301.957 188.604 302.365 188.836 302.712C189.068 303.059 189.397 303.33 189.783 303.489C190.168 303.649 190.592 303.691 191.002 303.609C191.411 303.528 191.787 303.327 192.082 303.032C192.377 302.737 192.578 302.361 192.66 301.952C192.741 301.542 192.699 301.118 192.54 300.733C192.38 300.347 192.109 300.017 191.762 299.786C191.415 299.554 191.007 299.43 190.59 299.43C190.031 299.43 189.494 299.652 189.098 300.048C188.702 300.444 188.48 300.98 188.48 301.54Z" fill="white"/>
<path d="M147.52 306C147.52 306 155.02 340.21 157.52 346C158.59 346.148 159.674 346.171 160.75 346.07C163.215 345.873 165.653 345.431 168.03 344.75C172.006 343.52 175.901 342.04 179.69 340.32C182.85 338.95 185.48 337.71 186.52 337.21C185.14 330.85 183.86 325.26 182.61 320.51C179.75 309.64 177.03 303.23 173.5 302.23" stroke="#83ADDF" stroke-width="0.75" stroke-linecap="round" stroke-linejoin="round"/>
<path d="M187.44 341.48C182.02 344.93 181.16 347.75 181.16 347.75" stroke="#EF8A66" stroke-width="0.75" stroke-linecap="round" stroke-linejoin="round"/>
<path d="M253.06 321.38C249.06 321.03 247.2 320.74 247.2 320.74" stroke="#EF8A66" stroke-width="0.75" stroke-linecap="round" stroke-linejoin="round"/>
<path d="M243.38 325.35C244.805 325.885 246.319 326.14 247.84 326.1C250.12 325.97 254.68 324.17 253.09 321.38C253.09 321.38 259.31 322.25 259.46 318.76C259.63 314.56 257.14 319.09 248.74 313.89C242.06 309.77 242.86 308.49 244.52 307.17C246.18 305.85 242.07 303.66 239.88 306.02C238.76 307.23 236.29 309.34 233.88 311.32" stroke="#EF8A66" stroke-width="0.75" stroke-linecap="round" stroke-linejoin="round"/>
<path d="M232.03 308.56C234.45 305.18 237.77 307.56 237.84 310.39C237.91 313.22 232.25 316.89 230.64 315.39C229.03 313.89 230.67 310.45 232.03 308.56Z" fill="#B25E47"/>
<path d="M238.38 328.45C235.81 327.17 233.99 329.11 236.13 331.45C238.27 333.79 242.19 332.73 242.93 330.4L238.38 328.45Z" fill="#B25E47"/>
<path d="M238.38 328.45C235.81 327.17 233.99 329.11 236.13 331.45C238.27 333.79 242.19 332.73 242.93 330.4L238.38 328.45Z" stroke="#934735" stroke-width="0.75" stroke-linecap="round" stroke-linejoin="round"/>
<path d="M241.67 326C238.98 325.5 236.73 326.39 237.58 328.53C238.43 330.67 244.58 333.08 247.2 328.53L241.67 326Z" fill="#B25E47"/>
<path d="M241.67 326C238.98 325.5 236.73 326.39 237.58 328.53C238.43 330.67 244.58 333.08 247.2 328.53L241.67 326Z" stroke="#934735" stroke-width="0.75" stroke-linecap="round" stroke-linejoin="round"/>
<path d="M232.03 308.56C234.45 305.18 237.77 307.56 237.84 310.39C237.91 313.22 232.25 316.89 230.64 315.39C229.03 313.89 230.67 310.45 232.03 308.56Z" stroke="#934735" stroke-width="0.75" stroke-linecap="round" stroke-linejoin="round"/>
<path d="M241.55 327C239.75 325.2 240.81 322.6 243.25 323.22C245.69 323.84 246.19 325.29 250.39 325.54C253.18 325.66 246.38 331.84 241.55 327Z" fill="#B25E47"/>
<path d="M241.55 327C239.75 325.2 240.81 322.6 243.25 323.22C245.69 323.84 246.19 325.29 250.39 325.54C253.18 325.66 246.38 331.84 241.55 327Z" stroke="#934735" stroke-width="0.75" stroke-linecap="round" stroke-linejoin="round"/>
<path d="M199.7 264.69L196.24 266L190.94 267.95C189.214 266.216 187.688 264.294 186.39 262.22C184.32 258.85 183.28 255.27 186.69 254.22C182.74 254.22 182.28 250.88 185.51 250.22C181.04 250.11 182.73 245.7 187.35 246.22C187.35 246.22 184.49 242.35 192.04 241.55C197.37 240.99 201.52 242.32 204.04 244.15L204.24 244.31C205.267 245.025 206.074 246.012 206.57 247.16C207.67 250.06 199.7 264.69 199.7 264.69Z" fill="#D39933"/>
<path d="M199.7 264.69L196.24 266L190.94 267.95C189.214 266.216 187.688 264.294 186.39 262.22C188.3 260.17 191.39 260.55 191.87 259.12C192.57 257.12 187.25 247.57 196 247.79C200.93 247.91 203.21 245.99 204.25 244.29C205.277 245.005 206.084 245.992 206.58 247.14C207.67 250.06 199.7 264.69 199.7 264.69Z" fill="#C4892A"/>
<path d="M187.38 246.17C187.38 246.17 194.5 246.48 196.71 246.84C199.71 247.33 200.13 248.5 200.13 248.5" stroke="#EDB65F" stroke-width="0.75" stroke-linecap="round" stroke-linejoin="round"/>
<path d="M194.36 252.41L191.57 252.12" stroke="#EDB65F" stroke-width="0.75" stroke-linecap="round" stroke-linejoin="round"/>
<path d="M185.51 250.12C187.59 250.29 189.43 250.62 189.43 250.62" stroke="#EDB65F" stroke-width="0.75" stroke-linecap="round" stroke-linejoin="round"/>
<path d="M186.69 254.17C187.8 254.156 188.91 254.223 190.01 254.37" stroke="#EDB65F" stroke-width="0.75" stroke-linecap="round" stroke-linejoin="round"/>
<path d="M196.09 259.09C192.73 258.97 188.39 258.98 188 258.31" stroke="#EDB65F" stroke-width="0.75" stroke-linecap="round" stroke-linejoin="round"/>
<path d="M203.38 277.86C202.72 279.83 202.163 281.833 201.71 283.86C201.63 284.213 201.55 284.573 201.47 284.94C199.95 289.46 198.09 294.83 191.91 294.06C187.99 293.58 183.47 290.92 181.22 284.4C180.35 281.87 182.79 279.45 183.1 278.99C185.5 275.51 187.74 271.9 188.5 269.2C188.5 269.2 186.63 266.85 187.92 264.39C188.114 264.031 188.349 263.695 188.62 263.39C190.67 261.11 194.48 262.16 195.75 263.92C196.062 263.697 196.348 263.439 196.6 263.15C196.837 262.947 197.03 262.698 197.169 262.418C197.307 262.138 197.388 261.834 197.407 261.522C197.426 261.211 197.382 260.899 197.277 260.605C197.173 260.31 197.011 260.04 196.8 259.81C196.567 259.543 196.337 259.293 196.11 259.06L196.02 258.97C194.44 257.3 193.1 255.97 193.78 253.68C193.909 253.217 194.112 252.778 194.38 252.38C195.43 250.9 197.38 250.71 200.3 251.1C203.97 251.58 205.81 250.53 206.6 247.1C206.7 247.25 207.5 248.54 208.6 250.59C208.92 251.18 209.26 251.83 209.6 252.54C210.42 254.16 211.32 256.08 212.16 258.16C212.493 258.953 212.803 259.763 213.09 260.59C213.404 261.447 213.668 262.322 213.88 263.21C215.68 270.51 214.54 279.37 203.38 277.86Z" fill="#FEBD9D"/>
<path d="M202.2 262.62C201.75 263.92 199.76 264.41 197.73 263.72C197.327 263.585 196.941 263.404 196.58 263.18C196.817 262.977 197.01 262.728 197.149 262.448C197.287 262.168 197.368 261.864 197.387 261.552C197.406 261.241 197.362 260.929 197.257 260.635C197.153 260.34 196.991 260.07 196.78 259.84C196.52 259.54 196.26 259.26 196 259C197.075 258.588 198.265 258.588 199.34 259C201.38 259.71 202.65 261.32 202.2 262.62Z" fill="#F4AF90"/>
<path d="M201.59 258.31C201.59 258.508 201.649 258.701 201.759 258.866C201.869 259.03 202.025 259.158 202.207 259.234C202.39 259.31 202.591 259.329 202.785 259.291C202.979 259.252 203.157 259.157 203.297 259.017C203.437 258.877 203.532 258.699 203.571 258.505C203.61 258.311 203.59 258.11 203.514 257.927C203.438 257.745 203.31 257.588 203.146 257.479C202.981 257.369 202.788 257.31 202.59 257.31C202.325 257.31 202.071 257.415 201.883 257.603C201.696 257.79 201.59 258.045 201.59 258.31Z" fill="#683F1D"/>
<path d="M208.92 257.36C209.483 257.36 209.94 256.903 209.94 256.34C209.94 255.777 209.483 255.32 208.92 255.32C208.357 255.32 207.9 255.777 207.9 256.34C207.9 256.903 208.357 257.36 208.92 257.36Z" fill="#683F1D"/>
<path d="M203.38 277.86C202.72 279.83 202.163 281.833 201.71 283.86C193.33 282.13 196.82 274.09 196.82 274.09C196.82 274.09 200.93 277.21 203.38 277.86Z" fill="#F4A789"/>
<path d="M188.48 269.21C190.01 271.36 193.94 271.3 195.27 270.21" stroke="#EF8A66" stroke-width="0.75" stroke-linecap="round" stroke-linejoin="round"/>
<path d="M190.01 266.44C191.64 264.52 193.87 265.44 195.11 267.71" stroke="#EF8A66" stroke-width="0.75" stroke-linecap="round" stroke-linejoin="round"/>
<path d="M193.68 268.8C191.02 268.73 191.87 265.57 194.36 266.62" stroke="#EF8A66" stroke-width="0.75" stroke-linecap="round" stroke-linejoin="round"/>
<path d="M203.61 263.22C204.66 265.02 205.81 265.93 208.36 265.39" stroke="#EF8A66" stroke-width="0.75" stroke-linecap="round" stroke-linejoin="round"/>
<path d="M206.18 253.73C205.83 255.95 205.6 257.88 207.96 258.97C210.32 260.06 209.86 262.22 207.65 262.88" stroke="#EF8A66" stroke-width="0.75" stroke-linecap="round" stroke-linejoin="round"/>
<path d="M197.87 255C198.76 256.2 203.33 254.07 202.51 252.46C202 251.45 196.3 252.85 197.87 255Z" fill="#D39933"/>
<path d="M209.6 252.57C208.4 253.07 205.97 252.71 205.97 251.98C205.97 251.25 207.39 250.66 208.59 250.62C208.91 251.21 209.25 251.86 209.6 252.57Z" fill="#D39933"/>
<path d="M213.88 263.24C213.504 263.491 213.064 263.628 212.612 263.637C212.161 263.646 211.716 263.526 211.33 263.29C210.25 262.46 210.41 260.41 211.71 258.7C211.86 258.52 212.01 258.34 212.16 258.19C212.493 258.983 212.803 259.793 213.09 260.62C213.404 261.477 213.668 262.352 213.88 263.24Z" fill="#F4AF90"/>
<path d="M183.08 279C180.57 278.45 177.32 279.64 176.95 281.21C176.58 282.78 176.16 295.86 179.08 295.9C182 295.94 186.87 289.99 189.41 294.68C192.56 300.49 193.55 292.83 197.6 296.76C199.03 298.15 200.75 300.96 202.52 298.76C204.29 296.56 205.61 288.76 205.06 287.48C204.51 286.2 203.15 284.63 201.43 284.95C200.27 285.16 198.43 293.15 192.22 293.48C190.94 293.55 182.3 284.48 181.78 282.63C181.26 280.78 183.08 279 183.08 279Z" fill="white"/>
</svg>
