<svg width="90" height="140" viewBox="0 0 90 140" fill="none" xmlns="http://www.w3.org/2000/svg">
<path d="M2.07715 0.0908203H24.2305C24.7525 0.0908203 25.1348 0.0911102 25.4189 0.131836C25.7007 0.172271 25.8677 0.250236 25.9766 0.390625C26.0891 0.535932 26.1523 0.763971 26.1846 1.1377C26.2166 1.50966 26.2168 2.00811 26.2168 2.67969V11.5186C26.2168 11.8716 26.3336 12.2982 26.5488 12.7832C26.7647 13.2695 27.0829 13.8213 27.4932 14.4268C28.3137 15.6376 29.5072 17.0708 31.002 18.6367C33.9919 21.7689 38.1931 25.4404 43.043 28.9434C52.7386 35.9464 65.0474 42.292 75.4619 42.292H89.9092V98.4688C89.9092 114.525 84.8971 124.879 76.79 131.221C68.6787 137.566 57.4527 139.909 45 139.909H0.0908203V119.325H24.2305C45.4382 119.325 58.2796 111.658 64.8164 101.089C71.3504 90.5239 71.5734 77.0782 67.5859 65.54C63.5983 54.0013 57.2233 46.3553 48.0469 40.3115C38.8753 34.271 26.9049 29.8315 11.7295 24.6992L11.7148 24.6943H3.46191C2.59524 24.6943 1.94897 24.6943 1.46582 24.6631C0.980273 24.6317 0.674944 24.569 0.478516 24.4551C0.291561 24.3465 0.194358 24.1852 0.143555 23.9199C0.091485 23.6479 0.0908205 23.2814 0.0908203 22.7754V4.01953C0.0908203 3.01383 0.0908033 2.26309 0.123047 1.70117C0.15547 1.13648 0.219706 0.776479 0.339844 0.543945C0.454607 0.321861 0.623884 0.209771 0.895508 0.151367C1.17585 0.0911369 1.55389 0.0908203 2.07715 0.0908203ZM83.0771 0.0908203C86.8532 0.0909519 89.909 3.05186 89.9092 6.69824V24.1152C89.909 25.5419 88.7125 26.7031 87.2305 26.7031H65.0771C63.5952 26.7031 62.3987 25.5419 62.3984 24.1152V0.0908203H83.0771Z" fill="#2842F7" stroke="#060606" stroke-width="0.181468"/>
</svg>
