<svg width="25" height="24" viewBox="0 0 25 24" fill="none" xmlns="http://www.w3.org/2000/svg">
<path d="M14.2976 2.00055C14.2976 1.17212 13.626 0.500549 12.7976 0.500549C11.9692 0.500549 11.2976 1.17212 11.2976 2.00055V10.5005H2.79761C1.96918 10.5005 1.29761 11.1721 1.29761 12.0005C1.29761 12.829 1.96918 13.5005 2.79761 13.5005H11.2976V22.0006C11.2976 22.829 11.9692 23.5006 12.7976 23.5006C13.626 23.5006 14.2976 22.829 14.2976 22.0006V13.5005H22.7976C23.626 13.5005 24.2976 12.829 24.2976 12.0005C24.2976 11.1721 23.626 10.5005 22.7976 10.5005H14.2976V2.00055Z" fill="#006FFD"/>
</svg>
