<svg width="21" height="21" viewBox="0 0 21 21" fill="none" xmlns="http://www.w3.org/2000/svg">
<path fill-rule="evenodd" clip-rule="evenodd" d="M16.625 3.5H15.75V1.75H14V3.5H7V1.75H5.25V3.5H4.375C3.40375 3.5 2.625 4.2875 2.625 5.25V17.5C2.625 18.4625 3.40375 19.25 4.375 19.25H16.625C17.5875 19.25 18.375 18.4625 18.375 17.5V5.25C18.375 4.2875 17.5875 3.5 16.625 3.5ZM16.625 17.5H4.375V7.875H16.625V17.5ZM5.6875 11.375C5.6875 10.1675 6.6675 9.1875 7.875 9.1875C9.0825 9.1875 10.0625 10.1675 10.0625 11.375C10.0625 12.5825 9.0825 13.5625 7.875 13.5625C6.6675 13.5625 5.6875 12.5825 5.6875 11.375Z" fill="#8F9098"/>
</svg>
