<svg width="25" height="24" viewBox="0 0 25 24" fill="none" xmlns="http://www.w3.org/2000/svg">
<mask id="mask0_103_11466" style="mask-type:alpha" maskUnits="userSpaceOnUse" x="1" y="1" width="23" height="23">
<path d="M12.7941 1.0011C18.8686 1.0011 23.7927 5.9252 23.7927 11.9998C23.7927 18.0743 18.8686 22.9984 12.7941 22.9984C11.0147 23.0008 9.26162 22.5697 7.6863 21.7424L2.96788 22.9709C2.81022 23.012 2.64456 23.0111 2.48734 22.9684C2.33011 22.9258 2.18676 22.8427 2.0715 22.7276C1.95625 22.6124 1.87308 22.4692 1.83025 22.312C1.78742 22.1548 1.78641 21.9892 1.82732 21.8315L3.05477 17.1141C2.22525 15.5371 1.79297 13.7816 1.79542 11.9998C1.79542 5.9252 6.71952 1.0011 12.7941 1.0011Z" fill="#006FFD"/>
</mask>
<g mask="url(#mask0_103_11466)">
<rect x="0.793945" y="0.00109863" width="24" height="24" fill="#1F2024"/>
</g>
</svg>
