<svg width="25" height="24" viewBox="0 0 25 24" fill="none" xmlns="http://www.w3.org/2000/svg">
<path fill-rule="evenodd" clip-rule="evenodd" d="M2.73695 1.93989C3.32273 1.3541 4.27248 1.3541 4.85827 1.93989L22.8583 19.9399C23.4441 20.5257 23.4441 21.4754 22.8583 22.0612C22.2725 22.647 21.3227 22.647 20.7369 22.0612L2.73695 4.06121C2.15116 3.47542 2.15116 2.52568 2.73695 1.93989Z" fill="#006FFD"/>
<path fill-rule="evenodd" clip-rule="evenodd" d="M22.8583 1.93989C22.2725 1.3541 21.3227 1.3541 20.7369 1.93989L2.73695 19.9399C2.15116 20.5257 2.15116 21.4754 2.73695 22.0612C3.32273 22.647 4.27248 22.647 4.85827 22.0612L22.8583 4.06121C23.4441 3.47542 23.4441 2.52568 22.8583 1.93989Z" fill="#006FFD"/>
</svg>
