<svg width="12" height="13" viewBox="0 0 12 13" fill="none" xmlns="http://www.w3.org/2000/svg">
<path d="M8.84876 7.92801H7.89672V8.88006H8.84876M8.84876 6.02393H7.89672V6.97597H8.84876M9.80081 9.8321H5.99264V8.88006H6.94468V7.92801H5.99264V6.97597H6.94468V6.02393H5.99264V5.07189H9.80081M5.04059 4.11984H4.08855V3.1678H5.04059M5.04059 6.02393H4.08855V5.07189H5.04059M5.04059 7.92801H4.08855V6.97597H5.04059M5.04059 9.8321H4.08855V8.88006H5.04059M3.13651 4.11984H2.18446V3.1678H3.13651M3.13651 6.02393H2.18446V5.07189H3.13651M3.13651 7.92801H2.18446V6.97597H3.13651M3.13651 9.8321H2.18446V8.88006H3.13651M5.99264 4.11984V2.21576H1.23242V10.7841H10.7528V4.11984H5.99264Z" fill="#8F9098"/>
</svg>
