<svg width="25" height="24" viewBox="0 0 25 24" fill="none" xmlns="http://www.w3.org/2000/svg">
<path fill-rule="evenodd" clip-rule="evenodd" d="M4.79395 5.2511C4.37973 5.2511 4.04395 5.58689 4.04395 6.0011V20.0011C4.04395 20.4153 4.37973 20.7511 4.79395 20.7511H18.7939C19.2082 20.7511 19.5439 20.4153 19.5439 20.0011V13.0011C19.5439 12.3107 20.1036 11.7511 20.7939 11.7511C21.4843 11.7511 22.0439 12.3107 22.0439 13.0011V20.0011C22.0439 21.796 20.5889 23.2511 18.7939 23.2511H4.79395C2.99902 23.2511 1.54395 21.796 1.54395 20.0011V6.0011C1.54395 4.20617 2.99902 2.7511 4.79395 2.7511H11.7939C12.4843 2.7511 13.0439 3.31074 13.0439 4.0011C13.0439 4.69145 12.4843 5.2511 11.7939 5.2511H4.79395Z" fill="#006FFD"/>
<path d="M13.8886 14.3019L21.0365 7.15407L17.6414 3.75899L10.4936 10.9068C10.3951 11.0053 10.3252 11.1287 10.2913 11.2637L9.49902 15.2964L13.531 14.5042C13.6663 14.4703 13.7902 14.4003 13.8886 14.3019ZM23.3439 4.84658C23.6323 4.5581 23.7943 4.1669 23.7943 3.75899C23.7943 3.35108 23.6323 2.95987 23.3439 2.67139L22.1241 1.4515C21.8356 1.16311 21.4444 1.0011 21.0365 1.0011C20.6285 1.0011 20.2373 1.16311 19.9489 1.4515L18.729 2.67139L22.1241 6.06647L23.3439 4.84658Z" fill="#006FFD"/>
</svg>
