<svg width="25" height="24" viewBox="0 0 25 24" fill="none" xmlns="http://www.w3.org/2000/svg">
<circle cx="12.7939" cy="12.0011" r="11" fill="#D9D9D9"/>
<path d="M10.1288 7.82231C9.71081 7.40432 9.03312 7.40432 8.61513 7.82231C8.19714 8.2403 8.19714 8.91799 8.61513 9.33598L11.2803 12.0011L8.61513 14.6662C8.19714 15.0842 8.19714 15.7619 8.61513 16.1799C9.03312 16.5979 9.71081 16.5979 10.1288 16.1799L12.7939 13.5148L15.459 16.1799C15.877 16.5979 16.5547 16.5979 16.9727 16.1799C17.3907 15.7619 17.3907 15.0842 16.9727 14.6662L14.3076 12.0011L16.9727 9.33598C17.3907 8.91799 17.3907 8.2403 16.9727 7.82231C16.5547 7.40432 15.877 7.40432 15.459 7.82231L12.7939 10.4874L10.1288 7.82231Z" fill="white"/>
</svg>
