<svg width="25" height="24" viewBox="0 0 25 24" fill="none" xmlns="http://www.w3.org/2000/svg">
<path d="M8.93527 20.6097L18.9355 10.6095L14.1856 5.85955L4.18535 15.8598C4.04767 15.9976 3.94988 16.1702 3.90233 16.3591L2.79395 22.0011L8.43488 20.8927C8.62427 20.8454 8.79753 20.7474 8.93527 20.6097ZM22.1638 7.38116C22.5673 6.97756 22.7939 6.43023 22.7939 5.85955C22.7939 5.28886 22.5673 4.74153 22.1638 4.33794L20.4571 2.63124C20.0535 2.22776 19.5062 2.0011 18.9355 2.0011C18.3648 2.0011 17.8175 2.22776 17.4139 2.63124L15.7072 4.33794L20.4571 9.08786L22.1638 7.38116Z" fill="#006FFD"/>
</svg>
