<svg width="25" height="24" viewBox="0 0 25 24" fill="none" xmlns="http://www.w3.org/2000/svg">
    <path fill-rule="evenodd" clip-rule="evenodd" d="M23.5134 3.88235C24.0015 3.39419 24.0015 2.60273 23.5134 2.11458C23.0252 1.62643 22.2337 1.62644 21.7456 2.1146L3.74599 20.1146C3.25784 20.6028 3.25785 21.3942 3.74601 21.8824C4.23417 22.3705 5.02563 22.3705 5.51378 21.8823L8.10312 19.2929C11.024 20.4328 14.3668 20.5162 17.5176 19.2777C20.8449 17.9686 23.4849 15.3395 24.7939 12.0013C23.9391 9.84026 22.5389 7.9963 20.7867 6.60905L23.5134 3.88235ZM17.7254 9.67046L16.0086 11.3873C16.047 11.5883 16.0667 11.7938 16.0667 12.0013C16.0667 12.8693 15.7219 13.7017 15.1081 14.3155C14.4944 14.9293 13.6619 15.2741 12.7939 15.2741C12.5864 15.2741 12.3809 15.2544 12.18 15.216L10.4632 16.9328C11.1851 17.274 11.9802 17.4559 12.7939 17.4559C14.2406 17.4559 15.628 16.8812 16.6509 15.8583C17.6738 14.8354 18.2485 13.448 18.2485 12.0013C18.2485 11.1875 18.0666 10.3924 17.7254 9.67046ZM12.7939 3.81952C14.1844 3.81952 15.5374 4.04462 16.8119 4.46531L14.4674 6.80983C13.9316 6.6371 13.3674 6.54679 12.7939 6.54679C11.3473 6.54679 9.95993 7.12147 8.937 8.14439C7.91407 9.16732 7.3394 10.5547 7.3394 12.0013C7.3394 12.5748 7.42972 13.139 7.60248 13.6749L4.29401 16.9834C2.7926 15.6703 1.57466 13.9874 0.793945 12.0013C2.73576 7.09225 7.49213 3.81952 12.7939 3.81952ZM10.4798 9.68717C11.0331 9.13386 11.7641 8.79914 12.5387 8.73857L9.53117 11.7462C9.59173 10.9715 9.92645 10.2405 10.4798 9.68717Z" fill="#006FFD"/>
</svg>
