<svg width="25" height="24" viewBox="0 0 25 24" xmlns="http://www.w3.org/2000/svg">
    <path
        d="M12.7939 8.72861C11.926 8.72861 11.0935 9.07341 10.4798 9.68717C9.86602 10.3009 9.52122 11.1334 9.52122 12.0013C9.52122 12.8693 9.86602 13.7017 10.4798 14.3155C11.0935 14.9293 11.926 15.2741 12.7939 15.2741C13.6619 15.2741 14.4944 14.9293 15.1081 14.3155C15.7219 13.7017 16.0667 12.8693 16.0667 12.0013C16.0667 11.1334 15.7219 10.3009 15.1081 9.68717C14.4944 9.07341 13.6619 8.72861 12.7939 8.72861ZM12.7939 17.4559C11.3473 17.4559 9.95993 16.8812 8.937 15.8583C7.91407 14.8354 7.3394 13.448 7.3394 12.0013C7.3394 10.5547 7.91407 9.16732 8.937 8.14439C9.95993 7.12147 11.3473 6.54679 12.7939 6.54679C14.2406 6.54679 15.628 7.12147 16.6509 8.14439C17.6738 9.16732 18.2485 10.5547 18.2485 12.0013C18.2485 13.448 17.6738 14.8354 16.6509 15.8583C15.628 16.8812 14.2406 17.4559 12.7939 17.4559ZM12.7939 3.81952C7.49213 3.81952 2.73576 7.09225 0.793945 12.0013C3.40122 18.6341 10.8849 21.885 17.5176 19.2777C20.8449 17.9686 23.4849 15.3395 24.7939 12.0013C22.8521 7.09225 18.0958 3.81952 12.7939 3.81952Z"
        fill="#8F9098"/>
</svg>