<svg width="25" height="24" viewBox="0 0 25 24" fill="none" xmlns="http://www.w3.org/2000/svg">
<path fill-rule="evenodd" clip-rule="evenodd" d="M2.79395 4.50104C2.79395 4.10321 2.94445 3.72168 3.21236 3.44038C3.48027 3.15907 3.84364 3.00104 4.22252 3.00104H21.3654C21.7443 3.00104 22.1076 3.15907 22.3755 3.44038C22.6434 3.72168 22.7939 4.10321 22.7939 4.50104C22.7939 4.89886 22.6434 5.28039 22.3755 5.5617C22.1076 5.843 21.7443 6.00104 21.3654 6.00104H4.22252C3.84364 6.00104 3.48027 5.843 3.21236 5.5617C2.94445 5.28039 2.79395 4.89886 2.79395 4.50104ZM5.94187 12.001C5.94187 11.6032 6.09238 11.2217 6.36029 10.9404C6.6282 10.6591 6.99156 10.501 7.37044 10.501H18.2869C18.6658 10.501 19.0292 10.6591 19.2971 10.9404C19.565 11.2217 19.7155 11.6032 19.7155 12.001C19.7155 12.3989 19.565 12.7804 19.2971 13.0617C19.0292 13.343 18.6658 13.501 18.2869 13.501H7.37044C6.99156 13.501 6.6282 13.343 6.36029 13.0617C6.09238 12.7804 5.94187 12.3989 5.94187 12.001ZM9.61359 19.6994C9.61359 19.3015 9.7641 18.92 10.032 18.6387C10.2999 18.3574 10.6633 18.1994 11.0422 18.1994H14.618C14.9969 18.1994 15.3602 18.3574 15.6282 18.6387C15.8961 18.92 16.0466 19.3015 16.0466 19.6994C16.0466 20.0972 15.8961 20.4787 15.6282 20.76C15.3602 21.0413 14.9969 21.1994 14.618 21.1994H11.0422C10.6633 21.1994 10.2999 21.0413 10.032 20.76C9.7641 20.4787 9.61359 20.0972 9.61359 19.6994Z" fill="#006FFD"/>
</svg>
