<svg width="25" height="24" viewBox="0 0 25 24" fill="none" xmlns="http://www.w3.org/2000/svg">
<path d="M7.54395 1.38849C3.96651 1.38849 1.04395 4.26302 1.04395 7.83599C1.04395 9.17578 1.3137 11.353 2.80081 13.9328C4.28381 16.5056 6.93812 19.4108 11.6017 22.2779L11.6066 22.2809C11.9644 22.4986 12.3751 22.6137 12.7939 22.6137C13.2128 22.6137 13.6235 22.4986 13.9813 22.2809L13.9862 22.2779C18.6498 19.4108 21.3041 16.5056 22.7871 13.9328C24.2742 11.353 24.5439 9.17578 24.5439 7.83599C24.5439 4.26302 21.6214 1.38849 18.0439 1.38849C16.1592 1.38849 14.5647 2.39692 13.5341 3.25109C13.258 3.47997 13.01 3.70807 12.7939 3.92045C12.5779 3.70807 12.3299 3.47997 12.0538 3.25109C11.0232 2.39692 9.42866 1.38849 7.54395 1.38849Z" fill="#006FFD"/>
</svg>
