<svg width="25" height="24" viewBox="0 0 25 24" fill="none" xmlns="http://www.w3.org/2000/svg">

    <path fill-rule="evenodd" clip-rule="evenodd" d="M1.04395 7.83599C1.04395 4.26302 3.96651 1.38849 7.54395 1.38849C9.42866 1.38849 11.0232 2.39692 12.0538 3.25109C12.3299 3.47997 12.5779 3.70807 12.7939 3.92045C13.01 3.70807 13.258 3.47997 13.5341 3.25109C14.5647 2.39692 16.1592 1.38849 18.0439 1.38849C21.6214 1.38849 24.5439 4.26302 24.5439 7.83599C24.5439 9.17578 24.2742 11.353 22.7871 13.9328C21.3041 16.5056 18.6498 19.4108 13.9862 22.2779L13.9813 22.2809C13.6235 22.4986 13.2128 22.6137 12.7939 22.6137C12.3751 22.6137 11.9644 22.4986 11.6066 22.2809L11.6017 22.2779C6.93812 19.4108 4.28381 16.5056 2.80081 13.9328C1.3137 11.353 1.04395 9.17578 1.04395 7.83599ZM13.7953 6.53668C13.5593 6.85249 13.1882 7.03849 12.7939 7.03849C12.4001 7.03849 12.0294 6.85292 11.7934 6.53778C11.7931 6.53741 11.7929 6.53705 11.7926 6.53668L11.7929 6.53715L11.7934 6.53778L11.7935 6.53789L11.794 6.53853C11.794 6.53859 11.7935 6.53792 11.7925 6.53655L11.7798 6.52007C11.7671 6.5037 11.746 6.47689 11.7169 6.44113C11.6588 6.3695 11.5693 6.26266 11.4521 6.13236C11.2162 5.87017 10.8755 5.52159 10.4584 5.17589C9.58873 4.45506 8.55828 3.88849 7.54395 3.88849C5.32328 3.88849 3.54395 5.66756 3.54395 7.83599C3.54395 8.81355 3.73357 10.545 4.96674 12.6843C6.19296 14.8116 8.48938 17.4085 12.7939 20.0759C17.0985 17.4085 19.3949 14.8116 20.6211 12.6843C21.8543 10.545 22.0439 8.81355 22.0439 7.83599C22.0439 5.66756 20.2646 3.88849 18.0439 3.88849C17.0296 3.88849 15.9992 4.45506 15.1295 5.17589C14.7124 5.52159 14.3717 5.87017 14.1358 6.13236C14.0186 6.26266 13.9291 6.3695 13.871 6.44113C13.8419 6.47689 13.8208 6.5037 13.8081 6.52007L13.7954 6.53655C13.7947 6.53746 13.7943 6.53806 13.7941 6.53834L13.7944 6.53789L13.7949 6.53715L13.7953 6.53668Z" fill="#006FFD"/>
</svg>
