<svg width="25" height="24" viewBox="0 0 25 24" xmlns="http://www.w3.org/2000/svg">
    <path
        d="M4.79395 2.0011C3.73308 2.0011 2.71566 2.42253 1.96552 3.17267C1.21537 3.92282 0.793945 4.94023 0.793945 6.0011V6.4031L12.7939 12.8651L24.7939 6.4051V6.0011C24.7939 4.94023 24.3725 3.92282 23.6224 3.17267C22.8722 2.42253 21.8548 2.0011 20.7939 2.0011H4.79395ZM24.7939 8.6751L13.2679 14.8811C13.1223 14.9595 12.9594 15.0006 12.7939 15.0006C12.6285 15.0006 12.4656 14.9595 12.3199 14.8811L0.793945 8.6751V18.0011C0.793945 19.062 1.21537 20.0794 1.96552 20.8295C2.71566 21.5797 3.73308 22.0011 4.79395 22.0011H20.7939C21.8548 22.0011 22.8722 21.5797 23.6224 20.8295C24.3725 20.0794 24.7939 19.062 24.7939 18.0011V8.6751Z"
        fill="#8F9098"
    />
</svg>