<svg width="25" height="24" viewBox="0 0 25 24" fill="none" xmlns="http://www.w3.org/2000/svg">
<path fill-rule="evenodd" clip-rule="evenodd" d="M10.4272 10.8143C10.4272 10.2621 10.8749 9.81434 11.4272 9.81434H12.7939C13.3462 9.81434 13.7939 10.2621 13.7939 10.8143V15.4711H14.9998C15.5521 15.4711 15.9998 15.9188 15.9998 16.4711C15.9998 17.0234 15.5521 17.4711 14.9998 17.4711H10.5881C10.0358 17.4711 9.58807 17.0234 9.58807 16.4711C9.58807 15.9188 10.0358 15.4711 10.5881 15.4711H11.7939V11.8143H11.4272C10.8749 11.8143 10.4272 11.3666 10.4272 10.8143Z" fill="white"/>
<path d="M14.0266 7.83958C14.0266 8.56224 13.4407 9.14807 12.7181 9.14807C11.9954 9.14807 11.4096 8.56224 11.4096 7.83958C11.4096 7.11693 11.9954 6.5311 12.7181 6.5311C13.4407 6.5311 14.0266 7.11693 14.0266 7.83958Z" fill="white"/>
</svg>
