<svg width="12" height="13" viewBox="0 0 12 13" fill="none" xmlns="http://www.w3.org/2000/svg">
<path d="M5.96838 6.26195C5.65276 6.26195 5.35006 6.13657 5.12688 5.91339C4.90371 5.69021 4.77833 5.38752 4.77833 5.0719C4.77833 4.75627 4.90371 4.45358 5.12688 4.2304C5.35006 4.00722 5.65276 3.88184 5.96838 3.88184C6.284 3.88184 6.5867 4.00722 6.80987 4.2304C7.03305 4.45358 7.15843 4.75627 7.15843 5.0719C7.15843 5.22818 7.12765 5.38293 7.06785 5.52731C7.00804 5.67169 6.92038 5.80288 6.80987 5.91339C6.69937 6.0239 6.56818 6.11156 6.42379 6.17136C6.27941 6.23117 6.12466 6.26195 5.96838 6.26195ZM5.96838 1.73975C5.08464 1.73975 4.23709 2.09081 3.61219 2.71571C2.9873 3.34061 2.63623 4.18815 2.63623 5.0719C2.63623 7.57101 5.96838 11.2602 5.96838 11.2602C5.96838 11.2602 9.30053 7.57101 9.30053 5.0719C9.30053 4.18815 8.94946 3.34061 8.32456 2.71571C7.69967 2.09081 6.85212 1.73975 5.96838 1.73975Z" fill="#8F9098"/>
</svg>
