<svg width="20" height="21" viewBox="0 0 20 21" fill="none" xmlns="http://www.w3.org/2000/svg">
<path d="M17.8084 12.0799L18.0917 9.10494C18.3084 7.07164 17.7251 5.41333 14.1667 5.41333H5.83339C2.27506 5.41333 1.69173 7.07164 1.91673 9.10494L2.54173 15.7715C2.71673 17.4048 3.31673 18.7465 6.66673 18.7465H13.3334C16.6834 18.7465 17.2834 17.4048 17.4584 15.7715" stroke="#1F2024" stroke-width="1.5" stroke-miterlimit="10" stroke-linecap="round" stroke-linejoin="round"/>
<path d="M6.66663 5.41336V4.7467C6.66663 3.27173 6.66663 2.08008 9.33329 2.08008H10.6666C13.3333 2.08008 13.3333 3.27173 13.3333 4.7467V5.41336" stroke="#1F2024" stroke-width="1.5" stroke-miterlimit="10" stroke-linecap="round" stroke-linejoin="round"/>
<path d="M11.6667 11.2467V12.08C11.6667 12.0883 11.6667 12.0883 11.6667 12.0966C11.6667 13.005 11.6584 13.7466 10 13.7466C8.35004 13.7466 8.33337 13.0133 8.33337 12.105V11.2467C8.33337 10.4133 8.33337 10.4133 9.16671 10.4133H10.8334C11.6667 10.4133 11.6667 10.4133 11.6667 11.2467Z" stroke="#1F2024" stroke-width="1.5" stroke-miterlimit="10" stroke-linecap="round" stroke-linejoin="round"/>
<path d="M18.0416 9.57996C16.1166 10.9799 13.9166 11.8133 11.6666 12.0966" stroke="#1F2024" stroke-width="1.5" stroke-miterlimit="10" stroke-linecap="round" stroke-linejoin="round"/>
<path d="M2.18335 9.80493C4.05835 11.0882 6.17502 11.8632 8.33335 12.1049" stroke="#1F2024" stroke-width="1.5" stroke-miterlimit="10" stroke-linecap="round" stroke-linejoin="round"/>
<defs>
<clipPath id="clip0_2296_6628">
<rect width="20" height="19.9997" fill="white" transform="translate(0 0.413452)"/>
</clipPath>
</defs>
</svg>
