<svg width="20" height="21" viewBox="0 0 20 21" fill="none" xmlns="http://www.w3.org/2000/svg">
<path d="M2.36113 9.0236C2.17693 9.0236 2.00029 8.95043 1.87004 8.82019C1.7398 8.68995 1.66663 8.5133 1.66663 8.32911V2.77457C1.66663 2.59038 1.7398 2.41373 1.87004 2.28349C2.00029 2.15325 2.17693 2.08008 2.36113 2.08008H7.91715C8.10134 2.08008 8.27799 2.15325 8.40823 2.28349C8.53848 2.41373 8.61165 2.59038 8.61165 2.77457V8.32911C8.61165 8.5133 8.53848 8.68995 8.40823 8.82019C8.27799 8.95043 8.10134 9.0236 7.91715 9.0236H2.36113ZM12.0842 9.0236C11.9 9.0236 11.7233 8.95043 11.5931 8.82019C11.4628 8.68995 11.3897 8.5133 11.3897 8.32911V2.77457C11.3897 2.59038 11.4628 2.41373 11.5931 2.28349C11.7233 2.15325 11.9 2.08008 12.0842 2.08008H17.6388C17.823 2.08008 17.9996 2.15325 18.1299 2.28349C18.2601 2.41373 18.3333 2.59038 18.3333 2.77457V8.32911C18.3333 8.5133 18.2601 8.68995 18.1299 8.82019C17.9996 8.95043 17.823 9.0236 17.6388 9.0236H12.0842ZM2.36113 18.7465C2.17693 18.7465 2.00029 18.6733 1.87004 18.5431C1.7398 18.4128 1.66663 18.2362 1.66663 18.052V12.4961C1.66663 12.3119 1.7398 12.1352 1.87004 12.005C2.00029 11.8747 2.17693 11.8016 2.36113 11.8016H7.91715C8.10134 11.8016 8.27799 11.8747 8.40823 12.005C8.53848 12.1352 8.61165 12.3119 8.61165 12.4961V18.052C8.61165 18.2362 8.53848 18.4128 8.40823 18.5431C8.27799 18.6733 8.10134 18.7465 7.91715 18.7465H2.36113ZM12.0842 18.7465C11.9 18.7465 11.7233 18.6733 11.5931 18.5431C11.4628 18.4128 11.3897 18.2362 11.3897 18.052V12.4961C11.3897 12.3119 11.4628 12.1352 11.5931 12.005C11.7233 11.8747 11.9 11.8016 12.0842 11.8016H17.6388C17.823 11.8016 17.9996 11.8747 18.1299 12.005C18.2601 12.1352 18.3333 12.3119 18.3333 12.4961V18.052C18.3333 18.2362 18.2601 18.4128 18.1299 18.5431C17.9996 18.6733 17.823 18.7465 17.6388 18.7465H12.0842Z" fill="black"/>
</svg>
