<svg width="25" height="24" viewBox="0 0 25 24" fill="none" xmlns="http://www.w3.org/2000/svg">
<path fill-rule="evenodd" clip-rule="evenodd" d="M10.4364 0.5C5.39215 0.5 1.2959 4.55659 1.2959 9.56934C1.2959 14.5821 5.39215 18.6387 10.4364 18.6387C12.317 18.6387 14.0664 18.0746 15.5203 17.1075L21.4834 23.0214C22.1268 23.6595 23.1683 23.6595 23.8116 23.0214C24.4573 22.3811 24.4573 21.3411 23.8116 20.7007L17.8867 14.8247C18.9506 13.3423 19.5769 11.528 19.5769 9.56934C19.5769 4.55659 15.4807 0.5 10.4364 0.5ZM4.59265 9.56934C4.59265 6.37467 7.20508 3.77783 10.4364 3.77783C13.6677 3.77783 16.2802 6.37467 16.2802 9.56934C16.2802 12.764 13.6677 15.3608 10.4364 15.3608C7.20508 15.3608 4.59265 12.764 4.59265 9.56934Z" fill="#006FFD"/>

</svg>
