<svg width="25" height="24" viewBox="0 0 25 24" fill="none" xmlns="http://www.w3.org/2000/svg">
<mask id="mask0_103_11463" style="mask-type:alpha" maskUnits="userSpaceOnUse" x="1" y="1" width="23" height="23">
<path d="M1.61753 8.4407C1.48435 8.48508 1.3663 8.56594 1.2768 8.67409C1.18731 8.78224 1.12996 8.91333 1.11128 9.05246C1.09261 9.19159 1.11335 9.33317 1.17116 9.46109C1.22897 9.58902 1.32152 9.69815 1.43828 9.77607L8.07059 13.4322C8.1942 13.5003 8.33452 13.5321 8.47543 13.5241C8.61634 13.516 8.75211 13.4683 8.86714 13.3866L15.9131 8.36221C16.2536 8.13417 16.6609 8.54146 16.4328 8.88194L11.4085 15.9279C11.3267 16.0429 11.279 16.1787 11.271 16.3196C11.2629 16.4605 11.2948 16.6008 11.3629 16.7245L15.019 23.3568C15.0969 23.4735 15.206 23.5661 15.334 23.6239C15.4619 23.6817 15.6035 23.7024 15.7426 23.6838C15.8817 23.6651 16.0128 23.6077 16.121 23.5182C16.2291 23.4287 16.31 23.3107 16.3543 23.1775L23.2486 2.49464C23.2925 2.36258 23.2988 2.22091 23.2667 2.08549C23.2347 1.95006 23.1656 1.82622 23.0672 1.72782C22.9688 1.62942 22.845 1.56033 22.7096 1.52829C22.5741 1.49626 22.4325 1.50253 22.3004 1.54641L1.61753 8.4407Z" fill="#006FFD"/>
</mask>
<g mask="url(#mask0_103_11463)">
<rect x="0.793945" y="0.00109863" width="24" height="24" fill="#1F2024"/>
</g>
</svg>
