<svg width="25" height="24" viewBox="0 0 25 24" fill="none" xmlns="http://www.w3.org/2000/svg">
<path fill-rule="evenodd" clip-rule="evenodd" d="M9.46267 1.33845C10.3585 0.495698 11.5581 0.0345154 12.794 0.0345154C14.03 0.0345154 15.2296 0.495698 16.1254 1.33845C17.0238 2.18363 17.544 3.34685 17.544 4.57711V10.3161C17.544 11.0065 16.9844 11.5661 16.294 11.5661C15.6037 11.5661 15.044 11.0065 15.044 10.3161V4.57711C15.044 4.06088 14.8267 3.54912 14.4124 3.15934C13.9955 2.76713 13.4146 2.53452 12.794 2.53452C12.1735 2.53452 11.5926 2.76713 11.1757 3.15934C10.7613 3.54912 10.544 4.06088 10.544 4.57711V10.3161C10.544 11.0065 9.98439 11.5661 9.29404 11.5661C8.60368 11.5661 8.04404 11.0065 8.04404 10.3161V4.57711C8.04404 3.34685 8.56425 2.18363 9.46267 1.33845Z" fill="#006FFD"/>
<path d="M6.90878 7.2317C5.20396 7.2317 3.7889 8.54902 3.66709 10.2495L2.95074 20.2495C2.81595 22.131 4.30605 23.7317 6.19243 23.7317H19.3956C21.282 23.7317 22.7721 22.131 22.6373 20.2495L21.921 10.2495C21.7992 8.54902 20.3841 7.2317 18.6793 7.2317H6.90878Z" fill="#006FFD"/>

</svg>
