<svg width="25" height="24" viewBox="0 0 25 24" fill="none" xmlns="http://www.w3.org/2000/svg">
]<path fill-rule="evenodd" clip-rule="evenodd" d="M9.46272 1.30503C10.3586 0.462282 11.5581 0.00109863 12.7941 0.00109863C14.0301 0.00109863 15.2296 0.462281 16.1255 1.30503C17.0239 2.15021 17.5441 3.31343 17.5441 4.5437V11.3022C17.5441 11.9925 16.9844 12.5522 16.2941 12.5522C15.6037 12.5522 15.0441 11.9925 15.0441 11.3022V4.5437C15.0441 4.02746 14.8268 3.5157 14.4125 3.12593C13.9955 2.73371 13.4146 2.5011 12.7941 2.5011C12.1735 2.5011 11.5926 2.73371 11.1757 3.12593C10.7614 3.51571 10.5441 4.02746 10.5441 4.5437V11.3022C10.5441 11.9925 9.98444 12.5522 9.29409 12.5522C8.60373 12.5522 8.04409 11.9925 8.04409 11.3022V4.5437C8.04409 3.31343 8.56429 2.15021 9.46272 1.30503Z" fill="#006FFD"/>
<path fill-rule="evenodd" clip-rule="evenodd" d="M3.66709 10.2161C3.7889 8.51559 5.20396 7.19827 6.90878 7.19827H18.6793C20.3841 7.19827 21.7992 8.51559 21.921 10.2161L22.6373 20.2161C22.7721 22.0976 21.282 23.6983 19.3956 23.6983H6.19243C4.30605 23.6983 2.81595 22.0976 2.95074 20.2161L3.66709 10.2161ZM6.90878 9.69827C6.51536 9.69827 6.18881 10.0023 6.1607 10.3947L5.44435 20.3947C5.41324 20.8289 5.75711 21.1983 6.19243 21.1983H19.3956C19.831 21.1983 20.1748 20.8289 20.1437 20.3947L19.4274 10.3947C19.3993 10.0023 19.0727 9.69827 18.6793 9.69827H6.90878Z" fill="#006FFD"/>

</svg>
