<svg width="25" height="24" viewBox="0 0 25 24" fill="none" xmlns="http://www.w3.org/2000/svg">
<path fill-rule="evenodd" clip-rule="evenodd" d="M16.4639 9.49979C15.6494 9.38143 14.9454 8.86981 14.5813 8.13172L12.7939 4.50809L11.0065 8.13172C10.6425 8.86981 9.93845 9.38143 9.12401 9.49979L5.12386 10.0811L8.01887 12.9037C8.60802 13.4781 8.87681 14.3056 8.73764 15.1165L8.0542 19.0991L11.6305 17.2188C12.3589 16.8359 13.229 16.8359 13.9573 17.2188L17.5337 19.0991L16.8502 15.1165C16.7111 14.3056 16.9799 13.4781 17.569 12.9037L20.464 10.0811L16.4639 9.49979ZM24.0181 8.07141C24.514 8.14508 24.8597 8.60414 24.7832 9.10003C24.7549 9.29839 24.6614 9.47974 24.5197 9.61859L19.3142 14.6937L20.544 21.8601C20.629 22.3531 20.2975 22.8207 19.8044 22.9057C19.6089 22.9397 19.4049 22.9085 19.2292 22.815L12.7939 19.4316L6.35867 22.815C6.20906 22.894 6.04031 22.9295 5.87156 22.9175C5.70281 22.9054 5.5408 22.8463 5.40391 22.7469C5.26703 22.6475 5.16074 22.5117 5.09709 22.355C5.03345 22.1982 5.015 22.0268 5.04384 21.8601L6.27366 14.6937L1.0682 9.61859C0.895828 9.45057 0.797213 9.22098 0.794025 8.98029C0.790837 8.73959 0.883337 8.50747 1.0512 8.33494C1.19005 8.19326 1.3714 8.09975 1.56976 8.07141L8.76445 7.02578L11.9807 0.505503C12.2045 0.0577826 12.7486 -0.126406 13.1963 0.0946203C13.3748 0.182464 13.5194 0.326981 13.6072 0.505503L16.8234 7.02578L24.0181 8.07141Z" fill="#006FFD"/>
</svg>
