<svg width="25" height="24" viewBox="0 0 25 24" fill="none" xmlns="http://www.w3.org/2000/svg">
<path d="M24.0182 8.0715L16.8235 7.02586L13.6072 0.505508C13.5194 0.326985 13.3749 0.182466 13.1963 0.0946213C12.7486 -0.126408 12.2045 0.0577832 11.9807 0.505508L8.76442 7.02586L1.56965 8.0715C1.37129 8.09983 1.18993 8.19335 1.05108 8.33503C0.883215 8.50756 0.790715 8.73968 0.793903 8.98038C0.797091 9.22108 0.895707 9.45067 1.06808 9.6187L6.27359 14.6939L5.04377 21.8603C5.01493 22.027 5.03337 22.1985 5.09702 22.3552C5.16066 22.512 5.26695 22.6478 5.40384 22.7472C5.54073 22.8466 5.70274 22.9057 5.87149 22.9177C6.04025 22.9297 6.209 22.8942 6.35861 22.8153L12.7939 19.4318L19.2293 22.8153C19.405 22.9088 19.609 22.9399 19.8045 22.9059C20.2976 22.8209 20.6291 22.3534 20.5441 21.8603L19.3143 14.6939L24.5198 9.6187C24.6615 9.47985 24.755 9.29849 24.7833 9.10013C24.8599 8.60423 24.5141 8.14517 24.0182 8.0715Z" fill="#006FFD"/>
<defs>
<clipPath id="clip0_103_11454">
<rect width="24" height="24" fill="white" transform="translate(0.793945 0.00109863)"/>
</clipPath>
</defs>
</svg>
