<svg width="11" height="4" viewBox="0 0 11 4" fill="none" xmlns="http://www.w3.org/2000/svg">
<path fill-rule="evenodd" clip-rule="evenodd" d="M8.14693 2.00008C8.14693 2.73341 8.74693 3.33341 9.48027 3.33341C10.2136 3.33341 10.8136 2.73341 10.8136 2.00008C10.8136 1.26675 10.2136 0.666748 9.48027 0.666748C8.74693 0.666748 8.14693 1.26675 8.14693 2.00008ZM6.8136 2.00008C6.8136 1.26675 6.2136 0.666748 5.48027 0.666748C4.74693 0.666748 4.14693 1.26675 4.14693 2.00008C4.14693 2.73341 4.74693 3.33341 5.48027 3.33341C6.2136 3.33341 6.8136 2.73341 6.8136 2.00008ZM1.48027 0.666748C2.2136 0.666748 2.8136 1.26675 2.8136 2.00008C2.8136 2.73341 2.2136 3.33341 1.48027 3.33341C0.746932 3.33341 0.146933 2.73341 0.146933 2.00008C0.146933 1.26675 0.746932 0.666748 1.48027 0.666748Z" fill="#71727A"/>
</svg>
