<svg width="25" height="24" viewBox="0 0 25 24" fill="none" xmlns="http://www.w3.org/2000/svg">
<path d="M12.2416 6.06112C12.4159 5.98437 12.6042 5.94481 12.7947 5.94498C12.985 5.94502 13.1732 5.98474 13.3473 6.06158C13.5214 6.13842 13.6776 6.25071 13.8059 6.39128C13.9342 6.53185 14.0318 6.69762 14.0924 6.87801C14.1531 7.0584 14.1755 7.24945 14.1582 7.43898L13.6122 13.448C13.591 13.65 13.4957 13.837 13.3447 13.9729C13.1938 14.1089 12.9978 14.1841 12.7947 14.1841C12.5915 14.1841 12.3956 14.1089 12.2446 13.9729C12.0937 13.837 11.9984 13.65 11.9772 13.448L11.4297 7.43898C11.4124 7.24933 11.4348 7.05815 11.4955 6.87766C11.5563 6.69716 11.654 6.53132 11.7825 6.39073C11.9109 6.25013 12.0673 6.13788 12.2416 6.06112Z" fill="white"/>
<path d="M14.1032 16.7487C14.1032 17.4714 13.5174 18.0572 12.7947 18.0572C12.0721 18.0572 11.4863 17.4714 11.4863 16.7487C11.4863 16.0261 12.0721 15.4402 12.7947 15.4402C13.5174 15.4402 14.1032 16.0261 14.1032 16.7487Z" fill="white"/>
</svg>
